<?xml version="1.0" encoding="us-ascii" standalone="no"?><svg xmlns="http://www.w3.org/2000/svg" xmlns:xlink="http://www.w3.org/1999/xlink" contentStyleType="text/css" height="1040px" preserveAspectRatio="none" style="width:1151px;height:1040px;background:#FFFFFF;" version="1.1" viewBox="0 0 1151 1040" width="1151px" zoomAndPan="magnify"><defs/><g><rect fill="#FFFFFF" height="829.4922" style="stroke:#181818;stroke-width:1.0;" width="10" x="37.5" y="96.2188"/><rect fill="#FFFFFF" height="807.1406" style="stroke:#181818;stroke-width:1.0;" width="10" x="199.5" y="118.5703"/><rect fill="#FFFFFF" height="746.4375" style="stroke:#181818;stroke-width:1.0;" width="10" x="465.5" y="148.9219"/><rect fill="#FFFFFF" height="30.3516" style="stroke:#181818;stroke-width:1.0;" width="10" x="1085" y="179.2734"/><rect fill="#FFFFFF" height="162.7578" style="stroke:#181818;stroke-width:1.0;" width="10" x="1085" y="771.9531"/><rect fill="none" height="79.0547" style="stroke:#000000;stroke-width:1.5;" width="523" x="10" y="224.625"/><rect fill="none" height="48.7031" style="stroke:#000000;stroke-width:1.5;" width="621.5" x="408" y="317.6797"/><rect fill="none" height="48.7031" style="stroke:#000000;stroke-width:1.5;" width="621.5" x="408" y="380.3828"/><rect fill="none" height="48.7031" style="stroke:#000000;stroke-width:1.5;" width="621.5" x="408" y="443.0859"/><rect fill="none" height="48.7031" style="stroke:#000000;stroke-width:1.5;" width="621.5" x="408" y="505.7891"/><rect fill="none" height="48.7031" style="stroke:#000000;stroke-width:1.5;" width="621.5" x="408" y="568.4922"/><rect fill="none" height="48.7031" style="stroke:#000000;stroke-width:1.5;" width="621.5" x="408" y="631.1953"/><rect fill="none" height="48.7031" style="stroke:#000000;stroke-width:1.5;" width="621.5" x="408" y="693.8984"/><rect fill="none" height="48.7031" style="stroke:#000000;stroke-width:1.5;" width="373.5" x="408" y="817.3047"/><line style="stroke:#181818;stroke-width:0.5;stroke-dasharray:5.0,5.0;" x1="42" x2="42" y1="86.2188" y2="943.7109"/><line style="stroke:#181818;stroke-width:0.5;stroke-dasharray:5.0,5.0;" x1="204" x2="204" y1="86.2188" y2="943.7109"/><line style="stroke:#181818;stroke-width:0.5;stroke-dasharray:5.0,5.0;" x1="470" x2="470" y1="86.2188" y2="943.7109"/><line style="stroke:#181818;stroke-width:0.5;stroke-dasharray:5.0,5.0;" x1="722.5" x2="722.5" y1="86.2188" y2="943.7109"/><line style="stroke:#181818;stroke-width:0.5;stroke-dasharray:5.0,5.0;" x1="980.5" x2="980.5" y1="86.2188" y2="943.7109"/><line style="stroke:#181818;stroke-width:0.5;stroke-dasharray:5.0,5.0;" x1="1089.5" x2="1089.5" y1="86.2188" y2="943.7109"/><text fill="#000000" font-family="sans-serif" font-size="14" lengthAdjust="spacing" textLength="39" x="20" y="83.1426">Admin</text><ellipse cx="42.5" cy="17.1094" fill="#E2E2F0" rx="8" ry="8" style="stroke:#181818;stroke-width:0.5;"/><path d="M42.5,25.1094 L42.5,52.1094 M29.5,33.1094 L55.5,33.1094 M42.5,52.1094 L29.5,67.1094 M42.5,52.1094 L55.5,67.1094 " fill="none" style="stroke:#181818;stroke-width:0.5;"/><text fill="#000000" font-family="sans-serif" font-size="14" lengthAdjust="spacing" textLength="39" x="20" y="957.2441">Admin</text><ellipse cx="42.5" cy="968.8203" fill="#E2E2F0" rx="8" ry="8" style="stroke:#181818;stroke-width:0.5;"/><path d="M42.5,976.8203 L42.5,1003.8203 M29.5,984.8203 L55.5,984.8203 M42.5,1003.8203 L29.5,1018.8203 M42.5,1003.8203 L55.5,1018.8203 " fill="none" style="stroke:#181818;stroke-width:0.5;"/><rect fill="#E2E2F0" height="49.2188" rx="2.5" ry="2.5" style="stroke:#181818;stroke-width:0.5;" width="127" x="141" y="36"/><text fill="#000000" font-family="sans-serif" font-size="14" font-style="italic" lengthAdjust="spacing" textLength="78" x="165.5" y="57.5332">&#171;Controller&#187;</text><text fill="#000000" font-family="sans-serif" font-size="14" lengthAdjust="spacing" textLength="113" x="148" y="75.1426">PatientsController</text><rect fill="#E2E2F0" height="49.2188" rx="2.5" ry="2.5" style="stroke:#181818;stroke-width:0.5;" width="127" x="141" y="942.7109"/><text fill="#000000" font-family="sans-serif" font-size="14" font-style="italic" lengthAdjust="spacing" textLength="78" x="165.5" y="964.2441">&#171;Controller&#187;</text><text fill="#000000" font-family="sans-serif" font-size="14" lengthAdjust="spacing" textLength="113" x="148" y="981.8535">PatientsController</text><rect fill="#E2E2F0" height="49.2188" rx="2.5" ry="2.5" style="stroke:#181818;stroke-width:0.5;" width="105" x="418" y="36"/><text fill="#000000" font-family="sans-serif" font-size="14" font-style="italic" lengthAdjust="spacing" textLength="62" x="439.5" y="57.5332">&#171;Service&#187;</text><text fill="#000000" font-family="sans-serif" font-size="14" lengthAdjust="spacing" textLength="91" x="425" y="75.1426">PatientService</text><rect fill="#E2E2F0" height="49.2188" rx="2.5" ry="2.5" style="stroke:#181818;stroke-width:0.5;" width="105" x="418" y="942.7109"/><text fill="#000000" font-family="sans-serif" font-size="14" font-style="italic" lengthAdjust="spacing" textLength="62" x="439.5" y="964.2441">&#171;Service&#187;</text><text fill="#000000" font-family="sans-serif" font-size="14" lengthAdjust="spacing" textLength="91" x="425" y="981.8535">PatientService</text><rect fill="#E2E2F0" height="49.2188" rx="2.5" ry="2.5" style="stroke:#181818;stroke-width:0.5;" width="98" x="673.5" y="36"/><text fill="#000000" font-family="sans-serif" font-size="14" font-style="italic" lengthAdjust="spacing" textLength="62" x="691.5" y="57.5332">&#171;Service&#187;</text><text fill="#000000" font-family="sans-serif" font-size="14" lengthAdjust="spacing" textLength="84" x="680.5" y="75.1426">IEmailService</text><rect fill="#E2E2F0" height="49.2188" rx="2.5" ry="2.5" style="stroke:#181818;stroke-width:0.5;" width="98" x="673.5" y="942.7109"/><text fill="#000000" font-family="sans-serif" font-size="14" font-style="italic" lengthAdjust="spacing" textLength="62" x="691.5" y="964.2441">&#171;Service&#187;</text><text fill="#000000" font-family="sans-serif" font-size="14" lengthAdjust="spacing" textLength="84" x="680.5" y="981.8535">IEmailService</text><rect fill="#E2E2F0" height="49.2188" rx="2.5" ry="2.5" style="stroke:#181818;stroke-width:0.5;" width="78" x="941.5" y="36"/><text fill="#000000" font-family="sans-serif" font-size="14" font-style="italic" lengthAdjust="spacing" textLength="64" x="948.5" y="57.5332">&#171;Domain&#187;</text><text fill="#000000" font-family="sans-serif" font-size="14" lengthAdjust="spacing" textLength="44" x="958.5" y="75.1426">Patient</text><rect fill="#E2E2F0" height="49.2188" rx="2.5" ry="2.5" style="stroke:#181818;stroke-width:0.5;" width="78" x="941.5" y="942.7109"/><text fill="#000000" font-family="sans-serif" font-size="14" font-style="italic" lengthAdjust="spacing" textLength="64" x="948.5" y="964.2441">&#171;Domain&#187;</text><text fill="#000000" font-family="sans-serif" font-size="14" lengthAdjust="spacing" textLength="44" x="958.5" y="981.8535">Patient</text><text fill="#000000" font-family="sans-serif" font-size="14" font-style="italic" lengthAdjust="spacing" textLength="64" x="1055" y="65.5332">&#171;Domain&#187;</text><text fill="#000000" font-family="sans-serif" font-size="14" lengthAdjust="spacing" textLength="115" x="1029.5" y="83.1426">IPatientRepository</text><path d="M1072,15 C1072,5 1090,5 1090,5 C1090,5 1108,5 1108,15 L1108,41 C1108,51 1090,51 1090,51 C1090,51 1072,51 1072,41 L1072,15 " fill="#E2E2F0" style="stroke:#181818;stroke-width:1.5;"/><path d="M1072,15 C1072,25 1090,25 1090,25 C1090,25 1108,25 1108,15 " fill="none" style="stroke:#181818;stroke-width:1.5;"/><text fill="#000000" font-family="sans-serif" font-size="14" font-style="italic" lengthAdjust="spacing" textLength="64" x="1055" y="957.2441">&#171;Domain&#187;</text><text fill="#000000" font-family="sans-serif" font-size="14" lengthAdjust="spacing" textLength="115" x="1029.5" y="974.8535">IPatientRepository</text><path d="M1072,987.9297 C1072,977.9297 1090,977.9297 1090,977.9297 C1090,977.9297 1108,977.9297 1108,987.9297 L1108,1013.9297 C1108,1023.9297 1090,1023.9297 1090,1023.9297 C1090,1023.9297 1072,1023.9297 1072,1013.9297 L1072,987.9297 " fill="#E2E2F0" style="stroke:#181818;stroke-width:1.5;"/><path d="M1072,987.9297 C1072,997.9297 1090,997.9297 1090,997.9297 C1090,997.9297 1108,997.9297 1108,987.9297 " fill="none" style="stroke:#181818;stroke-width:1.5;"/><rect fill="#FFFFFF" height="829.4922" style="stroke:#181818;stroke-width:1.0;" width="10" x="37.5" y="96.2188"/><rect fill="#FFFFFF" height="807.1406" style="stroke:#181818;stroke-width:1.0;" width="10" x="199.5" y="118.5703"/><rect fill="#FFFFFF" height="746.4375" style="stroke:#181818;stroke-width:1.0;" width="10" x="465.5" y="148.9219"/><rect fill="#FFFFFF" height="30.3516" style="stroke:#181818;stroke-width:1.0;" width="10" x="1085" y="179.2734"/><rect fill="#FFFFFF" height="162.7578" style="stroke:#181818;stroke-width:1.0;" width="10" x="1085" y="771.9531"/><polygon fill="#181818" points="187.5,114.5703,197.5,118.5703,187.5,122.5703,191.5,118.5703" style="stroke:#181818;stroke-width:1.0;"/><line style="stroke:#181818;stroke-width:1.0;" x1="47.5" x2="193.5" y1="118.5703" y2="118.5703"/><text fill="#000000" font-family="sans-serif" font-size="13" font-weight="bold" lengthAdjust="spacing" textLength="7" x="54.5" y="113.7139">1</text><text fill="#000000" font-family="sans-serif" font-size="13" lengthAdjust="spacing" textLength="122" x="65.5" y="113.7139">PUT /api/patients/{id}</text><polygon fill="#181818" points="453.5,144.9219,463.5,148.9219,453.5,152.9219,457.5,148.9219" style="stroke:#181818;stroke-width:1.0;"/><line style="stroke:#181818;stroke-width:1.0;" x1="209.5" x2="459.5" y1="148.9219" y2="148.9219"/><text fill="#000000" font-family="sans-serif" font-size="13" font-weight="bold" lengthAdjust="spacing" textLength="7" x="216.5" y="144.0654">2</text><text fill="#000000" font-family="sans-serif" font-size="13" lengthAdjust="spacing" textLength="226" x="227.5" y="144.0654">EditPatientAsync(id, editingPatientDto)</text><polygon fill="#181818" points="1073,175.2734,1083,179.2734,1073,183.2734,1077,179.2734" style="stroke:#181818;stroke-width:1.0;"/><line style="stroke:#181818;stroke-width:1.0;" x1="475.5" x2="1079" y1="179.2734" y2="179.2734"/><text fill="#000000" font-family="sans-serif" font-size="13" font-weight="bold" lengthAdjust="spacing" textLength="7" x="482.5" y="174.417">3</text><text fill="#000000" font-family="sans-serif" font-size="13" lengthAdjust="spacing" textLength="102" x="493.5" y="174.417">GetByIdAsync(id)</text><polygon fill="#181818" points="486.5,205.625,476.5,209.625,486.5,213.625,482.5,209.625" style="stroke:#181818;stroke-width:1.0;"/><line style="stroke:#181818;stroke-width:1.0;stroke-dasharray:2.0,2.0;" x1="480.5" x2="1089" y1="209.625" y2="209.625"/><text fill="#000000" font-family="sans-serif" font-size="13" font-weight="bold" lengthAdjust="spacing" textLength="7" x="492.5" y="204.7686">4</text><text fill="#000000" font-family="sans-serif" font-size="13" lengthAdjust="spacing" textLength="39" x="503.5" y="204.7686">patient</text><path d="M10,224.625 L71,224.625 L71,232.9766 L61,242.9766 L10,242.9766 L10,224.625 " fill="#EEEEEE" style="stroke:#000000;stroke-width:1.5;"/><rect fill="none" height="79.0547" style="stroke:#000000;stroke-width:1.5;" width="523" x="10" y="224.625"/><text fill="#000000" font-family="sans-serif" font-size="13" font-weight="bold" lengthAdjust="spacing" textLength="16" x="25" y="239.1201">alt</text><text fill="#000000" font-family="sans-serif" font-size="11" font-weight="bold" lengthAdjust="spacing" textLength="81" x="86" y="238.0439">[patient != null]</text><polygon fill="#181818" points="220.5,261.3281,210.5,265.3281,220.5,269.3281,216.5,265.3281" style="stroke:#181818;stroke-width:1.0;"/><line style="stroke:#181818;stroke-width:1.0;stroke-dasharray:2.0,2.0;" x1="214.5" x2="464.5" y1="265.3281" y2="265.3281"/><text fill="#000000" font-family="sans-serif" font-size="13" font-weight="bold" lengthAdjust="spacing" textLength="7" x="226.5" y="260.4717">5</text><text fill="#000000" font-family="sans-serif" font-size="13" lengthAdjust="spacing" textLength="138" x="237.5" y="260.4717">NullReferenceException</text><polygon fill="#181818" points="58.5,291.6797,48.5,295.6797,58.5,299.6797,54.5,295.6797" style="stroke:#181818;stroke-width:1.0;"/><line style="stroke:#181818;stroke-width:1.0;stroke-dasharray:2.0,2.0;" x1="52.5" x2="198.5" y1="295.6797" y2="295.6797"/><text fill="#000000" font-family="sans-serif" font-size="13" font-weight="bold" lengthAdjust="spacing" textLength="7" x="64.5" y="290.8232">6</text><text fill="#000000" font-family="sans-serif" font-size="13" lengthAdjust="spacing" textLength="85" x="75.5" y="290.8232">404 Not Found</text><path d="M408,317.6797 L469,317.6797 L469,326.0313 L459,336.0313 L408,336.0313 L408,317.6797 " fill="#EEEEEE" style="stroke:#000000;stroke-width:1.5;"/><rect fill="none" height="48.7031" style="stroke:#000000;stroke-width:1.5;" width="621.5" x="408" y="317.6797"/><text fill="#000000" font-family="sans-serif" font-size="13" font-weight="bold" lengthAdjust="spacing" textLength="16" x="423" y="332.1748">alt</text><text fill="#000000" font-family="sans-serif" font-size="11" font-weight="bold" lengthAdjust="spacing" textLength="175" x="484" y="331.0986">[dto.AppointmentHistory != null]</text><polygon fill="#181818" points="968.5,354.3828,978.5,358.3828,968.5,362.3828,972.5,358.3828" style="stroke:#181818;stroke-width:1.0;"/><line style="stroke:#181818;stroke-width:1.0;" x1="475.5" x2="974.5" y1="358.3828" y2="358.3828"/><text fill="#000000" font-family="sans-serif" font-size="13" font-weight="bold" lengthAdjust="spacing" textLength="7" x="482.5" y="353.5264">7</text><text fill="#000000" font-family="sans-serif" font-size="13" lengthAdjust="spacing" textLength="370" x="493.5" y="353.5264">ChangeEmail(new AppointmentHistory(dto.AppointmentHistory))</text><path d="M408,380.3828 L469,380.3828 L469,388.7344 L459,398.7344 L408,398.7344 L408,380.3828 " fill="#EEEEEE" style="stroke:#000000;stroke-width:1.5;"/><rect fill="none" height="48.7031" style="stroke:#000000;stroke-width:1.5;" width="621.5" x="408" y="380.3828"/><text fill="#000000" font-family="sans-serif" font-size="13" font-weight="bold" lengthAdjust="spacing" textLength="16" x="423" y="394.8779">alt</text><text fill="#000000" font-family="sans-serif" font-size="11" font-weight="bold" lengthAdjust="spacing" textLength="166" x="484" y="393.8018">[dto.MedicalConditions != null]</text><polygon fill="#181818" points="968.5,417.0859,978.5,421.0859,968.5,425.0859,972.5,421.0859" style="stroke:#181818;stroke-width:1.0;"/><line style="stroke:#181818;stroke-width:1.0;" x1="475.5" x2="974.5" y1="421.0859" y2="421.0859"/><text fill="#000000" font-family="sans-serif" font-size="13" font-weight="bold" lengthAdjust="spacing" textLength="7" x="482.5" y="416.2295">8</text><text fill="#000000" font-family="sans-serif" font-size="13" lengthAdjust="spacing" textLength="427" x="493.5" y="416.2295">ChangeMedicalConditions(new MedicalConditions(dto.MedicalConditions))</text><path d="M408,443.0859 L469,443.0859 L469,451.4375 L459,461.4375 L408,461.4375 L408,443.0859 " fill="#EEEEEE" style="stroke:#000000;stroke-width:1.5;"/><rect fill="none" height="48.7031" style="stroke:#000000;stroke-width:1.5;" width="621.5" x="408" y="443.0859"/><text fill="#000000" font-family="sans-serif" font-size="13" font-weight="bold" lengthAdjust="spacing" textLength="16" x="423" y="457.5811">alt</text><text fill="#000000" font-family="sans-serif" font-size="11" font-weight="bold" lengthAdjust="spacing" textLength="120" x="484" y="456.5049">[dto.FirstName != null]</text><polygon fill="#181818" points="968.5,479.7891,978.5,483.7891,968.5,487.7891,972.5,483.7891" style="stroke:#181818;stroke-width:1.0;"/><line style="stroke:#181818;stroke-width:1.0;" x1="475.5" x2="974.5" y1="483.7891" y2="483.7891"/><text fill="#000000" font-family="sans-serif" font-size="13" font-weight="bold" lengthAdjust="spacing" textLength="7" x="482.5" y="478.9326">9</text><text fill="#000000" font-family="sans-serif" font-size="13" lengthAdjust="spacing" textLength="330" x="493.5" y="478.9326">ChangeFirstName(new PatientFirstName(dto.FirstName))</text><path d="M408,505.7891 L469,505.7891 L469,514.1406 L459,524.1406 L408,524.1406 L408,505.7891 " fill="#EEEEEE" style="stroke:#000000;stroke-width:1.5;"/><rect fill="none" height="48.7031" style="stroke:#000000;stroke-width:1.5;" width="621.5" x="408" y="505.7891"/><text fill="#000000" font-family="sans-serif" font-size="13" font-weight="bold" lengthAdjust="spacing" textLength="16" x="423" y="520.2842">alt</text><text fill="#000000" font-family="sans-serif" font-size="11" font-weight="bold" lengthAdjust="spacing" textLength="119" x="484" y="519.208">[dto.LastName != null]</text><polygon fill="#181818" points="968.5,542.4922,978.5,546.4922,968.5,550.4922,972.5,546.4922" style="stroke:#181818;stroke-width:1.0;"/><line style="stroke:#181818;stroke-width:1.0;" x1="475.5" x2="974.5" y1="546.4922" y2="546.4922"/><text fill="#000000" font-family="sans-serif" font-size="13" font-weight="bold" lengthAdjust="spacing" textLength="14" x="482.5" y="541.6357">10</text><text fill="#000000" font-family="sans-serif" font-size="13" lengthAdjust="spacing" textLength="327" x="500.5" y="541.6357">ChangeLastName(new PatientLastName(dto.LastName))</text><path d="M408,568.4922 L469,568.4922 L469,576.8438 L459,586.8438 L408,586.8438 L408,568.4922 " fill="#EEEEEE" style="stroke:#000000;stroke-width:1.5;"/><rect fill="none" height="48.7031" style="stroke:#000000;stroke-width:1.5;" width="621.5" x="408" y="568.4922"/><text fill="#000000" font-family="sans-serif" font-size="13" font-weight="bold" lengthAdjust="spacing" textLength="16" x="423" y="582.9873">alt</text><text fill="#000000" font-family="sans-serif" font-size="11" font-weight="bold" lengthAdjust="spacing" textLength="114" x="484" y="581.9111">[dto.FullName != null]</text><polygon fill="#181818" points="968.5,605.1953,978.5,609.1953,968.5,613.1953,972.5,609.1953" style="stroke:#181818;stroke-width:1.0;"/><line style="stroke:#181818;stroke-width:1.0;" x1="475.5" x2="974.5" y1="609.1953" y2="609.1953"/><text fill="#000000" font-family="sans-serif" font-size="13" font-weight="bold" lengthAdjust="spacing" textLength="14" x="482.5" y="604.3389">11</text><text fill="#000000" font-family="sans-serif" font-size="13" lengthAdjust="spacing" textLength="315" x="500.5" y="604.3389">ChangeFullName(new PatientFullName(dto.FullName))</text><path d="M408,631.1953 L469,631.1953 L469,639.5469 L459,649.5469 L408,649.5469 L408,631.1953 " fill="#EEEEEE" style="stroke:#000000;stroke-width:1.5;"/><rect fill="none" height="48.7031" style="stroke:#000000;stroke-width:1.5;" width="621.5" x="408" y="631.1953"/><text fill="#000000" font-family="sans-serif" font-size="13" font-weight="bold" lengthAdjust="spacing" textLength="16" x="423" y="645.6904">alt</text><text fill="#000000" font-family="sans-serif" font-size="11" font-weight="bold" lengthAdjust="spacing" textLength="93" x="484" y="644.6143">[dto.Email != null]</text><polygon fill="#181818" points="968.5,667.8984,978.5,671.8984,968.5,675.8984,972.5,671.8984" style="stroke:#181818;stroke-width:1.0;"/><line style="stroke:#181818;stroke-width:1.0;" x1="475.5" x2="974.5" y1="671.8984" y2="671.8984"/><text fill="#000000" font-family="sans-serif" font-size="13" font-weight="bold" lengthAdjust="spacing" textLength="14" x="482.5" y="667.042">12</text><text fill="#000000" font-family="sans-serif" font-size="13" lengthAdjust="spacing" textLength="361" x="500.5" y="667.042">ContactInformation.ChangeEmail(new PatientEmail(dto.Email))</text><path d="M408,693.8984 L469,693.8984 L469,702.25 L459,712.25 L408,712.25 L408,693.8984 " fill="#EEEEEE" style="stroke:#000000;stroke-width:1.5;"/><rect fill="none" height="48.7031" style="stroke:#000000;stroke-width:1.5;" width="621.5" x="408" y="693.8984"/><text fill="#000000" font-family="sans-serif" font-size="13" font-weight="bold" lengthAdjust="spacing" textLength="16" x="423" y="708.3936">alt</text><text fill="#000000" font-family="sans-serif" font-size="11" font-weight="bold" lengthAdjust="spacing" textLength="143" x="484" y="707.3174">[dto.PhoneNumber != null]</text><polygon fill="#181818" points="968.5,730.6016,978.5,734.6016,968.5,738.6016,972.5,734.6016" style="stroke:#181818;stroke-width:1.0;"/><line style="stroke:#181818;stroke-width:1.0;" x1="475.5" x2="974.5" y1="734.6016" y2="734.6016"/><text fill="#000000" font-family="sans-serif" font-size="13" font-weight="bold" lengthAdjust="spacing" textLength="14" x="482.5" y="729.7451">13</text><text fill="#000000" font-family="sans-serif" font-size="13" lengthAdjust="spacing" textLength="463" x="500.5" y="729.7451">ContactInformation.ChangePhoneNumber(new PatientPhone(dto.PhoneNumber))</text><polygon fill="#181818" points="1073,767.9531,1083,771.9531,1073,775.9531,1077,771.9531" style="stroke:#181818;stroke-width:1.0;"/><line style="stroke:#181818;stroke-width:1.0;" x1="475.5" x2="1079" y1="771.9531" y2="771.9531"/><text fill="#000000" font-family="sans-serif" font-size="13" font-weight="bold" lengthAdjust="spacing" textLength="14" x="482.5" y="767.0967">14</text><text fill="#000000" font-family="sans-serif" font-size="13" lengthAdjust="spacing" textLength="125" x="500.5" y="767.0967">UpdateAsync(patient)</text><polygon fill="#181818" points="486.5,798.3047,476.5,802.3047,486.5,806.3047,482.5,802.3047" style="stroke:#181818;stroke-width:1.0;"/><line style="stroke:#181818;stroke-width:1.0;stroke-dasharray:2.0,2.0;" x1="480.5" x2="1084" y1="802.3047" y2="802.3047"/><text fill="#000000" font-family="sans-serif" font-size="13" font-weight="bold" lengthAdjust="spacing" textLength="14" x="492.5" y="797.4482">15</text><text fill="#000000" font-family="sans-serif" font-size="13" lengthAdjust="spacing" textLength="39" x="510.5" y="797.4482">patient</text><path d="M408,817.3047 L469,817.3047 L469,825.6563 L459,835.6563 L408,835.6563 L408,817.3047 " fill="#EEEEEE" style="stroke:#000000;stroke-width:1.5;"/><rect fill="none" height="48.7031" style="stroke:#000000;stroke-width:1.5;" width="373.5" x="408" y="817.3047"/><text fill="#000000" font-family="sans-serif" font-size="13" font-weight="bold" lengthAdjust="spacing" textLength="16" x="423" y="831.7998">alt</text><text fill="#000000" font-family="sans-serif" font-size="11" font-weight="bold" lengthAdjust="spacing" textLength="222" x="484" y="830.7236">[ContactInformation changes happened]</text><polygon fill="#181818" points="710.5,854.0078,720.5,858.0078,710.5,862.0078,714.5,858.0078" style="stroke:#181818;stroke-width:1.0;"/><line style="stroke:#181818;stroke-width:1.0;" x1="475.5" x2="716.5" y1="858.0078" y2="858.0078"/><text fill="#000000" font-family="sans-serif" font-size="13" font-weight="bold" lengthAdjust="spacing" textLength="14" x="482.5" y="853.1514">16</text><text fill="#000000" font-family="sans-serif" font-size="13" lengthAdjust="spacing" textLength="205" x="500.5" y="853.1514">SendEmailAsync(to, subject, body)</text><polygon fill="#181818" points="220.5,891.3594,210.5,895.3594,220.5,899.3594,216.5,895.3594" style="stroke:#181818;stroke-width:1.0;"/><line style="stroke:#181818;stroke-width:1.0;stroke-dasharray:2.0,2.0;" x1="214.5" x2="469.5" y1="895.3594" y2="895.3594"/><text fill="#000000" font-family="sans-serif" font-size="13" font-weight="bold" lengthAdjust="spacing" textLength="14" x="226.5" y="890.5029">17</text><text fill="#000000" font-family="sans-serif" font-size="13" lengthAdjust="spacing" textLength="59" x="244.5" y="890.5029">patientDto</text><polygon fill="#181818" points="53.5,921.7109,43.5,925.7109,53.5,929.7109,49.5,925.7109" style="stroke:#181818;stroke-width:1.0;"/><line style="stroke:#181818;stroke-width:1.0;stroke-dasharray:2.0,2.0;" x1="47.5" x2="203.5" y1="925.7109" y2="925.7109"/><text fill="#000000" font-family="sans-serif" font-size="13" font-weight="bold" lengthAdjust="spacing" textLength="14" x="59.5" y="920.8545">18</text><text fill="#000000" font-family="sans-serif" font-size="13" lengthAdjust="spacing" textLength="44" x="77.5" y="920.8545">200 OK</text><!--SRC=[hLPHRzem47xthxZrYKY5KaQdBUggqKAtja1HHxjd4r-Bfs17YSE6flttNKm83g6bLCkJEVlxxhilpXqyDLgbimd6ZF70w1WEEc8crG7m1EoAHJmsCf0HLmOEHjn8L2QvqCh4EWmnjYVNF-7qTFtZx6mh-Zl6SncWHUPhWkMhJSnLRyPbw4BSW8k3hSai95_JwQucjA8aWXi-uGbIXdpt3YETIF9WuMBMKHUTcINdt61k4j1ZLr0_SztmONG_XYCUoQCej-xeZnH_BQ3WM0DiF7iS3c9SLUj3JqYJA-ia2nNKf3W4fA1KJtcyQxHNy1GvSefY8tjMj9IXMgqFNz6SBwx4AezNmXR45MJfMFPKkUkbcd9dIZY1BoJWeLc1uDrdK6aORgzhysKCwUGTFcACAi3Uxm0Z8xNQQZf1bo_KXtQp3KDju5AdIZ1K0aY05I6CRdIYI4jbPYJccqniUIzgAhmcveifLqzeBtHDuI-eSjMsf_0ybxkYQK0t8k0XrPFT3AsIVILL2AoyQdHhiXtYBcMSc26VuRwY2g0La- -kWoNk7Hhw_6qILZXNGH5pYNTvG3dVP46EApcmYhd4E_BRAxT7Slemw7kyKeywdl7i9JSshsv-U1aeKkoGCPfgXKCxV_w368VDbMJ3jOrqdbU8sQCZtaSqDd3P4FC6LEwAdTTrnTTsnCodQhaGs78JcF8eGeNYkH9AazAd7ILiQ5c0qOUGf9EV69X3c6Yns679PZEDYd73jdHjTzuyqrTRpIRSth0De3CCcHDUpjalf92nKKWJ_dxGXpd6IMR8SQFLRBKRxslZQGgNE87Z4pZ-vBURVlC4VlJ6a6rxhFPrr9-t8D5fJ0K9QgMndAIPfHwxvdCETwaoSeO-t9AlrzsRLG1wQYvZhR8EpAuV1ki37zhrSsbijLJTmu1ryP6dzDfwAj22XZ9Tcl5b_IFhqojB-HDnHuPTq2GnyOB-7Op_0G00]--></g></svg>