<?xml version="1.0" encoding="us-ascii" standalone="no"?><svg xmlns="http://www.w3.org/2000/svg" xmlns:xlink="http://www.w3.org/1999/xlink" contentStyleType="text/css" height="385px" preserveAspectRatio="none" style="width:575px;height:385px;background:#FFFFFF;" version="1.1" viewBox="0 0 575 385" width="575px" zoomAndPan="magnify"><defs/><g><rect fill="#FFFFFF" height="174.1094" style="stroke:#181818;stroke-width:1.0;" width="10" x="22.5" y="96.2188"/><rect fill="#FFFFFF" height="151.7578" style="stroke:#181818;stroke-width:1.0;" width="10" x="176.5" y="118.5703"/><rect fill="#FFFFFF" height="91.0547" style="stroke:#181818;stroke-width:1.0;" width="10" x="346.5" y="148.9219"/><rect fill="#FFFFFF" height="30.3516" style="stroke:#181818;stroke-width:1.0;" width="10" x="516.5" y="179.2734"/><line style="stroke:#181818;stroke-width:0.5;stroke-dasharray:5.0,5.0;" x1="27" x2="27" y1="86.2188" y2="288.3281"/><line style="stroke:#181818;stroke-width:0.5;stroke-dasharray:5.0,5.0;" x1="181.5" x2="181.5" y1="86.2188" y2="288.3281"/><line style="stroke:#181818;stroke-width:0.5;stroke-dasharray:5.0,5.0;" x1="351.5" x2="351.5" y1="86.2188" y2="288.3281"/><line style="stroke:#181818;stroke-width:0.5;stroke-dasharray:5.0,5.0;" x1="521.5" x2="521.5" y1="86.2188" y2="288.3281"/><text fill="#000000" font-family="sans-serif" font-size="14" lengthAdjust="spacing" textLength="39" x="5" y="83.1426">Admin</text><ellipse cx="27.5" cy="17.1094" fill="#E2E2F0" rx="8" ry="8" style="stroke:#181818;stroke-width:0.5;"/><path d="M27.5,25.1094 L27.5,52.1094 M14.5,33.1094 L40.5,33.1094 M27.5,52.1094 L14.5,67.1094 M27.5,52.1094 L40.5,67.1094 " fill="none" style="stroke:#181818;stroke-width:0.5;"/><text fill="#000000" font-family="sans-serif" font-size="14" lengthAdjust="spacing" textLength="39" x="5" y="301.8613">Admin</text><ellipse cx="27.5" cy="313.4375" fill="#E2E2F0" rx="8" ry="8" style="stroke:#181818;stroke-width:0.5;"/><path d="M27.5,321.4375 L27.5,348.4375 M14.5,329.4375 L40.5,329.4375 M27.5,348.4375 L14.5,363.4375 M27.5,348.4375 L40.5,363.4375 " fill="none" style="stroke:#181818;stroke-width:0.5;"/><rect fill="#E2E2F0" height="49.2188" rx="2.5" ry="2.5" style="stroke:#181818;stroke-width:0.5;" width="112" x="125.5" y="36"/><text fill="#000000" font-family="sans-serif" font-size="14" font-style="italic" lengthAdjust="spacing" textLength="78" x="142.5" y="57.5332">&#171;Controller&#187;</text><text fill="#000000" font-family="sans-serif" font-size="14" lengthAdjust="spacing" textLength="98" x="132.5" y="75.1426">StaffsController</text><rect fill="#E2E2F0" height="49.2188" rx="2.5" ry="2.5" style="stroke:#181818;stroke-width:0.5;" width="112" x="125.5" y="287.3281"/><text fill="#000000" font-family="sans-serif" font-size="14" font-style="italic" lengthAdjust="spacing" textLength="78" x="142.5" y="308.8613">&#171;Controller&#187;</text><text fill="#000000" font-family="sans-serif" font-size="14" lengthAdjust="spacing" textLength="98" x="132.5" y="326.4707">StaffsController</text><rect fill="#E2E2F0" height="49.2188" rx="2.5" ry="2.5" style="stroke:#181818;stroke-width:0.5;" width="90" x="306.5" y="36"/><text fill="#000000" font-family="sans-serif" font-size="14" font-style="italic" lengthAdjust="spacing" textLength="62" x="320.5" y="57.5332">&#171;Service&#187;</text><text fill="#000000" font-family="sans-serif" font-size="14" lengthAdjust="spacing" textLength="76" x="313.5" y="75.1426">StaffService</text><rect fill="#E2E2F0" height="49.2188" rx="2.5" ry="2.5" style="stroke:#181818;stroke-width:0.5;" width="90" x="306.5" y="287.3281"/><text fill="#000000" font-family="sans-serif" font-size="14" font-style="italic" lengthAdjust="spacing" textLength="62" x="320.5" y="308.8613">&#171;Service&#187;</text><text fill="#000000" font-family="sans-serif" font-size="14" lengthAdjust="spacing" textLength="76" x="313.5" y="326.4707">StaffService</text><text fill="#000000" font-family="sans-serif" font-size="14" font-style="italic" lengthAdjust="spacing" textLength="64" x="486.5" y="65.5332">&#171;Domain&#187;</text><text fill="#000000" font-family="sans-serif" font-size="14" lengthAdjust="spacing" textLength="100" x="468.5" y="83.1426">IStaffRepository</text><path d="M503.5,15 C503.5,5 521.5,5 521.5,5 C521.5,5 539.5,5 539.5,15 L539.5,41 C539.5,51 521.5,51 521.5,51 C521.5,51 503.5,51 503.5,41 L503.5,15 " fill="#E2E2F0" style="stroke:#181818;stroke-width:1.5;"/><path d="M503.5,15 C503.5,25 521.5,25 521.5,25 C521.5,25 539.5,25 539.5,15 " fill="none" style="stroke:#181818;stroke-width:1.5;"/><text fill="#000000" font-family="sans-serif" font-size="14" font-style="italic" lengthAdjust="spacing" textLength="64" x="486.5" y="301.8613">&#171;Domain&#187;</text><text fill="#000000" font-family="sans-serif" font-size="14" lengthAdjust="spacing" textLength="100" x="468.5" y="319.4707">IStaffRepository</text><path d="M503.5,332.5469 C503.5,322.5469 521.5,322.5469 521.5,322.5469 C521.5,322.5469 539.5,322.5469 539.5,332.5469 L539.5,358.5469 C539.5,368.5469 521.5,368.5469 521.5,368.5469 C521.5,368.5469 503.5,368.5469 503.5,358.5469 L503.5,332.5469 " fill="#E2E2F0" style="stroke:#181818;stroke-width:1.5;"/><path d="M503.5,332.5469 C503.5,342.5469 521.5,342.5469 521.5,342.5469 C521.5,342.5469 539.5,342.5469 539.5,332.5469 " fill="none" style="stroke:#181818;stroke-width:1.5;"/><rect fill="#FFFFFF" height="174.1094" style="stroke:#181818;stroke-width:1.0;" width="10" x="22.5" y="96.2188"/><rect fill="#FFFFFF" height="151.7578" style="stroke:#181818;stroke-width:1.0;" width="10" x="176.5" y="118.5703"/><rect fill="#FFFFFF" height="91.0547" style="stroke:#181818;stroke-width:1.0;" width="10" x="346.5" y="148.9219"/><rect fill="#FFFFFF" height="30.3516" style="stroke:#181818;stroke-width:1.0;" width="10" x="516.5" y="179.2734"/><polygon fill="#181818" points="164.5,114.5703,174.5,118.5703,164.5,122.5703,168.5,118.5703" style="stroke:#181818;stroke-width:1.0;"/><line style="stroke:#181818;stroke-width:1.0;" x1="32.5" x2="170.5" y1="118.5703" y2="118.5703"/><text fill="#000000" font-family="sans-serif" font-size="13" font-weight="bold" lengthAdjust="spacing" textLength="7" x="39.5" y="113.7139">1</text><text fill="#000000" font-family="sans-serif" font-size="13" lengthAdjust="spacing" textLength="114" x="50.5" y="113.7139">GET /api/staffs/filter</text><polygon fill="#181818" points="334.5,144.9219,344.5,148.9219,334.5,152.9219,338.5,148.9219" style="stroke:#181818;stroke-width:1.0;"/><line style="stroke:#181818;stroke-width:1.0;" x1="186.5" x2="340.5" y1="148.9219" y2="148.9219"/><text fill="#000000" font-family="sans-serif" font-size="13" font-weight="bold" lengthAdjust="spacing" textLength="7" x="193.5" y="144.0654">2</text><text fill="#000000" font-family="sans-serif" font-size="13" lengthAdjust="spacing" textLength="130" x="204.5" y="144.0654">GetStaffsAsync(filters)</text><polygon fill="#181818" points="504.5,175.2734,514.5,179.2734,504.5,183.2734,508.5,179.2734" style="stroke:#181818;stroke-width:1.0;"/><line style="stroke:#181818;stroke-width:1.0;" x1="356.5" x2="510.5" y1="179.2734" y2="179.2734"/><text fill="#000000" font-family="sans-serif" font-size="13" font-weight="bold" lengthAdjust="spacing" textLength="7" x="363.5" y="174.417">3</text><text fill="#000000" font-family="sans-serif" font-size="13" lengthAdjust="spacing" textLength="130" x="374.5" y="174.417">GetStaffsAsync(filters)</text><polygon fill="#181818" points="367.5,205.625,357.5,209.625,367.5,213.625,363.5,209.625" style="stroke:#181818;stroke-width:1.0;"/><line style="stroke:#181818;stroke-width:1.0;stroke-dasharray:2.0,2.0;" x1="361.5" x2="520.5" y1="209.625" y2="209.625"/><text fill="#000000" font-family="sans-serif" font-size="13" font-weight="bold" lengthAdjust="spacing" textLength="7" x="373.5" y="204.7686">4</text><text fill="#000000" font-family="sans-serif" font-size="13" lengthAdjust="spacing" textLength="31" x="384.5" y="204.7686">staffs</text><polygon fill="#181818" points="197.5,235.9766,187.5,239.9766,197.5,243.9766,193.5,239.9766" style="stroke:#181818;stroke-width:1.0;"/><line style="stroke:#181818;stroke-width:1.0;stroke-dasharray:2.0,2.0;" x1="191.5" x2="350.5" y1="239.9766" y2="239.9766"/><text fill="#000000" font-family="sans-serif" font-size="13" font-weight="bold" lengthAdjust="spacing" textLength="7" x="203.5" y="235.1201">5</text><text fill="#000000" font-family="sans-serif" font-size="13" lengthAdjust="spacing" textLength="51" x="214.5" y="235.1201">staffsDto</text><polygon fill="#181818" points="38.5,266.3281,28.5,270.3281,38.5,274.3281,34.5,270.3281" style="stroke:#181818;stroke-width:1.0;"/><line style="stroke:#181818;stroke-width:1.0;stroke-dasharray:2.0,2.0;" x1="32.5" x2="180.5" y1="270.3281" y2="270.3281"/><text fill="#000000" font-family="sans-serif" font-size="13" font-weight="bold" lengthAdjust="spacing" textLength="7" x="44.5" y="265.4717">6</text><text fill="#000000" font-family="sans-serif" font-size="13" lengthAdjust="spacing" textLength="44" x="55.5" y="265.4717">200 OK</text><!--SRC=[ZPBDQiCm383lVWgHKtSeAJsM4YZh66E7mReNK1C738aTRBNGjvzi9x7JRb2T_AFliwG4BsJqfJzBAmJMP2mKXwPNkW1q45PYG4kgLWDgWk94sBRkrMYofkka3Nbf2_jzsbJL7-n9sgkgPU36DKFZYea62S_e91GV8VzR3iOfBkmMaBHbwcXwL9eXNxgw8icnP1WZx61TvHNkuFtj1qeSLEb2CsMhEkB-9sXsPT1ywICxP_NK17ibnV4St4tNgwXrBmjsbe_OujB7f6DptknpziKBYNx8yP79r_wnr4SSomFKo6VKS_tUkHXxr1x9Y7-izoF9vyos-35tiDriuEjJtC4fMMIdyNSGlm00]--></g></svg>