<?xml version="1.0" encoding="us-ascii" standalone="no"?><svg xmlns="http://www.w3.org/2000/svg" xmlns:xlink="http://www.w3.org/1999/xlink" contentStyleType="text/css" height="385px" preserveAspectRatio="none" style="width:603px;height:385px;background:#FFFFFF;" version="1.1" viewBox="0 0 603 385" width="603px" zoomAndPan="magnify"><defs/><g><rect fill="#FFFFFF" height="174.1094" style="stroke:#181818;stroke-width:1.0;" width="10" x="22.5" y="96.2188"/><rect fill="#FFFFFF" height="151.7578" style="stroke:#181818;stroke-width:1.0;" width="10" x="183.5" y="118.5703"/><rect fill="#FFFFFF" height="91.0547" style="stroke:#181818;stroke-width:1.0;" width="10" x="374.5" y="148.9219"/><rect fill="#FFFFFF" height="30.3516" style="stroke:#181818;stroke-width:1.0;" width="10" x="544.5" y="179.2734"/><line style="stroke:#181818;stroke-width:0.5;stroke-dasharray:5.0,5.0;" x1="27" x2="27" y1="86.2188" y2="288.3281"/><line style="stroke:#181818;stroke-width:0.5;stroke-dasharray:5.0,5.0;" x1="188.5" x2="188.5" y1="86.2188" y2="288.3281"/><line style="stroke:#181818;stroke-width:0.5;stroke-dasharray:5.0,5.0;" x1="379.5" x2="379.5" y1="86.2188" y2="288.3281"/><line style="stroke:#181818;stroke-width:0.5;stroke-dasharray:5.0,5.0;" x1="549.5" x2="549.5" y1="86.2188" y2="288.3281"/><text fill="#000000" font-family="sans-serif" font-size="14" lengthAdjust="spacing" textLength="39" x="5" y="83.1426">Admin</text><ellipse cx="27.5" cy="17.1094" fill="#E2E2F0" rx="8" ry="8" style="stroke:#181818;stroke-width:0.5;"/><path d="M27.5,25.1094 L27.5,52.1094 M14.5,33.1094 L40.5,33.1094 M27.5,52.1094 L14.5,67.1094 M27.5,52.1094 L40.5,67.1094 " fill="none" style="stroke:#181818;stroke-width:0.5;"/><text fill="#000000" font-family="sans-serif" font-size="14" lengthAdjust="spacing" textLength="39" x="5" y="301.8613">Admin</text><ellipse cx="27.5" cy="313.4375" fill="#E2E2F0" rx="8" ry="8" style="stroke:#181818;stroke-width:0.5;"/><path d="M27.5,321.4375 L27.5,348.4375 M14.5,329.4375 L40.5,329.4375 M27.5,348.4375 L14.5,363.4375 M27.5,348.4375 L40.5,363.4375 " fill="none" style="stroke:#181818;stroke-width:0.5;"/><rect fill="#E2E2F0" height="49.2188" rx="2.5" ry="2.5" style="stroke:#181818;stroke-width:0.5;" width="112" x="132.5" y="36"/><text fill="#000000" font-family="sans-serif" font-size="14" font-style="italic" lengthAdjust="spacing" textLength="78" x="149.5" y="57.5332">&#171;Controller&#187;</text><text fill="#000000" font-family="sans-serif" font-size="14" lengthAdjust="spacing" textLength="98" x="139.5" y="75.1426">StaffsController</text><rect fill="#E2E2F0" height="49.2188" rx="2.5" ry="2.5" style="stroke:#181818;stroke-width:0.5;" width="112" x="132.5" y="287.3281"/><text fill="#000000" font-family="sans-serif" font-size="14" font-style="italic" lengthAdjust="spacing" textLength="78" x="149.5" y="308.8613">&#171;Controller&#187;</text><text fill="#000000" font-family="sans-serif" font-size="14" lengthAdjust="spacing" textLength="98" x="139.5" y="326.4707">StaffsController</text><rect fill="#E2E2F0" height="49.2188" rx="2.5" ry="2.5" style="stroke:#181818;stroke-width:0.5;" width="90" x="334.5" y="36"/><text fill="#000000" font-family="sans-serif" font-size="14" font-style="italic" lengthAdjust="spacing" textLength="62" x="348.5" y="57.5332">&#171;Service&#187;</text><text fill="#000000" font-family="sans-serif" font-size="14" lengthAdjust="spacing" textLength="76" x="341.5" y="75.1426">StaffService</text><rect fill="#E2E2F0" height="49.2188" rx="2.5" ry="2.5" style="stroke:#181818;stroke-width:0.5;" width="90" x="334.5" y="287.3281"/><text fill="#000000" font-family="sans-serif" font-size="14" font-style="italic" lengthAdjust="spacing" textLength="62" x="348.5" y="308.8613">&#171;Service&#187;</text><text fill="#000000" font-family="sans-serif" font-size="14" lengthAdjust="spacing" textLength="76" x="341.5" y="326.4707">StaffService</text><text fill="#000000" font-family="sans-serif" font-size="14" font-style="italic" lengthAdjust="spacing" textLength="64" x="514.5" y="65.5332">&#171;Domain&#187;</text><text fill="#000000" font-family="sans-serif" font-size="14" lengthAdjust="spacing" textLength="100" x="496.5" y="83.1426">IStaffRepository</text><path d="M531.5,15 C531.5,5 549.5,5 549.5,5 C549.5,5 567.5,5 567.5,15 L567.5,41 C567.5,51 549.5,51 549.5,51 C549.5,51 531.5,51 531.5,41 L531.5,15 " fill="#E2E2F0" style="stroke:#181818;stroke-width:1.5;"/><path d="M531.5,15 C531.5,25 549.5,25 549.5,25 C549.5,25 567.5,25 567.5,15 " fill="none" style="stroke:#181818;stroke-width:1.5;"/><text fill="#000000" font-family="sans-serif" font-size="14" font-style="italic" lengthAdjust="spacing" textLength="64" x="514.5" y="301.8613">&#171;Domain&#187;</text><text fill="#000000" font-family="sans-serif" font-size="14" lengthAdjust="spacing" textLength="100" x="496.5" y="319.4707">IStaffRepository</text><path d="M531.5,332.5469 C531.5,322.5469 549.5,322.5469 549.5,322.5469 C549.5,322.5469 567.5,322.5469 567.5,332.5469 L567.5,358.5469 C567.5,368.5469 549.5,368.5469 549.5,368.5469 C549.5,368.5469 531.5,368.5469 531.5,358.5469 L531.5,332.5469 " fill="#E2E2F0" style="stroke:#181818;stroke-width:1.5;"/><path d="M531.5,332.5469 C531.5,342.5469 549.5,342.5469 549.5,342.5469 C549.5,342.5469 567.5,342.5469 567.5,332.5469 " fill="none" style="stroke:#181818;stroke-width:1.5;"/><rect fill="#FFFFFF" height="174.1094" style="stroke:#181818;stroke-width:1.0;" width="10" x="22.5" y="96.2188"/><rect fill="#FFFFFF" height="151.7578" style="stroke:#181818;stroke-width:1.0;" width="10" x="183.5" y="118.5703"/><rect fill="#FFFFFF" height="91.0547" style="stroke:#181818;stroke-width:1.0;" width="10" x="374.5" y="148.9219"/><rect fill="#FFFFFF" height="30.3516" style="stroke:#181818;stroke-width:1.0;" width="10" x="544.5" y="179.2734"/><polygon fill="#181818" points="171.5,114.5703,181.5,118.5703,171.5,122.5703,175.5,118.5703" style="stroke:#181818;stroke-width:1.0;"/><line style="stroke:#181818;stroke-width:1.0;" x1="32.5" x2="177.5" y1="118.5703" y2="118.5703"/><text fill="#000000" font-family="sans-serif" font-size="13" font-weight="bold" lengthAdjust="spacing" textLength="7" x="39.5" y="113.7139">1</text><text fill="#000000" font-family="sans-serif" font-size="13" lengthAdjust="spacing" textLength="121" x="50.5" y="113.7139">GET /api/staffss/filter</text><polygon fill="#181818" points="362.5,144.9219,372.5,148.9219,362.5,152.9219,366.5,148.9219" style="stroke:#181818;stroke-width:1.0;"/><line style="stroke:#181818;stroke-width:1.0;" x1="193.5" x2="368.5" y1="148.9219" y2="148.9219"/><text fill="#000000" font-family="sans-serif" font-size="13" font-weight="bold" lengthAdjust="spacing" textLength="7" x="200.5" y="144.0654">2</text><text fill="#000000" font-family="sans-serif" font-size="13" lengthAdjust="spacing" textLength="151" x="211.5" y="144.0654">GetOperationTypes(filters)</text><polygon fill="#181818" points="532.5,175.2734,542.5,179.2734,532.5,183.2734,536.5,179.2734" style="stroke:#181818;stroke-width:1.0;"/><line style="stroke:#181818;stroke-width:1.0;" x1="384.5" x2="538.5" y1="179.2734" y2="179.2734"/><text fill="#000000" font-family="sans-serif" font-size="13" font-weight="bold" lengthAdjust="spacing" textLength="7" x="391.5" y="174.417">3</text><text fill="#000000" font-family="sans-serif" font-size="13" lengthAdjust="spacing" textLength="130" x="402.5" y="174.417">GetStaffsAsync(filters)</text><polygon fill="#181818" points="395.5,205.625,385.5,209.625,395.5,213.625,391.5,209.625" style="stroke:#181818;stroke-width:1.0;"/><line style="stroke:#181818;stroke-width:1.0;stroke-dasharray:2.0,2.0;" x1="389.5" x2="548.5" y1="209.625" y2="209.625"/><text fill="#000000" font-family="sans-serif" font-size="13" font-weight="bold" lengthAdjust="spacing" textLength="7" x="401.5" y="204.7686">4</text><text fill="#000000" font-family="sans-serif" font-size="13" lengthAdjust="spacing" textLength="31" x="412.5" y="204.7686">staffs</text><polygon fill="#181818" points="204.5,235.9766,194.5,239.9766,204.5,243.9766,200.5,239.9766" style="stroke:#181818;stroke-width:1.0;"/><line style="stroke:#181818;stroke-width:1.0;stroke-dasharray:2.0,2.0;" x1="198.5" x2="378.5" y1="239.9766" y2="239.9766"/><text fill="#000000" font-family="sans-serif" font-size="13" font-weight="bold" lengthAdjust="spacing" textLength="7" x="210.5" y="235.1201">5</text><text fill="#000000" font-family="sans-serif" font-size="13" lengthAdjust="spacing" textLength="51" x="221.5" y="235.1201">staffsDto</text><polygon fill="#181818" points="38.5,266.3281,28.5,270.3281,38.5,274.3281,34.5,270.3281" style="stroke:#181818;stroke-width:1.0;"/><line style="stroke:#181818;stroke-width:1.0;stroke-dasharray:2.0,2.0;" x1="32.5" x2="187.5" y1="270.3281" y2="270.3281"/><text fill="#000000" font-family="sans-serif" font-size="13" font-weight="bold" lengthAdjust="spacing" textLength="7" x="44.5" y="265.4717">6</text><text fill="#000000" font-family="sans-serif" font-size="13" lengthAdjust="spacing" textLength="44" x="55.5" y="265.4717">200 OK</text><!--SRC=[ZPBDQiCm383lVWgHKtSeAJsM4YZh66E7mjeNK1C738bjRBMGjvz_ajXfEvXE_j7tMLA2DrBorb-vOGnhKWQAGzCBMG1Q22kcqP2eXKP9K9m9szQ-Aqb6THqt8IzjORzFcwfwmPwvkOkQ1svSEsXSEQ91mYjQ3iLNoF_XMbdX2Xi2ahQEEgeUXNIGBrtSaVXOCemHTh2kyWftyFbnWHArA6renfQjwCWDOA9cMKRDbpwoS-UUkd1YJYVD3P9GyZ9eRbVHRDyM-EmVoSMbZydev7d3uO7u0GvsaFLh- -A5H3_b-CZaQ_zOQYMEvWbg-7_KS_tUkHXzr1v9iJ-iZoF9H-riyOFkOBlPmEcRFS0fcMMdyPTWlm00]--></g></svg>