<?xml version="1.0" encoding="us-ascii" standalone="no"?><svg xmlns="http://www.w3.org/2000/svg" xmlns:xlink="http://www.w3.org/1999/xlink" contentStyleType="text/css" height="1490px" preserveAspectRatio="none" style="width:1306px;height:1490px;background:#FFFFFF;" version="1.1" viewBox="0 0 1306 1490" width="1306px" zoomAndPan="magnify"><defs/><g><!--cluster  --><g id="cluster_ "><path d="M915,60 L920,60 A3.75,3.75 0 0 1 922.5,62.5 L929.5,83.6094 L1148,83.6094 A2.5,2.5 0 0 1 1150.5,86.1094 L1150.5,487.5 A2.5,2.5 0 0 1 1148,490 L915,490 A2.5,2.5 0 0 1 912.5,487.5 L912.5,62.5 A2.5,2.5 0 0 1 915,60 " fill="none" style="stroke:#000000;stroke-width:1.5;"/><line style="stroke:#000000;stroke-width:1.5;" x1="912.5" x2="929.5" y1="83.6094" y2="83.6094"/><text fill="#000000" font-family="sans-serif" font-size="14" font-weight="bold" lengthAdjust="spacing" textLength="4" x="916.5" y="76.5332">&#160;</text><text fill="#000000" font-family="sans-serif" font-size="14" font-style="italic" lengthAdjust="spacing" textLength="56" x="1007.5" y="100.1426">&#171;SARM&#187;</text></g><!--cluster SARM--><g id="cluster_SARM"><rect fill="none" height="1278" rx="2.5" ry="2.5" style="stroke:#181818;stroke-width:1.0;" width="754" x="142.5" y="206"/><rect fill="none" height="10" style="stroke:#181818;stroke-width:1.0;" width="15" x="876.5" y="211"/><rect fill="none" height="2" style="stroke:#181818;stroke-width:1.0;" width="4" x="874.5" y="213"/><rect fill="none" height="2" style="stroke:#181818;stroke-width:1.0;" width="4" x="874.5" y="217"/><text fill="#000000" font-family="sans-serif" font-size="14" font-style="italic" lengthAdjust="spacing" textLength="86" x="476.5" y="233.5332">&#171;component&#187;</text><text fill="#000000" font-family="sans-serif" font-size="14" font-style="italic" lengthAdjust="spacing" textLength="84" x="477.5" y="251.1426">&#171;C4 System&#187;</text><text fill="#000000" font-family="sans-serif" font-size="14" font-weight="bold" lengthAdjust="spacing" textLength="41" x="499" y="268.752">SARM</text></g><!--cluster BEDM--><g id="cluster_BEDM"><rect fill="none" height="144" rx="2.5" ry="2.5" style="stroke:#181818;stroke-width:1.0;" width="282" x="476.5" y="993"/><rect fill="none" height="10" style="stroke:#181818;stroke-width:1.0;" width="15" x="738.5" y="998"/><rect fill="none" height="2" style="stroke:#181818;stroke-width:1.0;" width="4" x="736.5" y="1000"/><rect fill="none" height="2" style="stroke:#181818;stroke-width:1.0;" width="4" x="736.5" y="1004"/><text fill="#000000" font-family="sans-serif" font-size="14" font-style="italic" lengthAdjust="spacing" textLength="86" x="574.5" y="1020.5332">&#171;component&#187;</text><text fill="#000000" font-family="sans-serif" font-size="14" font-weight="bold" lengthAdjust="spacing" textLength="191" x="522" y="1038.1426">Backend Data Management</text></g><!--cluster FE--><g id="cluster_FE"><rect fill="none" height="207.5" rx="2.5" ry="2.5" style="stroke:#181818;stroke-width:1.0;" width="98" x="390.5" y="564.5"/><rect fill="none" height="10" style="stroke:#181818;stroke-width:1.0;" width="15" x="468.5" y="569.5"/><rect fill="none" height="2" style="stroke:#181818;stroke-width:1.0;" width="4" x="466.5" y="571.5"/><rect fill="none" height="2" style="stroke:#181818;stroke-width:1.0;" width="4" x="466.5" y="575.5"/><text fill="#000000" font-family="sans-serif" font-size="14" font-style="italic" lengthAdjust="spacing" textLength="86" x="396.5" y="592.0332">&#171;component&#187;</text><text fill="#000000" font-family="sans-serif" font-size="14" font-weight="bold" lengthAdjust="spacing" textLength="65" x="407" y="609.6426">Frontend</text></g><!--cluster PL--><g id="cluster_PL"><rect fill="none" height="207.5" rx="2.5" ry="2.5" style="stroke:#181818;stroke-width:1.0;" width="134" x="538.5" y="564.5"/><rect fill="none" height="10" style="stroke:#181818;stroke-width:1.0;" width="15" x="652.5" y="569.5"/><rect fill="none" height="2" style="stroke:#181818;stroke-width:1.0;" width="4" x="650.5" y="571.5"/><rect fill="none" height="2" style="stroke:#181818;stroke-width:1.0;" width="4" x="650.5" y="575.5"/><text fill="#000000" font-family="sans-serif" font-size="14" font-style="italic" lengthAdjust="spacing" textLength="86" x="562.5" y="592.0332">&#171;component&#187;</text><text fill="#000000" font-family="sans-serif" font-size="14" font-weight="bold" lengthAdjust="spacing" textLength="61" x="575" y="609.6426">Planning</text></g><!--cluster GDPR_--><g id="cluster_GDPR_"><rect fill="none" height="129" rx="2.5" ry="2.5" style="stroke:#181818;stroke-width:1.0;" width="127" x="691.5" y="1331"/><rect fill="none" height="10" style="stroke:#181818;stroke-width:1.0;" width="15" x="798.5" y="1336"/><rect fill="none" height="2" style="stroke:#181818;stroke-width:1.0;" width="4" x="796.5" y="1338"/><rect fill="none" height="2" style="stroke:#181818;stroke-width:1.0;" width="4" x="796.5" y="1342"/><text fill="#000000" font-family="sans-serif" font-size="14" font-style="italic" lengthAdjust="spacing" textLength="86" x="712" y="1358.5332">&#171;component&#187;</text><text fill="#000000" font-family="sans-serif" font-size="14" font-weight="bold" lengthAdjust="spacing" textLength="40" x="735" y="1376.1426">GDPR</text></g><!--cluster BCP_--><g id="cluster_BCP_"><rect fill="none" height="122" rx="2.5" ry="2.5" style="stroke:#181818;stroke-width:1.0;" width="124" x="738.5" y="650"/><rect fill="none" height="10" style="stroke:#181818;stroke-width:1.0;" width="15" x="842.5" y="655"/><rect fill="none" height="2" style="stroke:#181818;stroke-width:1.0;" width="4" x="840.5" y="657"/><rect fill="none" height="2" style="stroke:#181818;stroke-width:1.0;" width="4" x="840.5" y="661"/><text fill="#000000" font-family="sans-serif" font-size="14" font-style="italic" lengthAdjust="spacing" textLength="86" x="757.5" y="677.5332">&#171;component&#187;</text><text fill="#000000" font-family="sans-serif" font-size="14" font-weight="bold" lengthAdjust="spacing" textLength="29" x="786" y="695.1426">BCP</text></g><!--entity Backend--><g id="elem_Backend"><path d="M931.5,242 L972.5,242 A3.75,3.75 0 0 1 975,244.5 L982,263 L1131.5,263 A2.5,2.5 0 0 1 1134,265.5 L1134,295.1094 A2.5,2.5 0 0 1 1131.5,297.6094 L931.5,297.6094 A2.5,2.5 0 0 1 929,295.1094 L929,244.5 A2.5,2.5 0 0 1 931.5,242 " fill="#F1F1F1" style="stroke:#181818;stroke-width:0.5;"/><line style="stroke:#181818;stroke-width:0.5;" x1="929" x2="982" y1="263" y2="263"/><text fill="#000000" font-family="sans-serif" font-size="14" lengthAdjust="spacing" textLength="175" x="939" y="284.5332">Backend Data Management</text></g><!--entity Frontend--><g id="elem_Frontend"><path d="M931,114 L972,114 A3.75,3.75 0 0 1 974.5,116.5 L981.5,135 L1014,135 A2.5,2.5 0 0 1 1016.5,137.5 L1016.5,167.1094 A2.5,2.5 0 0 1 1014,169.6094 L931,169.6094 A2.5,2.5 0 0 1 928.5,167.1094 L928.5,116.5 A2.5,2.5 0 0 1 931,114 " fill="#F1F1F1" style="stroke:#181818;stroke-width:0.5;"/><line style="stroke:#181818;stroke-width:0.5;" x1="928.5" x2="981.5" y1="135" y2="135"/><text fill="#000000" font-family="sans-serif" font-size="14" lengthAdjust="spacing" textLength="58" x="938.5" y="156.5332">Frontend</text></g><!--entity BCP--><g id="elem_BCP"><path d="M1024,114 L1065,114 A3.75,3.75 0 0 1 1067.5,116.5 L1074.5,135 L1089,135 A2.5,2.5 0 0 1 1091.5,137.5 L1091.5,167.1094 A2.5,2.5 0 0 1 1089,169.6094 L1024,169.6094 A2.5,2.5 0 0 1 1021.5,167.1094 L1021.5,116.5 A2.5,2.5 0 0 1 1024,114 " fill="#F1F1F1" style="stroke:#181818;stroke-width:0.5;"/><line style="stroke:#181818;stroke-width:0.5;" x1="1021.5" x2="1074.5" y1="135" y2="135"/><text fill="#000000" font-family="sans-serif" font-size="14" lengthAdjust="spacing" textLength="28" x="1031.5" y="156.5332">BCP</text></g><!--entity GDPR--><g id="elem_GDPR"><path d="M1056,418 L1097,418 A3.75,3.75 0 0 1 1099.5,420.5 L1106.5,439 L1121,439 A2.5,2.5 0 0 1 1123.5,441.5 L1123.5,471.1094 A2.5,2.5 0 0 1 1121,473.6094 L1056,473.6094 A2.5,2.5 0 0 1 1053.5,471.1094 L1053.5,420.5 A2.5,2.5 0 0 1 1056,418 " fill="#F1F1F1" style="stroke:#181818;stroke-width:0.5;"/><line style="stroke:#181818;stroke-width:0.5;" x1="1053.5" x2="1106.5" y1="439" y2="439"/><text fill="#000000" font-family="sans-serif" font-size="14" lengthAdjust="spacing" textLength="40" x="1063.5" y="460.5332">GDPR</text></g><!--entity Planning--><g id="elem_Planning"><path d="M965.5,418 L1006.5,418 A3.75,3.75 0 0 1 1009,420.5 L1016,439 L1045.5,439 A2.5,2.5 0 0 1 1048,441.5 L1048,471.1094 A2.5,2.5 0 0 1 1045.5,473.6094 L965.5,473.6094 A2.5,2.5 0 0 1 963,471.1094 L963,420.5 A2.5,2.5 0 0 1 965.5,418 " fill="#F1F1F1" style="stroke:#181818;stroke-width:0.5;"/><line style="stroke:#181818;stroke-width:0.5;" x1="963" x2="1016" y1="439" y2="439"/><text fill="#000000" font-family="sans-serif" font-size="14" lengthAdjust="spacing" textLength="55" x="973" y="460.5332">Planning</text></g><text fill="#000000" font-family="sans-serif" font-size="14" lengthAdjust="spacing" textLength="4" x="238.5" y="184.9238">&#160;</text><rect fill="#F1F1F1" height="12" style="stroke:#181818;stroke-width:1.5;" width="12" x="234.5" y="200"/><text fill="#000000" font-family="sans-serif" font-size="14" lengthAdjust="spacing" textLength="4" x="322.5" y="184.9238">&#160;</text><rect fill="#F1F1F1" height="12" style="stroke:#181818;stroke-width:1.5;" width="12" x="318.5" y="200"/><text fill="#000000" font-family="sans-serif" font-size="14" lengthAdjust="spacing" textLength="4" x="140.5" y="606.9238">&#160;</text><rect fill="#F1F1F1" height="12" style="stroke:#181818;stroke-width:1.5;" width="12" x="136.5" y="622"/><text fill="#000000" font-family="sans-serif" font-size="14" lengthAdjust="spacing" textLength="4" x="222.5" y="606.9238">&#160;</text><rect fill="#F1F1F1" height="12" style="stroke:#181818;stroke-width:1.5;" width="12" x="218.5" y="622"/><!--entity BACKENDAPI--><g id="elem_BACKENDAPI"><ellipse cx="613.5" cy="893" fill="#F1F1F1" rx="8" ry="8" style="stroke:#181818;stroke-width:0.5;"/><text fill="#000000" font-family="sans-serif" font-size="14" lengthAdjust="spacing" textLength="200" x="513.5" y="924.5332">Backend Data Management API</text></g><!--entity PLANNINGAPI--><g id="elem_PLANNINGAPI"><ellipse cx="803.5" cy="1234" fill="#F1F1F1" rx="8" ry="8" style="stroke:#181818;stroke-width:0.5;"/><text fill="#000000" font-family="sans-serif" font-size="14" lengthAdjust="spacing" textLength="80" x="763.5" y="1265.5332">Planning API</text></g><!--entity GDPR_API--><g id="elem_GDPR_API"><ellipse cx="688.5" cy="1234" fill="#F1F1F1" rx="8" ry="8" style="stroke:#181818;stroke-width:0.5;"/><text fill="#000000" font-family="sans-serif" font-size="14" lengthAdjust="spacing" textLength="65" x="656" y="1265.5332">GDPR API</text></g><text fill="#000000" font-family="sans-serif" font-size="14" lengthAdjust="spacing" textLength="4" x="517.5" y="971.9238">&#160;</text><rect fill="#F1F1F1" height="12" style="stroke:#181818;stroke-width:1.5;" width="12" x="513.5" y="987"/><text fill="#000000" font-family="sans-serif" font-size="14" lengthAdjust="spacing" textLength="4" x="492.5" y="1157.5332">&#160;</text><rect fill="#F1F1F1" height="12" style="stroke:#181818;stroke-width:1.5;" width="12" x="488.5" y="1131"/><text fill="#000000" font-family="sans-serif" font-size="14" lengthAdjust="spacing" textLength="4" x="574.5" y="1157.5332">&#160;</text><rect fill="#F1F1F1" height="12" style="stroke:#181818;stroke-width:1.5;" width="12" x="570.5" y="1131"/><text fill="#000000" font-family="sans-serif" font-size="14" lengthAdjust="spacing" textLength="4" x="656.5" y="1157.5332">&#160;</text><rect fill="#F1F1F1" height="12" style="stroke:#181818;stroke-width:1.5;" width="12" x="652.5" y="1131"/><text fill="#000000" font-family="sans-serif" font-size="14" lengthAdjust="spacing" textLength="4" x="738.5" y="1157.5332">&#160;</text><rect fill="#F1F1F1" height="12" style="stroke:#181818;stroke-width:1.5;" width="12" x="734.5" y="1131"/><text fill="#000000" font-family="sans-serif" font-size="14" lengthAdjust="spacing" textLength="4" x="611.5" y="971.9238">&#160;</text><rect fill="#F1F1F1" height="12" style="stroke:#181818;stroke-width:1.5;" width="12" x="607.5" y="987"/><text fill="#000000" font-family="sans-serif" font-size="14" lengthAdjust="spacing" textLength="4" x="406.5" y="543.4238">&#160;</text><rect fill="#F1F1F1" height="12" style="stroke:#181818;stroke-width:1.5;" width="12" x="402.5" y="558.5"/><text fill="#000000" font-family="sans-serif" font-size="14" lengthAdjust="spacing" textLength="4" x="468.5" y="792.5332">&#160;</text><rect fill="#F1F1F1" height="12" style="stroke:#181818;stroke-width:1.5;" width="12" x="464.5" y="766"/><text fill="#000000" font-family="sans-serif" font-size="14" lengthAdjust="spacing" textLength="4" x="652.5" y="543.4238">&#160;</text><rect fill="#F1F1F1" height="12" style="stroke:#181818;stroke-width:1.5;" width="12" x="648.5" y="558.5"/><text fill="#000000" font-family="sans-serif" font-size="14" lengthAdjust="spacing" textLength="4" x="611.5" y="792.5332">&#160;</text><rect fill="#F1F1F1" height="12" style="stroke:#181818;stroke-width:1.5;" width="12" x="607.5" y="766"/><text fill="#000000" font-family="sans-serif" font-size="14" lengthAdjust="spacing" textLength="4" x="707.5" y="1309.9238">&#160;</text><rect fill="#F1F1F1" height="12" style="stroke:#181818;stroke-width:1.5;" width="12" x="703.5" y="1325"/><text fill="#000000" font-family="sans-serif" font-size="14" lengthAdjust="spacing" textLength="4" x="754.5" y="792.5332">&#160;</text><rect fill="#F1F1F1" height="12" style="stroke:#181818;stroke-width:1.5;" width="12" x="750.5" y="766"/><!--entity API--><g id="elem_API"><ellipse cx="238.5" cy="14" fill="#F1F1F1" rx="8" ry="8" style="stroke:#181818;stroke-width:0.5;"/><text fill="#000000" font-family="sans-serif" font-size="14" lengthAdjust="spacing" textLength="21" x="228" y="45.5332">API</text></g><!--entity UI--><g id="elem_UI"><ellipse cx="327.5" cy="14" fill="#F1F1F1" rx="8" ry="8" style="stroke:#181818;stroke-width:0.5;"/><text fill="#000000" font-family="sans-serif" font-size="14" lengthAdjust="spacing" textLength="12" x="321.5" y="45.5332">UI</text></g><!--entity A0API--><g id="elem_A0API"><ellipse cx="81.5" cy="358" fill="#F1F1F1" rx="8" ry="8" style="stroke:#181818;stroke-width:0.5;"/><text fill="#000000" font-family="sans-serif" font-size="14" lengthAdjust="spacing" textLength="62" x="50.5" y="389.5332">Auth0 API</text></g><!--entity SMTP_Office_365--><g id="elem_SMTP_Office_365"><ellipse cx="59.5" cy="772" fill="#F1F1F1" rx="8" ry="8" style="stroke:#181818;stroke-width:0.5;"/><text fill="#000000" font-family="sans-serif" font-size="14" lengthAdjust="spacing" textLength="107" x="6" y="803.5332">SMTP Office 365</text></g><!--reverse link Frontend to Backend--><g id="link_Frontend_Backend"><path d="M987.7034,175.4643 C997.5834,196.5743 1008.73,220.37 1018.66,241.58 " fill="none" id="Frontend-backto-Backend" style="stroke:#181818;stroke-width:1.0;stroke-dasharray:7.0,7.0;"/><polygon fill="#181818" points="985.16,170.03,985.3522,179.877,987.2795,174.5586,992.5979,176.4858,985.16,170.03" style="stroke:#181818;stroke-width:1.0;"/></g><!--reverse link Backend to Planning--><g id="link_Backend_Planning"><path d="M1016.2631,303.968 C1007.1431,336.558 1000.64,385.08 1000,417.72 " fill="none" id="Backend-backto-Planning" style="stroke:#181818;stroke-width:1.0;stroke-dasharray:7.0,7.0;"/><polygon fill="#181818" points="1017.88,298.19,1011.6026,305.7791,1016.5326,303.005,1019.3066,307.935,1017.88,298.19" style="stroke:#181818;stroke-width:1.0;"/></g><!--reverse link Planning to Backend--><g id="link_Planning_Backend"><path d="M1021.3656,432.9529 C1030.7356,400.3129 1037.19,330.78 1037.56,298.19 " fill="none" id="Planning-backto-Backend" style="stroke:#181818;stroke-width:1.0;stroke-dasharray:7.0,7.0;"/><polygon fill="#181818" points="1019.71,438.72,1026.0381,431.1731,1021.0896,433.9141,1018.3486,428.9657,1019.71,438.72" style="stroke:#181818;stroke-width:1.0;"/></g><!--reverse link BCP to Backend--><g id="link_BCP_Backend"><path d="M1049.9719,175.9152 C1045.7819,197.0252 1041.15,220.37 1036.94,241.58 " fill="none" id="BCP-backto-Backend" style="stroke:#181818;stroke-width:1.0;stroke-dasharray:7.0,7.0;"/><polygon fill="#181818" points="1051.14,170.03,1045.4644,178.079,1050.1666,174.9343,1053.3113,179.6365,1051.14,170.03" style="stroke:#181818;stroke-width:1.0;"/></g><!--reverse link Backend to GDPR--><g id="link_Backend_GDPR"><path d="M1042.2769,303.8922 C1052.9469,336.4822 1068.87,385.08 1079.56,417.72 " fill="none" id="Backend-backto-GDPR" style="stroke:#181818;stroke-width:1.0;stroke-dasharray:7.0,7.0;"/><polygon fill="#181818" points="1040.41,298.19,1039.4089,307.9878,1041.9657,302.9418,1047.0118,305.4987,1040.41,298.19" style="stroke:#181818;stroke-width:1.0;"/></g><!--link UI to SARMPIUI--><g id="link_UI_SARMPIUI"><path d="M327.37,23.16 C326.86,55.41 325,173.44 324.58,199.77 " fill="none" id="UI-SARMPIUI" style="stroke:#181818;stroke-width:1.0;"/></g><!--link SARMPIUI to FrontendINUI--><g id="link_SARMPIUI_FrontendINUI"><path d="M325.69,212.04 C335.1,251.99 397.54,516.97 407.23,558.13 " fill="none" id="SARMPIUI-FrontendINUI" style="stroke:#181818;stroke-width:1.0;"/></g><!--link FrontendOutUI2 to BACKENDAPI--><g id="link_FrontendOutUI2_BACKENDAPI"><path d="M476.64,778.11 C499.2,796.89 569.864,855.6827 596.704,878.0227 " fill="none" id="FrontendOutUI2-to-BACKENDAPI" style="stroke:#181818;stroke-width:1.0;"/><path d="M607.4345,875.9506 A9,9 0 0 0 596.6137 888.951" fill="none" style="stroke:#181818;stroke-width:1.5;"/></g><!--link BACKENDAPI to BackendPI2--><g id="link_BACKENDAPI_BackendPI2"><path d="M613.5,902.02 C613.5,921.4 613.5,970.39 613.5,986.66 " fill="none" id="BACKENDAPI-BackendPI2" style="stroke:#181818;stroke-width:1.0;"/></g><!--link GDPR_API to GDPRINUI--><g id="link_GDPR_API_GDPRINUI"><path d="M690.29,1243.1 C694.5,1262.12 704.91,1309.23 708.37,1324.87 " fill="none" id="GDPR_API-GDPRINUI" style="stroke:#181818;stroke-width:1.0;"/></g><!--link BackendPO3 to GDPR_API--><g id="link_BackendPO3_GDPR_API"><path d="M660.11,1143.11 C665.03,1158.68 676.8477,1196.1145 682.8877,1215.2345 " fill="none" id="BackendPO3-to-GDPR_API" style="stroke:#181818;stroke-width:1.0;"/><path d="M693.0372,1219.2872 A9,9 0 0 0 676.9084 1224.3823" fill="none" style="stroke:#181818;stroke-width:1.5;"/></g><!--link PLANNINGAPI to PLANNINGINUI--><g id="link_PLANNINGAPI_PLANNINGINUI"><path d="M812.52,1227.61 C832.65,1214.81 879.5,1180.45 879.5,1138 C879.5,771 879.5,771 879.5,771 C879.5,712.6 892.05,686.73 854.5,642 C800.95,578.23 687.99,567.49 660.58,565.8 " fill="none" id="PLANNINGAPI-PLANNINGINUI" style="stroke:#181818;stroke-width:1.0;"/></g><!--link BackendPO4 to PLANNINGAPI--><g id="link_BackendPO4_PLANNINGAPI"><path d="M742.72,1143.31 C744.6,1147.64 747.46,1153.85 750.5,1159 C765.27,1184.04 779.9746,1203.4862 790.5746,1216.8462 " fill="none" id="BackendPO4-to-PLANNINGAPI" style="stroke:#181818;stroke-width:1.0;"/><path d="M801.502,1217.0121 A9,9 0 0 0 788.2516 1227.5252" fill="none" style="stroke:#181818;stroke-width:1.5;"/></g><!--link PLANNINGOutUI to BACKENDAPI--><g id="link_PLANNINGOutUI_BACKENDAPI"><path d="M613.5,778.11 C613.5,796.71 613.5,850.85 613.5,873.77 " fill="none" id="PLANNINGOutUI-to-BACKENDAPI" style="stroke:#181818;stroke-width:1.0;"/><path d="M621.9572,880.6918 A9,9 0 0 0 605.0428 880.6918" fill="none" style="stroke:#181818;stroke-width:1.5;"/></g><!--link BCPOutUI to BACKENDAPI--><g id="link_BCPOutUI_BACKENDAPI"><path d="M750.36,778.11 C727.8,796.89 657.136,855.6827 630.296,878.0227 " fill="none" id="BCPOutUI-to-BACKENDAPI" style="stroke:#181818;stroke-width:1.0;"/><path d="M630.3863,888.951 A9,9 0 0 0 619.5655 875.9506" fill="none" style="stroke:#181818;stroke-width:1.5;"/></g><!--link API to SARMPI--><g id="link_API_SARMPI"><path d="M238.59,23.16 C238.93,55.41 240.17,173.44 240.44,199.77 " fill="none" id="API-SARMPI" style="stroke:#181818;stroke-width:1.0;"/></g><!--reverse link A0API to SARMPO1--><g id="link_A0API_SARMPO1"><path d="M85.5476,376.771 C94.7376,417.181 133.65,588.12 141.28,621.64 " fill="none" id="A0API-backto-SARMPO1" style="stroke:#181818;stroke-width:1.0;"/><path d="M75.7659,371.897 A9,9 0 0 0 92.2593 368.1461" fill="none" style="stroke:#181818;stroke-width:1.5;"/></g><!--link SARMPI to BackendPI--><g id="link_SARMPI_BackendPI"><path d="M240.2,212.02 C238.29,245.25 228.4,437.19 245.5,592 C250.48,637.14 266.5,646.59 266.5,692 C266.5,692 266.5,692 266.5,894 C266.5,920.76 252.47,935.19 271.5,954 C309.21,991.27 465.7,941.11 509.5,971 C514.84,974.64 517.41,981.93 518.59,986.89 " fill="none" id="SARMPI-BackendPI" style="stroke:#181818;stroke-width:1.0;"/></g><!--link SARMPO1 to BackendPO1--><g id="link_SARMPO1_BackendPO1"><path d="M144.6,634.32 C151.72,652.85 174.5,716.41 174.5,771 C174.5,771 174.5,771 174.5,1033 C174.5,1074.94 182.49,1093.91 217.5,1117 C240.84,1132.39 449.37,1135.49 488.27,1135.94 " fill="none" id="SARMPO1-BackendPO1" style="stroke:#181818;stroke-width:1.0;"/></g><!--link SARMPO2 to BackendPO2--><g id="link_SARMPO2_BackendPO2"><path d="M224.63,634.42 C225.08,653.27 226.5,717.74 226.5,771 C226.5,771 226.5,771 226.5,1033 C226.5,1107.74 523.95,1132.21 570.43,1135.58 " fill="none" id="SARMPO2-BackendPO2" style="stroke:#181818;stroke-width:1.0;"/></g><!--link SARMPO2 to SMTP_Office_365--><g id="link_SARMPO2_SMTP_Office_365"><path d="M218.63,634.05 C193.94,655.3 106.0591,730.9265 76.1191,756.6965 " fill="none" id="SARMPO2-to-SMTP_Office_365" style="stroke:#181818;stroke-width:1.0;"/><path d="M76.3901,767.6218 A9,9 0 0 0 65.3559 754.8021" fill="none" style="stroke:#181818;stroke-width:1.5;"/></g><!--link BCP to BCP_--><g id="link_BCP_BCP_"><path d="M1021.43,167.27 C980.16,195.87 916.87,239.8 914.5,242 C903.15,252.53 892.5,253.52 892.5,269 C892.5,269 892.5,269 892.5,565.5 C892.5,589.26 881.395,610.945 866.4088,629.3913 C862.6622,634.0028 858.673,638.412 854.5542,642.6005 C852.4948,644.6948 850.4029,646.7339 848.2928,648.7156 C848.029,648.9633 847.7649,649.2101 847.5006,649.456 C847.3685,649.579 851.6385,645.6249 851.5062,645.7474 " fill="none" id="BCP-to-BCP_" style="stroke:#181818;stroke-width:1.0;stroke-dasharray:7.0,7.0;"/><polygon fill="#181818" points="847.1039,649.8242,856.4252,646.6438,850.7725,646.4269,850.9894,640.7742,847.1039,649.8242" style="stroke:#181818;stroke-width:1.0;"/><text fill="#000000" font-family="sans-serif" font-size="13" lengthAdjust="spacing" textLength="63" x="893.5" y="451.4951">&#171;manifest&#187;</text></g><!--link GDPR to GDPR_--><g id="link_GDPR_GDPR_"><path d="M1123.84,457.83 C1167.05,473.53 1234.5,507.08 1234.5,563.5 C1234.5,563.5 1234.5,563.5 1234.5,1332 C1234.5,1354.135 1155.9775,1372 1061.7363,1385.47 C1014.6156,1392.205 963.5653,1397.8413 916.4358,1402.3631 C892.871,1404.6241 870.2864,1406.6064 849.6634,1408.3082 C839.3518,1409.1591 829.5307,1409.9399 820.3226,1410.6502 C819.7471,1410.6946 825.1563,1410.2791 824.5856,1410.323 " fill="none" id="GDPR-to-GDPR_" style="stroke:#181818;stroke-width:1.0;stroke-dasharray:7.0,7.0;"/><polygon fill="#181818" points="818.6033,1410.7826,827.8833,1414.0814,823.5886,1410.3996,827.2704,1406.1049,818.6033,1410.7826" style="stroke:#181818;stroke-width:1.0;"/><text fill="#000000" font-family="sans-serif" font-size="13" lengthAdjust="spacing" textLength="63" x="1235.5" y="998.4951">&#171;manifest&#187;</text></g><!--link Backend to BEDM--><g id="link_Backend_BEDM"><path d="M1064.15,298.11 C1098.15,329.57 1146.5,384.89 1146.5,445 C1146.5,445 1146.5,445 1146.5,994 C1146.5,1014.895 1080.3425,1031.9525 995.2225,1045.2513 C952.6625,1051.9006 905.3619,1057.6103 859.22,1062.3902 C836.1491,1064.7801 813.3678,1066.9375 791.6137,1068.8638 C780.7366,1069.8269 776.096,1070.2387 765.8246,1071.0864 " fill="none" id="Backend-to-BEDM" style="stroke:#181818;stroke-width:1.0;stroke-dasharray:7.0,7.0;"/><polygon fill="#181818" points="759.845,1071.5798,769.1435,1074.8261,764.828,1071.1686,768.4855,1066.8532,759.845,1071.5798" style="stroke:#181818;stroke-width:1.0;"/><text fill="#000000" font-family="sans-serif" font-size="13" lengthAdjust="spacing" textLength="63" x="1147.5" y="698.4951">&#171;manifest&#187;</text></g><!--link Frontend to FE--><g id="link_Frontend_FE"><path d="M928.39,146.57 C859.33,154.85 733.5,181.87 733.5,269 C733.5,269 733.5,269 733.5,565.5 C733.5,603.43 697.19,581.91 546.5,642 C534.5,646.785 521.9275,652.2425 509.79,657.7525 C503.7213,660.5075 497.7613,663.2756 492.0359,665.9794 C491.3203,666.3173 490.6083,666.6543 489.9002,666.9901 C489.5462,667.158 489.1931,667.3256 488.841,667.4929 C488.753,667.5348 494.0837,665.0002 493.9959,665.0419 " fill="none" id="Frontend-to-FE" style="stroke:#181818;stroke-width:1.0;stroke-dasharray:7.0,7.0;"/><polygon fill="#181818" points="488.5772,667.6184,498.4228,667.3662,493.0927,665.4713,494.9876,660.1413,488.5772,667.6184" style="stroke:#181818;stroke-width:1.0;"/><text fill="#000000" font-family="sans-serif" font-size="13" lengthAdjust="spacing" textLength="63" x="734.5" y="451.4951">&#171;manifest&#187;</text></g><!--link Planning to PL--><g id="link_Planning_PL"><path d="M983.23,474.1 C976.03,482.18 967.77,490.79 959.5,498 C878.48,568.64 858.52,592.17 759.5,634 C743.2,640.89 737.3,636.44 720.5,642 C707.75,646.22 694.52,651.555 681.89,657.1575 C678.7325,658.5581 681.0563,657.4525 677.9906,658.8733 " fill="none" id="Planning-to-PL" style="stroke:#181818;stroke-width:1.0;stroke-dasharray:7.0,7.0;"/><polygon fill="#181818" points="672.5469,661.3963,682.3945,661.2409,677.0833,659.2938,679.0305,653.9826,672.5469,661.3963" style="stroke:#181818;stroke-width:1.0;"/><text fill="#000000" font-family="sans-serif" font-size="13" lengthAdjust="spacing" textLength="63" x="923.5" y="569.9951">&#171;manifest&#187;</text></g><!--SRC=[ZLNBRk8m5DtxAonMtIJgf9rPZ52a46Y5feIeJDR80qadQcEZO1QZgly-rtRy2Wa0ACJtdEkS-t8uEs3Ey1_6EMlmlcxB7QyPHUX0Tk_ahSGJ-4wdc-Hr5SUV2CEdOX_xiiMJ6J1AkiTpmWbU4GhifgHyWiaHQ-mJIPSlv7a-jOnoW2LLBuQfipHN6wRvCE5vdhzAXhWPfE19_a4ehUcRvEc5rGPqBG9Fmr2BHpe8OTDUoBXxp3GVzHIw448rxDzMP0SPJVAbL0B_hhbGri8p9YV-znuRZ_kUpsRrEyVhggfXyV3ZkoG9srRPjc13QCUQ0wDG6k137KKzZIcEOPK-uis_8oyRMAaQ7rZBQogBBtO4BtZk651OY9suXws_ZKEHohyJpKX7cV1dIVfhaSr53gIh4zZ5PbpCLxsOLPJd0NNRTC4EIDU4Bh1BZEWgu-4gu_6QpiXjU2SV_eWjRWnVUospOZG3chC-yS9_l5D9CoMwTFbBacNBx7ceTlvuljoeLUzuIQlcIAqZKiLy6fbYiHtIw1qpsnib2gwHzoMlPtrhpxVBkxhTaUPUGF0hbZW8x3Zg6p06Vb7zwW5-vqwLRIiS584tRpeM2PWqsLQMMzdqkTMHBcu3sFQMNYxaLQml3-d8pm2us0IWxkZ1mKdmrA6f846oCsvuWJlNdJdop95ZlJi_OiKB80p3MDNn9rIo8RIkoYCKKgPEeQfvUh0-kfI_EAjw1FDoaWmOvXvkXatYC40z_3y0]--></g></svg>