<?xml version="1.0" encoding="us-ascii" standalone="no"?><svg xmlns="http://www.w3.org/2000/svg" xmlns:xlink="http://www.w3.org/1999/xlink" contentStyleType="text/css" height="1317px" preserveAspectRatio="none" style="width:1738px;height:1317px;background:#FFFFFF;" version="1.1" viewBox="0 0 1738 1317" width="1738px" zoomAndPan="magnify"><defs/><g><!--cluster  --><g id="cluster_ "><path d="M1132.5,195 L1137.5,195 A3.75,3.75 0 0 1 1140,197.5 L1147,218.6094 L1447.5,218.6094 A2.5,2.5 0 0 1 1450,221.1094 L1450,611.5 A2.5,2.5 0 0 1 1447.5,614 L1132.5,614 A2.5,2.5 0 0 1 1130,611.5 L1130,197.5 A2.5,2.5 0 0 1 1132.5,195 " fill="none" style="stroke:#000000;stroke-width:1.5;"/><line style="stroke:#000000;stroke-width:1.5;" x1="1130" x2="1147" y1="218.6094" y2="218.6094"/><text fill="#000000" font-family="sans-serif" font-size="14" font-weight="bold" lengthAdjust="spacing" textLength="4" x="1134" y="211.5332">&#160;</text><text fill="#000000" font-family="sans-serif" font-size="14" font-style="italic" lengthAdjust="spacing" textLength="56" x="1266" y="235.1426">&#171;SARM&#187;</text></g><!--cluster SARM--><g id="cluster_SARM"><rect fill="none" height="1200" rx="2.5" ry="2.5" style="stroke:#181818;stroke-width:1.0;" width="927" x="173" y="111"/><rect fill="none" height="10" style="stroke:#181818;stroke-width:1.0;" width="15" x="1080" y="116"/><rect fill="none" height="2" style="stroke:#181818;stroke-width:1.0;" width="4" x="1078" y="118"/><rect fill="none" height="2" style="stroke:#181818;stroke-width:1.0;" width="4" x="1078" y="122"/><text fill="#000000" font-family="sans-serif" font-size="14" font-style="italic" lengthAdjust="spacing" textLength="86" x="593.5" y="138.5332">&#171;component&#187;</text><text fill="#000000" font-family="sans-serif" font-size="14" font-style="italic" lengthAdjust="spacing" textLength="84" x="594.5" y="156.1426">&#171;C4 System&#187;</text><text fill="#000000" font-family="sans-serif" font-size="14" font-weight="bold" lengthAdjust="spacing" textLength="41" x="616" y="173.752">SARM</text></g><!--cluster BEDM--><g id="cluster_BEDM"><rect fill="none" height="200" rx="2.5" ry="2.5" style="stroke:#181818;stroke-width:1.0;" width="294" x="449" y="570"/><rect fill="none" height="10" style="stroke:#181818;stroke-width:1.0;" width="15" x="723" y="575"/><rect fill="none" height="2" style="stroke:#181818;stroke-width:1.0;" width="4" x="721" y="577"/><rect fill="none" height="2" style="stroke:#181818;stroke-width:1.0;" width="4" x="721" y="581"/><text fill="#000000" font-family="sans-serif" font-size="14" font-style="italic" lengthAdjust="spacing" textLength="86" x="553" y="597.5332">&#171;component&#187;</text><text fill="#000000" font-family="sans-serif" font-size="14" font-weight="bold" lengthAdjust="spacing" textLength="191" x="500.5" y="615.1426">Backend Data Management</text></g><!--cluster BENODE_--><g id="cluster_BENODE_"><rect fill="none" height="181" rx="2.5" ry="2.5" style="stroke:#181818;stroke-width:1.0;" width="118" x="259" y="770"/><rect fill="none" height="10" style="stroke:#181818;stroke-width:1.0;" width="15" x="357" y="775"/><rect fill="none" height="2" style="stroke:#181818;stroke-width:1.0;" width="4" x="355" y="777"/><rect fill="none" height="2" style="stroke:#181818;stroke-width:1.0;" width="4" x="355" y="781"/><text fill="#000000" font-family="sans-serif" font-size="14" font-style="italic" lengthAdjust="spacing" textLength="86" x="275" y="797.5332">&#171;component&#187;</text><text fill="#000000" font-family="sans-serif" font-size="14" font-weight="bold" lengthAdjust="spacing" textLength="102" x="267" y="815.1426">Backend Node</text></g><!--cluster FE--><g id="cluster_FE"><rect fill="none" height="163" rx="2.5" ry="2.5" style="stroke:#181818;stroke-width:1.0;" width="118" x="394" y="1005"/><rect fill="none" height="10" style="stroke:#181818;stroke-width:1.0;" width="15" x="492" y="1010"/><rect fill="none" height="2" style="stroke:#181818;stroke-width:1.0;" width="4" x="490" y="1012"/><rect fill="none" height="2" style="stroke:#181818;stroke-width:1.0;" width="4" x="490" y="1016"/><text fill="#000000" font-family="sans-serif" font-size="14" font-style="italic" lengthAdjust="spacing" textLength="86" x="410" y="1032.5332">&#171;component&#187;</text><text fill="#000000" font-family="sans-serif" font-size="14" font-weight="bold" lengthAdjust="spacing" textLength="65" x="420.5" y="1050.1426">Frontend</text></g><!--cluster PL--><g id="cluster_PL"><rect fill="none" height="163" rx="2.5" ry="2.5" style="stroke:#181818;stroke-width:1.0;" width="124" x="772" y="1005"/><rect fill="none" height="10" style="stroke:#181818;stroke-width:1.0;" width="15" x="876" y="1010"/><rect fill="none" height="2" style="stroke:#181818;stroke-width:1.0;" width="4" x="874" y="1012"/><rect fill="none" height="2" style="stroke:#181818;stroke-width:1.0;" width="4" x="874" y="1016"/><text fill="#000000" font-family="sans-serif" font-size="14" font-style="italic" lengthAdjust="spacing" textLength="86" x="791" y="1032.5332">&#171;component&#187;</text><text fill="#000000" font-family="sans-serif" font-size="14" font-weight="bold" lengthAdjust="spacing" textLength="61" x="803.5" y="1050.1426">Planning</text></g><!--cluster GDPR_--><g id="cluster_GDPR_"><rect fill="none" height="140" rx="2.5" ry="2.5" style="stroke:#181818;stroke-width:1.0;" width="96" x="627.875" y="1005"/><rect fill="none" height="10" style="stroke:#181818;stroke-width:1.0;" width="15" x="703.875" y="1010"/><rect fill="none" height="2" style="stroke:#181818;stroke-width:1.0;" width="4" x="701.875" y="1012"/><rect fill="none" height="2" style="stroke:#181818;stroke-width:1.0;" width="4" x="701.875" y="1016"/><text fill="#000000" font-family="sans-serif" font-size="14" font-style="italic" lengthAdjust="spacing" textLength="86" x="632.875" y="1032.5332">&#171;component&#187;</text><text fill="#000000" font-family="sans-serif" font-size="14" font-weight="bold" lengthAdjust="spacing" textLength="40" x="655.875" y="1050.1426">GDPR</text></g><!--cluster BCP_--><g id="cluster_BCP_"><rect fill="none" height="109" rx="2.5" ry="2.5" style="stroke:#181818;stroke-width:1.0;" width="124" x="946" y="1059"/><rect fill="none" height="10" style="stroke:#181818;stroke-width:1.0;" width="15" x="1050" y="1064"/><rect fill="none" height="2" style="stroke:#181818;stroke-width:1.0;" width="4" x="1048" y="1066"/><rect fill="none" height="2" style="stroke:#181818;stroke-width:1.0;" width="4" x="1048" y="1070"/><text fill="#000000" font-family="sans-serif" font-size="14" font-style="italic" lengthAdjust="spacing" textLength="86" x="965" y="1086.5332">&#171;component&#187;</text><text fill="#000000" font-family="sans-serif" font-size="14" font-weight="bold" lengthAdjust="spacing" textLength="29" x="993.5" y="1104.1426">BCP</text></g><!--entity Backend--><g id="elem_Backend"><path d="M1231,425 L1272,425 A3.75,3.75 0 0 1 1274.5,427.5 L1281.5,446 L1431,446 A2.5,2.5 0 0 1 1433.5,448.5 L1433.5,478.1094 A2.5,2.5 0 0 1 1431,480.6094 L1231,480.6094 A2.5,2.5 0 0 1 1228.5,478.1094 L1228.5,427.5 A2.5,2.5 0 0 1 1231,425 " fill="#F1F1F1" style="stroke:#181818;stroke-width:0.5;"/><line style="stroke:#181818;stroke-width:0.5;" x1="1228.5" x2="1281.5" y1="446" y2="446"/><text fill="#000000" font-family="sans-serif" font-size="14" lengthAdjust="spacing" textLength="175" x="1238.5" y="467.5332">Backend Data Management</text></g><!--entity Frontend--><g id="elem_Frontend"><path d="M1273.5,249 L1314.5,249 A3.75,3.75 0 0 1 1317,251.5 L1324,270 L1356.5,270 A2.5,2.5 0 0 1 1359,272.5 L1359,302.1094 A2.5,2.5 0 0 1 1356.5,304.6094 L1273.5,304.6094 A2.5,2.5 0 0 1 1271,302.1094 L1271,251.5 A2.5,2.5 0 0 1 1273.5,249 " fill="#F1F1F1" style="stroke:#181818;stroke-width:0.5;"/><line style="stroke:#181818;stroke-width:0.5;" x1="1271" x2="1324" y1="270" y2="270"/><text fill="#000000" font-family="sans-serif" font-size="14" lengthAdjust="spacing" textLength="58" x="1281" y="291.5332">Frontend</text></g><!--entity BCP--><g id="elem_BCP"><path d="M1366.5,249 L1407.5,249 A3.75,3.75 0 0 1 1410,251.5 L1417,270 L1431.5,270 A2.5,2.5 0 0 1 1434,272.5 L1434,302.1094 A2.5,2.5 0 0 1 1431.5,304.6094 L1366.5,304.6094 A2.5,2.5 0 0 1 1364,302.1094 L1364,251.5 A2.5,2.5 0 0 1 1366.5,249 " fill="#F1F1F1" style="stroke:#181818;stroke-width:0.5;"/><line style="stroke:#181818;stroke-width:0.5;" x1="1364" x2="1417" y1="270" y2="270"/><text fill="#000000" font-family="sans-serif" font-size="14" lengthAdjust="spacing" textLength="28" x="1374" y="291.5332">BCP</text></g><!--entity GDPR--><g id="elem_GDPR"><path d="M1275.5,542 L1316.5,542 A3.75,3.75 0 0 1 1319,544.5 L1326,563 L1340.5,563 A2.5,2.5 0 0 1 1343,565.5 L1343,595.1094 A2.5,2.5 0 0 1 1340.5,597.6094 L1275.5,597.6094 A2.5,2.5 0 0 1 1273,595.1094 L1273,544.5 A2.5,2.5 0 0 1 1275.5,542 " fill="#F1F1F1" style="stroke:#181818;stroke-width:0.5;"/><line style="stroke:#181818;stroke-width:0.5;" x1="1273" x2="1326" y1="563" y2="563"/><text fill="#000000" font-family="sans-serif" font-size="14" lengthAdjust="spacing" textLength="40" x="1283" y="584.5332">GDPR</text></g><!--entity Planning--><g id="elem_Planning"><path d="M1351,542 L1392,542 A3.75,3.75 0 0 1 1394.5,544.5 L1401.5,563 L1431,563 A2.5,2.5 0 0 1 1433.5,565.5 L1433.5,595.1094 A2.5,2.5 0 0 1 1431,597.6094 L1351,597.6094 A2.5,2.5 0 0 1 1348.5,595.1094 L1348.5,544.5 A2.5,2.5 0 0 1 1351,542 " fill="#F1F1F1" style="stroke:#181818;stroke-width:0.5;"/><line style="stroke:#181818;stroke-width:0.5;" x1="1348.5" x2="1401.5" y1="563" y2="563"/><text fill="#000000" font-family="sans-serif" font-size="14" lengthAdjust="spacing" textLength="55" x="1358.5" y="584.5332">Planning</text></g><!--entity BackendNode--><g id="elem_BackendNode"><path d="M1148.5,542 L1189.5,542 A3.75,3.75 0 0 1 1192,544.5 L1199,563 L1265.5,563 A2.5,2.5 0 0 1 1268,565.5 L1268,595.1094 A2.5,2.5 0 0 1 1265.5,597.6094 L1148.5,597.6094 A2.5,2.5 0 0 1 1146,595.1094 L1146,544.5 A2.5,2.5 0 0 1 1148.5,542 " fill="#F1F1F1" style="stroke:#181818;stroke-width:0.5;"/><line style="stroke:#181818;stroke-width:0.5;" x1="1146" x2="1199" y1="563" y2="563"/><text fill="#000000" font-family="sans-serif" font-size="14" lengthAdjust="spacing" textLength="92" x="1156" y="584.5332">Backend Node</text></g><text fill="#000000" font-family="sans-serif" font-size="14" lengthAdjust="spacing" textLength="4" x="423" y="89.9238">&#160;</text><rect fill="#F1F1F1" height="12" style="stroke:#181818;stroke-width:1.5;" width="12" x="419" y="105"/><text fill="#000000" font-family="sans-serif" font-size="14" lengthAdjust="spacing" textLength="4" x="191" y="89.9238">&#160;</text><rect fill="#F1F1F1" height="12" style="stroke:#181818;stroke-width:1.5;" width="12" x="187" y="105"/><text fill="#000000" font-family="sans-serif" font-size="14" lengthAdjust="spacing" textLength="4" x="278" y="89.9238">&#160;</text><rect fill="#F1F1F1" height="12" style="stroke:#181818;stroke-width:1.5;" width="12" x="274" y="105"/><text fill="#000000" font-family="sans-serif" font-size="14" lengthAdjust="spacing" textLength="4" x="189" y="614.9238">&#160;</text><rect fill="#F1F1F1" height="12" style="stroke:#181818;stroke-width:1.5;" width="12" x="185" y="630"/><text fill="#000000" font-family="sans-serif" font-size="14" lengthAdjust="spacing" textLength="4" x="1098" y="614.9238">&#160;</text><rect fill="#F1F1F1" height="12" style="stroke:#181818;stroke-width:1.5;" width="12" x="1094" y="630"/><!--entity BACKENDAPI--><g id="elem_BACKENDAPI"><ellipse cx="596" cy="1265" fill="#F1F1F1" rx="8" ry="8" style="stroke:#181818;stroke-width:0.5;"/><text fill="#000000" font-family="sans-serif" font-size="14" lengthAdjust="spacing" textLength="200" x="496" y="1296.5332">Backend Data Management API</text></g><!--entity BACKENDNODEAPI--><g id="elem_BACKENDNODEAPI"><ellipse cx="316" cy="1102" fill="#F1F1F1" rx="8" ry="8" style="stroke:#181818;stroke-width:0.5;"/><text fill="#000000" font-family="sans-serif" font-size="14" lengthAdjust="spacing" textLength="117" x="257.5" y="1133.5332">Backend Node API</text></g><!--entity PLANNINGAPI--><g id="elem_PLANNINGAPI"><ellipse cx="794" cy="908" fill="#F1F1F1" rx="8" ry="8" style="stroke:#181818;stroke-width:0.5;"/><text fill="#000000" font-family="sans-serif" font-size="14" lengthAdjust="spacing" textLength="80" x="754" y="939.5332">Planning API</text></g><!--entity GDPR_API--><g id="elem_GDPR_API"><ellipse cx="645" cy="908" fill="#F1F1F1" rx="8" ry="8" style="stroke:#181818;stroke-width:0.5;"/><text fill="#000000" font-family="sans-serif" font-size="14" lengthAdjust="spacing" textLength="65" x="612.5" y="939.5332">GDPR API</text></g><text fill="#000000" font-family="sans-serif" font-size="14" lengthAdjust="spacing" textLength="4" x="465" y="548.9238">&#160;</text><rect fill="#F1F1F1" height="12" style="stroke:#181818;stroke-width:1.5;" width="12" x="461" y="564"/><text fill="#000000" font-family="sans-serif" font-size="14" lengthAdjust="spacing" textLength="4" x="465" y="790.5332">&#160;</text><rect fill="#F1F1F1" height="12" style="stroke:#181818;stroke-width:1.5;" width="12" x="461" y="764"/><text fill="#000000" font-family="sans-serif" font-size="14" lengthAdjust="spacing" textLength="4" x="559" y="790.5332">&#160;</text><rect fill="#F1F1F1" height="12" style="stroke:#181818;stroke-width:1.5;" width="12" x="555" y="764"/><text fill="#000000" font-family="sans-serif" font-size="14" lengthAdjust="spacing" textLength="4" x="641" y="790.5332">&#160;</text><rect fill="#F1F1F1" height="12" style="stroke:#181818;stroke-width:1.5;" width="12" x="637" y="764"/><text fill="#000000" font-family="sans-serif" font-size="14" lengthAdjust="spacing" textLength="4" x="723" y="790.5332">&#160;</text><rect fill="#F1F1F1" height="12" style="stroke:#181818;stroke-width:1.5;" width="12" x="719" y="764"/><text fill="#000000" font-family="sans-serif" font-size="14" lengthAdjust="spacing" textLength="4" x="512" y="790.5332">&#160;</text><rect fill="#F1F1F1" height="12" style="stroke:#181818;stroke-width:1.5;" width="12" x="508" y="764"/><text fill="#000000" font-family="sans-serif" font-size="14" lengthAdjust="spacing" textLength="4" x="547" y="548.9238">&#160;</text><rect fill="#F1F1F1" height="12" style="stroke:#181818;stroke-width:1.5;" width="12" x="543" y="564"/><text fill="#000000" font-family="sans-serif" font-size="14" lengthAdjust="spacing" textLength="4" x="275" y="748.9238">&#160;</text><rect fill="#F1F1F1" height="12" style="stroke:#181818;stroke-width:1.5;" width="12" x="271" y="764"/><text fill="#000000" font-family="sans-serif" font-size="14" lengthAdjust="spacing" textLength="4" x="357" y="748.9238">&#160;</text><rect fill="#F1F1F1" height="12" style="stroke:#181818;stroke-width:1.5;" width="12" x="353" y="764"/><text fill="#000000" font-family="sans-serif" font-size="14" lengthAdjust="spacing" textLength="4" x="433" y="983.9238">&#160;</text><rect fill="#F1F1F1" height="12" style="stroke:#181818;stroke-width:1.5;" width="12" x="429" y="999"/><text fill="#000000" font-family="sans-serif" font-size="14" lengthAdjust="spacing" textLength="4" x="410" y="1188.5332">&#160;</text><rect fill="#F1F1F1" height="12" style="stroke:#181818;stroke-width:1.5;" width="12" x="406" y="1162"/><text fill="#000000" font-family="sans-serif" font-size="14" lengthAdjust="spacing" textLength="4" x="492" y="1188.5332">&#160;</text><rect fill="#F1F1F1" height="12" style="stroke:#181818;stroke-width:1.5;" width="12" x="488" y="1162"/><text fill="#000000" font-family="sans-serif" font-size="14" lengthAdjust="spacing" textLength="4" x="808" y="983.9238">&#160;</text><rect fill="#F1F1F1" height="12" style="stroke:#181818;stroke-width:1.5;" width="12" x="804" y="999"/><text fill="#000000" font-family="sans-serif" font-size="14" lengthAdjust="spacing" textLength="4" x="788" y="1188.5332">&#160;</text><rect fill="#F1F1F1" height="12" style="stroke:#181818;stroke-width:1.5;" width="12" x="784" y="1162"/><text fill="#000000" font-family="sans-serif" font-size="14" lengthAdjust="spacing" textLength="4" x="644" y="983.9238">&#160;</text><rect fill="#F1F1F1" height="12" style="stroke:#181818;stroke-width:1.5;" width="12" x="640" y="999"/><text fill="#000000" font-family="sans-serif" font-size="14" lengthAdjust="spacing" textLength="4" x="962" y="1188.5332">&#160;</text><rect fill="#F1F1F1" height="12" style="stroke:#181818;stroke-width:1.5;" width="12" x="958" y="1162"/><!--entity API--><g id="elem_API"><ellipse cx="425" cy="14" fill="#F1F1F1" rx="8" ry="8" style="stroke:#181818;stroke-width:0.5;"/><text fill="#000000" font-family="sans-serif" font-size="14" lengthAdjust="spacing" textLength="21" x="414.5" y="45.5332">API</text></g><!--entity UI--><g id="elem_UI"><ellipse cx="189" cy="14" fill="#F1F1F1" rx="8" ry="8" style="stroke:#181818;stroke-width:0.5;"/><text fill="#000000" font-family="sans-serif" font-size="14" lengthAdjust="spacing" textLength="12" x="183" y="45.5332">UI</text></g><!--entity NODEAPI--><g id="elem_NODEAPI"><ellipse cx="288" cy="14" fill="#F1F1F1" rx="8" ry="8" style="stroke:#181818;stroke-width:0.5;"/><text fill="#000000" font-family="sans-serif" font-size="14" lengthAdjust="spacing" textLength="58" x="259" y="45.5332">Node API</text></g><!--entity A0API--><g id="elem_A0API"><ellipse cx="37" cy="365" fill="#F1F1F1" rx="8" ry="8" style="stroke:#181818;stroke-width:0.5;"/><text fill="#000000" font-family="sans-serif" font-size="14" lengthAdjust="spacing" textLength="62" x="6" y="396.5332">Auth0 API</text></g><!--entity SMTP_Office_365--><g id="elem_SMTP_Office_365"><ellipse cx="1183" cy="770" fill="#F1F1F1" rx="8" ry="8" style="stroke:#181818;stroke-width:0.5;"/><text fill="#000000" font-family="sans-serif" font-size="14" lengthAdjust="spacing" textLength="107" x="1129.5" y="801.5332">SMTP Office 365</text></g><!--reverse link Frontend to Backend--><g id="link_Frontend_Backend"><path d="M1318.05,311.1647 C1321.05,343.7547 1325.49,392.08 1328.49,424.72 " fill="none" id="Frontend-backto-Backend" style="stroke:#181818;stroke-width:1.0;stroke-dasharray:7.0,7.0;"/><polygon fill="#181818" points="1317.5,305.19,1314.3418,314.5188,1317.9583,310.1689,1322.3081,313.7854,1317.5,305.19" style="stroke:#181818;stroke-width:1.0;"/></g><!--reverse link Backend to Planning--><g id="link_Backend_Planning"><path d="M1336.3984,486.8288 C1343.6584,505.1688 1354.02,523.65 1365.88,541.94 " fill="none" id="Backend-backto-Planning" style="stroke:#181818;stroke-width:1.0;stroke-dasharray:7.0,7.0;"/><polygon fill="#181818" points="1334.19,481.25,1333.7834,491.0905,1336.0303,485.899,1341.2218,488.1459,1334.19,481.25" style="stroke:#181818;stroke-width:1.0;"/></g><!--reverse link Planning to Backend--><g id="link_Planning_Backend"><path d="M1386.3714,536.3456 C1379.2814,518.0556 1368.9,499.59 1356.9,481.25 " fill="none" id="Planning-backto-Backend" style="stroke:#181818;stroke-width:1.0;stroke-dasharray:7.0,7.0;"/><polygon fill="#181818" points="1388.54,541.94,1389.0166,532.1027,1386.7328,537.278,1381.5575,534.9942,1388.54,541.94" style="stroke:#181818;stroke-width:1.0;"/></g><!--reverse link Frontend to BackendNode--><g id="link_Frontend_BackendNode"><path d="M1287.8469,309.7851 C1265.2169,337.7651 1235.84,379.03 1220,425 C1206.55,464.04 1205.01,512.37 1205.64,541.92 " fill="none" id="Frontend-backto-BackendNode" style="stroke:#181818;stroke-width:1.0;stroke-dasharray:7.0,7.0;"/><polygon fill="#181818" points="1291.62,305.12,1282.8502,309.6023,1288.4757,309.0076,1289.0704,314.6331,1291.62,305.12" style="stroke:#181818;stroke-width:1.0;"/></g><!--reverse link Backend to BackendNode--><g id="link_Backend_BackendNode"><path d="M1297.2123,485.3317 C1277.4523,503.6717 1255.9,523.65 1236.18,541.94 " fill="none" id="Backend-backto-BackendNode" style="stroke:#181818;stroke-width:1.0;stroke-dasharray:7.0,7.0;"/><polygon fill="#181818" points="1301.61,481.25,1292.2923,484.4407,1297.9452,484.6514,1297.7346,490.3043,1301.61,481.25" style="stroke:#181818;stroke-width:1.0;"/></g><!--reverse link BCP to Backend--><g id="link_BCP_Backend"><path d="M1386.1955,310.7782 C1373.4555,343.3682 1354.42,392.08 1341.66,424.72 " fill="none" id="BCP-backto-Backend" style="stroke:#181818;stroke-width:1.0;stroke-dasharray:7.0,7.0;"/><polygon fill="#181818" points="1388.38,305.19,1381.3778,312.1159,1386.5596,309.8468,1388.8287,315.0286,1388.38,305.19" style="stroke:#181818;stroke-width:1.0;"/></g><!--reverse link Backend to GDPR--><g id="link_Backend_GDPR"><path d="M1324.3727,487.1334 C1320.7027,505.4734 1317.07,523.65 1313.41,541.94 " fill="none" id="Backend-backto-GDPR" style="stroke:#181818;stroke-width:1.0;stroke-dasharray:7.0,7.0;"/><polygon fill="#181818" points="1325.55,481.25,1319.8618,489.2902,1324.5689,486.1528,1327.7063,490.8599,1325.55,481.25" style="stroke:#181818;stroke-width:1.0;"/></g><!--link UI to SARMPIUI--><g id="link_UI_SARMPIUI"><path d="M189.34,23.1 C190.14,42.12 192.13,89.23 192.78,104.87 " fill="none" id="UI-SARMPIUI" style="stroke:#181818;stroke-width:1.0;"/></g><!--link SARMPIUI to FrontendINUI--><g id="link_SARMPIUI_FrontendINUI"><path d="M186.91,113.69 C168.07,119.33 112,139.36 112,178 C112,178 112,178 112,909 C112,955.24 154.06,951.83 197,969 C283.87,1003.73 400.94,1004.48 428.85,1004.12 " fill="none" id="SARMPIUI-FrontendINUI" style="stroke:#181818;stroke-width:1.0;"/></g><!--link FrontendOutUI2 to BACKENDAPI--><g id="link_FrontendOutUI2_BACKENDAPI"><path d="M418.12,1172.16 C445.18,1186.13 545.2943,1237.8226 577.8743,1254.6426 " fill="none" id="FrontendOutUI2-to-BACKENDAPI" style="stroke:#181818;stroke-width:1.0;"/><path d="M587.9045,1250.3031 A9,9 0 0 0 580.1451 1265.3328" fill="none" style="stroke:#181818;stroke-width:1.5;"/></g><!--link BACKENDAPI to BackendPI2--><g id="link_BACKENDAPI_BackendPI2"><path d="M586.93,1263.75 C529.09,1261.94 214,1248.44 214,1169 C214,968 214,968 214,968 C214,916.52 224.15,781.21 255,740 C325.27,646.12 393.72,687.48 491,622 C512.36,607.62 534.3,586.12 543.94,576.27 " fill="none" id="BACKENDAPI-BackendPI2" style="stroke:#181818;stroke-width:1.0;"/></g><!--link BackendNodeIN to BACKENDNODEAPI--><g id="link_BackendNodeIN_BACKENDNODEAPI"><path d="M276.59,776.09 C275.43,790.98 272.09,835.76 271,873 C269.88,911.21 265.16,921.23 271,959 C279.14,1011.65 303.32,1071.51 312.45,1092.89 " fill="none" id="BackendNodeIN-BACKENDNODEAPI" style="stroke:#181818;stroke-width:1.0;"/></g><!--link BackendPO5 to BACKENDNODEAPI--><g id="link_BackendPO5_BACKENDNODEAPI"><path d="M512.42,776.12 C505.12,799.28 472.65,895.87 421,959 C409.97,972.49 401.7,970.09 390,983 C356.88,1019.56 333.9036,1063.7774 324.1736,1083.8974 " fill="none" id="BackendPO5-to-BACKENDNODEAPI" style="stroke:#181818;stroke-width:1.0;"/><path d="M328.7738,1093.8108 A9,9 0 0 0 313.5465 1086.4469" fill="none" style="stroke:#181818;stroke-width:1.5;"/></g><!--reverse link BACKENDNODEAPI to FrontendOutUI3--><g id="link_BACKENDNODEAPI_FrontendOutUI3"><path d="M333.4277,1115.2437 C349.1777,1126.1237 374.4,1142.09 406,1153 C435.54,1163.2 473.25,1166.02 487.85,1166.76 " fill="none" id="BACKENDNODEAPI-backto-FrontendOutUI3" style="stroke:#181818;stroke-width:1.0;"/><path d="M322.9258,1118.2679 A9,9 0 0 0 332.5395 1104.3511" fill="none" style="stroke:#181818;stroke-width:1.5;"/></g><!--link NODEAPI to SARMPINODE--><g id="link_NODEAPI_SARMPINODE"><path d="M287.32,23.1 C285.72,42.12 281.75,89.23 280.43,104.87 " fill="none" id="NODEAPI-SARMPINODE" style="stroke:#181818;stroke-width:1.0;"/></g><!--link BackendNodeIN2 to SARMPINODE--><g id="link_BackendNodeIN2_SARMPINODE"><path d="M352.76,765.32 C342.35,759.3 320.62,747.31 301,740 C277.36,731.2 268.19,738 246,726 C194.54,698.16 149,695.51 149,637 C149,178 149,178 149,178 C149,121.46 247.51,113.35 273.68,112.19 " fill="none" id="BackendNodeIN2-SARMPINODE" style="stroke:#181818;stroke-width:1.0;"/></g><!--link GDPR_API to GDPRINUI--><g id="link_GDPR_API_GDPRINUI"><path d="M645.09,917.1 C645.29,936.12 645.78,983.23 645.95,998.87 " fill="none" id="GDPR_API-GDPRINUI" style="stroke:#181818;stroke-width:1.0;"/></g><!--link BackendPO3 to GDPR_API--><g id="link_BackendPO3_GDPR_API"><path d="M643.08,776.17 C643.38,796.83 644.3634,863.6811 644.7334,888.9211 " fill="none" id="BackendPO3-to-GDPR_API" style="stroke:#181818;stroke-width:1.0;"/><path d="M653.2912,895.7182 A9,9 0 0 0 636.3786 895.9661" fill="none" style="stroke:#181818;stroke-width:1.5;"/></g><!--link PLANNINGAPI to PLANNINGINUI--><g id="link_PLANNINGAPI_PLANNINGINUI"><path d="M795.36,917.1 C798.57,936.12 806.5,983.23 809.14,998.87 " fill="none" id="PLANNINGAPI-PLANNINGINUI" style="stroke:#181818;stroke-width:1.0;"/></g><!--link BackendPO4 to PLANNINGAPI--><g id="link_BackendPO4_PLANNINGAPI"><path d="M727.62,776.17 C738.11,796.83 772.5771,864.7613 785.3771,890.0013 " fill="none" id="BackendPO4-to-PLANNINGAPI" style="stroke:#181818;stroke-width:1.0;"/><path d="M796.0505,892.3495 A9,9 0 0 0 780.965 899.9998" fill="none" style="stroke:#181818;stroke-width:1.5;"/></g><!--link PLANNINGOutUI to BACKENDAPI--><g id="link_PLANNINGOutUI_BACKENDAPI"><path d="M783.98,1171.95 C756.1,1185.6 648.3709,1238.3519 614.3309,1255.0219 " fill="none" id="PLANNINGOutUI-to-BACKENDAPI" style="stroke:#181818;stroke-width:1.0;"/><path d="M611.8341,1265.6615 A9,9 0 0 0 604.3949 1250.4708" fill="none" style="stroke:#181818;stroke-width:1.5;"/></g><!--link BCPOutUI to BACKENDAPI--><g id="link_BCPOutUI_BACKENDAPI"><path d="M957.76,1171.42 C946.93,1175.56 923.9,1184.14 904,1190 C787.41,1224.31 652.3789,1252.5346 614.9589,1260.1546 " fill="none" id="BCPOutUI-to-BACKENDAPI" style="stroke:#181818;stroke-width:1.0;"/><path d="M609.8638,1269.8229 A9,9 0 0 0 606.4887 1253.2486" fill="none" style="stroke:#181818;stroke-width:1.5;"/></g><!--link API to SARMPI--><g id="link_API_SARMPI"><path d="M425,23.1 C425,42.12 425,89.23 425,104.87 " fill="none" id="API-SARMPI" style="stroke:#181818;stroke-width:1.0;"/></g><!--reverse link A0API to SARMPO1--><g id="link_A0API_SARMPO1"><path d="M46.5783,382.7285 C69.7983,423.2885 168.66,595.97 187.92,629.62 " fill="none" id="A0API-backto-SARMPO1" style="stroke:#181818;stroke-width:1.0;"/><path d="M35.7997,380.9232 A9,9 0 0 0 50.4789 372.5196" fill="none" style="stroke:#181818;stroke-width:1.5;"/></g><!--link SARMPI to BackendPI--><g id="link_SARMPI_BackendPI"><path d="M427.64,117.33 C432.86,128.36 444,154.63 444,178 C444,178 444,178 444,454 C444,476.29 460.83,544.6 465.7,563.88 " fill="none" id="SARMPI-BackendPI" style="stroke:#181818;stroke-width:1.0;"/></g><!--link SARMPO1 to BackendPO1--><g id="link_SARMPO1_BackendPO1"><path d="M197.12,638.64 C225.9,646.56 350,682.69 437,740 C447.41,746.85 457.37,757.59 462.79,763.9 " fill="none" id="SARMPO1-BackendPO1" style="stroke:#181818;stroke-width:1.0;"/></g><!--link SARMPO2 to BackendPO2--><g id="link_SARMPO2_BackendPO2"><path d="M1093.93,638.47 C1057.29,647.32 861.83,694.18 701,726 C665.16,733.09 654.75,728.72 620,740 C599.81,746.56 577.81,758.89 567.29,765.15 " fill="none" id="SARMPO2-BackendPO2" style="stroke:#181818;stroke-width:1.0;"/></g><!--link SARMPO2 to SMTP_Office_365--><g id="link_SARMPO2_SMTP_Office_365"><path d="M1103.15,642.01 C1115.71,661.98 1156.9083,727.4936 1172.5283,752.3436 " fill="none" id="SARMPO2-to-SMTP_Office_365" style="stroke:#181818;stroke-width:1.0;"/><path d="M1183.3721,753.7032 A9,9 0 0 0 1169.0517 762.7046" fill="none" style="stroke:#181818;stroke-width:1.5;"/></g><!--link BCP to BCP_--><g id="link_BCP_BCP_"><path d="M1434.25,281.42 C1474.8,286.88 1541.74,300.71 1588,335 C1638.21,372.21 1666,389.5 1666,452 C1666,452 1666,452 1666,1006 C1666,1037.27 1550.28,1058.9525 1414.9525,1073.6175 C1347.2888,1080.95 1274.7231,1086.5281 1209.2697,1090.6731 C1176.543,1092.7456 1145.5943,1094.4598 1117.9254,1095.8559 C1104.091,1096.554 1091.0765,1097.1725 1079.0697,1097.7165 C1076.068,1097.8525 1079.1234,1097.7194 1076.2506,1097.8461 " fill="none" id="BCP-to-BCP_" style="stroke:#181818;stroke-width:1.0;stroke-dasharray:7.0,7.0;"/><polygon fill="#181818" points="1070.2565,1098.1106,1079.424,1101.71,1075.2516,1097.8902,1079.0714,1093.7178,1070.2565,1098.1106" style="stroke:#181818;stroke-width:1.0;"/><text fill="#000000" font-family="sans-serif" font-size="13" lengthAdjust="spacing" textLength="63" x="1667" y="696.4951">&#171;manifest&#187;</text></g><!--link GDPR to GDPR_--><g id="link_GDPR_GDPR_"><path d="M1323.71,598.03 C1329.97,606.78 1337.87,615.81 1347,622 C1393.23,653.35 1434.26,611.48 1468,656 C1476.29,666.94 1458.56,1014.7 1428,1042 C1414.04,1054.47 772.25,1046.82 754,1051 C747.105,1052.58 740.125,1054.6425 733.2081,1057.0286 C731.4789,1057.6251 729.7536,1058.2419 728.0346,1058.8764 C727.1751,1059.1936 726.3172,1059.5153 725.4611,1059.8411 C725.033,1060.004 724.6055,1060.1679 724.1784,1060.3328 C723.9648,1060.4153 723.7514,1060.498 723.5381,1060.581 C723.4315,1060.6225 728.9142,1058.4824 728.8076,1058.524 " fill="none" id="GDPR-to-GDPR_" style="stroke:#181818;stroke-width:1.0;stroke-dasharray:7.0,7.0;"/><polygon fill="#181818" points="723.2183,1060.7056,733.0567,1061.1595,727.8761,1058.8876,730.1479,1053.707,723.2183,1060.7056" style="stroke:#181818;stroke-width:1.0;"/><text fill="#000000" font-family="sans-serif" font-size="13" lengthAdjust="spacing" textLength="63" x="1464" y="844.4951">&#171;manifest&#187;</text></g><!--link Backend to BEDM--><g id="link_Backend_BEDM"><path d="M1383.65,481.04 C1403.56,494.25 1424.04,512.16 1435,534.5 C1452.13,569.41 1461.38,593.43 1435,622 C1431.845,625.415 1300.845,636.5375 1142.36,648.825 C1063.1175,654.9688 977.0038,661.4038 896.5638,667.3122 C856.3438,670.2664 817.5422,673.089 781.7272,675.6777 C772.7734,676.3249 764.0063,676.9574 755.4504,677.5738 C753.3114,677.7279 751.1857,677.8809 749.0734,678.033 C748.0173,678.109 752.9492,677.7542 751.8999,677.8297 " fill="none" id="Backend-to-BEDM" style="stroke:#181818;stroke-width:1.0;stroke-dasharray:7.0,7.0;"/><polygon fill="#181818" points="745.9154,678.2602,755.1792,681.604,750.9025,677.9014,754.6051,673.6247,745.9154,678.2602" style="stroke:#181818;stroke-width:1.0;"/><text fill="#000000" font-family="sans-serif" font-size="13" lengthAdjust="spacing" textLength="63" x="1452" y="575.4951">&#171;manifest&#187;</text></g><!--link BackendNode to BENODE_--><g id="link_BackendNode_BENODE_"><path d="M1227.07,598.15 C1259.38,645.38 1314.26,743.07 1262,800 C1133.34,940.14 591.3,818.57 409,873 C402.925,874.815 396.77,877.255 390.8088,880 C387.8281,881.3725 384.8959,882.8213 382.0464,884.3063 C380.6216,885.0487 379.2175,885.8003 377.8384,886.5559 C377.666,886.6504 377.494,886.7449 377.3224,886.8395 C377.2366,886.8868 382.4022,884.0318 382.3166,884.0791 " fill="none" id="BackendNode-to-BENODE_" style="stroke:#181818;stroke-width:1.0;stroke-dasharray:7.0,7.0;"/><polygon fill="#181818" points="377.0653,886.9814,386.8772,886.1288,381.4414,884.5628,383.0074,879.127,377.0653,886.9814" style="stroke:#181818;stroke-width:1.0;"/><text fill="#000000" font-family="sans-serif" font-size="13" lengthAdjust="spacing" textLength="63" x="1283" y="696.4951">&#171;manifest&#187;</text></g><!--link Frontend to FE--><g id="link_Frontend_FE"><path d="M1350.12,305.17 C1401.36,347.49 1493.79,434.72 1524,534.5 C1535.27,571.72 1537.2,585.42 1524,622 C1495.18,701.86 1402,684.1 1402,769 C1402,769 1402,769 1402,1006 C1402,1051.74 624.36,1039.87 580,1051 C566.475,1054.395 552.5875,1059.515 539.4825,1065.2038 C532.93,1068.0481 526.5731,1071.0347 520.555,1074.0189 C519.0505,1074.765 517.5671,1075.5109 516.1072,1076.2544 C515.3772,1076.6261 514.6531,1076.9973 513.9351,1077.3675 C513.5761,1077.5527 513.2186,1077.7376 512.8627,1077.9222 C512.6848,1078.0146 512.5072,1078.1068 512.3301,1078.199 C512.2415,1078.2451 517.4737,1075.5181 517.3853,1075.5642 " fill="none" id="Frontend-to-FE" style="stroke:#181818;stroke-width:1.0;stroke-dasharray:7.0,7.0;"/><polygon fill="#181818" points="512.0646,1078.3373,521.8944,1077.7248,516.4985,1076.0264,518.1969,1070.6305,512.0646,1078.3373" style="stroke:#181818;stroke-width:1.0;"/><text fill="#000000" font-family="sans-serif" font-size="13" lengthAdjust="spacing" textLength="63" x="1504" y="696.4951">&#171;manifest&#187;</text></g><!--link Planning to PL--><g id="link_Planning_PL"><path d="M1409.64,598.19 C1417.33,607.29 1427.02,616.5 1438,622 C1469.16,637.6 1484.41,615.3 1516,630 C1550.77,646.18 1578,651.65 1578,690 C1578,690 1578,690 1578,1006 C1578,1044.58 1536.64,1033.52 1499,1042 C1437.1,1055.95 989.83,1036.75 928,1051 C921.1075,1052.5875 914.1294,1054.6556 907.2139,1057.0458 C903.7562,1058.2409 900.3141,1059.5164 896.9062,1060.8527 C896.6932,1060.9362 902.0612,1058.8166 901.8484,1058.9006 " fill="none" id="Planning-to-PL" style="stroke:#181818;stroke-width:1.0;stroke-dasharray:7.0,7.0;"/><polygon fill="#181818" points="896.2677,1061.104,906.1078,1061.5194,900.9183,1059.2678,903.1699,1054.0784,896.2677,1061.104" style="stroke:#181818;stroke-width:1.0;"/><text fill="#000000" font-family="sans-serif" font-size="13" lengthAdjust="spacing" textLength="63" x="1579" y="844.4951">&#171;manifest&#187;</text></g><!--SRC=[bLPDR-8m4BtxLrYSUWdgXdOFAnGf1BQAjeIeRCue2w6DMcm4vh2g-jztR6Vy4H9W0H4yxuqzCtuU8_YU2ax_S27uZcxgGxKMDMU4xClrU_bQqG6yn-Db_3AFeaz2uRNb7vlgG0SJO5HiGwUbAEcyPC3ULKmCQ7caY7qIvV95FC-V1yu4m8gAWsxg9CdrX4dUJNYQvY-A8NzqKkWW_oWPgzchuk60zf0nz8nlAZSNERO-u8M1q_5mY2I2tjA6AtKovNGUsxMR6BsfaxntAPay8QI6PGxRSWtR5kUfYXwUhhdGri8pgjJG8LjCPosd-2JUxWqXlc_1o_dld2wssne6e- -FYYHjAsrRWOsGDT_jEGDz01_494LbJ544e-I1BlyUHRM3aHRQdXz4pPG2vOpW1Uls0KK_93Co83y93rrywuT2lTjEgZsQDxMPnCclMJQL1LAkJjONZyjiEcyLH9VWFALccgOI7Q4ZeKdi4YEyoXXTPJnSPJnUooHqps57iJrvDXL6bVPLsPxUcQIk_g-wqZlDRk5uiJjn-2rkTkFow9LcHU_-8cTn4aKQtiGQzHJOj1aiRluSPrcQFNLLrc-YppTcX3DUoWWvAjQUK6M3Cs7AmQehHkyok7NF9TU4zwM-prHbRw7BixhwJt8l8VWKAGq2sw_m1nW3V-lzFGRypkqizk3Ge0YydkDf4_msGT0-CVPSodNjp8ZxoW7EgOFKF6qwgiVw9qEbvQ042wsYDdjeUutAq-wjAntbughJzX_bvKAUdDgr8xWjPu2N3cdk1ggprrUUXYJ9Dc732zp6svX3pnmwrhlp2r9UxyFXCD8Y-m4osvMitbP7K9agdKQribimTZtjBo-JReBgf0r9jyKMp_nJKIJeMotST0o5GnTeuVy0]--></g></svg>