<?xml version="1.0" encoding="us-ascii" standalone="no"?><svg xmlns="http://www.w3.org/2000/svg" xmlns:xlink="http://www.w3.org/1999/xlink" contentStyleType="text/css" height="814px" preserveAspectRatio="none" style="width:1131px;height:814px;background:#FFFFFF;" version="1.1" viewBox="0 0 1131 814" width="1131px" zoomAndPan="magnify"><defs/><g><!--cluster LOCALHOST--><g id="cluster_LOCALHOST"><polygon fill="none" points="16,16,26,6,347,6,347,380.5,337,390.5,16,390.5,16,16" style="stroke:#181818;stroke-width:1.0;"/><line style="stroke:#181818;stroke-width:1.0;" x1="337" x2="347" y1="16" y2="6"/><line style="stroke:#181818;stroke-width:1.0;" x1="16" x2="337" y1="16" y2="16"/><line style="stroke:#181818;stroke-width:1.0;" x1="337" x2="337" y1="16" y2="390.5"/><text fill="#000000" font-family="sans-serif" font-size="14" font-weight="bold" lengthAdjust="spacing" textLength="81" x="137" y="33.5332">localhost: ?</text></g><!--cluster BROWSER--><g id="cluster_BROWSER"><rect fill="none" height="135" rx="2.5" ry="2.5" style="stroke:#181818;stroke-width:1.0;" width="158" x="149" y="63"/><rect fill="none" height="10" style="stroke:#181818;stroke-width:1.0;" width="15" x="287" y="68"/><rect fill="none" height="2" style="stroke:#181818;stroke-width:1.0;" width="4" x="285" y="70"/><rect fill="none" height="2" style="stroke:#181818;stroke-width:1.0;" width="4" x="285" y="74"/><text fill="#000000" font-family="sans-serif" font-size="14" font-style="italic" lengthAdjust="spacing" textLength="86" x="185" y="90.5332">&#171;component&#187;</text><text fill="#000000" font-family="sans-serif" font-size="14" font-weight="bold" lengthAdjust="spacing" textLength="59" x="198.5" y="108.1426">Browser</text></g><!--cluster Server--><g id="cluster_Server"><polygon fill="none" points="387,266,397,256,660,256,660,584,650,594,387,594,387,266" style="stroke:#181818;stroke-width:1.0;"/><line style="stroke:#181818;stroke-width:1.0;" x1="650" x2="660" y1="266" y2="256"/><line style="stroke:#181818;stroke-width:1.0;" x1="387" x2="650" y1="266" y2="266"/><line style="stroke:#181818;stroke-width:1.0;" x1="650" x2="650" y1="266" y2="594"/><text fill="#000000" font-family="sans-serif" font-size="14" font-weight="bold" lengthAdjust="spacing" textLength="117" x="461" y="283.5332">Server 1: vs1422</text></g><!--cluster Server2--><g id="cluster_Server2"><polygon fill="none" points="154,466.5,164,456.5,347,456.5,347,583.5,337,593.5,154,593.5,154,466.5" style="stroke:#181818;stroke-width:1.0;"/><line style="stroke:#181818;stroke-width:1.0;" x1="337" x2="347" y1="466.5" y2="456.5"/><line style="stroke:#181818;stroke-width:1.0;" x1="154" x2="337" y1="466.5" y2="466.5"/><line style="stroke:#181818;stroke-width:1.0;" x1="337" x2="337" y1="466.5" y2="593.5"/><text fill="#000000" font-family="sans-serif" font-size="14" font-weight="bold" lengthAdjust="spacing" textLength="117" x="188" y="484.0332">Server 2: vs1372</text></g><!--cluster Server3--><g id="cluster_Server3"><polygon fill="none" points="929,266,939,256,1114,256,1114,584,1104,594,929,594,929,266" style="stroke:#181818;stroke-width:1.0;"/><line style="stroke:#181818;stroke-width:1.0;" x1="1104" x2="1114" y1="266" y2="256"/><line style="stroke:#181818;stroke-width:1.0;" x1="929" x2="1104" y1="266" y2="266"/><line style="stroke:#181818;stroke-width:1.0;" x1="1104" x2="1104" y1="266" y2="594"/><text fill="#000000" font-family="sans-serif" font-size="14" font-weight="bold" lengthAdjust="spacing" textLength="109" x="963" y="283.5332">Server 3: vs215</text></g><!--cluster Server4--><g id="cluster_Server4"><polygon fill="none" points="700,469.5,710,459.5,889,459.5,889,787.5,879,797.5,700,797.5,700,469.5" style="stroke:#181818;stroke-width:1.0;"/><line style="stroke:#181818;stroke-width:1.0;" x1="879" x2="889" y1="469.5" y2="459.5"/><line style="stroke:#181818;stroke-width:1.0;" x1="700" x2="879" y1="469.5" y2="469.5"/><line style="stroke:#181818;stroke-width:1.0;" x1="879" x2="879" y1="469.5" y2="797.5"/><text fill="#000000" font-family="sans-serif" font-size="14" font-weight="bold" lengthAdjust="spacing" textLength="109" x="736" y="487.0332">Server 4: vs227</text></g><!--cluster Server5--><g id="cluster_Server5"><polygon fill="none" points="929,670,939,660,1092,660,1092,787,1082,797,929,797,929,670" style="stroke:#181818;stroke-width:1.0;"/><line style="stroke:#181818;stroke-width:1.0;" x1="1082" x2="1092" y1="670" y2="660"/><line style="stroke:#181818;stroke-width:1.0;" x1="929" x2="1082" y1="670" y2="670"/><line style="stroke:#181818;stroke-width:1.0;" x1="1082" x2="1082" y1="670" y2="797"/><text fill="#000000" font-family="sans-serif" font-size="14" font-weight="bold" lengthAdjust="spacing" textLength="77" x="968" y="687.5332">Server 5: ?</text></g><!--entity PlanningArtifact--><g id="elem_PlanningArtifact"><rect fill="#F1F1F1" height="58.2188" rx="2.5" ry="2.5" style="stroke:#181818;stroke-width:0.5;" width="89" x="40.5" y="120.5"/><polygon fill="#F1F1F1" points="112.5,125.5,112.5,139.5,124.5,139.5,124.5,131.5,118.5,125.5,112.5,125.5" style="stroke:#181818;stroke-width:0.5;"/><line style="stroke:#181818;stroke-width:0.5;" x1="118.5" x2="118.5" y1="125.5" y2="131.5"/><line style="stroke:#181818;stroke-width:0.5;" x1="124.5" x2="118.5" y1="131.5" y2="131.5"/><text fill="#000000" font-family="sans-serif" font-size="14" font-style="italic" lengthAdjust="spacing" textLength="59" x="50.5" y="148.0332">&#171;artifact&#187;</text><text fill="#000000" font-family="sans-serif" font-size="14" lengthAdjust="spacing" textLength="55" x="52.5" y="165.6426">Planning</text></g><!--entity Planning--><g id="elem_Planning"><rect fill="#F1F1F1" height="65.2188" rx="2.5" ry="2.5" style="stroke:#181818;stroke-width:0.5;" width="126" x="40" y="301.5"/><rect fill="#F1F1F1" height="10" style="stroke:#181818;stroke-width:0.5;" width="15" x="146" y="306.5"/><rect fill="#F1F1F1" height="2" style="stroke:#181818;stroke-width:0.5;" width="4" x="144" y="308.5"/><rect fill="#F1F1F1" height="2" style="stroke:#181818;stroke-width:0.5;" width="4" x="144" y="312.5"/><text fill="#000000" font-family="sans-serif" font-size="14" font-style="italic" lengthAdjust="spacing" textLength="86" x="55" y="336.0332">&#171;component&#187;</text><text fill="#000000" font-family="sans-serif" font-size="14" lengthAdjust="spacing" textLength="55" x="70.5" y="353.6426">Planning</text></g><!--entity UI--><g id="elem_UI"><rect fill="#F1F1F1" height="65.2188" rx="2.5" ry="2.5" style="stroke:#181818;stroke-width:0.5;" width="126" x="165" y="117"/><rect fill="#F1F1F1" height="10" style="stroke:#181818;stroke-width:0.5;" width="15" x="271" y="122"/><rect fill="#F1F1F1" height="2" style="stroke:#181818;stroke-width:0.5;" width="4" x="269" y="124"/><rect fill="#F1F1F1" height="2" style="stroke:#181818;stroke-width:0.5;" width="4" x="269" y="128"/><text fill="#000000" font-family="sans-serif" font-size="14" font-style="italic" lengthAdjust="spacing" textLength="86" x="180" y="151.5332">&#171;component&#187;</text><text fill="#000000" font-family="sans-serif" font-size="14" lengthAdjust="spacing" textLength="12" x="217" y="169.1426">UI</text></g><!--entity BackendDataManagementArtifact--><g id="elem_BackendDataManagementArtifact"><rect fill="#F1F1F1" height="58.2188" rx="2.5" ry="2.5" style="stroke:#181818;stroke-width:0.5;" width="205" x="430.5" y="305"/><polygon fill="#F1F1F1" points="618.5,310,618.5,324,630.5,324,630.5,316,624.5,310,618.5,310" style="stroke:#181818;stroke-width:0.5;"/><line style="stroke:#181818;stroke-width:0.5;" x1="624.5" x2="624.5" y1="310" y2="316"/><line style="stroke:#181818;stroke-width:0.5;" x1="630.5" x2="624.5" y1="316" y2="316"/><text fill="#000000" font-family="sans-serif" font-size="14" font-style="italic" lengthAdjust="spacing" textLength="59" x="498.5" y="332.5332">&#171;artifact&#187;</text><text fill="#000000" font-family="sans-serif" font-size="14" lengthAdjust="spacing" textLength="175" x="440.5" y="350.1426">Backend Data Management</text></g><!--entity BackendDataManagement--><g id="elem_BackendDataManagement"><rect fill="#F1F1F1" height="65.2188" rx="2.5" ry="2.5" style="stroke:#181818;stroke-width:0.5;" width="215" x="420.5" y="505"/><rect fill="#F1F1F1" height="10" style="stroke:#181818;stroke-width:0.5;" width="15" x="615.5" y="510"/><rect fill="#F1F1F1" height="2" style="stroke:#181818;stroke-width:0.5;" width="4" x="613.5" y="512"/><rect fill="#F1F1F1" height="2" style="stroke:#181818;stroke-width:0.5;" width="4" x="613.5" y="516"/><text fill="#000000" font-family="sans-serif" font-size="14" font-style="italic" lengthAdjust="spacing" textLength="86" x="480" y="539.5332">&#171;component&#187;</text><text fill="#000000" font-family="sans-serif" font-size="14" lengthAdjust="spacing" textLength="175" x="435.5" y="557.1426">Backend Data Management</text></g><!--entity Database--><g id="elem_Database"><path d="M227.5,515.5 C227.5,505.5 275,505.5 275,505.5 C275,505.5 322.5,505.5 322.5,515.5 L322.5,559.7188 C322.5,569.7188 275,569.7188 275,569.7188 C275,569.7188 227.5,569.7188 227.5,559.7188 L227.5,515.5 " fill="#F1F1F1" style="stroke:#181818;stroke-width:0.5;"/><path d="M227.5,515.5 C227.5,525.5 275,525.5 275,525.5 C275,525.5 322.5,525.5 322.5,515.5 " fill="none" style="stroke:#181818;stroke-width:0.5;"/><text fill="#000000" font-family="sans-serif" font-size="14" font-style="italic" lengthAdjust="spacing" textLength="75" x="237.5" y="544.0332">&#171;database&#187;</text><text fill="#000000" font-family="sans-serif" font-size="14" lengthAdjust="spacing" textLength="36" x="257" y="561.6426">Mysql</text></g><!--entity FrontendArtifact--><g id="elem_FrontendArtifact"><rect fill="#F1F1F1" height="58.2188" rx="2.5" ry="2.5" style="stroke:#181818;stroke-width:0.5;" width="89" x="978.5" y="305"/><polygon fill="#F1F1F1" points="1050.5,310,1050.5,324,1062.5,324,1062.5,316,1056.5,310,1050.5,310" style="stroke:#181818;stroke-width:0.5;"/><line style="stroke:#181818;stroke-width:0.5;" x1="1056.5" x2="1056.5" y1="310" y2="316"/><line style="stroke:#181818;stroke-width:0.5;" x1="1062.5" x2="1056.5" y1="316" y2="316"/><text fill="#000000" font-family="sans-serif" font-size="14" font-style="italic" lengthAdjust="spacing" textLength="59" x="988.5" y="332.5332">&#171;artifact&#187;</text><text fill="#000000" font-family="sans-serif" font-size="14" lengthAdjust="spacing" textLength="58" x="989" y="350.1426">Frontend</text></g><!--entity Frontend--><g id="elem_Frontend"><rect fill="#F1F1F1" height="65.2188" rx="2.5" ry="2.5" style="stroke:#181818;stroke-width:0.5;" width="126" x="962" y="505"/><rect fill="#F1F1F1" height="10" style="stroke:#181818;stroke-width:0.5;" width="15" x="1068" y="510"/><rect fill="#F1F1F1" height="2" style="stroke:#181818;stroke-width:0.5;" width="4" x="1066" y="512"/><rect fill="#F1F1F1" height="2" style="stroke:#181818;stroke-width:0.5;" width="4" x="1066" y="516"/><text fill="#000000" font-family="sans-serif" font-size="14" font-style="italic" lengthAdjust="spacing" textLength="86" x="977" y="539.5332">&#171;component&#187;</text><text fill="#000000" font-family="sans-serif" font-size="14" lengthAdjust="spacing" textLength="58" x="991" y="557.1426">Frontend</text></g><!--entity BackendNodeArtifact--><g id="elem_BackendNodeArtifact"><rect fill="#F1F1F1" height="58.2188" rx="2.5" ry="2.5" style="stroke:#181818;stroke-width:0.5;" width="122" x="724" y="508.5"/><polygon fill="#F1F1F1" points="829,513.5,829,527.5,841,527.5,841,519.5,835,513.5,829,513.5" style="stroke:#181818;stroke-width:0.5;"/><line style="stroke:#181818;stroke-width:0.5;" x1="835" x2="835" y1="513.5" y2="519.5"/><line style="stroke:#181818;stroke-width:0.5;" x1="841" x2="835" y1="519.5" y2="519.5"/><text fill="#000000" font-family="sans-serif" font-size="14" font-style="italic" lengthAdjust="spacing" textLength="59" x="750.5" y="536.0332">&#171;artifact&#187;</text><text fill="#000000" font-family="sans-serif" font-size="14" lengthAdjust="spacing" textLength="92" x="734" y="553.6426">Backend Node</text></g><!--entity BackendNode--><g id="elem_BackendNode"><rect fill="#F1F1F1" height="65.2188" rx="2.5" ry="2.5" style="stroke:#181818;stroke-width:0.5;" width="132" x="724" y="708.5"/><rect fill="#F1F1F1" height="10" style="stroke:#181818;stroke-width:0.5;" width="15" x="836" y="713.5"/><rect fill="#F1F1F1" height="2" style="stroke:#181818;stroke-width:0.5;" width="4" x="834" y="715.5"/><rect fill="#F1F1F1" height="2" style="stroke:#181818;stroke-width:0.5;" width="4" x="834" y="719.5"/><text fill="#000000" font-family="sans-serif" font-size="14" font-style="italic" lengthAdjust="spacing" textLength="86" x="742" y="743.0332">&#171;component&#187;</text><text fill="#000000" font-family="sans-serif" font-size="14" lengthAdjust="spacing" textLength="92" x="739" y="760.6426">Backend Node</text></g><!--entity MongoDB--><g id="elem_MongoDB"><path d="M972.5,719 C972.5,709 1020,709 1020,709 C1020,709 1067.5,709 1067.5,719 L1067.5,763.2188 C1067.5,773.2188 1020,773.2188 1020,773.2188 C1020,773.2188 972.5,773.2188 972.5,763.2188 L972.5,719 " fill="#F1F1F1" style="stroke:#181818;stroke-width:0.5;"/><path d="M972.5,719 C972.5,729 1020,729 1020,729 C1020,729 1067.5,729 1067.5,719 " fill="none" style="stroke:#181818;stroke-width:0.5;"/><text fill="#000000" font-family="sans-serif" font-size="14" font-style="italic" lengthAdjust="spacing" textLength="75" x="982.5" y="747.5332">&#171;database&#187;</text><text fill="#000000" font-family="sans-serif" font-size="14" lengthAdjust="spacing" textLength="62" x="989" y="765.1426">MongoDB</text></g><!--link LOCALHOST to Server--><g id="link_LOCALHOST_Server"><path d="M347.0643,176.779 C347.1414,177.0302 347.2189,177.2829 347.2968,177.5368 C347.6085,178.5527 347.9269,179.59 348.2514,180.6477 C353.4441,197.5697 360.2281,219.6781 367.0113,241.7838 C373.7944,263.8894 380.5766,285.9922 385.7655,302.903 C386.0898,303.9599 386.4079,304.9965 386.7193,306.0116 C386.7972,306.2654 386.8747,306.5178 386.9517,306.7689 " fill="none" id="LOCALHOST-Server" style="stroke:#181818;stroke-width:1.0;"/><text fill="#000000" font-family="sans-serif" font-size="13" lengthAdjust="spacing" textLength="33" x="365" y="228.4951">http/s</text></g><!--link LOCALHOST to Server3--><g id="link_LOCALHOST_Server3"><path d="M347.0911,150.8083 C348.0457,150.8468 349.0799,150.889 350.1914,150.9351 C352.4142,151.0273 354.9457,151.1347 357.7656,151.2581 C369.0452,151.7517 384.9381,152.5006 404.1419,153.5481 C442.5494,155.6431 494.2,158.9325 548.6725,163.7625 C657.6175,173.4225 777.85,189.245 826,214 C857.66,230.275 885.045,259.3575 904.6938,284.6975 C914.5181,297.3675 922.4084,309.1019 927.932,317.8319 C928.2773,318.3775 928.6132,318.9114 928.9399,319.433 " fill="none" id="LOCALHOST-Server3" style="stroke:#181818;stroke-width:1.0;"/><text fill="#000000" font-family="sans-serif" font-size="13" lengthAdjust="spacing" textLength="33" x="852" y="228.4951">http/s</text></g><!--link LOCALHOST to Server4--><g id="link_LOCALHOST_Server4"><path d="M347.0518,151.426 C347.7019,151.5058 348.389,151.5911 349.1121,151.6819 C354.8968,152.4083 362.9888,153.4906 372.9283,154.9894 C392.8072,157.9869 420.0756,162.65 451.0538,169.4625 C513.01,183.0875 589.805,205.31 652,240 C767.54,304.44 812.96,322.11 872,440.5 C874.3163,445.1438 876.2034,450.0706 877.7315,455.1439 C878.1135,456.4123 878.4731,457.6898 878.8113,458.9743 C878.8536,459.1348 878.8956,459.2955 878.9372,459.4563 " fill="none" id="LOCALHOST-Server4" style="stroke:#181818;stroke-width:1.0;"/><text fill="#000000" font-family="sans-serif" font-size="13" lengthAdjust="spacing" textLength="33" x="853" y="339.4951">http/s</text></g><!--link Server to Server2--><g id="link_Server_Server2"><path d="M386.9632,347.7449 C386.903,347.8347 386.8424,347.9248 386.7815,348.0153 C386.6597,348.1963 386.5367,348.3786 386.4124,348.5624 C385.4185,350.0323 384.3464,351.5894 383.2005,353.217 C380.9087,356.4722 378.3216,360.0094 375.4738,363.695 C364.0825,378.4375 348.52,395.555 331,406.5 C283.99,435.87 248.58,399.75 211,440.5 C207.3713,444.4338 204.3478,448.853 201.8357,453.5786 C201.5216,454.1693 201.2156,454.7648 200.9174,455.3647 C200.7683,455.6647 200.6211,455.9658 200.4759,456.2679 " fill="none" id="Server-Server2" style="stroke:#181818;stroke-width:1.0;"/><text fill="#000000" font-family="sans-serif" font-size="13" lengthAdjust="spacing" textLength="41" x="313" y="428.9951">TCP/IP</text></g><!--link Server to Server4--><g id="link_Server_Server4"><path d="M660.2503,415.5906 C660.3871,415.6106 660.5234,415.6307 660.6594,415.6509 C661.2033,415.7314 661.7408,415.8128 662.2723,415.8948 C663.3354,416.0588 664.3741,416.2257 665.3905,416.3952 C669.456,417.0732 673.1632,417.7934 676.6314,418.543 C683.5678,420.0422 689.5481,421.6594 695.5263,423.2938 C707.4825,426.5625 719.43,429.9 739,432.5 C753.68,434.45 861.36,430.21 872,440.5 C875.79,444.1663 878.7836,448.3837 881.1194,452.9613 C881.7033,454.1057 882.2462,455.2726 882.7501,456.459 C883.002,457.0522 883.2442,457.6503 883.477,458.2529 C883.5933,458.5542 883.7074,458.8567 883.819,459.1602 " fill="none" id="Server-Server4" style="stroke:#181818;stroke-width:1.0;"/><text fill="#000000" font-family="sans-serif" font-size="13" lengthAdjust="spacing" textLength="33" x="740" y="428.9951">http/s</text></g><!--link Server4 to Server5--><g id="link_Server4_Server5"><path d="M889.0643,567.5168 C889.1414,567.7941 889.2189,568.073 889.2968,568.3534 C889.6085,569.4749 889.9269,570.6202 890.2514,571.7878 C895.4441,590.47 902.2281,614.8788 909.0113,639.285 C915.7944,663.6913 922.5766,688.095 927.7655,706.7672 C928.0898,707.9342 928.4079,709.0788 928.7193,710.1997 C928.7972,710.4799 928.8747,710.7586 928.9517,711.0358 " fill="none" id="Server4-Server5" style="stroke:#181818;stroke-width:1.0;"/><text fill="#000000" font-family="sans-serif" font-size="13" lengthAdjust="spacing" textLength="41" x="908" y="632.4951">TCP/IP</text></g><!--link BackendNodeArtifact to BackendNode--><g id="link_BackendNodeArtifact_BackendNode"><path d="M785.7,566.52 C786.62,603.72 788.0908,663.2419 789.0608,702.2419 " fill="none" id="BackendNodeArtifact-to-BackendNode" style="stroke:#181818;stroke-width:1.0;stroke-dasharray:7.0,7.0;"/><polygon fill="#181818" points="789.21,708.24,792.985,699.1433,789.0857,703.2415,784.9875,699.3422,789.21,708.24" style="stroke:#181818;stroke-width:1.0;"/><text fill="#000000" font-family="sans-serif" font-size="13" lengthAdjust="spacing" textLength="63" x="788" y="632.4951">&#171;manifest&#187;</text></g><!--link BackendDataManagementArtifact to BackendDataManagement--><g id="link_BackendDataManagementArtifact_BackendDataManagement"><path d="M532.3,363.02 C531.38,400.22 529.9092,459.7419 528.9392,498.7419 " fill="none" id="BackendDataManagementArtifact-to-BackendDataManagement" style="stroke:#181818;stroke-width:1.0;stroke-dasharray:7.0,7.0;"/><polygon fill="#181818" points="528.79,504.74,533.0125,495.8422,528.9143,499.7415,525.015,495.6433,528.79,504.74" style="stroke:#181818;stroke-width:1.0;"/><text fill="#000000" font-family="sans-serif" font-size="13" lengthAdjust="spacing" textLength="63" x="531" y="428.9951">&#171;manifest&#187;</text></g><!--link FrontendArtifact to Frontend--><g id="link_FrontendArtifact_Frontend"><path d="M1023.28,363.02 C1023.65,400.22 1024.2415,459.7403 1024.6215,498.7403 " fill="none" id="FrontendArtifact-to-Frontend" style="stroke:#181818;stroke-width:1.0;stroke-dasharray:7.0,7.0;"/><polygon fill="#181818" points="1024.68,504.74,1028.5921,495.7015,1024.6313,499.7402,1020.5925,495.7794,1024.68,504.74" style="stroke:#181818;stroke-width:1.0;"/><text fill="#000000" font-family="sans-serif" font-size="13" lengthAdjust="spacing" textLength="63" x="1024" y="428.9951">&#171;manifest&#187;</text></g><!--link PlanningArtifact to Planning--><g id="link_PlanningArtifact_Planning"><path d="M87.77,178.62 C91.05,211.81 95.8917,260.8989 99.3017,295.5089 " fill="none" id="PlanningArtifact-to-Planning" style="stroke:#181818;stroke-width:1.0;stroke-dasharray:7.0,7.0;"/><polygon fill="#181818" points="99.89,301.48,102.9883,292.1312,99.3997,296.5041,95.0268,292.9156,99.89,301.48" style="stroke:#181818;stroke-width:1.0;"/><text fill="#000000" font-family="sans-serif" font-size="13" lengthAdjust="spacing" textLength="63" x="94" y="228.4951">&#171;manifest&#187;</text></g><!--SRC=[bLJhQy8m4F_Ul-Bmkufz89IYMDsOe5DyiC-nZLhM9gu9ZZ7ytvT6qxUbenHw_Jsukzo5qmjm2WVAEOt03sBiyO0I3JH2VGoTa7eeF5F6RHXt035OhAQJnTjgkuDV3G35F3WYZqDd7I920dAI91LC5EmuYZaQIU5Dl1wDBfHWyamjL2abbHLrRao_6OwbpDsiFhOlcufAA0gQ_LpIz_CYKxhVqiAtEBxY60OsNDd0r7MfUVmiLkuYxnCJ7sQ88rWYWauu4extdEvO0cL8KrTAvVtNkhPbbQ9qMPGnp1UbIx8lt0w82UhoXts54f-fVuwZu9nrqTb8dFM1bJCsIkrwZIdX8d59KK7hGQbLjwlQbBdfmrnkvfEZV1UwV9EJk7MAJIRjChNKijrZgtmqb9pep9MCn_UJim7nP0lRxQe1jk7C-QNFwa2Z4JKp5BI7Mmhg0jnDr_tvkWBLwCmCjJ9Xad9TrtkzKQ6HjYWvGYGuOfOiR_EYvSIbVIdPLEOnKQPZLY9NRhc4d5vU9JBy0G00]--></g></svg>