<?xml version="1.0" encoding="us-ascii" standalone="no"?><svg xmlns="http://www.w3.org/2000/svg" xmlns:xlink="http://www.w3.org/1999/xlink" contentStyleType="text/css" height="1033px" preserveAspectRatio="none" style="width:1852px;height:1033px;background:#FFFFFF;" version="1.1" viewBox="0 0 1852 1033" width="1852px" zoomAndPan="magnify"><defs/><g><rect fill="#ADD8E6" height="1014.3125" style="stroke:#181818;stroke-width:0.5;" width="746" x="163.5" y="6"/><text fill="#000000" font-family="sans-serif" font-size="13" font-weight="bold" lengthAdjust="spacing" textLength="85" x="494" y="19.4951">&#171;system (C4)&#187;</text><text fill="#000000" font-family="sans-serif" font-size="13" font-weight="bold" lengthAdjust="spacing" textLength="57" x="508" y="35.8467">Frontend</text><rect fill="#DDDDDD" height="1014.3125" style="stroke:#181818;stroke-width:0.5;" width="918.5" x="928" y="6"/><text fill="#000000" font-family="sans-serif" font-size="13" font-weight="bold" lengthAdjust="spacing" textLength="85" x="1344.75" y="19.4951">&#171;system (C4)&#187;</text><text fill="#000000" font-family="sans-serif" font-size="13" font-weight="bold" lengthAdjust="spacing" textLength="175" x="1299.75" y="35.8467">Backend Data Management</text><rect fill="#FFFFFF" height="784.1719" style="stroke:#181818;stroke-width:1.0;" width="10" x="22.5" y="133.9219"/><rect fill="#FFFFFF" height="30.3516" style="stroke:#181818;stroke-width:1.0;" width="10" x="228.5" y="156.2734"/><rect fill="#FFFFFF" height="701.1172" style="stroke:#181818;stroke-width:1.0;" width="10" x="228.5" y="216.9766"/><rect fill="#FFFFFF" height="640.4141" style="stroke:#181818;stroke-width:1.0;" width="10" x="376.5" y="247.3281"/><rect fill="#FFFFFF" height="519.4922" style="stroke:#181818;stroke-width:1.0;" width="10" x="660.5" y="337.8984"/><rect fill="#FFFFFF" height="458.7891" style="stroke:#181818;stroke-width:1.0;" width="10" x="834.5" y="368.25"/><rect fill="#FFFFFF" height="398.0859" style="stroke:#181818;stroke-width:1.0;" width="10" x="1011.5" y="398.6016"/><rect fill="#FFFFFF" height="337.3828" style="stroke:#181818;stroke-width:1.0;" width="10" x="1236.5" y="428.9531"/><rect fill="#FFFFFF" height="50.2188" style="stroke:#181818;stroke-width:1.0;" width="10" x="1606.5" y="685.7656"/><rect fill="#FFFFFF" height="30.3516" style="stroke:#181818;stroke-width:1.0;" width="10" x="1757.5" y="459.3047"/><rect fill="none" height="48.7031" style="stroke:#000000;stroke-width:1.5;" width="392.5" x="1158" y="504.6563"/><rect fill="none" height="48.7031" style="stroke:#000000;stroke-width:1.5;" width="392.5" x="1158" y="567.3594"/><line style="stroke:#181818;stroke-width:0.5;stroke-dasharray:5.0,5.0;" x1="27" x2="27" y1="123.9219" y2="936.0938"/><line style="stroke:#181818;stroke-width:0.5;stroke-dasharray:5.0,5.0;" x1="233.5" x2="233.5" y1="123.9219" y2="936.0938"/><line style="stroke:#181818;stroke-width:0.5;stroke-dasharray:5.0,5.0;" x1="381.5" x2="381.5" y1="123.9219" y2="936.0938"/><line style="stroke:#181818;stroke-width:0.5;stroke-dasharray:5.0,5.0;" x1="523.5" x2="523.5" y1="295.4375" y2="936.0938"/><line style="stroke:#181818;stroke-width:0.5;stroke-dasharray:5.0,5.0;" x1="665.5" x2="665.5" y1="123.9219" y2="936.0938"/><line style="stroke:#181818;stroke-width:0.5;stroke-dasharray:5.0,5.0;" x1="839.5" x2="839.5" y1="123.9219" y2="936.0938"/><line style="stroke:#181818;stroke-width:0.5;stroke-dasharray:5.0,5.0;" x1="1016" x2="1016" y1="123.9219" y2="936.0938"/><line style="stroke:#181818;stroke-width:0.5;stroke-dasharray:5.0,5.0;" x1="1241" x2="1241" y1="123.9219" y2="936.0938"/><line style="stroke:#181818;stroke-width:0.5;stroke-dasharray:5.0,5.0;" x1="1490.5" x2="1490.5" y1="123.9219" y2="936.0938"/><line style="stroke:#181818;stroke-width:0.5;stroke-dasharray:5.0,5.0;" x1="1611.5" x2="1611.5" y1="693.5234" y2="936.0938"/><line style="stroke:#181818;stroke-width:0.5;stroke-dasharray:5.0,5.0;" x1="1762.5" x2="1762.5" y1="123.9219" y2="936.0938"/><text fill="#000000" font-family="sans-serif" font-size="14" lengthAdjust="spacing" textLength="39" x="5" y="120.8457">Admin</text><ellipse cx="27.5" cy="54.8125" fill="#E2E2F0" rx="8" ry="8" style="stroke:#181818;stroke-width:0.5;"/><path d="M27.5,62.8125 L27.5,89.8125 M14.5,70.8125 L40.5,70.8125 M27.5,89.8125 L14.5,104.8125 M27.5,89.8125 L40.5,104.8125 " fill="none" style="stroke:#181818;stroke-width:0.5;"/><text fill="#000000" font-family="sans-serif" font-size="14" lengthAdjust="spacing" textLength="39" x="5" y="949.627">Admin</text><ellipse cx="27.5" cy="961.2031" fill="#E2E2F0" rx="8" ry="8" style="stroke:#181818;stroke-width:0.5;"/><path d="M27.5,969.2031 L27.5,996.2031 M14.5,977.2031 L40.5,977.2031 M27.5,996.2031 L14.5,1011.2031 M27.5,996.2031 L40.5,1011.2031 " fill="none" style="stroke:#181818;stroke-width:0.5;"/><rect fill="#E2E2F0" height="49.2188" rx="2.5" ry="2.5" style="stroke:#181818;stroke-width:0.5;" width="132" x="167.5" y="73.7031"/><text fill="#000000" font-family="sans-serif" font-size="14" font-style="italic" lengthAdjust="spacing" textLength="118" x="174.5" y="95.2363">&#171;component (C4)&#187;</text><text fill="#000000" font-family="sans-serif" font-size="14" lengthAdjust="spacing" textLength="89" x="189" y="112.8457">UI Component</text><rect fill="#E2E2F0" height="49.2188" rx="2.5" ry="2.5" style="stroke:#181818;stroke-width:0.5;" width="132" x="167.5" y="935.0938"/><text fill="#000000" font-family="sans-serif" font-size="14" font-style="italic" lengthAdjust="spacing" textLength="118" x="174.5" y="956.627">&#171;component (C4)&#187;</text><text fill="#000000" font-family="sans-serif" font-size="14" lengthAdjust="spacing" textLength="89" x="189" y="974.2363">UI Component</text><rect fill="#E2E2F0" height="49.2188" rx="2.5" ry="2.5" style="stroke:#181818;stroke-width:0.5;" width="132" x="315.5" y="73.7031"/><text fill="#000000" font-family="sans-serif" font-size="14" font-style="italic" lengthAdjust="spacing" textLength="118" x="322.5" y="95.2363">&#171;component (C4)&#187;</text><text fill="#000000" font-family="sans-serif" font-size="14" lengthAdjust="spacing" textLength="73" x="345" y="112.8457">Component</text><rect fill="#E2E2F0" height="49.2188" rx="2.5" ry="2.5" style="stroke:#181818;stroke-width:0.5;" width="132" x="315.5" y="935.0938"/><text fill="#000000" font-family="sans-serif" font-size="14" font-style="italic" lengthAdjust="spacing" textLength="118" x="322.5" y="956.627">&#171;component (C4)&#187;</text><text fill="#000000" font-family="sans-serif" font-size="14" lengthAdjust="spacing" textLength="73" x="345" y="974.2363">Component</text><rect fill="#E2E2F0" height="49.2188" rx="2.5" ry="2.5" style="stroke:#181818;stroke-width:0.5;" width="132" x="457.5" y="935.0938"/><text fill="#000000" font-family="sans-serif" font-size="14" font-style="italic" lengthAdjust="spacing" textLength="118" x="464.5" y="956.627">&#171;component (C4)&#187;</text><text fill="#000000" font-family="sans-serif" font-size="14" lengthAdjust="spacing" textLength="38" x="504.5" y="974.2363">Model</text><rect fill="#E2E2F0" height="49.2188" rx="2.5" ry="2.5" style="stroke:#181818;stroke-width:0.5;" width="132" x="599.5" y="73.7031"/><text fill="#000000" font-family="sans-serif" font-size="14" font-style="italic" lengthAdjust="spacing" textLength="118" x="606.5" y="95.2363">&#171;component (C4)&#187;</text><text fill="#000000" font-family="sans-serif" font-size="14" lengthAdjust="spacing" textLength="47" x="642" y="112.8457">Service</text><rect fill="#E2E2F0" height="49.2188" rx="2.5" ry="2.5" style="stroke:#181818;stroke-width:0.5;" width="132" x="599.5" y="935.0938"/><text fill="#000000" font-family="sans-serif" font-size="14" font-style="italic" lengthAdjust="spacing" textLength="118" x="606.5" y="956.627">&#171;component (C4)&#187;</text><text fill="#000000" font-family="sans-serif" font-size="14" lengthAdjust="spacing" textLength="47" x="642" y="974.2363">Service</text><rect fill="#E2E2F0" height="49.2188" rx="2.5" ry="2.5" style="stroke:#181818;stroke-width:0.5;" width="132" x="773.5" y="73.7031"/><text fill="#000000" font-family="sans-serif" font-size="14" font-style="italic" lengthAdjust="spacing" textLength="118" x="780.5" y="95.2363">&#171;component (C4)&#187;</text><text fill="#000000" font-family="sans-serif" font-size="14" lengthAdjust="spacing" textLength="36" x="821.5" y="112.8457">HTTP</text><rect fill="#E2E2F0" height="49.2188" rx="2.5" ry="2.5" style="stroke:#181818;stroke-width:0.5;" width="132" x="773.5" y="935.0938"/><text fill="#000000" font-family="sans-serif" font-size="14" font-style="italic" lengthAdjust="spacing" textLength="118" x="780.5" y="956.627">&#171;component (C4)&#187;</text><text fill="#000000" font-family="sans-serif" font-size="14" lengthAdjust="spacing" textLength="36" x="821.5" y="974.2363">HTTP</text><rect fill="#E2E2F0" height="49.2188" rx="2.5" ry="2.5" style="stroke:#181818;stroke-width:0.5;" width="169" x="932" y="73.7031"/><text fill="#000000" font-family="sans-serif" font-size="14" font-style="italic" lengthAdjust="spacing" textLength="78" x="977.5" y="95.2363">&#171;Controller&#187;</text><text fill="#000000" font-family="sans-serif" font-size="14" lengthAdjust="spacing" textLength="155" x="939" y="112.8457">SpecializationsController</text><rect fill="#E2E2F0" height="49.2188" rx="2.5" ry="2.5" style="stroke:#181818;stroke-width:0.5;" width="169" x="932" y="935.0938"/><text fill="#000000" font-family="sans-serif" font-size="14" font-style="italic" lengthAdjust="spacing" textLength="78" x="977.5" y="956.627">&#171;Controller&#187;</text><text fill="#000000" font-family="sans-serif" font-size="14" lengthAdjust="spacing" textLength="155" x="939" y="974.2363">SpecializationsController</text><rect fill="#E2E2F0" height="49.2188" rx="2.5" ry="2.5" style="stroke:#181818;stroke-width:0.5;" width="147" x="1168" y="73.7031"/><text fill="#000000" font-family="sans-serif" font-size="14" font-style="italic" lengthAdjust="spacing" textLength="62" x="1210.5" y="95.2363">&#171;Service&#187;</text><text fill="#000000" font-family="sans-serif" font-size="14" lengthAdjust="spacing" textLength="133" x="1175" y="112.8457">SpecializationService</text><rect fill="#E2E2F0" height="49.2188" rx="2.5" ry="2.5" style="stroke:#181818;stroke-width:0.5;" width="147" x="1168" y="935.0938"/><text fill="#000000" font-family="sans-serif" font-size="14" font-style="italic" lengthAdjust="spacing" textLength="62" x="1210.5" y="956.627">&#171;Service&#187;</text><text fill="#000000" font-family="sans-serif" font-size="14" lengthAdjust="spacing" textLength="133" x="1175" y="974.2363">SpecializationService</text><rect fill="#E2E2F0" height="49.2188" rx="2.5" ry="2.5" style="stroke:#181818;stroke-width:0.5;" width="100" x="1440.5" y="73.7031"/><text fill="#000000" font-family="sans-serif" font-size="14" font-style="italic" lengthAdjust="spacing" textLength="64" x="1458.5" y="95.2363">&#171;Domain&#187;</text><text fill="#000000" font-family="sans-serif" font-size="14" lengthAdjust="spacing" textLength="86" x="1447.5" y="112.8457">Specialization</text><rect fill="#E2E2F0" height="49.2188" rx="2.5" ry="2.5" style="stroke:#181818;stroke-width:0.5;" width="100" x="1440.5" y="935.0938"/><text fill="#000000" font-family="sans-serif" font-size="14" font-style="italic" lengthAdjust="spacing" textLength="64" x="1458.5" y="956.627">&#171;Domain&#187;</text><text fill="#000000" font-family="sans-serif" font-size="14" lengthAdjust="spacing" textLength="86" x="1447.5" y="974.2363">Specialization</text><rect fill="#E2E2F0" height="49.2188" rx="2.5" ry="2.5" style="stroke:#181818;stroke-width:0.5;" width="122" x="1550.5" y="935.0938"/><text fill="#000000" font-family="sans-serif" font-size="14" font-style="italic" lengthAdjust="spacing" textLength="64" x="1579.5" y="956.627">&#171;Domain&#187;</text><text fill="#000000" font-family="sans-serif" font-size="14" lengthAdjust="spacing" textLength="108" x="1557.5" y="974.2363">SpecializationDto</text><text fill="#000000" font-family="sans-serif" font-size="14" font-style="italic" lengthAdjust="spacing" textLength="64" x="1727.5" y="103.2363">&#171;Domain&#187;</text><text fill="#000000" font-family="sans-serif" font-size="14" lengthAdjust="spacing" textLength="154" x="1682.5" y="120.8457">SpecializationRepository</text><path d="M1744.5,52.7031 C1744.5,42.7031 1762.5,42.7031 1762.5,42.7031 C1762.5,42.7031 1780.5,42.7031 1780.5,52.7031 L1780.5,78.7031 C1780.5,88.7031 1762.5,88.7031 1762.5,88.7031 C1762.5,88.7031 1744.5,88.7031 1744.5,78.7031 L1744.5,52.7031 " fill="#E2E2F0" style="stroke:#181818;stroke-width:1.5;"/><path d="M1744.5,52.7031 C1744.5,62.7031 1762.5,62.7031 1762.5,62.7031 C1762.5,62.7031 1780.5,62.7031 1780.5,52.7031 " fill="none" style="stroke:#181818;stroke-width:1.5;"/><text fill="#000000" font-family="sans-serif" font-size="14" font-style="italic" lengthAdjust="spacing" textLength="64" x="1727.5" y="949.627">&#171;Domain&#187;</text><text fill="#000000" font-family="sans-serif" font-size="14" lengthAdjust="spacing" textLength="154" x="1682.5" y="967.2363">SpecializationRepository</text><path d="M1744.5,980.3125 C1744.5,970.3125 1762.5,970.3125 1762.5,970.3125 C1762.5,970.3125 1780.5,970.3125 1780.5,980.3125 L1780.5,1006.3125 C1780.5,1016.3125 1762.5,1016.3125 1762.5,1016.3125 C1762.5,1016.3125 1744.5,1016.3125 1744.5,1006.3125 L1744.5,980.3125 " fill="#E2E2F0" style="stroke:#181818;stroke-width:1.5;"/><path d="M1744.5,980.3125 C1744.5,990.3125 1762.5,990.3125 1762.5,990.3125 C1762.5,990.3125 1780.5,990.3125 1780.5,980.3125 " fill="none" style="stroke:#181818;stroke-width:1.5;"/><rect fill="#FFFFFF" height="784.1719" style="stroke:#181818;stroke-width:1.0;" width="10" x="22.5" y="133.9219"/><rect fill="#FFFFFF" height="30.3516" style="stroke:#181818;stroke-width:1.0;" width="10" x="228.5" y="156.2734"/><rect fill="#FFFFFF" height="701.1172" style="stroke:#181818;stroke-width:1.0;" width="10" x="228.5" y="216.9766"/><rect fill="#FFFFFF" height="640.4141" style="stroke:#181818;stroke-width:1.0;" width="10" x="376.5" y="247.3281"/><rect fill="#FFFFFF" height="519.4922" style="stroke:#181818;stroke-width:1.0;" width="10" x="660.5" y="337.8984"/><rect fill="#FFFFFF" height="458.7891" style="stroke:#181818;stroke-width:1.0;" width="10" x="834.5" y="368.25"/><rect fill="#FFFFFF" height="398.0859" style="stroke:#181818;stroke-width:1.0;" width="10" x="1011.5" y="398.6016"/><rect fill="#FFFFFF" height="337.3828" style="stroke:#181818;stroke-width:1.0;" width="10" x="1236.5" y="428.9531"/><rect fill="#FFFFFF" height="50.2188" style="stroke:#181818;stroke-width:1.0;" width="10" x="1606.5" y="685.7656"/><rect fill="#FFFFFF" height="30.3516" style="stroke:#181818;stroke-width:1.0;" width="10" x="1757.5" y="459.3047"/><polygon fill="#181818" points="216.5,152.2734,226.5,156.2734,216.5,160.2734,220.5,156.2734" style="stroke:#181818;stroke-width:1.0;"/><line style="stroke:#181818;stroke-width:1.0;" x1="32.5" x2="222.5" y1="156.2734" y2="156.2734"/><text fill="#000000" font-family="sans-serif" font-size="13" font-weight="bold" lengthAdjust="spacing" textLength="7" x="42" y="151.417">1</text><text fill="#000000" font-family="sans-serif" font-size="13" lengthAdjust="spacing" textLength="166" x="53" y="151.417">Asks to edit a Specialization</text><polygon fill="#181818" points="43.5,182.625,33.5,186.625,43.5,190.625,39.5,186.625" style="stroke:#181818;stroke-width:1.0;"/><line style="stroke:#181818;stroke-width:1.0;stroke-dasharray:2.0,2.0;" x1="37.5" x2="232.5" y1="186.625" y2="186.625"/><text fill="#000000" font-family="sans-serif" font-size="13" font-weight="bold" lengthAdjust="spacing" textLength="7" x="74.5" y="181.7686">2</text><text fill="#000000" font-family="sans-serif" font-size="13" lengthAdjust="spacing" textLength="106" x="85.5" y="181.7686">Asks to input data</text><polygon fill="#181818" points="216.5,212.9766,226.5,216.9766,216.5,220.9766,220.5,216.9766" style="stroke:#181818;stroke-width:1.0;"/><line style="stroke:#181818;stroke-width:1.0;" x1="32.5" x2="222.5" y1="216.9766" y2="216.9766"/><text fill="#000000" font-family="sans-serif" font-size="13" font-weight="bold" lengthAdjust="spacing" textLength="7" x="93" y="212.1201">3</text><text fill="#000000" font-family="sans-serif" font-size="13" lengthAdjust="spacing" textLength="64" x="104" y="212.1201">Inputs data</text><polygon fill="#181818" points="364.5,243.3281,374.5,247.3281,364.5,251.3281,368.5,247.3281" style="stroke:#181818;stroke-width:1.0;"/><line style="stroke:#181818;stroke-width:1.0;" x1="238.5" x2="370.5" y1="247.3281" y2="247.3281"/><text fill="#000000" font-family="sans-serif" font-size="13" font-weight="bold" lengthAdjust="spacing" textLength="7" x="248" y="242.4717">4</text><text fill="#000000" font-family="sans-serif" font-size="13" lengthAdjust="spacing" textLength="108" x="259" y="242.4717">Edit Specialization</text><polygon fill="#181818" points="445.5,273.6797,455.5,277.6797,445.5,281.6797,449.5,277.6797" style="stroke:#181818;stroke-width:1.0;"/><line style="stroke:#181818;stroke-width:1.0;" x1="386.5" x2="451.5" y1="277.6797" y2="277.6797"/><text fill="#000000" font-family="sans-serif" font-size="13" font-weight="bold" lengthAdjust="spacing" textLength="7" x="398.5" y="272.8232">5</text><text fill="#000000" font-family="sans-serif" font-size="13" lengthAdjust="spacing" textLength="36" x="409.5" y="272.8232">create</text><rect fill="#E2E2F0" height="49.2188" rx="2.5" ry="2.5" style="stroke:#181818;stroke-width:0.5;" width="132" x="457.5" y="255.3281"/><text fill="#000000" font-family="sans-serif" font-size="14" font-style="italic" lengthAdjust="spacing" textLength="118" x="464.5" y="276.8613">&#171;component (C4)&#187;</text><text fill="#000000" font-family="sans-serif" font-size="14" lengthAdjust="spacing" textLength="38" x="504.5" y="294.4707">Model</text><polygon fill="#181818" points="648.5,333.8984,658.5,337.8984,648.5,341.8984,652.5,337.8984" style="stroke:#181818;stroke-width:1.0;"/><line style="stroke:#181818;stroke-width:1.0;" x1="386.5" x2="654.5" y1="337.8984" y2="337.8984"/><text fill="#000000" font-family="sans-serif" font-size="13" font-weight="bold" lengthAdjust="spacing" textLength="7" x="464" y="333.042">6</text><text fill="#000000" font-family="sans-serif" font-size="13" lengthAdjust="spacing" textLength="108" x="475" y="333.042">Edit Specialization</text><polygon fill="#181818" points="822.5,364.25,832.5,368.25,822.5,372.25,826.5,368.25" style="stroke:#181818;stroke-width:1.0;"/><line style="stroke:#181818;stroke-width:1.0;" x1="670.5" x2="828.5" y1="368.25" y2="368.25"/><text fill="#000000" font-family="sans-serif" font-size="13" font-weight="bold" lengthAdjust="spacing" textLength="7" x="680" y="363.3936">7</text><text fill="#000000" font-family="sans-serif" font-size="13" lengthAdjust="spacing" textLength="134" x="691" y="363.3936">patch('/specializations')</text><polygon fill="#181818" points="999.5,394.6016,1009.5,398.6016,999.5,402.6016,1003.5,398.6016" style="stroke:#181818;stroke-width:1.0;"/><line style="stroke:#181818;stroke-width:1.0;" x1="844.5" x2="1005.5" y1="398.6016" y2="398.6016"/><text fill="#000000" font-family="sans-serif" font-size="13" font-weight="bold" lengthAdjust="spacing" textLength="7" x="854" y="393.7451">8</text><text fill="#000000" font-family="sans-serif" font-size="13" lengthAdjust="spacing" textLength="137" x="865" y="393.7451">PATCH /specializations</text><polygon fill="#181818" points="1224.5,424.9531,1234.5,428.9531,1224.5,432.9531,1228.5,428.9531" style="stroke:#181818;stroke-width:1.0;"/><line style="stroke:#181818;stroke-width:1.0;" x1="1021.5" x2="1230.5" y1="428.9531" y2="428.9531"/><text fill="#000000" font-family="sans-serif" font-size="13" font-weight="bold" lengthAdjust="spacing" textLength="7" x="1031" y="424.0967">9</text><text fill="#000000" font-family="sans-serif" font-size="13" lengthAdjust="spacing" textLength="185" x="1042" y="424.0967">EditSpecializationAsync(id, dto)</text><polygon fill="#181818" points="1745.5,455.3047,1755.5,459.3047,1745.5,463.3047,1749.5,459.3047" style="stroke:#181818;stroke-width:1.0;"/><line style="stroke:#181818;stroke-width:1.0;" x1="1246.5" x2="1751.5" y1="459.3047" y2="459.3047"/><text fill="#000000" font-family="sans-serif" font-size="13" font-weight="bold" lengthAdjust="spacing" textLength="14" x="1442" y="454.4482">10</text><text fill="#000000" font-family="sans-serif" font-size="13" lengthAdjust="spacing" textLength="102" x="1460" y="454.4482">GetByIdAsync(id)</text><polygon fill="#181818" points="1257.5,485.6563,1247.5,489.6563,1257.5,493.6563,1253.5,489.6563" style="stroke:#181818;stroke-width:1.0;"/><line style="stroke:#181818;stroke-width:1.0;stroke-dasharray:2.0,2.0;" x1="1251.5" x2="1761.5" y1="489.6563" y2="489.6563"/><text fill="#000000" font-family="sans-serif" font-size="13" font-weight="bold" lengthAdjust="spacing" textLength="14" x="1456" y="484.7998">11</text><text fill="#000000" font-family="sans-serif" font-size="13" lengthAdjust="spacing" textLength="79" x="1474" y="484.7998">specialization</text><path d="M1158,504.6563 L1219,504.6563 L1219,513.0078 L1209,523.0078 L1158,523.0078 L1158,504.6563 " fill="#EEEEEE" style="stroke:#000000;stroke-width:1.5;"/><rect fill="none" height="48.7031" style="stroke:#000000;stroke-width:1.5;" width="392.5" x="1158" y="504.6563"/><text fill="#000000" font-family="sans-serif" font-size="13" font-weight="bold" lengthAdjust="spacing" textLength="16" x="1173" y="519.1514">alt</text><text fill="#000000" font-family="sans-serif" font-size="11" font-weight="bold" lengthAdjust="spacing" textLength="95" x="1234" y="518.0752">[dto.name != null]</text><polygon fill="#181818" points="1478.5,541.3594,1488.5,545.3594,1478.5,549.3594,1482.5,545.3594" style="stroke:#181818;stroke-width:1.0;"/><line style="stroke:#181818;stroke-width:1.0;" x1="1246.5" x2="1484.5" y1="545.3594" y2="545.3594"/><text fill="#000000" font-family="sans-serif" font-size="13" font-weight="bold" lengthAdjust="spacing" textLength="14" x="1289.5" y="540.5029">12</text><text fill="#000000" font-family="sans-serif" font-size="13" lengthAdjust="spacing" textLength="140" x="1307.5" y="540.5029">ChangeName(dto.name)</text><path d="M1158,567.3594 L1219,567.3594 L1219,575.7109 L1209,585.7109 L1158,585.7109 L1158,567.3594 " fill="#EEEEEE" style="stroke:#000000;stroke-width:1.5;"/><rect fill="none" height="48.7031" style="stroke:#000000;stroke-width:1.5;" width="392.5" x="1158" y="567.3594"/><text fill="#000000" font-family="sans-serif" font-size="13" font-weight="bold" lengthAdjust="spacing" textLength="16" x="1173" y="581.8545">alt</text><text fill="#000000" font-family="sans-serif" font-size="11" font-weight="bold" lengthAdjust="spacing" textLength="127" x="1234" y="580.7783">[dto.description != null]</text><polygon fill="#181818" points="1478.5,604.0625,1488.5,608.0625,1478.5,612.0625,1482.5,608.0625" style="stroke:#181818;stroke-width:1.0;"/><line style="stroke:#181818;stroke-width:1.0;" x1="1246.5" x2="1484.5" y1="608.0625" y2="608.0625"/><text fill="#000000" font-family="sans-serif" font-size="13" font-weight="bold" lengthAdjust="spacing" textLength="14" x="1258.5" y="603.2061">13</text><text fill="#000000" font-family="sans-serif" font-size="13" lengthAdjust="spacing" textLength="202" x="1276.5" y="603.2061">ChangeDescription(dto.description)</text><polygon fill="#181818" points="1750.5,641.4141,1760.5,645.4141,1750.5,649.4141,1754.5,645.4141" style="stroke:#181818;stroke-width:1.0;"/><line style="stroke:#181818;stroke-width:1.0;" x1="1246.5" x2="1756.5" y1="645.4141" y2="645.4141"/><text fill="#000000" font-family="sans-serif" font-size="13" font-weight="bold" lengthAdjust="spacing" textLength="14" x="1413" y="640.5576">14</text><text fill="#000000" font-family="sans-serif" font-size="13" lengthAdjust="spacing" textLength="165" x="1431" y="640.5576">UpdateAsync(specialization)</text><polygon fill="#181818" points="1538.5,671.7656,1548.5,675.7656,1538.5,679.7656,1542.5,675.7656" style="stroke:#181818;stroke-width:1.0;"/><line style="stroke:#181818;stroke-width:1.0;" x1="1246.5" x2="1544.5" y1="675.7656" y2="675.7656"/><text fill="#000000" font-family="sans-serif" font-size="13" font-weight="bold" lengthAdjust="spacing" textLength="14" x="1328" y="670.9092">15</text><text fill="#000000" font-family="sans-serif" font-size="13" lengthAdjust="spacing" textLength="123" x="1346" y="670.9092">create(specialization)</text><rect fill="#E2E2F0" height="49.2188" rx="2.5" ry="2.5" style="stroke:#181818;stroke-width:0.5;" width="122" x="1550.5" y="653.4141"/><text fill="#000000" font-family="sans-serif" font-size="14" font-style="italic" lengthAdjust="spacing" textLength="64" x="1579.5" y="674.9473">&#171;Domain&#187;</text><text fill="#000000" font-family="sans-serif" font-size="14" lengthAdjust="spacing" textLength="108" x="1557.5" y="692.5566">SpecializationDto</text><polygon fill="#181818" points="1257.5,731.9844,1247.5,735.9844,1257.5,739.9844,1253.5,735.9844" style="stroke:#181818;stroke-width:1.0;"/><line style="stroke:#181818;stroke-width:1.0;stroke-dasharray:2.0,2.0;" x1="1251.5" x2="1610.5" y1="735.9844" y2="735.9844"/><text fill="#000000" font-family="sans-serif" font-size="13" font-weight="bold" lengthAdjust="spacing" textLength="14" x="1370.5" y="731.1279">16</text><text fill="#000000" font-family="sans-serif" font-size="13" lengthAdjust="spacing" textLength="99" x="1388.5" y="731.1279">specializationDto</text><polygon fill="#181818" points="1032.5,762.3359,1022.5,766.3359,1032.5,770.3359,1028.5,766.3359" style="stroke:#181818;stroke-width:1.0;"/><line style="stroke:#181818;stroke-width:1.0;stroke-dasharray:2.0,2.0;" x1="1026.5" x2="1240.5" y1="766.3359" y2="766.3359"/><text fill="#000000" font-family="sans-serif" font-size="13" font-weight="bold" lengthAdjust="spacing" textLength="14" x="1073" y="761.4795">17</text><text fill="#000000" font-family="sans-serif" font-size="13" lengthAdjust="spacing" textLength="99" x="1091" y="761.4795">specializationDto</text><polygon fill="#181818" points="855.5,792.6875,845.5,796.6875,855.5,800.6875,851.5,796.6875" style="stroke:#181818;stroke-width:1.0;"/><line style="stroke:#181818;stroke-width:1.0;stroke-dasharray:2.0,2.0;" x1="849.5" x2="1015.5" y1="796.6875" y2="796.6875"/><text fill="#000000" font-family="sans-serif" font-size="13" font-weight="bold" lengthAdjust="spacing" textLength="14" x="865.5" y="791.8311">18</text><text fill="#000000" font-family="sans-serif" font-size="13" lengthAdjust="spacing" textLength="112" x="883.5" y="791.8311">200 (specialization)</text><polygon fill="#181818" points="681.5,823.0391,671.5,827.0391,681.5,831.0391,677.5,827.0391" style="stroke:#181818;stroke-width:1.0;"/><line style="stroke:#181818;stroke-width:1.0;stroke-dasharray:2.0,2.0;" x1="675.5" x2="838.5" y1="827.0391" y2="827.0391"/><text fill="#000000" font-family="sans-serif" font-size="13" font-weight="bold" lengthAdjust="spacing" textLength="14" x="706.5" y="822.1826">19</text><text fill="#000000" font-family="sans-serif" font-size="13" lengthAdjust="spacing" textLength="79" x="724.5" y="822.1826">specialization</text><polygon fill="#181818" points="397.5,853.3906,387.5,857.3906,397.5,861.3906,393.5,857.3906" style="stroke:#181818;stroke-width:1.0;"/><line style="stroke:#181818;stroke-width:1.0;stroke-dasharray:2.0,2.0;" x1="391.5" x2="664.5" y1="857.3906" y2="857.3906"/><text fill="#000000" font-family="sans-serif" font-size="13" font-weight="bold" lengthAdjust="spacing" textLength="14" x="477.5" y="852.5342">20</text><text fill="#000000" font-family="sans-serif" font-size="13" lengthAdjust="spacing" textLength="79" x="495.5" y="852.5342">specialization</text><polygon fill="#181818" points="249.5,883.7422,239.5,887.7422,249.5,891.7422,245.5,887.7422" style="stroke:#181818;stroke-width:1.0;"/><line style="stroke:#181818;stroke-width:1.0;stroke-dasharray:2.0,2.0;" x1="243.5" x2="380.5" y1="887.7422" y2="887.7422"/><text fill="#000000" font-family="sans-serif" font-size="13" font-weight="bold" lengthAdjust="spacing" textLength="14" x="261.5" y="882.8857">21</text><text fill="#000000" font-family="sans-serif" font-size="13" lengthAdjust="spacing" textLength="79" x="279.5" y="882.8857">specialization</text><polygon fill="#181818" points="38.5,914.0938,28.5,918.0938,38.5,922.0938,34.5,918.0938" style="stroke:#181818;stroke-width:1.0;"/><line style="stroke:#181818;stroke-width:1.0;stroke-dasharray:2.0,2.0;" x1="32.5" x2="232.5" y1="918.0938" y2="918.0938"/><text fill="#000000" font-family="sans-serif" font-size="13" font-weight="bold" lengthAdjust="spacing" textLength="14" x="47" y="913.2373">22</text><text fill="#000000" font-family="sans-serif" font-size="13" lengthAdjust="spacing" textLength="149" x="65" y="913.2373">Shows success message</text><!--SRC=[hPPTRziW58RlyojOTj6aMhPgsbNaHSh7jaPQfsfDxoP51BC4nGRBuAxPhzy1nzzWErsvIB3XVSxX-7009qhm9DpHU22FZ4SunY5QqTyu2TI6FgjvmFOyf5mX0Zym2nCbOZJtGyOHbcXeUiF1O2UUqT3pv4ag6gBHyjDuDll5lyO2LDmVlltEzWUr218wGD30ZcA4HHZ0In56WWFzSMs8y9U_6YBF8zd3cUe66FbbsZlXqy3eJA-Nve76JunGephtU-bkDvjx8z8Tgm8YXI2GhcWkC3dgAIkiCBh37E-f_ZH3IqIuYaKGq3XrCgA4uO3znOe9BejHC54yk5UwjL2oXNlUkMUJLnGM2AXN8iICTufNIbZqyBQEy24sEonfJV-JHZQ0VYqPPFIfpCa_0oGxUyAAflbk-6dcJsQLj9sYkJnA13vIdq4QremROSug2Ss0RcNO1E2fbG8BEpDHPctf8gcJvl1lhG6o8FJtfaG2pXUzFilgxCnyg4BLJBFRhg-1I68A6lVCRBUrswxOFqigWxfbAA2QlJY5X5FaCBhw8Aixv6hSqEPmhMoCwcQG9bpvvfkY-_bcUOlgVAk-5i8CufoRHYgtLOHgUuvLDLHpUU9anFnto5TYt4gj1tBREhiKsQtnehdnfkWRLOlJsi-S67SI2nyQk4wjyQZfnQGQ8kdE95ihxRaNk8G3fUF-dkEGeZUV4K-2eDywd9659ImFcE_f3s2ECdXtPA6wzNRNfvB4B3BcNjdhLO4UrKozpXewS_8nWd98qvIi9iFuF-1m9fNgsiLWHv81zGLfhq_DrgplWtKcVXzn4QTwPRpCaR8JNKMfN1IBKl_nvWRr-XgLmxMr2gSLlt96THIL4jjwZkGdLEtORS4s8-CwInkN0WVLThietIsyoQJ6UJY8FnB9X10g9GhX1swcRHULqklqPlKF]--></g></svg>