<?xml version="1.0" encoding="us-ascii" standalone="no"?><svg xmlns="http://www.w3.org/2000/svg" xmlns:xlink="http://www.w3.org/1999/xlink" contentStyleType="text/css" height="697px" preserveAspectRatio="none" style="width:1588px;height:697px;background:#FFFFFF;" version="1.1" viewBox="0 0 1588 697" width="1588px" zoomAndPan="magnify"><defs/><g><rect fill="#FFFFFF" height="494.625" style="stroke:#181818;stroke-width:1.0;" width="10" x="39" y="96.2188"/><rect fill="#FFFFFF" height="456.2734" style="stroke:#181818;stroke-width:1.0;" width="10" x="256" y="118.5703"/><rect fill="#FFFFFF" height="395.5703" style="stroke:#181818;stroke-width:1.0;" width="10" x="662" y="148.9219"/><rect fill="#FFFFFF" height="30.3516" style="stroke:#181818;stroke-width:1.0;" width="10" x="1171" y="483.7891"/><rect fill="#FFFFFF" height="30.3516" style="stroke:#181818;stroke-width:1.0;" width="10" x="1469.5" y="179.2734"/><rect fill="none" height="358.2188" style="stroke:#000000;stroke-width:1.5;" width="1571" x="10" y="224.625"/><rect fill="none" height="48.7031" style="stroke:#000000;stroke-width:1.5;" width="531.5" x="568.5" y="312.6797"/><rect fill="none" height="48.7031" style="stroke:#000000;stroke-width:1.5;" width="531.5" x="568.5" y="375.3828"/><line style="stroke:#181818;stroke-width:0.5;stroke-dasharray:5.0,5.0;" x1="44" x2="44" y1="86.2188" y2="599.8438"/><line style="stroke:#181818;stroke-width:0.5;stroke-dasharray:5.0,5.0;" x1="260.5" x2="260.5" y1="86.2188" y2="599.8438"/><line style="stroke:#181818;stroke-width:0.5;stroke-dasharray:5.0,5.0;" x1="666.5" x2="666.5" y1="86.2188" y2="599.8438"/><line style="stroke:#181818;stroke-width:0.5;stroke-dasharray:5.0,5.0;" x1="1025" x2="1025" y1="86.2188" y2="599.8438"/><line style="stroke:#181818;stroke-width:0.5;stroke-dasharray:5.0,5.0;" x1="1176" x2="1176" y1="86.2188" y2="599.8438"/><line style="stroke:#181818;stroke-width:0.5;stroke-dasharray:5.0,5.0;" x1="1315" x2="1315" y1="86.2188" y2="599.8438"/><line style="stroke:#181818;stroke-width:0.5;stroke-dasharray:5.0,5.0;" x1="1474" x2="1474" y1="86.2188" y2="599.8438"/><text fill="#000000" font-family="sans-serif" font-size="14" lengthAdjust="spacing" textLength="42" x="20" y="83.1426">Doctor</text><ellipse cx="44" cy="17.1094" fill="#E2E2F0" rx="8" ry="8" style="stroke:#181818;stroke-width:0.5;"/><path d="M44,25.1094 L44,52.1094 M31,33.1094 L57,33.1094 M44,52.1094 L31,67.1094 M44,52.1094 L57,67.1094 " fill="none" style="stroke:#181818;stroke-width:0.5;"/><text fill="#000000" font-family="sans-serif" font-size="14" lengthAdjust="spacing" textLength="42" x="20" y="613.377">Doctor</text><ellipse cx="44" cy="624.9531" fill="#E2E2F0" rx="8" ry="8" style="stroke:#181818;stroke-width:0.5;"/><path d="M44,632.9531 L44,659.9531 M31,640.9531 L57,640.9531 M44,659.9531 L31,674.9531 M44,659.9531 L57,674.9531 " fill="none" style="stroke:#181818;stroke-width:0.5;"/><rect fill="#E2E2F0" height="49.2188" rx="2.5" ry="2.5" style="stroke:#181818;stroke-width:0.5;" width="199" x="161.5" y="36"/><text fill="#000000" font-family="sans-serif" font-size="14" font-style="italic" lengthAdjust="spacing" textLength="78" x="222" y="57.5332">&#171;Controller&#187;</text><text fill="#000000" font-family="sans-serif" font-size="14" lengthAdjust="spacing" textLength="185" x="168.5" y="75.1426">OperationRequestsController</text><rect fill="#E2E2F0" height="49.2188" rx="2.5" ry="2.5" style="stroke:#181818;stroke-width:0.5;" width="199" x="161.5" y="598.8438"/><text fill="#000000" font-family="sans-serif" font-size="14" font-style="italic" lengthAdjust="spacing" textLength="78" x="222" y="620.377">&#171;Controller&#187;</text><text fill="#000000" font-family="sans-serif" font-size="14" lengthAdjust="spacing" textLength="185" x="168.5" y="637.9863">OperationRequestsController</text><rect fill="#E2E2F0" height="49.2188" rx="2.5" ry="2.5" style="stroke:#181818;stroke-width:0.5;" width="177" x="578.5" y="36"/><text fill="#000000" font-family="sans-serif" font-size="14" font-style="italic" lengthAdjust="spacing" textLength="62" x="636" y="57.5332">&#171;Service&#187;</text><text fill="#000000" font-family="sans-serif" font-size="14" lengthAdjust="spacing" textLength="163" x="585.5" y="75.1426">OperationRequestService</text><rect fill="#E2E2F0" height="49.2188" rx="2.5" ry="2.5" style="stroke:#181818;stroke-width:0.5;" width="177" x="578.5" y="598.8438"/><text fill="#000000" font-family="sans-serif" font-size="14" font-style="italic" lengthAdjust="spacing" textLength="62" x="636" y="620.377">&#171;Service&#187;</text><text fill="#000000" font-family="sans-serif" font-size="14" lengthAdjust="spacing" textLength="163" x="585.5" y="637.9863">OperationRequestService</text><rect fill="#E2E2F0" height="49.2188" rx="2.5" ry="2.5" style="stroke:#181818;stroke-width:0.5;" width="130" x="960" y="36"/><text fill="#000000" font-family="sans-serif" font-size="14" font-style="italic" lengthAdjust="spacing" textLength="64" x="993" y="57.5332">&#171;Domain&#187;</text><text fill="#000000" font-family="sans-serif" font-size="14" lengthAdjust="spacing" textLength="116" x="967" y="75.1426">OperationRequest</text><rect fill="#E2E2F0" height="49.2188" rx="2.5" ry="2.5" style="stroke:#181818;stroke-width:0.5;" width="130" x="960" y="598.8438"/><text fill="#000000" font-family="sans-serif" font-size="14" font-style="italic" lengthAdjust="spacing" textLength="64" x="993" y="620.377">&#171;Domain&#187;</text><text fill="#000000" font-family="sans-serif" font-size="14" lengthAdjust="spacing" textLength="116" x="967" y="637.9863">OperationRequest</text><rect fill="#E2E2F0" height="49.2188" rx="2.5" ry="2.5" style="stroke:#181818;stroke-width:0.5;" width="152" x="1100" y="36"/><text fill="#000000" font-family="sans-serif" font-size="14" font-style="italic" lengthAdjust="spacing" textLength="64" x="1144" y="57.5332">&#171;Domain&#187;</text><text fill="#000000" font-family="sans-serif" font-size="14" lengthAdjust="spacing" textLength="138" x="1107" y="75.1426">OperationRequestDto</text><rect fill="#E2E2F0" height="49.2188" rx="2.5" ry="2.5" style="stroke:#181818;stroke-width:0.5;" width="152" x="1100" y="598.8438"/><text fill="#000000" font-family="sans-serif" font-size="14" font-style="italic" lengthAdjust="spacing" textLength="64" x="1144" y="620.377">&#171;Domain&#187;</text><text fill="#000000" font-family="sans-serif" font-size="14" lengthAdjust="spacing" textLength="138" x="1107" y="637.9863">OperationRequestDto</text><text fill="#000000" font-family="sans-serif" font-size="14" font-style="italic" lengthAdjust="spacing" textLength="64" x="1280" y="65.5332">&#171;Domain&#187;</text><text fill="#000000" font-family="sans-serif" font-size="14" lengthAdjust="spacing" textLength="100" x="1262" y="83.1426">IUserRepository</text><path d="M1297,15 C1297,5 1315,5 1315,5 C1315,5 1333,5 1333,15 L1333,41 C1333,51 1315,51 1315,51 C1315,51 1297,51 1297,41 L1297,15 " fill="#E2E2F0" style="stroke:#181818;stroke-width:1.5;"/><path d="M1297,15 C1297,25 1315,25 1315,25 C1315,25 1333,25 1333,15 " fill="none" style="stroke:#181818;stroke-width:1.5;"/><text fill="#000000" font-family="sans-serif" font-size="14" font-style="italic" lengthAdjust="spacing" textLength="64" x="1280" y="613.377">&#171;Domain&#187;</text><text fill="#000000" font-family="sans-serif" font-size="14" lengthAdjust="spacing" textLength="100" x="1262" y="630.9863">IUserRepository</text><path d="M1297,644.0625 C1297,634.0625 1315,634.0625 1315,634.0625 C1315,634.0625 1333,634.0625 1333,644.0625 L1333,670.0625 C1333,680.0625 1315,680.0625 1315,680.0625 C1315,680.0625 1297,680.0625 1297,670.0625 L1297,644.0625 " fill="#E2E2F0" style="stroke:#181818;stroke-width:1.5;"/><path d="M1297,644.0625 C1297,654.0625 1315,654.0625 1315,654.0625 C1315,654.0625 1333,654.0625 1333,644.0625 " fill="none" style="stroke:#181818;stroke-width:1.5;"/><text fill="#000000" font-family="sans-serif" font-size="14" font-style="italic" lengthAdjust="spacing" textLength="64" x="1439.5" y="65.5332">&#171;Domain&#187;</text><text fill="#000000" font-family="sans-serif" font-size="14" lengthAdjust="spacing" textLength="187" x="1378" y="83.1426">IOperationRequestRepository</text><path d="M1456.5,15 C1456.5,5 1474.5,5 1474.5,5 C1474.5,5 1492.5,5 1492.5,15 L1492.5,41 C1492.5,51 1474.5,51 1474.5,51 C1474.5,51 1456.5,51 1456.5,41 L1456.5,15 " fill="#E2E2F0" style="stroke:#181818;stroke-width:1.5;"/><path d="M1456.5,15 C1456.5,25 1474.5,25 1474.5,25 C1474.5,25 1492.5,25 1492.5,15 " fill="none" style="stroke:#181818;stroke-width:1.5;"/><text fill="#000000" font-family="sans-serif" font-size="14" font-style="italic" lengthAdjust="spacing" textLength="64" x="1439.5" y="613.377">&#171;Domain&#187;</text><text fill="#000000" font-family="sans-serif" font-size="14" lengthAdjust="spacing" textLength="187" x="1378" y="630.9863">IOperationRequestRepository</text><path d="M1456.5,644.0625 C1456.5,634.0625 1474.5,634.0625 1474.5,634.0625 C1474.5,634.0625 1492.5,634.0625 1492.5,644.0625 L1492.5,670.0625 C1492.5,680.0625 1474.5,680.0625 1474.5,680.0625 C1474.5,680.0625 1456.5,680.0625 1456.5,670.0625 L1456.5,644.0625 " fill="#E2E2F0" style="stroke:#181818;stroke-width:1.5;"/><path d="M1456.5,644.0625 C1456.5,654.0625 1474.5,654.0625 1474.5,654.0625 C1474.5,654.0625 1492.5,654.0625 1492.5,644.0625 " fill="none" style="stroke:#181818;stroke-width:1.5;"/><rect fill="#FFFFFF" height="494.625" style="stroke:#181818;stroke-width:1.0;" width="10" x="39" y="96.2188"/><rect fill="#FFFFFF" height="456.2734" style="stroke:#181818;stroke-width:1.0;" width="10" x="256" y="118.5703"/><rect fill="#FFFFFF" height="395.5703" style="stroke:#181818;stroke-width:1.0;" width="10" x="662" y="148.9219"/><rect fill="#FFFFFF" height="30.3516" style="stroke:#181818;stroke-width:1.0;" width="10" x="1171" y="483.7891"/><rect fill="#FFFFFF" height="30.3516" style="stroke:#181818;stroke-width:1.0;" width="10" x="1469.5" y="179.2734"/><polygon fill="#181818" points="244,114.5703,254,118.5703,244,122.5703,248,118.5703" style="stroke:#181818;stroke-width:1.0;"/><line style="stroke:#181818;stroke-width:1.0;" x1="49" x2="250" y1="118.5703" y2="118.5703"/><text fill="#000000" font-family="sans-serif" font-size="13" font-weight="bold" lengthAdjust="spacing" textLength="7" x="56" y="113.7139">1</text><text fill="#000000" font-family="sans-serif" font-size="13" lengthAdjust="spacing" textLength="177" x="67" y="113.7139">PUT /api/operationRequest/{id}</text><polygon fill="#181818" points="650,144.9219,660,148.9219,650,152.9219,654,148.9219" style="stroke:#181818;stroke-width:1.0;"/><line style="stroke:#181818;stroke-width:1.0;" x1="266" x2="656" y1="148.9219" y2="148.9219"/><text fill="#000000" font-family="sans-serif" font-size="13" font-weight="bold" lengthAdjust="spacing" textLength="7" x="273" y="144.0654">2</text><text fill="#000000" font-family="sans-serif" font-size="13" lengthAdjust="spacing" textLength="366" x="284" y="144.0654">UpdateOperationRequestAsync(id,operationRequestUpdateDto)</text><polygon fill="#181818" points="1457.5,175.2734,1467.5,179.2734,1457.5,183.2734,1461.5,179.2734" style="stroke:#181818;stroke-width:1.0;"/><line style="stroke:#181818;stroke-width:1.0;" x1="672" x2="1463.5" y1="179.2734" y2="179.2734"/><text fill="#000000" font-family="sans-serif" font-size="13" font-weight="bold" lengthAdjust="spacing" textLength="7" x="679" y="174.417">3</text><text fill="#000000" font-family="sans-serif" font-size="13" lengthAdjust="spacing" textLength="163" x="690" y="174.417">getById(operationRequestId)</text><polygon fill="#181818" points="683,205.625,673,209.625,683,213.625,679,209.625" style="stroke:#181818;stroke-width:1.0;"/><line style="stroke:#181818;stroke-width:1.0;stroke-dasharray:2.0,2.0;" x1="677" x2="1473.5" y1="209.625" y2="209.625"/><text fill="#000000" font-family="sans-serif" font-size="13" font-weight="bold" lengthAdjust="spacing" textLength="7" x="689" y="204.7686">4</text><text fill="#000000" font-family="sans-serif" font-size="13" lengthAdjust="spacing" textLength="101" x="700" y="204.7686">operationRequest</text><path d="M10,224.625 L71,224.625 L71,232.9766 L61,242.9766 L10,242.9766 L10,224.625 " fill="#EEEEEE" style="stroke:#000000;stroke-width:1.5;"/><rect fill="none" height="358.2188" style="stroke:#000000;stroke-width:1.5;" width="1571" x="10" y="224.625"/><text fill="#000000" font-family="sans-serif" font-size="13" font-weight="bold" lengthAdjust="spacing" textLength="16" x="25" y="239.1201">alt</text><text fill="#000000" font-family="sans-serif" font-size="11" font-weight="bold" lengthAdjust="spacing" textLength="167" x="86" y="238.0439">[operationRequest==null then]</text><polygon fill="#181818" points="277,261.3281,267,265.3281,277,269.3281,273,265.3281" style="stroke:#181818;stroke-width:1.0;"/><line style="stroke:#181818;stroke-width:1.0;stroke-dasharray:2.0,2.0;" x1="271" x2="661" y1="265.3281" y2="265.3281"/><text fill="#000000" font-family="sans-serif" font-size="13" font-weight="bold" lengthAdjust="spacing" textLength="7" x="283" y="260.4717">5</text><text fill="#000000" font-family="sans-serif" font-size="13" lengthAdjust="spacing" textLength="195" x="294" y="260.4717">BusinessRuleValidationException</text><polygon fill="#181818" points="60,291.6797,50,295.6797,60,299.6797,56,295.6797" style="stroke:#181818;stroke-width:1.0;"/><line style="stroke:#181818;stroke-width:1.0;stroke-dasharray:2.0,2.0;" x1="54" x2="255" y1="295.6797" y2="295.6797"/><text fill="#000000" font-family="sans-serif" font-size="13" font-weight="bold" lengthAdjust="spacing" textLength="7" x="66" y="290.8232">6</text><text fill="#000000" font-family="sans-serif" font-size="13" lengthAdjust="spacing" textLength="100" x="77" y="290.8232">404 NOT FOUND</text><line style="stroke:#000000;stroke-width:1.0;stroke-dasharray:2.0,2.0;" x1="10" x2="1581" y1="304.6797" y2="304.6797"/><path d="M568.5,312.6797 L629.5,312.6797 L629.5,321.0313 L619.5,331.0313 L568.5,331.0313 L568.5,312.6797 " fill="#EEEEEE" style="stroke:#000000;stroke-width:1.5;"/><rect fill="none" height="48.7031" style="stroke:#000000;stroke-width:1.5;" width="531.5" x="568.5" y="312.6797"/><text fill="#000000" font-family="sans-serif" font-size="13" font-weight="bold" lengthAdjust="spacing" textLength="16" x="583.5" y="327.1748">alt</text><text fill="#000000" font-family="sans-serif" font-size="11" font-weight="bold" lengthAdjust="spacing" textLength="207" x="644.5" y="326.0986">[operationRequest.priority!=null then]</text><polygon fill="#181818" points="1013,349.3828,1023,353.3828,1013,357.3828,1017,353.3828" style="stroke:#181818;stroke-width:1.0;"/><line style="stroke:#181818;stroke-width:1.0;" x1="672" x2="1019" y1="353.3828" y2="353.3828"/><text fill="#000000" font-family="sans-serif" font-size="13" font-weight="bold" lengthAdjust="spacing" textLength="7" x="679" y="348.5264">7</text><text fill="#000000" font-family="sans-serif" font-size="13" lengthAdjust="spacing" textLength="300" x="690" y="348.5264">ChangePriority(operationRequestUpdateDto.Priority)</text><path d="M568.5,375.3828 L629.5,375.3828 L629.5,383.7344 L619.5,393.7344 L568.5,393.7344 L568.5,375.3828 " fill="#EEEEEE" style="stroke:#000000;stroke-width:1.5;"/><rect fill="none" height="48.7031" style="stroke:#000000;stroke-width:1.5;" width="531.5" x="568.5" y="375.3828"/><text fill="#000000" font-family="sans-serif" font-size="13" font-weight="bold" lengthAdjust="spacing" textLength="16" x="583.5" y="389.8779">alt</text><text fill="#000000" font-family="sans-serif" font-size="11" font-weight="bold" lengthAdjust="spacing" textLength="214" x="644.5" y="388.8018">[operationRequest.deadline!=null then]</text><polygon fill="#181818" points="1013,412.0859,1023,416.0859,1013,420.0859,1017,416.0859" style="stroke:#181818;stroke-width:1.0;"/><line style="stroke:#181818;stroke-width:1.0;" x1="672" x2="1019" y1="416.0859" y2="416.0859"/><text fill="#000000" font-family="sans-serif" font-size="13" font-weight="bold" lengthAdjust="spacing" textLength="7" x="679" y="411.2295">8</text><text fill="#000000" font-family="sans-serif" font-size="13" lengthAdjust="spacing" textLength="318" x="690" y="411.2295">ChangeDeadline(operationRequestUpdateDto.Deadline)</text><polygon fill="#181818" points="1462.5,449.4375,1472.5,453.4375,1462.5,457.4375,1466.5,453.4375" style="stroke:#181818;stroke-width:1.0;"/><line style="stroke:#181818;stroke-width:1.0;" x1="672" x2="1468.5" y1="453.4375" y2="453.4375"/><text fill="#000000" font-family="sans-serif" font-size="13" font-weight="bold" lengthAdjust="spacing" textLength="7" x="679" y="448.5811">9</text><text fill="#000000" font-family="sans-serif" font-size="13" lengthAdjust="spacing" textLength="187" x="690" y="448.5811">UpdateAsync(operationRequest)</text><polygon fill="#181818" points="1159,479.7891,1169,483.7891,1159,487.7891,1163,483.7891" style="stroke:#181818;stroke-width:1.0;"/><line style="stroke:#181818;stroke-width:1.0;" x1="672" x2="1165" y1="483.7891" y2="483.7891"/><text fill="#000000" font-family="sans-serif" font-size="13" font-weight="bold" lengthAdjust="spacing" textLength="14" x="679" y="478.9326">10</text><text fill="#000000" font-family="sans-serif" font-size="13" lengthAdjust="spacing" textLength="392" x="697" y="478.9326">create(PatientId, DoctorId, OperationType,Deadline, Priority, Status)</text><polygon fill="#181818" points="683,510.1406,673,514.1406,683,518.1406,679,514.1406" style="stroke:#181818;stroke-width:1.0;"/><line style="stroke:#181818;stroke-width:1.0;stroke-dasharray:2.0,2.0;" x1="677" x2="1175" y1="514.1406" y2="514.1406"/><text fill="#000000" font-family="sans-serif" font-size="13" font-weight="bold" lengthAdjust="spacing" textLength="14" x="689" y="509.2842">11</text><text fill="#000000" font-family="sans-serif" font-size="13" lengthAdjust="spacing" textLength="121" x="707" y="509.2842">operationRequestDto</text><polygon fill="#181818" points="277,540.4922,267,544.4922,277,548.4922,273,544.4922" style="stroke:#181818;stroke-width:1.0;"/><line style="stroke:#181818;stroke-width:1.0;stroke-dasharray:2.0,2.0;" x1="271" x2="666" y1="544.4922" y2="544.4922"/><text fill="#000000" font-family="sans-serif" font-size="13" font-weight="bold" lengthAdjust="spacing" textLength="14" x="283" y="539.6357">12</text><text fill="#000000" font-family="sans-serif" font-size="13" lengthAdjust="spacing" textLength="121" x="301" y="539.6357">operationRequestDto</text><polygon fill="#181818" points="60,570.8438,50,574.8438,60,578.8438,56,574.8438" style="stroke:#181818;stroke-width:1.0;"/><line style="stroke:#181818;stroke-width:1.0;stroke-dasharray:2.0,2.0;" x1="54" x2="260" y1="574.8438" y2="574.8438"/><text fill="#000000" font-family="sans-serif" font-size="13" font-weight="bold" lengthAdjust="spacing" textLength="14" x="66" y="569.9873">13</text><text fill="#000000" font-family="sans-serif" font-size="13" lengthAdjust="spacing" textLength="44" x="84" y="569.9873">200 OK</text><!--SRC=[dPHTRziW58Rl_IjOhXB9RgAfLrPgQQqtAPhKH6coUsgEMYGA370rQzf_7_WJezh9vfi0EU_p7iu1S6a4Bz-UGKKHBenGQ94Bzxj0MAEp1dM895Q65bHYRj1YBq5XGmK_miyIjD4FWXib68D6CapHTZjCicmUymJgdHPG8zgnrRUZI-9Q5IvQUIxUCEMNrBaH7mBikiyWsE1dh04jTguiHv12Krkegg_Ki3IX2nq2nlJVFi-rYRvZ0srtaFtgKP8DvKuFvnDQOqdN8e2kVrFonuCCcgX63VCaQykVdgNT18JfVT4LBvQKnA554sxBjwg9lLMBQtpSrouasVJEqnSmzzMEB4EJ7LdrdDvXcZEOkcywBXbs7Jhs10B_P8YPGI7hxewNZ27p2doKM5UHKI_lIqqvQ7qi6Vp0Z9AQzFLN0T8DHW2lVKbM7ulqTdEB7lSdz6r_VipxO60QvdEyaOeAHKtrwODa9rkNFhnY_WA7LhkSF1mtNSZGH-34PN8XBLj-mcn1_YUjlDNEfDM5pAHrpRbjWCqT2SrMLw1iAccXm3AM1xiEt9xu63LlinlryQTAGjmb7QEkgZ5wCjYK-efROgtchuSDcBaNJdx5rHYvT4-ynNf7TXBjOKUFI7t0jqdY8JvlDcZ_FV8KtWlNT_8l]--></g></svg>