<?xml version="1.0" encoding="us-ascii" standalone="no"?><svg xmlns="http://www.w3.org/2000/svg" xmlns:xlink="http://www.w3.org/1999/xlink" contentStyleType="text/css" height="427px" preserveAspectRatio="none" style="width:513px;height:427px;background:#FFFFFF;" version="1.1" viewBox="0 0 513 427" width="513px" zoomAndPan="magnify"><defs/><g><rect fill="#FFFFFF" height="234.2969" style="stroke:#181818;stroke-width:1.0;" width="10" x="37.5" y="92.6094"/><rect fill="#FFFFFF" height="186.5938" style="stroke:#181818;stroke-width:1.0;" width="10" x="250.5" y="140.3125"/><rect fill="none" height="197.9453" style="stroke:#000000;stroke-width:1.5;" width="496.5" x="10" y="99.6094"/><line style="stroke:#181818;stroke-width:0.5;stroke-dasharray:5.0,5.0;" x1="42" x2="42" y1="82.6094" y2="344.9063"/><line style="stroke:#181818;stroke-width:0.5;stroke-dasharray:5.0,5.0;" x1="255" x2="255" y1="82.6094" y2="344.9063"/><text fill="#000000" font-family="sans-serif" font-size="14" lengthAdjust="spacing" textLength="39" x="20" y="79.5332">Admin</text><ellipse cx="42.5" cy="13.5" fill="#E2E2F0" rx="8" ry="8" style="stroke:#181818;stroke-width:0.5;"/><path d="M42.5,21.5 L42.5,48.5 M29.5,29.5 L55.5,29.5 M42.5,48.5 L29.5,63.5 M42.5,48.5 L55.5,63.5 " fill="none" style="stroke:#181818;stroke-width:0.5;"/><text fill="#000000" font-family="sans-serif" font-size="14" lengthAdjust="spacing" textLength="39" x="20" y="358.4395">Admin</text><ellipse cx="42.5" cy="370.0156" fill="#E2E2F0" rx="8" ry="8" style="stroke:#181818;stroke-width:0.5;"/><path d="M42.5,378.0156 L42.5,405.0156 M29.5,386.0156 L55.5,386.0156 M42.5,405.0156 L29.5,420.0156 M42.5,405.0156 L55.5,420.0156 " fill="none" style="stroke:#181818;stroke-width:0.5;"/><rect fill="#E2E2F0" height="49.2188" rx="2.5" ry="2.5" style="stroke:#181818;stroke-width:0.5;" width="189" x="161" y="32.3906"/><text fill="#000000" font-family="sans-serif" font-size="14" font-style="italic" lengthAdjust="spacing" textLength="92" x="209.5" y="53.9238">&#171;system (C4)&#187;</text><text fill="#000000" font-family="sans-serif" font-size="14" lengthAdjust="spacing" textLength="175" x="168" y="71.5332">Backend Data Management</text><rect fill="#E2E2F0" height="49.2188" rx="2.5" ry="2.5" style="stroke:#181818;stroke-width:0.5;" width="189" x="161" y="343.9063"/><text fill="#000000" font-family="sans-serif" font-size="14" font-style="italic" lengthAdjust="spacing" textLength="92" x="209.5" y="365.4395">&#171;system (C4)&#187;</text><text fill="#000000" font-family="sans-serif" font-size="14" lengthAdjust="spacing" textLength="175" x="168" y="383.0488">Backend Data Management</text><rect fill="#FFFFFF" height="234.2969" style="stroke:#181818;stroke-width:1.0;" width="10" x="37.5" y="92.6094"/><rect fill="#FFFFFF" height="186.5938" style="stroke:#181818;stroke-width:1.0;" width="10" x="250.5" y="140.3125"/><path d="M10,99.6094 L71,99.6094 L71,107.9609 L61,117.9609 L10,117.9609 L10,99.6094 " fill="#EEEEEE" style="stroke:#000000;stroke-width:1.5;"/><rect fill="none" height="197.9453" style="stroke:#000000;stroke-width:1.5;" width="496.5" x="10" y="99.6094"/><text fill="#000000" font-family="sans-serif" font-size="13" font-weight="bold" lengthAdjust="spacing" textLength="16" x="25" y="114.1045">alt</text><text fill="#000000" font-family="sans-serif" font-size="11" font-weight="bold" lengthAdjust="spacing" textLength="117" x="86" y="113.0283">[Get operation types]</text><polygon fill="#181818" points="238.5,136.3125,248.5,140.3125,238.5,144.3125,242.5,140.3125" style="stroke:#181818;stroke-width:1.0;"/><line style="stroke:#181818;stroke-width:1.0;" x1="47.5" x2="244.5" y1="140.3125" y2="140.3125"/><text fill="#000000" font-family="sans-serif" font-size="13" font-weight="bold" lengthAdjust="spacing" textLength="7" x="54.5" y="135.4561">1</text><text fill="#000000" font-family="sans-serif" font-size="13" lengthAdjust="spacing" textLength="140" x="65.5" y="135.4561">GET /api/operationtypes</text><line style="stroke:#181818;stroke-width:1.0;" x1="260.5" x2="302.5" y1="170.6641" y2="170.6641"/><line style="stroke:#181818;stroke-width:1.0;" x1="302.5" x2="302.5" y1="170.6641" y2="183.6641"/><line style="stroke:#181818;stroke-width:1.0;" x1="261.5" x2="302.5" y1="183.6641" y2="183.6641"/><polygon fill="#181818" points="271.5,179.6641,261.5,183.6641,271.5,187.6641,267.5,183.6641" style="stroke:#181818;stroke-width:1.0;"/><text fill="#000000" font-family="sans-serif" font-size="13" font-weight="bold" lengthAdjust="spacing" textLength="7" x="267.5" y="165.8076">2</text><text fill="#000000" font-family="sans-serif" font-size="13" lengthAdjust="spacing" textLength="44" x="278.5" y="165.8076">GetAll()</text><line style="stroke:#000000;stroke-width:1.0;stroke-dasharray:2.0,2.0;" x1="10" x2="506.5" y1="192.6641" y2="192.6641"/><text fill="#000000" font-family="sans-serif" font-size="11" font-weight="bold" lengthAdjust="spacing" textLength="160" x="15" y="204.083">[Get operation types filtered]</text><polygon fill="#181818" points="238.5,225.8516,248.5,229.8516,238.5,233.8516,242.5,229.8516" style="stroke:#181818;stroke-width:1.0;"/><line style="stroke:#181818;stroke-width:1.0;" x1="47.5" x2="244.5" y1="229.8516" y2="229.8516"/><text fill="#000000" font-family="sans-serif" font-size="13" font-weight="bold" lengthAdjust="spacing" textLength="7" x="54.5" y="224.9951">3</text><text fill="#000000" font-family="sans-serif" font-size="13" lengthAdjust="spacing" textLength="168" x="65.5" y="224.9951">GET /api/operationtypes/filter</text><line style="stroke:#181818;stroke-width:1.0;" x1="260.5" x2="302.5" y1="276.5547" y2="276.5547"/><line style="stroke:#181818;stroke-width:1.0;" x1="302.5" x2="302.5" y1="276.5547" y2="289.5547"/><line style="stroke:#181818;stroke-width:1.0;" x1="261.5" x2="302.5" y1="289.5547" y2="289.5547"/><polygon fill="#181818" points="271.5,285.5547,261.5,289.5547,271.5,293.5547,267.5,289.5547" style="stroke:#181818;stroke-width:1.0;"/><text fill="#000000" font-family="sans-serif" font-size="13" font-weight="bold" lengthAdjust="spacing" textLength="7" x="267.5" y="263.5225">4</text><text fill="#000000" font-family="sans-serif" font-size="13" lengthAdjust="spacing" textLength="202" x="278.5" y="255.3467">GetAllFiltered(operationTypeName,</text><text fill="#000000" font-family="sans-serif" font-size="13" lengthAdjust="spacing" textLength="216" x="278.5" y="271.6982">specializationId,operationTypeStatus)</text><polygon fill="#181818" points="53.5,322.9063,43.5,326.9063,53.5,330.9063,49.5,326.9063" style="stroke:#181818;stroke-width:1.0;"/><line style="stroke:#181818;stroke-width:1.0;stroke-dasharray:2.0,2.0;" x1="47.5" x2="254.5" y1="326.9063" y2="326.9063"/><text fill="#000000" font-family="sans-serif" font-size="13" font-weight="bold" lengthAdjust="spacing" textLength="7" x="59.5" y="322.0498">5</text><text fill="#000000" font-family="sans-serif" font-size="13" lengthAdjust="spacing" textLength="44" x="70.5" y="322.0498">200 OK</text><!--SRC=[hP91IyGm48Nl_HL3JoriwIAUf1HMLnSHzU0UlOpDk0IJD2HJOVtrjcd9gdJTWyufvBrvtmm9TjoQJh-GIn9ik7MGheIM9WNq44w9HSUoaHODmoKsRsJ46XdlqU2EDFMtlJMT51WaE6WfL9NVUoODsTLvNjS18z-HQOfFe2zK31jYQ2qvPDaQuBqb7xIXWhMeZ_0lO7EzXHAjB6F0s1y38dGsuU0RQXxo6vrufLIMZp6aFCqj0wzICJaIVzsg78F-PUYRQQOi8hOzuW4rBPwDjzH8LF8Z2BTYyStqnCYTpyUTpO-je2gAe-YpvH8UxsA3e5ElyyKnVffF]--></g></svg>