<?xml version="1.0" encoding="us-ascii" standalone="no"?><svg xmlns="http://www.w3.org/2000/svg" xmlns:xlink="http://www.w3.org/1999/xlink" contentStyleType="text/css" height="981px" preserveAspectRatio="none" style="width:1996px;height:981px;background:#FFFFFF;" version="1.1" viewBox="0 0 1996 981" width="1996px" zoomAndPan="magnify"><defs/><g><rect fill="#ADD8E6" height="962.0938" style="stroke:#181818;stroke-width:0.5;" width="659" x="183.5" y="6"/><text fill="#000000" font-family="sans-serif" font-size="13" font-weight="bold" lengthAdjust="spacing" textLength="85" x="470.5" y="19.4951">&#171;system (C4)&#187;</text><text fill="#000000" font-family="sans-serif" font-size="13" font-weight="bold" lengthAdjust="spacing" textLength="57" x="484.5" y="35.8467">Frontend</text><rect fill="#DDDDDD" height="962.0938" style="stroke:#181818;stroke-width:0.5;" width="1100.5" x="890" y="6"/><text fill="#000000" font-family="sans-serif" font-size="13" font-weight="bold" lengthAdjust="spacing" textLength="85" x="1397.75" y="19.4951">&#171;system (C4)&#187;</text><text fill="#000000" font-family="sans-serif" font-size="13" font-weight="bold" lengthAdjust="spacing" textLength="175" x="1352.75" y="35.8467">Backend Data Management</text><rect fill="#FFFFFF" height="731.9531" style="stroke:#181818;stroke-width:1.0;" width="10" x="22.5" y="133.9219"/><rect fill="#FFFFFF" height="30.3516" style="stroke:#181818;stroke-width:1.0;" width="10" x="248.5" y="156.2734"/><rect fill="#FFFFFF" height="648.8984" style="stroke:#181818;stroke-width:1.0;" width="10" x="248.5" y="216.9766"/><rect fill="#FFFFFF" height="588.1953" style="stroke:#181818;stroke-width:1.0;" width="10" x="419.5" y="247.3281"/><rect fill="#FFFFFF" height="527.4922" style="stroke:#181818;stroke-width:1.0;" width="10" x="590.5" y="277.6797"/><rect fill="#FFFFFF" height="466.7891" style="stroke:#181818;stroke-width:1.0;" width="10" x="767.5" y="308.0313"/><rect fill="#FFFFFF" height="406.0859" style="stroke:#181818;stroke-width:1.0;" width="10" x="973.5" y="338.3828"/><rect fill="#FFFFFF" height="345.3828" style="stroke:#181818;stroke-width:1.0;" width="10" x="1141.5" y="368.7344"/><rect fill="#FFFFFF" height="50.2188" style="stroke:#181818;stroke-width:1.0;" width="10" x="1372.5" y="633.5469"/><rect fill="#FFFFFF" height="30.3516" style="stroke:#181818;stroke-width:1.0;" width="10" x="1523.5" y="399.0859"/><rect fill="#FFFFFF" height="33.3516" style="stroke:#181818;stroke-width:1.0;" width="10" x="1665" y="459.7891"/><rect fill="#FFFFFF" height="33.3516" style="stroke:#181818;stroke-width:1.0;" width="10" x="1854" y="526.4922"/><line style="stroke:#181818;stroke-width:0.5;stroke-dasharray:5.0,5.0;" x1="27" x2="27" y1="123.9219" y2="883.875"/><line style="stroke:#181818;stroke-width:0.5;stroke-dasharray:5.0,5.0;" x1="253.5" x2="253.5" y1="123.9219" y2="883.875"/><line style="stroke:#181818;stroke-width:0.5;stroke-dasharray:5.0,5.0;" x1="424.5" x2="424.5" y1="123.9219" y2="883.875"/><line style="stroke:#181818;stroke-width:0.5;stroke-dasharray:5.0,5.0;" x1="595.5" x2="595.5" y1="123.9219" y2="883.875"/><line style="stroke:#181818;stroke-width:0.5;stroke-dasharray:5.0,5.0;" x1="772.5" x2="772.5" y1="123.9219" y2="883.875"/><line style="stroke:#181818;stroke-width:0.5;stroke-dasharray:5.0,5.0;" x1="978" x2="978" y1="123.9219" y2="883.875"/><line style="stroke:#181818;stroke-width:0.5;stroke-dasharray:5.0,5.0;" x1="1146" x2="1146" y1="123.9219" y2="883.875"/><line style="stroke:#181818;stroke-width:0.5;stroke-dasharray:5.0,5.0;" x1="1377.5" x2="1377.5" y1="641.3047" y2="883.875"/><line style="stroke:#181818;stroke-width:0.5;stroke-dasharray:5.0,5.0;" x1="1528.5" x2="1528.5" y1="123.9219" y2="883.875"/><line style="stroke:#181818;stroke-width:0.5;stroke-dasharray:5.0,5.0;" x1="1669.5" x2="1669.5" y1="123.9219" y2="883.875"/><line style="stroke:#181818;stroke-width:0.5;stroke-dasharray:5.0,5.0;" x1="1858.5" x2="1858.5" y1="123.9219" y2="883.875"/><text fill="#000000" font-family="sans-serif" font-size="14" lengthAdjust="spacing" textLength="39" x="5" y="120.8457">Admin</text><ellipse cx="27.5" cy="54.8125" fill="#E2E2F0" rx="8" ry="8" style="stroke:#181818;stroke-width:0.5;"/><path d="M27.5,62.8125 L27.5,89.8125 M14.5,70.8125 L40.5,70.8125 M27.5,89.8125 L14.5,104.8125 M27.5,89.8125 L40.5,104.8125 " fill="none" style="stroke:#181818;stroke-width:0.5;"/><text fill="#000000" font-family="sans-serif" font-size="14" lengthAdjust="spacing" textLength="39" x="5" y="897.4082">Admin</text><ellipse cx="27.5" cy="908.9844" fill="#E2E2F0" rx="8" ry="8" style="stroke:#181818;stroke-width:0.5;"/><path d="M27.5,916.9844 L27.5,943.9844 M14.5,924.9844 L40.5,924.9844 M27.5,943.9844 L14.5,958.9844 M27.5,943.9844 L40.5,958.9844 " fill="none" style="stroke:#181818;stroke-width:0.5;"/><rect fill="#E2E2F0" height="49.2188" rx="2.5" ry="2.5" style="stroke:#181818;stroke-width:0.5;" width="132" x="187.5" y="73.7031"/><text fill="#000000" font-family="sans-serif" font-size="14" font-style="italic" lengthAdjust="spacing" textLength="118" x="194.5" y="95.2363">&#171;component (C4)&#187;</text><text fill="#000000" font-family="sans-serif" font-size="14" lengthAdjust="spacing" textLength="89" x="209" y="112.8457">UI Component</text><rect fill="#E2E2F0" height="49.2188" rx="2.5" ry="2.5" style="stroke:#181818;stroke-width:0.5;" width="132" x="187.5" y="882.875"/><text fill="#000000" font-family="sans-serif" font-size="14" font-style="italic" lengthAdjust="spacing" textLength="118" x="194.5" y="904.4082">&#171;component (C4)&#187;</text><text fill="#000000" font-family="sans-serif" font-size="14" lengthAdjust="spacing" textLength="89" x="209" y="922.0176">UI Component</text><rect fill="#E2E2F0" height="49.2188" rx="2.5" ry="2.5" style="stroke:#181818;stroke-width:0.5;" width="132" x="358.5" y="73.7031"/><text fill="#000000" font-family="sans-serif" font-size="14" font-style="italic" lengthAdjust="spacing" textLength="118" x="365.5" y="95.2363">&#171;component (C4)&#187;</text><text fill="#000000" font-family="sans-serif" font-size="14" lengthAdjust="spacing" textLength="73" x="388" y="112.8457">Component</text><rect fill="#E2E2F0" height="49.2188" rx="2.5" ry="2.5" style="stroke:#181818;stroke-width:0.5;" width="132" x="358.5" y="882.875"/><text fill="#000000" font-family="sans-serif" font-size="14" font-style="italic" lengthAdjust="spacing" textLength="118" x="365.5" y="904.4082">&#171;component (C4)&#187;</text><text fill="#000000" font-family="sans-serif" font-size="14" lengthAdjust="spacing" textLength="73" x="388" y="922.0176">Component</text><rect fill="#E2E2F0" height="49.2188" rx="2.5" ry="2.5" style="stroke:#181818;stroke-width:0.5;" width="132" x="529.5" y="73.7031"/><text fill="#000000" font-family="sans-serif" font-size="14" font-style="italic" lengthAdjust="spacing" textLength="118" x="536.5" y="95.2363">&#171;component (C4)&#187;</text><text fill="#000000" font-family="sans-serif" font-size="14" lengthAdjust="spacing" textLength="47" x="572" y="112.8457">Service</text><rect fill="#E2E2F0" height="49.2188" rx="2.5" ry="2.5" style="stroke:#181818;stroke-width:0.5;" width="132" x="529.5" y="882.875"/><text fill="#000000" font-family="sans-serif" font-size="14" font-style="italic" lengthAdjust="spacing" textLength="118" x="536.5" y="904.4082">&#171;component (C4)&#187;</text><text fill="#000000" font-family="sans-serif" font-size="14" lengthAdjust="spacing" textLength="47" x="572" y="922.0176">Service</text><rect fill="#E2E2F0" height="49.2188" rx="2.5" ry="2.5" style="stroke:#181818;stroke-width:0.5;" width="132" x="706.5" y="73.7031"/><text fill="#000000" font-family="sans-serif" font-size="14" font-style="italic" lengthAdjust="spacing" textLength="118" x="713.5" y="95.2363">&#171;component (C4)&#187;</text><text fill="#000000" font-family="sans-serif" font-size="14" lengthAdjust="spacing" textLength="36" x="754.5" y="112.8457">HTTP</text><rect fill="#E2E2F0" height="49.2188" rx="2.5" ry="2.5" style="stroke:#181818;stroke-width:0.5;" width="132" x="706.5" y="882.875"/><text fill="#000000" font-family="sans-serif" font-size="14" font-style="italic" lengthAdjust="spacing" textLength="118" x="713.5" y="904.4082">&#171;component (C4)&#187;</text><text fill="#000000" font-family="sans-serif" font-size="14" lengthAdjust="spacing" textLength="36" x="754.5" y="922.0176">HTTP</text><rect fill="#E2E2F0" height="49.2188" rx="2.5" ry="2.5" style="stroke:#181818;stroke-width:0.5;" width="169" x="894" y="73.7031"/><text fill="#000000" font-family="sans-serif" font-size="14" font-style="italic" lengthAdjust="spacing" textLength="78" x="939.5" y="95.2363">&#171;Controller&#187;</text><text fill="#000000" font-family="sans-serif" font-size="14" lengthAdjust="spacing" textLength="155" x="901" y="112.8457">SpecializationsController</text><rect fill="#E2E2F0" height="49.2188" rx="2.5" ry="2.5" style="stroke:#181818;stroke-width:0.5;" width="169" x="894" y="882.875"/><text fill="#000000" font-family="sans-serif" font-size="14" font-style="italic" lengthAdjust="spacing" textLength="78" x="939.5" y="904.4082">&#171;Controller&#187;</text><text fill="#000000" font-family="sans-serif" font-size="14" lengthAdjust="spacing" textLength="155" x="901" y="922.0176">SpecializationsController</text><rect fill="#E2E2F0" height="49.2188" rx="2.5" ry="2.5" style="stroke:#181818;stroke-width:0.5;" width="147" x="1073" y="73.7031"/><text fill="#000000" font-family="sans-serif" font-size="14" font-style="italic" lengthAdjust="spacing" textLength="62" x="1115.5" y="95.2363">&#171;Service&#187;</text><text fill="#000000" font-family="sans-serif" font-size="14" lengthAdjust="spacing" textLength="133" x="1080" y="112.8457">SpecializationService</text><rect fill="#E2E2F0" height="49.2188" rx="2.5" ry="2.5" style="stroke:#181818;stroke-width:0.5;" width="147" x="1073" y="882.875"/><text fill="#000000" font-family="sans-serif" font-size="14" font-style="italic" lengthAdjust="spacing" textLength="62" x="1115.5" y="904.4082">&#171;Service&#187;</text><text fill="#000000" font-family="sans-serif" font-size="14" lengthAdjust="spacing" textLength="133" x="1080" y="922.0176">SpecializationService</text><rect fill="#E2E2F0" height="49.2188" rx="2.5" ry="2.5" style="stroke:#181818;stroke-width:0.5;" width="122" x="1316.5" y="882.875"/><text fill="#000000" font-family="sans-serif" font-size="14" font-style="italic" lengthAdjust="spacing" textLength="64" x="1345.5" y="904.4082">&#171;Domain&#187;</text><text fill="#000000" font-family="sans-serif" font-size="14" lengthAdjust="spacing" textLength="108" x="1323.5" y="922.0176">SpecializationDto</text><text fill="#000000" font-family="sans-serif" font-size="14" font-style="italic" lengthAdjust="spacing" textLength="64" x="1493.5" y="103.2363">&#171;Domain&#187;</text><text fill="#000000" font-family="sans-serif" font-size="14" lengthAdjust="spacing" textLength="154" x="1448.5" y="120.8457">SpecializationRepository</text><path d="M1510.5,52.7031 C1510.5,42.7031 1528.5,42.7031 1528.5,42.7031 C1528.5,42.7031 1546.5,42.7031 1546.5,52.7031 L1546.5,78.7031 C1546.5,88.7031 1528.5,88.7031 1528.5,88.7031 C1528.5,88.7031 1510.5,88.7031 1510.5,78.7031 L1510.5,52.7031 " fill="#E2E2F0" style="stroke:#181818;stroke-width:1.5;"/><path d="M1510.5,52.7031 C1510.5,62.7031 1528.5,62.7031 1528.5,62.7031 C1528.5,62.7031 1546.5,62.7031 1546.5,52.7031 " fill="none" style="stroke:#181818;stroke-width:1.5;"/><text fill="#000000" font-family="sans-serif" font-size="14" font-style="italic" lengthAdjust="spacing" textLength="64" x="1493.5" y="897.4082">&#171;Domain&#187;</text><text fill="#000000" font-family="sans-serif" font-size="14" lengthAdjust="spacing" textLength="154" x="1448.5" y="915.0176">SpecializationRepository</text><path d="M1510.5,928.0938 C1510.5,918.0938 1528.5,918.0938 1528.5,918.0938 C1528.5,918.0938 1546.5,918.0938 1546.5,928.0938 L1546.5,954.0938 C1546.5,964.0938 1528.5,964.0938 1528.5,964.0938 C1528.5,964.0938 1510.5,964.0938 1510.5,954.0938 L1510.5,928.0938 " fill="#E2E2F0" style="stroke:#181818;stroke-width:1.5;"/><path d="M1510.5,928.0938 C1510.5,938.0938 1528.5,938.0938 1528.5,938.0938 C1528.5,938.0938 1546.5,938.0938 1546.5,928.0938 " fill="none" style="stroke:#181818;stroke-width:1.5;"/><text fill="#000000" font-family="sans-serif" font-size="14" font-style="italic" lengthAdjust="spacing" textLength="64" x="1635" y="103.2363">&#171;Domain&#187;</text><text fill="#000000" font-family="sans-serif" font-size="14" lengthAdjust="spacing" textLength="97" x="1618.5" y="120.8457">StaffRepository</text><path d="M1652,52.7031 C1652,42.7031 1670,42.7031 1670,42.7031 C1670,42.7031 1688,42.7031 1688,52.7031 L1688,78.7031 C1688,88.7031 1670,88.7031 1670,88.7031 C1670,88.7031 1652,88.7031 1652,78.7031 L1652,52.7031 " fill="#E2E2F0" style="stroke:#181818;stroke-width:1.5;"/><path d="M1652,52.7031 C1652,62.7031 1670,62.7031 1670,62.7031 C1670,62.7031 1688,62.7031 1688,52.7031 " fill="none" style="stroke:#181818;stroke-width:1.5;"/><text fill="#000000" font-family="sans-serif" font-size="14" font-style="italic" lengthAdjust="spacing" textLength="64" x="1635" y="897.4082">&#171;Domain&#187;</text><text fill="#000000" font-family="sans-serif" font-size="14" lengthAdjust="spacing" textLength="97" x="1618.5" y="915.0176">StaffRepository</text><path d="M1652,928.0938 C1652,918.0938 1670,918.0938 1670,918.0938 C1670,918.0938 1688,918.0938 1688,928.0938 L1688,954.0938 C1688,964.0938 1670,964.0938 1670,964.0938 C1670,964.0938 1652,964.0938 1652,954.0938 L1652,928.0938 " fill="#E2E2F0" style="stroke:#181818;stroke-width:1.5;"/><path d="M1652,928.0938 C1652,938.0938 1670,938.0938 1670,938.0938 C1670,938.0938 1688,938.0938 1688,928.0938 " fill="none" style="stroke:#181818;stroke-width:1.5;"/><text fill="#000000" font-family="sans-serif" font-size="14" font-style="italic" lengthAdjust="spacing" textLength="64" x="1824" y="103.2363">&#171;Domain&#187;</text><text fill="#000000" font-family="sans-serif" font-size="14" lengthAdjust="spacing" textLength="249" x="1731.5" y="120.8457">OperationTypeSpecializationRepository</text><path d="M1841,52.7031 C1841,42.7031 1859,42.7031 1859,42.7031 C1859,42.7031 1877,42.7031 1877,52.7031 L1877,78.7031 C1877,88.7031 1859,88.7031 1859,88.7031 C1859,88.7031 1841,88.7031 1841,78.7031 L1841,52.7031 " fill="#E2E2F0" style="stroke:#181818;stroke-width:1.5;"/><path d="M1841,52.7031 C1841,62.7031 1859,62.7031 1859,62.7031 C1859,62.7031 1877,62.7031 1877,52.7031 " fill="none" style="stroke:#181818;stroke-width:1.5;"/><text fill="#000000" font-family="sans-serif" font-size="14" font-style="italic" lengthAdjust="spacing" textLength="64" x="1824" y="897.4082">&#171;Domain&#187;</text><text fill="#000000" font-family="sans-serif" font-size="14" lengthAdjust="spacing" textLength="249" x="1731.5" y="915.0176">OperationTypeSpecializationRepository</text><path d="M1841,928.0938 C1841,918.0938 1859,918.0938 1859,918.0938 C1859,918.0938 1877,918.0938 1877,928.0938 L1877,954.0938 C1877,964.0938 1859,964.0938 1859,964.0938 C1859,964.0938 1841,964.0938 1841,954.0938 L1841,928.0938 " fill="#E2E2F0" style="stroke:#181818;stroke-width:1.5;"/><path d="M1841,928.0938 C1841,938.0938 1859,938.0938 1859,938.0938 C1859,938.0938 1877,938.0938 1877,928.0938 " fill="none" style="stroke:#181818;stroke-width:1.5;"/><rect fill="#FFFFFF" height="731.9531" style="stroke:#181818;stroke-width:1.0;" width="10" x="22.5" y="133.9219"/><rect fill="#FFFFFF" height="30.3516" style="stroke:#181818;stroke-width:1.0;" width="10" x="248.5" y="156.2734"/><rect fill="#FFFFFF" height="648.8984" style="stroke:#181818;stroke-width:1.0;" width="10" x="248.5" y="216.9766"/><rect fill="#FFFFFF" height="588.1953" style="stroke:#181818;stroke-width:1.0;" width="10" x="419.5" y="247.3281"/><rect fill="#FFFFFF" height="527.4922" style="stroke:#181818;stroke-width:1.0;" width="10" x="590.5" y="277.6797"/><rect fill="#FFFFFF" height="466.7891" style="stroke:#181818;stroke-width:1.0;" width="10" x="767.5" y="308.0313"/><rect fill="#FFFFFF" height="406.0859" style="stroke:#181818;stroke-width:1.0;" width="10" x="973.5" y="338.3828"/><rect fill="#FFFFFF" height="345.3828" style="stroke:#181818;stroke-width:1.0;" width="10" x="1141.5" y="368.7344"/><rect fill="#FFFFFF" height="50.2188" style="stroke:#181818;stroke-width:1.0;" width="10" x="1372.5" y="633.5469"/><rect fill="#FFFFFF" height="30.3516" style="stroke:#181818;stroke-width:1.0;" width="10" x="1523.5" y="399.0859"/><rect fill="#FFFFFF" height="33.3516" style="stroke:#181818;stroke-width:1.0;" width="10" x="1665" y="459.7891"/><rect fill="#FFFFFF" height="33.3516" style="stroke:#181818;stroke-width:1.0;" width="10" x="1854" y="526.4922"/><polygon fill="#181818" points="236.5,152.2734,246.5,156.2734,236.5,160.2734,240.5,156.2734" style="stroke:#181818;stroke-width:1.0;"/><line style="stroke:#181818;stroke-width:1.0;" x1="32.5" x2="242.5" y1="156.2734" y2="156.2734"/><text fill="#000000" font-family="sans-serif" font-size="13" font-weight="bold" lengthAdjust="spacing" textLength="7" x="42" y="151.417">1</text><text fill="#000000" font-family="sans-serif" font-size="13" lengthAdjust="spacing" textLength="186" x="53" y="151.417">Asks to remove a Specialization</text><polygon fill="#181818" points="43.5,182.625,33.5,186.625,43.5,190.625,39.5,186.625" style="stroke:#181818;stroke-width:1.0;"/><line style="stroke:#181818;stroke-width:1.0;stroke-dasharray:2.0,2.0;" x1="37.5" x2="252.5" y1="186.625" y2="186.625"/><text fill="#000000" font-family="sans-serif" font-size="13" font-weight="bold" lengthAdjust="spacing" textLength="7" x="92" y="181.7686">2</text><text fill="#000000" font-family="sans-serif" font-size="13" lengthAdjust="spacing" textLength="91" x="103" y="181.7686">Asks to confirm</text><polygon fill="#181818" points="236.5,212.9766,246.5,216.9766,236.5,220.9766,240.5,216.9766" style="stroke:#181818;stroke-width:1.0;"/><line style="stroke:#181818;stroke-width:1.0;" x1="32.5" x2="242.5" y1="216.9766" y2="216.9766"/><text fill="#000000" font-family="sans-serif" font-size="13" font-weight="bold" lengthAdjust="spacing" textLength="7" x="109.5" y="212.1201">3</text><text fill="#000000" font-family="sans-serif" font-size="13" lengthAdjust="spacing" textLength="51" x="120.5" y="212.1201">Confirms</text><polygon fill="#181818" points="407.5,243.3281,417.5,247.3281,407.5,251.3281,411.5,247.3281" style="stroke:#181818;stroke-width:1.0;"/><line style="stroke:#181818;stroke-width:1.0;" x1="258.5" x2="413.5" y1="247.3281" y2="247.3281"/><text fill="#000000" font-family="sans-serif" font-size="13" font-weight="bold" lengthAdjust="spacing" textLength="7" x="268" y="242.4717">4</text><text fill="#000000" font-family="sans-serif" font-size="13" lengthAdjust="spacing" textLength="131" x="279" y="242.4717">Remove Specialization</text><polygon fill="#181818" points="578.5,273.6797,588.5,277.6797,578.5,281.6797,582.5,277.6797" style="stroke:#181818;stroke-width:1.0;"/><line style="stroke:#181818;stroke-width:1.0;" x1="429.5" x2="584.5" y1="277.6797" y2="277.6797"/><text fill="#000000" font-family="sans-serif" font-size="13" font-weight="bold" lengthAdjust="spacing" textLength="7" x="439" y="272.8232">5</text><text fill="#000000" font-family="sans-serif" font-size="13" lengthAdjust="spacing" textLength="131" x="450" y="272.8232">Remove Specialization</text><polygon fill="#181818" points="755.5,304.0313,765.5,308.0313,755.5,312.0313,759.5,308.0313" style="stroke:#181818;stroke-width:1.0;"/><line style="stroke:#181818;stroke-width:1.0;" x1="600.5" x2="761.5" y1="308.0313" y2="308.0313"/><text fill="#000000" font-family="sans-serif" font-size="13" font-weight="bold" lengthAdjust="spacing" textLength="7" x="610" y="303.1748">6</text><text fill="#000000" font-family="sans-serif" font-size="13" lengthAdjust="spacing" textLength="137" x="621" y="303.1748">delete('/specializations')</text><polygon fill="#181818" points="961.5,334.3828,971.5,338.3828,961.5,342.3828,965.5,338.3828" style="stroke:#181818;stroke-width:1.0;"/><line style="stroke:#181818;stroke-width:1.0;" x1="777.5" x2="967.5" y1="338.3828" y2="338.3828"/><text fill="#000000" font-family="sans-serif" font-size="13" font-weight="bold" lengthAdjust="spacing" textLength="7" x="787" y="333.5264">7</text><text fill="#000000" font-family="sans-serif" font-size="13" lengthAdjust="spacing" textLength="166" x="798" y="333.5264">DELETE /specializations/{id}</text><polygon fill="#181818" points="1129.5,364.7344,1139.5,368.7344,1129.5,372.7344,1133.5,368.7344" style="stroke:#181818;stroke-width:1.0;"/><line style="stroke:#181818;stroke-width:1.0;" x1="983.5" x2="1135.5" y1="368.7344" y2="368.7344"/><text fill="#000000" font-family="sans-serif" font-size="13" font-weight="bold" lengthAdjust="spacing" textLength="7" x="1006.5" y="363.8779">8</text><text fill="#000000" font-family="sans-serif" font-size="13" lengthAdjust="spacing" textLength="101" x="1017.5" y="363.8779">RemoveAsync(id)</text><polygon fill="#181818" points="1511.5,395.0859,1521.5,399.0859,1511.5,403.0859,1515.5,399.0859" style="stroke:#181818;stroke-width:1.0;"/><line style="stroke:#181818;stroke-width:1.0;" x1="1151.5" x2="1517.5" y1="399.0859" y2="399.0859"/><text fill="#000000" font-family="sans-serif" font-size="13" font-weight="bold" lengthAdjust="spacing" textLength="7" x="1281" y="394.2295">9</text><text fill="#000000" font-family="sans-serif" font-size="13" lengthAdjust="spacing" textLength="102" x="1292" y="394.2295">GetByIdAsync(id)</text><polygon fill="#181818" points="1162.5,425.4375,1152.5,429.4375,1162.5,433.4375,1158.5,429.4375" style="stroke:#181818;stroke-width:1.0;"/><line style="stroke:#181818;stroke-width:1.0;stroke-dasharray:2.0,2.0;" x1="1156.5" x2="1527.5" y1="429.4375" y2="429.4375"/><text fill="#000000" font-family="sans-serif" font-size="13" font-weight="bold" lengthAdjust="spacing" textLength="14" x="1291.5" y="424.5811">10</text><text fill="#000000" font-family="sans-serif" font-size="13" lengthAdjust="spacing" textLength="79" x="1309.5" y="424.5811">specialization</text><polygon fill="#181818" points="1653,455.7891,1663,459.7891,1653,463.7891,1657,459.7891" style="stroke:#181818;stroke-width:1.0;"/><line style="stroke:#181818;stroke-width:1.0;" x1="1151.5" x2="1659" y1="459.7891" y2="459.7891"/><text fill="#000000" font-family="sans-serif" font-size="13" font-weight="bold" lengthAdjust="spacing" textLength="14" x="1296.25" y="454.9326">11</text><text fill="#000000" font-family="sans-serif" font-size="13" lengthAdjust="spacing" textLength="206" x="1314.25" y="454.9326">GetStaffsAsync(specializationId: id)</text><polygon fill="#181818" points="1162.5,489.1406,1152.5,493.1406,1162.5,497.1406,1158.5,493.1406" style="stroke:#181818;stroke-width:1.0;"/><line style="stroke:#181818;stroke-width:1.0;stroke-dasharray:2.0,2.0;" x1="1156.5" x2="1669" y1="493.1406" y2="493.1406"/><text fill="#000000" font-family="sans-serif" font-size="13" font-weight="bold" lengthAdjust="spacing" textLength="14" x="1386.25" y="488.2842">12</text><text fill="#000000" font-family="sans-serif" font-size="13" lengthAdjust="spacing" textLength="31" x="1404.25" y="488.2842">staffs</text><path d="M942,472.7891 L942,498.7891 L1136,498.7891 L1136,482.7891 L1126,472.7891 L942,472.7891 " fill="#FEFFDD" style="stroke:#181818;stroke-width:0.5;"/><path d="M1126,472.7891 L1126,482.7891 L1136,482.7891 L1126,472.7891 " fill="#FEFFDD" style="stroke:#181818;stroke-width:0.5;"/><text fill="#000000" font-family="sans-serif" font-size="13" lengthAdjust="spacing" textLength="164" x="957" y="491.2842">if staffs.Count &gt; 0 return 400</text><polygon fill="#181818" points="1842,522.4922,1852,526.4922,1842,530.4922,1846,526.4922" style="stroke:#181818;stroke-width:1.0;"/><line style="stroke:#181818;stroke-width:1.0;" x1="1151.5" x2="1848" y1="526.4922" y2="526.4922"/><text fill="#000000" font-family="sans-serif" font-size="13" font-weight="bold" lengthAdjust="spacing" textLength="14" x="1453.25" y="521.6357">13</text><text fill="#000000" font-family="sans-serif" font-size="13" lengthAdjust="spacing" textLength="81" x="1471.25" y="521.6357">GetAllAsync()</text><polygon fill="#181818" points="1162.5,555.8438,1152.5,559.8438,1162.5,563.8438,1158.5,559.8438" style="stroke:#181818;stroke-width:1.0;"/><line style="stroke:#181818;stroke-width:1.0;stroke-dasharray:2.0,2.0;" x1="1156.5" x2="1858" y1="559.8438" y2="559.8438"/><text fill="#000000" font-family="sans-serif" font-size="13" font-weight="bold" lengthAdjust="spacing" textLength="14" x="1411.75" y="554.9873">14</text><text fill="#000000" font-family="sans-serif" font-size="13" lengthAdjust="spacing" textLength="169" x="1429.75" y="554.9873">operationTypeSpecializations</text><path d="M659,539.4922 L659,565.4922 L1136,565.4922 L1136,549.4922 L1126,539.4922 L659,539.4922 " fill="#FEFFDD" style="stroke:#181818;stroke-width:0.5;"/><path d="M1126,539.4922 L1126,549.4922 L1136,549.4922 L1126,539.4922 " fill="#FEFFDD" style="stroke:#181818;stroke-width:0.5;"/><text fill="#000000" font-family="sans-serif" font-size="13" lengthAdjust="spacing" textLength="447" x="674" y="557.9873">if any operationTypeSpecialization.Specialization.Id.AsGuid() == id return 400</text><polygon fill="#181818" points="1516.5,589.1953,1526.5,593.1953,1516.5,597.1953,1520.5,593.1953" style="stroke:#181818;stroke-width:1.0;"/><line style="stroke:#181818;stroke-width:1.0;" x1="1151.5" x2="1522.5" y1="593.1953" y2="593.1953"/><text fill="#000000" font-family="sans-serif" font-size="13" font-weight="bold" lengthAdjust="spacing" textLength="14" x="1264.5" y="588.3389">15</text><text fill="#000000" font-family="sans-serif" font-size="13" lengthAdjust="spacing" textLength="133" x="1282.5" y="588.3389">Remove(specialization)</text><polygon fill="#181818" points="1304.5,619.5469,1314.5,623.5469,1304.5,627.5469,1308.5,623.5469" style="stroke:#181818;stroke-width:1.0;"/><line style="stroke:#181818;stroke-width:1.0;" x1="1151.5" x2="1310.5" y1="623.5469" y2="623.5469"/><text fill="#000000" font-family="sans-serif" font-size="13" font-weight="bold" lengthAdjust="spacing" textLength="14" x="1163.5" y="618.6904">16</text><text fill="#000000" font-family="sans-serif" font-size="13" lengthAdjust="spacing" textLength="123" x="1181.5" y="618.6904">create(specialization)</text><rect fill="#E2E2F0" height="49.2188" rx="2.5" ry="2.5" style="stroke:#181818;stroke-width:0.5;" width="122" x="1316.5" y="601.1953"/><text fill="#000000" font-family="sans-serif" font-size="14" font-style="italic" lengthAdjust="spacing" textLength="64" x="1345.5" y="622.7285">&#171;Domain&#187;</text><text fill="#000000" font-family="sans-serif" font-size="14" lengthAdjust="spacing" textLength="108" x="1323.5" y="640.3379">SpecializationDto</text><polygon fill="#181818" points="1162.5,679.7656,1152.5,683.7656,1162.5,687.7656,1158.5,683.7656" style="stroke:#181818;stroke-width:1.0;"/><line style="stroke:#181818;stroke-width:1.0;stroke-dasharray:2.0,2.0;" x1="1156.5" x2="1376.5" y1="683.7656" y2="683.7656"/><text fill="#000000" font-family="sans-serif" font-size="13" font-weight="bold" lengthAdjust="spacing" textLength="14" x="1206" y="678.9092">17</text><text fill="#000000" font-family="sans-serif" font-size="13" lengthAdjust="spacing" textLength="99" x="1224" y="678.9092">specializationDto</text><polygon fill="#181818" points="994.5,710.1172,984.5,714.1172,994.5,718.1172,990.5,714.1172" style="stroke:#181818;stroke-width:1.0;"/><line style="stroke:#181818;stroke-width:1.0;stroke-dasharray:2.0,2.0;" x1="988.5" x2="1145.5" y1="714.1172" y2="714.1172"/><text fill="#000000" font-family="sans-serif" font-size="13" font-weight="bold" lengthAdjust="spacing" textLength="14" x="1006.5" y="709.2607">18</text><text fill="#000000" font-family="sans-serif" font-size="13" lengthAdjust="spacing" textLength="99" x="1024.5" y="709.2607">specializationDto</text><polygon fill="#181818" points="788.5,740.4688,778.5,744.4688,788.5,748.4688,784.5,744.4688" style="stroke:#181818;stroke-width:1.0;"/><line style="stroke:#181818;stroke-width:1.0;stroke-dasharray:2.0,2.0;" x1="782.5" x2="977.5" y1="744.4688" y2="744.4688"/><text fill="#000000" font-family="sans-serif" font-size="13" font-weight="bold" lengthAdjust="spacing" textLength="14" x="813" y="739.6123">19</text><text fill="#000000" font-family="sans-serif" font-size="13" lengthAdjust="spacing" textLength="112" x="831" y="739.6123">200 (specialization)</text><polygon fill="#181818" points="611.5,770.8203,601.5,774.8203,611.5,778.8203,607.5,774.8203" style="stroke:#181818;stroke-width:1.0;"/><line style="stroke:#181818;stroke-width:1.0;stroke-dasharray:2.0,2.0;" x1="605.5" x2="771.5" y1="774.8203" y2="774.8203"/><text fill="#000000" font-family="sans-serif" font-size="13" font-weight="bold" lengthAdjust="spacing" textLength="14" x="638" y="769.9639">20</text><text fill="#000000" font-family="sans-serif" font-size="13" lengthAdjust="spacing" textLength="79" x="656" y="769.9639">specialization</text><polygon fill="#181818" points="440.5,801.1719,430.5,805.1719,440.5,809.1719,436.5,805.1719" style="stroke:#181818;stroke-width:1.0;"/><line style="stroke:#181818;stroke-width:1.0;stroke-dasharray:2.0,2.0;" x1="434.5" x2="594.5" y1="805.1719" y2="805.1719"/><text fill="#000000" font-family="sans-serif" font-size="13" font-weight="bold" lengthAdjust="spacing" textLength="14" x="464" y="800.3154">21</text><text fill="#000000" font-family="sans-serif" font-size="13" lengthAdjust="spacing" textLength="79" x="482" y="800.3154">specialization</text><polygon fill="#181818" points="269.5,831.5234,259.5,835.5234,269.5,839.5234,265.5,835.5234" style="stroke:#181818;stroke-width:1.0;"/><line style="stroke:#181818;stroke-width:1.0;stroke-dasharray:2.0,2.0;" x1="263.5" x2="423.5" y1="835.5234" y2="835.5234"/><text fill="#000000" font-family="sans-serif" font-size="13" font-weight="bold" lengthAdjust="spacing" textLength="14" x="293" y="830.667">22</text><text fill="#000000" font-family="sans-serif" font-size="13" lengthAdjust="spacing" textLength="79" x="311" y="830.667">specialization</text><polygon fill="#181818" points="38.5,861.875,28.5,865.875,38.5,869.875,34.5,865.875" style="stroke:#181818;stroke-width:1.0;"/><line style="stroke:#181818;stroke-width:1.0;stroke-dasharray:2.0,2.0;" x1="32.5" x2="252.5" y1="865.875" y2="865.875"/><text fill="#000000" font-family="sans-serif" font-size="13" font-weight="bold" lengthAdjust="spacing" textLength="14" x="57" y="861.0186">23</text><text fill="#000000" font-family="sans-serif" font-size="13" lengthAdjust="spacing" textLength="149" x="75" y="861.0186">Shows success message</text><!--SRC=[fPTTJzim58Rl-okixe8MgL1DN5MXKcaPgyIq2RgxIPMRk62Hs57iCBff_tqdThvZvmDyKUB4vpd7htti0uubPt5m8D58l50MuWW7Q4EEEFRbZhp9bK-VM42OH2xym2ZiIXwXbHTGXh10O_Kq7eqE_0sD7KUSX2G1cgolfilbB_Obuc35lF6dU_hqB6_yc8mGDF0ZgKj33E0r3qBEWFvpguZm9tyrHexZPfsKQWSeys6sZoHwfIvHbkbpBxklkzqFPPGy62rWrWX4iIbpWzsNPCW6Iuo-OOQVI2Bps30x9YFk-oJIGOR4fTYdVx2ad8dYAxWeElQPxWsKREAEapwPp2iM6yaD77WBZ0qFC6KfmeFf7R0WDVi74fe0oMj1OOETx1o9ZyV2FEkbLiXczZqaaNAnEuN44al768EBV8qXA-WhbaGdXdAjKsIshEpl1Lg95u50lOW4_1NsNKqOPPhJIgRgGzBAk1dWjPy2x79sf56Wfq-iA4juQsqj1iPHmW3aGS_DC3CpDVzKuIRKB3sxc1LkQbJvcBGC1boLlWlGnoUIJCukHJMhpgODuvoUc3Q-9aqnbH9vmYxGvlR-TdUBwWuk_rBldv5IKoX3MSTgoNAFXMRxNBILE35tGhrfAwGktxvrT4dFlNBQJAa5kYFovhJr-lclnj30TTggY9fHpAgA2Fl-CRLI0hqZf8f0-RcbT55TePMfnhJr5cYOLXcvdqHv77LbL4I35Edjc74OxfEZXAaTKqyNQnv3aY_H7Cv26KSCNStdWoJjEjELq2lVroeFKBG3t4ldhk1gwdFxy45hyj7Ggok5sQajiejQT-jThCHTJBt955rVmov-xyeQ5rCVPhLicNw02-NA-Jc0tOY0T8F1bfC1gEyugvA2glMeweErdbPzZ0kTwdVOi43AGNJT9EMBgxYLFy_dgDTgLCgRrfjItysLWgBZ9YYnZJT-NapKQfyMR5CPM-7JACiiL5DzLwhkdDcindbyvhy54h7h4Y5G03_mVqTRgLXwhKlR_m00]--></g></svg>