<?xml version="1.0" encoding="us-ascii" standalone="no"?><svg xmlns="http://www.w3.org/2000/svg" xmlns:xlink="http://www.w3.org/1999/xlink" contentStyleType="text/css" height="539px" preserveAspectRatio="none" style="width:1018px;height:539px;background:#FFFFFF;" version="1.1" viewBox="0 0 1018 539" width="1018px" zoomAndPan="magnify"><defs/><g><rect fill="#FFFFFF" height="337.2188" style="stroke:#181818;stroke-width:1.0;" width="10" x="22.5" y="96.2188"/><rect fill="#FFFFFF" height="305.8672" style="stroke:#181818;stroke-width:1.0;" width="10" x="172.5" y="118.5703"/><rect fill="#FFFFFF" height="245.1641" style="stroke:#181818;stroke-width:1.0;" width="10" x="385.5" y="148.9219"/><rect fill="#FFFFFF" height="30.3516" style="stroke:#181818;stroke-width:1.0;" width="10" x="752.5" y="211.9766"/><rect fill="#FFFFFF" height="30.3516" style="stroke:#181818;stroke-width:1.0;" width="10" x="841.5" y="333.3828"/><rect fill="#FFFFFF" height="30.3516" style="stroke:#181818;stroke-width:1.0;" width="10" x="952" y="272.6797"/><line style="stroke:#181818;stroke-width:0.5;stroke-dasharray:5.0,5.0;" x1="27" x2="27" y1="86.2188" y2="442.4375"/><line style="stroke:#181818;stroke-width:0.5;stroke-dasharray:5.0,5.0;" x1="177" x2="177" y1="86.2188" y2="442.4375"/><line style="stroke:#181818;stroke-width:0.5;stroke-dasharray:5.0,5.0;" x1="390" x2="390" y1="86.2188" y2="442.4375"/><line style="stroke:#181818;stroke-width:0.5;stroke-dasharray:5.0,5.0;" x1="757.5" x2="757.5" y1="86.2188" y2="442.4375"/><line style="stroke:#181818;stroke-width:0.5;stroke-dasharray:5.0,5.0;" x1="846.5" x2="846.5" y1="86.2188" y2="442.4375"/><line style="stroke:#181818;stroke-width:0.5;stroke-dasharray:5.0,5.0;" x1="956.5" x2="956.5" y1="86.2188" y2="442.4375"/><text fill="#000000" font-family="sans-serif" font-size="14" lengthAdjust="spacing" textLength="39" x="5" y="83.1426">Admin</text><ellipse cx="27.5" cy="17.1094" fill="#E2E2F0" rx="8" ry="8" style="stroke:#181818;stroke-width:0.5;"/><path d="M27.5,25.1094 L27.5,52.1094 M14.5,33.1094 L40.5,33.1094 M27.5,52.1094 L14.5,67.1094 M27.5,52.1094 L40.5,67.1094 " fill="none" style="stroke:#181818;stroke-width:0.5;"/><text fill="#000000" font-family="sans-serif" font-size="14" lengthAdjust="spacing" textLength="39" x="5" y="455.9707">Admin</text><ellipse cx="27.5" cy="467.5469" fill="#E2E2F0" rx="8" ry="8" style="stroke:#181818;stroke-width:0.5;"/><path d="M27.5,475.5469 L27.5,502.5469 M14.5,483.5469 L40.5,483.5469 M27.5,502.5469 L14.5,517.5469 M27.5,502.5469 L40.5,517.5469 " fill="none" style="stroke:#181818;stroke-width:0.5;"/><rect fill="#E2E2F0" height="49.2188" rx="2.5" ry="2.5" style="stroke:#181818;stroke-width:0.5;" width="127" x="114" y="36"/><text fill="#000000" font-family="sans-serif" font-size="14" font-style="italic" lengthAdjust="spacing" textLength="78" x="138.5" y="57.5332">&#171;Controller&#187;</text><text fill="#000000" font-family="sans-serif" font-size="14" lengthAdjust="spacing" textLength="113" x="121" y="75.1426">PatientsController</text><rect fill="#E2E2F0" height="49.2188" rx="2.5" ry="2.5" style="stroke:#181818;stroke-width:0.5;" width="127" x="114" y="441.4375"/><text fill="#000000" font-family="sans-serif" font-size="14" font-style="italic" lengthAdjust="spacing" textLength="78" x="138.5" y="462.9707">&#171;Controller&#187;</text><text fill="#000000" font-family="sans-serif" font-size="14" lengthAdjust="spacing" textLength="113" x="121" y="480.5801">PatientsController</text><rect fill="#E2E2F0" height="49.2188" rx="2.5" ry="2.5" style="stroke:#181818;stroke-width:0.5;" width="103" x="339" y="36"/><text fill="#000000" font-family="sans-serif" font-size="14" font-style="italic" lengthAdjust="spacing" textLength="62" x="359.5" y="57.5332">&#171;Service&#187;</text><text fill="#000000" font-family="sans-serif" font-size="14" lengthAdjust="spacing" textLength="89" x="346" y="75.1426">Patientservice</text><rect fill="#E2E2F0" height="49.2188" rx="2.5" ry="2.5" style="stroke:#181818;stroke-width:0.5;" width="103" x="339" y="441.4375"/><text fill="#000000" font-family="sans-serif" font-size="14" font-style="italic" lengthAdjust="spacing" textLength="62" x="359.5" y="462.9707">&#171;Service&#187;</text><text fill="#000000" font-family="sans-serif" font-size="14" lengthAdjust="spacing" textLength="89" x="346" y="480.5801">Patientservice</text><rect fill="#E2E2F0" height="49.2188" rx="2.5" ry="2.5" style="stroke:#181818;stroke-width:0.5;" width="78" x="718.5" y="36"/><text fill="#000000" font-family="sans-serif" font-size="14" font-style="italic" lengthAdjust="spacing" textLength="64" x="725.5" y="57.5332">&#171;Domain&#187;</text><text fill="#000000" font-family="sans-serif" font-size="14" lengthAdjust="spacing" textLength="44" x="735.5" y="75.1426">Patient</text><rect fill="#E2E2F0" height="49.2188" rx="2.5" ry="2.5" style="stroke:#181818;stroke-width:0.5;" width="78" x="718.5" y="441.4375"/><text fill="#000000" font-family="sans-serif" font-size="14" font-style="italic" lengthAdjust="spacing" textLength="64" x="725.5" y="462.9707">&#171;Domain&#187;</text><text fill="#000000" font-family="sans-serif" font-size="14" lengthAdjust="spacing" textLength="44" x="735.5" y="480.5801">Patient</text><rect fill="#E2E2F0" height="49.2188" rx="2.5" ry="2.5" style="stroke:#181818;stroke-width:0.5;" width="80" x="806.5" y="36"/><text fill="#000000" font-family="sans-serif" font-size="14" font-style="italic" lengthAdjust="spacing" textLength="64" x="814.5" y="57.5332">&#171;Domain&#187;</text><text fill="#000000" font-family="sans-serif" font-size="14" lengthAdjust="spacing" textLength="66" x="813.5" y="75.1426">PatientDto</text><rect fill="#E2E2F0" height="49.2188" rx="2.5" ry="2.5" style="stroke:#181818;stroke-width:0.5;" width="80" x="806.5" y="441.4375"/><text fill="#000000" font-family="sans-serif" font-size="14" font-style="italic" lengthAdjust="spacing" textLength="64" x="814.5" y="462.9707">&#171;Domain&#187;</text><text fill="#000000" font-family="sans-serif" font-size="14" lengthAdjust="spacing" textLength="66" x="813.5" y="480.5801">PatientDto</text><text fill="#000000" font-family="sans-serif" font-size="14" font-style="italic" lengthAdjust="spacing" textLength="64" x="922" y="65.5332">&#171;Domain&#187;</text><text fill="#000000" font-family="sans-serif" font-size="14" lengthAdjust="spacing" textLength="115" x="896.5" y="83.1426">IPatientRepository</text><path d="M939,15 C939,5 957,5 957,5 C957,5 975,5 975,15 L975,41 C975,51 957,51 957,51 C957,51 939,51 939,41 L939,15 " fill="#E2E2F0" style="stroke:#181818;stroke-width:1.5;"/><path d="M939,15 C939,25 957,25 957,25 C957,25 975,25 975,15 " fill="none" style="stroke:#181818;stroke-width:1.5;"/><text fill="#000000" font-family="sans-serif" font-size="14" font-style="italic" lengthAdjust="spacing" textLength="64" x="922" y="455.9707">&#171;Domain&#187;</text><text fill="#000000" font-family="sans-serif" font-size="14" lengthAdjust="spacing" textLength="115" x="896.5" y="473.5801">IPatientRepository</text><path d="M939,486.6563 C939,476.6563 957,476.6563 957,476.6563 C957,476.6563 975,476.6563 975,486.6563 L975,512.6563 C975,522.6563 957,522.6563 957,522.6563 C957,522.6563 939,522.6563 939,512.6563 L939,486.6563 " fill="#E2E2F0" style="stroke:#181818;stroke-width:1.5;"/><path d="M939,486.6563 C939,496.6563 957,496.6563 957,496.6563 C957,496.6563 975,496.6563 975,486.6563 " fill="none" style="stroke:#181818;stroke-width:1.5;"/><rect fill="#FFFFFF" height="337.2188" style="stroke:#181818;stroke-width:1.0;" width="10" x="22.5" y="96.2188"/><rect fill="#FFFFFF" height="305.8672" style="stroke:#181818;stroke-width:1.0;" width="10" x="172.5" y="118.5703"/><rect fill="#FFFFFF" height="245.1641" style="stroke:#181818;stroke-width:1.0;" width="10" x="385.5" y="148.9219"/><rect fill="#FFFFFF" height="30.3516" style="stroke:#181818;stroke-width:1.0;" width="10" x="752.5" y="211.9766"/><rect fill="#FFFFFF" height="30.3516" style="stroke:#181818;stroke-width:1.0;" width="10" x="841.5" y="333.3828"/><rect fill="#FFFFFF" height="30.3516" style="stroke:#181818;stroke-width:1.0;" width="10" x="952" y="272.6797"/><polygon fill="#181818" points="160.5,114.5703,170.5,118.5703,160.5,122.5703,164.5,118.5703" style="stroke:#181818;stroke-width:1.0;"/><line style="stroke:#181818;stroke-width:1.0;" x1="32.5" x2="166.5" y1="118.5703" y2="118.5703"/><text fill="#000000" font-family="sans-serif" font-size="13" font-weight="bold" lengthAdjust="spacing" textLength="7" x="39.5" y="113.7139">1</text><text fill="#000000" font-family="sans-serif" font-size="13" lengthAdjust="spacing" textLength="110" x="50.5" y="113.7139">POST /api/patients</text><polygon fill="#181818" points="373.5,144.9219,383.5,148.9219,373.5,152.9219,377.5,148.9219" style="stroke:#181818;stroke-width:1.0;"/><line style="stroke:#181818;stroke-width:1.0;" x1="182.5" x2="379.5" y1="148.9219" y2="148.9219"/><text fill="#000000" font-family="sans-serif" font-size="13" font-weight="bold" lengthAdjust="spacing" textLength="7" x="189.5" y="144.0654">2</text><text fill="#000000" font-family="sans-serif" font-size="13" lengthAdjust="spacing" textLength="173" x="200.5" y="144.0654">addAsync(creatingPatientDto)</text><polygon fill="#181818" points="740.5,207.9766,750.5,211.9766,740.5,215.9766,744.5,211.9766" style="stroke:#181818;stroke-width:1.0;"/><line style="stroke:#181818;stroke-width:1.0;" x1="395.5" x2="746.5" y1="211.9766" y2="211.9766"/><text fill="#000000" font-family="sans-serif" font-size="13" font-weight="bold" lengthAdjust="spacing" textLength="7" x="402.5" y="190.7686">3</text><text fill="#000000" font-family="sans-serif" font-size="13" lengthAdjust="spacing" textLength="247" x="413.5" y="174.417">create(id, appointmentHistory, dateOfBirth,</text><text fill="#000000" font-family="sans-serif" font-size="13" lengthAdjust="spacing" textLength="274" x="413.5" y="190.7686">emergencyContact, gender, medicalConditions,</text><text fill="#000000" font-family="sans-serif" font-size="13" lengthAdjust="spacing" textLength="327" x="413.5" y="207.1201">contactInformation, firstName, lastName, fullName, user)</text><polygon fill="#181818" points="406.5,238.3281,396.5,242.3281,406.5,246.3281,402.5,242.3281" style="stroke:#181818;stroke-width:1.0;"/><line style="stroke:#181818;stroke-width:1.0;stroke-dasharray:2.0,2.0;" x1="400.5" x2="756.5" y1="242.3281" y2="242.3281"/><text fill="#000000" font-family="sans-serif" font-size="13" font-weight="bold" lengthAdjust="spacing" textLength="7" x="412.5" y="237.4717">4</text><text fill="#000000" font-family="sans-serif" font-size="13" lengthAdjust="spacing" textLength="41" x="423.5" y="237.4717">Patient</text><polygon fill="#181818" points="940,268.6797,950,272.6797,940,276.6797,944,272.6797" style="stroke:#181818;stroke-width:1.0;"/><line style="stroke:#181818;stroke-width:1.0;" x1="395.5" x2="946" y1="272.6797" y2="272.6797"/><text fill="#000000" font-family="sans-serif" font-size="13" font-weight="bold" lengthAdjust="spacing" textLength="7" x="402.5" y="267.8232">5</text><text fill="#000000" font-family="sans-serif" font-size="13" lengthAdjust="spacing" textLength="107" x="413.5" y="267.8232">addAsync(Patient)</text><polygon fill="#181818" points="406.5,299.0313,396.5,303.0313,406.5,307.0313,402.5,303.0313" style="stroke:#181818;stroke-width:1.0;"/><line style="stroke:#181818;stroke-width:1.0;stroke-dasharray:2.0,2.0;" x1="400.5" x2="956" y1="303.0313" y2="303.0313"/><text fill="#000000" font-family="sans-serif" font-size="13" font-weight="bold" lengthAdjust="spacing" textLength="7" x="412.5" y="298.1748">6</text><text fill="#000000" font-family="sans-serif" font-size="13" lengthAdjust="spacing" textLength="41" x="423.5" y="298.1748">Patient</text><polygon fill="#181818" points="829.5,329.3828,839.5,333.3828,829.5,337.3828,833.5,333.3828" style="stroke:#181818;stroke-width:1.0;"/><line style="stroke:#181818;stroke-width:1.0;" x1="395.5" x2="835.5" y1="333.3828" y2="333.3828"/><text fill="#000000" font-family="sans-serif" font-size="13" font-weight="bold" lengthAdjust="spacing" textLength="7" x="402.5" y="328.5264">7</text><text fill="#000000" font-family="sans-serif" font-size="13" lengthAdjust="spacing" textLength="85" x="413.5" y="328.5264">create(Patient)</text><polygon fill="#181818" points="406.5,359.7344,396.5,363.7344,406.5,367.7344,402.5,363.7344" style="stroke:#181818;stroke-width:1.0;"/><line style="stroke:#181818;stroke-width:1.0;stroke-dasharray:2.0,2.0;" x1="400.5" x2="845.5" y1="363.7344" y2="363.7344"/><text fill="#000000" font-family="sans-serif" font-size="13" font-weight="bold" lengthAdjust="spacing" textLength="7" x="412.5" y="358.8779">8</text><text fill="#000000" font-family="sans-serif" font-size="13" lengthAdjust="spacing" textLength="61" x="423.5" y="358.8779">PatientDto</text><polygon fill="#181818" points="193.5,390.0859,183.5,394.0859,193.5,398.0859,189.5,394.0859" style="stroke:#181818;stroke-width:1.0;"/><line style="stroke:#181818;stroke-width:1.0;stroke-dasharray:2.0,2.0;" x1="187.5" x2="389.5" y1="394.0859" y2="394.0859"/><text fill="#000000" font-family="sans-serif" font-size="13" font-weight="bold" lengthAdjust="spacing" textLength="7" x="199.5" y="389.2295">9</text><text fill="#000000" font-family="sans-serif" font-size="13" lengthAdjust="spacing" textLength="61" x="210.5" y="389.2295">PatientDto</text><polygon fill="#181818" points="43.5,420.4375,33.5,424.4375,43.5,428.4375,39.5,424.4375" style="stroke:#181818;stroke-width:1.0;"/><line style="stroke:#181818;stroke-width:1.0;stroke-dasharray:2.0,2.0;" x1="37.5" x2="176.5" y1="424.4375" y2="424.4375"/><text fill="#000000" font-family="sans-serif" font-size="13" font-weight="bold" lengthAdjust="spacing" textLength="14" x="49.5" y="419.5811">10</text><text fill="#000000" font-family="sans-serif" font-size="13" lengthAdjust="spacing" textLength="70" x="67.5" y="419.5811">201 Created</text><!--SRC=[VLDDRy8m3BttLrYSG2fYsn4X90Q7STX0OyTTlCPbbjgaIWCI_tvEwKUWPP4gsSvxhyzEWYTdz2d_8Hj5c3XZORHIEUiHO0chpNjKe7MSS87QmMYFZacxScsqioRBo5QuBeN5eakMos4ssJCdL34FrrXeTVI0Ku7hMC0RaoFh1zYDCo5Sqf2XqE4FbWIZRGtufCAKBArVGbfN3Tb-Hdn6HzLiv9ikm-xdiDyTlc261S-AkjkEqW4Za1NmHAMPn1nGgLLvqSauiIGQ-jWrCgc8hM3DgOf-DHeYryng3fKAZLd5W4LXMBjSDjwuzBt58FEWNVhArlt6yAqf9tiadLoyE_bH398fiZ7af3Z1JEgA7HjTUdXoHMrrQcoElXn3ohPq7vXJ31asKNhAicjqalEVj9RRNch3xOPVJHFJc_dS8nKz5EaF93ZMODBrvkJcx_Ug7NN8P23ylzrXomFYVVF-AhS7slDyBode8QDUPD1XYEyR37TRPxtRVuiDLCAhAizcCPtUCb-Udc5TDQQYW1OycJy0]--></g></svg>