<?xml version="1.0" encoding="us-ascii" standalone="no"?><svg xmlns="http://www.w3.org/2000/svg" xmlns:xlink="http://www.w3.org/1999/xlink" contentStyleType="text/css" height="138px" preserveAspectRatio="none" style="width:261px;height:138px;background:#FFFFFF;" version="1.1" viewBox="0 0 261 138" width="261px" zoomAndPan="magnify"><defs/><g><!--cluster  --><g id="cluster_ "><path d="M8.5,6 L13.5,6 A3.75,3.75 0 0 1 16,8.5 L23,29.6094 L251.5,29.6094 A2.5,2.5 0 0 1 254,32.1094 L254,128.5 A2.5,2.5 0 0 1 251.5,131 L8.5,131 A2.5,2.5 0 0 1 6,128.5 L6,8.5 A2.5,2.5 0 0 1 8.5,6 " fill="none" style="stroke:#000000;stroke-width:1.5;"/><line style="stroke:#000000;stroke-width:1.5;" x1="6" x2="23" y1="29.6094" y2="29.6094"/><text fill="#000000" font-family="sans-serif" font-size="14" font-weight="bold" lengthAdjust="spacing" textLength="4" x="10" y="22.5332">&#160;</text><text fill="#000000" font-family="sans-serif" font-size="14" font-style="italic" lengthAdjust="spacing" textLength="56" x="106" y="46.1426">&#171;SARM&#187;</text></g><path d="M25,60 L30,60 A3.75,3.75 0 0 1 32.5,62.5 L39.5,83.6094 L235,83.6094 A2.5,2.5 0 0 1 237.5,86.1094 L237.5,112.7188 A2.5,2.5 0 0 1 235,115.2188 L25,115.2188 A2.5,2.5 0 0 1 22.5,112.7188 L22.5,62.5 A2.5,2.5 0 0 1 25,60 " fill="#F1F1F1" style="stroke:#181818;stroke-width:0.5;"/><line style="stroke:#181818;stroke-width:0.5;" x1="22.5" x2="39.5" y1="83.6094" y2="83.6094"/><text fill="#000000" font-family="sans-serif" font-size="14" font-weight="bold" lengthAdjust="spacing" textLength="4" x="26.5" y="76.5332">&#160;</text><text fill="#000000" font-family="sans-serif" font-size="14" font-style="italic" lengthAdjust="spacing" textLength="193" x="37.5" y="100.1426">&#171;Backend Data Management&#187;</text><!--SRC=[AyalK2Z9LqZABod9prL8oInAJIx9pC_ZuYf8JCvEJ4zLK0926vjWno1VExjgBWKWG9Ln0l9Iyr8KN19B4XLy4_E0ChcfUIKWnM3LjLorN000]--></g></svg>