<?xml version="1.0" encoding="us-ascii" standalone="no"?><svg xmlns="http://www.w3.org/2000/svg" xmlns:xlink="http://www.w3.org/1999/xlink" contentStyleType="text/css" height="371px" preserveAspectRatio="none" style="width:393px;height:371px;background:#FFFFFF;" version="1.1" viewBox="0 0 393 371" width="393px" zoomAndPan="magnify"><defs/><g><!--cluster  --><g id="cluster_ "><path d="M8.5,6 L13.5,6 A3.75,3.75 0 0 1 16,8.5 L23,29.6094 L383.5,29.6094 A2.5,2.5 0 0 1 386,32.1094 L386,361.5 A2.5,2.5 0 0 1 383.5,364 L8.5,364 A2.5,2.5 0 0 1 6,361.5 L6,8.5 A2.5,2.5 0 0 1 8.5,6 " fill="none" style="stroke:#000000;stroke-width:1.5;"/><line style="stroke:#000000;stroke-width:1.5;" x1="6" x2="23" y1="29.6094" y2="29.6094"/><text fill="#000000" font-family="sans-serif" font-size="14" font-weight="bold" lengthAdjust="spacing" textLength="4" x="10" y="22.5332">&#160;</text><text fill="#000000" font-family="sans-serif" font-size="14" font-style="italic" lengthAdjust="spacing" textLength="56" x="172" y="46.1426">&#171;SARM&#187;</text></g><!--entity Backend--><g id="elem_Backend"><path d="M70,176 L111,176 A3.75,3.75 0 0 1 113.5,178.5 L120.5,197 L270,197 A2.5,2.5 0 0 1 272.5,199.5 L272.5,229.1094 A2.5,2.5 0 0 1 270,231.6094 L70,231.6094 A2.5,2.5 0 0 1 67.5,229.1094 L67.5,178.5 A2.5,2.5 0 0 1 70,176 " fill="#F1F1F1" style="stroke:#181818;stroke-width:0.5;"/><line style="stroke:#181818;stroke-width:0.5;" x1="67.5" x2="120.5" y1="197" y2="197"/><text fill="#000000" font-family="sans-serif" font-size="14" lengthAdjust="spacing" textLength="175" x="77.5" y="218.5332">Backend Data Management</text></g><!--entity Frontend--><g id="elem_Frontend"><path d="M254.5,60 L295.5,60 A3.75,3.75 0 0 1 298,62.5 L305,81 L337.5,81 A2.5,2.5 0 0 1 340,83.5 L340,113.1094 A2.5,2.5 0 0 1 337.5,115.6094 L254.5,115.6094 A2.5,2.5 0 0 1 252,113.1094 L252,62.5 A2.5,2.5 0 0 1 254.5,60 " fill="#F1F1F1" style="stroke:#181818;stroke-width:0.5;"/><line style="stroke:#181818;stroke-width:0.5;" x1="252" x2="305" y1="81" y2="81"/><text fill="#000000" font-family="sans-serif" font-size="14" lengthAdjust="spacing" textLength="58" x="262" y="102.5332">Frontend</text></g><!--entity BCP--><g id="elem_BCP"><path d="M137.5,60 L178.5,60 A3.75,3.75 0 0 1 181,62.5 L188,81 L202.5,81 A2.5,2.5 0 0 1 205,83.5 L205,113.1094 A2.5,2.5 0 0 1 202.5,115.6094 L137.5,115.6094 A2.5,2.5 0 0 1 135,113.1094 L135,62.5 A2.5,2.5 0 0 1 137.5,60 " fill="#F1F1F1" style="stroke:#181818;stroke-width:0.5;"/><line style="stroke:#181818;stroke-width:0.5;" x1="135" x2="188" y1="81" y2="81"/><text fill="#000000" font-family="sans-serif" font-size="14" lengthAdjust="spacing" textLength="28" x="145" y="102.5332">BCP</text></g><!--entity GDPR--><g id="elem_GDPR"><path d="M24.5,292 L65.5,292 A3.75,3.75 0 0 1 68,294.5 L75,313 L89.5,313 A2.5,2.5 0 0 1 92,315.5 L92,345.1094 A2.5,2.5 0 0 1 89.5,347.6094 L24.5,347.6094 A2.5,2.5 0 0 1 22,345.1094 L22,294.5 A2.5,2.5 0 0 1 24.5,292 " fill="#F1F1F1" style="stroke:#181818;stroke-width:0.5;"/><line style="stroke:#181818;stroke-width:0.5;" x1="22" x2="75" y1="313" y2="313"/><text fill="#000000" font-family="sans-serif" font-size="14" lengthAdjust="spacing" textLength="40" x="32" y="334.5332">GDPR</text></g><!--entity Planning--><g id="elem_Planning"><path d="M130,292 L171,292 A3.75,3.75 0 0 1 173.5,294.5 L180.5,313 L210,313 A2.5,2.5 0 0 1 212.5,315.5 L212.5,345.1094 A2.5,2.5 0 0 1 210,347.6094 L130,347.6094 A2.5,2.5 0 0 1 127.5,345.1094 L127.5,294.5 A2.5,2.5 0 0 1 130,292 " fill="#F1F1F1" style="stroke:#181818;stroke-width:0.5;"/><line style="stroke:#181818;stroke-width:0.5;" x1="127.5" x2="180.5" y1="313" y2="313"/><text fill="#000000" font-family="sans-serif" font-size="14" lengthAdjust="spacing" textLength="55" x="137.5" y="334.5332">Planning</text></g><!--entity BackendNode--><g id="elem_BackendNode"><path d="M250.5,292 L291.5,292 A3.75,3.75 0 0 1 294,294.5 L301,313 L367.5,313 A2.5,2.5 0 0 1 370,315.5 L370,345.1094 A2.5,2.5 0 0 1 367.5,347.6094 L250.5,347.6094 A2.5,2.5 0 0 1 248,345.1094 L248,294.5 A2.5,2.5 0 0 1 250.5,292 " fill="#F1F1F1" style="stroke:#181818;stroke-width:0.5;"/><line style="stroke:#181818;stroke-width:0.5;" x1="248" x2="301" y1="313" y2="313"/><text fill="#000000" font-family="sans-serif" font-size="14" lengthAdjust="spacing" textLength="92" x="258" y="334.5332">Backend Node</text></g><!--reverse link Frontend to Backend--><g id="link_Frontend_Backend"><path codeLine="29" d="M261.6907,120.0454 C241.7507,138.0854 220.07,178.7 200.08,196.78 " fill="none" id="Frontend-backto-Backend" style="stroke:#181818;stroke-width:1.0;stroke-dasharray:7.0,7.0;"/><polygon fill="#181818" points="266.14,116.02,256.7824,119.0918,262.4322,119.3745,262.1496,125.0243,266.14,116.02" style="stroke:#181818;stroke-width:1.0;"/></g><!--reverse link Frontend to BackendNode--><g id="link_Frontend_BackendNode"><path codeLine="30" d="M297.8784,122.2805 C300.3784,166.5405 304.96,268.51 307.46,312.75 " fill="none" id="Frontend-backto-BackendNode" style="stroke:#181818;stroke-width:1.0;stroke-dasharray:7.0,7.0;"/><polygon fill="#181818" points="297.54,116.29,294.0539,125.5013,297.822,121.282,302.0412,125.0501,297.54,116.29" style="stroke:#181818;stroke-width:1.0;"/></g><!--reverse link Backend to BackendNode--><g id="link_Backend_BackendNode"><path codeLine="31" d="M207.5796,235.8245 C229.5796,253.8645 253.77,273.7 275.81,291.78 " fill="none" id="Backend-backto-BackendNode" style="stroke:#181818;stroke-width:1.0;stroke-dasharray:7.0,7.0;"/><polygon fill="#181818" points="202.94,232.02,207.3631,240.8198,206.8063,235.1904,212.4357,234.6336,202.94,232.02" style="stroke:#181818;stroke-width:1.0;"/></g><!--reverse link Backend to Planning--><g id="link_Backend_Planning"><path codeLine="32" d="M158.2177,237.9726 C155.9377,256.0126 156.68,273.7 158.94,291.78 " fill="none" id="Backend-backto-Planning" style="stroke:#181818;stroke-width:1.0;stroke-dasharray:7.0,7.0;"/><polygon fill="#181818" points="158.97,232.02,153.8731,240.4474,158.3431,236.9805,161.8099,241.4505,158.97,232.02" style="stroke:#181818;stroke-width:1.0;"/></g><!--reverse link Planning to Backend--><g id="link_Planning_Backend"><path codeLine="33" d="M182.4995,306.8322 C184.8995,288.7522 184.1,250.06 181.68,232.02 " fill="none" id="Planning-backto-Backend" style="stroke:#181818;stroke-width:1.0;stroke-dasharray:7.0,7.0;"/><polygon fill="#181818" points="181.71,312.78,186.8595,304.3846,182.3679,307.8235,178.9291,303.3319,181.71,312.78" style="stroke:#181818;stroke-width:1.0;"/></g><!--reverse link BCP to Backend--><g id="link_BCP_Backend"><path codeLine="34" d="M170,122.02 C170,140.06 170,178.7 170,196.78 " fill="none" id="BCP-backto-Backend" style="stroke:#181818;stroke-width:1.0;stroke-dasharray:7.0,7.0;"/><polygon fill="#181818" points="170,116.02,166,125.02,170,121.02,174,125.02,170,116.02" style="stroke:#181818;stroke-width:1.0;"/></g><!--reverse link Backend to GDPR--><g id="link_Backend_GDPR"><path codeLine="35" d="M138.9963,236.2815 C121.1163,254.3215 101.9,294.7 83.98,312.78 " fill="none" id="Backend-backto-GDPR" style="stroke:#181818;stroke-width:1.0;stroke-dasharray:7.0,7.0;"/><polygon fill="#181818" points="143.22,232.02,134.0435,235.5964,139.7002,235.5712,139.7254,241.228,143.22,232.02" style="stroke:#181818;stroke-width:1.0;"/></g><!--SRC=[VP113e8m44NtSuf93y0928b0T8Lfy0ILLaA46OBT4UzkMrE5fDfk-cVUd_ofvHajuvMjvGdri9ZE3am0i-hkgZSetCtpow5jYc85TEV6epOBYj8HXZJMoYfi53bwCcG5gWV6tWh1yeITyxWmMTSEQ1HfjApaUs0bqy2fbcqW_2E9e92Z8Xge3rmK-0EEqS-ipNONhxyUvuh1CS-o22MBtWbnxBzwZ0QVZDlHxWlsUkFqoyCB]--></g></svg>