<?xml version="1.0" encoding="us-ascii" standalone="no"?><svg xmlns="http://www.w3.org/2000/svg" xmlns:xlink="http://www.w3.org/1999/xlink" contentStyleType="text/css" height="371px" preserveAspectRatio="none" style="width:251px;height:371px;background:#FFFFFF;" version="1.1" viewBox="0 0 251 371" width="251px" zoomAndPan="magnify"><defs/><g><!--cluster  --><g id="cluster_ "><path d="M8.5,6 L13.5,6 A3.75,3.75 0 0 1 16,8.5 L23,29.6094 L241.5,29.6094 A2.5,2.5 0 0 1 244,32.1094 L244,361.5 A2.5,2.5 0 0 1 241.5,364 L8.5,364 A2.5,2.5 0 0 1 6,361.5 L6,8.5 A2.5,2.5 0 0 1 8.5,6 " fill="none" style="stroke:#000000;stroke-width:1.5;"/><line style="stroke:#000000;stroke-width:1.5;" x1="6" x2="23" y1="29.6094" y2="29.6094"/><text fill="#000000" font-family="sans-serif" font-size="14" font-weight="bold" lengthAdjust="spacing" textLength="4" x="10" y="22.5332">&#160;</text><text fill="#000000" font-family="sans-serif" font-size="14" font-style="italic" lengthAdjust="spacing" textLength="56" x="101" y="46.1426">&#171;SARM&#187;</text></g><!--entity Backend--><g id="elem_Backend"><path d="M25,176 L66,176 A3.75,3.75 0 0 1 68.5,178.5 L75.5,197 L225,197 A2.5,2.5 0 0 1 227.5,199.5 L227.5,229.1094 A2.5,2.5 0 0 1 225,231.6094 L25,231.6094 A2.5,2.5 0 0 1 22.5,229.1094 L22.5,178.5 A2.5,2.5 0 0 1 25,176 " fill="#F1F1F1" style="stroke:#181818;stroke-width:0.5;"/><line style="stroke:#181818;stroke-width:0.5;" x1="22.5" x2="75.5" y1="197" y2="197"/><text fill="#000000" font-family="sans-serif" font-size="14" lengthAdjust="spacing" textLength="175" x="32.5" y="218.5332">Backend Data Management</text></g><!--entity Frontend--><g id="elem_Frontend"><path d="M135.5,60 L176.5,60 A3.75,3.75 0 0 1 179,62.5 L186,81 L218.5,81 A2.5,2.5 0 0 1 221,83.5 L221,113.1094 A2.5,2.5 0 0 1 218.5,115.6094 L135.5,115.6094 A2.5,2.5 0 0 1 133,113.1094 L133,62.5 A2.5,2.5 0 0 1 135.5,60 " fill="#F1F1F1" style="stroke:#181818;stroke-width:0.5;"/><line style="stroke:#181818;stroke-width:0.5;" x1="133" x2="186" y1="81" y2="81"/><text fill="#000000" font-family="sans-serif" font-size="14" lengthAdjust="spacing" textLength="58" x="143" y="102.5332">Frontend</text></g><!--entity BCP--><g id="elem_BCP"><path d="M30.5,60 L71.5,60 A3.75,3.75 0 0 1 74,62.5 L81,81 L95.5,81 A2.5,2.5 0 0 1 98,83.5 L98,113.1094 A2.5,2.5 0 0 1 95.5,115.6094 L30.5,115.6094 A2.5,2.5 0 0 1 28,113.1094 L28,62.5 A2.5,2.5 0 0 1 30.5,60 " fill="#F1F1F1" style="stroke:#181818;stroke-width:0.5;"/><line style="stroke:#181818;stroke-width:0.5;" x1="28" x2="81" y1="81" y2="81"/><text fill="#000000" font-family="sans-serif" font-size="14" lengthAdjust="spacing" textLength="28" x="38" y="102.5332">BCP</text></g><!--entity GDPR--><g id="elem_GDPR"><path d="M24.5,292 L65.5,292 A3.75,3.75 0 0 1 68,294.5 L75,313 L89.5,313 A2.5,2.5 0 0 1 92,315.5 L92,345.1094 A2.5,2.5 0 0 1 89.5,347.6094 L24.5,347.6094 A2.5,2.5 0 0 1 22,345.1094 L22,294.5 A2.5,2.5 0 0 1 24.5,292 " fill="#F1F1F1" style="stroke:#181818;stroke-width:0.5;"/><line style="stroke:#181818;stroke-width:0.5;" x1="22" x2="75" y1="313" y2="313"/><text fill="#000000" font-family="sans-serif" font-size="14" lengthAdjust="spacing" textLength="40" x="32" y="334.5332">GDPR</text></g><!--entity Planning--><g id="elem_Planning"><path d="M130,292 L171,292 A3.75,3.75 0 0 1 173.5,294.5 L180.5,313 L210,313 A2.5,2.5 0 0 1 212.5,315.5 L212.5,345.1094 A2.5,2.5 0 0 1 210,347.6094 L130,347.6094 A2.5,2.5 0 0 1 127.5,345.1094 L127.5,294.5 A2.5,2.5 0 0 1 130,292 " fill="#F1F1F1" style="stroke:#181818;stroke-width:0.5;"/><line style="stroke:#181818;stroke-width:0.5;" x1="127.5" x2="180.5" y1="313" y2="313"/><text fill="#000000" font-family="sans-serif" font-size="14" lengthAdjust="spacing" textLength="55" x="137.5" y="334.5332">Planning</text></g><!--reverse link Frontend to Backend--><g id="link_Frontend_Backend"><path codeLine="25" d="M162.1897,121.4788 C153.9597,139.5188 145.66,178.7 137.42,196.78 " fill="none" id="Frontend-backto-Backend" style="stroke:#181818;stroke-width:1.0;stroke-dasharray:7.0,7.0;"/><polygon fill="#181818" points="164.68,116.02,157.3053,122.5479,162.6047,120.569,164.5837,125.8684,164.68,116.02" style="stroke:#181818;stroke-width:1.0;"/></g><!--reverse link Backend to Planning--><g id="link_Backend_Planning"><path codeLine="26" d="M126.1848,237.8151 C131.0248,255.8551 138.8,273.7 148.2,291.78 " fill="none" id="Backend-backto-Planning" style="stroke:#181818;stroke-width:1.0;stroke-dasharray:7.0,7.0;"/><polygon fill="#181818" points="124.63,232.02,123.0988,241.7491,125.9256,236.8492,130.8255,239.6761,124.63,232.02" style="stroke:#181818;stroke-width:1.0;"/></g><!--reverse link Planning to Backend--><g id="link_Planning_Backend"><path codeLine="27" d="M169.4414,306.9754 C164.7114,288.8954 156.88,250.06 147.34,232.02 " fill="none" id="Planning-backto-Backend" style="stroke:#181818;stroke-width:1.0;stroke-dasharray:7.0,7.0;"/><polygon fill="#181818" points="170.96,312.78,172.5519,303.0606,169.6945,307.9428,164.8124,305.0854,170.96,312.78" style="stroke:#181818;stroke-width:1.0;"/></g><!--reverse link BCP to Backend--><g id="link_BCP_Backend"><path codeLine="28" d="M80.5564,121.2911 C90.3664,139.3311 100.36,178.7 110.2,196.78 " fill="none" id="BCP-backto-Backend" style="stroke:#181818;stroke-width:1.0;stroke-dasharray:7.0,7.0;"/><polygon fill="#181818" points="77.69,116.02,78.4755,125.8375,80.0786,120.4125,85.5036,122.0157,77.69,116.02" style="stroke:#181818;stroke-width:1.0;"/></g><!--reverse link Backend to GDPR--><g id="link_Backend_GDPR"><path codeLine="29" d="M105.8065,237.173 C95.0465,255.213 84.02,294.7 73.24,312.78 " fill="none" id="Backend-backto-GDPR" style="stroke:#181818;stroke-width:1.0;stroke-dasharray:7.0,7.0;"/><polygon fill="#181818" points="108.88,232.02,100.8344,237.7005,106.3187,236.3142,107.7051,241.7985,108.88,232.02" style="stroke:#181818;stroke-width:1.0;"/></g><!--SRC=[TOzH2eCm38RVSuhG0tW24QQoFGd5dI2pdSWq5PStsTrNEx8XkEObQRwl_9KmemIy1P4meHiMtyaG662cxa6zHnChpw-djYcA5J2UUnYTNz2KaV3ii2OXR8WZFNaMW_H4tQsGb1VipFCIME8weJeSesLbFmzMzXYurBPDnDOS8cZiICm3zudJuPSjuXe2yopJyA2VsExKWg- -8olxrznomHi0]--></g></svg>