<?xml version="1.0" encoding="us-ascii" standalone="no"?><svg xmlns="http://www.w3.org/2000/svg" xmlns:xlink="http://www.w3.org/1999/xlink" contentStyleType="text/css" height="1163px" preserveAspectRatio="none" style="width:1121px;height:1163px;background:#FFFFFF;" version="1.1" viewBox="0 0 1121 1163" width="1121px" zoomAndPan="magnify"><defs/><g><!--cluster SARM--><g id="cluster_SARM"><rect fill="none" height="1047" rx="2.5" ry="2.5" style="stroke:#181818;stroke-width:1.0;" width="787" x="154" y="110"/><rect fill="none" height="10" style="stroke:#181818;stroke-width:1.0;" width="15" x="921" y="115"/><rect fill="none" height="2" style="stroke:#181818;stroke-width:1.0;" width="4" x="919" y="117"/><rect fill="none" height="2" style="stroke:#181818;stroke-width:1.0;" width="4" x="919" y="121"/><text fill="#000000" font-family="sans-serif" font-size="14" font-style="italic" lengthAdjust="spacing" textLength="86" x="504.5" y="137.5332">&#171;component&#187;</text><text fill="#000000" font-family="sans-serif" font-size="14" font-style="italic" lengthAdjust="spacing" textLength="84" x="505.5" y="155.1426">&#171;C4 System&#187;</text><text fill="#000000" font-family="sans-serif" font-size="14" font-weight="bold" lengthAdjust="spacing" textLength="41" x="527" y="172.752">SARM</text></g><!--cluster Backend Data Management--><g id="cluster_Backend Data Management"><rect fill="none" height="218" rx="2.5" ry="2.5" style="stroke:#181818;stroke-width:1.0;" width="224" x="422" y="389"/><rect fill="none" height="10" style="stroke:#181818;stroke-width:1.0;" width="15" x="626" y="394"/><rect fill="none" height="2" style="stroke:#181818;stroke-width:1.0;" width="4" x="624" y="396"/><rect fill="none" height="2" style="stroke:#181818;stroke-width:1.0;" width="4" x="624" y="400"/><text fill="#000000" font-family="sans-serif" font-size="14" font-style="italic" lengthAdjust="spacing" textLength="86" x="491" y="416.5332">&#171;component&#187;</text><text fill="#000000" font-family="sans-serif" font-size="14" font-weight="bold" lengthAdjust="spacing" textLength="191" x="438.5" y="434.1426">Backend Data Management</text></g><!--cluster Backend Node--><g id="cluster_Backend Node"><rect fill="none" height="155" rx="2.5" ry="2.5" style="stroke:#181818;stroke-width:1.0;" width="143" x="776" y="607"/><rect fill="none" height="10" style="stroke:#181818;stroke-width:1.0;" width="15" x="899" y="612"/><rect fill="none" height="2" style="stroke:#181818;stroke-width:1.0;" width="4" x="897" y="614"/><rect fill="none" height="2" style="stroke:#181818;stroke-width:1.0;" width="4" x="897" y="618"/><text fill="#000000" font-family="sans-serif" font-size="14" font-style="italic" lengthAdjust="spacing" textLength="86" x="804.5" y="634.5332">&#171;component&#187;</text><text fill="#000000" font-family="sans-serif" font-size="14" font-weight="bold" lengthAdjust="spacing" textLength="102" x="796.5" y="652.1426">Backend Node</text></g><!--cluster Frontend--><g id="cluster_Frontend"><rect fill="none" height="192" rx="2.5" ry="2.5" style="stroke:#181818;stroke-width:1.0;" width="116" x="340" y="823"/><rect fill="none" height="10" style="stroke:#181818;stroke-width:1.0;" width="15" x="436" y="828"/><rect fill="none" height="2" style="stroke:#181818;stroke-width:1.0;" width="4" x="434" y="830"/><rect fill="none" height="2" style="stroke:#181818;stroke-width:1.0;" width="4" x="434" y="834"/><text fill="#000000" font-family="sans-serif" font-size="14" font-style="italic" lengthAdjust="spacing" textLength="86" x="355" y="850.5332">&#171;component&#187;</text><text fill="#000000" font-family="sans-serif" font-size="14" font-weight="bold" lengthAdjust="spacing" textLength="65" x="365.5" y="868.1426">Frontend</text></g><!--cluster Planning--><g id="cluster_Planning"><rect fill="none" height="192" rx="2.5" ry="2.5" style="stroke:#181818;stroke-width:1.0;" width="112" x="786" y="823"/><rect fill="none" height="10" style="stroke:#181818;stroke-width:1.0;" width="15" x="878" y="828"/><rect fill="none" height="2" style="stroke:#181818;stroke-width:1.0;" width="4" x="876" y="830"/><rect fill="none" height="2" style="stroke:#181818;stroke-width:1.0;" width="4" x="876" y="834"/><text fill="#000000" font-family="sans-serif" font-size="14" font-style="italic" lengthAdjust="spacing" textLength="86" x="799" y="850.5332">&#171;component&#187;</text><text fill="#000000" font-family="sans-serif" font-size="14" font-weight="bold" lengthAdjust="spacing" textLength="61" x="811.5" y="868.1426">Planning</text></g><!--cluster GDPR--><g id="cluster_GDPR"><rect fill="none" height="131" rx="2.5" ry="2.5" style="stroke:#181818;stroke-width:1.0;" width="112" x="482" y="823"/><rect fill="none" height="10" style="stroke:#181818;stroke-width:1.0;" width="15" x="574" y="828"/><rect fill="none" height="2" style="stroke:#181818;stroke-width:1.0;" width="4" x="572" y="830"/><rect fill="none" height="2" style="stroke:#181818;stroke-width:1.0;" width="4" x="572" y="834"/><text fill="#000000" font-family="sans-serif" font-size="14" font-style="italic" lengthAdjust="spacing" textLength="86" x="495" y="850.5332">&#171;component&#187;</text><text fill="#000000" font-family="sans-serif" font-size="14" font-weight="bold" lengthAdjust="spacing" textLength="40" x="518" y="868.1426">GDPR</text></g><!--cluster BCP--><g id="cluster_BCP"><rect fill="none" height="131" rx="2.5" ry="2.5" style="stroke:#181818;stroke-width:1.0;" width="111" x="176" y="884"/><rect fill="none" height="10" style="stroke:#181818;stroke-width:1.0;" width="15" x="267" y="889"/><rect fill="none" height="2" style="stroke:#181818;stroke-width:1.0;" width="4" x="265" y="891"/><rect fill="none" height="2" style="stroke:#181818;stroke-width:1.0;" width="4" x="265" y="895"/><text fill="#000000" font-family="sans-serif" font-size="14" font-style="italic" lengthAdjust="spacing" textLength="86" x="188.5" y="911.5332">&#171;component&#187;</text><text fill="#000000" font-family="sans-serif" font-size="14" font-weight="bold" lengthAdjust="spacing" textLength="29" x="217" y="929.1426">BCP</text></g><text fill="#000000" font-family="sans-serif" font-size="14" lengthAdjust="spacing" textLength="4" x="550" y="88.9238">&#160;</text><rect fill="#F1F1F1" height="12" style="stroke:#181818;stroke-width:1.5;" width="12" x="546" y="104"/><text fill="#000000" font-family="sans-serif" font-size="14" lengthAdjust="spacing" textLength="4" x="482" y="88.9238">&#160;</text><rect fill="#F1F1F1" height="12" style="stroke:#181818;stroke-width:1.5;" width="12" x="478" y="104"/><text fill="#000000" font-family="sans-serif" font-size="14" lengthAdjust="spacing" textLength="4" x="866" y="88.9238">&#160;</text><rect fill="#F1F1F1" height="12" style="stroke:#181818;stroke-width:1.5;" width="12" x="862" y="104"/><text fill="#000000" font-family="sans-serif" font-size="14" lengthAdjust="spacing" textLength="4" x="152" y="476.9238">&#160;</text><rect fill="#F1F1F1" height="12" style="stroke:#181818;stroke-width:1.5;" width="12" x="148" y="492"/><text fill="#000000" font-family="sans-serif" font-size="14" lengthAdjust="spacing" textLength="4" x="939" y="476.9238">&#160;</text><rect fill="#F1F1F1" height="12" style="stroke:#181818;stroke-width:1.5;" width="12" x="935" y="492"/><!--entity BACKENDAPI--><g id="elem_BACKENDAPI"><ellipse cx="597" cy="1111" fill="#F1F1F1" rx="8" ry="8" style="stroke:#181818;stroke-width:0.5;"/><text fill="#000000" font-family="sans-serif" font-size="14" lengthAdjust="spacing" textLength="200" x="497" y="1142.5332">Backend Data Management API</text></g><!--entity BACKENDNODEAPI--><g id="elem_BACKENDNODEAPI"><ellipse cx="679" cy="919" fill="#F1F1F1" rx="8" ry="8" style="stroke:#181818;stroke-width:0.5;"/><text fill="#000000" font-family="sans-serif" font-size="14" lengthAdjust="spacing" textLength="117" x="620.5" y="950.5332">Backend Node API</text></g><!--entity PLANNINGAPI--><g id="elem_PLANNINGAPI"><ellipse cx="665" cy="727" fill="#F1F1F1" rx="8" ry="8" style="stroke:#181818;stroke-width:0.5;"/><text fill="#000000" font-family="sans-serif" font-size="14" lengthAdjust="spacing" textLength="80" x="625" y="758.5332">Planning API</text></g><!--entity GDPR_API--><g id="elem_GDPR_API"><ellipse cx="468" cy="727" fill="#F1F1F1" rx="8" ry="8" style="stroke:#181818;stroke-width:0.5;"/><text fill="#000000" font-family="sans-serif" font-size="14" lengthAdjust="spacing" textLength="65" x="435.5" y="758.5332">GDPR API</text></g><text fill="#000000" font-family="sans-serif" font-size="14" lengthAdjust="spacing" textLength="4" x="550" y="367.9238">&#160;</text><rect fill="#F1F1F1" height="12" style="stroke:#181818;stroke-width:1.5;" width="12" x="546" y="383"/><text fill="#000000" font-family="sans-serif" font-size="14" lengthAdjust="spacing" textLength="4" x="438" y="627.5332">&#160;</text><rect fill="#F1F1F1" height="12" style="stroke:#181818;stroke-width:1.5;" width="12" x="434" y="601"/><text fill="#000000" font-family="sans-serif" font-size="14" lengthAdjust="spacing" textLength="4" x="485" y="627.5332">&#160;</text><rect fill="#F1F1F1" height="12" style="stroke:#181818;stroke-width:1.5;" width="12" x="481" y="601"/><text fill="#000000" font-family="sans-serif" font-size="14" lengthAdjust="spacing" textLength="4" x="532" y="627.5332">&#160;</text><rect fill="#F1F1F1" height="12" style="stroke:#181818;stroke-width:1.5;" width="12" x="528" y="601"/><text fill="#000000" font-family="sans-serif" font-size="14" lengthAdjust="spacing" textLength="4" x="626" y="627.5332">&#160;</text><rect fill="#F1F1F1" height="12" style="stroke:#181818;stroke-width:1.5;" width="12" x="622" y="601"/><text fill="#000000" font-family="sans-serif" font-size="14" lengthAdjust="spacing" textLength="4" x="579" y="627.5332">&#160;</text><rect fill="#F1F1F1" height="12" style="stroke:#181818;stroke-width:1.5;" width="12" x="575" y="601"/><text fill="#000000" font-family="sans-serif" font-size="14" lengthAdjust="spacing" textLength="4" x="597" y="367.9238">&#160;</text><rect fill="#F1F1F1" height="12" style="stroke:#181818;stroke-width:1.5;" width="12" x="593" y="383"/><text fill="#000000" font-family="sans-serif" font-size="14" lengthAdjust="spacing" textLength="4" x="792" y="585.9238">&#160;</text><rect fill="#F1F1F1" height="12" style="stroke:#181818;stroke-width:1.5;" width="12" x="788" y="601"/><text fill="#000000" font-family="sans-serif" font-size="14" lengthAdjust="spacing" textLength="4" x="842" y="585.9238">&#160;</text><rect fill="#F1F1F1" height="12" style="stroke:#181818;stroke-width:1.5;" width="12" x="838" y="601"/><text fill="#000000" font-family="sans-serif" font-size="14" lengthAdjust="spacing" textLength="4" x="356" y="801.9238">&#160;</text><rect fill="#F1F1F1" height="12" style="stroke:#181818;stroke-width:1.5;" width="12" x="352" y="817"/><text fill="#000000" font-family="sans-serif" font-size="14" lengthAdjust="spacing" textLength="4" x="389" y="1035.5332">&#160;</text><rect fill="#F1F1F1" height="12" style="stroke:#181818;stroke-width:1.5;" width="12" x="385" y="1009"/><text fill="#000000" font-family="sans-serif" font-size="14" lengthAdjust="spacing" textLength="4" x="436" y="1035.5332">&#160;</text><rect fill="#F1F1F1" height="12" style="stroke:#181818;stroke-width:1.5;" width="12" x="432" y="1009"/><text fill="#000000" font-family="sans-serif" font-size="14" lengthAdjust="spacing" textLength="4" x="802" y="801.9238">&#160;</text><rect fill="#F1F1F1" height="12" style="stroke:#181818;stroke-width:1.5;" width="12" x="798" y="817"/><text fill="#000000" font-family="sans-serif" font-size="14" lengthAdjust="spacing" textLength="4" x="802" y="1035.5332">&#160;</text><rect fill="#F1F1F1" height="12" style="stroke:#181818;stroke-width:1.5;" width="12" x="798" y="1009"/><text fill="#000000" font-family="sans-serif" font-size="14" lengthAdjust="spacing" textLength="4" x="498" y="801.9238">&#160;</text><rect fill="#F1F1F1" height="12" style="stroke:#181818;stroke-width:1.5;" width="12" x="494" y="817"/><text fill="#000000" font-family="sans-serif" font-size="14" lengthAdjust="spacing" textLength="4" x="267" y="1035.5332">&#160;</text><rect fill="#F1F1F1" height="12" style="stroke:#181818;stroke-width:1.5;" width="12" x="263" y="1009"/><!--entity API--><g id="elem_API"><ellipse cx="563" cy="14" fill="#F1F1F1" rx="8" ry="8" style="stroke:#181818;stroke-width:0.5;"/><text fill="#000000" font-family="sans-serif" font-size="14" lengthAdjust="spacing" textLength="21" x="552.5" y="45.5332">API</text></g><!--entity UI--><g id="elem_UI"><ellipse cx="474" cy="14" fill="#F1F1F1" rx="8" ry="8" style="stroke:#181818;stroke-width:0.5;"/><text fill="#000000" font-family="sans-serif" font-size="14" lengthAdjust="spacing" textLength="12" x="468" y="45.5332">UI</text></g><!--entity NODEAPI--><g id="elem_NODEAPI"><ellipse cx="868" cy="14" fill="#F1F1F1" rx="8" ry="8" style="stroke:#181818;stroke-width:0.5;"/><text fill="#000000" font-family="sans-serif" font-size="14" lengthAdjust="spacing" textLength="58" x="839" y="45.5332">Node API</text></g><!--entity A0API--><g id="elem_A0API"><ellipse cx="37" cy="389" fill="#F1F1F1" rx="8" ry="8" style="stroke:#181818;stroke-width:0.5;"/><text fill="#000000" font-family="sans-serif" font-size="14" lengthAdjust="spacing" textLength="62" x="6" y="420.5332">Auth0 API</text></g><!--entity SMTP_Office_365--><g id="elem_SMTP_Office_365"><ellipse cx="1061" cy="607" fill="#F1F1F1" rx="8" ry="8" style="stroke:#181818;stroke-width:0.5;"/><text fill="#000000" font-family="sans-serif" font-size="14" lengthAdjust="spacing" textLength="107" x="1007.5" y="638.5332">SMTP Office 365</text></g><!--link UI to SARMPIUI--><g id="link_UI_SARMPIUI"><path d="M474.85,23.01 C476.86,41.84 481.81,88.45 483.46,103.92 " fill="none" id="UI-SARMPIUI" style="stroke:#181818;stroke-width:1.0;"/></g><!--link SARMPIUI to FrontendINUI--><g id="link_SARMPIUI_FrontendINUI"><path d="M477.85,111.68 C429.49,117.18 112,156.37 112,237 C112,237 112,237 112,608 C112,679.69 109.11,711.51 160,762 C216.86,818.41 324.9,822.07 351.81,822.08 " fill="none" id="SARMPIUI-FrontendINUI" style="stroke:#181818;stroke-width:1.0;"/></g><!--link FrontendOutUI2 to BACKENDAPI--><g id="link_FrontendOutUI2_BACKENDAPI"><path d="M397.25,1019.56 C402.05,1022.25 408.88,1025.99 415,1029 C480.16,1061.09 551.6533,1091.208 578.5533,1102.368 " fill="none" id="FrontendOutUI2-to-BACKENDAPI" style="stroke:#181818;stroke-width:1.0;"/><path d="M588.1876,1097.2088 A9,9 0 0 0 581.706 1112.8321" fill="none" style="stroke:#181818;stroke-width:1.5;"/></g><!--link BACKENDAPI to BackendPI2--><g id="link_BACKENDAPI_BackendPI2"><path d="M606.2,1109.07 C653.39,1104.09 867.46,1078.94 906,1029 C965.73,951.59 962.82,888.57 906,809 C868.59,756.61 814.74,807.3 769,762 C720.26,713.73 703.92,528.16 666,471 C647.04,442.42 627.84,447.65 609,419 C604.08,411.52 601.31,401.37 599.99,395.27 " fill="none" id="BACKENDAPI-BackendPI2" style="stroke:#181818;stroke-width:1.0;"/></g><!--link BackendNodeIN to BACKENDNODEAPI--><g id="link_BackendNodeIN_BACKENDNODEAPI"><path d="M787.76,608.55 C759.74,611.39 644.82,627.13 600,697 C584.4,721.32 593.29,733.9 600,762 C607.58,793.74 658.15,882.2 674.15,909.72 " fill="none" id="BackendNodeIN-BACKENDNODEAPI" style="stroke:#181818;stroke-width:1.0;"/></g><!--link BackendPO5 to BACKENDNODEAPI--><g id="link_BackendPO5_BACKENDNODEAPI"><path d="M579.4,613.21 C573.57,633.1 554.63,705.98 572,762 C577.3,779.1 645.2433,872.1456 667.0533,901.7856 " fill="none" id="BackendPO5-to-BACKENDNODEAPI" style="stroke:#181818;stroke-width:1.0;"/><path d="M677.9675,902.3483 A9,9 0 0 0 664.3438 912.373" fill="none" style="stroke:#181818;stroke-width:1.5;"/></g><!--reverse link BACKENDNODEAPI to FrontendOutUI3--><g id="link_BACKENDNODEAPI_FrontendOutUI3"><path d="M660.3108,927.5627 C644.6508,933.9027 621.52,943.2 594,954 C535.92,976.78 465.36,1003.62 444.25,1011.63 " fill="none" id="BACKENDNODEAPI-backto-FrontendOutUI3" style="stroke:#181818;stroke-width:1.0;"/><path d="M663.5531,917.126 A9,9 0 0 0 669.9005 932.8043" fill="none" style="stroke:#181818;stroke-width:1.5;"/></g><!--link NODEAPI to SARMPINODE--><g id="link_NODEAPI_SARMPINODE"><path d="M868,23.01 C868,41.84 868,88.45 868,103.92 " fill="none" id="NODEAPI-SARMPINODE" style="stroke:#181818;stroke-width:1.0;"/></g><!--link BackendNodeIN2 to SARMPINODE--><g id="link_BackendNodeIN2_SARMPINODE"><path d="M850.11,603.98 C870.46,596.91 936.28,571.14 965,525 C996.98,473.61 983,450.53 983,390 C983,237 983,237 983,237 C983,171.84 898.07,125.62 874.18,113.91 " fill="none" id="BackendNodeIN2-SARMPINODE" style="stroke:#181818;stroke-width:1.0;"/></g><!--link GDPR_API to GDPRINUI--><g id="link_GDPR_API_GDPRINUI"><path d="M470.73,736.01 C477.14,754.84 493.01,801.45 498.27,816.92 " fill="none" id="GDPR_API-GDPRINUI" style="stroke:#181818;stroke-width:1.0;"/></g><!--link BackendPO3 to GDPR_API--><g id="link_BackendPO3_GDPR_API"><path d="M531.16,613.07 C520.85,631.51 490.1635,686.3835 477.4435,709.1135 " fill="none" id="BackendPO3-to-GDPR_API" style="stroke:#181818;stroke-width:1.0;"/><path d="M481.4434,719.2839 A9,9 0 0 0 466.683 711.0238" fill="none" style="stroke:#181818;stroke-width:1.5;"/></g><!--link PLANNINGAPI to PLANNINGINUI--><g id="link_PLANNINGAPI_PLANNINGINUI"><path d="M674.19,732.33 C696.44,743.11 754.28,772.89 794,809 C796.53,811.3 798.88,814.3 800.67,816.84 " fill="none" id="PLANNINGAPI-PLANNINGINUI" style="stroke:#181818;stroke-width:1.0;"/></g><!--link BackendPO4 to PLANNINGAPI--><g id="link_BackendPO4_PLANNINGAPI"><path d="M629.59,613.07 C635.37,631.51 652.317,685.5684 659.447,708.2984 " fill="none" id="BackendPO4-to-PLANNINGAPI" style="stroke:#181818;stroke-width:1.0;"/><path d="M669.5882,712.3717 A9,9 0 0 0 653.4492 717.4342" fill="none" style="stroke:#181818;stroke-width:1.5;"/></g><!--link PLANNINGOutUI to BACKENDAPI--><g id="link_PLANNINGOutUI_BACKENDAPI"><path d="M797.58,1018.92 C767.55,1032.55 650.1055,1085.8861 615.1055,1101.7761 " fill="none" id="PLANNINGOutUI-to-BACKENDAPI" style="stroke:#181818;stroke-width:1.0;"/><path d="M612.299,1112.3383 A9,9 0 0 0 605.3067 1096.9367" fill="none" style="stroke:#181818;stroke-width:1.5;"/></g><!--link BCPOutUI to BACKENDAPI--><g id="link_BCPOutUI_BACKENDAPI"><path d="M275.09,1018 C283.09,1020.61 297.55,1025.27 310,1029 C418.86,1061.61 542.3867,1095.2396 578.1467,1104.9096 " fill="none" id="BCPOutUI-to-BACKENDAPI" style="stroke:#181818;stroke-width:1.0;"/><path d="M587.0362,1098.5525 A9,9 0 0 0 582.6209 1114.8805" fill="none" style="stroke:#181818;stroke-width:1.5;"/></g><!--link API to SARMPI--><g id="link_API_SARMPI"><path d="M562.06,23.01 C559.86,41.84 554.4,88.45 552.59,103.92 " fill="none" id="API-SARMPI" style="stroke:#181818;stroke-width:1.0;"/></g><!--reverse link A0API to SARMPO1--><g id="link_A0API_SARMPO1"><path d="M53.1704,404.7876 C76.0304,425.6876 129.44,474.54 148.32,491.81 " fill="none" id="A0API-backto-SARMPO1" style="stroke:#181818;stroke-width:1.0;"/><path d="M42.3552,406.3588 A9,9 0 0 0 53.7684 393.8753" fill="none" style="stroke:#181818;stroke-width:1.5;"/></g><!--link SARMPI to BackendPI--><g id="link_SARMPI_BackendPI"><path d="M552,116.29 C552,151.14 552,347.63 552,382.66 " fill="none" id="SARMPI-BackendPI" style="stroke:#181818;stroke-width:1.0;"/></g><!--link SARMPO1 to BackendPO1--><g id="link_SARMPO1_BackendPO1"><path d="M160.22,498.8 C193.02,498.07 347.48,499.03 430,577 C436.66,583.29 438.88,594.22 439.63,600.71 " fill="none" id="SARMPO1-BackendPO1" style="stroke:#181818;stroke-width:1.0;"/></g><!--link SARMPO2 to BackendPO2--><g id="link_SARMPO2_BackendPO2"><path d="M934.95,499.53 C888.51,503.65 588.27,531.78 511,577 C501.07,582.81 493.45,594.34 489.66,600.98 " fill="none" id="SARMPO2-BackendPO2" style="stroke:#181818;stroke-width:1.0;"/></g><!--link SARMPO2 to SMTP_Office_365--><g id="link_SARMPO2_SMTP_Office_365"><path d="M946.79,504.16 C966.08,521.36 1020.8166,570.1644 1044.3766,591.1744 " fill="none" id="SARMPO2-to-SMTP_Office_365" style="stroke:#181818;stroke-width:1.0;"/><path d="M1055.1714,589.4693 A9,9 0 0 0 1043.9138 602.0933" fill="none" style="stroke:#181818;stroke-width:1.5;"/></g><!--SRC=[bLLHRu8m47xlhxZuv0k9GzsJCK5nXcmYqV5i6A0ZcwtH-h0i_lUrXT8MhJ9ZnDxtNNlVtVMWv02Km0UXbEmXAuvvIWk24IempO_R9CsXuqL11v8JiATkZajhR1X3akKW7SAbFsiuUMVwsQi9Ngy1hnVl4Iotsu8j-iz3GUAsJMdRC1j2ATaV2CunPNnljUZ0Q5IRncEscWvW_NEY-PwjVX6mpu4SQO6X0-MEp8kTQmDYEyGLrI0vKmDTFjaX5mbCapf9qgySP-0dD855WfDTlkUQP6uctlHr5leyGS9LKsrnRIQYb7ujfNAlCd0ZP4ce1DrZk0yP_OUCmKF6y96ICeoBDSb6MrQPbTrfooxt-MTAkKiGjk4O0Mk7lnm9YnvdRG-M_22ChUMKdEMPne7RYjMtv3FwJZ0kyAxEPVJcXM4GpcybKfBRQf5xtTCYEI9AIv1pFrhL0VB5vbPq76WR6UVMKLt4xrNNJAFxk-bzFOsC-Dat3i1nrFoHVvZHCMji5fFXNNrIg0i1JkmOCyHeF-QNEKxp9gZxnizLEqlSR176ETyWLKybHynCi_c5B0r5Ci4YwhfaQeO8dQgKUgS85xqDrLmHNZfaT4ypTqYMvGemvA1grWDJtwtUO2N2EMgsrZH7dwULsJNChcRjNhtl_W00]--></g></svg>