<?xml version="1.0" encoding="us-ascii" standalone="no"?><svg xmlns="http://www.w3.org/2000/svg" xmlns:xlink="http://www.w3.org/1999/xlink" contentStyleType="text/css" height="1266px" preserveAspectRatio="none" style="width:885px;height:1266px;background:#FFFFFF;" version="1.1" viewBox="0 0 885 1266" width="885px" zoomAndPan="magnify"><defs/><g><!--cluster SARM--><g id="cluster_SARM"><rect fill="none" height="1150" rx="2.5" ry="2.5" style="stroke:#181818;stroke-width:1.0;" width="644" x="98" y="110"/><rect fill="none" height="10" style="stroke:#181818;stroke-width:1.0;" width="15" x="722" y="115"/><rect fill="none" height="2" style="stroke:#181818;stroke-width:1.0;" width="4" x="720" y="117"/><rect fill="none" height="2" style="stroke:#181818;stroke-width:1.0;" width="4" x="720" y="121"/><text fill="#000000" font-family="sans-serif" font-size="14" font-style="italic" lengthAdjust="spacing" textLength="86" x="377" y="137.5332">&#171;component&#187;</text><text fill="#000000" font-family="sans-serif" font-size="14" font-style="italic" lengthAdjust="spacing" textLength="84" x="378" y="155.1426">&#171;C4 System&#187;</text><text fill="#000000" font-family="sans-serif" font-size="14" font-weight="bold" lengthAdjust="spacing" textLength="41" x="399.5" y="172.752">SARM</text></g><!--cluster Backend Data Management--><g id="cluster_Backend Data Management"><rect fill="none" height="170" rx="2.5" ry="2.5" style="stroke:#181818;stroke-width:1.0;" width="201" x="194" y="762"/><rect fill="none" height="10" style="stroke:#181818;stroke-width:1.0;" width="15" x="375" y="767"/><rect fill="none" height="2" style="stroke:#181818;stroke-width:1.0;" width="4" x="373" y="769"/><rect fill="none" height="2" style="stroke:#181818;stroke-width:1.0;" width="4" x="373" y="773"/><text fill="#000000" font-family="sans-serif" font-size="14" font-style="italic" lengthAdjust="spacing" textLength="86" x="251.5" y="789.5332">&#171;component&#187;</text><text fill="#000000" font-family="sans-serif" font-size="14" font-weight="bold" lengthAdjust="spacing" textLength="191" x="199" y="807.1426">Backend Data Management</text></g><!--cluster Frontend--><g id="cluster_Frontend"><rect fill="none" height="218" rx="2.5" ry="2.5" style="stroke:#181818;stroke-width:1.0;" width="108" x="502" y="328"/><rect fill="none" height="10" style="stroke:#181818;stroke-width:1.0;" width="15" x="590" y="333"/><rect fill="none" height="2" style="stroke:#181818;stroke-width:1.0;" width="4" x="588" y="335"/><rect fill="none" height="2" style="stroke:#181818;stroke-width:1.0;" width="4" x="588" y="339"/><text fill="#000000" font-family="sans-serif" font-size="14" font-style="italic" lengthAdjust="spacing" textLength="86" x="513" y="355.5332">&#171;component&#187;</text><text fill="#000000" font-family="sans-serif" font-size="14" font-weight="bold" lengthAdjust="spacing" textLength="65" x="523.5" y="373.1426">Frontend</text></g><!--cluster Planning--><g id="cluster_Planning"><rect fill="none" height="218" rx="2.5" ry="2.5" style="stroke:#181818;stroke-width:1.0;" width="96" x="321" y="328"/><rect fill="none" height="10" style="stroke:#181818;stroke-width:1.0;" width="15" x="397" y="333"/><rect fill="none" height="2" style="stroke:#181818;stroke-width:1.0;" width="4" x="395" y="335"/><rect fill="none" height="2" style="stroke:#181818;stroke-width:1.0;" width="4" x="395" y="339"/><text fill="#000000" font-family="sans-serif" font-size="14" font-style="italic" lengthAdjust="spacing" textLength="86" x="326" y="355.5332">&#171;component&#187;</text><text fill="#000000" font-family="sans-serif" font-size="14" font-weight="bold" lengthAdjust="spacing" textLength="61" x="338.5" y="373.1426">Planning</text></g><!--cluster GDPR--><g id="cluster_GDPR"><rect fill="none" height="120" rx="2.5" ry="2.5" style="stroke:#181818;stroke-width:1.0;" width="134" x="247" y="1124"/><rect fill="none" height="10" style="stroke:#181818;stroke-width:1.0;" width="15" x="361" y="1129"/><rect fill="none" height="2" style="stroke:#181818;stroke-width:1.0;" width="4" x="359" y="1131"/><rect fill="none" height="2" style="stroke:#181818;stroke-width:1.0;" width="4" x="359" y="1135"/><text fill="#000000" font-family="sans-serif" font-size="14" font-style="italic" lengthAdjust="spacing" textLength="86" x="271" y="1151.5332">&#171;component&#187;</text><text fill="#000000" font-family="sans-serif" font-size="14" font-weight="bold" lengthAdjust="spacing" textLength="40" x="294" y="1169.1426">GDPR</text></g><!--cluster BCP--><g id="cluster_BCP"><rect fill="none" height="144" rx="2.5" ry="2.5" style="stroke:#181818;stroke-width:1.0;" width="111" x="160" y="402"/><rect fill="none" height="10" style="stroke:#181818;stroke-width:1.0;" width="15" x="251" y="407"/><rect fill="none" height="2" style="stroke:#181818;stroke-width:1.0;" width="4" x="249" y="409"/><rect fill="none" height="2" style="stroke:#181818;stroke-width:1.0;" width="4" x="249" y="413"/><text fill="#000000" font-family="sans-serif" font-size="14" font-style="italic" lengthAdjust="spacing" textLength="86" x="172.5" y="429.5332">&#171;component&#187;</text><text fill="#000000" font-family="sans-serif" font-size="14" font-weight="bold" lengthAdjust="spacing" textLength="29" x="201" y="447.1426">BCP</text></g><text fill="#000000" font-family="sans-serif" font-size="14" lengthAdjust="spacing" textLength="4" x="295" y="88.9238">&#160;</text><rect fill="#F1F1F1" height="12" style="stroke:#181818;stroke-width:1.5;" width="12" x="291" y="104"/><text fill="#000000" font-family="sans-serif" font-size="14" lengthAdjust="spacing" textLength="4" x="541" y="88.9238">&#160;</text><rect fill="#F1F1F1" height="12" style="stroke:#181818;stroke-width:1.5;" width="12" x="537" y="104"/><text fill="#000000" font-family="sans-serif" font-size="14" lengthAdjust="spacing" textLength="4" x="96" y="415.9238">&#160;</text><rect fill="#F1F1F1" height="12" style="stroke:#181818;stroke-width:1.5;" width="12" x="92" y="431"/><text fill="#000000" font-family="sans-serif" font-size="14" lengthAdjust="spacing" textLength="4" x="740" y="415.9238">&#160;</text><rect fill="#F1F1F1" height="12" style="stroke:#181818;stroke-width:1.5;" width="12" x="736" y="431"/><!--entity BACKENDAPI--><g id="elem_BACKENDAPI"><ellipse cx="312" cy="666" fill="#F1F1F1" rx="8" ry="8" style="stroke:#181818;stroke-width:0.5;"/><text fill="#000000" font-family="sans-serif" font-size="14" lengthAdjust="spacing" textLength="200" x="212" y="697.5332">Backend Data Management API</text></g><!--entity PLANNINGAPI--><g id="elem_PLANNINGAPI"><ellipse cx="452" cy="1028" fill="#F1F1F1" rx="8" ry="8" style="stroke:#181818;stroke-width:0.5;"/><text fill="#000000" font-family="sans-serif" font-size="14" lengthAdjust="spacing" textLength="80" x="412" y="1059.5332">Planning API</text></g><!--entity GDPR_API--><g id="elem_GDPR_API"><ellipse cx="314" cy="1028" fill="#F1F1F1" rx="8" ry="8" style="stroke:#181818;stroke-width:0.5;"/><text fill="#000000" font-family="sans-serif" font-size="14" lengthAdjust="spacing" textLength="65" x="281.5" y="1059.5332">GDPR API</text></g><text fill="#000000" font-family="sans-serif" font-size="14" lengthAdjust="spacing" textLength="4" x="234" y="740.9238">&#160;</text><rect fill="#F1F1F1" height="12" style="stroke:#181818;stroke-width:1.5;" width="12" x="230" y="756"/><text fill="#000000" font-family="sans-serif" font-size="14" lengthAdjust="spacing" textLength="4" x="214" y="952.5332">&#160;</text><rect fill="#F1F1F1" height="12" style="stroke:#181818;stroke-width:1.5;" width="12" x="210" y="926"/><text fill="#000000" font-family="sans-serif" font-size="14" lengthAdjust="spacing" textLength="4" x="265" y="952.5332">&#160;</text><rect fill="#F1F1F1" height="12" style="stroke:#181818;stroke-width:1.5;" width="12" x="261" y="926"/><text fill="#000000" font-family="sans-serif" font-size="14" lengthAdjust="spacing" textLength="4" x="312" y="952.5332">&#160;</text><rect fill="#F1F1F1" height="12" style="stroke:#181818;stroke-width:1.5;" width="12" x="308" y="926"/><text fill="#000000" font-family="sans-serif" font-size="14" lengthAdjust="spacing" textLength="4" x="359" y="952.5332">&#160;</text><rect fill="#F1F1F1" height="12" style="stroke:#181818;stroke-width:1.5;" width="12" x="355" y="926"/><text fill="#000000" font-family="sans-serif" font-size="14" lengthAdjust="spacing" textLength="4" x="310" y="740.9238">&#160;</text><rect fill="#F1F1F1" height="12" style="stroke:#181818;stroke-width:1.5;" width="12" x="306" y="756"/><text fill="#000000" font-family="sans-serif" font-size="14" lengthAdjust="spacing" textLength="4" x="541" y="306.9238">&#160;</text><rect fill="#F1F1F1" height="12" style="stroke:#181818;stroke-width:1.5;" width="12" x="537" y="322"/><text fill="#000000" font-family="sans-serif" font-size="14" lengthAdjust="spacing" textLength="4" x="518" y="566.5332">&#160;</text><rect fill="#F1F1F1" height="12" style="stroke:#181818;stroke-width:1.5;" width="12" x="514" y="540"/><text fill="#000000" font-family="sans-serif" font-size="14" lengthAdjust="spacing" textLength="4" x="393" y="306.9238">&#160;</text><rect fill="#F1F1F1" height="12" style="stroke:#181818;stroke-width:1.5;" width="12" x="389" y="322"/><text fill="#000000" font-family="sans-serif" font-size="14" lengthAdjust="spacing" textLength="4" x="341" y="566.5332">&#160;</text><rect fill="#F1F1F1" height="12" style="stroke:#181818;stroke-width:1.5;" width="12" x="337" y="540"/><text fill="#000000" font-family="sans-serif" font-size="14" lengthAdjust="spacing" textLength="4" x="312" y="1102.9238">&#160;</text><rect fill="#F1F1F1" height="12" style="stroke:#181818;stroke-width:1.5;" width="12" x="308" y="1118"/><text fill="#000000" font-family="sans-serif" font-size="14" lengthAdjust="spacing" textLength="4" x="251" y="566.5332">&#160;</text><rect fill="#F1F1F1" height="12" style="stroke:#181818;stroke-width:1.5;" width="12" x="247" y="540"/><!--entity API--><g id="elem_API"><ellipse cx="297" cy="14" fill="#F1F1F1" rx="8" ry="8" style="stroke:#181818;stroke-width:0.5;"/><text fill="#000000" font-family="sans-serif" font-size="14" lengthAdjust="spacing" textLength="21" x="286.5" y="45.5332">API</text></g><!--entity UI--><g id="elem_UI"><ellipse cx="543" cy="14" fill="#F1F1F1" rx="8" ry="8" style="stroke:#181818;stroke-width:0.5;"/><text fill="#000000" font-family="sans-serif" font-size="14" lengthAdjust="spacing" textLength="12" x="537" y="45.5332">UI</text></g><!--entity A0API--><g id="elem_A0API"><ellipse cx="37" cy="328" fill="#F1F1F1" rx="8" ry="8" style="stroke:#181818;stroke-width:0.5;"/><text fill="#000000" font-family="sans-serif" font-size="14" lengthAdjust="spacing" textLength="62" x="6" y="359.5332">Auth0 API</text></g><!--entity SMTP_Office_365--><g id="elem_SMTP_Office_365"><ellipse cx="825" cy="546" fill="#F1F1F1" rx="8" ry="8" style="stroke:#181818;stroke-width:0.5;"/><text fill="#000000" font-family="sans-serif" font-size="14" lengthAdjust="spacing" textLength="107" x="771.5" y="577.5332">SMTP Office 365</text></g><!--link UI to SARMPIUI--><g id="link_UI_SARMPIUI"><path d="M543,23.01 C543,41.84 543,88.45 543,103.92 " fill="none" id="UI-SARMPIUI" style="stroke:#181818;stroke-width:1.0;"/></g><!--link SARMPIUI to FrontendINUI--><g id="link_SARMPIUI_FrontendINUI"><path d="M543,116.34 C543,146.22 543,292.45 543,321.85 " fill="none" id="SARMPIUI-FrontendINUI" style="stroke:#181818;stroke-width:1.0;"/></g><!--link FrontendOutUI2 to BACKENDAPI--><g id="link_FrontendOutUI2_BACKENDAPI"><path d="M514,550.4 C484.69,567.03 365.2669,634.774 329.8169,654.894 " fill="none" id="FrontendOutUI2-to-BACKENDAPI" style="stroke:#181818;stroke-width:1.0;"/><path d="M327.9716,665.6658 A9,9 0 0 0 319.6226 650.9554" fill="none" style="stroke:#181818;stroke-width:1.5;"/></g><!--link BACKENDAPI to BackendPI2--><g id="link_BACKENDAPI_BackendPI2"><path d="M312,675.01 C312,693.84 312,740.45 312,755.92 " fill="none" id="BACKENDAPI-BackendPI2" style="stroke:#181818;stroke-width:1.0;"/></g><!--link GDPR_API to GDPRINUI--><g id="link_GDPR_API_GDPRINUI"><path d="M314,1037.01 C314,1055.84 314,1102.45 314,1117.92 " fill="none" id="GDPR_API-GDPRINUI" style="stroke:#181818;stroke-width:1.0;"/></g><!--link BackendPO3 to GDPR_API--><g id="link_BackendPO3_GDPR_API"><path d="M314,938.05 C314,953.46 314,989.93 314,1008.85 " fill="none" id="BackendPO3-to-GDPR_API" style="stroke:#181818;stroke-width:1.0;"/><path d="M322.4572,1015.7718 A9,9 0 0 0 305.5428 1015.7718" fill="none" style="stroke:#181818;stroke-width:1.5;"/></g><!--link PLANNINGAPI to PLANNINGINUI--><g id="link_PLANNINGAPI_PLANNINGINUI"><path d="M452.31,1018.79 C453.26,993.41 456,913.9 456,848 C456,545 456,545 456,545 C456,480.83 456.51,462.81 436,402 C426.8,374.73 407.31,345.97 398.94,334.34 " fill="none" id="PLANNINGAPI-PLANNINGINUI" style="stroke:#181818;stroke-width:1.0;"/></g><!--link BackendPO4 to PLANNINGAPI--><g id="link_BackendPO4_PLANNINGAPI"><path d="M364.75,938.18 C366.56,940.62 368.82,943.52 371,946 C395.67,974.1 420.4631,997.8044 435.7831,1012.0344 " fill="none" id="BackendPO4-to-PLANNINGAPI" style="stroke:#181818;stroke-width:1.0;"/><path d="M446.6103,1010.5486 A9,9 0 0 0 435.099 1022.9417" fill="none" style="stroke:#181818;stroke-width:1.5;"/></g><!--link PLANNINGOutUI to BACKENDAPI--><g id="link_PLANNINGOutUI_BACKENDAPI"><path d="M341.67,552.07 C336.82,570.51 322.6503,624.438 316.6803,647.168 " fill="none" id="PLANNINGOutUI-to-BACKENDAPI" style="stroke:#181818;stroke-width:1.0;"/><path d="M323.1018,656.0112 A9,9 0 0 0 306.7422 651.7144" fill="none" style="stroke:#181818;stroke-width:1.5;"/></g><!--link BCPOutUI to BACKENDAPI--><g id="link_BCPOutUI_BACKENDAPI"><path d="M255.54,552.07 C264.75,570.51 292.0894,625.1649 303.4494,647.8949 " fill="none" id="BCPOutUI-to-BACKENDAPI" style="stroke:#181818;stroke-width:1.0;"/><path d="M314.1089,650.3057 A9,9 0 0 0 298.9788 657.8674" fill="none" style="stroke:#181818;stroke-width:1.5;"/></g><!--link API to SARMPI--><g id="link_API_SARMPI"><path d="M297,23.01 C297,41.84 297,88.45 297,103.92 " fill="none" id="API-SARMPI" style="stroke:#181818;stroke-width:1.0;"/></g><!--reverse link A0API to SARMPO1--><g id="link_A0API_SARMPO1"><path d="M46.5342,345.7265 C58.4542,366.6265 85.19,413.54 95.04,430.81 " fill="none" id="A0API-backto-SARMPO1" style="stroke:#181818;stroke-width:1.0;"/><path d="M35.7586,343.9038 A9,9 0 0 0 50.4514 335.524" fill="none" style="stroke:#181818;stroke-width:1.5;"/></g><!--link SARMPI to BackendPI--><g id="link_SARMPI_BackendPI"><path d="M290.65,112.64 C261.28,120.62 140,158.36 140,237 C140,237 140,237 140,547 C140,613.26 112.26,638.39 145,696 C166.14,733.19 194.49,719.06 226,748 C228.52,750.31 230.87,753.31 232.66,755.85 " fill="none" id="SARMPI-BackendPI" style="stroke:#181818;stroke-width:1.0;"/></g><!--link SARMPO1 to BackendPO1--><g id="link_SARMPO1_BackendPO1"><path d="M98.12,443.28 C98.68,468.17 101,576.32 101,665 C101,665 101,665 101,763 C101,840.76 185.93,908.94 209.82,926.58 " fill="none" id="SARMPO1-BackendPO1" style="stroke:#181818;stroke-width:1.0;"/></g><!--link SARMPO2 to BackendPO2--><g id="link_SARMPO2_BackendPO2"><path d="M739.21,443.1 C726.3,467.2 673,572.32 673,665 C673,665 673,665 673,763 C673,808.29 323.56,914.14 273.05,929.2 " fill="none" id="SARMPO2-BackendPO2" style="stroke:#181818;stroke-width:1.0;"/></g><!--link SARMPO2 to SMTP_Office_365--><g id="link_SARMPO2_SMTP_Office_365"><path d="M746,443.16 C759.34,460.36 796.2426,507.9172 812.5326,528.9272 " fill="none" id="SARMPO2-to-SMTP_Office_365" style="stroke:#181818;stroke-width:1.0;"/><path d="M823.4575,529.2153 A9,9 0 0 0 810.0903 539.5795" fill="none" style="stroke:#181818;stroke-width:1.5;"/></g><!--SRC=[ZLJHRe8m57tlLzpmv0k9GxSdOuAu6RA9nAtFfaDqPACrM1wMnNzVAPIs8YeXQEyvjptdthQS7O0p-6ISinosMP4cF6CKeOpojDYH90N7ZqC7o174hnd6THHRGR_aNqDeCuPdEU_BZnXMkrqc1gEdHqcgOfiwjX4nX1AM7nXDAHTyVxrqO39fGzEf60LZUFyzyZGNepy4uZcmWcSK7AXd55bYtJu0QuYLtC9M3_sGXoHck9cHv3kbMvWJJc19ADcdUILRsP_vmUjpDAzg85CDOpsfvrvhTrqZJNfZye9aHMWCNMDuDncZcupnBPtr8gTE7LuA9kf9j_SQL_mmmhtU5MTLScmlRFGk_Y6KPdJVDYj-ywCeZ1QNkgN8zwfKSrrJgJXIPO_8nJnUjmAhmUQIkWguLrd5RLMTvBUpDOFu-cpc1WXYIxzuSGYkgq-Q-YE2hjqzkqq27vW7HkySSB5h7INbGG9jLVHkbLFfQfdDa2bcf_KEbbacP3NeN1vIpZk0-EW2eEPM0RSKjFewh96AeqznItFDazk4FIli6T51v_By1m00]--></g></svg>