<?xml version="1.0" encoding="us-ascii" standalone="no"?><svg xmlns="http://www.w3.org/2000/svg" xmlns:xlink="http://www.w3.org/1999/xlink" contentStyleType="text/css" height="464px" preserveAspectRatio="none" style="width:638px;height:464px;background:#FFFFFF;" version="1.1" viewBox="0 0 638 464" width="638px" zoomAndPan="magnify"><defs/><g><!--cluster SARM--><g id="cluster_SARM"><rect fill="none" height="344" rx="2.5" ry="2.5" style="stroke:#181818;stroke-width:1.0;" width="397" x="142.5" y="110"/><rect fill="none" height="10" style="stroke:#181818;stroke-width:1.0;" width="15" x="519.5" y="115"/><rect fill="none" height="2" style="stroke:#181818;stroke-width:1.0;" width="4" x="517.5" y="117"/><rect fill="none" height="2" style="stroke:#181818;stroke-width:1.0;" width="4" x="517.5" y="121"/><text fill="#000000" font-family="sans-serif" font-size="14" font-style="italic" lengthAdjust="spacing" textLength="86" x="298" y="137.5332">&#171;component&#187;</text><text fill="#000000" font-family="sans-serif" font-size="14" font-style="italic" lengthAdjust="spacing" textLength="84" x="299" y="155.1426">&#171;C4 System&#187;</text><text fill="#000000" font-family="sans-serif" font-size="14" font-weight="bold" lengthAdjust="spacing" textLength="41" x="320.5" y="172.752">SARM</text></g><!--cluster Backend Data Management--><g id="cluster_Backend Data Management"><rect fill="none" height="218" rx="2.5" ry="2.5" style="stroke:#181818;stroke-width:1.0;" width="201" x="310" y="206"/><rect fill="none" height="10" style="stroke:#181818;stroke-width:1.0;" width="15" x="491" y="211"/><rect fill="none" height="2" style="stroke:#181818;stroke-width:1.0;" width="4" x="489" y="213"/><rect fill="none" height="2" style="stroke:#181818;stroke-width:1.0;" width="4" x="489" y="217"/><text fill="#000000" font-family="sans-serif" font-size="14" font-style="italic" lengthAdjust="spacing" textLength="86" x="367.5" y="233.5332">&#171;component&#187;</text><text fill="#000000" font-family="sans-serif" font-size="14" font-weight="bold" lengthAdjust="spacing" textLength="191" x="315" y="251.1426">Backend Data Management</text></g><text fill="#000000" font-family="sans-serif" font-size="14" lengthAdjust="spacing" textLength="4" x="280.5" y="88.9238">&#160;</text><rect fill="#F1F1F1" height="12" style="stroke:#181818;stroke-width:1.5;" width="12" x="276.5" y="104"/><text fill="#000000" font-family="sans-serif" font-size="14" lengthAdjust="spacing" textLength="4" x="537.5" y="335.5332">&#160;</text><rect fill="#F1F1F1" height="12" style="stroke:#181818;stroke-width:1.5;" width="12" x="533.5" y="309"/><text fill="#000000" font-family="sans-serif" font-size="14" lengthAdjust="spacing" textLength="4" x="140.5" y="335.5332">&#160;</text><rect fill="#F1F1F1" height="12" style="stroke:#181818;stroke-width:1.5;" width="12" x="136.5" y="309"/><text fill="#000000" font-family="sans-serif" font-size="14" lengthAdjust="spacing" textLength="4" x="348.5" y="184.9238">&#160;</text><rect fill="#F1F1F1" height="12" style="stroke:#181818;stroke-width:1.5;" width="12" x="344.5" y="200"/><text fill="#000000" font-family="sans-serif" font-size="14" lengthAdjust="spacing" textLength="4" x="468.5" y="444.5332">&#160;</text><rect fill="#F1F1F1" height="12" style="stroke:#181818;stroke-width:1.5;" width="12" x="464.5" y="418"/><text fill="#000000" font-family="sans-serif" font-size="14" lengthAdjust="spacing" textLength="4" x="392.5" y="444.5332">&#160;</text><rect fill="#F1F1F1" height="12" style="stroke:#181818;stroke-width:1.5;" width="12" x="388.5" y="418"/><!--entity API--><g id="elem_API"><ellipse cx="282.5" cy="14" fill="#F1F1F1" rx="8" ry="8" style="stroke:#181818;stroke-width:0.5;"/><text fill="#000000" font-family="sans-serif" font-size="14" lengthAdjust="spacing" textLength="21" x="272" y="45.5332">API</text></g><!--entity A0API--><g id="elem_A0API"><ellipse cx="600.5" cy="424" fill="#F1F1F1" rx="8" ry="8" style="stroke:#181818;stroke-width:0.5;"/><text fill="#000000" font-family="sans-serif" font-size="14" lengthAdjust="spacing" textLength="62" x="569.5" y="455.5332">Auth0 API</text></g><!--entity SMTP_Office_365--><g id="elem_SMTP_Office_365"><ellipse cx="59.5" cy="206" fill="#F1F1F1" rx="8" ry="8" style="stroke:#181818;stroke-width:0.5;"/><text fill="#000000" font-family="sans-serif" font-size="14" lengthAdjust="spacing" textLength="107" x="6" y="237.5332">SMTP Office 365</text></g><!--link API to SARMPI--><g id="link_API_SARMPI"><path d="M282.5,23.01 C282.5,41.84 282.5,88.45 282.5,103.92 " fill="none" id="API-SARMPI" style="stroke:#181818;stroke-width:1.0;"/></g><!--link SARMPO1 to A0API--><g id="link_SARMPO1_A0API"><path d="M542.44,321.16 C552.25,338.36 578.9197,385.1312 590.8897,406.1412 " fill="none" id="SARMPO1-to-A0API" style="stroke:#181818;stroke-width:1.0;"/><path d="M601.6645,407.9689 A9,9 0 0 0 586.9679 416.342" fill="none" style="stroke:#181818;stroke-width:1.5;"/></g><!--link SARMPI to BackendPI--><g id="link_SARMPI_BackendPI"><path d="M288.58,115.52 C300.37,124.62 326.42,146.32 340.5,170.5 C346.02,179.98 348.68,192.73 349.8,199.78 " fill="none" id="SARMPI-BackendPI" style="stroke:#181818;stroke-width:1.0;"/></g><!--link SARMPO1 to BackendPO1--><g id="link_SARMPO1_BackendPO1"><path d="M536.17,321.16 C524.54,339.19 485.78,399.3 473.96,417.64 " fill="none" id="SARMPO1-BackendPO1" style="stroke:#181818;stroke-width:1.0;"/></g><!--link SARMPO2 to BackendPO2--><g id="link_SARMPO2_BackendPO2"><path d="M148.73,318.64 C183.59,333.45 354.19,405.89 388.49,420.45 " fill="none" id="SARMPO2-BackendPO2" style="stroke:#181818;stroke-width:1.0;"/></g><!--reverse link SMTP_Office_365 to SARMPO2--><g id="link_SMTP_Office_365_SARMPO2"><path d="M71.8687,222.9419 C88.0787,243.8419 125.07,291.54 138.47,308.81 " fill="none" id="SMTP_Office_365-backto-SARMPO2" style="stroke:#181818;stroke-width:1.0;"/><path d="M60.9437,222.6555 A9,9 0 0 0 74.3093 212.2892" fill="none" style="stroke:#181818;stroke-width:1.5;"/></g><!--SRC=[VP592y8m48Nl-HL3Jru4hSkf55mk7egYtYNML8CqK-hq8E9_TspJrIK4mdpl9VEI42P024SamXXEEbKXQJH2Q4CgZMIem9bjLWx86_3QmXbT1b29Wuwy2_ORM4UHvc8qdUIcDpiKxC1CY13Z18qonFxPDd30yoha-rmjnh2xtqZ5N3q4y4Wm9Mt0WU94tiLzIm4pQYdhuM_95RdMY32NuLMP4ombIGYaaMSLiz1DLUJup6AtspXV-fO6c-gVmyqTJo5uyiD2lrzUrTwBISy-UY6yBNM2sjNiQh7RmcvDCpwp-qSl]--></g></svg>