<?xml version="1.0" encoding="us-ascii" standalone="no"?><svg xmlns="http://www.w3.org/2000/svg" xmlns:xlink="http://www.w3.org/1999/xlink" contentStyleType="text/css" height="551px" preserveAspectRatio="none" style="width:492px;height:551px;background:#FFFFFF;" version="1.1" viewBox="0 0 492 551" width="492px" zoomAndPan="magnify"><defs/><g><!--cluster LOCALHOST--><g id="cluster_LOCALHOST"><polygon fill="none" points="31,203,41,193,475,193,475,321,465,331,31,331,31,203" style="stroke:#181818;stroke-width:1.0;"/><line style="stroke:#181818;stroke-width:1.0;" x1="465" x2="475" y1="203" y2="193"/><line style="stroke:#181818;stroke-width:1.0;" x1="31" x2="465" y1="203" y2="203"/><line style="stroke:#181818;stroke-width:1.0;" x1="465" x2="465" y1="203" y2="331"/><text fill="#000000" font-family="sans-serif" font-size="14" font-weight="bold" lengthAdjust="spacing" textLength="68" x="213" y="220.5332">localhost:</text></g><!--cluster Server--><g id="cluster_Server"><polygon fill="none" points="31,16,41,6,224,6,224,117,214,127,31,127,31,16" style="stroke:#181818;stroke-width:1.0;"/><line style="stroke:#181818;stroke-width:1.0;" x1="214" x2="224" y1="16" y2="6"/><line style="stroke:#181818;stroke-width:1.0;" x1="31" x2="214" y1="16" y2="16"/><line style="stroke:#181818;stroke-width:1.0;" x1="214" x2="214" y1="16" y2="127"/><text fill="#000000" font-family="sans-serif" font-size="14" font-weight="bold" lengthAdjust="spacing" textLength="117" x="65" y="33.5332">Server 2: vs1422</text></g><!--cluster Server2--><g id="cluster_Server2"><polygon fill="none" points="16,407,26,397,209,397,209,524,199,534,16,534,16,407" style="stroke:#181818;stroke-width:1.0;"/><line style="stroke:#181818;stroke-width:1.0;" x1="199" x2="209" y1="407" y2="397"/><line style="stroke:#181818;stroke-width:1.0;" x1="16" x2="199" y1="407" y2="407"/><line style="stroke:#181818;stroke-width:1.0;" x1="199" x2="199" y1="407" y2="534"/><text fill="#000000" font-family="sans-serif" font-size="14" font-weight="bold" lengthAdjust="spacing" textLength="117" x="50" y="424.5332">Server 1: vs1372</text></g><!--entity BackendDataManagement--><g id="elem_BackendDataManagement"><rect fill="#F1F1F1" height="65.2188" rx="2.5" ry="2.5" style="stroke:#181818;stroke-width:0.5;" width="215" x="235.5" y="242"/><rect fill="#F1F1F1" height="10" style="stroke:#181818;stroke-width:0.5;" width="15" x="430.5" y="247"/><rect fill="#F1F1F1" height="2" style="stroke:#181818;stroke-width:0.5;" width="4" x="428.5" y="249"/><rect fill="#F1F1F1" height="2" style="stroke:#181818;stroke-width:0.5;" width="4" x="428.5" y="253"/><text fill="#000000" font-family="sans-serif" font-size="14" font-style="italic" lengthAdjust="spacing" textLength="86" x="295" y="276.5332">&#171;component&#187;</text><text fill="#000000" font-family="sans-serif" font-size="14" lengthAdjust="spacing" textLength="175" x="250.5" y="294.1426">Backend Data Management</text></g><!--entity P--><g id="elem_P"><rect fill="#F1F1F1" height="65.2188" rx="2.5" ry="2.5" style="stroke:#181818;stroke-width:0.5;" width="126" x="74" y="242"/><rect fill="#F1F1F1" height="10" style="stroke:#181818;stroke-width:0.5;" width="15" x="180" y="247"/><rect fill="#F1F1F1" height="2" style="stroke:#181818;stroke-width:0.5;" width="4" x="178" y="249"/><rect fill="#F1F1F1" height="2" style="stroke:#181818;stroke-width:0.5;" width="4" x="178" y="253"/><text fill="#000000" font-family="sans-serif" font-size="14" font-style="italic" lengthAdjust="spacing" textLength="86" x="89" y="276.5332">&#171;component&#187;</text><text fill="#000000" font-family="sans-serif" font-size="14" lengthAdjust="spacing" textLength="55" x="104.5" y="294.1426">Planning</text></g><!--entity Frontend--><g id="elem_Frontend"><rect fill="#F1F1F1" height="47.6094" rx="2.5" ry="2.5" style="stroke:#181818;stroke-width:0.5;" width="98" x="88" y="55"/><rect fill="#F1F1F1" height="10" style="stroke:#181818;stroke-width:0.5;" width="15" x="166" y="60"/><rect fill="#F1F1F1" height="2" style="stroke:#181818;stroke-width:0.5;" width="4" x="164" y="62"/><rect fill="#F1F1F1" height="2" style="stroke:#181818;stroke-width:0.5;" width="4" x="164" y="66"/><text fill="#000000" font-family="sans-serif" font-size="14" lengthAdjust="spacing" textLength="58" x="103" y="89.5332">Frontend</text></g><!--entity Database--><g id="elem_Database"><path d="M81.5,456 C81.5,446 129,446 129,446 C129,446 176.5,446 176.5,456 L176.5,500.2188 C176.5,510.2188 129,510.2188 129,510.2188 C129,510.2188 81.5,510.2188 81.5,500.2188 L81.5,456 " fill="#F1F1F1" style="stroke:#181818;stroke-width:0.5;"/><path d="M81.5,456 C81.5,466 129,466 129,466 C129,466 176.5,466 176.5,456 " fill="none" style="stroke:#181818;stroke-width:0.5;"/><text fill="#000000" font-family="sans-serif" font-size="14" font-style="italic" lengthAdjust="spacing" textLength="75" x="91.5" y="484.5332">&#171;database&#187;</text><text fill="#000000" font-family="sans-serif" font-size="14" lengthAdjust="spacing" textLength="36" x="111" y="502.1426">Mysql</text></g><!--link Server to LOCALHOST--><g id="link_Server_LOCALHOST"><path codeLine="19" d="M39,127.3237 C39,127.6436 39,127.9645 39,128.2863 C39,128.9301 39,129.5776 39,130.2289 C39,131.5314 39,132.8487 39,134.1794 C39,136.8409 39,139.556 39,142.314 C39,153.3462 39,165.0653 39,176.7838 C39,179.7134 39,182.6429 39,185.5617 C39,187.0211 39,188.4778 39,189.9304 C39,190.6568 39,191.3821 39,192.1062 C39,192.2872 39,192.4682 39,192.6491 " fill="none" id="Server-LOCALHOST" style="stroke:#181818;stroke-width:1.0;"/><text fill="#000000" font-family="sans-serif" font-size="13" lengthAdjust="spacing" textLength="33" x="40" y="165.4951">http/s</text></g><!--link LOCALHOST to Server2--><g id="link_LOCALHOST_Server2"><path codeLine="20" d="M39,331.919 C39,334.6905 39,337.5178 39,340.3899 C39,351.8781 39,364.0819 39,376.285 C39,382.3866 39,388.488 39,394.4997 C39,395.2512 39,396.0012 39,396.7497 " fill="none" id="LOCALHOST-Server2" style="stroke:#181818;stroke-width:1.0;"/><text fill="#000000" font-family="sans-serif" font-size="13" lengthAdjust="spacing" textLength="41" x="40" y="369.4951">TCP/IP</text></g><!--SRC=[NP3T2e9048NlVOg3zn9P48W4_H05HKAzmAHBHJfhxXP4zEvjWrfvkNFE-VRCiCuK_5odb9-qiH5yaC5wEvkibzlT7ayFI7LHQbPiuKyflIZEC2TBs13JKHLEa52jVQIlWZXku-Enu5x_o2GdvZCVXP5q_7X24Y_FOscwKzLTLGWZt4r_68QIgeUThejAitM5nD8ywWPTNbzuWz4lBnGlaBc53cISUVCmrrmSysOMnutSRkVOt_i5jw2f5-5aRTaplshG_XLXFqjwgyHx0m00]--></g></svg>