<?xml version="1.0" encoding="us-ascii" standalone="no"?><svg xmlns="http://www.w3.org/2000/svg" xmlns:xlink="http://www.w3.org/1999/xlink" contentStyleType="text/css" height="1062px" preserveAspectRatio="none" style="width:662px;height:1062px;background:#FFFFFF;" version="1.1" viewBox="0 0 662 1062" width="662px" zoomAndPan="magnify"><defs/><g><!--cluster LOCALHOST--><g id="cluster_LOCALHOST"><polygon fill="none" points="267,220,277,210,645,210,645,424,635,434,267,434,267,220" style="stroke:#181818;stroke-width:1.0;"/><line style="stroke:#181818;stroke-width:1.0;" x1="635" x2="645" y1="220" y2="210"/><line style="stroke:#181818;stroke-width:1.0;" x1="267" x2="635" y1="220" y2="220"/><line style="stroke:#181818;stroke-width:1.0;" x1="635" x2="635" y1="220" y2="434"/><text fill="#000000" font-family="sans-serif" font-size="14" font-weight="bold" lengthAdjust="spacing" textLength="68" x="416" y="237.5332">localhost:</text></g><!--cluster Browser--><g id="cluster_Browser"><rect fill="none" height="135" rx="2.5" ry="2.5" style="stroke:#181818;stroke-width:1.0;" width="158" x="455" y="267"/><rect fill="none" height="10" style="stroke:#181818;stroke-width:1.0;" width="15" x="593" y="272"/><rect fill="none" height="2" style="stroke:#181818;stroke-width:1.0;" width="4" x="591" y="274"/><rect fill="none" height="2" style="stroke:#181818;stroke-width:1.0;" width="4" x="591" y="278"/><text fill="#000000" font-family="sans-serif" font-size="14" font-style="italic" lengthAdjust="spacing" textLength="86" x="491" y="294.5332">&#171;component&#187;</text><text fill="#000000" font-family="sans-serif" font-size="14" font-weight="bold" lengthAdjust="spacing" textLength="59" x="504.5" y="312.1426">Browser</text></g><!--cluster Server--><g id="cluster_Server"><polygon fill="none" points="31,510,41,500,314,500,314,628,304,638,31,638,31,510" style="stroke:#181818;stroke-width:1.0;"/><line style="stroke:#181818;stroke-width:1.0;" x1="304" x2="314" y1="510" y2="500"/><line style="stroke:#181818;stroke-width:1.0;" x1="31" x2="304" y1="510" y2="510"/><line style="stroke:#181818;stroke-width:1.0;" x1="304" x2="304" y1="510" y2="638"/><text fill="#000000" font-family="sans-serif" font-size="14" font-weight="bold" lengthAdjust="spacing" textLength="117" x="110" y="527.5332">Server 1: vs1422</text></g><!--cluster Server2--><g id="cluster_Server2"><polygon fill="none" points="16,714.5,26,704.5,209,704.5,209,831.5,199,841.5,16,841.5,16,714.5" style="stroke:#181818;stroke-width:1.0;"/><line style="stroke:#181818;stroke-width:1.0;" x1="199" x2="209" y1="714.5" y2="704.5"/><line style="stroke:#181818;stroke-width:1.0;" x1="16" x2="199" y1="714.5" y2="714.5"/><line style="stroke:#181818;stroke-width:1.0;" x1="199" x2="199" y1="714.5" y2="841.5"/><text fill="#000000" font-family="sans-serif" font-size="14" font-weight="bold" lengthAdjust="spacing" textLength="117" x="50" y="732.0332">Server 2: vs1372</text></g><!--cluster Server3--><g id="cluster_Server3"><polygon fill="none" points="267,16,277,6,460,6,460,134,450,144,267,144,267,16" style="stroke:#181818;stroke-width:1.0;"/><line style="stroke:#181818;stroke-width:1.0;" x1="450" x2="460" y1="16" y2="6"/><line style="stroke:#181818;stroke-width:1.0;" x1="267" x2="450" y1="16" y2="16"/><line style="stroke:#181818;stroke-width:1.0;" x1="450" x2="450" y1="16" y2="144"/><text fill="#000000" font-family="sans-serif" font-size="14" font-weight="bold" lengthAdjust="spacing" textLength="109" x="305" y="33.5332">Server 3: vs215</text></g><!--cluster Server4--><g id="cluster_Server4"><polygon fill="none" points="270,714,280,704,469,704,469,832,459,842,270,842,270,714" style="stroke:#181818;stroke-width:1.0;"/><line style="stroke:#181818;stroke-width:1.0;" x1="459" x2="469" y1="714" y2="704"/><line style="stroke:#181818;stroke-width:1.0;" x1="270" x2="459" y1="714" y2="714"/><line style="stroke:#181818;stroke-width:1.0;" x1="459" x2="459" y1="714" y2="842"/><text fill="#000000" font-family="sans-serif" font-size="14" font-weight="bold" lengthAdjust="spacing" textLength="109" x="311" y="731.5332">Server 4: vs227</text></g><!--cluster Server5--><g id="cluster_Server5"><polygon fill="none" points="270,918,280,908,433,908,433,1035,423,1045,270,1045,270,918" style="stroke:#181818;stroke-width:1.0;"/><line style="stroke:#181818;stroke-width:1.0;" x1="423" x2="433" y1="918" y2="908"/><line style="stroke:#181818;stroke-width:1.0;" x1="270" x2="423" y1="918" y2="918"/><line style="stroke:#181818;stroke-width:1.0;" x1="423" x2="423" y1="918" y2="1045"/><text fill="#000000" font-family="sans-serif" font-size="14" font-weight="bold" lengthAdjust="spacing" textLength="77" x="309" y="935.5332">Server 5: ?</text></g><!--entity Planning--><g id="elem_Planning"><rect fill="#F1F1F1" height="65.2188" rx="2.5" ry="2.5" style="stroke:#181818;stroke-width:0.5;" width="126" x="310" y="321"/><rect fill="#F1F1F1" height="10" style="stroke:#181818;stroke-width:0.5;" width="15" x="416" y="326"/><rect fill="#F1F1F1" height="2" style="stroke:#181818;stroke-width:0.5;" width="4" x="414" y="328"/><rect fill="#F1F1F1" height="2" style="stroke:#181818;stroke-width:0.5;" width="4" x="414" y="332"/><text fill="#000000" font-family="sans-serif" font-size="14" font-style="italic" lengthAdjust="spacing" textLength="86" x="325" y="355.5332">&#171;component&#187;</text><text fill="#000000" font-family="sans-serif" font-size="14" lengthAdjust="spacing" textLength="55" x="340.5" y="373.1426">Planning</text></g><!--entity UI--><g id="elem_UI"><rect fill="#F1F1F1" height="65.2188" rx="2.5" ry="2.5" style="stroke:#181818;stroke-width:0.5;" width="126" x="471" y="321"/><rect fill="#F1F1F1" height="10" style="stroke:#181818;stroke-width:0.5;" width="15" x="577" y="326"/><rect fill="#F1F1F1" height="2" style="stroke:#181818;stroke-width:0.5;" width="4" x="575" y="328"/><rect fill="#F1F1F1" height="2" style="stroke:#181818;stroke-width:0.5;" width="4" x="575" y="332"/><text fill="#000000" font-family="sans-serif" font-size="14" font-style="italic" lengthAdjust="spacing" textLength="86" x="486" y="355.5332">&#171;component&#187;</text><text fill="#000000" font-family="sans-serif" font-size="14" lengthAdjust="spacing" textLength="12" x="523" y="373.1426">UI</text></g><!--entity BackendDataManagement--><g id="elem_BackendDataManagement"><rect fill="#F1F1F1" height="65.2188" rx="2.5" ry="2.5" style="stroke:#181818;stroke-width:0.5;" width="215" x="74.5" y="549"/><rect fill="#F1F1F1" height="10" style="stroke:#181818;stroke-width:0.5;" width="15" x="269.5" y="554"/><rect fill="#F1F1F1" height="2" style="stroke:#181818;stroke-width:0.5;" width="4" x="267.5" y="556"/><rect fill="#F1F1F1" height="2" style="stroke:#181818;stroke-width:0.5;" width="4" x="267.5" y="560"/><text fill="#000000" font-family="sans-serif" font-size="14" font-style="italic" lengthAdjust="spacing" textLength="86" x="134" y="583.5332">&#171;component&#187;</text><text fill="#000000" font-family="sans-serif" font-size="14" lengthAdjust="spacing" textLength="175" x="89.5" y="601.1426">Backend Data Management</text></g><!--entity Database--><g id="elem_Database"><path d="M81.5,763.5 C81.5,753.5 129,753.5 129,753.5 C129,753.5 176.5,753.5 176.5,763.5 L176.5,807.7188 C176.5,817.7188 129,817.7188 129,817.7188 C129,817.7188 81.5,817.7188 81.5,807.7188 L81.5,763.5 " fill="#F1F1F1" style="stroke:#181818;stroke-width:0.5;"/><path d="M81.5,763.5 C81.5,773.5 129,773.5 129,773.5 C129,773.5 176.5,773.5 176.5,763.5 " fill="none" style="stroke:#181818;stroke-width:0.5;"/><text fill="#000000" font-family="sans-serif" font-size="14" font-style="italic" lengthAdjust="spacing" textLength="75" x="91.5" y="792.0332">&#171;database&#187;</text><text fill="#000000" font-family="sans-serif" font-size="14" lengthAdjust="spacing" textLength="36" x="111" y="809.6426">Mysql</text></g><!--entity Frontend--><g id="elem_Frontend"><rect fill="#F1F1F1" height="65.2188" rx="2.5" ry="2.5" style="stroke:#181818;stroke-width:0.5;" width="126" x="310" y="55"/><rect fill="#F1F1F1" height="10" style="stroke:#181818;stroke-width:0.5;" width="15" x="416" y="60"/><rect fill="#F1F1F1" height="2" style="stroke:#181818;stroke-width:0.5;" width="4" x="414" y="62"/><rect fill="#F1F1F1" height="2" style="stroke:#181818;stroke-width:0.5;" width="4" x="414" y="66"/><text fill="#000000" font-family="sans-serif" font-size="14" font-style="italic" lengthAdjust="spacing" textLength="86" x="325" y="89.5332">&#171;component&#187;</text><text fill="#000000" font-family="sans-serif" font-size="14" lengthAdjust="spacing" textLength="58" x="339" y="107.1426">Frontend</text></g><!--entity BackendNode--><g id="elem_BackendNode"><rect fill="#F1F1F1" height="65.2188" rx="2.5" ry="2.5" style="stroke:#181818;stroke-width:0.5;" width="132" x="313" y="753"/><rect fill="#F1F1F1" height="10" style="stroke:#181818;stroke-width:0.5;" width="15" x="425" y="758"/><rect fill="#F1F1F1" height="2" style="stroke:#181818;stroke-width:0.5;" width="4" x="423" y="760"/><rect fill="#F1F1F1" height="2" style="stroke:#181818;stroke-width:0.5;" width="4" x="423" y="764"/><text fill="#000000" font-family="sans-serif" font-size="14" font-style="italic" lengthAdjust="spacing" textLength="86" x="331" y="787.5332">&#171;component&#187;</text><text fill="#000000" font-family="sans-serif" font-size="14" lengthAdjust="spacing" textLength="92" x="328" y="805.1426">Backend Node</text></g><!--entity MongoDB--><g id="elem_MongoDB"><path d="M313.5,967 C313.5,957 361,957 361,957 C361,957 408.5,957 408.5,967 L408.5,1011.2188 C408.5,1021.2188 361,1021.2188 361,1021.2188 C361,1021.2188 313.5,1021.2188 313.5,1011.2188 L313.5,967 " fill="#F1F1F1" style="stroke:#181818;stroke-width:0.5;"/><path d="M313.5,967 C313.5,977 361,977 361,977 C361,977 408.5,977 408.5,967 " fill="none" style="stroke:#181818;stroke-width:0.5;"/><text fill="#000000" font-family="sans-serif" font-size="14" font-style="italic" lengthAdjust="spacing" textLength="75" x="323.5" y="995.5332">&#171;database&#187;</text><text fill="#000000" font-family="sans-serif" font-size="14" lengthAdjust="spacing" textLength="62" x="330" y="1013.1426">MongoDB</text></g><!--link LOCALHOST to Server--><g id="link_LOCALHOST_Server"><path d="M266.8522,356.7188 C262.2215,358.0432 255.7884,359.9727 247.9998,362.538 C232.4228,367.6684 211.4244,375.3419 188.5812,385.8038 C142.895,406.7275 89.83,438.805 58,484 C54.9025,488.3975 52.2795,493.1739 50.0612,498.1694 C49.9226,498.4816 49.7855,498.7947 49.65,499.1086 C49.5823,499.2655 49.5149,499.4227 49.4479,499.58 " fill="none" id="LOCALHOST-Server" style="stroke:#181818;stroke-width:1.0;"/><text fill="#000000" font-family="sans-serif" font-size="13" lengthAdjust="spacing" textLength="33" x="81" y="472.4951">http/s</text></g><!--link Server to Server4--><g id="link_Server_Server4"><path d="M47.3184,638.3353 C47.3709,638.4492 47.4238,638.563 47.4769,638.6767 C47.5832,638.9039 47.6907,639.1306 47.7994,639.3565 C48.6696,641.164 49.6203,642.9277 50.6588,644.6313 C52.7358,648.0384 55.1638,651.205 58,654 C68.44,664.29 75.78,658.43 90,662 C135.79,673.5 152.7,663.4 193,688 C217.01,702.655 237.9775,726.26 253.08,746.455 C256.8556,751.5038 260.2647,756.3394 263.2631,760.7688 C264.7623,762.9834 266.1588,765.0966 267.4472,767.084 C268.0914,768.0777 268.7085,769.04 269.2979,769.9678 C269.4452,770.1998 269.5908,770.4296 269.7347,770.6572 C269.8067,770.771 269.8782,770.8843 269.9492,770.997 " fill="none" id="Server-Server4" style="stroke:#181818;stroke-width:1.0;"/><text fill="#000000" font-family="sans-serif" font-size="13" lengthAdjust="spacing" textLength="33" x="179" y="676.4951">http/s</text></g><!--link Server3 to LOCALHOST--><g id="link_Server3_LOCALHOST"><path d="M275,144.2726 C275,144.6959 275,145.1208 275,145.5472 C275,147.2529 275,148.9836 275,150.7374 C275,157.7523 275,165.1362 275,172.7659 C275,180.3957 275,188.2713 275,196.2698 C275,200.2691 275,204.2991 275,208.3445 C275,208.8501 275,209.356 275,209.8622 " fill="none" id="Server3-LOCALHOST" style="stroke:#181818;stroke-width:1.0;"/><text fill="#000000" font-family="sans-serif" font-size="13" lengthAdjust="spacing" textLength="33" x="276" y="182.4951">http/s</text></g><!--link Server4 to LOCALHOST--><g id="link_Server4_LOCALHOST"><path d="M293.4766,703.8545 C294.6317,698.4809 295.8113,693.1575 297,688 C300.51,672.77 303.98,669.5 306,654 C315.75,579.08 318.76,558.47 306,484 C303.29,468.21 298.24,465.45 294,450 C292.6125,444.9463 291.2825,439.7161 290.0164,434.4264 " fill="none" id="Server4-LOCALHOST" style="stroke:#181818;stroke-width:1.0;"/><text fill="#000000" font-family="sans-serif" font-size="13" lengthAdjust="spacing" textLength="33" x="315" y="586.9951">http/s</text></g><!--link Server to Server2--><g id="link_Server_Server2"><path d="M39,638.023 C39,638.3685 39,638.7149 39,639.0622 C39,641.8406 39,644.675 39,647.5542 C39,659.0712 39,671.3053 39,683.5388 C39,689.6555 39,695.772 39,701.7986 C39,702.552 39,703.3039 39,704.0542 " fill="none" id="Server-Server2" style="stroke:#181818;stroke-width:1.0;"/><text fill="#000000" font-family="sans-serif" font-size="13" lengthAdjust="spacing" textLength="41" x="40" y="676.4951">TCP/IP</text></g><!--link Server4 to Server5--><g id="link_Server4_Server5"><path d="M278,842.919 C278,845.6905 278,848.5178 278,851.3899 C278,862.8781 278,875.0819 278,887.285 C278,893.3866 278,899.488 278,905.4997 C278,906.2512 278,907.0012 278,907.7497 " fill="none" id="Server4-Server5" style="stroke:#181818;stroke-width:1.0;"/><text fill="#000000" font-family="sans-serif" font-size="13" lengthAdjust="spacing" textLength="41" x="279" y="880.4951">TCP/IP</text></g><!--SRC=[ZLBTQeCm5BxtAGwzByMe54GwrigOqAv2smV8DDWnctH6EeRitHTFZKRHihkSVByvoaNAO9QBXEPd8KiVPa0bRFURv-th_d24oh804d6v2ivu2RCufvn_y0nfUe0WQ2ch5K05IlGxKAuByIrPWSBcFA9Jcfxg5A7W5FMvwAyIEDO_iEAct6mVRj9s2K59Srafwg08JJuPJo6a9OKTvJHZ5mNSYzsn6kgGGSrgD9nWkBCqmmbo0L9bzqwb8kz-v5UEZ53V1O669xsTsflOdc7jZ3pifH2yLEsHfeUfylq45nF8qaXm7wpkJMdDVTNplxRa-V1aP7WwmzYGu9a8rqXgpXChwdxI-Ln_RH_EPNbTIAkPMyGTGawDTHO3r7s8ThP4GSTDl8XYKwWVrs9_]--></g></svg>