<?xml version="1.0" encoding="us-ascii" standalone="no"?><svg xmlns="http://www.w3.org/2000/svg" xmlns:xlink="http://www.w3.org/1999/xlink" contentStyleType="text/css" height="568px" preserveAspectRatio="none" style="width:402px;height:568px;background:#FFFFFF;" version="1.1" viewBox="0 0 402 568" width="402px" zoomAndPan="magnify"><defs/><g><!--cluster LOCALHOST--><g id="cluster_LOCALHOST"><polygon fill="none" points="31,220,41,210,385,210,385,338,375,348,31,348,31,220" style="stroke:#181818;stroke-width:1.0;"/><line style="stroke:#181818;stroke-width:1.0;" x1="375" x2="385" y1="220" y2="210"/><line style="stroke:#181818;stroke-width:1.0;" x1="31" x2="375" y1="220" y2="220"/><line style="stroke:#181818;stroke-width:1.0;" x1="375" x2="375" y1="220" y2="348"/><text fill="#000000" font-family="sans-serif" font-size="14" font-weight="bold" lengthAdjust="spacing" textLength="68" x="168" y="237.5332">localhost:</text></g><!--cluster Server--><g id="cluster_Server"><polygon fill="none" points="31,16,41,6,314,6,314,134,304,144,31,144,31,16" style="stroke:#181818;stroke-width:1.0;"/><line style="stroke:#181818;stroke-width:1.0;" x1="304" x2="314" y1="16" y2="6"/><line style="stroke:#181818;stroke-width:1.0;" x1="31" x2="304" y1="16" y2="16"/><line style="stroke:#181818;stroke-width:1.0;" x1="304" x2="304" y1="16" y2="144"/><text fill="#000000" font-family="sans-serif" font-size="14" font-weight="bold" lengthAdjust="spacing" textLength="117" x="110" y="33.5332">Server 2: vs1422</text></g><!--cluster Server2--><g id="cluster_Server2"><polygon fill="none" points="16,424,26,414,209,414,209,541,199,551,16,551,16,424" style="stroke:#181818;stroke-width:1.0;"/><line style="stroke:#181818;stroke-width:1.0;" x1="199" x2="209" y1="424" y2="414"/><line style="stroke:#181818;stroke-width:1.0;" x1="16" x2="199" y1="424" y2="424"/><line style="stroke:#181818;stroke-width:1.0;" x1="199" x2="199" y1="424" y2="551"/><text fill="#000000" font-family="sans-serif" font-size="14" font-weight="bold" lengthAdjust="spacing" textLength="117" x="50" y="441.5332">Server 1: vs1372</text></g><!--entity Frontend--><g id="elem_Frontend"><rect fill="#F1F1F1" height="65.2188" rx="2.5" ry="2.5" style="stroke:#181818;stroke-width:0.5;" width="126" x="235" y="259"/><rect fill="#F1F1F1" height="10" style="stroke:#181818;stroke-width:0.5;" width="15" x="341" y="264"/><rect fill="#F1F1F1" height="2" style="stroke:#181818;stroke-width:0.5;" width="4" x="339" y="266"/><rect fill="#F1F1F1" height="2" style="stroke:#181818;stroke-width:0.5;" width="4" x="339" y="270"/><text fill="#000000" font-family="sans-serif" font-size="14" font-style="italic" lengthAdjust="spacing" textLength="86" x="250" y="293.5332">&#171;component&#187;</text><text fill="#000000" font-family="sans-serif" font-size="14" lengthAdjust="spacing" textLength="58" x="264" y="311.1426">Frontend</text></g><!--entity Planning--><g id="elem_Planning"><rect fill="#F1F1F1" height="65.2188" rx="2.5" ry="2.5" style="stroke:#181818;stroke-width:0.5;" width="126" x="74" y="259"/><rect fill="#F1F1F1" height="10" style="stroke:#181818;stroke-width:0.5;" width="15" x="180" y="264"/><rect fill="#F1F1F1" height="2" style="stroke:#181818;stroke-width:0.5;" width="4" x="178" y="266"/><rect fill="#F1F1F1" height="2" style="stroke:#181818;stroke-width:0.5;" width="4" x="178" y="270"/><text fill="#000000" font-family="sans-serif" font-size="14" font-style="italic" lengthAdjust="spacing" textLength="86" x="89" y="293.5332">&#171;component&#187;</text><text fill="#000000" font-family="sans-serif" font-size="14" lengthAdjust="spacing" textLength="55" x="104.5" y="311.1426">Planning</text></g><!--entity BackendDataManagement--><g id="elem_BackendDataManagement"><rect fill="#F1F1F1" height="65.2188" rx="2.5" ry="2.5" style="stroke:#181818;stroke-width:0.5;" width="215" x="74.5" y="55"/><rect fill="#F1F1F1" height="10" style="stroke:#181818;stroke-width:0.5;" width="15" x="269.5" y="60"/><rect fill="#F1F1F1" height="2" style="stroke:#181818;stroke-width:0.5;" width="4" x="267.5" y="62"/><rect fill="#F1F1F1" height="2" style="stroke:#181818;stroke-width:0.5;" width="4" x="267.5" y="66"/><text fill="#000000" font-family="sans-serif" font-size="14" font-style="italic" lengthAdjust="spacing" textLength="86" x="134" y="89.5332">&#171;component&#187;</text><text fill="#000000" font-family="sans-serif" font-size="14" lengthAdjust="spacing" textLength="175" x="89.5" y="107.1426">Backend Data Management</text></g><!--entity Database--><g id="elem_Database"><path d="M81.5,473 C81.5,463 129,463 129,463 C129,463 176.5,463 176.5,473 L176.5,517.2188 C176.5,527.2188 129,527.2188 129,527.2188 C129,527.2188 81.5,527.2188 81.5,517.2188 L81.5,473 " fill="#F1F1F1" style="stroke:#181818;stroke-width:0.5;"/><path d="M81.5,473 C81.5,483 129,483 129,483 C129,483 176.5,483 176.5,473 " fill="none" style="stroke:#181818;stroke-width:0.5;"/><text fill="#000000" font-family="sans-serif" font-size="14" font-style="italic" lengthAdjust="spacing" textLength="75" x="91.5" y="501.5332">&#171;database&#187;</text><text fill="#000000" font-family="sans-serif" font-size="14" lengthAdjust="spacing" textLength="36" x="111" y="519.1426">Mysql</text></g><!--link Server to LOCALHOST--><g id="link_Server_LOCALHOST"><path codeLine="22" d="M39,144.023 C39,144.3685 39,144.7149 39,145.0622 C39,147.8406 39,150.675 39,153.5542 C39,165.0712 39,177.3053 39,189.5388 C39,195.6555 39,201.772 39,207.7986 C39,208.1753 39,208.5516 39,208.9276 C39,209.1155 39,209.3034 39,209.4912 " fill="none" id="Server-LOCALHOST" style="stroke:#181818;stroke-width:1.0;"/><text fill="#000000" font-family="sans-serif" font-size="13" lengthAdjust="spacing" textLength="33" x="40" y="182.4951">http/s</text></g><!--link LOCALHOST to Server2--><g id="link_LOCALHOST_Server2"><path codeLine="23" d="M39,348.919 C39,351.6905 39,354.5178 39,357.3899 C39,368.8781 39,381.0819 39,393.285 C39,399.3866 39,405.488 39,411.4997 C39,412.2512 39,413.0012 39,413.7497 " fill="none" id="LOCALHOST-Server2" style="stroke:#181818;stroke-width:1.0;"/><text fill="#000000" font-family="sans-serif" font-size="13" lengthAdjust="spacing" textLength="41" x="40" y="386.4951">TCP/IP</text></g><!--SRC=[RP31gi8m44Nt_OfBzqMiWb2Au5D4GR6WFp2sGSKwqIOAKlntqy5ebRVCt7lc965TA8IbpgdSQsCJX223nMeyMinMwmtg801oVJfhLcmHJYlDLd4XDNz0chuhms7jYCSFbfN4VE2TOFxmZG4rX7GiowtMghgf2d62c-dsurZWrx2HV2l-A3ysTvcG9Io9QQTEBX3ebJNH9_dHr__AkoBl3ThoMBf0uTPjoRZoycukfJGcVfQcFcxl_dniT8tyMnBihJrtJ3kDtgu4ct7McMV14m00]--></g></svg>