<?xml version="1.0" encoding="us-ascii" standalone="no"?><svg xmlns="http://www.w3.org/2000/svg" xmlns:xlink="http://www.w3.org/1999/xlink" contentStyleType="text/css" height="604px" preserveAspectRatio="none" style="width:1090px;height:604px;background:#FFFFFF;" version="1.1" viewBox="0 0 1090 604" width="1090px" zoomAndPan="magnify"><defs/><g><rect fill="#FFFFFF" height="401.5703" style="stroke:#181818;stroke-width:1.0;" width="10" x="22.5" y="96.2188"/><rect fill="#FFFFFF" height="370.2188" style="stroke:#181818;stroke-width:1.0;" width="10" x="158.5" y="118.5703"/><rect fill="#FFFFFF" height="309.5156" style="stroke:#181818;stroke-width:1.0;" width="10" x="444.5" y="148.9219"/><rect fill="#FFFFFF" height="30.3516" style="stroke:#181818;stroke-width:1.0;" width="10" x="841.5" y="239.9766"/><rect fill="#FFFFFF" height="30.3516" style="stroke:#181818;stroke-width:1.0;" width="10" x="929.5" y="397.7344"/><rect fill="#FFFFFF" height="30.3516" style="stroke:#181818;stroke-width:1.0;" width="10" x="1031.5" y="179.2734"/><rect fill="#FFFFFF" height="30.3516" style="stroke:#181818;stroke-width:1.0;" width="10" x="1031.5" y="300.6797"/><line style="stroke:#181818;stroke-width:0.5;stroke-dasharray:5.0,5.0;" x1="27" x2="27" y1="86.2188" y2="506.7891"/><line style="stroke:#181818;stroke-width:0.5;stroke-dasharray:5.0,5.0;" x1="163.5" x2="163.5" y1="86.2188" y2="506.7891"/><line style="stroke:#181818;stroke-width:0.5;stroke-dasharray:5.0,5.0;" x1="449.5" x2="449.5" y1="86.2188" y2="506.7891"/><line style="stroke:#181818;stroke-width:0.5;stroke-dasharray:5.0,5.0;" x1="846.5" x2="846.5" y1="86.2188" y2="506.7891"/><line style="stroke:#181818;stroke-width:0.5;stroke-dasharray:5.0,5.0;" x1="934.5" x2="934.5" y1="86.2188" y2="506.7891"/><line style="stroke:#181818;stroke-width:0.5;stroke-dasharray:5.0,5.0;" x1="1036.5" x2="1036.5" y1="86.2188" y2="506.7891"/><text fill="#000000" font-family="sans-serif" font-size="14" lengthAdjust="spacing" textLength="39" x="5" y="83.1426">Admin</text><ellipse cx="27.5" cy="17.1094" fill="#E2E2F0" rx="8" ry="8" style="stroke:#181818;stroke-width:0.5;"/><path d="M27.5,25.1094 L27.5,52.1094 M14.5,33.1094 L40.5,33.1094 M27.5,52.1094 L14.5,67.1094 M27.5,52.1094 L40.5,67.1094 " fill="none" style="stroke:#181818;stroke-width:0.5;"/><text fill="#000000" font-family="sans-serif" font-size="14" lengthAdjust="spacing" textLength="39" x="5" y="520.3223">Admin</text><ellipse cx="27.5" cy="531.8984" fill="#E2E2F0" rx="8" ry="8" style="stroke:#181818;stroke-width:0.5;"/><path d="M27.5,539.8984 L27.5,566.8984 M14.5,547.8984 L40.5,547.8984 M27.5,566.8984 L14.5,581.8984 M27.5,566.8984 L40.5,581.8984 " fill="none" style="stroke:#181818;stroke-width:0.5;"/><rect fill="#E2E2F0" height="49.2188" rx="2.5" ry="2.5" style="stroke:#181818;stroke-width:0.5;" width="112" x="107.5" y="36"/><text fill="#000000" font-family="sans-serif" font-size="14" font-style="italic" lengthAdjust="spacing" textLength="78" x="124.5" y="57.5332">&#171;Controller&#187;</text><text fill="#000000" font-family="sans-serif" font-size="14" lengthAdjust="spacing" textLength="98" x="114.5" y="75.1426">UsersController</text><rect fill="#E2E2F0" height="49.2188" rx="2.5" ry="2.5" style="stroke:#181818;stroke-width:0.5;" width="112" x="107.5" y="505.7891"/><text fill="#000000" font-family="sans-serif" font-size="14" font-style="italic" lengthAdjust="spacing" textLength="78" x="124.5" y="527.3223">&#171;Controller&#187;</text><text fill="#000000" font-family="sans-serif" font-size="14" lengthAdjust="spacing" textLength="98" x="114.5" y="544.9316">UsersController</text><rect fill="#E2E2F0" height="49.2188" rx="2.5" ry="2.5" style="stroke:#181818;stroke-width:0.5;" width="90" x="404.5" y="36"/><text fill="#000000" font-family="sans-serif" font-size="14" font-style="italic" lengthAdjust="spacing" textLength="62" x="418.5" y="57.5332">&#171;Service&#187;</text><text fill="#000000" font-family="sans-serif" font-size="14" lengthAdjust="spacing" textLength="76" x="411.5" y="75.1426">UserService</text><rect fill="#E2E2F0" height="49.2188" rx="2.5" ry="2.5" style="stroke:#181818;stroke-width:0.5;" width="90" x="404.5" y="505.7891"/><text fill="#000000" font-family="sans-serif" font-size="14" font-style="italic" lengthAdjust="spacing" textLength="62" x="418.5" y="527.3223">&#171;Service&#187;</text><text fill="#000000" font-family="sans-serif" font-size="14" lengthAdjust="spacing" textLength="76" x="411.5" y="544.9316">UserService</text><rect fill="#E2E2F0" height="49.2188" rx="2.5" ry="2.5" style="stroke:#181818;stroke-width:0.5;" width="78" x="807.5" y="36"/><text fill="#000000" font-family="sans-serif" font-size="14" font-style="italic" lengthAdjust="spacing" textLength="64" x="814.5" y="57.5332">&#171;Domain&#187;</text><text fill="#000000" font-family="sans-serif" font-size="14" lengthAdjust="spacing" textLength="29" x="832" y="75.1426">User</text><rect fill="#E2E2F0" height="49.2188" rx="2.5" ry="2.5" style="stroke:#181818;stroke-width:0.5;" width="78" x="807.5" y="505.7891"/><text fill="#000000" font-family="sans-serif" font-size="14" font-style="italic" lengthAdjust="spacing" textLength="64" x="814.5" y="527.3223">&#171;Domain&#187;</text><text fill="#000000" font-family="sans-serif" font-size="14" lengthAdjust="spacing" textLength="29" x="832" y="544.9316">User</text><rect fill="#E2E2F0" height="49.2188" rx="2.5" ry="2.5" style="stroke:#181818;stroke-width:0.5;" width="78" x="895.5" y="36"/><text fill="#000000" font-family="sans-serif" font-size="14" font-style="italic" lengthAdjust="spacing" textLength="64" x="902.5" y="57.5332">&#171;Domain&#187;</text><text fill="#000000" font-family="sans-serif" font-size="14" lengthAdjust="spacing" textLength="59" x="905" y="75.1426">UserDTO</text><rect fill="#E2E2F0" height="49.2188" rx="2.5" ry="2.5" style="stroke:#181818;stroke-width:0.5;" width="78" x="895.5" y="505.7891"/><text fill="#000000" font-family="sans-serif" font-size="14" font-style="italic" lengthAdjust="spacing" textLength="64" x="902.5" y="527.3223">&#171;Domain&#187;</text><text fill="#000000" font-family="sans-serif" font-size="14" lengthAdjust="spacing" textLength="59" x="905" y="544.9316">UserDTO</text><text fill="#000000" font-family="sans-serif" font-size="14" font-style="italic" lengthAdjust="spacing" textLength="64" x="1001.5" y="65.5332">&#171;Domain&#187;</text><text fill="#000000" font-family="sans-serif" font-size="14" lengthAdjust="spacing" textLength="100" x="983.5" y="83.1426">IUserRepository</text><path d="M1018.5,15 C1018.5,5 1036.5,5 1036.5,5 C1036.5,5 1054.5,5 1054.5,15 L1054.5,41 C1054.5,51 1036.5,51 1036.5,51 C1036.5,51 1018.5,51 1018.5,41 L1018.5,15 " fill="#E2E2F0" style="stroke:#181818;stroke-width:1.5;"/><path d="M1018.5,15 C1018.5,25 1036.5,25 1036.5,25 C1036.5,25 1054.5,25 1054.5,15 " fill="none" style="stroke:#181818;stroke-width:1.5;"/><text fill="#000000" font-family="sans-serif" font-size="14" font-style="italic" lengthAdjust="spacing" textLength="64" x="1001.5" y="520.3223">&#171;Domain&#187;</text><text fill="#000000" font-family="sans-serif" font-size="14" lengthAdjust="spacing" textLength="100" x="983.5" y="537.9316">IUserRepository</text><path d="M1018.5,551.0078 C1018.5,541.0078 1036.5,541.0078 1036.5,541.0078 C1036.5,541.0078 1054.5,541.0078 1054.5,551.0078 L1054.5,577.0078 C1054.5,587.0078 1036.5,587.0078 1036.5,587.0078 C1036.5,587.0078 1018.5,587.0078 1018.5,577.0078 L1018.5,551.0078 " fill="#E2E2F0" style="stroke:#181818;stroke-width:1.5;"/><path d="M1018.5,551.0078 C1018.5,561.0078 1036.5,561.0078 1036.5,561.0078 C1036.5,561.0078 1054.5,561.0078 1054.5,551.0078 " fill="none" style="stroke:#181818;stroke-width:1.5;"/><rect fill="#FFFFFF" height="401.5703" style="stroke:#181818;stroke-width:1.0;" width="10" x="22.5" y="96.2188"/><rect fill="#FFFFFF" height="370.2188" style="stroke:#181818;stroke-width:1.0;" width="10" x="158.5" y="118.5703"/><rect fill="#FFFFFF" height="309.5156" style="stroke:#181818;stroke-width:1.0;" width="10" x="444.5" y="148.9219"/><rect fill="#FFFFFF" height="30.3516" style="stroke:#181818;stroke-width:1.0;" width="10" x="841.5" y="239.9766"/><rect fill="#FFFFFF" height="30.3516" style="stroke:#181818;stroke-width:1.0;" width="10" x="929.5" y="397.7344"/><rect fill="#FFFFFF" height="30.3516" style="stroke:#181818;stroke-width:1.0;" width="10" x="1031.5" y="179.2734"/><rect fill="#FFFFFF" height="30.3516" style="stroke:#181818;stroke-width:1.0;" width="10" x="1031.5" y="300.6797"/><polygon fill="#181818" points="146.5,114.5703,156.5,118.5703,146.5,122.5703,150.5,118.5703" style="stroke:#181818;stroke-width:1.0;"/><line style="stroke:#181818;stroke-width:1.0;" x1="32.5" x2="152.5" y1="118.5703" y2="118.5703"/><text fill="#000000" font-family="sans-serif" font-size="13" font-weight="bold" lengthAdjust="spacing" textLength="7" x="39.5" y="113.7139">1</text><text fill="#000000" font-family="sans-serif" font-size="13" lengthAdjust="spacing" textLength="96" x="50.5" y="113.7139">POST /api/users</text><polygon fill="#181818" points="432.5,144.9219,442.5,148.9219,432.5,152.9219,436.5,148.9219" style="stroke:#181818;stroke-width:1.0;"/><line style="stroke:#181818;stroke-width:1.0;" x1="168.5" x2="438.5" y1="148.9219" y2="148.9219"/><text fill="#000000" font-family="sans-serif" font-size="13" font-weight="bold" lengthAdjust="spacing" textLength="7" x="175.5" y="144.0654">2</text><text fill="#000000" font-family="sans-serif" font-size="13" lengthAdjust="spacing" textLength="246" x="186.5" y="144.0654">addBackofficeUserAsync(creatingUserDto)</text><polygon fill="#181818" points="1019.5,175.2734,1029.5,179.2734,1019.5,183.2734,1023.5,179.2734" style="stroke:#181818;stroke-width:1.0;"/><line style="stroke:#181818;stroke-width:1.0;" x1="454.5" x2="1025.5" y1="179.2734" y2="179.2734"/><text fill="#000000" font-family="sans-serif" font-size="13" font-weight="bold" lengthAdjust="spacing" textLength="7" x="461.5" y="174.417">3</text><text fill="#000000" font-family="sans-serif" font-size="13" lengthAdjust="spacing" textLength="173" x="472.5" y="174.417">CountBackofficeUsersAsync()</text><polygon fill="#181818" points="465.5,205.625,455.5,209.625,465.5,213.625,461.5,209.625" style="stroke:#181818;stroke-width:1.0;"/><line style="stroke:#181818;stroke-width:1.0;stroke-dasharray:2.0,2.0;" x1="459.5" x2="1035.5" y1="209.625" y2="209.625"/><text fill="#000000" font-family="sans-serif" font-size="13" font-weight="bold" lengthAdjust="spacing" textLength="7" x="471.5" y="204.7686">4</text><text fill="#000000" font-family="sans-serif" font-size="13" lengthAdjust="spacing" textLength="32" x="482.5" y="204.7686">count</text><polygon fill="#181818" points="829.5,235.9766,839.5,239.9766,829.5,243.9766,833.5,239.9766" style="stroke:#181818;stroke-width:1.0;"/><line style="stroke:#181818;stroke-width:1.0;" x1="454.5" x2="835.5" y1="239.9766" y2="239.9766"/><text fill="#000000" font-family="sans-serif" font-size="13" font-weight="bold" lengthAdjust="spacing" textLength="7" x="461.5" y="235.1201">5</text><text fill="#000000" font-family="sans-serif" font-size="13" lengthAdjust="spacing" textLength="357" x="472.5" y="235.1201">create(Username,creatingUserDto.email,creatingUserDto.role)</text><polygon fill="#181818" points="465.5,266.3281,455.5,270.3281,465.5,274.3281,461.5,270.3281" style="stroke:#181818;stroke-width:1.0;"/><line style="stroke:#181818;stroke-width:1.0;stroke-dasharray:2.0,2.0;" x1="459.5" x2="845.5" y1="270.3281" y2="270.3281"/><text fill="#000000" font-family="sans-serif" font-size="13" font-weight="bold" lengthAdjust="spacing" textLength="7" x="471.5" y="265.4717">6</text><text fill="#000000" font-family="sans-serif" font-size="13" lengthAdjust="spacing" textLength="25" x="482.5" y="265.4717">user</text><polygon fill="#181818" points="1019.5,296.6797,1029.5,300.6797,1019.5,304.6797,1023.5,300.6797" style="stroke:#181818;stroke-width:1.0;"/><line style="stroke:#181818;stroke-width:1.0;" x1="454.5" x2="1025.5" y1="300.6797" y2="300.6797"/><text fill="#000000" font-family="sans-serif" font-size="13" font-weight="bold" lengthAdjust="spacing" textLength="7" x="461.5" y="295.8232">7</text><text fill="#000000" font-family="sans-serif" font-size="13" lengthAdjust="spacing" textLength="84" x="472.5" y="295.8232">addAsnc(user)</text><polygon fill="#181818" points="465.5,327.0313,455.5,331.0313,465.5,335.0313,461.5,331.0313" style="stroke:#181818;stroke-width:1.0;"/><line style="stroke:#181818;stroke-width:1.0;stroke-dasharray:2.0,2.0;" x1="459.5" x2="1035.5" y1="331.0313" y2="331.0313"/><text fill="#000000" font-family="sans-serif" font-size="13" font-weight="bold" lengthAdjust="spacing" textLength="7" x="471.5" y="326.1748">8</text><text fill="#000000" font-family="sans-serif" font-size="13" lengthAdjust="spacing" textLength="25" x="482.5" y="326.1748">user</text><path d="M459,344.0313 L459,370.0313 L601,370.0313 L601,354.0313 L591,344.0313 L459,344.0313 " fill="#FEFFDD" style="stroke:#181818;stroke-width:0.5;"/><path d="M591,344.0313 L591,354.0313 L601,354.0313 L591,344.0313 " fill="#FEFFDD" style="stroke:#181818;stroke-width:0.5;"/><text fill="#000000" font-family="sans-serif" font-size="13" lengthAdjust="spacing" textLength="121" x="465" y="362.5264">Create User in Auth0</text><polygon fill="#181818" points="917.5,393.7344,927.5,397.7344,917.5,401.7344,921.5,397.7344" style="stroke:#181818;stroke-width:1.0;"/><line style="stroke:#181818;stroke-width:1.0;" x1="454.5" x2="923.5" y1="397.7344" y2="397.7344"/><text fill="#000000" font-family="sans-serif" font-size="13" font-weight="bold" lengthAdjust="spacing" textLength="7" x="461.5" y="392.8779">9</text><text fill="#000000" font-family="sans-serif" font-size="13" lengthAdjust="spacing" textLength="255" x="472.5" y="392.8779">create(user.Username,user.email,user.Role)</text><polygon fill="#181818" points="465.5,424.0859,455.5,428.0859,465.5,432.0859,461.5,428.0859" style="stroke:#181818;stroke-width:1.0;"/><line style="stroke:#181818;stroke-width:1.0;stroke-dasharray:2.0,2.0;" x1="459.5" x2="933.5" y1="428.0859" y2="428.0859"/><text fill="#000000" font-family="sans-serif" font-size="13" font-weight="bold" lengthAdjust="spacing" textLength="14" x="471.5" y="423.2295">10</text><text fill="#000000" font-family="sans-serif" font-size="13" lengthAdjust="spacing" textLength="45" x="489.5" y="423.2295">userDto</text><polygon fill="#181818" points="179.5,454.4375,169.5,458.4375,179.5,462.4375,175.5,458.4375" style="stroke:#181818;stroke-width:1.0;"/><line style="stroke:#181818;stroke-width:1.0;stroke-dasharray:2.0,2.0;" x1="173.5" x2="448.5" y1="458.4375" y2="458.4375"/><text fill="#000000" font-family="sans-serif" font-size="13" font-weight="bold" lengthAdjust="spacing" textLength="14" x="185.5" y="453.5811">11</text><text fill="#000000" font-family="sans-serif" font-size="13" lengthAdjust="spacing" textLength="45" x="203.5" y="453.5811">userDto</text><polygon fill="#181818" points="43.5,484.7891,33.5,488.7891,43.5,492.7891,39.5,488.7891" style="stroke:#181818;stroke-width:1.0;"/><line style="stroke:#181818;stroke-width:1.0;stroke-dasharray:2.0,2.0;" x1="37.5" x2="162.5" y1="488.7891" y2="488.7891"/><text fill="#000000" font-family="sans-serif" font-size="13" font-weight="bold" lengthAdjust="spacing" textLength="14" x="49.5" y="483.9326">12</text><text fill="#000000" font-family="sans-serif" font-size="13" lengthAdjust="spacing" textLength="70" x="67.5" y="483.9326">201 Created</text><!--SRC=[hLF1Zi8W4BttAqXFccpLtMDZcdJriYUDkXymjgXaBJH0JVpx1Kg1MhjUbjFCCEynxm7GI4QRweXv544X6KTnNbQ4nWW4-XQORwCQk2G5gO5A5EkIM34gERjUCJTjFaNBfK-oR0ZTOtuZ1JOm6okCZPu1t1ogRSqg8FHPr_gmSOrhoSBU4YGSGM0KV-dT7QwP84hdtG5yASHfDyWD9BOk8BLCb6HUOhhTx0ze3ZMPDzgO0EMR8eFrUP9PlIcKvISKF-nqKfacpyMT5fE2Ov24dgsQgS4xOWjkMVMoXIJhYqbNhA6opo_Q0wOEsnFfiPwya-tt4Zz_eKzmhIL-oTPTUPAPbjGenHCTKwZmsuFo6LQNSHrKbOruHC9my61SVKLZqxwsKrrMBfHvckM_3FnhecTabAbDJiuNYTYfcpH5AsDZ-qq8HNaZBuiHGSg_pdLz-CnPRxBMRnFknarM74DzglWWJBUDQ3CCmrUXdaNmjqAE0Dzx_-P7BfCaW7qitgqXPHJ0Wl_u2m00]--></g></svg>