<?xml version="1.0" encoding="us-ascii" standalone="no"?><svg xmlns="http://www.w3.org/2000/svg" xmlns:xlink="http://www.w3.org/1999/xlink" contentStyleType="text/css" height="403px" preserveAspectRatio="none" style="width:413px;height:403px;background:#FFFFFF;" version="1.1" viewBox="0 0 413 403" width="413px" zoomAndPan="magnify"><defs/><g><rect fill="#FFFFFF" height="210.4609" style="stroke:#181818;stroke-width:1.0;" width="10" x="22.5" y="92.6094"/><rect fill="#FFFFFF" height="188.1094" style="stroke:#181818;stroke-width:1.0;" width="10" x="158.5" y="114.9609"/><rect fill="#FFFFFF" height="30.3516" style="stroke:#181818;stroke-width:1.0;" width="10" x="364.5" y="145.3125"/><rect fill="#FFFFFF" height="30.3516" style="stroke:#181818;stroke-width:1.0;" width="10" x="364.5" y="206.0156"/><line style="stroke:#181818;stroke-width:0.5;stroke-dasharray:5.0,5.0;" x1="27" x2="27" y1="82.6094" y2="321.0703"/><line style="stroke:#181818;stroke-width:0.5;stroke-dasharray:5.0,5.0;" x1="163.5" x2="163.5" y1="82.6094" y2="321.0703"/><line style="stroke:#181818;stroke-width:0.5;stroke-dasharray:5.0,5.0;" x1="369" x2="369" y1="82.6094" y2="321.0703"/><text fill="#000000" font-family="sans-serif" font-size="14" lengthAdjust="spacing" textLength="39" x="5" y="79.5332">Admin</text><ellipse cx="27.5" cy="13.5" fill="#E2E2F0" rx="8" ry="8" style="stroke:#181818;stroke-width:0.5;"/><path d="M27.5,21.5 L27.5,48.5 M14.5,29.5 L40.5,29.5 M27.5,48.5 L14.5,63.5 M27.5,48.5 L40.5,63.5 " fill="none" style="stroke:#181818;stroke-width:0.5;"/><text fill="#000000" font-family="sans-serif" font-size="14" lengthAdjust="spacing" textLength="39" x="5" y="334.6035">Admin</text><ellipse cx="27.5" cy="346.1797" fill="#E2E2F0" rx="8" ry="8" style="stroke:#181818;stroke-width:0.5;"/><path d="M27.5,354.1797 L27.5,381.1797 M14.5,362.1797 L40.5,362.1797 M27.5,381.1797 L14.5,396.1797 M27.5,381.1797 L40.5,396.1797 " fill="none" style="stroke:#181818;stroke-width:0.5;"/><rect fill="#E2E2F0" height="31.6094" rx="2.5" ry="2.5" style="stroke:#181818;stroke-width:0.5;" width="56" x="135.5" y="50"/><text fill="#000000" font-family="sans-serif" font-size="14" lengthAdjust="spacing" textLength="42" x="142.5" y="71.5332">Server</text><rect fill="#E2E2F0" height="31.6094" rx="2.5" ry="2.5" style="stroke:#181818;stroke-width:0.5;" width="56" x="135.5" y="320.0703"/><text fill="#000000" font-family="sans-serif" font-size="14" lengthAdjust="spacing" textLength="42" x="142.5" y="341.6035">Server</text><rect fill="#E2E2F0" height="31.6094" rx="2.5" ry="2.5" style="stroke:#181818;stroke-width:0.5;" width="75" x="332" y="50"/><text fill="#000000" font-family="sans-serif" font-size="14" lengthAdjust="spacing" textLength="61" x="339" y="71.5332">Database</text><rect fill="#E2E2F0" height="31.6094" rx="2.5" ry="2.5" style="stroke:#181818;stroke-width:0.5;" width="75" x="332" y="320.0703"/><text fill="#000000" font-family="sans-serif" font-size="14" lengthAdjust="spacing" textLength="61" x="339" y="341.6035">Database</text><rect fill="#FFFFFF" height="210.4609" style="stroke:#181818;stroke-width:1.0;" width="10" x="22.5" y="92.6094"/><rect fill="#FFFFFF" height="188.1094" style="stroke:#181818;stroke-width:1.0;" width="10" x="158.5" y="114.9609"/><rect fill="#FFFFFF" height="30.3516" style="stroke:#181818;stroke-width:1.0;" width="10" x="364.5" y="145.3125"/><rect fill="#FFFFFF" height="30.3516" style="stroke:#181818;stroke-width:1.0;" width="10" x="364.5" y="206.0156"/><polygon fill="#181818" points="146.5,110.9609,156.5,114.9609,146.5,118.9609,150.5,114.9609" style="stroke:#181818;stroke-width:1.0;"/><line style="stroke:#181818;stroke-width:1.0;" x1="32.5" x2="152.5" y1="114.9609" y2="114.9609"/><text fill="#000000" font-family="sans-serif" font-size="13" font-weight="bold" lengthAdjust="spacing" textLength="7" x="39.5" y="110.1045">1</text><text fill="#000000" font-family="sans-serif" font-size="13" lengthAdjust="spacing" textLength="96" x="50.5" y="110.1045">POST /api/users</text><polygon fill="#181818" points="352.5,141.3125,362.5,145.3125,352.5,149.3125,356.5,145.3125" style="stroke:#181818;stroke-width:1.0;"/><line style="stroke:#181818;stroke-width:1.0;" x1="168.5" x2="358.5" y1="145.3125" y2="145.3125"/><text fill="#000000" font-family="sans-serif" font-size="13" font-weight="bold" lengthAdjust="spacing" textLength="7" x="175.5" y="140.4561">2</text><text fill="#000000" font-family="sans-serif" font-size="13" lengthAdjust="spacing" textLength="166" x="186.5" y="140.4561">CountBackofficeUserAsync()</text><polygon fill="#181818" points="179.5,171.6641,169.5,175.6641,179.5,179.6641,175.5,175.6641" style="stroke:#181818;stroke-width:1.0;"/><line style="stroke:#181818;stroke-width:1.0;" x1="173.5" x2="368.5" y1="175.6641" y2="175.6641"/><text fill="#000000" font-family="sans-serif" font-size="13" font-weight="bold" lengthAdjust="spacing" textLength="7" x="185.5" y="170.8076">3</text><text fill="#000000" font-family="sans-serif" font-size="13" lengthAdjust="spacing" textLength="32" x="196.5" y="170.8076">count</text><polygon fill="#181818" points="352.5,202.0156,362.5,206.0156,352.5,210.0156,356.5,206.0156" style="stroke:#181818;stroke-width:1.0;"/><line style="stroke:#181818;stroke-width:1.0;" x1="168.5" x2="358.5" y1="206.0156" y2="206.0156"/><text fill="#000000" font-family="sans-serif" font-size="13" font-weight="bold" lengthAdjust="spacing" textLength="7" x="175.5" y="201.1592">4</text><text fill="#000000" font-family="sans-serif" font-size="13" lengthAdjust="spacing" textLength="93" x="186.5" y="201.1592">addAsync(User)</text><polygon fill="#181818" points="179.5,232.3672,169.5,236.3672,179.5,240.3672,175.5,236.3672" style="stroke:#181818;stroke-width:1.0;"/><line style="stroke:#181818;stroke-width:1.0;" x1="173.5" x2="368.5" y1="236.3672" y2="236.3672"/><text fill="#000000" font-family="sans-serif" font-size="13" font-weight="bold" lengthAdjust="spacing" textLength="7" x="185.5" y="231.5107">5</text><text fill="#000000" font-family="sans-serif" font-size="13" lengthAdjust="spacing" textLength="25" x="196.5" y="231.5107">user</text><path d="M173,249.3672 L173,275.3672 L315,275.3672 L315,259.3672 L305,249.3672 L173,249.3672 " fill="#FEFFDD" style="stroke:#181818;stroke-width:0.5;"/><path d="M305,249.3672 L305,259.3672 L315,259.3672 L305,249.3672 " fill="#FEFFDD" style="stroke:#181818;stroke-width:0.5;"/><text fill="#000000" font-family="sans-serif" font-size="13" lengthAdjust="spacing" textLength="121" x="179" y="267.8623">Create User in Auth0</text><polygon fill="#181818" points="38.5,299.0703,28.5,303.0703,38.5,307.0703,34.5,303.0703" style="stroke:#181818;stroke-width:1.0;"/><line style="stroke:#181818;stroke-width:1.0;" x1="32.5" x2="162.5" y1="303.0703" y2="303.0703"/><text fill="#000000" font-family="sans-serif" font-size="13" font-weight="bold" lengthAdjust="spacing" textLength="7" x="44.5" y="298.2139">6</text><text fill="#000000" font-family="sans-serif" font-size="13" lengthAdjust="spacing" textLength="70" x="55.5" y="298.2139">201 Created</text><!--SRC=[dP5DRW8n38NtEOKrgtOnWh8S8QGftOC4FO19F2MgI4Q9WzJRT_93eArK8RnodEVFJpO6jYQS3kI4GCdMGQzEsW1wW2QbZHZHiPPwHCFGxCYToJLHaDEVts_8U41FIN1v9BG-8rEc2vWYPUqgGxhjPhU76Ovw5ZmvdnIrgGo24ldPhYxuRcs3uLUKdtOOjAJtYT3xBoEVdcjFPLqzmKravBAjI1cHLQBed_u_Tb2fF3uQUTn2NCHz3eoToav_71diK40Th1r5UJG1qqNxmCVvjIUjVzaMyMB-KlHA_1fNbdzJoJVy1W00]--></g></svg>