<?xml version="1.0" encoding="us-ascii" standalone="no"?><svg xmlns="http://www.w3.org/2000/svg" xmlns:xlink="http://www.w3.org/1999/xlink" contentStyleType="text/css" height="788px" preserveAspectRatio="none" style="width:1882px;height:788px;background:#FFFFFF;" version="1.1" viewBox="0 0 1882 788" width="1882px" zoomAndPan="magnify"><defs/><g><rect fill="#ADD8E6" height="769.9844" style="stroke:#181818;stroke-width:0.5;" width="634" x="158.5" y="6"/><text fill="#000000" font-family="sans-serif" font-size="13" font-weight="bold" lengthAdjust="spacing" textLength="85" x="433" y="19.4951">&#171;system (C4)&#187;</text><text fill="#000000" font-family="sans-serif" font-size="13" font-weight="bold" lengthAdjust="spacing" textLength="57" x="447" y="35.8467">Frontend</text><rect fill="#DDDDDD" height="769.9844" style="stroke:#181818;stroke-width:0.5;" width="1054.5" x="822" y="6"/><text fill="#000000" font-family="sans-serif" font-size="13" font-weight="bold" lengthAdjust="spacing" textLength="85" x="1306.75" y="19.4951">&#171;system (C4)&#187;</text><text fill="#000000" font-family="sans-serif" font-size="13" font-weight="bold" lengthAdjust="spacing" textLength="175" x="1261.75" y="35.8467">Backend Data Management</text><rect fill="#FFFFFF" height="539.8438" style="stroke:#181818;stroke-width:1.0;" width="10" x="22.5" y="133.9219"/><rect fill="#FFFFFF" height="517.4922" style="stroke:#181818;stroke-width:1.0;" width="10" x="223.5" y="156.2734"/><rect fill="#FFFFFF" height="456.7891" style="stroke:#181818;stroke-width:1.0;" width="10" x="376.5" y="186.625"/><rect fill="#FFFFFF" height="396.0859" style="stroke:#181818;stroke-width:1.0;" width="10" x="529.5" y="216.9766"/><rect fill="#FFFFFF" height="335.3828" style="stroke:#181818;stroke-width:1.0;" width="10" x="717.5" y="247.3281"/><rect fill="#FFFFFF" height="274.6797" style="stroke:#181818;stroke-width:1.0;" width="10" x="905.5" y="277.6797"/><rect fill="#FFFFFF" height="213.9766" style="stroke:#181818;stroke-width:1.0;" width="10" x="1346.5" y="308.0313"/><rect fill="#FFFFFF" height="50.2188" style="stroke:#181818;stroke-width:1.0;" width="10" x="1601" y="434.4375"/><rect fill="#FFFFFF" height="30.3516" style="stroke:#181818;stroke-width:1.0;" width="10" x="1787.5" y="338.3828"/><rect fill="none" height="108.9219" style="stroke:#000000;stroke-width:1.5;" width="409" x="1268" y="383.7344"/><line style="stroke:#181818;stroke-width:0.5;stroke-dasharray:5.0,5.0;" x1="27" x2="27" y1="123.9219" y2="691.7656"/><line style="stroke:#181818;stroke-width:0.5;stroke-dasharray:5.0,5.0;" x1="228.5" x2="228.5" y1="123.9219" y2="691.7656"/><line style="stroke:#181818;stroke-width:0.5;stroke-dasharray:5.0,5.0;" x1="381.5" x2="381.5" y1="123.9219" y2="691.7656"/><line style="stroke:#181818;stroke-width:0.5;stroke-dasharray:5.0,5.0;" x1="534.5" x2="534.5" y1="123.9219" y2="691.7656"/><line style="stroke:#181818;stroke-width:0.5;stroke-dasharray:5.0,5.0;" x1="722.5" x2="722.5" y1="123.9219" y2="691.7656"/><line style="stroke:#181818;stroke-width:0.5;stroke-dasharray:5.0,5.0;" x1="910" x2="910" y1="123.9219" y2="691.7656"/><line style="stroke:#181818;stroke-width:0.5;stroke-dasharray:5.0,5.0;" x1="1351" x2="1351" y1="123.9219" y2="691.7656"/><line style="stroke:#181818;stroke-width:0.5;stroke-dasharray:5.0,5.0;" x1="1485" x2="1485" y1="123.9219" y2="691.7656"/><line style="stroke:#181818;stroke-width:0.5;stroke-dasharray:5.0,5.0;" x1="1606" x2="1606" y1="442.1953" y2="691.7656"/><line style="stroke:#181818;stroke-width:0.5;stroke-dasharray:5.0,5.0;" x1="1792.5" x2="1792.5" y1="123.9219" y2="691.7656"/><text fill="#000000" font-family="sans-serif" font-size="14" lengthAdjust="spacing" textLength="39" x="5" y="120.8457">Admin</text><ellipse cx="27.5" cy="54.8125" fill="#E2E2F0" rx="8" ry="8" style="stroke:#181818;stroke-width:0.5;"/><path d="M27.5,62.8125 L27.5,89.8125 M14.5,70.8125 L40.5,70.8125 M27.5,89.8125 L14.5,104.8125 M27.5,89.8125 L40.5,104.8125 " fill="none" style="stroke:#181818;stroke-width:0.5;"/><text fill="#000000" font-family="sans-serif" font-size="14" lengthAdjust="spacing" textLength="39" x="5" y="705.2988">Admin</text><ellipse cx="27.5" cy="716.875" fill="#E2E2F0" rx="8" ry="8" style="stroke:#181818;stroke-width:0.5;"/><path d="M27.5,724.875 L27.5,751.875 M14.5,732.875 L40.5,732.875 M27.5,751.875 L14.5,766.875 M27.5,751.875 L40.5,766.875 " fill="none" style="stroke:#181818;stroke-width:0.5;"/><rect fill="#E2E2F0" height="49.2188" rx="2.5" ry="2.5" style="stroke:#181818;stroke-width:0.5;" width="132" x="162.5" y="73.7031"/><text fill="#000000" font-family="sans-serif" font-size="14" font-style="italic" lengthAdjust="spacing" textLength="118" x="169.5" y="95.2363">&#171;component (C4)&#187;</text><text fill="#000000" font-family="sans-serif" font-size="14" lengthAdjust="spacing" textLength="89" x="184" y="112.8457">UI Component</text><rect fill="#E2E2F0" height="49.2188" rx="2.5" ry="2.5" style="stroke:#181818;stroke-width:0.5;" width="132" x="162.5" y="690.7656"/><text fill="#000000" font-family="sans-serif" font-size="14" font-style="italic" lengthAdjust="spacing" textLength="118" x="169.5" y="712.2988">&#171;component (C4)&#187;</text><text fill="#000000" font-family="sans-serif" font-size="14" lengthAdjust="spacing" textLength="89" x="184" y="729.9082">UI Component</text><rect fill="#E2E2F0" height="49.2188" rx="2.5" ry="2.5" style="stroke:#181818;stroke-width:0.5;" width="132" x="315.5" y="73.7031"/><text fill="#000000" font-family="sans-serif" font-size="14" font-style="italic" lengthAdjust="spacing" textLength="118" x="322.5" y="95.2363">&#171;component (C4)&#187;</text><text fill="#000000" font-family="sans-serif" font-size="14" lengthAdjust="spacing" textLength="73" x="345" y="112.8457">Component</text><rect fill="#E2E2F0" height="49.2188" rx="2.5" ry="2.5" style="stroke:#181818;stroke-width:0.5;" width="132" x="315.5" y="690.7656"/><text fill="#000000" font-family="sans-serif" font-size="14" font-style="italic" lengthAdjust="spacing" textLength="118" x="322.5" y="712.2988">&#171;component (C4)&#187;</text><text fill="#000000" font-family="sans-serif" font-size="14" lengthAdjust="spacing" textLength="73" x="345" y="729.9082">Component</text><rect fill="#E2E2F0" height="49.2188" rx="2.5" ry="2.5" style="stroke:#181818;stroke-width:0.5;" width="132" x="468.5" y="73.7031"/><text fill="#000000" font-family="sans-serif" font-size="14" font-style="italic" lengthAdjust="spacing" textLength="118" x="475.5" y="95.2363">&#171;component (C4)&#187;</text><text fill="#000000" font-family="sans-serif" font-size="14" lengthAdjust="spacing" textLength="47" x="511" y="112.8457">Service</text><rect fill="#E2E2F0" height="49.2188" rx="2.5" ry="2.5" style="stroke:#181818;stroke-width:0.5;" width="132" x="468.5" y="690.7656"/><text fill="#000000" font-family="sans-serif" font-size="14" font-style="italic" lengthAdjust="spacing" textLength="118" x="475.5" y="712.2988">&#171;component (C4)&#187;</text><text fill="#000000" font-family="sans-serif" font-size="14" lengthAdjust="spacing" textLength="47" x="511" y="729.9082">Service</text><rect fill="#E2E2F0" height="49.2188" rx="2.5" ry="2.5" style="stroke:#181818;stroke-width:0.5;" width="132" x="656.5" y="73.7031"/><text fill="#000000" font-family="sans-serif" font-size="14" font-style="italic" lengthAdjust="spacing" textLength="118" x="663.5" y="95.2363">&#171;component (C4)&#187;</text><text fill="#000000" font-family="sans-serif" font-size="14" lengthAdjust="spacing" textLength="36" x="704.5" y="112.8457">HTTP</text><rect fill="#E2E2F0" height="49.2188" rx="2.5" ry="2.5" style="stroke:#181818;stroke-width:0.5;" width="132" x="656.5" y="690.7656"/><text fill="#000000" font-family="sans-serif" font-size="14" font-style="italic" lengthAdjust="spacing" textLength="118" x="663.5" y="712.2988">&#171;component (C4)&#187;</text><text fill="#000000" font-family="sans-serif" font-size="14" lengthAdjust="spacing" textLength="36" x="704.5" y="729.9082">HTTP</text><rect fill="#E2E2F0" height="49.2188" rx="2.5" ry="2.5" style="stroke:#181818;stroke-width:0.5;" width="169" x="826" y="73.7031"/><text fill="#000000" font-family="sans-serif" font-size="14" font-style="italic" lengthAdjust="spacing" textLength="78" x="871.5" y="95.2363">&#171;Controller&#187;</text><text fill="#000000" font-family="sans-serif" font-size="14" lengthAdjust="spacing" textLength="155" x="833" y="112.8457">SpecializationsController</text><rect fill="#E2E2F0" height="49.2188" rx="2.5" ry="2.5" style="stroke:#181818;stroke-width:0.5;" width="169" x="826" y="690.7656"/><text fill="#000000" font-family="sans-serif" font-size="14" font-style="italic" lengthAdjust="spacing" textLength="78" x="871.5" y="712.2988">&#171;Controller&#187;</text><text fill="#000000" font-family="sans-serif" font-size="14" lengthAdjust="spacing" textLength="155" x="833" y="729.9082">SpecializationsController</text><rect fill="#E2E2F0" height="49.2188" rx="2.5" ry="2.5" style="stroke:#181818;stroke-width:0.5;" width="147" x="1278" y="73.7031"/><text fill="#000000" font-family="sans-serif" font-size="14" font-style="italic" lengthAdjust="spacing" textLength="62" x="1320.5" y="95.2363">&#171;Service&#187;</text><text fill="#000000" font-family="sans-serif" font-size="14" lengthAdjust="spacing" textLength="133" x="1285" y="112.8457">SpecializationService</text><rect fill="#E2E2F0" height="49.2188" rx="2.5" ry="2.5" style="stroke:#181818;stroke-width:0.5;" width="147" x="1278" y="690.7656"/><text fill="#000000" font-family="sans-serif" font-size="14" font-style="italic" lengthAdjust="spacing" textLength="62" x="1320.5" y="712.2988">&#171;Service&#187;</text><text fill="#000000" font-family="sans-serif" font-size="14" lengthAdjust="spacing" textLength="133" x="1285" y="729.9082">SpecializationService</text><rect fill="#E2E2F0" height="49.2188" rx="2.5" ry="2.5" style="stroke:#181818;stroke-width:0.5;" width="100" x="1435" y="73.7031"/><text fill="#000000" font-family="sans-serif" font-size="14" font-style="italic" lengthAdjust="spacing" textLength="64" x="1453" y="95.2363">&#171;Domain&#187;</text><text fill="#000000" font-family="sans-serif" font-size="14" lengthAdjust="spacing" textLength="86" x="1442" y="112.8457">Specialization</text><rect fill="#E2E2F0" height="49.2188" rx="2.5" ry="2.5" style="stroke:#181818;stroke-width:0.5;" width="100" x="1435" y="690.7656"/><text fill="#000000" font-family="sans-serif" font-size="14" font-style="italic" lengthAdjust="spacing" textLength="64" x="1453" y="712.2988">&#171;Domain&#187;</text><text fill="#000000" font-family="sans-serif" font-size="14" lengthAdjust="spacing" textLength="86" x="1442" y="729.9082">Specialization</text><rect fill="#E2E2F0" height="49.2188" rx="2.5" ry="2.5" style="stroke:#181818;stroke-width:0.5;" width="122" x="1545" y="690.7656"/><text fill="#000000" font-family="sans-serif" font-size="14" font-style="italic" lengthAdjust="spacing" textLength="64" x="1574" y="712.2988">&#171;Domain&#187;</text><text fill="#000000" font-family="sans-serif" font-size="14" lengthAdjust="spacing" textLength="108" x="1552" y="729.9082">SpecializationDto</text><text fill="#000000" font-family="sans-serif" font-size="14" font-style="italic" lengthAdjust="spacing" textLength="64" x="1757.5" y="103.2363">&#171;Domain&#187;</text><text fill="#000000" font-family="sans-serif" font-size="14" lengthAdjust="spacing" textLength="154" x="1712.5" y="120.8457">SpecializationRepository</text><path d="M1774.5,52.7031 C1774.5,42.7031 1792.5,42.7031 1792.5,42.7031 C1792.5,42.7031 1810.5,42.7031 1810.5,52.7031 L1810.5,78.7031 C1810.5,88.7031 1792.5,88.7031 1792.5,88.7031 C1792.5,88.7031 1774.5,88.7031 1774.5,78.7031 L1774.5,52.7031 " fill="#E2E2F0" style="stroke:#181818;stroke-width:1.5;"/><path d="M1774.5,52.7031 C1774.5,62.7031 1792.5,62.7031 1792.5,62.7031 C1792.5,62.7031 1810.5,62.7031 1810.5,52.7031 " fill="none" style="stroke:#181818;stroke-width:1.5;"/><text fill="#000000" font-family="sans-serif" font-size="14" font-style="italic" lengthAdjust="spacing" textLength="64" x="1757.5" y="705.2988">&#171;Domain&#187;</text><text fill="#000000" font-family="sans-serif" font-size="14" lengthAdjust="spacing" textLength="154" x="1712.5" y="722.9082">SpecializationRepository</text><path d="M1774.5,735.9844 C1774.5,725.9844 1792.5,725.9844 1792.5,725.9844 C1792.5,725.9844 1810.5,725.9844 1810.5,735.9844 L1810.5,761.9844 C1810.5,771.9844 1792.5,771.9844 1792.5,771.9844 C1792.5,771.9844 1774.5,771.9844 1774.5,761.9844 L1774.5,735.9844 " fill="#E2E2F0" style="stroke:#181818;stroke-width:1.5;"/><path d="M1774.5,735.9844 C1774.5,745.9844 1792.5,745.9844 1792.5,745.9844 C1792.5,745.9844 1810.5,745.9844 1810.5,735.9844 " fill="none" style="stroke:#181818;stroke-width:1.5;"/><rect fill="#FFFFFF" height="539.8438" style="stroke:#181818;stroke-width:1.0;" width="10" x="22.5" y="133.9219"/><rect fill="#FFFFFF" height="517.4922" style="stroke:#181818;stroke-width:1.0;" width="10" x="223.5" y="156.2734"/><rect fill="#FFFFFF" height="456.7891" style="stroke:#181818;stroke-width:1.0;" width="10" x="376.5" y="186.625"/><rect fill="#FFFFFF" height="396.0859" style="stroke:#181818;stroke-width:1.0;" width="10" x="529.5" y="216.9766"/><rect fill="#FFFFFF" height="335.3828" style="stroke:#181818;stroke-width:1.0;" width="10" x="717.5" y="247.3281"/><rect fill="#FFFFFF" height="274.6797" style="stroke:#181818;stroke-width:1.0;" width="10" x="905.5" y="277.6797"/><rect fill="#FFFFFF" height="213.9766" style="stroke:#181818;stroke-width:1.0;" width="10" x="1346.5" y="308.0313"/><rect fill="#FFFFFF" height="50.2188" style="stroke:#181818;stroke-width:1.0;" width="10" x="1601" y="434.4375"/><rect fill="#FFFFFF" height="30.3516" style="stroke:#181818;stroke-width:1.0;" width="10" x="1787.5" y="338.3828"/><polygon fill="#181818" points="211.5,152.2734,221.5,156.2734,211.5,160.2734,215.5,156.2734" style="stroke:#181818;stroke-width:1.0;"/><line style="stroke:#181818;stroke-width:1.0;" x1="32.5" x2="217.5" y1="156.2734" y2="156.2734"/><text fill="#000000" font-family="sans-serif" font-size="13" font-weight="bold" lengthAdjust="spacing" textLength="7" x="43.5" y="151.417">1</text><text fill="#000000" font-family="sans-serif" font-size="13" lengthAdjust="spacing" textLength="158" x="54.5" y="151.417">Asks to list Specializations</text><polygon fill="#181818" points="364.5,182.625,374.5,186.625,364.5,190.625,368.5,186.625" style="stroke:#181818;stroke-width:1.0;"/><line style="stroke:#181818;stroke-width:1.0;" x1="233.5" x2="370.5" y1="186.625" y2="186.625"/><text fill="#000000" font-family="sans-serif" font-size="13" font-weight="bold" lengthAdjust="spacing" textLength="7" x="243" y="181.7686">2</text><text fill="#000000" font-family="sans-serif" font-size="13" lengthAdjust="spacing" textLength="113" x="254" y="181.7686">List Specializations</text><polygon fill="#181818" points="517.5,212.9766,527.5,216.9766,517.5,220.9766,521.5,216.9766" style="stroke:#181818;stroke-width:1.0;"/><line style="stroke:#181818;stroke-width:1.0;" x1="386.5" x2="523.5" y1="216.9766" y2="216.9766"/><text fill="#000000" font-family="sans-serif" font-size="13" font-weight="bold" lengthAdjust="spacing" textLength="7" x="396" y="212.1201">3</text><text fill="#000000" font-family="sans-serif" font-size="13" lengthAdjust="spacing" textLength="113" x="407" y="212.1201">List Specializations</text><polygon fill="#181818" points="705.5,243.3281,715.5,247.3281,705.5,251.3281,709.5,247.3281" style="stroke:#181818;stroke-width:1.0;"/><line style="stroke:#181818;stroke-width:1.0;" x1="539.5" x2="711.5" y1="247.3281" y2="247.3281"/><text fill="#000000" font-family="sans-serif" font-size="13" font-weight="bold" lengthAdjust="spacing" textLength="7" x="549" y="242.4717">4</text><text fill="#000000" font-family="sans-serif" font-size="13" lengthAdjust="spacing" textLength="148" x="560" y="242.4717">get('/specializations/filter')</text><polygon fill="#181818" points="893.5,273.6797,903.5,277.6797,893.5,281.6797,897.5,277.6797" style="stroke:#181818;stroke-width:1.0;"/><line style="stroke:#181818;stroke-width:1.0;" x1="727.5" x2="899.5" y1="277.6797" y2="277.6797"/><text fill="#000000" font-family="sans-serif" font-size="13" font-weight="bold" lengthAdjust="spacing" textLength="7" x="737" y="272.8232">5</text><text fill="#000000" font-family="sans-serif" font-size="13" lengthAdjust="spacing" textLength="148" x="748" y="272.8232">GET /specializations/filter</text><polygon fill="#181818" points="1334.5,304.0313,1344.5,308.0313,1334.5,312.0313,1338.5,308.0313" style="stroke:#181818;stroke-width:1.0;"/><line style="stroke:#181818;stroke-width:1.0;" x1="915.5" x2="1340.5" y1="308.0313" y2="308.0313"/><text fill="#000000" font-family="sans-serif" font-size="13" font-weight="bold" lengthAdjust="spacing" textLength="7" x="925" y="303.1748">6</text><text fill="#000000" font-family="sans-serif" font-size="13" lengthAdjust="spacing" textLength="401" x="936" y="303.1748">GetSpecializationsAsync(namePartial, codeExact, descriptionPartial)</text><polygon fill="#181818" points="1775.5,334.3828,1785.5,338.3828,1775.5,342.3828,1779.5,338.3828" style="stroke:#181818;stroke-width:1.0;"/><line style="stroke:#181818;stroke-width:1.0;" x1="1356.5" x2="1781.5" y1="338.3828" y2="338.3828"/><text fill="#000000" font-family="sans-serif" font-size="13" font-weight="bold" lengthAdjust="spacing" textLength="7" x="1366" y="333.5264">7</text><text fill="#000000" font-family="sans-serif" font-size="13" lengthAdjust="spacing" textLength="401" x="1377" y="333.5264">GetSpecializationsAsync(namePartial, codeExact, descriptionPartial)</text><polygon fill="#181818" points="1367.5,364.7344,1357.5,368.7344,1367.5,372.7344,1363.5,368.7344" style="stroke:#181818;stroke-width:1.0;"/><line style="stroke:#181818;stroke-width:1.0;stroke-dasharray:2.0,2.0;" x1="1361.5" x2="1791.5" y1="368.7344" y2="368.7344"/><text fill="#000000" font-family="sans-serif" font-size="13" font-weight="bold" lengthAdjust="spacing" textLength="7" x="1526" y="363.8779">8</text><text fill="#000000" font-family="sans-serif" font-size="13" lengthAdjust="spacing" textLength="86" x="1537" y="363.8779">specializations</text><path d="M1268,383.7344 L1341,383.7344 L1341,392.0859 L1331,402.0859 L1268,402.0859 L1268,383.7344 " fill="#EEEEEE" style="stroke:#000000;stroke-width:1.5;"/><rect fill="none" height="108.9219" style="stroke:#000000;stroke-width:1.5;" width="409" x="1268" y="383.7344"/><text fill="#000000" font-family="sans-serif" font-size="13" font-weight="bold" lengthAdjust="spacing" textLength="28" x="1283" y="398.2295">loop</text><text fill="#000000" font-family="sans-serif" font-size="11" font-weight="bold" lengthAdjust="spacing" textLength="181" x="1356" y="397.1533">[specialization in specializations]</text><polygon fill="#181818" points="1533,420.4375,1543,424.4375,1533,428.4375,1537,424.4375" style="stroke:#181818;stroke-width:1.0;"/><line style="stroke:#181818;stroke-width:1.0;" x1="1356.5" x2="1539" y1="424.4375" y2="424.4375"/><text fill="#000000" font-family="sans-serif" font-size="13" font-weight="bold" lengthAdjust="spacing" textLength="7" x="1383.75" y="419.5811">9</text><text fill="#000000" font-family="sans-serif" font-size="13" lengthAdjust="spacing" textLength="123" x="1394.75" y="419.5811">create(specialization)</text><rect fill="#E2E2F0" height="49.2188" rx="2.5" ry="2.5" style="stroke:#181818;stroke-width:0.5;" width="122" x="1545" y="402.0859"/><text fill="#000000" font-family="sans-serif" font-size="14" font-style="italic" lengthAdjust="spacing" textLength="64" x="1574" y="423.6191">&#171;Domain&#187;</text><text fill="#000000" font-family="sans-serif" font-size="14" lengthAdjust="spacing" textLength="108" x="1552" y="441.2285">SpecializationDto</text><polygon fill="#181818" points="1367.5,480.6563,1357.5,484.6563,1367.5,488.6563,1363.5,484.6563" style="stroke:#181818;stroke-width:1.0;"/><line style="stroke:#181818;stroke-width:1.0;stroke-dasharray:2.0,2.0;" x1="1361.5" x2="1605" y1="484.6563" y2="484.6563"/><text fill="#000000" font-family="sans-serif" font-size="13" font-weight="bold" lengthAdjust="spacing" textLength="14" x="1422.75" y="479.7998">10</text><text fill="#000000" font-family="sans-serif" font-size="13" lengthAdjust="spacing" textLength="99" x="1440.75" y="479.7998">specializationDto</text><polygon fill="#181818" points="926.5,518.0078,916.5,522.0078,926.5,526.0078,922.5,522.0078" style="stroke:#181818;stroke-width:1.0;"/><line style="stroke:#181818;stroke-width:1.0;stroke-dasharray:2.0,2.0;" x1="920.5" x2="1350.5" y1="522.0078" y2="522.0078"/><text fill="#000000" font-family="sans-serif" font-size="13" font-weight="bold" lengthAdjust="spacing" textLength="14" x="1071.5" y="517.1514">11</text><text fill="#000000" font-family="sans-serif" font-size="13" lengthAdjust="spacing" textLength="106" x="1089.5" y="517.1514">specializationsDto</text><polygon fill="#181818" points="738.5,548.3594,728.5,552.3594,738.5,556.3594,734.5,552.3594" style="stroke:#181818;stroke-width:1.0;"/><line style="stroke:#181818;stroke-width:1.0;stroke-dasharray:2.0,2.0;" x1="732.5" x2="909.5" y1="552.3594" y2="552.3594"/><text fill="#000000" font-family="sans-serif" font-size="13" font-weight="bold" lengthAdjust="spacing" textLength="14" x="750.5" y="547.5029">12</text><text fill="#000000" font-family="sans-serif" font-size="13" lengthAdjust="spacing" textLength="119" x="768.5" y="547.5029">200 (specializations)</text><polygon fill="#181818" points="550.5,578.7109,540.5,582.7109,550.5,586.7109,546.5,582.7109" style="stroke:#181818;stroke-width:1.0;"/><line style="stroke:#181818;stroke-width:1.0;stroke-dasharray:2.0,2.0;" x1="544.5" x2="721.5" y1="582.7109" y2="582.7109"/><text fill="#000000" font-family="sans-serif" font-size="13" font-weight="bold" lengthAdjust="spacing" textLength="14" x="579" y="577.8545">13</text><text fill="#000000" font-family="sans-serif" font-size="13" lengthAdjust="spacing" textLength="86" x="597" y="577.8545">specializations</text><polygon fill="#181818" points="397.5,609.0625,387.5,613.0625,397.5,617.0625,393.5,613.0625" style="stroke:#181818;stroke-width:1.0;"/><line style="stroke:#181818;stroke-width:1.0;stroke-dasharray:2.0,2.0;" x1="391.5" x2="533.5" y1="613.0625" y2="613.0625"/><text fill="#000000" font-family="sans-serif" font-size="13" font-weight="bold" lengthAdjust="spacing" textLength="14" x="408.5" y="608.2061">14</text><text fill="#000000" font-family="sans-serif" font-size="13" lengthAdjust="spacing" textLength="86" x="426.5" y="608.2061">specializations</text><polygon fill="#181818" points="244.5,639.4141,234.5,643.4141,244.5,647.4141,240.5,643.4141" style="stroke:#181818;stroke-width:1.0;"/><line style="stroke:#181818;stroke-width:1.0;stroke-dasharray:2.0,2.0;" x1="238.5" x2="380.5" y1="643.4141" y2="643.4141"/><text fill="#000000" font-family="sans-serif" font-size="13" font-weight="bold" lengthAdjust="spacing" textLength="14" x="255.5" y="638.5576">15</text><text fill="#000000" font-family="sans-serif" font-size="13" lengthAdjust="spacing" textLength="86" x="273.5" y="638.5576">specializations</text><polygon fill="#181818" points="38.5,669.7656,28.5,673.7656,38.5,677.7656,34.5,673.7656" style="stroke:#181818;stroke-width:1.0;"/><line style="stroke:#181818;stroke-width:1.0;stroke-dasharray:2.0,2.0;" x1="32.5" x2="227.5" y1="673.7656" y2="673.7656"/><text fill="#000000" font-family="sans-serif" font-size="13" font-weight="bold" lengthAdjust="spacing" textLength="14" x="44.5" y="668.9092">16</text><text fill="#000000" font-family="sans-serif" font-size="13" lengthAdjust="spacing" textLength="149" x="62.5" y="668.9092">Shows success message</text><!--SRC=[jPRVRziW4CVVyrSWxw59rQZLjAV8YfGstG-fawerUviK4KnJ51iiGxfaV_qEd3Y0mKuqZGS70z_F7SVv2DugmRV5YbO3kM6yn1Kkq9o-ucsk5dIdPZbRyu9oXGWyO1KcIbHebXMC8onHOdh9OB0IEvIagTnBHGiqVFWqcav_yS-L01NFaWzFRFscxlCj7I1eO4SnmaeCu0THb883_UStGuIVPYX1QKgEBmTg763absbVQFNE23NAG_yitTV5ujc8T2UeW5qZ24eiClUORFIIELOOVSSShwaESnBO7LULo7DQrKwMb32SipzOCS7bQHPCd5xYErq6ACUDf-cX5v8xYW04r7DHOCPxnNCb0deOzH4Pn6Q59VNqFsWP0kXXoI0xzpQdEGP8NFQE5Qrpr_3hB1vFdHISe9dSI0G-vapwhakZQr2MpapePhDiD82VOi0mj9boi1fwpDeUf8CzQ9n9tOuim9gadg0rLSEhM-b2RrzP3j__rQW5Q2neUMjMDyCriMXIUOA-F2vGn4WGuiNeI8gkhOFM63n5RQcDK-K5RIRtd0mvBkYpJboSto0YClgu0vitAAEILApKAm_Jeqx3VjINdQkjOrWQHzlf_lzTTjrkUT2hDPjeEpvs0oyxKZNKClelFkL2b9v915_yfKvqdmyKhkjhs1gfABWvTE6Zi-2HFGBvB7axzBh4TaR-N7Gq_kS0eFPUaFT-WV1EgS-WxMdVHsVNXLFT-tXtXxpZa-7pisprLAAwz3abko_xB7YmeZO5sxjTkhZjuCGkbzPj6CCwCR1lhFfMJSTZ3_Jo9dvB9BU4K2bH0G_uppE8eU16jORhE_il]--></g></svg>