<?xml version="1.0" encoding="us-ascii" standalone="no"?><svg xmlns="http://www.w3.org/2000/svg" xmlns:xlink="http://www.w3.org/1999/xlink" contentStyleType="text/css" height="937px" preserveAspectRatio="none" style="width:1925px;height:937px;background:#FFFFFF;" version="1.1" viewBox="0 0 1925 937" width="1925px" zoomAndPan="magnify"><defs/><g><rect fill="#ADD8E6" height="918.7734" style="stroke:#181818;stroke-width:0.5;" width="773" x="179.5" y="6"/><text fill="#000000" font-family="sans-serif" font-size="13" font-weight="bold" lengthAdjust="spacing" textLength="85" x="523.5" y="19.4951">&#171;system (C4)&#187;</text><text fill="#000000" font-family="sans-serif" font-size="13" font-weight="bold" lengthAdjust="spacing" textLength="57" x="537.5" y="35.8467">Frontend</text><rect fill="#DDDDDD" height="918.7734" style="stroke:#181818;stroke-width:0.5;" width="956.5" x="963" y="6"/><text fill="#000000" font-family="sans-serif" font-size="13" font-weight="bold" lengthAdjust="spacing" textLength="85" x="1398.75" y="19.4951">&#171;system (C4)&#187;</text><text fill="#000000" font-family="sans-serif" font-size="13" font-weight="bold" lengthAdjust="spacing" textLength="175" x="1353.75" y="35.8467">Backend Data Management</text><rect fill="#FFFFFF" height="688.6328" style="stroke:#181818;stroke-width:1.0;" width="10" x="22.5" y="133.9219"/><rect fill="#FFFFFF" height="30.3516" style="stroke:#181818;stroke-width:1.0;" width="10" x="244.5" y="156.2734"/><rect fill="#FFFFFF" height="605.5781" style="stroke:#181818;stroke-width:1.0;" width="10" x="244.5" y="216.9766"/><rect fill="#FFFFFF" height="544.875" style="stroke:#181818;stroke-width:1.0;" width="10" x="426.5" y="247.3281"/><rect fill="#FFFFFF" height="423.9531" style="stroke:#181818;stroke-width:1.0;" width="10" x="710.5" y="337.8984"/><rect fill="#FFFFFF" height="363.25" style="stroke:#181818;stroke-width:1.0;" width="10" x="877.5" y="368.25"/><rect fill="#FFFFFF" height="302.5469" style="stroke:#181818;stroke-width:1.0;" width="10" x="1046.5" y="398.6016"/><rect fill="#FFFFFF" height="241.8438" style="stroke:#181818;stroke-width:1.0;" width="10" x="1214.5" y="428.9531"/><rect fill="#FFFFFF" height="50.2188" style="stroke:#181818;stroke-width:1.0;" width="10" x="1558.5" y="469.3047"/><rect fill="#FFFFFF" height="50.2188" style="stroke:#181818;stroke-width:1.0;" width="10" x="1679.5" y="590.2266"/><line style="stroke:#181818;stroke-width:0.5;stroke-dasharray:5.0,5.0;" x1="27" x2="27" y1="123.9219" y2="840.5547"/><line style="stroke:#181818;stroke-width:0.5;stroke-dasharray:5.0,5.0;" x1="249.5" x2="249.5" y1="123.9219" y2="840.5547"/><line style="stroke:#181818;stroke-width:0.5;stroke-dasharray:5.0,5.0;" x1="431.5" x2="431.5" y1="123.9219" y2="840.5547"/><line style="stroke:#181818;stroke-width:0.5;stroke-dasharray:5.0,5.0;" x1="573.5" x2="573.5" y1="295.4375" y2="840.5547"/><line style="stroke:#181818;stroke-width:0.5;stroke-dasharray:5.0,5.0;" x1="715.5" x2="715.5" y1="123.9219" y2="840.5547"/><line style="stroke:#181818;stroke-width:0.5;stroke-dasharray:5.0,5.0;" x1="882.5" x2="882.5" y1="123.9219" y2="840.5547"/><line style="stroke:#181818;stroke-width:0.5;stroke-dasharray:5.0,5.0;" x1="1051" x2="1051" y1="123.9219" y2="840.5547"/><line style="stroke:#181818;stroke-width:0.5;stroke-dasharray:5.0,5.0;" x1="1219" x2="1219" y1="123.9219" y2="840.5547"/><line style="stroke:#181818;stroke-width:0.5;stroke-dasharray:5.0,5.0;" x1="1563.5" x2="1563.5" y1="477.0625" y2="840.5547"/><line style="stroke:#181818;stroke-width:0.5;stroke-dasharray:5.0,5.0;" x1="1684.5" x2="1684.5" y1="597.9844" y2="840.5547"/><line style="stroke:#181818;stroke-width:0.5;stroke-dasharray:5.0,5.0;" x1="1835.5" x2="1835.5" y1="123.9219" y2="840.5547"/><text fill="#000000" font-family="sans-serif" font-size="14" lengthAdjust="spacing" textLength="39" x="5" y="120.8457">Admin</text><ellipse cx="27.5" cy="54.8125" fill="#E2E2F0" rx="8" ry="8" style="stroke:#181818;stroke-width:0.5;"/><path d="M27.5,62.8125 L27.5,89.8125 M14.5,70.8125 L40.5,70.8125 M27.5,89.8125 L14.5,104.8125 M27.5,89.8125 L40.5,104.8125 " fill="none" style="stroke:#181818;stroke-width:0.5;"/><text fill="#000000" font-family="sans-serif" font-size="14" lengthAdjust="spacing" textLength="39" x="5" y="854.0879">Admin</text><ellipse cx="27.5" cy="865.6641" fill="#E2E2F0" rx="8" ry="8" style="stroke:#181818;stroke-width:0.5;"/><path d="M27.5,873.6641 L27.5,900.6641 M14.5,881.6641 L40.5,881.6641 M27.5,900.6641 L14.5,915.6641 M27.5,900.6641 L40.5,915.6641 " fill="none" style="stroke:#181818;stroke-width:0.5;"/><rect fill="#E2E2F0" height="49.2188" rx="2.5" ry="2.5" style="stroke:#181818;stroke-width:0.5;" width="132" x="183.5" y="73.7031"/><text fill="#000000" font-family="sans-serif" font-size="14" font-style="italic" lengthAdjust="spacing" textLength="118" x="190.5" y="95.2363">&#171;component (C4)&#187;</text><text fill="#000000" font-family="sans-serif" font-size="14" lengthAdjust="spacing" textLength="89" x="205" y="112.8457">UI Component</text><rect fill="#E2E2F0" height="49.2188" rx="2.5" ry="2.5" style="stroke:#181818;stroke-width:0.5;" width="132" x="183.5" y="839.5547"/><text fill="#000000" font-family="sans-serif" font-size="14" font-style="italic" lengthAdjust="spacing" textLength="118" x="190.5" y="861.0879">&#171;component (C4)&#187;</text><text fill="#000000" font-family="sans-serif" font-size="14" lengthAdjust="spacing" textLength="89" x="205" y="878.6973">UI Component</text><rect fill="#E2E2F0" height="49.2188" rx="2.5" ry="2.5" style="stroke:#181818;stroke-width:0.5;" width="132" x="365.5" y="73.7031"/><text fill="#000000" font-family="sans-serif" font-size="14" font-style="italic" lengthAdjust="spacing" textLength="118" x="372.5" y="95.2363">&#171;component (C4)&#187;</text><text fill="#000000" font-family="sans-serif" font-size="14" lengthAdjust="spacing" textLength="73" x="395" y="112.8457">Component</text><rect fill="#E2E2F0" height="49.2188" rx="2.5" ry="2.5" style="stroke:#181818;stroke-width:0.5;" width="132" x="365.5" y="839.5547"/><text fill="#000000" font-family="sans-serif" font-size="14" font-style="italic" lengthAdjust="spacing" textLength="118" x="372.5" y="861.0879">&#171;component (C4)&#187;</text><text fill="#000000" font-family="sans-serif" font-size="14" lengthAdjust="spacing" textLength="73" x="395" y="878.6973">Component</text><rect fill="#E2E2F0" height="49.2188" rx="2.5" ry="2.5" style="stroke:#181818;stroke-width:0.5;" width="132" x="507.5" y="839.5547"/><text fill="#000000" font-family="sans-serif" font-size="14" font-style="italic" lengthAdjust="spacing" textLength="118" x="514.5" y="861.0879">&#171;component (C4)&#187;</text><text fill="#000000" font-family="sans-serif" font-size="14" lengthAdjust="spacing" textLength="38" x="554.5" y="878.6973">Model</text><rect fill="#E2E2F0" height="49.2188" rx="2.5" ry="2.5" style="stroke:#181818;stroke-width:0.5;" width="132" x="649.5" y="73.7031"/><text fill="#000000" font-family="sans-serif" font-size="14" font-style="italic" lengthAdjust="spacing" textLength="118" x="656.5" y="95.2363">&#171;component (C4)&#187;</text><text fill="#000000" font-family="sans-serif" font-size="14" lengthAdjust="spacing" textLength="47" x="692" y="112.8457">Service</text><rect fill="#E2E2F0" height="49.2188" rx="2.5" ry="2.5" style="stroke:#181818;stroke-width:0.5;" width="132" x="649.5" y="839.5547"/><text fill="#000000" font-family="sans-serif" font-size="14" font-style="italic" lengthAdjust="spacing" textLength="118" x="656.5" y="861.0879">&#171;component (C4)&#187;</text><text fill="#000000" font-family="sans-serif" font-size="14" lengthAdjust="spacing" textLength="47" x="692" y="878.6973">Service</text><rect fill="#E2E2F0" height="49.2188" rx="2.5" ry="2.5" style="stroke:#181818;stroke-width:0.5;" width="132" x="816.5" y="73.7031"/><text fill="#000000" font-family="sans-serif" font-size="14" font-style="italic" lengthAdjust="spacing" textLength="118" x="823.5" y="95.2363">&#171;component (C4)&#187;</text><text fill="#000000" font-family="sans-serif" font-size="14" lengthAdjust="spacing" textLength="36" x="864.5" y="112.8457">HTTP</text><rect fill="#E2E2F0" height="49.2188" rx="2.5" ry="2.5" style="stroke:#181818;stroke-width:0.5;" width="132" x="816.5" y="839.5547"/><text fill="#000000" font-family="sans-serif" font-size="14" font-style="italic" lengthAdjust="spacing" textLength="118" x="823.5" y="861.0879">&#171;component (C4)&#187;</text><text fill="#000000" font-family="sans-serif" font-size="14" lengthAdjust="spacing" textLength="36" x="864.5" y="878.6973">HTTP</text><rect fill="#E2E2F0" height="49.2188" rx="2.5" ry="2.5" style="stroke:#181818;stroke-width:0.5;" width="169" x="967" y="73.7031"/><text fill="#000000" font-family="sans-serif" font-size="14" font-style="italic" lengthAdjust="spacing" textLength="78" x="1012.5" y="95.2363">&#171;Controller&#187;</text><text fill="#000000" font-family="sans-serif" font-size="14" lengthAdjust="spacing" textLength="155" x="974" y="112.8457">SpecializationsController</text><rect fill="#E2E2F0" height="49.2188" rx="2.5" ry="2.5" style="stroke:#181818;stroke-width:0.5;" width="169" x="967" y="839.5547"/><text fill="#000000" font-family="sans-serif" font-size="14" font-style="italic" lengthAdjust="spacing" textLength="78" x="1012.5" y="861.0879">&#171;Controller&#187;</text><text fill="#000000" font-family="sans-serif" font-size="14" lengthAdjust="spacing" textLength="155" x="974" y="878.6973">SpecializationsController</text><rect fill="#E2E2F0" height="49.2188" rx="2.5" ry="2.5" style="stroke:#181818;stroke-width:0.5;" width="147" x="1146" y="73.7031"/><text fill="#000000" font-family="sans-serif" font-size="14" font-style="italic" lengthAdjust="spacing" textLength="62" x="1188.5" y="95.2363">&#171;Service&#187;</text><text fill="#000000" font-family="sans-serif" font-size="14" lengthAdjust="spacing" textLength="133" x="1153" y="112.8457">SpecializationService</text><rect fill="#E2E2F0" height="49.2188" rx="2.5" ry="2.5" style="stroke:#181818;stroke-width:0.5;" width="147" x="1146" y="839.5547"/><text fill="#000000" font-family="sans-serif" font-size="14" font-style="italic" lengthAdjust="spacing" textLength="62" x="1188.5" y="861.0879">&#171;Service&#187;</text><text fill="#000000" font-family="sans-serif" font-size="14" lengthAdjust="spacing" textLength="133" x="1153" y="878.6973">SpecializationService</text><rect fill="#E2E2F0" height="49.2188" rx="2.5" ry="2.5" style="stroke:#181818;stroke-width:0.5;" width="100" x="1513.5" y="839.5547"/><text fill="#000000" font-family="sans-serif" font-size="14" font-style="italic" lengthAdjust="spacing" textLength="64" x="1531.5" y="861.0879">&#171;Domain&#187;</text><text fill="#000000" font-family="sans-serif" font-size="14" lengthAdjust="spacing" textLength="86" x="1520.5" y="878.6973">Specialization</text><rect fill="#E2E2F0" height="49.2188" rx="2.5" ry="2.5" style="stroke:#181818;stroke-width:0.5;" width="122" x="1623.5" y="839.5547"/><text fill="#000000" font-family="sans-serif" font-size="14" font-style="italic" lengthAdjust="spacing" textLength="64" x="1652.5" y="861.0879">&#171;Domain&#187;</text><text fill="#000000" font-family="sans-serif" font-size="14" lengthAdjust="spacing" textLength="108" x="1630.5" y="878.6973">SpecializationDto</text><text fill="#000000" font-family="sans-serif" font-size="14" font-style="italic" lengthAdjust="spacing" textLength="64" x="1800.5" y="103.2363">&#171;Domain&#187;</text><text fill="#000000" font-family="sans-serif" font-size="14" lengthAdjust="spacing" textLength="154" x="1755.5" y="120.8457">SpecializationRepository</text><path d="M1817.5,52.7031 C1817.5,42.7031 1835.5,42.7031 1835.5,42.7031 C1835.5,42.7031 1853.5,42.7031 1853.5,52.7031 L1853.5,78.7031 C1853.5,88.7031 1835.5,88.7031 1835.5,88.7031 C1835.5,88.7031 1817.5,88.7031 1817.5,78.7031 L1817.5,52.7031 " fill="#E2E2F0" style="stroke:#181818;stroke-width:1.5;"/><path d="M1817.5,52.7031 C1817.5,62.7031 1835.5,62.7031 1835.5,62.7031 C1835.5,62.7031 1853.5,62.7031 1853.5,52.7031 " fill="none" style="stroke:#181818;stroke-width:1.5;"/><text fill="#000000" font-family="sans-serif" font-size="14" font-style="italic" lengthAdjust="spacing" textLength="64" x="1800.5" y="854.0879">&#171;Domain&#187;</text><text fill="#000000" font-family="sans-serif" font-size="14" lengthAdjust="spacing" textLength="154" x="1755.5" y="871.6973">SpecializationRepository</text><path d="M1817.5,884.7734 C1817.5,874.7734 1835.5,874.7734 1835.5,874.7734 C1835.5,874.7734 1853.5,874.7734 1853.5,884.7734 L1853.5,910.7734 C1853.5,920.7734 1835.5,920.7734 1835.5,920.7734 C1835.5,920.7734 1817.5,920.7734 1817.5,910.7734 L1817.5,884.7734 " fill="#E2E2F0" style="stroke:#181818;stroke-width:1.5;"/><path d="M1817.5,884.7734 C1817.5,894.7734 1835.5,894.7734 1835.5,894.7734 C1835.5,894.7734 1853.5,894.7734 1853.5,884.7734 " fill="none" style="stroke:#181818;stroke-width:1.5;"/><rect fill="#FFFFFF" height="688.6328" style="stroke:#181818;stroke-width:1.0;" width="10" x="22.5" y="133.9219"/><rect fill="#FFFFFF" height="30.3516" style="stroke:#181818;stroke-width:1.0;" width="10" x="244.5" y="156.2734"/><rect fill="#FFFFFF" height="605.5781" style="stroke:#181818;stroke-width:1.0;" width="10" x="244.5" y="216.9766"/><rect fill="#FFFFFF" height="544.875" style="stroke:#181818;stroke-width:1.0;" width="10" x="426.5" y="247.3281"/><rect fill="#FFFFFF" height="423.9531" style="stroke:#181818;stroke-width:1.0;" width="10" x="710.5" y="337.8984"/><rect fill="#FFFFFF" height="363.25" style="stroke:#181818;stroke-width:1.0;" width="10" x="877.5" y="368.25"/><rect fill="#FFFFFF" height="302.5469" style="stroke:#181818;stroke-width:1.0;" width="10" x="1046.5" y="398.6016"/><rect fill="#FFFFFF" height="241.8438" style="stroke:#181818;stroke-width:1.0;" width="10" x="1214.5" y="428.9531"/><rect fill="#FFFFFF" height="50.2188" style="stroke:#181818;stroke-width:1.0;" width="10" x="1558.5" y="469.3047"/><rect fill="#FFFFFF" height="50.2188" style="stroke:#181818;stroke-width:1.0;" width="10" x="1679.5" y="590.2266"/><polygon fill="#181818" points="232.5,152.2734,242.5,156.2734,232.5,160.2734,236.5,156.2734" style="stroke:#181818;stroke-width:1.0;"/><line style="stroke:#181818;stroke-width:1.0;" x1="32.5" x2="238.5" y1="156.2734" y2="156.2734"/><text fill="#000000" font-family="sans-serif" font-size="13" font-weight="bold" lengthAdjust="spacing" textLength="7" x="42" y="151.417">1</text><text fill="#000000" font-family="sans-serif" font-size="13" lengthAdjust="spacing" textLength="182" x="53" y="151.417">Asks to add new Specialization</text><polygon fill="#181818" points="43.5,182.625,33.5,186.625,43.5,190.625,39.5,186.625" style="stroke:#181818;stroke-width:1.0;"/><line style="stroke:#181818;stroke-width:1.0;stroke-dasharray:2.0,2.0;" x1="37.5" x2="248.5" y1="186.625" y2="186.625"/><text fill="#000000" font-family="sans-serif" font-size="13" font-weight="bold" lengthAdjust="spacing" textLength="7" x="82.5" y="181.7686">2</text><text fill="#000000" font-family="sans-serif" font-size="13" lengthAdjust="spacing" textLength="106" x="93.5" y="181.7686">Asks to input data</text><polygon fill="#181818" points="232.5,212.9766,242.5,216.9766,232.5,220.9766,236.5,216.9766" style="stroke:#181818;stroke-width:1.0;"/><line style="stroke:#181818;stroke-width:1.0;" x1="32.5" x2="238.5" y1="216.9766" y2="216.9766"/><text fill="#000000" font-family="sans-serif" font-size="13" font-weight="bold" lengthAdjust="spacing" textLength="7" x="101" y="212.1201">3</text><text fill="#000000" font-family="sans-serif" font-size="13" lengthAdjust="spacing" textLength="64" x="112" y="212.1201">Inputs data</text><polygon fill="#181818" points="414.5,243.3281,424.5,247.3281,414.5,251.3281,418.5,247.3281" style="stroke:#181818;stroke-width:1.0;"/><line style="stroke:#181818;stroke-width:1.0;" x1="254.5" x2="420.5" y1="247.3281" y2="247.3281"/><text fill="#000000" font-family="sans-serif" font-size="13" font-weight="bold" lengthAdjust="spacing" textLength="7" x="264" y="242.4717">4</text><text fill="#000000" font-family="sans-serif" font-size="13" lengthAdjust="spacing" textLength="142" x="275" y="242.4717">Adds new Specialization</text><polygon fill="#181818" points="495.5,273.6797,505.5,277.6797,495.5,281.6797,499.5,277.6797" style="stroke:#181818;stroke-width:1.0;"/><line style="stroke:#181818;stroke-width:1.0;" x1="436.5" x2="501.5" y1="277.6797" y2="277.6797"/><text fill="#000000" font-family="sans-serif" font-size="13" font-weight="bold" lengthAdjust="spacing" textLength="7" x="448.5" y="272.8232">5</text><text fill="#000000" font-family="sans-serif" font-size="13" lengthAdjust="spacing" textLength="36" x="459.5" y="272.8232">create</text><rect fill="#E2E2F0" height="49.2188" rx="2.5" ry="2.5" style="stroke:#181818;stroke-width:0.5;" width="132" x="507.5" y="255.3281"/><text fill="#000000" font-family="sans-serif" font-size="14" font-style="italic" lengthAdjust="spacing" textLength="118" x="514.5" y="276.8613">&#171;component (C4)&#187;</text><text fill="#000000" font-family="sans-serif" font-size="14" lengthAdjust="spacing" textLength="38" x="554.5" y="294.4707">Model</text><polygon fill="#181818" points="698.5,333.8984,708.5,337.8984,698.5,341.8984,702.5,337.8984" style="stroke:#181818;stroke-width:1.0;"/><line style="stroke:#181818;stroke-width:1.0;" x1="436.5" x2="704.5" y1="337.8984" y2="337.8984"/><text fill="#000000" font-family="sans-serif" font-size="13" font-weight="bold" lengthAdjust="spacing" textLength="7" x="500.5" y="333.042">6</text><text fill="#000000" font-family="sans-serif" font-size="13" lengthAdjust="spacing" textLength="135" x="511.5" y="333.042">Add new Specialization</text><polygon fill="#181818" points="865.5,364.25,875.5,368.25,865.5,372.25,869.5,368.25" style="stroke:#181818;stroke-width:1.0;"/><line style="stroke:#181818;stroke-width:1.0;" x1="720.5" x2="871.5" y1="368.25" y2="368.25"/><text fill="#000000" font-family="sans-serif" font-size="13" font-weight="bold" lengthAdjust="spacing" textLength="7" x="730" y="363.3936">7</text><text fill="#000000" font-family="sans-serif" font-size="13" lengthAdjust="spacing" textLength="127" x="741" y="363.3936">post('/specializations')</text><polygon fill="#181818" points="1034.5,394.6016,1044.5,398.6016,1034.5,402.6016,1038.5,398.6016" style="stroke:#181818;stroke-width:1.0;"/><line style="stroke:#181818;stroke-width:1.0;" x1="887.5" x2="1040.5" y1="398.6016" y2="398.6016"/><text fill="#000000" font-family="sans-serif" font-size="13" font-weight="bold" lengthAdjust="spacing" textLength="7" x="897" y="393.7451">8</text><text fill="#000000" font-family="sans-serif" font-size="13" lengthAdjust="spacing" textLength="129" x="908" y="393.7451">POST /specializations</text><polygon fill="#181818" points="1202.5,424.9531,1212.5,428.9531,1202.5,432.9531,1206.5,428.9531" style="stroke:#181818;stroke-width:1.0;"/><line style="stroke:#181818;stroke-width:1.0;" x1="1056.5" x2="1208.5" y1="428.9531" y2="428.9531"/><text fill="#000000" font-family="sans-serif" font-size="13" font-weight="bold" lengthAdjust="spacing" textLength="7" x="1088" y="424.0967">9</text><text fill="#000000" font-family="sans-serif" font-size="13" lengthAdjust="spacing" textLength="84" x="1099" y="424.0967">addAsync(dto)</text><polygon fill="#181818" points="1501.5,455.3047,1511.5,459.3047,1501.5,463.3047,1505.5,459.3047" style="stroke:#181818;stroke-width:1.0;"/><line style="stroke:#181818;stroke-width:1.0;" x1="1224.5" x2="1507.5" y1="459.3047" y2="459.3047"/><text fill="#000000" font-family="sans-serif" font-size="13" font-weight="bold" lengthAdjust="spacing" textLength="14" x="1236.5" y="454.4482">10</text><text fill="#000000" font-family="sans-serif" font-size="13" lengthAdjust="spacing" textLength="247" x="1254.5" y="454.4482">create(dto.Name,dto.Code,dto.Description)</text><rect fill="#E2E2F0" height="49.2188" rx="2.5" ry="2.5" style="stroke:#181818;stroke-width:0.5;" width="100" x="1513.5" y="436.9531"/><text fill="#000000" font-family="sans-serif" font-size="14" font-style="italic" lengthAdjust="spacing" textLength="64" x="1531.5" y="458.4863">&#171;Domain&#187;</text><text fill="#000000" font-family="sans-serif" font-size="14" lengthAdjust="spacing" textLength="86" x="1520.5" y="476.0957">Specialization</text><polygon fill="#181818" points="1235.5,515.5234,1225.5,519.5234,1235.5,523.5234,1231.5,519.5234" style="stroke:#181818;stroke-width:1.0;"/><line style="stroke:#181818;stroke-width:1.0;stroke-dasharray:2.0,2.0;" x1="1229.5" x2="1562.5" y1="519.5234" y2="519.5234"/><text fill="#000000" font-family="sans-serif" font-size="13" font-weight="bold" lengthAdjust="spacing" textLength="14" x="1345.5" y="514.667">11</text><text fill="#000000" font-family="sans-serif" font-size="13" lengthAdjust="spacing" textLength="79" x="1363.5" y="514.667">specialization</text><polygon fill="#181818" points="1823.5,545.875,1833.5,549.875,1823.5,553.875,1827.5,549.875" style="stroke:#181818;stroke-width:1.0;"/><line style="stroke:#181818;stroke-width:1.0;" x1="1224.5" x2="1829.5" y1="549.875" y2="549.875"/><text fill="#000000" font-family="sans-serif" font-size="13" font-weight="bold" lengthAdjust="spacing" textLength="14" x="1448.5" y="545.0186">12</text><text fill="#000000" font-family="sans-serif" font-size="13" lengthAdjust="spacing" textLength="145" x="1466.5" y="545.0186">addAsync(specialization)</text><polygon fill="#181818" points="1611.5,576.2266,1621.5,580.2266,1611.5,584.2266,1615.5,580.2266" style="stroke:#181818;stroke-width:1.0;"/><line style="stroke:#181818;stroke-width:1.0;" x1="1224.5" x2="1617.5" y1="580.2266" y2="580.2266"/><text fill="#000000" font-family="sans-serif" font-size="13" font-weight="bold" lengthAdjust="spacing" textLength="14" x="1353.5" y="575.3701">13</text><text fill="#000000" font-family="sans-serif" font-size="13" lengthAdjust="spacing" textLength="123" x="1371.5" y="575.3701">create(specialization)</text><rect fill="#E2E2F0" height="49.2188" rx="2.5" ry="2.5" style="stroke:#181818;stroke-width:0.5;" width="122" x="1623.5" y="557.875"/><text fill="#000000" font-family="sans-serif" font-size="14" font-style="italic" lengthAdjust="spacing" textLength="64" x="1652.5" y="579.4082">&#171;Domain&#187;</text><text fill="#000000" font-family="sans-serif" font-size="14" lengthAdjust="spacing" textLength="108" x="1630.5" y="597.0176">SpecializationDto</text><polygon fill="#181818" points="1235.5,636.4453,1225.5,640.4453,1235.5,644.4453,1231.5,640.4453" style="stroke:#181818;stroke-width:1.0;"/><line style="stroke:#181818;stroke-width:1.0;stroke-dasharray:2.0,2.0;" x1="1229.5" x2="1683.5" y1="640.4453" y2="640.4453"/><text fill="#000000" font-family="sans-serif" font-size="13" font-weight="bold" lengthAdjust="spacing" textLength="14" x="1396" y="635.5889">14</text><text fill="#000000" font-family="sans-serif" font-size="13" lengthAdjust="spacing" textLength="99" x="1414" y="635.5889">specializationDto</text><polygon fill="#181818" points="1067.5,666.7969,1057.5,670.7969,1067.5,674.7969,1063.5,670.7969" style="stroke:#181818;stroke-width:1.0;"/><line style="stroke:#181818;stroke-width:1.0;stroke-dasharray:2.0,2.0;" x1="1061.5" x2="1218.5" y1="670.7969" y2="670.7969"/><text fill="#000000" font-family="sans-serif" font-size="13" font-weight="bold" lengthAdjust="spacing" textLength="14" x="1079.5" y="665.9404">15</text><text fill="#000000" font-family="sans-serif" font-size="13" lengthAdjust="spacing" textLength="99" x="1097.5" y="665.9404">specializationDto</text><polygon fill="#181818" points="898.5,697.1484,888.5,701.1484,898.5,705.1484,894.5,701.1484" style="stroke:#181818;stroke-width:1.0;"/><line style="stroke:#181818;stroke-width:1.0;stroke-dasharray:2.0,2.0;" x1="892.5" x2="1050.5" y1="701.1484" y2="701.1484"/><text fill="#000000" font-family="sans-serif" font-size="13" font-weight="bold" lengthAdjust="spacing" textLength="14" x="904.5" y="696.292">16</text><text fill="#000000" font-family="sans-serif" font-size="13" lengthAdjust="spacing" textLength="112" x="922.5" y="696.292">201 (specialization)</text><polygon fill="#181818" points="731.5,727.5,721.5,731.5,731.5,735.5,727.5,731.5" style="stroke:#181818;stroke-width:1.0;"/><line style="stroke:#181818;stroke-width:1.0;stroke-dasharray:2.0,2.0;" x1="725.5" x2="881.5" y1="731.5" y2="731.5"/><text fill="#000000" font-family="sans-serif" font-size="13" font-weight="bold" lengthAdjust="spacing" textLength="14" x="753" y="726.6436">17</text><text fill="#000000" font-family="sans-serif" font-size="13" lengthAdjust="spacing" textLength="79" x="771" y="726.6436">specialization</text><polygon fill="#181818" points="447.5,757.8516,437.5,761.8516,447.5,765.8516,443.5,761.8516" style="stroke:#181818;stroke-width:1.0;"/><line style="stroke:#181818;stroke-width:1.0;stroke-dasharray:2.0,2.0;" x1="441.5" x2="714.5" y1="761.8516" y2="761.8516"/><text fill="#000000" font-family="sans-serif" font-size="13" font-weight="bold" lengthAdjust="spacing" textLength="14" x="527.5" y="756.9951">18</text><text fill="#000000" font-family="sans-serif" font-size="13" lengthAdjust="spacing" textLength="79" x="545.5" y="756.9951">specialization</text><polygon fill="#181818" points="265.5,788.2031,255.5,792.2031,265.5,796.2031,261.5,792.2031" style="stroke:#181818;stroke-width:1.0;"/><line style="stroke:#181818;stroke-width:1.0;stroke-dasharray:2.0,2.0;" x1="259.5" x2="430.5" y1="792.2031" y2="792.2031"/><text fill="#000000" font-family="sans-serif" font-size="13" font-weight="bold" lengthAdjust="spacing" textLength="14" x="294.5" y="787.3467">19</text><text fill="#000000" font-family="sans-serif" font-size="13" lengthAdjust="spacing" textLength="79" x="312.5" y="787.3467">specialization</text><polygon fill="#181818" points="38.5,818.5547,28.5,822.5547,38.5,826.5547,34.5,822.5547" style="stroke:#181818;stroke-width:1.0;"/><line style="stroke:#181818;stroke-width:1.0;stroke-dasharray:2.0,2.0;" x1="32.5" x2="248.5" y1="822.5547" y2="822.5547"/><text fill="#000000" font-family="sans-serif" font-size="13" font-weight="bold" lengthAdjust="spacing" textLength="14" x="55" y="817.6982">20</text><text fill="#000000" font-family="sans-serif" font-size="13" lengthAdjust="spacing" textLength="149" x="73" y="817.6982">Shows success message</text><!--SRC=[fPPDZzem48Rl_0ehFIoWqY_rX28a5bHrfMwxMkYj4ZAEoreaTXGxkqj_VSSEIUmGXwJD8JYstsV6OyyOd2l1ysHFiv4yCfxY32TeJN_ZF5PR-ggMCJlmX7A52BnW5YPAP6WP9OmZB55WMi5ej1UlA0X3UPAA9cYy-ZnPB7xnBva05O-2Dz_OuKdTnZaT8NZ0ZcA4fHZ0Av6aWWFzvvqXma_L5Q0m9EN7cUe76FamxRs8Q6nqfjLBiw7PCoFKgCxjNhgls-s34Ub6gm8YXI2GlcZUOdBKKzPOONIFEJvGlJL1IqIuoaGSqwnmCgM4uPZzmOe9BkjHC55_-5UwQw6K2m_3SwjDxYXQ8A1UYmGpVbMyLg953xrDH0InsMD96_f7chO1TBTaSA9FDgVQ1ZZix1ahMfntmozE_cpX7DivMigZHDh7A4ASlZIi6sK5ivHcG3ysRGRqmapDXTJCbLbSiKhgfNaSlDC0MHFwUsEHj4DH97qhRETMGmvPSqtAJQT09Ha5ZNzccNB6VfTvnuMpoXdKJqa3iCd9EO9JeCOtxwMRA3UJ2sd5riABKVqOeWbQbODpzF1ZiqLDVAky4SEIuPrRXAeoLSTg1sRXD2xbYPDnfCIa4z6CsQvpjXN4dJ7fB6mwBJTKsttt7IVqhMwiOBjDOqqboLYgvqwksgazy- -urqUt0CtSwCXXG2ld1hhY3vKfIzO-kIvD_eCCfT7AhC5WprA1-W-1ryMxC_PziDxmzn7NSMfcvZ17R2Uk9OgTbNMb-VJX8-gr6qw9xom3HSLngkILessnM-jOLI0RnRy3UnaPNpM_k9eyrBOxphhXmjcimTayYHU9P4u8bH8by88_I5tNfTLTNF1_0G00]--></g></svg>