<?xml version="1.0" encoding="us-ascii" standalone="no"?><svg xmlns="http://www.w3.org/2000/svg" xmlns:xlink="http://www.w3.org/1999/xlink" contentStyleType="text/css" height="358px" preserveAspectRatio="none" style="width:576px;height:358px;background:#FFFFFF;" version="1.1" viewBox="0 0 576 358" width="576px" zoomAndPan="magnify"><defs/><g><rect fill="#FFFFFF" height="166.1094" style="stroke:#181818;stroke-width:1.0;" width="10" x="50" y="92.6094"/><rect fill="#FFFFFF" height="143.7578" style="stroke:#181818;stroke-width:1.0;" width="10" x="206" y="114.9609"/><rect fill="#FFFFFF" height="83.0547" style="stroke:#181818;stroke-width:1.0;" width="10" x="369" y="145.3125"/><line style="stroke:#181818;stroke-width:0.5;stroke-dasharray:5.0,5.0;" x1="55" x2="55" y1="82.6094" y2="276.7188"/><line style="stroke:#181818;stroke-width:0.5;stroke-dasharray:5.0,5.0;" x1="210.5" x2="210.5" y1="82.6094" y2="276.7188"/><line style="stroke:#181818;stroke-width:0.5;stroke-dasharray:5.0,5.0;" x1="374" x2="374" y1="82.6094" y2="276.7188"/><text fill="#000000" font-family="sans-serif" font-size="14" lengthAdjust="spacing" textLength="94" x="5" y="79.5332">BackofficeUser</text><ellipse cx="55" cy="13.5" fill="#E2E2F0" rx="8" ry="8" style="stroke:#181818;stroke-width:0.5;"/><path d="M55,21.5 L55,48.5 M42,29.5 L68,29.5 M55,48.5 L42,63.5 M55,48.5 L68,63.5 " fill="none" style="stroke:#181818;stroke-width:0.5;"/><text fill="#000000" font-family="sans-serif" font-size="14" lengthAdjust="spacing" textLength="94" x="5" y="290.252">BackofficeUser</text><ellipse cx="55" cy="301.8281" fill="#E2E2F0" rx="8" ry="8" style="stroke:#181818;stroke-width:0.5;"/><path d="M55,309.8281 L55,336.8281 M42,317.8281 L68,317.8281 M55,336.8281 L42,351.8281 M55,336.8281 L68,351.8281 " fill="none" style="stroke:#181818;stroke-width:0.5;"/><rect fill="#E2E2F0" height="49.2188" rx="2.5" ry="2.5" style="stroke:#181818;stroke-width:0.5;" width="105" x="158.5" y="32.3906"/><text fill="#000000" font-family="sans-serif" font-size="14" font-style="italic" lengthAdjust="spacing" textLength="78" x="172" y="53.9238">&#171;Controller&#187;</text><text fill="#000000" font-family="sans-serif" font-size="14" lengthAdjust="spacing" textLength="91" x="165.5" y="71.5332">UserController</text><rect fill="#E2E2F0" height="49.2188" rx="2.5" ry="2.5" style="stroke:#181818;stroke-width:0.5;" width="105" x="158.5" y="275.7188"/><text fill="#000000" font-family="sans-serif" font-size="14" font-style="italic" lengthAdjust="spacing" textLength="78" x="172" y="297.252">&#171;Controller&#187;</text><text fill="#000000" font-family="sans-serif" font-size="14" lengthAdjust="spacing" textLength="91" x="165.5" y="314.8613">UserController</text><rect fill="#E2E2F0" height="49.2188" rx="2.5" ry="2.5" style="stroke:#181818;stroke-width:0.5;" width="90" x="329" y="32.3906"/><text fill="#000000" font-family="sans-serif" font-size="14" font-style="italic" lengthAdjust="spacing" textLength="62" x="343" y="53.9238">&#171;Service&#187;</text><text fill="#000000" font-family="sans-serif" font-size="14" lengthAdjust="spacing" textLength="76" x="336" y="71.5332">UserService</text><rect fill="#E2E2F0" height="49.2188" rx="2.5" ry="2.5" style="stroke:#181818;stroke-width:0.5;" width="90" x="329" y="275.7188"/><text fill="#000000" font-family="sans-serif" font-size="14" font-style="italic" lengthAdjust="spacing" textLength="62" x="343" y="297.252">&#171;Service&#187;</text><text fill="#000000" font-family="sans-serif" font-size="14" lengthAdjust="spacing" textLength="76" x="336" y="314.8613">UserService</text><rect fill="#FFFFFF" height="166.1094" style="stroke:#181818;stroke-width:1.0;" width="10" x="50" y="92.6094"/><rect fill="#FFFFFF" height="143.7578" style="stroke:#181818;stroke-width:1.0;" width="10" x="206" y="114.9609"/><rect fill="#FFFFFF" height="83.0547" style="stroke:#181818;stroke-width:1.0;" width="10" x="369" y="145.3125"/><polygon fill="#181818" points="194,110.9609,204,114.9609,194,118.9609,198,114.9609" style="stroke:#181818;stroke-width:1.0;"/><line style="stroke:#181818;stroke-width:1.0;" x1="60" x2="200" y1="114.9609" y2="114.9609"/><text fill="#000000" font-family="sans-serif" font-size="13" lengthAdjust="spacing" textLength="127" x="67" y="110.1045">POST /api/users/login</text><polygon fill="#181818" points="357,141.3125,367,145.3125,357,149.3125,361,145.3125" style="stroke:#181818;stroke-width:1.0;"/><line style="stroke:#181818;stroke-width:1.0;" x1="216" x2="363" y1="145.3125" y2="145.3125"/><text fill="#000000" font-family="sans-serif" font-size="13" lengthAdjust="spacing" textLength="134" x="223" y="140.4561">Login(loginRequestDto)</text><path d="M384,158.3125 L384,200.3125 L569,200.3125 L569,168.3125 L559,158.3125 L384,158.3125 " fill="#FEFFDD" style="stroke:#181818;stroke-width:0.5;"/><path d="M559,158.3125 L559,168.3125 L569,168.3125 L559,158.3125 " fill="#FEFFDD" style="stroke:#181818;stroke-width:0.5;"/><text fill="#000000" font-family="sans-serif" font-size="13" lengthAdjust="spacing" textLength="129" x="390" y="176.8076">Login to the auth0 api,</text><text fill="#000000" font-family="sans-serif" font-size="13" lengthAdjust="spacing" textLength="160" x="394" y="193.1592">bringing the token and roles</text><polygon fill="#181818" points="227,224.3672,217,228.3672,227,232.3672,223,228.3672" style="stroke:#181818;stroke-width:1.0;"/><line style="stroke:#181818;stroke-width:1.0;stroke-dasharray:2.0,2.0;" x1="221" x2="373" y1="228.3672" y2="228.3672"/><text fill="#000000" font-family="sans-serif" font-size="13" lengthAdjust="spacing" textLength="47" x="233" y="223.5107">loginDto</text><polygon fill="#181818" points="66,254.7188,56,258.7188,66,262.7188,62,258.7188" style="stroke:#181818;stroke-width:1.0;"/><line style="stroke:#181818;stroke-width:1.0;stroke-dasharray:2.0,2.0;" x1="60" x2="210" y1="258.7188" y2="258.7188"/><text fill="#000000" font-family="sans-serif" font-size="13" lengthAdjust="spacing" textLength="42" x="72" y="253.8623">200 Ok</text><!--SRC=[TL5DJyCm3BttLrWzWKJLYkDKzG0x8ZOnk749dTj6hPAIkFlzE6cwP21ySlm-_EI8bhI1_4cqe-uwsUA7HPE3iE2QOpOBGxALir04kHizQqL6JrDWnIVKTNmqpL_b2Ss55tXPw5aJEXPaeYLv4OHXTGPSlYsQTCyEZeVJEvHYbkN2i2qdtKkrygyUKR02hX8JjjmoxE35wU-yonj-BsXfJ_e-wgwcGH8HLw-Q4J2o7mXqjt62Av066X34GaC57FdXKy6NaOgntYEaHrGWr1au6jfRxorZyVi4FYodZFGp_X_JNn7gehWrUQmgE8mhBP6dfql6uLT-0000]--></g></svg>