<?xml version="1.0" encoding="us-ascii" standalone="no"?><svg xmlns="http://www.w3.org/2000/svg" xmlns:xlink="http://www.w3.org/1999/xlink" contentStyleType="text/css" height="1083px" preserveAspectRatio="none" style="width:842px;height:1083px;background:#FFFFFF;" version="1.1" viewBox="0 0 842 1083" width="842px" zoomAndPan="magnify"><defs/><g><!--cluster BackendDataManagement--><g id="cluster_BackendDataManagement"><rect fill="none" height="967" rx="2.5" ry="2.5" style="stroke:#181818;stroke-width:1.0;" width="747" x="7" y="110"/><rect fill="none" height="10" style="stroke:#181818;stroke-width:1.0;" width="15" x="734" y="115"/><rect fill="none" height="2" style="stroke:#181818;stroke-width:1.0;" width="4" x="732" y="117"/><rect fill="none" height="2" style="stroke:#181818;stroke-width:1.0;" width="4" x="732" y="121"/><text fill="#000000" font-family="sans-serif" font-size="14" font-style="italic" lengthAdjust="spacing" textLength="86" x="337.5" y="137.5332">&#171;component&#187;</text><text fill="#000000" font-family="sans-serif" font-size="14" font-style="italic" lengthAdjust="spacing" textLength="100" x="330.5" y="155.1426">&#171;C4 Container&#187;</text><text fill="#000000" font-family="sans-serif" font-size="14" font-weight="bold" lengthAdjust="spacing" textLength="191" x="285" y="172.752">Backend Data Management</text></g><!--cluster Frameworks and Drivers Layer--><g id="cluster_Frameworks and Drivers Layer"><path d="M170.5,201 L385.5,201 A3.75,3.75 0 0 1 388,203.5 L395,224.6094 L502.5,224.6094 A2.5,2.5 0 0 1 505,227.1094 L505,315.5 A2.5,2.5 0 0 1 502.5,318 L170.5,318 A2.5,2.5 0 0 1 168,315.5 L168,203.5 A2.5,2.5 0 0 1 170.5,201 " fill="none" style="stroke:#000000;stroke-width:1.5;"/><line style="stroke:#000000;stroke-width:1.5;" x1="168" x2="395" y1="224.6094" y2="224.6094"/><text fill="#000000" font-family="sans-serif" font-size="14" font-weight="bold" lengthAdjust="spacing" textLength="214" x="172" y="217.5332">Frameworks and Drivers Layer</text></g><!--cluster Interface Adapters Layer--><g id="cluster_Interface Adapters Layer"><path d="M181.5,446 L354.5,446 A3.75,3.75 0 0 1 357,448.5 L364,469.6094 L495.5,469.6094 A2.5,2.5 0 0 1 498,472.1094 L498,560.5 A2.5,2.5 0 0 1 495.5,563 L181.5,563 A2.5,2.5 0 0 1 179,560.5 L179,448.5 A2.5,2.5 0 0 1 181.5,446 " fill="none" style="stroke:#000000;stroke-width:1.5;"/><line style="stroke:#000000;stroke-width:1.5;" x1="179" x2="364" y1="469.6094" y2="469.6094"/><text fill="#000000" font-family="sans-serif" font-size="14" font-weight="bold" lengthAdjust="spacing" textLength="172" x="183" y="462.5332">Interface Adapters Layer</text></g><!--cluster Application Business Rules--><g id="cluster_Application Business Rules"><path d="M305.5,691 L497.5,691 A3.75,3.75 0 0 1 500,693.5 L507,714.6094 L507.5,714.6094 A2.5,2.5 0 0 1 510,717.1094 L510,805.5 A2.5,2.5 0 0 1 507.5,808 L305.5,808 A2.5,2.5 0 0 1 303,805.5 L303,693.5 A2.5,2.5 0 0 1 305.5,691 " fill="none" style="stroke:#000000;stroke-width:1.5;"/><line style="stroke:#000000;stroke-width:1.5;" x1="303" x2="507" y1="714.6094" y2="714.6094"/><text fill="#000000" font-family="sans-serif" font-size="14" font-weight="bold" lengthAdjust="spacing" textLength="191" x="307" y="707.5332">Application Business Rules</text></g><!--cluster Enterprise Business Rules--><g id="cluster_Enterprise Business Rules"><path d="M255.5,936 L443.5,936 A3.75,3.75 0 0 1 446,938.5 L453,959.6094 L453.5,959.6094 A2.5,2.5 0 0 1 456,962.1094 L456,1050.5 A2.5,2.5 0 0 1 453.5,1053 L255.5,1053 A2.5,2.5 0 0 1 253,1050.5 L253,938.5 A2.5,2.5 0 0 1 255.5,936 " fill="none" style="stroke:#000000;stroke-width:1.5;"/><line style="stroke:#000000;stroke-width:1.5;" x1="253" x2="453" y1="959.6094" y2="959.6094"/><text fill="#000000" font-family="sans-serif" font-size="14" font-weight="bold" lengthAdjust="spacing" textLength="187" x="257" y="952.5332">Enterprise Business Rules</text></g><text fill="#000000" font-family="sans-serif" font-size="14" lengthAdjust="spacing" textLength="4" x="424" y="88.9238">&#160;</text><rect fill="#F1F1F1" height="12" style="stroke:#181818;stroke-width:1.5;" width="12" x="420" y="104"/><text fill="#000000" font-family="sans-serif" font-size="14" lengthAdjust="spacing" textLength="4" x="355" y="88.9238">&#160;</text><rect fill="#F1F1F1" height="12" style="stroke:#181818;stroke-width:1.5;" width="12" x="351" y="104"/><text fill="#000000" font-family="sans-serif" font-size="14" lengthAdjust="spacing" textLength="4" x="752" y="902.5332">&#160;</text><rect fill="#F1F1F1" height="12" style="stroke:#181818;stroke-width:1.5;" width="12" x="748" y="876"/><!--entity Controller_API--><g id="elem_Controller_API"><ellipse cx="422" cy="392" fill="#F1F1F1" rx="8" ry="8" style="stroke:#181818;stroke-width:0.5;"/><text fill="#000000" font-family="sans-serif" font-size="14" lengthAdjust="spacing" textLength="87" x="378.5" y="423.5332">Controller API</text></g><!--entity DataModel_API--><g id="elem_DataModel_API"><ellipse cx="95" cy="392" fill="#F1F1F1" rx="8" ry="8" style="stroke:#181818;stroke-width:0.5;"/><text fill="#000000" font-family="sans-serif" font-size="14" lengthAdjust="spacing" textLength="97" x="46.5" y="423.5332">Data Model API</text></g><!--entity ApplicationServiceAPI--><g id="elem_ApplicationServiceAPI"><ellipse cx="466" cy="637" fill="#F1F1F1" rx="8" ry="8" style="stroke:#181818;stroke-width:0.5;"/><text fill="#000000" font-family="sans-serif" font-size="14" lengthAdjust="spacing" textLength="108" x="412" y="668.5332">App Services API</text></g><!--entity DatabaseDriverAPI--><g id="elem_DatabaseDriverAPI"><ellipse cx="258" cy="392" fill="#F1F1F1" rx="8" ry="8" style="stroke:#181818;stroke-width:0.5;"/><text fill="#000000" font-family="sans-serif" font-size="14" lengthAdjust="spacing" textLength="128" x="194" y="423.5332">Database Driver API</text></g><!--entity RepoAPI--><g id="elem_RepoAPI"><ellipse cx="258" cy="637" fill="#F1F1F1" rx="8" ry="8" style="stroke:#181818;stroke-width:0.5;"/><text fill="#000000" font-family="sans-serif" font-size="14" lengthAdjust="spacing" textLength="59" x="228.5" y="668.5332">Repo API</text></g><!--entity DTOAPI--><g id="elem_DTOAPI"><ellipse cx="598" cy="637" fill="#F1F1F1" rx="8" ry="8" style="stroke:#181818;stroke-width:0.5;"/><text fill="#000000" font-family="sans-serif" font-size="14" lengthAdjust="spacing" textLength="55" x="570.5" y="668.5332">DTO API</text></g><!--entity ModelAPI--><g id="elem_ModelAPI"><ellipse cx="406" cy="882" fill="#F1F1F1" rx="8" ry="8" style="stroke:#181818;stroke-width:0.5;"/><text fill="#000000" font-family="sans-serif" font-size="14" lengthAdjust="spacing" textLength="63" x="374.5" y="913.5332">Model API</text></g><!--entity VOAPI--><g id="elem_VOAPI"><ellipse cx="294" cy="882" fill="#F1F1F1" rx="8" ry="8" style="stroke:#181818;stroke-width:0.5;"/><text fill="#000000" font-family="sans-serif" font-size="14" lengthAdjust="spacing" textLength="45" x="271.5" y="913.5332">VO API</text></g><!--entity DatabaseDriver--><g id="elem_DatabaseDriver"><rect fill="#F1F1F1" height="65.2188" rx="2.5" ry="2.5" style="stroke:#181818;stroke-width:0.5;" width="143" x="184.5" y="237"/><rect fill="#F1F1F1" height="10" style="stroke:#181818;stroke-width:0.5;" width="15" x="307.5" y="242"/><rect fill="#F1F1F1" height="2" style="stroke:#181818;stroke-width:0.5;" width="4" x="305.5" y="244"/><rect fill="#F1F1F1" height="2" style="stroke:#181818;stroke-width:0.5;" width="4" x="305.5" y="248"/><text fill="#000000" font-family="sans-serif" font-size="14" font-style="italic" lengthAdjust="spacing" textLength="86" x="208" y="271.5332">&#171;component&#187;</text><text fill="#000000" font-family="sans-serif" font-size="14" lengthAdjust="spacing" textLength="103" x="199.5" y="289.1426">Database Driver</text></g><!--entity Routing--><g id="elem_Routing"><rect fill="#F1F1F1" height="65.2188" rx="2.5" ry="2.5" style="stroke:#181818;stroke-width:0.5;" width="126" x="363" y="237"/><rect fill="#F1F1F1" height="10" style="stroke:#181818;stroke-width:0.5;" width="15" x="469" y="242"/><rect fill="#F1F1F1" height="2" style="stroke:#181818;stroke-width:0.5;" width="4" x="467" y="244"/><rect fill="#F1F1F1" height="2" style="stroke:#181818;stroke-width:0.5;" width="4" x="467" y="248"/><text fill="#000000" font-family="sans-serif" font-size="14" font-style="italic" lengthAdjust="spacing" textLength="86" x="378" y="271.5332">&#171;component&#187;</text><text fill="#000000" font-family="sans-serif" font-size="14" lengthAdjust="spacing" textLength="49" x="396.5" y="289.1426">Routing</text></g><!--entity DTO--><g id="elem_DTO"><rect fill="#F1F1F1" height="65.2188" rx="2.5" ry="2.5" style="stroke:#181818;stroke-width:0.5;" width="126" x="517" y="482"/><rect fill="#F1F1F1" height="10" style="stroke:#181818;stroke-width:0.5;" width="15" x="623" y="487"/><rect fill="#F1F1F1" height="2" style="stroke:#181818;stroke-width:0.5;" width="4" x="621" y="489"/><rect fill="#F1F1F1" height="2" style="stroke:#181818;stroke-width:0.5;" width="4" x="621" y="493"/><text fill="#000000" font-family="sans-serif" font-size="14" font-style="italic" lengthAdjust="spacing" textLength="86" x="532" y="516.5332">&#171;component&#187;</text><text fill="#000000" font-family="sans-serif" font-size="14" lengthAdjust="spacing" textLength="30" x="560" y="534.1426">DTO</text></g><!--entity DataModel--><g id="elem_DataModel"><rect fill="#F1F1F1" height="65.2188" rx="2.5" ry="2.5" style="stroke:#181818;stroke-width:0.5;" width="126" x="23" y="237"/><rect fill="#F1F1F1" height="10" style="stroke:#181818;stroke-width:0.5;" width="15" x="129" y="242"/><rect fill="#F1F1F1" height="2" style="stroke:#181818;stroke-width:0.5;" width="4" x="127" y="244"/><rect fill="#F1F1F1" height="2" style="stroke:#181818;stroke-width:0.5;" width="4" x="127" y="248"/><text fill="#000000" font-family="sans-serif" font-size="14" font-style="italic" lengthAdjust="spacing" textLength="86" x="38" y="271.5332">&#171;component&#187;</text><text fill="#000000" font-family="sans-serif" font-size="14" lengthAdjust="spacing" textLength="72" x="45" y="289.1426">Data Model</text></g><!--entity Controller--><g id="elem_Controller"><rect fill="#F1F1F1" height="65.2188" rx="2.5" ry="2.5" style="stroke:#181818;stroke-width:0.5;" width="126" x="356" y="482"/><rect fill="#F1F1F1" height="10" style="stroke:#181818;stroke-width:0.5;" width="15" x="462" y="487"/><rect fill="#F1F1F1" height="2" style="stroke:#181818;stroke-width:0.5;" width="4" x="460" y="489"/><rect fill="#F1F1F1" height="2" style="stroke:#181818;stroke-width:0.5;" width="4" x="460" y="493"/><text fill="#000000" font-family="sans-serif" font-size="14" font-style="italic" lengthAdjust="spacing" textLength="86" x="371" y="516.5332">&#171;component&#187;</text><text fill="#000000" font-family="sans-serif" font-size="14" lengthAdjust="spacing" textLength="62" x="383" y="534.1426">Controller</text></g><!--entity Repository--><g id="elem_Repository"><rect fill="#F1F1F1" height="65.2188" rx="2.5" ry="2.5" style="stroke:#181818;stroke-width:0.5;" width="126" x="195" y="482"/><rect fill="#F1F1F1" height="10" style="stroke:#181818;stroke-width:0.5;" width="15" x="301" y="487"/><rect fill="#F1F1F1" height="2" style="stroke:#181818;stroke-width:0.5;" width="4" x="299" y="489"/><rect fill="#F1F1F1" height="2" style="stroke:#181818;stroke-width:0.5;" width="4" x="299" y="493"/><text fill="#000000" font-family="sans-serif" font-size="14" font-style="italic" lengthAdjust="spacing" textLength="86" x="210" y="516.5332">&#171;component&#187;</text><text fill="#000000" font-family="sans-serif" font-size="14" lengthAdjust="spacing" textLength="68" x="219" y="534.1426">Repository</text></g><!--entity ApplicationService--><g id="elem_ApplicationService"><rect fill="#F1F1F1" height="65.2188" rx="2.5" ry="2.5" style="stroke:#181818;stroke-width:0.5;" width="160" x="326" y="727"/><rect fill="#F1F1F1" height="10" style="stroke:#181818;stroke-width:0.5;" width="15" x="466" y="732"/><rect fill="#F1F1F1" height="2" style="stroke:#181818;stroke-width:0.5;" width="4" x="464" y="734"/><rect fill="#F1F1F1" height="2" style="stroke:#181818;stroke-width:0.5;" width="4" x="464" y="738"/><text fill="#000000" font-family="sans-serif" font-size="14" font-style="italic" lengthAdjust="spacing" textLength="86" x="358" y="761.5332">&#171;component&#187;</text><text fill="#000000" font-family="sans-serif" font-size="14" lengthAdjust="spacing" textLength="120" x="341" y="779.1426">Application Service</text></g><!--entity DomainModelDDD--><g id="elem_DomainModelDDD"><rect fill="#F1F1F1" height="65.2188" rx="2.5" ry="2.5" style="stroke:#181818;stroke-width:0.5;" width="164" x="272" y="972"/><rect fill="#F1F1F1" height="10" style="stroke:#181818;stroke-width:0.5;" width="15" x="416" y="977"/><rect fill="#F1F1F1" height="2" style="stroke:#181818;stroke-width:0.5;" width="4" x="414" y="979"/><rect fill="#F1F1F1" height="2" style="stroke:#181818;stroke-width:0.5;" width="4" x="414" y="983"/><text fill="#000000" font-family="sans-serif" font-size="14" font-style="italic" lengthAdjust="spacing" textLength="86" x="306" y="1006.5332">&#171;component&#187;</text><text fill="#000000" font-family="sans-serif" font-size="14" lengthAdjust="spacing" textLength="124" x="287" y="1024.1426">Domain Model DDD</text></g><!--entity API--><g id="elem_API"><ellipse cx="459" cy="14" fill="#F1F1F1" rx="8" ry="8" style="stroke:#181818;stroke-width:0.5;"/><text fill="#000000" font-family="sans-serif" font-size="14" lengthAdjust="spacing" textLength="21" x="448.5" y="45.5332">API</text></g><!--entity A0API--><g id="elem_A0API"><ellipse cx="804" cy="882" fill="#F1F1F1" rx="8" ry="8" style="stroke:#181818;stroke-width:0.5;"/><text fill="#000000" font-family="sans-serif" font-size="14" lengthAdjust="spacing" textLength="62" x="773" y="913.5332">Auth0 API</text></g><!--entity DB_API--><g id="elem_DB_API"><ellipse cx="346" cy="14" fill="#F1F1F1" rx="8" ry="8" style="stroke:#181818;stroke-width:0.5;"/><text fill="#000000" font-family="sans-serif" font-size="14" lengthAdjust="spacing" textLength="86" x="303" y="45.5332">Database API</text></g><!--link API to P1--><g id="link_API_P1"><path d="M456.19,23.01 C449.58,41.84 433.21,88.45 427.78,103.92 " fill="none" id="API-P1" style="stroke:#181818;stroke-width:1.0;"/></g><!--reverse link DB_API to P2--><g id="link_DB_API_P2"><path d="M348.1005,32.9424 C350.3005,51.7724 354.6,88.45 356.41,103.92 " fill="none" id="DB_API-backto-P2" style="stroke:#181818;stroke-width:1.0;"/><path d="M338.8971,27.0488 A9,9 0 0 0 355.6973 25.086" fill="none" style="stroke:#181818;stroke-width:1.5;"/></g><!--link P3 to A0API--><g id="link_P3_A0API"><path d="M760.25,882 C771.76,882 773.26,882 784.77,882 " fill="none" id="P3-to-A0API" style="stroke:#181818;stroke-width:1.0;"/><path d="M791.6918,873.5428 A9,9 0 0 0 791.6918 890.4572" fill="none" style="stroke:#181818;stroke-width:1.5;"/></g><!--link Routing to P1--><g id="link_Routing_P1"><path d="M426,236.69 C426,197.75 426,134.71 426,116.24 " fill="none" id="Routing-P1" style="stroke:#181818;stroke-width:1.0;"/></g><!--link Routing to Controller_API--><g id="link_Routing_Controller_API"><path d="M424.95,302.16 C424.05,329.22 423.1497,356.2854 422.6097,372.6554 " fill="none" id="Routing-to-Controller_API" style="stroke:#181818;stroke-width:1.0;"/><path d="M430.8341,379.8523 A9,9 0 0 0 413.9288 379.2947" fill="none" style="stroke:#181818;stroke-width:1.5;"/></g><!--link Routing to DTOAPI--><g id="link_Routing_DTOAPI"><path d="M462.66,302.03 C472.37,310.05 482.94,318.51 493,326 C564.98,379.58 618.66,358.88 661,438 C688.89,490.12 683.19,516.21 661,571 C650.03,598.09 629.994,614.4846 615.344,624.5046 " fill="none" id="Routing-to-DTOAPI" style="stroke:#181818;stroke-width:1.0;"/><path d="M614.4052,635.3929 A9,9 0 0 0 604.8563 621.4316" fill="none" style="stroke:#181818;stroke-width:1.5;"/></g><!--link DatabaseDriver to DatabaseDriverAPI--><g id="link_DatabaseDriver_DatabaseDriverAPI"><path d="M256.53,302.16 C256.97,329.22 257.59,366.28 257.86,382.65 " fill="none" id="DatabaseDriver-DatabaseDriverAPI" style="stroke:#181818;stroke-width:1.0;"/></g><!--link DatabaseDriver to P2--><g id="link_DatabaseDriver_P2"><path d="M276.4,236.69 C301.37,197.75 341.8,134.71 353.64,116.24 " fill="none" id="DatabaseDriver-P2" style="stroke:#181818;stroke-width:1.0;"/></g><!--link DatabaseDriver to DataModel_API--><g id="link_DatabaseDriver_DataModel_API"><path d="M213.7,302.16 C176.43,330.05 132.9565,362.5987 112.2165,378.1187 " fill="none" id="DatabaseDriver-to-DataModel_API" style="stroke:#181818;stroke-width:1.0;"/><path d="M111.7416,389.037 A9,9 0 0 0 101.6075 375.4945" fill="none" style="stroke:#181818;stroke-width:1.5;"/></g><!--link Repository to RepoAPI--><g id="link_Repository_RepoAPI"><path d="M258,547.16 C258,574.22 258,611.28 258,627.65 " fill="none" id="Repository-RepoAPI" style="stroke:#181818;stroke-width:1.0;"/></g><!--reverse link DatabaseDriverAPI to Repository--><g id="link_DatabaseDriverAPI_Repository"><path d="M258,411.28 C258,427.61 258,454.7 258,481.79 " fill="none" id="DatabaseDriverAPI-backto-Repository" style="stroke:#181818;stroke-width:1.0;"/><path d="M249.5428,404.3582 A9,9 0 0 0 266.4572 404.3582" fill="none" style="stroke:#181818;stroke-width:1.5;"/></g><!--reverse link DataModel_API to Repository--><g id="link_DataModel_API_Repository"><path d="M112.2708,405.7652 C133.2208,421.2552 177.41,453.92 215.2,481.86 " fill="none" id="DataModel_API-backto-Repository" style="stroke:#181818;stroke-width:1.0;"/><path d="M101.6771,408.4503 A9,9 0 0 0 111.7331 394.8497" fill="none" style="stroke:#181818;stroke-width:1.5;"/></g><!--link Repository to VOAPI--><g id="link_Repository_VOAPI"><path d="M233.69,547.04 C222.26,563.85 209.88,585.47 204,607 C196.98,632.72 198.73,640.86 204,667 C221.14,751.94 267.9282,836.514 284.0882,864.194 " fill="none" id="Repository-to-VOAPI" style="stroke:#181818;stroke-width:1.0;"/><path d="M294.8817,865.9077 A9,9 0 0 0 280.2744 874.4357" fill="none" style="stroke:#181818;stroke-width:1.5;"/></g><!--link Repository to ModelAPI--><g id="link_Repository_ModelAPI"><path d="M275.21,547 C296.46,582.56 336.12,639.08 387,667 C432.24,691.82 468.12,644.08 502,683 C540.81,727.58 529.7,763.78 502,816 C501.85,816.29 447.4579,853.0144 423.4779,869.2044 " fill="none" id="Repository-to-ModelAPI" style="stroke:#181818;stroke-width:1.0;"/><path d="M422.4735,880.0869 A9,9 0 0 0 413.0089 866.0683" fill="none" style="stroke:#181818;stroke-width:1.5;"/></g><!--link DataModel to DataModel_API--><g id="link_DataModel_DataModel_API"><path d="M88.36,302.16 C90.39,329.22 93.15,366.28 94.38,382.65 " fill="none" id="DataModel-DataModel_API" style="stroke:#181818;stroke-width:1.0;"/></g><!--link Controller to ApplicationServiceAPI--><g id="link_Controller_ApplicationServiceAPI"><path d="M431.35,547.16 C441.9,574.22 452.7287,601.9626 459.1087,618.3326 " fill="none" id="Controller-to-ApplicationServiceAPI" style="stroke:#181818;stroke-width:1.0;"/><path d="M469.5021,621.7108 A9,9 0 0 0 453.7423 627.853" fill="none" style="stroke:#181818;stroke-width:1.5;"/></g><!--link Controller_API to Controller--><g id="link_Controller_API_Controller"><path d="M421.79,401.28 C421.39,417.61 420.46,454.7 419.79,481.79 " fill="none" id="Controller_API-Controller" style="stroke:#181818;stroke-width:1.0;"/></g><!--link Controller to DTOAPI--><g id="link_Controller_DTOAPI"><path d="M455,547.17 C464.8,555.27 475.59,563.74 486,571 C504.9,584.18 556.6026,613.0841 579.9426,626.0141 " fill="none" id="Controller-to-DTOAPI" style="stroke:#181818;stroke-width:1.0;"/><path d="M590.0957,621.9705 A9,9 0 0 0 581.8991 636.7662" fill="none" style="stroke:#181818;stroke-width:1.5;"/></g><!--link Controller to VOAPI--><g id="link_Controller_VOAPI"><path d="M391.34,547.23 C365.31,579.15 327.76,630.95 310,683 C286.06,753.18 290.2533,835.1718 292.4633,862.8218 " fill="none" id="Controller-to-VOAPI" style="stroke:#181818;stroke-width:1.0;"/><path d="M301.4451,869.0478 A9,9 0 0 0 284.5844 870.3954" fill="none" style="stroke:#181818;stroke-width:1.5;"/></g><!--link ApplicationServiceAPI to ApplicationService--><g id="link_ApplicationServiceAPI_ApplicationService"><path d="M461.88,646.28 C453.75,662.61 435.28,699.7 421.79,726.79 " fill="none" id="ApplicationServiceAPI-ApplicationService" style="stroke:#181818;stroke-width:1.0;"/></g><!--link ApplicationService to P3--><g id="link_ApplicationService_P3"><path d="M445.88,792.05 C459.23,801.15 474.64,810.18 490,816 C596.61,856.41 656.05,779.44 744,852 C751.07,857.83 753.15,868.92 753.76,875.56 " fill="none" id="ApplicationService-P3" style="stroke:#181818;stroke-width:1.0;"/></g><!--link ApplicationService to VOAPI--><g id="link_ApplicationService_VOAPI"><path d="M376.57,792.16 C351.43,819.22 323.7767,848.9541 308.5667,865.3241 " fill="none" id="ApplicationService-to-VOAPI" style="stroke:#181818;stroke-width:1.0;"/><path d="M310.0509,876.1516 A9,9 0 0 0 297.6596 864.6383" fill="none" style="stroke:#181818;stroke-width:1.5;"/></g><!--reverse link RepoAPI to ApplicationService--><g id="link_RepoAPI_ApplicationService"><path d="M275.7158,649.5637 C288.4158,657.9137 303.3,668.11 322,683 C339.18,696.68 357.41,712.84 372.47,726.69 " fill="none" id="RepoAPI-backto-ApplicationService" style="stroke:#181818;stroke-width:1.0;"/><path d="M265.2859,652.8277 A9,9 0 0 0 274.5782 638.6944" fill="none" style="stroke:#181818;stroke-width:1.5;"/></g><!--link ApplicationService to ModelAPI--><g id="link_ApplicationService_ModelAPI"><path d="M406,792.16 C406,819.22 406,846.28 406,862.65 " fill="none" id="ApplicationService-to-ModelAPI" style="stroke:#181818;stroke-width:1.0;"/><path d="M414.4572,869.5718 A9,9 0 0 0 397.5428 869.5718" fill="none" style="stroke:#181818;stroke-width:1.5;"/></g><!--link DTO to DTOAPI--><g id="link_DTO_DTOAPI"><path d="M584.73,547.16 C588.77,574.22 594.31,611.28 596.75,627.65 " fill="none" id="DTO-DTOAPI" style="stroke:#181818;stroke-width:1.0;"/></g><!--link ModelAPI to DomainModelDDD--><g id="link_ModelAPI_DomainModelDDD"><path d="M402.43,891.28 C395.38,907.61 379.37,944.7 367.69,971.79 " fill="none" id="ModelAPI-DomainModelDDD" style="stroke:#181818;stroke-width:1.0;"/></g><!--link VOAPI to DomainModelDDD--><g id="link_VOAPI_DomainModelDDD"><path d="M298.12,891.28 C306.25,907.61 324.72,944.7 338.21,971.79 " fill="none" id="VOAPI-DomainModelDDD" style="stroke:#181818;stroke-width:1.0;"/></g><!--SRC=[ZLNBQjmm5DtxAovUUMD8aov3O2Pk8T0oGp9aMnHRIKKyaf7bb53oxxsoP4cMDDEiPdJkkU-7bHX02NWIIeaZT4pILZ71Yu9nHUKpQIcKc_rT2MG4_5t1a_fz0Kvu4OaReiWJ6QbZDDjVcbAquZW8Jhc2SalQLyexq5puIJXveKSKp7Ghqo8lWUjhftvpWw_Rht0hk2ACKud0tm9W458n3YNCPlPVKkZIGc9I3hig4BppuMkhKlGzbIu13ys9hEWc0z7HtkUh8zU8IHlWMVGTcYk_ItAaVuHy7O7ev2LxetA47-ITod9E0I0eaYka8JhR6ZDGL1LZuIEsSu_fCluowzl_9nK_TBnX38UTyNlOPNGIjYl6kX2dL8CwReO17gXyOoqTJIKt3u1WprgY1zFAilKFYkHKruLArExf81nNFrB3cB4pTjWbyg3do9XV2UVHctZSHSFWQPkE3EhS8FZvYyRna_t7z4QcX7mt8-2UvwTW2JHe0cod4HTkH2DJJyTCg27PjinSYQIJdtF-JLTfa0mR_5_VZJZYER3Bs3IDcS4Pd364pZX5jzWXg6jzEVQNK4zrjPok_HNY4j_cs1NB5jM6xPzLV2j2aPsY8jfXj94EQyh1uvM0rVhM04Rccuiwos27w6IrLluWImaCh-nMTffN8ABB4e39qJJ2fXS66GomLijlUKYQwhYkaGbRsWYrEvUPFMqnxpP7hlLN8YjOVEHTL4i3u9HsM36yDxfMov2ivrO7xCaPeStr7m00]--></g></svg>