<?xml version="1.0" encoding="us-ascii" standalone="no"?><svg xmlns="http://www.w3.org/2000/svg" xmlns:xlink="http://www.w3.org/1999/xlink" contentStyleType="text/css" height="630px" preserveAspectRatio="none" style="width:1016px;height:630px;background:#FFFFFF;" version="1.1" viewBox="0 0 1016 630" width="1016px" zoomAndPan="magnify"><defs/><g><rect fill="#FFFFFF" height="396.5703" style="stroke:#181818;stroke-width:1.0;" width="10" x="167.5" y="118.5703"/><rect fill="#FFFFFF" height="335.8672" style="stroke:#181818;stroke-width:1.0;" width="10" x="442.5" y="148.9219"/><rect fill="#FFFFFF" height="30.3516" style="stroke:#181818;stroke-width:1.0;" width="10" x="651.5" y="333.0313"/><rect fill="#FFFFFF" height="30.3516" style="stroke:#181818;stroke-width:1.0;" width="10" x="739.5" y="424.0859"/><rect fill="#FFFFFF" height="30.3516" style="stroke:#181818;stroke-width:1.0;" width="10" x="841.5" y="179.2734"/><rect fill="none" height="79.0547" style="stroke:#000000;stroke-width:1.5;" width="492.5" x="10" y="224.625"/><line style="stroke:#181818;stroke-width:0.5;stroke-dasharray:5.0,5.0;" x1="42" x2="42" y1="86.2188" y2="533.1406"/><line style="stroke:#181818;stroke-width:0.5;stroke-dasharray:5.0,5.0;" x1="172.5" x2="172.5" y1="86.2188" y2="533.1406"/><line style="stroke:#181818;stroke-width:0.5;stroke-dasharray:5.0,5.0;" x1="447.5" x2="447.5" y1="86.2188" y2="533.1406"/><line style="stroke:#181818;stroke-width:0.5;stroke-dasharray:5.0,5.0;" x1="541.5" x2="541.5" y1="86.2188" y2="533.1406"/><line style="stroke:#181818;stroke-width:0.5;stroke-dasharray:5.0,5.0;" x1="656.5" x2="656.5" y1="86.2188" y2="533.1406"/><line style="stroke:#181818;stroke-width:0.5;stroke-dasharray:5.0,5.0;" x1="744.5" x2="744.5" y1="86.2188" y2="533.1406"/><line style="stroke:#181818;stroke-width:0.5;stroke-dasharray:5.0,5.0;" x1="846.5" x2="846.5" y1="86.2188" y2="533.1406"/><line style="stroke:#181818;stroke-width:0.5;stroke-dasharray:5.0,5.0;" x1="962.5" x2="962.5" y1="86.2188" y2="533.1406"/><text fill="#000000" font-family="sans-serif" font-size="14" lengthAdjust="spacing" textLength="39" x="20" y="83.1426">Admin</text><ellipse cx="42.5" cy="17.1094" fill="#E2E2F0" rx="8" ry="8" style="stroke:#181818;stroke-width:0.5;"/><path d="M42.5,25.1094 L42.5,52.1094 M29.5,33.1094 L55.5,33.1094 M42.5,52.1094 L29.5,67.1094 M42.5,52.1094 L55.5,67.1094 " fill="none" style="stroke:#181818;stroke-width:0.5;"/><text fill="#000000" font-family="sans-serif" font-size="14" lengthAdjust="spacing" textLength="39" x="20" y="546.6738">Admin</text><ellipse cx="42.5" cy="558.25" fill="#E2E2F0" rx="8" ry="8" style="stroke:#181818;stroke-width:0.5;"/><path d="M42.5,566.25 L42.5,593.25 M29.5,574.25 L55.5,574.25 M42.5,593.25 L29.5,608.25 M42.5,593.25 L55.5,608.25 " fill="none" style="stroke:#181818;stroke-width:0.5;"/><rect fill="#E2E2F0" height="49.2188" rx="2.5" ry="2.5" style="stroke:#181818;stroke-width:0.5;" width="112" x="116.5" y="36"/><text fill="#000000" font-family="sans-serif" font-size="14" font-style="italic" lengthAdjust="spacing" textLength="86" x="129.5" y="57.5332">&#171;Contreoller&#187;</text><text fill="#000000" font-family="sans-serif" font-size="14" lengthAdjust="spacing" textLength="98" x="123.5" y="75.1426">StaffsController</text><rect fill="#E2E2F0" height="49.2188" rx="2.5" ry="2.5" style="stroke:#181818;stroke-width:0.5;" width="112" x="116.5" y="532.1406"/><text fill="#000000" font-family="sans-serif" font-size="14" font-style="italic" lengthAdjust="spacing" textLength="86" x="129.5" y="553.6738">&#171;Contreoller&#187;</text><text fill="#000000" font-family="sans-serif" font-size="14" lengthAdjust="spacing" textLength="98" x="123.5" y="571.2832">StaffsController</text><rect fill="#E2E2F0" height="49.2188" rx="2.5" ry="2.5" style="stroke:#181818;stroke-width:0.5;" width="90" x="402.5" y="36"/><text fill="#000000" font-family="sans-serif" font-size="14" font-style="italic" lengthAdjust="spacing" textLength="62" x="416.5" y="57.5332">&#171;Service&#187;</text><text fill="#000000" font-family="sans-serif" font-size="14" lengthAdjust="spacing" textLength="76" x="409.5" y="75.1426">StaffService</text><rect fill="#E2E2F0" height="49.2188" rx="2.5" ry="2.5" style="stroke:#181818;stroke-width:0.5;" width="90" x="402.5" y="532.1406"/><text fill="#000000" font-family="sans-serif" font-size="14" font-style="italic" lengthAdjust="spacing" textLength="62" x="416.5" y="553.6738">&#171;Service&#187;</text><text fill="#000000" font-family="sans-serif" font-size="14" lengthAdjust="spacing" textLength="76" x="409.5" y="571.2832">StaffService</text><rect fill="#E2E2F0" height="49.2188" rx="2.5" ry="2.5" style="stroke:#181818;stroke-width:0.5;" width="78" x="502.5" y="36"/><text fill="#000000" font-family="sans-serif" font-size="14" font-style="italic" lengthAdjust="spacing" textLength="64" x="509.5" y="57.5332">&#171;Domain&#187;</text><text fill="#000000" font-family="sans-serif" font-size="14" lengthAdjust="spacing" textLength="29" x="527" y="75.1426">User</text><rect fill="#E2E2F0" height="49.2188" rx="2.5" ry="2.5" style="stroke:#181818;stroke-width:0.5;" width="78" x="502.5" y="532.1406"/><text fill="#000000" font-family="sans-serif" font-size="14" font-style="italic" lengthAdjust="spacing" textLength="64" x="509.5" y="553.6738">&#171;Domain&#187;</text><text fill="#000000" font-family="sans-serif" font-size="14" lengthAdjust="spacing" textLength="29" x="527" y="571.2832">User</text><rect fill="#E2E2F0" height="49.2188" rx="2.5" ry="2.5" style="stroke:#181818;stroke-width:0.5;" width="78" x="617.5" y="36"/><text fill="#000000" font-family="sans-serif" font-size="14" font-style="italic" lengthAdjust="spacing" textLength="64" x="624.5" y="57.5332">&#171;Domain&#187;</text><text fill="#000000" font-family="sans-serif" font-size="14" lengthAdjust="spacing" textLength="29" x="642" y="75.1426">Staff</text><rect fill="#E2E2F0" height="49.2188" rx="2.5" ry="2.5" style="stroke:#181818;stroke-width:0.5;" width="78" x="617.5" y="532.1406"/><text fill="#000000" font-family="sans-serif" font-size="14" font-style="italic" lengthAdjust="spacing" textLength="64" x="624.5" y="553.6738">&#171;Domain&#187;</text><text fill="#000000" font-family="sans-serif" font-size="14" lengthAdjust="spacing" textLength="29" x="642" y="571.2832">Staff</text><rect fill="#E2E2F0" height="49.2188" rx="2.5" ry="2.5" style="stroke:#181818;stroke-width:0.5;" width="78" x="705.5" y="36"/><text fill="#000000" font-family="sans-serif" font-size="14" font-style="italic" lengthAdjust="spacing" textLength="64" x="712.5" y="57.5332">&#171;Domain&#187;</text><text fill="#000000" font-family="sans-serif" font-size="14" lengthAdjust="spacing" textLength="51" x="719" y="75.1426">StaffDto</text><rect fill="#E2E2F0" height="49.2188" rx="2.5" ry="2.5" style="stroke:#181818;stroke-width:0.5;" width="78" x="705.5" y="532.1406"/><text fill="#000000" font-family="sans-serif" font-size="14" font-style="italic" lengthAdjust="spacing" textLength="64" x="712.5" y="553.6738">&#171;Domain&#187;</text><text fill="#000000" font-family="sans-serif" font-size="14" lengthAdjust="spacing" textLength="51" x="719" y="571.2832">StaffDto</text><text fill="#000000" font-family="sans-serif" font-size="14" font-style="italic" lengthAdjust="spacing" textLength="64" x="811.5" y="65.5332">&#171;Domain&#187;</text><text fill="#000000" font-family="sans-serif" font-size="14" lengthAdjust="spacing" textLength="100" x="793.5" y="83.1426">IUserRepository</text><path d="M828.5,15 C828.5,5 846.5,5 846.5,5 C846.5,5 864.5,5 864.5,15 L864.5,41 C864.5,51 846.5,51 846.5,51 C846.5,51 828.5,51 828.5,41 L828.5,15 " fill="#E2E2F0" style="stroke:#181818;stroke-width:1.5;"/><path d="M828.5,15 C828.5,25 846.5,25 846.5,25 C846.5,25 864.5,25 864.5,15 " fill="none" style="stroke:#181818;stroke-width:1.5;"/><text fill="#000000" font-family="sans-serif" font-size="14" font-style="italic" lengthAdjust="spacing" textLength="64" x="811.5" y="546.6738">&#171;Domain&#187;</text><text fill="#000000" font-family="sans-serif" font-size="14" lengthAdjust="spacing" textLength="100" x="793.5" y="564.2832">IUserRepository</text><path d="M828.5,577.3594 C828.5,567.3594 846.5,567.3594 846.5,567.3594 C846.5,567.3594 864.5,567.3594 864.5,577.3594 L864.5,603.3594 C864.5,613.3594 846.5,613.3594 846.5,613.3594 C846.5,613.3594 828.5,613.3594 828.5,603.3594 L828.5,577.3594 " fill="#E2E2F0" style="stroke:#181818;stroke-width:1.5;"/><path d="M828.5,577.3594 C828.5,587.3594 846.5,587.3594 846.5,587.3594 C846.5,587.3594 864.5,587.3594 864.5,577.3594 " fill="none" style="stroke:#181818;stroke-width:1.5;"/><text fill="#000000" font-family="sans-serif" font-size="14" font-style="italic" lengthAdjust="spacing" textLength="64" x="927.5" y="65.5332">&#171;Domain&#187;</text><text fill="#000000" font-family="sans-serif" font-size="14" lengthAdjust="spacing" textLength="100" x="909.5" y="83.1426">IStaffRepository</text><path d="M944.5,15 C944.5,5 962.5,5 962.5,5 C962.5,5 980.5,5 980.5,15 L980.5,41 C980.5,51 962.5,51 962.5,51 C962.5,51 944.5,51 944.5,41 L944.5,15 " fill="#E2E2F0" style="stroke:#181818;stroke-width:1.5;"/><path d="M944.5,15 C944.5,25 962.5,25 962.5,25 C962.5,25 980.5,25 980.5,15 " fill="none" style="stroke:#181818;stroke-width:1.5;"/><text fill="#000000" font-family="sans-serif" font-size="14" font-style="italic" lengthAdjust="spacing" textLength="64" x="927.5" y="546.6738">&#171;Domain&#187;</text><text fill="#000000" font-family="sans-serif" font-size="14" lengthAdjust="spacing" textLength="100" x="909.5" y="564.2832">IStaffRepository</text><path d="M944.5,577.3594 C944.5,567.3594 962.5,567.3594 962.5,567.3594 C962.5,567.3594 980.5,567.3594 980.5,577.3594 L980.5,603.3594 C980.5,613.3594 962.5,613.3594 962.5,613.3594 C962.5,613.3594 944.5,613.3594 944.5,603.3594 L944.5,577.3594 " fill="#E2E2F0" style="stroke:#181818;stroke-width:1.5;"/><path d="M944.5,577.3594 C944.5,587.3594 962.5,587.3594 962.5,587.3594 C962.5,587.3594 980.5,587.3594 980.5,577.3594 " fill="none" style="stroke:#181818;stroke-width:1.5;"/><rect fill="#FFFFFF" height="396.5703" style="stroke:#181818;stroke-width:1.0;" width="10" x="167.5" y="118.5703"/><rect fill="#FFFFFF" height="335.8672" style="stroke:#181818;stroke-width:1.0;" width="10" x="442.5" y="148.9219"/><rect fill="#FFFFFF" height="30.3516" style="stroke:#181818;stroke-width:1.0;" width="10" x="651.5" y="333.0313"/><rect fill="#FFFFFF" height="30.3516" style="stroke:#181818;stroke-width:1.0;" width="10" x="739.5" y="424.0859"/><rect fill="#FFFFFF" height="30.3516" style="stroke:#181818;stroke-width:1.0;" width="10" x="841.5" y="179.2734"/><polygon fill="#181818" points="155.5,114.5703,165.5,118.5703,155.5,122.5703,159.5,118.5703" style="stroke:#181818;stroke-width:1.0;"/><line style="stroke:#181818;stroke-width:1.0;" x1="42.5" x2="161.5" y1="118.5703" y2="118.5703"/><text fill="#000000" font-family="sans-serif" font-size="13" font-weight="bold" lengthAdjust="spacing" textLength="7" x="49.5" y="113.7139">1</text><text fill="#000000" font-family="sans-serif" font-size="13" lengthAdjust="spacing" textLength="95" x="60.5" y="113.7139">POST /api/staffs</text><polygon fill="#181818" points="430.5,144.9219,440.5,148.9219,430.5,152.9219,434.5,148.9219" style="stroke:#181818;stroke-width:1.0;"/><line style="stroke:#181818;stroke-width:1.0;" x1="177.5" x2="436.5" y1="148.9219" y2="148.9219"/><text fill="#000000" font-family="sans-serif" font-size="13" font-weight="bold" lengthAdjust="spacing" textLength="7" x="184.5" y="144.0654">2</text><text fill="#000000" font-family="sans-serif" font-size="13" lengthAdjust="spacing" textLength="235" x="195.5" y="144.0654">createStaffProfileAsync(creatingStaffDto)</text><polygon fill="#181818" points="829.5,175.2734,839.5,179.2734,829.5,183.2734,833.5,179.2734" style="stroke:#181818;stroke-width:1.0;"/><line style="stroke:#181818;stroke-width:1.0;" x1="452.5" x2="835.5" y1="179.2734" y2="179.2734"/><text fill="#000000" font-family="sans-serif" font-size="13" font-weight="bold" lengthAdjust="spacing" textLength="7" x="459.5" y="174.417">3</text><text fill="#000000" font-family="sans-serif" font-size="13" lengthAdjust="spacing" textLength="242" x="470.5" y="174.417">GetByEmailAsync(creatingStaffDto.email)</text><polygon fill="#181818" points="463.5,205.625,453.5,209.625,463.5,213.625,459.5,209.625" style="stroke:#181818;stroke-width:1.0;"/><line style="stroke:#181818;stroke-width:1.0;stroke-dasharray:2.0,2.0;" x1="457.5" x2="845.5" y1="209.625" y2="209.625"/><text fill="#000000" font-family="sans-serif" font-size="13" font-weight="bold" lengthAdjust="spacing" textLength="7" x="469.5" y="204.7686">4</text><text fill="#000000" font-family="sans-serif" font-size="13" lengthAdjust="spacing" textLength="25" x="480.5" y="204.7686">user</text><path d="M10,224.625 L71,224.625 L71,232.9766 L61,242.9766 L10,242.9766 L10,224.625 " fill="#EEEEEE" style="stroke:#000000;stroke-width:1.5;"/><rect fill="none" height="79.0547" style="stroke:#000000;stroke-width:1.5;" width="492.5" x="10" y="224.625"/><text fill="#000000" font-family="sans-serif" font-size="13" font-weight="bold" lengthAdjust="spacing" textLength="16" x="25" y="239.1201">alt</text><text fill="#000000" font-family="sans-serif" font-size="11" font-weight="bold" lengthAdjust="spacing" textLength="72" x="86" y="238.0439">[user == null]</text><polygon fill="#181818" points="188.5,261.3281,178.5,265.3281,188.5,269.3281,184.5,265.3281" style="stroke:#181818;stroke-width:1.0;"/><line style="stroke:#181818;stroke-width:1.0;stroke-dasharray:2.0,2.0;" x1="182.5" x2="441.5" y1="265.3281" y2="265.3281"/><text fill="#000000" font-family="sans-serif" font-size="13" font-weight="bold" lengthAdjust="spacing" textLength="7" x="194.5" y="260.4717">5</text><text fill="#000000" font-family="sans-serif" font-size="13" lengthAdjust="spacing" textLength="114" x="205.5" y="260.4717">NotFoundException</text><polygon fill="#181818" points="53.5,291.6797,43.5,295.6797,53.5,299.6797,49.5,295.6797" style="stroke:#181818;stroke-width:1.0;"/><line style="stroke:#181818;stroke-width:1.0;stroke-dasharray:2.0,2.0;" x1="47.5" x2="166.5" y1="295.6797" y2="295.6797"/><text fill="#000000" font-family="sans-serif" font-size="13" font-weight="bold" lengthAdjust="spacing" textLength="7" x="59.5" y="290.8232">6</text><text fill="#000000" font-family="sans-serif" font-size="13" lengthAdjust="spacing" textLength="85" x="70.5" y="290.8232">404 Not Found</text><polygon fill="#181818" points="639.5,329.0313,649.5,333.0313,639.5,337.0313,643.5,333.0313" style="stroke:#181818;stroke-width:1.0;"/><line style="stroke:#181818;stroke-width:1.0;" x1="452.5" x2="645.5" y1="333.0313" y2="333.0313"/><text fill="#000000" font-family="sans-serif" font-size="13" font-weight="bold" lengthAdjust="spacing" textLength="7" x="459.5" y="328.1748">7</text><text fill="#000000" font-family="sans-serif" font-size="13" lengthAdjust="spacing" textLength="169" x="470.5" y="328.1748">create(creatingStaffDto, user)</text><polygon fill="#181818" points="463.5,359.3828,453.5,363.3828,463.5,367.3828,459.5,363.3828" style="stroke:#181818;stroke-width:1.0;"/><line style="stroke:#181818;stroke-width:1.0;stroke-dasharray:2.0,2.0;" x1="457.5" x2="655.5" y1="363.3828" y2="363.3828"/><text fill="#000000" font-family="sans-serif" font-size="13" font-weight="bold" lengthAdjust="spacing" textLength="7" x="469.5" y="358.5264">8</text><text fill="#000000" font-family="sans-serif" font-size="13" lengthAdjust="spacing" textLength="24" x="480.5" y="358.5264">staff</text><polygon fill="#181818" points="950.5,389.7344,960.5,393.7344,950.5,397.7344,954.5,393.7344" style="stroke:#181818;stroke-width:1.0;"/><line style="stroke:#181818;stroke-width:1.0;" x1="452.5" x2="956.5" y1="393.7344" y2="393.7344"/><text fill="#000000" font-family="sans-serif" font-size="13" font-weight="bold" lengthAdjust="spacing" textLength="7" x="459.5" y="388.8779">9</text><text fill="#000000" font-family="sans-serif" font-size="13" lengthAdjust="spacing" textLength="90" x="470.5" y="388.8779">addAsync(staff)</text><polygon fill="#181818" points="727.5,420.0859,737.5,424.0859,727.5,428.0859,731.5,424.0859" style="stroke:#181818;stroke-width:1.0;"/><line style="stroke:#181818;stroke-width:1.0;" x1="452.5" x2="733.5" y1="424.0859" y2="424.0859"/><text fill="#000000" font-family="sans-serif" font-size="13" font-weight="bold" lengthAdjust="spacing" textLength="14" x="459.5" y="419.2295">10</text><text fill="#000000" font-family="sans-serif" font-size="13" lengthAdjust="spacing" textLength="68" x="477.5" y="419.2295">create(staff)</text><polygon fill="#181818" points="463.5,450.4375,453.5,454.4375,463.5,458.4375,459.5,454.4375" style="stroke:#181818;stroke-width:1.0;"/><line style="stroke:#181818;stroke-width:1.0;stroke-dasharray:2.0,2.0;" x1="457.5" x2="743.5" y1="454.4375" y2="454.4375"/><text fill="#000000" font-family="sans-serif" font-size="13" font-weight="bold" lengthAdjust="spacing" textLength="14" x="469.5" y="449.5811">11</text><text fill="#000000" font-family="sans-serif" font-size="13" lengthAdjust="spacing" textLength="44" x="487.5" y="449.5811">staffDto</text><polygon fill="#181818" points="188.5,480.7891,178.5,484.7891,188.5,488.7891,184.5,484.7891" style="stroke:#181818;stroke-width:1.0;"/><line style="stroke:#181818;stroke-width:1.0;stroke-dasharray:2.0,2.0;" x1="182.5" x2="446.5" y1="484.7891" y2="484.7891"/><text fill="#000000" font-family="sans-serif" font-size="13" font-weight="bold" lengthAdjust="spacing" textLength="14" x="194.5" y="479.9326">12</text><text fill="#000000" font-family="sans-serif" font-size="13" lengthAdjust="spacing" textLength="44" x="212.5" y="479.9326">staffDto</text><polygon fill="#181818" points="53.5,511.1406,43.5,515.1406,53.5,519.1406,49.5,515.1406" style="stroke:#181818;stroke-width:1.0;"/><line style="stroke:#181818;stroke-width:1.0;stroke-dasharray:2.0,2.0;" x1="47.5" x2="171.5" y1="515.1406" y2="515.1406"/><text fill="#000000" font-family="sans-serif" font-size="13" font-weight="bold" lengthAdjust="spacing" textLength="14" x="59.5" y="510.2842">13</text><text fill="#000000" font-family="sans-serif" font-size="13" lengthAdjust="spacing" textLength="70" x="77.5" y="510.2842">201 Created</text><!--SRC=[VLFHRi8W57tlLzpqQIPpkiMdHasSkcKlcvdR1s31XQH20zJCln_SrWgq7KyNEEVSUyy5KXafgjE1gIGXkP4AqXKzSP42qM2Zf2JAy9oNH1X8zuOSZtejXL6oA9X2r6qBypbk6EwMonxodgappnaIczYocYXcVEicXGiiR2DFX8jUtLhGHV_ZDaRUe7RZeoanv40qW_JD9VnafTJSMd9fQxWT3V1GDY96PpupIQp5C5xw7cQm-zX_mOIKVABHRpSOVYQ6UR04xF9OLkDgPmQvOXQDUNTA7dd1LleYyZiyv-Bdslm8LLhrHW0FtReAMkse-GnUcNc-R6qRHR_q0tDterQhJH8gjVTkHKd6GK-LRffsYx8XFL8OXC9Y0Q8gYcupiTllqhp8Ij3jRyvAmwNeM6iPRamPpAOp1mV49qnGiEdwxAeVudKG7NFkiSGUSn0GU58hXLRe0ELv4TBZUeBv4KhhmQ7OQ93alaZRHuGDyrfajt97xodUnyRr-tU3GmjKV0Nl2VUEy6dw26liXYOUp_jOVm00]--></g></svg>