<?xml version="1.0" encoding="us-ascii" standalone="no"?><svg xmlns="http://www.w3.org/2000/svg" xmlns:xlink="http://www.w3.org/1999/xlink" contentStyleType="text/css" height="1016px" preserveAspectRatio="none" style="width:1180px;height:1016px;background:#FFFFFF;" version="1.1" viewBox="0 0 1180 1016" width="1180px" zoomAndPan="magnify"><defs/><g><rect fill="#FFFFFF" height="783.1406" style="stroke:#181818;stroke-width:1.0;" width="10" x="184.5" y="118.5703"/><rect fill="#FFFFFF" height="722.4375" style="stroke:#181818;stroke-width:1.0;" width="10" x="459.5" y="148.9219"/><rect fill="#FFFFFF" height="30.3516" style="stroke:#181818;stroke-width:1.0;" width="10" x="642.5" y="596.1953"/><rect fill="#FFFFFF" height="30.3516" style="stroke:#181818;stroke-width:1.0;" width="10" x="730.5" y="810.6563"/><rect fill="#FFFFFF" height="30.3516" style="stroke:#181818;stroke-width:1.0;" width="10" x="832.5" y="272.3281"/><rect fill="#FFFFFF" height="30.3516" style="stroke:#181818;stroke-width:1.0;" width="10" x="977" y="426.0859"/><rect fill="#FFFFFF" height="30.3516" style="stroke:#181818;stroke-width:1.0;" width="10" x="1121.5" y="749.9531"/><rect fill="none" height="79.0547" style="stroke:#000000;stroke-width:1.5;" width="509.5" x="10" y="163.9219"/><rect fill="none" height="79.0547" style="stroke:#000000;stroke-width:1.5;" width="509.5" x="10" y="317.6797"/><rect fill="none" height="79.0547" style="stroke:#000000;stroke-width:1.5;" width="509.5" x="10" y="471.4375"/><rect fill="none" height="79.0547" style="stroke:#000000;stroke-width:1.5;" width="509.5" x="10" y="641.5469"/><line style="stroke:#181818;stroke-width:0.5;stroke-dasharray:5.0,5.0;" x1="42" x2="42" y1="86.2188" y2="919.7109"/><line style="stroke:#181818;stroke-width:0.5;stroke-dasharray:5.0,5.0;" x1="189.5" x2="189.5" y1="86.2188" y2="919.7109"/><line style="stroke:#181818;stroke-width:0.5;stroke-dasharray:5.0,5.0;" x1="464.5" x2="464.5" y1="86.2188" y2="919.7109"/><line style="stroke:#181818;stroke-width:0.5;stroke-dasharray:5.0,5.0;" x1="558.5" x2="558.5" y1="86.2188" y2="919.7109"/><line style="stroke:#181818;stroke-width:0.5;stroke-dasharray:5.0,5.0;" x1="647.5" x2="647.5" y1="86.2188" y2="919.7109"/><line style="stroke:#181818;stroke-width:0.5;stroke-dasharray:5.0,5.0;" x1="735.5" x2="735.5" y1="86.2188" y2="919.7109"/><line style="stroke:#181818;stroke-width:0.5;stroke-dasharray:5.0,5.0;" x1="837.5" x2="837.5" y1="86.2188" y2="919.7109"/><line style="stroke:#181818;stroke-width:0.5;stroke-dasharray:5.0,5.0;" x1="981.5" x2="981.5" y1="86.2188" y2="919.7109"/><line style="stroke:#181818;stroke-width:0.5;stroke-dasharray:5.0,5.0;" x1="1126.5" x2="1126.5" y1="86.2188" y2="919.7109"/><text fill="#000000" font-family="sans-serif" font-size="14" lengthAdjust="spacing" textLength="39" x="20" y="83.1426">Admin</text><ellipse cx="42.5" cy="17.1094" fill="#E2E2F0" rx="8" ry="8" style="stroke:#181818;stroke-width:0.5;"/><path d="M42.5,25.1094 L42.5,52.1094 M29.5,33.1094 L55.5,33.1094 M42.5,52.1094 L29.5,67.1094 M42.5,52.1094 L55.5,67.1094 " fill="none" style="stroke:#181818;stroke-width:0.5;"/><text fill="#000000" font-family="sans-serif" font-size="14" lengthAdjust="spacing" textLength="39" x="20" y="933.2441">Admin</text><ellipse cx="42.5" cy="944.8203" fill="#E2E2F0" rx="8" ry="8" style="stroke:#181818;stroke-width:0.5;"/><path d="M42.5,952.8203 L42.5,979.8203 M29.5,960.8203 L55.5,960.8203 M42.5,979.8203 L29.5,994.8203 M42.5,979.8203 L55.5,994.8203 " fill="none" style="stroke:#181818;stroke-width:0.5;"/><rect fill="#E2E2F0" height="49.2188" rx="2.5" ry="2.5" style="stroke:#181818;stroke-width:0.5;" width="112" x="133.5" y="36"/><text fill="#000000" font-family="sans-serif" font-size="14" font-style="italic" lengthAdjust="spacing" textLength="78" x="150.5" y="57.5332">&#171;Controller&#187;</text><text fill="#000000" font-family="sans-serif" font-size="14" lengthAdjust="spacing" textLength="98" x="140.5" y="75.1426">StaffsController</text><rect fill="#E2E2F0" height="49.2188" rx="2.5" ry="2.5" style="stroke:#181818;stroke-width:0.5;" width="112" x="133.5" y="918.7109"/><text fill="#000000" font-family="sans-serif" font-size="14" font-style="italic" lengthAdjust="spacing" textLength="78" x="150.5" y="940.2441">&#171;Controller&#187;</text><text fill="#000000" font-family="sans-serif" font-size="14" lengthAdjust="spacing" textLength="98" x="140.5" y="957.8535">StaffsController</text><rect fill="#E2E2F0" height="49.2188" rx="2.5" ry="2.5" style="stroke:#181818;stroke-width:0.5;" width="90" x="419.5" y="36"/><text fill="#000000" font-family="sans-serif" font-size="14" font-style="italic" lengthAdjust="spacing" textLength="62" x="433.5" y="57.5332">&#171;Service&#187;</text><text fill="#000000" font-family="sans-serif" font-size="14" lengthAdjust="spacing" textLength="76" x="426.5" y="75.1426">StaffService</text><rect fill="#E2E2F0" height="49.2188" rx="2.5" ry="2.5" style="stroke:#181818;stroke-width:0.5;" width="90" x="419.5" y="918.7109"/><text fill="#000000" font-family="sans-serif" font-size="14" font-style="italic" lengthAdjust="spacing" textLength="62" x="433.5" y="940.2441">&#171;Service&#187;</text><text fill="#000000" font-family="sans-serif" font-size="14" lengthAdjust="spacing" textLength="76" x="426.5" y="957.8535">StaffService</text><rect fill="#E2E2F0" height="49.2188" rx="2.5" ry="2.5" style="stroke:#181818;stroke-width:0.5;" width="78" x="519.5" y="36"/><text fill="#000000" font-family="sans-serif" font-size="14" font-style="italic" lengthAdjust="spacing" textLength="64" x="526.5" y="57.5332">&#171;Domain&#187;</text><text fill="#000000" font-family="sans-serif" font-size="14" lengthAdjust="spacing" textLength="29" x="544" y="75.1426">User</text><rect fill="#E2E2F0" height="49.2188" rx="2.5" ry="2.5" style="stroke:#181818;stroke-width:0.5;" width="78" x="519.5" y="918.7109"/><text fill="#000000" font-family="sans-serif" font-size="14" font-style="italic" lengthAdjust="spacing" textLength="64" x="526.5" y="940.2441">&#171;Domain&#187;</text><text fill="#000000" font-family="sans-serif" font-size="14" lengthAdjust="spacing" textLength="29" x="544" y="957.8535">User</text><rect fill="#E2E2F0" height="49.2188" rx="2.5" ry="2.5" style="stroke:#181818;stroke-width:0.5;" width="78" x="608.5" y="36"/><text fill="#000000" font-family="sans-serif" font-size="14" font-style="italic" lengthAdjust="spacing" textLength="64" x="615.5" y="57.5332">&#171;Domain&#187;</text><text fill="#000000" font-family="sans-serif" font-size="14" lengthAdjust="spacing" textLength="29" x="633" y="75.1426">Staff</text><rect fill="#E2E2F0" height="49.2188" rx="2.5" ry="2.5" style="stroke:#181818;stroke-width:0.5;" width="78" x="608.5" y="918.7109"/><text fill="#000000" font-family="sans-serif" font-size="14" font-style="italic" lengthAdjust="spacing" textLength="64" x="615.5" y="940.2441">&#171;Domain&#187;</text><text fill="#000000" font-family="sans-serif" font-size="14" lengthAdjust="spacing" textLength="29" x="633" y="957.8535">Staff</text><rect fill="#E2E2F0" height="49.2188" rx="2.5" ry="2.5" style="stroke:#181818;stroke-width:0.5;" width="78" x="696.5" y="36"/><text fill="#000000" font-family="sans-serif" font-size="14" font-style="italic" lengthAdjust="spacing" textLength="64" x="703.5" y="57.5332">&#171;Domain&#187;</text><text fill="#000000" font-family="sans-serif" font-size="14" lengthAdjust="spacing" textLength="51" x="710" y="75.1426">StaffDto</text><rect fill="#E2E2F0" height="49.2188" rx="2.5" ry="2.5" style="stroke:#181818;stroke-width:0.5;" width="78" x="696.5" y="918.7109"/><text fill="#000000" font-family="sans-serif" font-size="14" font-style="italic" lengthAdjust="spacing" textLength="64" x="703.5" y="940.2441">&#171;Domain&#187;</text><text fill="#000000" font-family="sans-serif" font-size="14" lengthAdjust="spacing" textLength="51" x="710" y="957.8535">StaffDto</text><text fill="#000000" font-family="sans-serif" font-size="14" font-style="italic" lengthAdjust="spacing" textLength="64" x="802.5" y="65.5332">&#171;Domain&#187;</text><text fill="#000000" font-family="sans-serif" font-size="14" lengthAdjust="spacing" textLength="100" x="784.5" y="83.1426">IUserRepository</text><path d="M819.5,15 C819.5,5 837.5,5 837.5,5 C837.5,5 855.5,5 855.5,15 L855.5,41 C855.5,51 837.5,51 837.5,51 C837.5,51 819.5,51 819.5,41 L819.5,15 " fill="#E2E2F0" style="stroke:#181818;stroke-width:1.5;"/><path d="M819.5,15 C819.5,25 837.5,25 837.5,25 C837.5,25 855.5,25 855.5,15 " fill="none" style="stroke:#181818;stroke-width:1.5;"/><text fill="#000000" font-family="sans-serif" font-size="14" font-style="italic" lengthAdjust="spacing" textLength="64" x="802.5" y="933.2441">&#171;Domain&#187;</text><text fill="#000000" font-family="sans-serif" font-size="14" lengthAdjust="spacing" textLength="100" x="784.5" y="950.8535">IUserRepository</text><path d="M819.5,963.9297 C819.5,953.9297 837.5,953.9297 837.5,953.9297 C837.5,953.9297 855.5,953.9297 855.5,963.9297 L855.5,989.9297 C855.5,999.9297 837.5,999.9297 837.5,999.9297 C837.5,999.9297 819.5,999.9297 819.5,989.9297 L819.5,963.9297 " fill="#E2E2F0" style="stroke:#181818;stroke-width:1.5;"/><path d="M819.5,963.9297 C819.5,973.9297 837.5,973.9297 837.5,973.9297 C837.5,973.9297 855.5,973.9297 855.5,963.9297 " fill="none" style="stroke:#181818;stroke-width:1.5;"/><text fill="#000000" font-family="sans-serif" font-size="14" font-style="italic" lengthAdjust="spacing" textLength="64" x="947" y="65.5332">&#171;Domain&#187;</text><text fill="#000000" font-family="sans-serif" font-size="14" lengthAdjust="spacing" textLength="157" x="900.5" y="83.1426">ISpecializationRepository</text><path d="M964,15 C964,5 982,5 982,5 C982,5 1000,5 1000,15 L1000,41 C1000,51 982,51 982,51 C982,51 964,51 964,41 L964,15 " fill="#E2E2F0" style="stroke:#181818;stroke-width:1.5;"/><path d="M964,15 C964,25 982,25 982,25 C982,25 1000,25 1000,15 " fill="none" style="stroke:#181818;stroke-width:1.5;"/><text fill="#000000" font-family="sans-serif" font-size="14" font-style="italic" lengthAdjust="spacing" textLength="64" x="947" y="933.2441">&#171;Domain&#187;</text><text fill="#000000" font-family="sans-serif" font-size="14" lengthAdjust="spacing" textLength="157" x="900.5" y="950.8535">ISpecializationRepository</text><path d="M964,963.9297 C964,953.9297 982,953.9297 982,953.9297 C982,953.9297 1000,953.9297 1000,963.9297 L1000,989.9297 C1000,999.9297 982,999.9297 982,999.9297 C982,999.9297 964,999.9297 964,989.9297 L964,963.9297 " fill="#E2E2F0" style="stroke:#181818;stroke-width:1.5;"/><path d="M964,963.9297 C964,973.9297 982,973.9297 982,973.9297 C982,973.9297 1000,973.9297 1000,963.9297 " fill="none" style="stroke:#181818;stroke-width:1.5;"/><text fill="#000000" font-family="sans-serif" font-size="14" font-style="italic" lengthAdjust="spacing" textLength="64" x="1091.5" y="65.5332">&#171;Domain&#187;</text><text fill="#000000" font-family="sans-serif" font-size="14" lengthAdjust="spacing" textLength="100" x="1073.5" y="83.1426">IStaffRepository</text><path d="M1108.5,15 C1108.5,5 1126.5,5 1126.5,5 C1126.5,5 1144.5,5 1144.5,15 L1144.5,41 C1144.5,51 1126.5,51 1126.5,51 C1126.5,51 1108.5,51 1108.5,41 L1108.5,15 " fill="#E2E2F0" style="stroke:#181818;stroke-width:1.5;"/><path d="M1108.5,15 C1108.5,25 1126.5,25 1126.5,25 C1126.5,25 1144.5,25 1144.5,15 " fill="none" style="stroke:#181818;stroke-width:1.5;"/><text fill="#000000" font-family="sans-serif" font-size="14" font-style="italic" lengthAdjust="spacing" textLength="64" x="1091.5" y="933.2441">&#171;Domain&#187;</text><text fill="#000000" font-family="sans-serif" font-size="14" lengthAdjust="spacing" textLength="100" x="1073.5" y="950.8535">IStaffRepository</text><path d="M1108.5,963.9297 C1108.5,953.9297 1126.5,953.9297 1126.5,953.9297 C1126.5,953.9297 1144.5,953.9297 1144.5,963.9297 L1144.5,989.9297 C1144.5,999.9297 1126.5,999.9297 1126.5,999.9297 C1126.5,999.9297 1108.5,999.9297 1108.5,989.9297 L1108.5,963.9297 " fill="#E2E2F0" style="stroke:#181818;stroke-width:1.5;"/><path d="M1108.5,963.9297 C1108.5,973.9297 1126.5,973.9297 1126.5,973.9297 C1126.5,973.9297 1144.5,973.9297 1144.5,963.9297 " fill="none" style="stroke:#181818;stroke-width:1.5;"/><rect fill="#FFFFFF" height="783.1406" style="stroke:#181818;stroke-width:1.0;" width="10" x="184.5" y="118.5703"/><rect fill="#FFFFFF" height="722.4375" style="stroke:#181818;stroke-width:1.0;" width="10" x="459.5" y="148.9219"/><rect fill="#FFFFFF" height="30.3516" style="stroke:#181818;stroke-width:1.0;" width="10" x="642.5" y="596.1953"/><rect fill="#FFFFFF" height="30.3516" style="stroke:#181818;stroke-width:1.0;" width="10" x="730.5" y="810.6563"/><rect fill="#FFFFFF" height="30.3516" style="stroke:#181818;stroke-width:1.0;" width="10" x="832.5" y="272.3281"/><rect fill="#FFFFFF" height="30.3516" style="stroke:#181818;stroke-width:1.0;" width="10" x="977" y="426.0859"/><rect fill="#FFFFFF" height="30.3516" style="stroke:#181818;stroke-width:1.0;" width="10" x="1121.5" y="749.9531"/><polygon fill="#181818" points="172.5,114.5703,182.5,118.5703,172.5,122.5703,176.5,118.5703" style="stroke:#181818;stroke-width:1.0;"/><line style="stroke:#181818;stroke-width:1.0;" x1="42.5" x2="178.5" y1="118.5703" y2="118.5703"/><text fill="#000000" font-family="sans-serif" font-size="13" font-weight="bold" lengthAdjust="spacing" textLength="7" x="49.5" y="113.7139">1</text><text fill="#000000" font-family="sans-serif" font-size="13" lengthAdjust="spacing" textLength="95" x="60.5" y="113.7139">POST /api/staffs</text><polygon fill="#181818" points="447.5,144.9219,457.5,148.9219,447.5,152.9219,451.5,148.9219" style="stroke:#181818;stroke-width:1.0;"/><line style="stroke:#181818;stroke-width:1.0;" x1="194.5" x2="453.5" y1="148.9219" y2="148.9219"/><text fill="#000000" font-family="sans-serif" font-size="13" font-weight="bold" lengthAdjust="spacing" textLength="7" x="201.5" y="144.0654">2</text><text fill="#000000" font-family="sans-serif" font-size="13" lengthAdjust="spacing" textLength="235" x="212.5" y="144.0654">createStaffProfileAsync(creatingStaffDto)</text><path d="M10,163.9219 L71,163.9219 L71,172.2734 L61,182.2734 L10,182.2734 L10,163.9219 " fill="#EEEEEE" style="stroke:#000000;stroke-width:1.5;"/><rect fill="none" height="79.0547" style="stroke:#000000;stroke-width:1.5;" width="509.5" x="10" y="163.9219"/><text fill="#000000" font-family="sans-serif" font-size="13" font-weight="bold" lengthAdjust="spacing" textLength="16" x="25" y="178.417">alt</text><text fill="#000000" font-family="sans-serif" font-size="11" font-weight="bold" lengthAdjust="spacing" textLength="113" x="86" y="177.3408">[dto is missing data]</text><polygon fill="#181818" points="205.5,200.625,195.5,204.625,205.5,208.625,201.5,204.625" style="stroke:#181818;stroke-width:1.0;"/><line style="stroke:#181818;stroke-width:1.0;stroke-dasharray:2.0,2.0;" x1="199.5" x2="458.5" y1="204.625" y2="204.625"/><text fill="#000000" font-family="sans-serif" font-size="13" font-weight="bold" lengthAdjust="spacing" textLength="7" x="211.5" y="199.7686">3</text><text fill="#000000" font-family="sans-serif" font-size="13" lengthAdjust="spacing" textLength="136" x="222.5" y="199.7686">ArgumentNullException</text><polygon fill="#181818" points="53.5,230.9766,43.5,234.9766,53.5,238.9766,49.5,234.9766" style="stroke:#181818;stroke-width:1.0;"/><line style="stroke:#181818;stroke-width:1.0;stroke-dasharray:2.0,2.0;" x1="47.5" x2="183.5" y1="234.9766" y2="234.9766"/><text fill="#000000" font-family="sans-serif" font-size="13" font-weight="bold" lengthAdjust="spacing" textLength="7" x="59.5" y="230.1201">4</text><text fill="#000000" font-family="sans-serif" font-size="13" lengthAdjust="spacing" textLength="100" x="70.5" y="230.1201">400 Bad Request</text><polygon fill="#181818" points="820.5,268.3281,830.5,272.3281,820.5,276.3281,824.5,272.3281" style="stroke:#181818;stroke-width:1.0;"/><line style="stroke:#181818;stroke-width:1.0;" x1="469.5" x2="826.5" y1="272.3281" y2="272.3281"/><text fill="#000000" font-family="sans-serif" font-size="13" font-weight="bold" lengthAdjust="spacing" textLength="7" x="476.5" y="267.4717">5</text><text fill="#000000" font-family="sans-serif" font-size="13" lengthAdjust="spacing" textLength="246" x="487.5" y="267.4717">GetByIdAsync(creatingStaffDto.userEmail)</text><polygon fill="#181818" points="480.5,298.6797,470.5,302.6797,480.5,306.6797,476.5,302.6797" style="stroke:#181818;stroke-width:1.0;"/><line style="stroke:#181818;stroke-width:1.0;stroke-dasharray:2.0,2.0;" x1="474.5" x2="836.5" y1="302.6797" y2="302.6797"/><text fill="#000000" font-family="sans-serif" font-size="13" font-weight="bold" lengthAdjust="spacing" textLength="7" x="486.5" y="297.8232">6</text><text fill="#000000" font-family="sans-serif" font-size="13" lengthAdjust="spacing" textLength="25" x="497.5" y="297.8232">user</text><path d="M10,317.6797 L71,317.6797 L71,326.0313 L61,336.0313 L10,336.0313 L10,317.6797 " fill="#EEEEEE" style="stroke:#000000;stroke-width:1.5;"/><rect fill="none" height="79.0547" style="stroke:#000000;stroke-width:1.5;" width="509.5" x="10" y="317.6797"/><text fill="#000000" font-family="sans-serif" font-size="13" font-weight="bold" lengthAdjust="spacing" textLength="16" x="25" y="332.1748">alt</text><text fill="#000000" font-family="sans-serif" font-size="11" font-weight="bold" lengthAdjust="spacing" textLength="72" x="86" y="331.0986">[user == null]</text><polygon fill="#181818" points="205.5,354.3828,195.5,358.3828,205.5,362.3828,201.5,358.3828" style="stroke:#181818;stroke-width:1.0;"/><line style="stroke:#181818;stroke-width:1.0;stroke-dasharray:2.0,2.0;" x1="199.5" x2="458.5" y1="358.3828" y2="358.3828"/><text fill="#000000" font-family="sans-serif" font-size="13" font-weight="bold" lengthAdjust="spacing" textLength="7" x="211.5" y="353.5264">7</text><text fill="#000000" font-family="sans-serif" font-size="13" lengthAdjust="spacing" textLength="138" x="222.5" y="353.5264">NullReferenceException</text><polygon fill="#181818" points="53.5,384.7344,43.5,388.7344,53.5,392.7344,49.5,388.7344" style="stroke:#181818;stroke-width:1.0;"/><line style="stroke:#181818;stroke-width:1.0;stroke-dasharray:2.0,2.0;" x1="47.5" x2="183.5" y1="388.7344" y2="388.7344"/><text fill="#000000" font-family="sans-serif" font-size="13" font-weight="bold" lengthAdjust="spacing" textLength="7" x="59.5" y="383.8779">8</text><text fill="#000000" font-family="sans-serif" font-size="13" lengthAdjust="spacing" textLength="85" x="70.5" y="383.8779">404 Not Found</text><polygon fill="#181818" points="965,422.0859,975,426.0859,965,430.0859,969,426.0859" style="stroke:#181818;stroke-width:1.0;"/><line style="stroke:#181818;stroke-width:1.0;" x1="469.5" x2="971" y1="426.0859" y2="426.0859"/><text fill="#000000" font-family="sans-serif" font-size="13" font-weight="bold" lengthAdjust="spacing" textLength="7" x="476.5" y="421.2295">9</text><text fill="#000000" font-family="sans-serif" font-size="13" lengthAdjust="spacing" textLength="277" x="487.5" y="421.2295">GetByIdAsync(creatingStaffDto.specializationId)</text><polygon fill="#181818" points="480.5,452.4375,470.5,456.4375,480.5,460.4375,476.5,456.4375" style="stroke:#181818;stroke-width:1.0;"/><line style="stroke:#181818;stroke-width:1.0;stroke-dasharray:2.0,2.0;" x1="474.5" x2="981" y1="456.4375" y2="456.4375"/><text fill="#000000" font-family="sans-serif" font-size="13" font-weight="bold" lengthAdjust="spacing" textLength="14" x="486.5" y="451.5811">10</text><text fill="#000000" font-family="sans-serif" font-size="13" lengthAdjust="spacing" textLength="79" x="504.5" y="451.5811">specialization</text><path d="M10,471.4375 L71,471.4375 L71,479.7891 L61,489.7891 L10,489.7891 L10,471.4375 " fill="#EEEEEE" style="stroke:#000000;stroke-width:1.5;"/><rect fill="none" height="79.0547" style="stroke:#000000;stroke-width:1.5;" width="509.5" x="10" y="471.4375"/><text fill="#000000" font-family="sans-serif" font-size="13" font-weight="bold" lengthAdjust="spacing" textLength="16" x="25" y="485.9326">alt</text><text fill="#000000" font-family="sans-serif" font-size="11" font-weight="bold" lengthAdjust="spacing" textLength="121" x="86" y="484.8564">[specialization == null]</text><polygon fill="#181818" points="205.5,508.1406,195.5,512.1406,205.5,516.1406,201.5,512.1406" style="stroke:#181818;stroke-width:1.0;"/><line style="stroke:#181818;stroke-width:1.0;stroke-dasharray:2.0,2.0;" x1="199.5" x2="458.5" y1="512.1406" y2="512.1406"/><text fill="#000000" font-family="sans-serif" font-size="13" font-weight="bold" lengthAdjust="spacing" textLength="14" x="211.5" y="507.2842">11</text><text fill="#000000" font-family="sans-serif" font-size="13" lengthAdjust="spacing" textLength="138" x="229.5" y="507.2842">NullReferenceException</text><polygon fill="#181818" points="53.5,538.4922,43.5,542.4922,53.5,546.4922,49.5,542.4922" style="stroke:#181818;stroke-width:1.0;"/><line style="stroke:#181818;stroke-width:1.0;stroke-dasharray:2.0,2.0;" x1="47.5" x2="183.5" y1="542.4922" y2="542.4922"/><text fill="#000000" font-family="sans-serif" font-size="13" font-weight="bold" lengthAdjust="spacing" textLength="14" x="59.5" y="537.6357">12</text><text fill="#000000" font-family="sans-serif" font-size="13" lengthAdjust="spacing" textLength="85" x="77.5" y="537.6357">404 Not Found</text><polygon fill="#181818" points="630.5,592.1953,640.5,596.1953,630.5,600.1953,634.5,596.1953" style="stroke:#181818;stroke-width:1.0;"/><line style="stroke:#181818;stroke-width:1.0;" x1="469.5" x2="636.5" y1="596.1953" y2="596.1953"/><text fill="#000000" font-family="sans-serif" font-size="13" font-weight="bold" lengthAdjust="spacing" textLength="14" x="476.5" y="583.1631">13</text><text fill="#000000" font-family="sans-serif" font-size="13" lengthAdjust="spacing" textLength="136" x="494.5" y="574.9873">create(creatingStaffDto,</text><text fill="#000000" font-family="sans-serif" font-size="13" lengthAdjust="spacing" textLength="116" x="494.5" y="591.3389">specialization, user)</text><polygon fill="#181818" points="480.5,622.5469,470.5,626.5469,480.5,630.5469,476.5,626.5469" style="stroke:#181818;stroke-width:1.0;"/><line style="stroke:#181818;stroke-width:1.0;stroke-dasharray:2.0,2.0;" x1="474.5" x2="646.5" y1="626.5469" y2="626.5469"/><text fill="#000000" font-family="sans-serif" font-size="13" font-weight="bold" lengthAdjust="spacing" textLength="14" x="486.5" y="621.6904">14</text><text fill="#000000" font-family="sans-serif" font-size="13" lengthAdjust="spacing" textLength="24" x="504.5" y="621.6904">staff</text><path d="M10,641.5469 L71,641.5469 L71,649.8984 L61,659.8984 L10,659.8984 L10,641.5469 " fill="#EEEEEE" style="stroke:#000000;stroke-width:1.5;"/><rect fill="none" height="79.0547" style="stroke:#000000;stroke-width:1.5;" width="509.5" x="10" y="641.5469"/><text fill="#000000" font-family="sans-serif" font-size="13" font-weight="bold" lengthAdjust="spacing" textLength="16" x="25" y="656.042">alt</text><text fill="#000000" font-family="sans-serif" font-size="11" font-weight="bold" lengthAdjust="spacing" textLength="138" x="86" y="654.9658">[business rules violatoe]</text><polygon fill="#181818" points="205.5,678.25,195.5,682.25,205.5,686.25,201.5,682.25" style="stroke:#181818;stroke-width:1.0;"/><line style="stroke:#181818;stroke-width:1.0;stroke-dasharray:2.0,2.0;" x1="199.5" x2="458.5" y1="682.25" y2="682.25"/><text fill="#000000" font-family="sans-serif" font-size="13" font-weight="bold" lengthAdjust="spacing" textLength="14" x="211.5" y="677.3936">15</text><text fill="#000000" font-family="sans-serif" font-size="13" lengthAdjust="spacing" textLength="195" x="229.5" y="677.3936">BusinessRuleValidationException</text><polygon fill="#181818" points="53.5,708.6016,43.5,712.6016,53.5,716.6016,49.5,712.6016" style="stroke:#181818;stroke-width:1.0;"/><line style="stroke:#181818;stroke-width:1.0;stroke-dasharray:2.0,2.0;" x1="47.5" x2="183.5" y1="712.6016" y2="712.6016"/><text fill="#000000" font-family="sans-serif" font-size="13" font-weight="bold" lengthAdjust="spacing" textLength="14" x="59.5" y="707.7451">16</text><text fill="#000000" font-family="sans-serif" font-size="13" lengthAdjust="spacing" textLength="100" x="77.5" y="707.7451">200 Bad Request</text><polygon fill="#181818" points="1109.5,745.9531,1119.5,749.9531,1109.5,753.9531,1113.5,749.9531" style="stroke:#181818;stroke-width:1.0;"/><line style="stroke:#181818;stroke-width:1.0;" x1="469.5" x2="1115.5" y1="749.9531" y2="749.9531"/><text fill="#000000" font-family="sans-serif" font-size="13" font-weight="bold" lengthAdjust="spacing" textLength="14" x="476.5" y="745.0967">17</text><text fill="#000000" font-family="sans-serif" font-size="13" lengthAdjust="spacing" textLength="90" x="494.5" y="745.0967">addAsync(staff)</text><polygon fill="#181818" points="480.5,776.3047,470.5,780.3047,480.5,784.3047,476.5,780.3047" style="stroke:#181818;stroke-width:1.0;"/><line style="stroke:#181818;stroke-width:1.0;stroke-dasharray:2.0,2.0;" x1="474.5" x2="1125.5" y1="780.3047" y2="780.3047"/><text fill="#000000" font-family="sans-serif" font-size="13" font-weight="bold" lengthAdjust="spacing" textLength="14" x="486.5" y="775.4482">18</text><text fill="#000000" font-family="sans-serif" font-size="13" lengthAdjust="spacing" textLength="24" x="504.5" y="775.4482">staff</text><polygon fill="#181818" points="718.5,806.6563,728.5,810.6563,718.5,814.6563,722.5,810.6563" style="stroke:#181818;stroke-width:1.0;"/><line style="stroke:#181818;stroke-width:1.0;" x1="469.5" x2="724.5" y1="810.6563" y2="810.6563"/><text fill="#000000" font-family="sans-serif" font-size="13" font-weight="bold" lengthAdjust="spacing" textLength="14" x="476.5" y="805.7998">19</text><text fill="#000000" font-family="sans-serif" font-size="13" lengthAdjust="spacing" textLength="68" x="494.5" y="805.7998">create(staff)</text><polygon fill="#181818" points="480.5,837.0078,470.5,841.0078,480.5,845.0078,476.5,841.0078" style="stroke:#181818;stroke-width:1.0;"/><line style="stroke:#181818;stroke-width:1.0;stroke-dasharray:2.0,2.0;" x1="474.5" x2="734.5" y1="841.0078" y2="841.0078"/><text fill="#000000" font-family="sans-serif" font-size="13" font-weight="bold" lengthAdjust="spacing" textLength="14" x="486.5" y="836.1514">20</text><text fill="#000000" font-family="sans-serif" font-size="13" lengthAdjust="spacing" textLength="44" x="504.5" y="836.1514">staffDto</text><polygon fill="#181818" points="205.5,867.3594,195.5,871.3594,205.5,875.3594,201.5,871.3594" style="stroke:#181818;stroke-width:1.0;"/><line style="stroke:#181818;stroke-width:1.0;stroke-dasharray:2.0,2.0;" x1="199.5" x2="463.5" y1="871.3594" y2="871.3594"/><text fill="#000000" font-family="sans-serif" font-size="13" font-weight="bold" lengthAdjust="spacing" textLength="14" x="211.5" y="866.5029">21</text><text fill="#000000" font-family="sans-serif" font-size="13" lengthAdjust="spacing" textLength="44" x="229.5" y="866.5029">staffDto</text><polygon fill="#181818" points="53.5,897.7109,43.5,901.7109,53.5,905.7109,49.5,901.7109" style="stroke:#181818;stroke-width:1.0;"/><line style="stroke:#181818;stroke-width:1.0;stroke-dasharray:2.0,2.0;" x1="47.5" x2="188.5" y1="901.7109" y2="901.7109"/><text fill="#000000" font-family="sans-serif" font-size="13" font-weight="bold" lengthAdjust="spacing" textLength="14" x="59.5" y="896.8545">22</text><text fill="#000000" font-family="sans-serif" font-size="13" lengthAdjust="spacing" textLength="70" x="77.5" y="896.8545">201 Created</text><!--SRC=[pPMnRjim48PtFSN1KmF4JLfaCX83Tf8MNjB0RZjreSLpG40YLP8owZvzZwmiaxHekrivKUBz_ns_8oNMMYNRUeswA5XfbORHZDT2Ze0Pe5dHC6r5AHecBOnMbcqsvb59grLLeVPHXqUulpyyJAS3sXNghIZHwxevYRfPglXckWnkGc5FgcP23lh-DNIpqt5FLXr2wI6CviooDJC8euLBkCH66K54TdqDXrSPtQh1Kh1A_6PMA9auv1PpNgx4r29-5ogBWhe5usdOZWcyVbbzXHlMY1lZM-TwBBRCOX1M08r0HHxxraoWr4ZHFk-hLXjHuSpiPFdElnVoRG_oohlqxfr1mIeBd30B0xKmXWJWjkY3tTWd6gU5p_HRMwEqBsrLFVygiN7CZYebbTlr1EvkRs7EE2pnPul65YWvKExZFDEqaHFuZ7Q-M_3XVRrlAVoP65TNlLc_ozYgNtSZoJAEe3hFFffZpi_1Sw7my02IE9odvcWjSOCQPOaNORk35sNXasebFmKjUtRFuJEHSC47AEQy8vxP0cAoSReXnjbiZdOi_n-u-q_Q_XeUuRt-8UEIh_s16OBi535HRvtWYw92Qdx18LgtT8lH6D1jXGQsGbNCAZpFQDu9bwJxJWLpN_05i3vUVhVJx-C46EzEfjzQ3apkq2Ls_m9hm38jrFr_-jQUh8yYZmjpye6AmjYqg70jswZ89NJelkad6lK17lrkU17eWZ_D7m00]--></g></svg>