<?xml version="1.0" encoding="us-ascii" standalone="no"?><svg xmlns="http://www.w3.org/2000/svg" xmlns:xlink="http://www.w3.org/1999/xlink" contentStyleType="text/css" height="623px" preserveAspectRatio="none" style="width:1156px;height:623px;background:#FFFFFF;" version="1.1" viewBox="0 0 1156 623" width="1156px" zoomAndPan="magnify"><defs/><g><rect fill="#ADD8E6" height="611.9688" style="stroke:#181818;stroke-width:0.5;" width="723" x="228" y="6"/><text fill="#000000" font-family="sans-serif" font-size="13" font-weight="bold" lengthAdjust="spacing" textLength="85" x="547" y="19.4951">&#171;system (C4)&#187;</text><text fill="#000000" font-family="sans-serif" font-size="13" font-weight="bold" lengthAdjust="spacing" textLength="57" x="561" y="35.8467">Frontend</text><rect fill="#DDDDDD" height="611.9688" style="stroke:#181818;stroke-width:0.5;" width="197" x="953" y="6"/><text fill="#000000" font-family="sans-serif" font-size="13" font-weight="bold" lengthAdjust="spacing" textLength="85" x="1009" y="19.4951">&#171;system (C4)&#187;</text><text fill="#000000" font-family="sans-serif" font-size="13" font-weight="bold" lengthAdjust="spacing" textLength="175" x="964" y="35.8467">Backend Data Management</text><rect fill="#FFFFFF" height="416.4375" style="stroke:#181818;stroke-width:1.0;" width="10" x="50" y="102.9219"/><rect fill="#FFFFFF" height="30.3516" style="stroke:#181818;stroke-width:1.0;" width="10" x="293" y="125.2734"/><rect fill="#FFFFFF" height="333.3828" style="stroke:#181818;stroke-width:1.0;" width="10" x="293" y="185.9766"/><rect fill="#FFFFFF" height="272.6797" style="stroke:#181818;stroke-width:1.0;" width="10" x="448" y="216.3281"/><rect fill="#FFFFFF" height="151.7578" style="stroke:#181818;stroke-width:1.0;" width="10" x="732" y="306.8984"/><rect fill="#FFFFFF" height="91.0547" style="stroke:#181818;stroke-width:1.0;" width="10" x="876" y="337.25"/><rect fill="#FFFFFF" height="30.3516" style="stroke:#181818;stroke-width:1.0;" width="10" x="1046.5" y="367.6016"/><line style="stroke:#181818;stroke-width:0.5;stroke-dasharray:5.0,5.0;" x1="55" x2="55" y1="92.9219" y2="537.3594"/><line style="stroke:#181818;stroke-width:0.5;stroke-dasharray:5.0,5.0;" x1="298" x2="298" y1="92.9219" y2="537.3594"/><line style="stroke:#181818;stroke-width:0.5;stroke-dasharray:5.0,5.0;" x1="453" x2="453" y1="92.9219" y2="537.3594"/><line style="stroke:#181818;stroke-width:0.5;stroke-dasharray:5.0,5.0;" x1="595" x2="595" y1="264.4375" y2="537.3594"/><line style="stroke:#181818;stroke-width:0.5;stroke-dasharray:5.0,5.0;" x1="737" x2="737" y1="92.9219" y2="537.3594"/><line style="stroke:#181818;stroke-width:0.5;stroke-dasharray:5.0,5.0;" x1="881" x2="881" y1="92.9219" y2="537.3594"/><line style="stroke:#181818;stroke-width:0.5;stroke-dasharray:5.0,5.0;" x1="1051" x2="1051" y1="92.9219" y2="537.3594"/><text fill="#000000" font-family="sans-serif" font-size="14" lengthAdjust="spacing" textLength="94" x="5" y="89.8457">BackofficeUser</text><ellipse cx="55" cy="23.8125" fill="#E2E2F0" rx="8" ry="8" style="stroke:#181818;stroke-width:0.5;"/><path d="M55,31.8125 L55,58.8125 M42,39.8125 L68,39.8125 M55,58.8125 L42,73.8125 M55,58.8125 L68,73.8125 " fill="none" style="stroke:#181818;stroke-width:0.5;"/><text fill="#000000" font-family="sans-serif" font-size="14" lengthAdjust="spacing" textLength="94" x="5" y="550.8926">BackofficeUser</text><ellipse cx="55" cy="562.4688" fill="#E2E2F0" rx="8" ry="8" style="stroke:#181818;stroke-width:0.5;"/><path d="M55,570.4688 L55,597.4688 M42,578.4688 L68,578.4688 M55,597.4688 L42,612.4688 M55,597.4688 L68,612.4688 " fill="none" style="stroke:#181818;stroke-width:0.5;"/><rect fill="#E2E2F0" height="49.2188" rx="2.5" ry="2.5" style="stroke:#181818;stroke-width:0.5;" width="132" x="232" y="42.7031"/><text fill="#000000" font-family="sans-serif" font-size="14" font-style="italic" lengthAdjust="spacing" textLength="118" x="239" y="64.2363">&#171;component (C4)&#187;</text><text fill="#000000" font-family="sans-serif" font-size="14" lengthAdjust="spacing" textLength="89" x="253.5" y="81.8457">UI Component</text><rect fill="#E2E2F0" height="49.2188" rx="2.5" ry="2.5" style="stroke:#181818;stroke-width:0.5;" width="132" x="232" y="536.3594"/><text fill="#000000" font-family="sans-serif" font-size="14" font-style="italic" lengthAdjust="spacing" textLength="118" x="239" y="557.8926">&#171;component (C4)&#187;</text><text fill="#000000" font-family="sans-serif" font-size="14" lengthAdjust="spacing" textLength="89" x="253.5" y="575.502">UI Component</text><rect fill="#E2E2F0" height="49.2188" rx="2.5" ry="2.5" style="stroke:#181818;stroke-width:0.5;" width="132" x="387" y="42.7031"/><text fill="#000000" font-family="sans-serif" font-size="14" font-style="italic" lengthAdjust="spacing" textLength="118" x="394" y="64.2363">&#171;component (C4)&#187;</text><text fill="#000000" font-family="sans-serif" font-size="14" lengthAdjust="spacing" textLength="73" x="416.5" y="81.8457">Component</text><rect fill="#E2E2F0" height="49.2188" rx="2.5" ry="2.5" style="stroke:#181818;stroke-width:0.5;" width="132" x="387" y="536.3594"/><text fill="#000000" font-family="sans-serif" font-size="14" font-style="italic" lengthAdjust="spacing" textLength="118" x="394" y="557.8926">&#171;component (C4)&#187;</text><text fill="#000000" font-family="sans-serif" font-size="14" lengthAdjust="spacing" textLength="73" x="416.5" y="575.502">Component</text><rect fill="#E2E2F0" height="49.2188" rx="2.5" ry="2.5" style="stroke:#181818;stroke-width:0.5;" width="132" x="529" y="536.3594"/><text fill="#000000" font-family="sans-serif" font-size="14" font-style="italic" lengthAdjust="spacing" textLength="118" x="536" y="557.8926">&#171;component (C4)&#187;</text><text fill="#000000" font-family="sans-serif" font-size="14" lengthAdjust="spacing" textLength="38" x="576" y="575.502">Model</text><rect fill="#E2E2F0" height="49.2188" rx="2.5" ry="2.5" style="stroke:#181818;stroke-width:0.5;" width="132" x="671" y="42.7031"/><text fill="#000000" font-family="sans-serif" font-size="14" font-style="italic" lengthAdjust="spacing" textLength="118" x="678" y="64.2363">&#171;component (C4)&#187;</text><text fill="#000000" font-family="sans-serif" font-size="14" lengthAdjust="spacing" textLength="47" x="713.5" y="81.8457">Service</text><rect fill="#E2E2F0" height="49.2188" rx="2.5" ry="2.5" style="stroke:#181818;stroke-width:0.5;" width="132" x="671" y="536.3594"/><text fill="#000000" font-family="sans-serif" font-size="14" font-style="italic" lengthAdjust="spacing" textLength="118" x="678" y="557.8926">&#171;component (C4)&#187;</text><text fill="#000000" font-family="sans-serif" font-size="14" lengthAdjust="spacing" textLength="47" x="713.5" y="575.502">Service</text><rect fill="#E2E2F0" height="49.2188" rx="2.5" ry="2.5" style="stroke:#181818;stroke-width:0.5;" width="132" x="815" y="42.7031"/><text fill="#000000" font-family="sans-serif" font-size="14" font-style="italic" lengthAdjust="spacing" textLength="118" x="822" y="64.2363">&#171;component (C4)&#187;</text><text fill="#000000" font-family="sans-serif" font-size="14" lengthAdjust="spacing" textLength="36" x="863" y="81.8457">HTTP</text><rect fill="#E2E2F0" height="49.2188" rx="2.5" ry="2.5" style="stroke:#181818;stroke-width:0.5;" width="132" x="815" y="536.3594"/><text fill="#000000" font-family="sans-serif" font-size="14" font-style="italic" lengthAdjust="spacing" textLength="118" x="822" y="557.8926">&#171;component (C4)&#187;</text><text fill="#000000" font-family="sans-serif" font-size="14" lengthAdjust="spacing" textLength="36" x="863" y="575.502">HTTP</text><rect fill="#E2E2F0" height="49.2188" rx="2.5" ry="2.5" style="stroke:#181818;stroke-width:0.5;" width="189" x="957" y="42.7031"/><text fill="#000000" font-family="sans-serif" font-size="14" font-style="italic" lengthAdjust="spacing" textLength="118" x="992.5" y="64.2363">&#171;component (C4)&#187;</text><text fill="#000000" font-family="sans-serif" font-size="14" lengthAdjust="spacing" textLength="175" x="964" y="81.8457">Backend Data Management</text><rect fill="#E2E2F0" height="49.2188" rx="2.5" ry="2.5" style="stroke:#181818;stroke-width:0.5;" width="189" x="957" y="536.3594"/><text fill="#000000" font-family="sans-serif" font-size="14" font-style="italic" lengthAdjust="spacing" textLength="118" x="992.5" y="557.8926">&#171;component (C4)&#187;</text><text fill="#000000" font-family="sans-serif" font-size="14" lengthAdjust="spacing" textLength="175" x="964" y="575.502">Backend Data Management</text><rect fill="#FFFFFF" height="416.4375" style="stroke:#181818;stroke-width:1.0;" width="10" x="50" y="102.9219"/><rect fill="#FFFFFF" height="30.3516" style="stroke:#181818;stroke-width:1.0;" width="10" x="293" y="125.2734"/><rect fill="#FFFFFF" height="333.3828" style="stroke:#181818;stroke-width:1.0;" width="10" x="293" y="185.9766"/><rect fill="#FFFFFF" height="272.6797" style="stroke:#181818;stroke-width:1.0;" width="10" x="448" y="216.3281"/><rect fill="#FFFFFF" height="151.7578" style="stroke:#181818;stroke-width:1.0;" width="10" x="732" y="306.8984"/><rect fill="#FFFFFF" height="91.0547" style="stroke:#181818;stroke-width:1.0;" width="10" x="876" y="337.25"/><rect fill="#FFFFFF" height="30.3516" style="stroke:#181818;stroke-width:1.0;" width="10" x="1046.5" y="367.6016"/><polygon fill="#181818" points="281,121.2734,291,125.2734,281,129.2734,285,125.2734" style="stroke:#181818;stroke-width:1.0;"/><line style="stroke:#181818;stroke-width:1.0;" x1="60" x2="287" y1="125.2734" y2="125.2734"/><text fill="#000000" font-family="sans-serif" font-size="13" font-weight="bold" lengthAdjust="spacing" textLength="7" x="90" y="120.417">1</text><text fill="#000000" font-family="sans-serif" font-size="13" lengthAdjust="spacing" textLength="162" x="101" y="120.417">asks to log in to the system</text><polygon fill="#181818" points="71,151.625,61,155.625,71,159.625,67,155.625" style="stroke:#181818;stroke-width:1.0;"/><line style="stroke:#181818;stroke-width:1.0;" x1="65" x2="297" y1="155.625" y2="155.625"/><text fill="#000000" font-family="sans-serif" font-size="13" font-weight="bold" lengthAdjust="spacing" textLength="7" x="74.5" y="150.7686">2</text><text fill="#000000" font-family="sans-serif" font-size="13" lengthAdjust="spacing" textLength="198" x="85.5" y="150.7686">asks to insert email and password</text><polygon fill="#181818" points="281,181.9766,291,185.9766,281,189.9766,285,185.9766" style="stroke:#181818;stroke-width:1.0;"/><line style="stroke:#181818;stroke-width:1.0;" x1="60" x2="287" y1="185.9766" y2="185.9766"/><text fill="#000000" font-family="sans-serif" font-size="13" font-weight="bold" lengthAdjust="spacing" textLength="7" x="92" y="181.1201">3</text><text fill="#000000" font-family="sans-serif" font-size="13" lengthAdjust="spacing" textLength="158" x="103" y="181.1201">inserts email and password</text><polygon fill="#181818" points="436,212.3281,446,216.3281,436,220.3281,440,216.3281" style="stroke:#181818;stroke-width:1.0;"/><line style="stroke:#181818;stroke-width:1.0;" x1="303" x2="442" y1="216.3281" y2="216.3281"/><text fill="#000000" font-family="sans-serif" font-size="13" font-weight="bold" lengthAdjust="spacing" textLength="7" x="312.5" y="211.4717">4</text><text fill="#000000" font-family="sans-serif" font-size="13" lengthAdjust="spacing" textLength="115" x="323.5" y="211.4717">email and password</text><polygon fill="#181818" points="517,242.6797,527,246.6797,517,250.6797,521,246.6797" style="stroke:#181818;stroke-width:1.0;"/><line style="stroke:#181818;stroke-width:1.0;" x1="458" x2="523" y1="246.6797" y2="246.6797"/><text fill="#000000" font-family="sans-serif" font-size="13" font-weight="bold" lengthAdjust="spacing" textLength="7" x="470" y="241.8232">5</text><text fill="#000000" font-family="sans-serif" font-size="13" lengthAdjust="spacing" textLength="36" x="481" y="241.8232">create</text><rect fill="#E2E2F0" height="49.2188" rx="2.5" ry="2.5" style="stroke:#181818;stroke-width:0.5;" width="132" x="529" y="224.3281"/><text fill="#000000" font-family="sans-serif" font-size="14" font-style="italic" lengthAdjust="spacing" textLength="118" x="536" y="245.8613">&#171;component (C4)&#187;</text><text fill="#000000" font-family="sans-serif" font-size="14" lengthAdjust="spacing" textLength="38" x="576" y="263.4707">Model</text><polygon fill="#181818" points="720,302.8984,730,306.8984,720,310.8984,724,306.8984" style="stroke:#181818;stroke-width:1.0;"/><line style="stroke:#181818;stroke-width:1.0;" x1="458" x2="726" y1="306.8984" y2="306.8984"/><text fill="#000000" font-family="sans-serif" font-size="13" font-weight="bold" lengthAdjust="spacing" textLength="7" x="574" y="302.042">6</text><text fill="#000000" font-family="sans-serif" font-size="13" lengthAdjust="spacing" textLength="31" x="585" y="302.042">log in</text><polygon fill="#181818" points="864,333.25,874,337.25,864,341.25,868,337.25" style="stroke:#181818;stroke-width:1.0;"/><line style="stroke:#181818;stroke-width:1.0;" x1="742" x2="870" y1="337.25" y2="337.25"/><text fill="#000000" font-family="sans-serif" font-size="13" font-weight="bold" lengthAdjust="spacing" textLength="7" x="751.5" y="332.3936">7</text><text fill="#000000" font-family="sans-serif" font-size="13" lengthAdjust="spacing" textLength="104" x="762.5" y="332.3936">post('/users/login')</text><polygon fill="#181818" points="1034.5,363.6016,1044.5,367.6016,1034.5,371.6016,1038.5,367.6016" style="stroke:#181818;stroke-width:1.0;"/><line style="stroke:#181818;stroke-width:1.0;" x1="886" x2="1040.5" y1="367.6016" y2="367.6016"/><text fill="#000000" font-family="sans-serif" font-size="13" font-weight="bold" lengthAdjust="spacing" textLength="7" x="907.75" y="362.7451">8</text><text fill="#000000" font-family="sans-serif" font-size="13" lengthAdjust="spacing" textLength="106" x="918.75" y="362.7451">POST /users/login</text><polygon fill="#181818" points="897,393.9531,887,397.9531,897,401.9531,893,397.9531" style="stroke:#181818;stroke-width:1.0;"/><line style="stroke:#181818;stroke-width:1.0;stroke-dasharray:2.0,2.0;" x1="891" x2="1050.5" y1="397.9531" y2="397.9531"/><text fill="#000000" font-family="sans-serif" font-size="13" font-weight="bold" lengthAdjust="spacing" textLength="7" x="915.25" y="393.0967">9</text><text fill="#000000" font-family="sans-serif" font-size="13" lengthAdjust="spacing" textLength="96" x="926.25" y="393.0967">200 (credentials)</text><polygon fill="#181818" points="753,424.3047,743,428.3047,753,432.3047,749,428.3047" style="stroke:#181818;stroke-width:1.0;"/><line style="stroke:#181818;stroke-width:1.0;stroke-dasharray:2.0,2.0;" x1="747" x2="880" y1="428.3047" y2="428.3047"/><text fill="#000000" font-family="sans-serif" font-size="13" font-weight="bold" lengthAdjust="spacing" textLength="14" x="771" y="423.4482">10</text><text fill="#000000" font-family="sans-serif" font-size="13" lengthAdjust="spacing" textLength="63" x="789" y="423.4482">credentials</text><polygon fill="#181818" points="469,454.6563,459,458.6563,469,462.6563,465,458.6563" style="stroke:#181818;stroke-width:1.0;"/><line style="stroke:#181818;stroke-width:1.0;stroke-dasharray:2.0,2.0;" x1="463" x2="736" y1="458.6563" y2="458.6563"/><text fill="#000000" font-family="sans-serif" font-size="13" font-weight="bold" lengthAdjust="spacing" textLength="14" x="557" y="453.7998">11</text><text fill="#000000" font-family="sans-serif" font-size="13" lengthAdjust="spacing" textLength="63" x="575" y="453.7998">credentials</text><polygon fill="#181818" points="314,485.0078,304,489.0078,314,493.0078,310,489.0078" style="stroke:#181818;stroke-width:1.0;"/><line style="stroke:#181818;stroke-width:1.0;stroke-dasharray:2.0,2.0;" x1="308" x2="452" y1="489.0078" y2="489.0078"/><text fill="#000000" font-family="sans-serif" font-size="13" font-weight="bold" lengthAdjust="spacing" textLength="14" x="337.5" y="484.1514">12</text><text fill="#000000" font-family="sans-serif" font-size="13" lengthAdjust="spacing" textLength="63" x="355.5" y="484.1514">credentials</text><polygon fill="#181818" points="66,515.3594,56,519.3594,66,523.3594,62,519.3594" style="stroke:#181818;stroke-width:1.0;"/><line style="stroke:#181818;stroke-width:1.0;stroke-dasharray:2.0,2.0;" x1="60" x2="297" y1="519.3594" y2="519.3594"/><text fill="#000000" font-family="sans-serif" font-size="13" font-weight="bold" lengthAdjust="spacing" textLength="14" x="145" y="514.5029">13</text><text fill="#000000" font-family="sans-serif" font-size="13" lengthAdjust="spacing" textLength="45" x="163" y="514.5029">session</text><!--SRC=[bPJ1JkCm48RlUOfHza2BL85MUugYIb2q0caHI9JRNamoRQqcTXGxmBxzZjqqiHEd51zIDvt_6y_Cxx96Iz6KRrX7Qiz5nMfMmXrkM5FeDNxgcu9lHOb2GqOFYcAPbZNSicmlDnkUuQl26fY2s7yLHs_o4-8qLV-KnX9cgr_pvVAl-5rBmeWy_l67RtVwjcWm0bgKMFECLumohMHPIK7fNXyicJwwLp6aQNRyqbAd0LR-FUsZpB6mEhixI_E2zJlLRLNj_YpT_NhzR4Lc4rHGfu0Q6Krqq_JSXDmnpU2H2RP5CwiuylEqOIQg3-g65WASF0jPWBypZGCNHBQ-WJCMIs-S2MNTAz0I2ha5BinExn0ETLb0HtTq1xHPBepOWsmzdWlwhW5BnccQTFAAAVKXwzoIx2F7wLHVLN70gn3_-qNqTarE7ZWCxh4Use2jWoyl2PlLI28lSbfsj7FI3icBx0xGHldfpJhAYMGDda0bbPvTN3NKCtL5J2ukvcDTHpQgqQzcMLmxzR6V4tX-Ubc3coOAOZp_ZZX1oT4JuwoBlioVrzSmeqxdz9wpGis3ACTsv-S_qGvlO4xsSUrEPjlYwSaDJEbI9u11DpYk6jsW43Dq8uFtCLqi1ZY5Id4fJbxiGUUTVwx_]--></g></svg>