<?xml version="1.0" encoding="us-ascii" standalone="no"?><svg xmlns="http://www.w3.org/2000/svg" xmlns:xlink="http://www.w3.org/1999/xlink" contentStyleType="text/css" height="748px" preserveAspectRatio="none" style="width:520px;height:748px;background:#FFFFFF;" version="1.1" viewBox="0 0 520 748" width="520px" zoomAndPan="magnify"><defs/><g><!--cluster BackendNode--><g id="cluster_BackendNode"><rect fill="none" height="735" rx="2.5" ry="2.5" style="stroke:#181818;stroke-width:1.0;" width="507" x="7" y="7"/><rect fill="none" height="10" style="stroke:#181818;stroke-width:1.0;" width="15" x="494" y="12"/><rect fill="none" height="2" style="stroke:#181818;stroke-width:1.0;" width="4" x="492" y="14"/><rect fill="none" height="2" style="stroke:#181818;stroke-width:1.0;" width="4" x="492" y="18"/><text fill="#000000" font-family="sans-serif" font-size="14" font-style="italic" lengthAdjust="spacing" textLength="86" x="217.5" y="34.5332">&#171;component&#187;</text><text fill="#000000" font-family="sans-serif" font-size="14" font-style="italic" lengthAdjust="spacing" textLength="107" x="207" y="52.1426">&#171;container (C4)&#187;</text><text fill="#000000" font-family="sans-serif" font-size="14" font-weight="bold" lengthAdjust="spacing" textLength="102" x="209.5" y="69.752">Backend Node</text></g><!--cluster Infrastructure--><g id="cluster_Infrastructure"><path d="M113.5,94 L211.5,94 A3.75,3.75 0 0 1 214,96.5 L221,117.6094 L390.5,117.6094 A2.5,2.5 0 0 1 393,120.1094 L393,215.5 A2.5,2.5 0 0 1 390.5,218 L113.5,218 A2.5,2.5 0 0 1 111,215.5 L111,96.5 A2.5,2.5 0 0 1 113.5,94 " fill="none" style="stroke:#000000;stroke-width:1.5;"/><line style="stroke:#000000;stroke-width:1.5;" x1="111" x2="221" y1="117.6094" y2="117.6094"/><text fill="#000000" font-family="sans-serif" font-size="14" font-weight="bold" lengthAdjust="spacing" textLength="97" x="115" y="110.5332">Infrastructure</text></g><!--cluster InterfaceAdapters--><g id="cluster_InterfaceAdapters"><path d="M101.5,258 L232.5,258 A3.75,3.75 0 0 1 235,260.5 L242,281.6094 L407.5,281.6094 A2.5,2.5 0 0 1 410,284.1094 L410,379.5 A2.5,2.5 0 0 1 407.5,382 L101.5,382 A2.5,2.5 0 0 1 99,379.5 L99,260.5 A2.5,2.5 0 0 1 101.5,258 " fill="none" style="stroke:#000000;stroke-width:1.5;"/><line style="stroke:#000000;stroke-width:1.5;" x1="99" x2="242" y1="281.6094" y2="281.6094"/><text fill="#000000" font-family="sans-serif" font-size="14" font-weight="bold" lengthAdjust="spacing" textLength="130" x="103" y="274.5332">Interface Adapters</text></g><!--cluster ApplicationServices--><g id="cluster_ApplicationServices"><path d="M101.5,422 L246.5,422 A3.75,3.75 0 0 1 249,424.5 L256,445.6094 L277.5,445.6094 A2.5,2.5 0 0 1 280,448.1094 L280,543.5 A2.5,2.5 0 0 1 277.5,546 L101.5,546 A2.5,2.5 0 0 1 99,543.5 L99,424.5 A2.5,2.5 0 0 1 101.5,422 " fill="none" style="stroke:#000000;stroke-width:1.5;"/><line style="stroke:#000000;stroke-width:1.5;" x1="99" x2="256" y1="445.6094" y2="445.6094"/><text fill="#000000" font-family="sans-serif" font-size="14" font-weight="bold" lengthAdjust="spacing" textLength="144" x="103" y="438.5332">Application Services</text></g><!--cluster Domain--><g id="cluster_Domain"><path d="M41.5,586 L94.5,586 A3.75,3.75 0 0 1 97,588.5 L104,609.6094 L479.5,609.6094 A2.5,2.5 0 0 1 482,612.1094 L482,707.5 A2.5,2.5 0 0 1 479.5,710 L41.5,710 A2.5,2.5 0 0 1 39,707.5 L39,588.5 A2.5,2.5 0 0 1 41.5,586 " fill="none" style="stroke:#000000;stroke-width:1.5;"/><line style="stroke:#000000;stroke-width:1.5;" x1="39" x2="104" y1="609.6094" y2="609.6094"/><text fill="#000000" font-family="sans-serif" font-size="14" font-weight="bold" lengthAdjust="spacing" textLength="52" x="43" y="602.5332">Domain</text></g><!--entity Persistence--><g id="elem_Persistence"><path d="M267.5,138 L308.5,138 A3.75,3.75 0 0 1 311,140.5 L318,159 L366.5,159 A2.5,2.5 0 0 1 369,161.5 L369,191.1094 A2.5,2.5 0 0 1 366.5,193.6094 L267.5,193.6094 A2.5,2.5 0 0 1 265,191.1094 L265,140.5 A2.5,2.5 0 0 1 267.5,138 " fill="#F1F1F1" style="stroke:#181818;stroke-width:0.5;"/><line style="stroke:#181818;stroke-width:0.5;" x1="265" x2="318" y1="159" y2="159"/><text fill="#000000" font-family="sans-serif" font-size="14" lengthAdjust="spacing" textLength="74" x="275" y="180.5332">Persistence</text></g><!--entity Routes--><g id="elem_Routes"><path d="M157,138 L198,138 A3.75,3.75 0 0 1 200.5,140.5 L207.5,159 L227,159 A2.5,2.5 0 0 1 229.5,161.5 L229.5,191.1094 A2.5,2.5 0 0 1 227,193.6094 L157,193.6094 A2.5,2.5 0 0 1 154.5,191.1094 L154.5,140.5 A2.5,2.5 0 0 1 157,138 " fill="#F1F1F1" style="stroke:#181818;stroke-width:0.5;"/><line style="stroke:#181818;stroke-width:0.5;" x1="154.5" x2="207.5" y1="159" y2="159"/><text fill="#000000" font-family="sans-serif" font-size="14" lengthAdjust="spacing" textLength="45" x="164.5" y="180.5332">Routes</text></g><!--entity Controllers--><g id="elem_Controllers"><path d="M145,302 L186,302 A3.75,3.75 0 0 1 188.5,304.5 L195.5,323 L239,323 A2.5,2.5 0 0 1 241.5,325.5 L241.5,355.1094 A2.5,2.5 0 0 1 239,357.6094 L145,357.6094 A2.5,2.5 0 0 1 142.5,355.1094 L142.5,304.5 A2.5,2.5 0 0 1 145,302 " fill="#F1F1F1" style="stroke:#181818;stroke-width:0.5;"/><line style="stroke:#181818;stroke-width:0.5;" x1="142.5" x2="195.5" y1="323" y2="323"/><text fill="#000000" font-family="sans-serif" font-size="14" lengthAdjust="spacing" textLength="69" x="152.5" y="344.5332">Controllers</text></g><!--entity Repositories--><g id="elem_Repositories"><path d="M279,302 L320,302 A3.75,3.75 0 0 1 322.5,304.5 L329.5,323 L383,323 A2.5,2.5 0 0 1 385.5,325.5 L385.5,355.1094 A2.5,2.5 0 0 1 383,357.6094 L279,357.6094 A2.5,2.5 0 0 1 276.5,355.1094 L276.5,304.5 A2.5,2.5 0 0 1 279,302 " fill="#F1F1F1" style="stroke:#181818;stroke-width:0.5;"/><line style="stroke:#181818;stroke-width:0.5;" x1="276.5" x2="329.5" y1="323" y2="323"/><text fill="#000000" font-family="sans-serif" font-size="14" lengthAdjust="spacing" textLength="79" x="286.5" y="344.5332">Repositories</text></g><!--entity AppServices--><g id="elem_AppServices"><path d="M145,466 L186,466 A3.75,3.75 0 0 1 188.5,468.5 L195.5,487 L253,487 A2.5,2.5 0 0 1 255.5,489.5 L255.5,519.1094 A2.5,2.5 0 0 1 253,521.6094 L145,521.6094 A2.5,2.5 0 0 1 142.5,519.1094 L142.5,468.5 A2.5,2.5 0 0 1 145,466 " fill="#F1F1F1" style="stroke:#181818;stroke-width:0.5;"/><line style="stroke:#181818;stroke-width:0.5;" x1="142.5" x2="195.5" y1="487" y2="487"/><text fill="#000000" font-family="sans-serif" font-size="14" lengthAdjust="spacing" textLength="83" x="152.5" y="508.5332">App Services</text></g><!--entity Aggregates--><g id="elem_Aggregates"><path d="M357,630 L398,630 A3.75,3.75 0 0 1 400.5,632.5 L407.5,651 L455,651 A2.5,2.5 0 0 1 457.5,653.5 L457.5,683.1094 A2.5,2.5 0 0 1 455,685.6094 L357,685.6094 A2.5,2.5 0 0 1 354.5,683.1094 L354.5,632.5 A2.5,2.5 0 0 1 357,630 " fill="#F1F1F1" style="stroke:#181818;stroke-width:0.5;"/><line style="stroke:#181818;stroke-width:0.5;" x1="354.5" x2="407.5" y1="651" y2="651"/><text fill="#000000" font-family="sans-serif" font-size="14" lengthAdjust="spacing" textLength="73" x="364.5" y="672.5332">Aggregates</text></g><!--entity ValueObjects--><g id="elem_ValueObjects"><path d="M203.5,630 L244.5,630 A3.75,3.75 0 0 1 247,632.5 L254,651 L316.5,651 A2.5,2.5 0 0 1 319,653.5 L319,683.1094 A2.5,2.5 0 0 1 316.5,685.6094 L203.5,685.6094 A2.5,2.5 0 0 1 201,683.1094 L201,632.5 A2.5,2.5 0 0 1 203.5,630 " fill="#F1F1F1" style="stroke:#181818;stroke-width:0.5;"/><line style="stroke:#181818;stroke-width:0.5;" x1="201" x2="254" y1="651" y2="651"/><text fill="#000000" font-family="sans-serif" font-size="14" lengthAdjust="spacing" textLength="88" x="211" y="672.5332">Value Objects</text></g><!--entity Services--><g id="elem_Services"><path d="M84.5,630 L125.5,630 A3.75,3.75 0 0 1 128,632.5 L135,651 L163.5,651 A2.5,2.5 0 0 1 166,653.5 L166,683.1094 A2.5,2.5 0 0 1 163.5,685.6094 L84.5,685.6094 A2.5,2.5 0 0 1 82,683.1094 L82,632.5 A2.5,2.5 0 0 1 84.5,630 " fill="#F1F1F1" style="stroke:#181818;stroke-width:0.5;"/><line style="stroke:#181818;stroke-width:0.5;" x1="82" x2="135" y1="651" y2="651"/><text fill="#000000" font-family="sans-serif" font-size="14" lengthAdjust="spacing" textLength="54" x="92" y="672.5332">Services</text></g><!--link Routes to Controllers--><g id="link_Routes_Controllers"><path d="M192,194.12 C192,224.02 192,286.86 192,316.8 " fill="none" id="Routes-to-Controllers" style="stroke:#181818;stroke-width:1.0;stroke-dasharray:7.0,7.0;"/><polygon fill="#181818" points="192,322.8,196,313.8,192,317.8,188,313.8,192,322.8" style="stroke:#181818;stroke-width:1.0;"/></g><!--link Repositories to Persistence--><g id="link_Repositories_Persistence"><path d="M328.65,322.8 C326.06,292.86 322.4478,229.9976 319.8578,200.0976 " fill="none" id="Repositories-to-Persistence" style="stroke:#181818;stroke-width:1.0;stroke-dasharray:7.0,7.0;"/><polygon fill="#181818" points="319.34,194.12,316.1316,203.4316,319.7715,199.1013,324.1018,202.7412,319.34,194.12" style="stroke:#181818;stroke-width:1.0;"/></g><!--link Controllers to AppServices--><g id="link_Controllers_AppServices"><path d="M193.17,358.12 C194.46,388.02 196.2717,450.8656 197.5617,480.8056 " fill="none" id="Controllers-to-AppServices" style="stroke:#181818;stroke-width:1.0;stroke-dasharray:7.0,7.0;"/><polygon fill="#181818" points="197.82,486.8,201.4289,477.6362,197.6048,481.8046,193.4363,477.9805,197.82,486.8" style="stroke:#181818;stroke-width:1.0;"/></g><!--link Repositories to AppServices--><g id="link_Repositories_AppServices"><path d="M308.91,358.12 C284.54,388.02 249.3495,452.2082 224.9595,482.1482 " fill="none" id="Repositories-to-AppServices" style="stroke:#181818;stroke-width:1.0;stroke-dasharray:7.0,7.0;"/><polygon fill="#181818" points="221.17,486.8,229.9555,482.3486,224.3279,482.9235,223.7531,477.2959,221.17,486.8" style="stroke:#181818;stroke-width:1.0;"/></g><!--link AppServices to Aggregates--><g id="link_AppServices_Aggregates"><path d="M255.61,519.33 C281.92,532.19 312.68,549.56 337,570 C357.51,587.24 372.693,606.4643 385.393,624.9543 " fill="none" id="AppServices-to-Aggregates" style="stroke:#181818;stroke-width:1.0;stroke-dasharray:7.0,7.0;"/><polygon fill="#181818" points="388.79,629.9,386.9916,620.2167,385.9592,625.7786,380.3973,624.7461,388.79,629.9" style="stroke:#181818;stroke-width:1.0;"/></g><!--link AppServices to ValueObjects--><g id="link_AppServices_ValueObjects"><path d="M209.21,522.12 C220.47,552.02 236.3646,615.2453 247.6446,645.1853 " fill="none" id="AppServices-to-ValueObjects" style="stroke:#181818;stroke-width:1.0;stroke-dasharray:7.0,7.0;"/><polygon fill="#181818" points="249.76,650.8,250.3301,640.9677,247.9972,646.1211,242.8438,643.7881,249.76,650.8" style="stroke:#181818;stroke-width:1.0;"/></g><!--link AppServices to Services--><g id="link_AppServices_Services"><path d="M186.45,522.12 C172.6,552.02 152.9821,615.4158 139.1121,645.3558 " fill="none" id="AppServices-to-Services" style="stroke:#181818;stroke-width:1.0;stroke-dasharray:7.0,7.0;"/><polygon fill="#181818" points="136.59,650.8,144.0026,644.3151,138.6917,646.2632,136.7437,640.9523,136.59,650.8" style="stroke:#181818;stroke-width:1.0;"/></g><!--link Infrastructure to InterfaceAdapters--><g id="link_Infrastructure_InterfaceAdapters"><path d="M115.1975,218.3083 C115.1762,218.5958 115.1549,218.8839 115.1335,219.1725 C114.4495,228.4088 113.7228,238.2203 112.9963,248.0313 C112.8146,250.484 112.633,252.9367 112.452,255.3804 C112.4068,255.9913 112.3616,256.6016 112.3164,257.2113 C112.3051,257.3637 112.737,251.5324 112.7257,251.6848 " fill="none" id="Infrastructure-to-InterfaceAdapters" style="stroke:#181818;stroke-width:1.0;stroke-dasharray:7.0,7.0;"/><polygon fill="#181818" points="112.2826,257.6684,116.9363,248.9884,112.6518,252.682,108.9582,248.3975,112.2826,257.6684" style="stroke:#181818;stroke-width:1.0;"/></g><!--link InterfaceAdapters to ApplicationServices--><g id="link_InterfaceAdapters_ApplicationServices"><path d="M107,382.3083 C107,382.5958 107,382.8839 107,383.1725 C107,392.4088 107,402.2203 107,412.0313 C107,414.484 107,416.9367 107,419.3804 C107,419.9913 107,420.6016 107,421.2113 C107,421.3637 107,415.5161 107,415.6684 " fill="none" id="InterfaceAdapters-to-ApplicationServices" style="stroke:#181818;stroke-width:1.0;stroke-dasharray:7.0,7.0;"/><polygon fill="#181818" points="107,421.6684,111,412.6684,107,416.6684,103,412.6684,107,421.6684" style="stroke:#181818;stroke-width:1.0;"/></g><!--link ApplicationServices to Domain--><g id="link_ApplicationServices_Domain"><path d="M98.981,507.0706 C98.8749,507.2362 98.7681,507.4033 98.6605,507.5717 C98.4454,507.9085 98.2273,508.2509 98.0064,508.5988 C97.5646,509.2944 97.1114,510.0118 96.648,510.7496 C94.7947,513.7009 92.7788,516.98 90.675,520.51 C82.26,534.63 72.44,552.765 66,570 C64.3225,574.49 62.7727,579.1683 61.3442,583.9234 C61.1656,584.5178 62.6759,579.3554 62.5011,579.952 " fill="none" id="ApplicationServices-to-Domain" style="stroke:#181818;stroke-width:1.0;stroke-dasharray:7.0,7.0;"/><polygon fill="#181818" points="60.8141,585.71,67.1832,578.1977,62.2199,580.9117,59.5059,575.9484,60.8141,585.71" style="stroke:#181818;stroke-width:1.0;"/></g><!--SRC=[RLAnRiCW4Dtv2kGfNJ9rZ2obwPAbgHgfEyLdYvO0WdENglzUCE00xdRttkFktHrStunMe91sJun_WHheYnwWeypH18IS7WuyA_j-oHGoeS3ItUdnmKC_XD9Hoy4ZPpLQvj3E76SBeLA31EsgVWNhX4DGV94MQQbwqpE22u8OUUwNt5jsPuLWH-Ph70TcVEows3Z16Qrxd_mKLaiP2Aykqget6Eq4QYkIWo9lVHoDaO8p55hHAzXlmI4wAOYCrrx2qysJdBTjdlNDRtzHnR2jDKqM9eQvqffMgdScPw2NZq_W68KBae1AMXchN7bVwJZxVL-jiDfR8ClRbgiFN3divc595d7axhErL3LDIwu5IVCx0xdvDsJxavAnzghalqi7RJmK-GC0]--></g></svg>