<?xml version="1.0" encoding="us-ascii" standalone="no"?><svg xmlns="http://www.w3.org/2000/svg" xmlns:xlink="http://www.w3.org/1999/xlink" contentStyleType="text/css" height="1083px" preserveAspectRatio="none" style="width:664px;height:1083px;background:#FFFFFF;" version="1.1" viewBox="0 0 664 1083" width="664px" zoomAndPan="magnify"><defs/><g><!--cluster BackendNode--><g id="cluster_BackendNode"><rect fill="none" height="967" rx="2.5" ry="2.5" style="stroke:#181818;stroke-width:1.0;" width="651" x="7" y="110"/><rect fill="none" height="10" style="stroke:#181818;stroke-width:1.0;" width="15" x="638" y="115"/><rect fill="none" height="2" style="stroke:#181818;stroke-width:1.0;" width="4" x="636" y="117"/><rect fill="none" height="2" style="stroke:#181818;stroke-width:1.0;" width="4" x="636" y="121"/><text fill="#000000" font-family="sans-serif" font-size="14" font-style="italic" lengthAdjust="spacing" textLength="86" x="289.5" y="137.5332">&#171;component&#187;</text><text fill="#000000" font-family="sans-serif" font-size="14" font-style="italic" lengthAdjust="spacing" textLength="100" x="282.5" y="155.1426">&#171;C4 Container&#187;</text><text fill="#000000" font-family="sans-serif" font-size="14" font-weight="bold" lengthAdjust="spacing" textLength="102" x="281.5" y="172.752">Backend Node</text></g><!--cluster Frameworks and Drivers Layer--><g id="cluster_Frameworks and Drivers Layer"><path d="M170.5,201 L385.5,201 A3.75,3.75 0 0 1 388,203.5 L395,224.6094 L502.5,224.6094 A2.5,2.5 0 0 1 505,227.1094 L505,315.5 A2.5,2.5 0 0 1 502.5,318 L170.5,318 A2.5,2.5 0 0 1 168,315.5 L168,203.5 A2.5,2.5 0 0 1 170.5,201 " fill="none" style="stroke:#000000;stroke-width:1.5;"/><line style="stroke:#000000;stroke-width:1.5;" x1="168" x2="395" y1="224.6094" y2="224.6094"/><text fill="#000000" font-family="sans-serif" font-size="14" font-weight="bold" lengthAdjust="spacing" textLength="214" x="172" y="217.5332">Frameworks and Drivers Layer</text></g><!--cluster Interface Adapters Layer--><g id="cluster_Interface Adapters Layer"><path d="M38.5,446 L211.5,446 A3.75,3.75 0 0 1 214,448.5 L221,469.6094 L352.5,469.6094 A2.5,2.5 0 0 1 355,472.1094 L355,560.5 A2.5,2.5 0 0 1 352.5,563 L38.5,563 A2.5,2.5 0 0 1 36,560.5 L36,448.5 A2.5,2.5 0 0 1 38.5,446 " fill="none" style="stroke:#000000;stroke-width:1.5;"/><line style="stroke:#000000;stroke-width:1.5;" x1="36" x2="221" y1="469.6094" y2="469.6094"/><text fill="#000000" font-family="sans-serif" font-size="14" font-weight="bold" lengthAdjust="spacing" textLength="172" x="40" y="462.5332">Interface Adapters Layer</text></g><!--cluster Application Business Rules--><g id="cluster_Application Business Rules"><path d="M86.5,691 L278.5,691 A3.75,3.75 0 0 1 281,693.5 L288,714.6094 L288.5,714.6094 A2.5,2.5 0 0 1 291,717.1094 L291,805.5 A2.5,2.5 0 0 1 288.5,808 L86.5,808 A2.5,2.5 0 0 1 84,805.5 L84,693.5 A2.5,2.5 0 0 1 86.5,691 " fill="none" style="stroke:#000000;stroke-width:1.5;"/><line style="stroke:#000000;stroke-width:1.5;" x1="84" x2="288" y1="714.6094" y2="714.6094"/><text fill="#000000" font-family="sans-serif" font-size="14" font-weight="bold" lengthAdjust="spacing" textLength="191" x="88" y="707.5332">Application Business Rules</text></g><!--cluster Enterprise Business Rules--><g id="cluster_Enterprise Business Rules"><path d="M60.5,936 L248.5,936 A3.75,3.75 0 0 1 251,938.5 L258,959.6094 L258.5,959.6094 A2.5,2.5 0 0 1 261,962.1094 L261,1050.5 A2.5,2.5 0 0 1 258.5,1053 L60.5,1053 A2.5,2.5 0 0 1 58,1050.5 L58,938.5 A2.5,2.5 0 0 1 60.5,936 " fill="none" style="stroke:#000000;stroke-width:1.5;"/><line style="stroke:#000000;stroke-width:1.5;" x1="58" x2="258" y1="959.6094" y2="959.6094"/><text fill="#000000" font-family="sans-serif" font-size="14" font-weight="bold" lengthAdjust="spacing" textLength="187" x="62" y="952.5332">Enterprise Business Rules</text></g><text fill="#000000" font-family="sans-serif" font-size="14" lengthAdjust="spacing" textLength="4" x="424" y="88.9238">&#160;</text><rect fill="#F1F1F1" height="12" style="stroke:#181818;stroke-width:1.5;" width="12" x="420" y="104"/><text fill="#000000" font-family="sans-serif" font-size="14" lengthAdjust="spacing" textLength="4" x="355" y="88.9238">&#160;</text><rect fill="#F1F1F1" height="12" style="stroke:#181818;stroke-width:1.5;" width="12" x="351" y="104"/><!--entity Controller_API--><g id="elem_Controller_API"><ellipse cx="420" cy="392" fill="#F1F1F1" rx="8" ry="8" style="stroke:#181818;stroke-width:0.5;"/><text fill="#000000" font-family="sans-serif" font-size="14" lengthAdjust="spacing" textLength="87" x="376.5" y="423.5332">Controller API</text></g><!--entity DataModel_API--><g id="elem_DataModel_API"><ellipse cx="93" cy="392" fill="#F1F1F1" rx="8" ry="8" style="stroke:#181818;stroke-width:0.5;"/><text fill="#000000" font-family="sans-serif" font-size="14" lengthAdjust="spacing" textLength="97" x="44.5" y="423.5332">Data Model API</text></g><!--entity ApplicationServiceAPI--><g id="elem_ApplicationServiceAPI"><ellipse cx="311" cy="637" fill="#F1F1F1" rx="8" ry="8" style="stroke:#181818;stroke-width:0.5;"/><text fill="#000000" font-family="sans-serif" font-size="14" lengthAdjust="spacing" textLength="108" x="257" y="668.5332">App Services API</text></g><!--entity DatabaseDriverAPI--><g id="elem_DatabaseDriverAPI"><ellipse cx="256" cy="392" fill="#F1F1F1" rx="8" ry="8" style="stroke:#181818;stroke-width:0.5;"/><text fill="#000000" font-family="sans-serif" font-size="14" lengthAdjust="spacing" textLength="128" x="192" y="423.5332">Database Driver API</text></g><!--entity RepoAPI--><g id="elem_RepoAPI"><ellipse cx="103" cy="637" fill="#F1F1F1" rx="8" ry="8" style="stroke:#181818;stroke-width:0.5;"/><text fill="#000000" font-family="sans-serif" font-size="14" lengthAdjust="spacing" textLength="59" x="73.5" y="668.5332">Repo API</text></g><!--entity DTOAPI--><g id="elem_DTOAPI"><ellipse cx="443" cy="637" fill="#F1F1F1" rx="8" ry="8" style="stroke:#181818;stroke-width:0.5;"/><text fill="#000000" font-family="sans-serif" font-size="14" lengthAdjust="spacing" textLength="55" x="415.5" y="668.5332">DTO API</text></g><!--entity ModelAPI--><g id="elem_ModelAPI"><ellipse cx="183" cy="882" fill="#F1F1F1" rx="8" ry="8" style="stroke:#181818;stroke-width:0.5;"/><text fill="#000000" font-family="sans-serif" font-size="14" lengthAdjust="spacing" textLength="63" x="151.5" y="913.5332">Model API</text></g><!--entity VOAPI--><g id="elem_VOAPI"><ellipse cx="73" cy="882" fill="#F1F1F1" rx="8" ry="8" style="stroke:#181818;stroke-width:0.5;"/><text fill="#000000" font-family="sans-serif" font-size="14" lengthAdjust="spacing" textLength="45" x="50.5" y="913.5332">VO API</text></g><!--entity DatabaseDriver--><g id="elem_DatabaseDriver"><rect fill="#F1F1F1" height="65.2188" rx="2.5" ry="2.5" style="stroke:#181818;stroke-width:0.5;" width="143" x="184.5" y="237"/><rect fill="#F1F1F1" height="10" style="stroke:#181818;stroke-width:0.5;" width="15" x="307.5" y="242"/><rect fill="#F1F1F1" height="2" style="stroke:#181818;stroke-width:0.5;" width="4" x="305.5" y="244"/><rect fill="#F1F1F1" height="2" style="stroke:#181818;stroke-width:0.5;" width="4" x="305.5" y="248"/><text fill="#000000" font-family="sans-serif" font-size="14" font-style="italic" lengthAdjust="spacing" textLength="86" x="208" y="271.5332">&#171;component&#187;</text><text fill="#000000" font-family="sans-serif" font-size="14" lengthAdjust="spacing" textLength="103" x="199.5" y="289.1426">Database Driver</text></g><!--entity Routing--><g id="elem_Routing"><rect fill="#F1F1F1" height="65.2188" rx="2.5" ry="2.5" style="stroke:#181818;stroke-width:0.5;" width="126" x="363" y="237"/><rect fill="#F1F1F1" height="10" style="stroke:#181818;stroke-width:0.5;" width="15" x="469" y="242"/><rect fill="#F1F1F1" height="2" style="stroke:#181818;stroke-width:0.5;" width="4" x="467" y="244"/><rect fill="#F1F1F1" height="2" style="stroke:#181818;stroke-width:0.5;" width="4" x="467" y="248"/><text fill="#000000" font-family="sans-serif" font-size="14" font-style="italic" lengthAdjust="spacing" textLength="86" x="378" y="271.5332">&#171;component&#187;</text><text fill="#000000" font-family="sans-serif" font-size="14" lengthAdjust="spacing" textLength="49" x="396.5" y="289.1426">Routing</text></g><!--entity DTO--><g id="elem_DTO"><rect fill="#F1F1F1" height="65.2188" rx="2.5" ry="2.5" style="stroke:#181818;stroke-width:0.5;" width="126" x="374" y="482"/><rect fill="#F1F1F1" height="10" style="stroke:#181818;stroke-width:0.5;" width="15" x="480" y="487"/><rect fill="#F1F1F1" height="2" style="stroke:#181818;stroke-width:0.5;" width="4" x="478" y="489"/><rect fill="#F1F1F1" height="2" style="stroke:#181818;stroke-width:0.5;" width="4" x="478" y="493"/><text fill="#000000" font-family="sans-serif" font-size="14" font-style="italic" lengthAdjust="spacing" textLength="86" x="389" y="516.5332">&#171;component&#187;</text><text fill="#000000" font-family="sans-serif" font-size="14" lengthAdjust="spacing" textLength="30" x="417" y="534.1426">DTO</text></g><!--entity DataModel--><g id="elem_DataModel"><rect fill="#F1F1F1" height="65.2188" rx="2.5" ry="2.5" style="stroke:#181818;stroke-width:0.5;" width="126" x="23" y="237"/><rect fill="#F1F1F1" height="10" style="stroke:#181818;stroke-width:0.5;" width="15" x="129" y="242"/><rect fill="#F1F1F1" height="2" style="stroke:#181818;stroke-width:0.5;" width="4" x="127" y="244"/><rect fill="#F1F1F1" height="2" style="stroke:#181818;stroke-width:0.5;" width="4" x="127" y="248"/><text fill="#000000" font-family="sans-serif" font-size="14" font-style="italic" lengthAdjust="spacing" textLength="86" x="38" y="271.5332">&#171;component&#187;</text><text fill="#000000" font-family="sans-serif" font-size="14" lengthAdjust="spacing" textLength="72" x="45" y="289.1426">Data Model</text></g><!--entity Controller--><g id="elem_Controller"><rect fill="#F1F1F1" height="65.2188" rx="2.5" ry="2.5" style="stroke:#181818;stroke-width:0.5;" width="126" x="213" y="482"/><rect fill="#F1F1F1" height="10" style="stroke:#181818;stroke-width:0.5;" width="15" x="319" y="487"/><rect fill="#F1F1F1" height="2" style="stroke:#181818;stroke-width:0.5;" width="4" x="317" y="489"/><rect fill="#F1F1F1" height="2" style="stroke:#181818;stroke-width:0.5;" width="4" x="317" y="493"/><text fill="#000000" font-family="sans-serif" font-size="14" font-style="italic" lengthAdjust="spacing" textLength="86" x="228" y="516.5332">&#171;component&#187;</text><text fill="#000000" font-family="sans-serif" font-size="14" lengthAdjust="spacing" textLength="62" x="240" y="534.1426">Controller</text></g><!--entity Repository--><g id="elem_Repository"><rect fill="#F1F1F1" height="65.2188" rx="2.5" ry="2.5" style="stroke:#181818;stroke-width:0.5;" width="126" x="52" y="482"/><rect fill="#F1F1F1" height="10" style="stroke:#181818;stroke-width:0.5;" width="15" x="158" y="487"/><rect fill="#F1F1F1" height="2" style="stroke:#181818;stroke-width:0.5;" width="4" x="156" y="489"/><rect fill="#F1F1F1" height="2" style="stroke:#181818;stroke-width:0.5;" width="4" x="156" y="493"/><text fill="#000000" font-family="sans-serif" font-size="14" font-style="italic" lengthAdjust="spacing" textLength="86" x="67" y="516.5332">&#171;component&#187;</text><text fill="#000000" font-family="sans-serif" font-size="14" lengthAdjust="spacing" textLength="68" x="76" y="534.1426">Repository</text></g><!--entity ApplicationService--><g id="elem_ApplicationService"><rect fill="#F1F1F1" height="65.2188" rx="2.5" ry="2.5" style="stroke:#181818;stroke-width:0.5;" width="160" x="103" y="727"/><rect fill="#F1F1F1" height="10" style="stroke:#181818;stroke-width:0.5;" width="15" x="243" y="732"/><rect fill="#F1F1F1" height="2" style="stroke:#181818;stroke-width:0.5;" width="4" x="241" y="734"/><rect fill="#F1F1F1" height="2" style="stroke:#181818;stroke-width:0.5;" width="4" x="241" y="738"/><text fill="#000000" font-family="sans-serif" font-size="14" font-style="italic" lengthAdjust="spacing" textLength="86" x="135" y="761.5332">&#171;component&#187;</text><text fill="#000000" font-family="sans-serif" font-size="14" lengthAdjust="spacing" textLength="120" x="118" y="779.1426">Application Service</text></g><!--entity DomainModelDDD--><g id="elem_DomainModelDDD"><rect fill="#F1F1F1" height="65.2188" rx="2.5" ry="2.5" style="stroke:#181818;stroke-width:0.5;" width="164" x="77" y="972"/><rect fill="#F1F1F1" height="10" style="stroke:#181818;stroke-width:0.5;" width="15" x="221" y="977"/><rect fill="#F1F1F1" height="2" style="stroke:#181818;stroke-width:0.5;" width="4" x="219" y="979"/><rect fill="#F1F1F1" height="2" style="stroke:#181818;stroke-width:0.5;" width="4" x="219" y="983"/><text fill="#000000" font-family="sans-serif" font-size="14" font-style="italic" lengthAdjust="spacing" textLength="86" x="111" y="1006.5332">&#171;component&#187;</text><text fill="#000000" font-family="sans-serif" font-size="14" lengthAdjust="spacing" textLength="124" x="92" y="1024.1426">Domain Model DDD</text></g><!--entity API--><g id="elem_API"><ellipse cx="459" cy="14" fill="#F1F1F1" rx="8" ry="8" style="stroke:#181818;stroke-width:0.5;"/><text fill="#000000" font-family="sans-serif" font-size="14" lengthAdjust="spacing" textLength="21" x="448.5" y="45.5332">API</text></g><!--entity DB_API--><g id="elem_DB_API"><ellipse cx="346" cy="14" fill="#F1F1F1" rx="8" ry="8" style="stroke:#181818;stroke-width:0.5;"/><text fill="#000000" font-family="sans-serif" font-size="14" lengthAdjust="spacing" textLength="86" x="303" y="45.5332">Database API</text></g><!--link API to P1--><g id="link_API_P1"><path d="M456.19,23.01 C449.58,41.84 433.21,88.45 427.78,103.92 " fill="none" id="API-P1" style="stroke:#181818;stroke-width:1.0;"/></g><!--reverse link DB_API to P2--><g id="link_DB_API_P2"><path d="M348.1005,32.9424 C350.3005,51.7724 354.6,88.45 356.41,103.92 " fill="none" id="DB_API-backto-P2" style="stroke:#181818;stroke-width:1.0;"/><path d="M338.8971,27.0488 A9,9 0 0 0 355.6973 25.086" fill="none" style="stroke:#181818;stroke-width:1.5;"/></g><!--link Routing to P1--><g id="link_Routing_P1"><path d="M426,236.69 C426,197.75 426,134.71 426,116.24 " fill="none" id="Routing-P1" style="stroke:#181818;stroke-width:1.0;"/></g><!--link Routing to Controller_API--><g id="link_Routing_Controller_API"><path d="M424.42,302.16 C423.08,329.22 421.7242,356.2922 420.9142,372.6622 " fill="none" id="Routing-to-Controller_API" style="stroke:#181818;stroke-width:1.0;"/><path d="M429.019,379.9935 A9,9 0 0 0 412.1252 379.1576" fill="none" style="stroke:#181818;stroke-width:1.5;"/></g><!--link Routing to DTOAPI--><g id="link_Routing_DTOAPI"><path d="M451.5,302.08 C475.26,334.07 508.44,386.12 518,438 C528.71,496.13 542.55,517.23 518,571 C504.26,601.09 477.7809,617.9369 460.9809,626.8169 " fill="none" id="Routing-to-DTOAPI" style="stroke:#181818;stroke-width:1.0;"/><path d="M458.8135,637.5285 A9,9 0 0 0 450.9093 622.5745" fill="none" style="stroke:#181818;stroke-width:1.5;"/></g><!--link DatabaseDriver to DatabaseDriverAPI--><g id="link_DatabaseDriver_DatabaseDriverAPI"><path d="M256,302.16 C256,329.22 256,366.28 256,382.65 " fill="none" id="DatabaseDriver-DatabaseDriverAPI" style="stroke:#181818;stroke-width:1.0;"/></g><!--link DatabaseDriver to P2--><g id="link_DatabaseDriver_P2"><path d="M276.4,236.69 C301.37,197.75 341.8,134.71 353.64,116.24 " fill="none" id="DatabaseDriver-P2" style="stroke:#181818;stroke-width:1.0;"/></g><!--link DatabaseDriver to DataModel_API--><g id="link_DatabaseDriver_DataModel_API"><path d="M213.17,302.2 C202.65,309.99 191.42,318.3 181,326 C152.29,347.23 126.3355,366.3912 110.2955,378.2312 " fill="none" id="DatabaseDriver-to-DataModel_API" style="stroke:#181818;stroke-width:1.0;"/><path d="M109.7492,389.1462 A9,9 0 0 0 99.7039 375.5376" fill="none" style="stroke:#181818;stroke-width:1.5;"/></g><!--link Repository to RepoAPI--><g id="link_Repository_RepoAPI"><path d="M111.85,547.16 C109.15,574.22 105.46,611.28 103.83,627.65 " fill="none" id="Repository-RepoAPI" style="stroke:#181818;stroke-width:1.0;"/></g><!--reverse link DatabaseDriverAPI to Repository--><g id="link_DatabaseDriverAPI_Repository"><path d="M238.6602,405.2007 C226.6902,413.6807 213.37,423.46 196,438 C179.49,451.82 161.92,468 147.38,481.83 " fill="none" id="DatabaseDriverAPI-backto-Repository" style="stroke:#181818;stroke-width:1.0;"/><path d="M239.4193,394.2984 A9,9 0 0 0 249.1972 408.1004" fill="none" style="stroke:#181818;stroke-width:1.5;"/></g><!--reverse link DataModel_API to Repository--><g id="link_DataModel_API_Repository"><path d="M96.3052,411.1175 C99.2852,427.4475 104.26,454.7 109.21,481.79 " fill="none" id="DataModel_API-backto-Repository" style="stroke:#181818;stroke-width:1.0;"/><path d="M86.7428,405.8264 A9,9 0 0 0 103.3824 402.7899" fill="none" style="stroke:#181818;stroke-width:1.5;"/></g><!--link Repository to VOAPI--><g id="link_Repository_VOAPI"><path d="M83.88,547.35 C70.02,563.75 55.22,584.92 48,607 C15.19,707.34 54.277,829.2296 66.507,863.2496 " fill="none" id="Repository-to-VOAPI" style="stroke:#181818;stroke-width:1.0;"/><path d="M76.8072,866.9022 A9,9 0 0 0 60.8901 872.6244" fill="none" style="stroke:#181818;stroke-width:1.5;"/></g><!--link Repository to ModelAPI--><g id="link_Repository_ModelAPI"><path d="M131.93,547.23 C151.68,581.39 187.39,635.11 232,667 C249.95,679.83 266.15,665.06 279,683 C313.41,731.06 306.7,763.78 279,816 C260.13,851.56 221.6077,867.9817 201.5177,874.8817 " fill="none" id="Repository-to-ModelAPI" style="stroke:#181818;stroke-width:1.0;"/><path d="M197.7184,885.1287 A9,9 0 0 0 192.2241 869.1315" fill="none" style="stroke:#181818;stroke-width:1.5;"/></g><!--link DataModel to DataModel_API--><g id="link_DataModel_DataModel_API"><path d="M87.84,302.16 C89.41,329.22 91.56,366.28 92.52,382.65 " fill="none" id="DataModel-DataModel_API" style="stroke:#181818;stroke-width:1.0;"/></g><!--link Controller to ApplicationServiceAPI--><g id="link_Controller_ApplicationServiceAPI"><path d="M285.2,547.16 C293.05,574.22 301.0279,601.6777 305.7879,618.0477 " fill="none" id="Controller-to-ApplicationServiceAPI" style="stroke:#181818;stroke-width:1.0;"/><path d="M315.8414,622.3329 A9,9 0 0 0 299.5997 627.0556" fill="none" style="stroke:#181818;stroke-width:1.5;"/></g><!--link Controller_API to Controller--><g id="link_Controller_API_Controller"><path d="M410.87,397.16 C395.83,404.26 365.27,419.74 343,438 C327.42,450.78 312.31,467.31 300.4,481.65 " fill="none" id="Controller_API-Controller" style="stroke:#181818;stroke-width:1.0;"/></g><!--link Controller to DTOAPI--><g id="link_Controller_DTOAPI"><path d="M312.6,547.11 C322.31,555.13 332.9,563.57 343,571 C375.36,594.8 407.5327,614.7023 425.3727,625.4423 " fill="none" id="Controller-to-DTOAPI" style="stroke:#181818;stroke-width:1.0;"/><path d="M435.6648,621.7668 A9,9 0 0 0 426.9409 636.2579" fill="none" style="stroke:#181818;stroke-width:1.5;"/></g><!--link Controller to VOAPI--><g id="link_Controller_VOAPI"><path d="M260,547.2 C240.69,582.12 204.87,637.26 158,667 C130.69,684.33 108.08,658.47 87,683 C38.04,739.98 59.6021,833.8736 67.8921,863.3436 " fill="none" id="Controller-to-VOAPI" style="stroke:#181818;stroke-width:1.0;"/><path d="M77.9077,867.7167 A9,9 0 0 0 61.6252 872.297" fill="none" style="stroke:#181818;stroke-width:1.5;"/></g><!--link ApplicationServiceAPI to ApplicationService--><g id="link_ApplicationServiceAPI_ApplicationService"><path d="M302.2,646.28 C284.86,662.61 245.46,699.7 216.69,726.79 " fill="none" id="ApplicationServiceAPI-ApplicationService" style="stroke:#181818;stroke-width:1.0;"/></g><!--link ApplicationService to VOAPI--><g id="link_ApplicationService_VOAPI"><path d="M154.1,792.16 C129.4,819.22 102.3011,848.8937 87.3611,865.2637 " fill="none" id="ApplicationService-to-VOAPI" style="stroke:#181818;stroke-width:1.0;"/><path d="M88.9418,876.0775 A9,9 0 0 0 76.4482 864.6753" fill="none" style="stroke:#181818;stroke-width:1.5;"/></g><!--reverse link RepoAPI to ApplicationService--><g id="link_RepoAPI_ApplicationService"><path d="M114.0305,654.6115 C124.8705,670.9415 143.96,699.7 161.95,726.79 " fill="none" id="RepoAPI-backto-ApplicationService" style="stroke:#181818;stroke-width:1.0;"/><path d="M103.1563,653.5219 A9,9 0 0 0 117.2485 644.1673" fill="none" style="stroke:#181818;stroke-width:1.5;"/></g><!--link ApplicationService to ModelAPI--><g id="link_ApplicationService_ModelAPI"><path d="M183,792.16 C183,819.22 183,846.28 183,862.65 " fill="none" id="ApplicationService-to-ModelAPI" style="stroke:#181818;stroke-width:1.0;"/><path d="M191.4572,869.5718 A9,9 0 0 0 174.5428 869.5718" fill="none" style="stroke:#181818;stroke-width:1.5;"/></g><!--link DTO to DTOAPI--><g id="link_DTO_DTOAPI"><path d="M438.58,547.16 C439.92,574.22 441.77,611.28 442.58,627.65 " fill="none" id="DTO-DTOAPI" style="stroke:#181818;stroke-width:1.0;"/></g><!--link ModelAPI to DomainModelDDD--><g id="link_ModelAPI_DomainModelDDD"><path d="M181.35,891.28 C178.1,907.61 170.71,944.7 165.32,971.79 " fill="none" id="ModelAPI-DomainModelDDD" style="stroke:#181818;stroke-width:1.0;"/></g><!--link VOAPI to DomainModelDDD--><g id="link_VOAPI_DomainModelDDD"><path d="M78.91,891.28 C90.56,907.61 117.03,944.7 136.37,971.79 " fill="none" id="VOAPI-DomainModelDDD" style="stroke:#181818;stroke-width:1.0;"/></g><!--SRC=[ZLHDJzmm4BtdLunooYK7K8y8QPTG2Qdjhc355Pd4L1RPEB8TAbJntnb_n7PYxy8fyVFCyyoRPoi-WkBmp9NYH-YOeArYV2WADYWgNaXBeTpixqeW4l0RmmrHv9b82lD-ittI8KNBZoCVwA2Wt9BsbGuT_E4TDJ4Eq6kuklAHrzUukla1DtnGX0rK8F2_01YvK6o04apo_YA5BWl4xa9Lca7mlgV2rnKWKzyYN3S1lx6QFhI1a45iDm0llE-Ghlmfo97-u-9L0i6U6i7Ug93mYxnJKPfo0QBUlJusq7Dhp48h1Ip3nvhdda_Oy5-Jx_vF9dxeUkCQ3Zjxxc6NoKcYlHXB8KwbHZfknX4Ug7XZBPLMoSq38DYpbcX3kRsi_f58FdKfL99sJqVkO_KY9SQEFTbXb-n7CyS8iqfY7WF5usvbXX2swSYepXaX-6zbns_E7zkJJ77nRYtWb-TTC1SQ3G6sayJB9P5awgdCb1e7kv7PgvzCydk7tsgLHi5mm5-UtV0ZNdrt6PkciHuqeC4GEdCe7eiJWhhMhyJ-4kgfhloBD5-Rscw7PRL-7E8jPvjYTMcH8tLd6eClKm9MoyS5iB8mJSoPdHoZayjQd0VPa8XumLiv-ov0H6VNW-tHAk_QYukC7AlJyjSw3fhgjQuh2YVj2dMNB6CspPW_DXVigV9CrQmpdCgEXS5tH4ioUs7fHrrN2CvikfO-0G00]--></g></svg>