<?xml version="1.0" encoding="us-ascii" standalone="no"?><svg xmlns="http://www.w3.org/2000/svg" xmlns:xlink="http://www.w3.org/1999/xlink" contentStyleType="text/css" height="488px" preserveAspectRatio="none" style="width:495px;height:488px;background:#FFFFFF;" version="1.1" viewBox="0 0 495 488" width="495px" zoomAndPan="magnify"><defs/><g><rect fill="#FFFFFF" height="295.5156" style="stroke:#181818;stroke-width:1.0;" width="10" x="22.5" y="92.6094"/><rect fill="#FFFFFF" height="273.1641" style="stroke:#181818;stroke-width:1.0;" width="10" x="212.5" y="114.9609"/><rect fill="#FFFFFF" height="30.3516" style="stroke:#181818;stroke-width:1.0;" width="10" x="446.5" y="145.3125"/><rect fill="#FFFFFF" height="30.3516" style="stroke:#181818;stroke-width:1.0;" width="10" x="446.5" y="206.0156"/><rect fill="#FFFFFF" height="30.3516" style="stroke:#181818;stroke-width:1.0;" width="10" x="446.5" y="266.7188"/><rect fill="#FFFFFF" height="30.3516" style="stroke:#181818;stroke-width:1.0;" width="10" x="446.5" y="327.4219"/><line style="stroke:#181818;stroke-width:0.5;stroke-dasharray:5.0,5.0;" x1="27" x2="27" y1="82.6094" y2="406.125"/><line style="stroke:#181818;stroke-width:0.5;stroke-dasharray:5.0,5.0;" x1="217.5" x2="217.5" y1="82.6094" y2="406.125"/><line style="stroke:#181818;stroke-width:0.5;stroke-dasharray:5.0,5.0;" x1="451" x2="451" y1="82.6094" y2="406.125"/><text fill="#000000" font-family="sans-serif" font-size="14" lengthAdjust="spacing" textLength="39" x="5" y="79.5332">Admin</text><ellipse cx="27.5" cy="13.5" fill="#E2E2F0" rx="8" ry="8" style="stroke:#181818;stroke-width:0.5;"/><path d="M27.5,21.5 L27.5,48.5 M14.5,29.5 L40.5,29.5 M27.5,48.5 L14.5,63.5 M27.5,48.5 L40.5,63.5 " fill="none" style="stroke:#181818;stroke-width:0.5;"/><text fill="#000000" font-family="sans-serif" font-size="14" lengthAdjust="spacing" textLength="39" x="5" y="419.6582">Admin</text><ellipse cx="27.5" cy="431.2344" fill="#E2E2F0" rx="8" ry="8" style="stroke:#181818;stroke-width:0.5;"/><path d="M27.5,439.2344 L27.5,466.2344 M14.5,447.2344 L40.5,447.2344 M27.5,466.2344 L14.5,481.2344 M27.5,466.2344 L40.5,481.2344 " fill="none" style="stroke:#181818;stroke-width:0.5;"/><rect fill="#E2E2F0" height="31.6094" rx="2.5" ry="2.5" style="stroke:#181818;stroke-width:0.5;" width="56" x="189.5" y="50"/><text fill="#000000" font-family="sans-serif" font-size="14" lengthAdjust="spacing" textLength="42" x="196.5" y="71.5332">Server</text><rect fill="#E2E2F0" height="31.6094" rx="2.5" ry="2.5" style="stroke:#181818;stroke-width:0.5;" width="56" x="189.5" y="405.125"/><text fill="#000000" font-family="sans-serif" font-size="14" lengthAdjust="spacing" textLength="42" x="196.5" y="426.6582">Server</text><rect fill="#E2E2F0" height="31.6094" rx="2.5" ry="2.5" style="stroke:#181818;stroke-width:0.5;" width="75" x="414" y="50"/><text fill="#000000" font-family="sans-serif" font-size="14" lengthAdjust="spacing" textLength="61" x="421" y="71.5332">Database</text><rect fill="#E2E2F0" height="31.6094" rx="2.5" ry="2.5" style="stroke:#181818;stroke-width:0.5;" width="75" x="414" y="405.125"/><text fill="#000000" font-family="sans-serif" font-size="14" lengthAdjust="spacing" textLength="61" x="421" y="426.6582">Database</text><rect fill="#FFFFFF" height="295.5156" style="stroke:#181818;stroke-width:1.0;" width="10" x="22.5" y="92.6094"/><rect fill="#FFFFFF" height="273.1641" style="stroke:#181818;stroke-width:1.0;" width="10" x="212.5" y="114.9609"/><rect fill="#FFFFFF" height="30.3516" style="stroke:#181818;stroke-width:1.0;" width="10" x="446.5" y="145.3125"/><rect fill="#FFFFFF" height="30.3516" style="stroke:#181818;stroke-width:1.0;" width="10" x="446.5" y="206.0156"/><rect fill="#FFFFFF" height="30.3516" style="stroke:#181818;stroke-width:1.0;" width="10" x="446.5" y="266.7188"/><rect fill="#FFFFFF" height="30.3516" style="stroke:#181818;stroke-width:1.0;" width="10" x="446.5" y="327.4219"/><polygon fill="#181818" points="200.5,110.9609,210.5,114.9609,200.5,118.9609,204.5,114.9609" style="stroke:#181818;stroke-width:1.0;"/><line style="stroke:#181818;stroke-width:1.0;" x1="32.5" x2="206.5" y1="114.9609" y2="114.9609"/><text fill="#000000" font-family="sans-serif" font-size="13" lengthAdjust="spacing" textLength="161" x="39.5" y="110.1045">PUT /api/operationtypes/{id}</text><polygon fill="#181818" points="434.5,141.3125,444.5,145.3125,434.5,149.3125,438.5,145.3125" style="stroke:#181818;stroke-width:1.0;"/><line style="stroke:#181818;stroke-width:1.0;" x1="222.5" x2="440.5" y1="145.3125" y2="145.3125"/><text fill="#000000" font-family="sans-serif" font-size="13" lengthAdjust="spacing" textLength="103" x="229.5" y="140.4561">get operationType</text><polygon fill="#181818" points="233.5,171.6641,223.5,175.6641,233.5,179.6641,229.5,175.6641" style="stroke:#181818;stroke-width:1.0;"/><line style="stroke:#181818;stroke-width:1.0;stroke-dasharray:2.0,2.0;" x1="227.5" x2="450.5" y1="175.6641" y2="175.6641"/><text fill="#000000" font-family="sans-serif" font-size="13" lengthAdjust="spacing" textLength="81" x="239.5" y="170.8076">operationType</text><polygon fill="#181818" points="434.5,202.0156,444.5,206.0156,434.5,210.0156,438.5,206.0156" style="stroke:#181818;stroke-width:1.0;"/><line style="stroke:#181818;stroke-width:1.0;" x1="222.5" x2="440.5" y1="206.0156" y2="206.0156"/><text fill="#000000" font-family="sans-serif" font-size="13" lengthAdjust="spacing" textLength="124" x="229.5" y="201.1592">update operationType</text><polygon fill="#181818" points="233.5,232.3672,223.5,236.3672,233.5,240.3672,229.5,236.3672" style="stroke:#181818;stroke-width:1.0;"/><line style="stroke:#181818;stroke-width:1.0;stroke-dasharray:2.0,2.0;" x1="227.5" x2="450.5" y1="236.3672" y2="236.3672"/><text fill="#000000" font-family="sans-serif" font-size="13" lengthAdjust="spacing" textLength="81" x="239.5" y="231.5107">operationType</text><polygon fill="#181818" points="434.5,262.7188,444.5,266.7188,434.5,270.7188,438.5,266.7188" style="stroke:#181818;stroke-width:1.0;"/><line style="stroke:#181818;stroke-width:1.0;" x1="222.5" x2="440.5" y1="266.7188" y2="266.7188"/><text fill="#000000" font-family="sans-serif" font-size="13" lengthAdjust="spacing" textLength="184" x="229.5" y="261.8623">get operationTypeSpecialization</text><polygon fill="#181818" points="233.5,293.0703,223.5,297.0703,233.5,301.0703,229.5,297.0703" style="stroke:#181818;stroke-width:1.0;"/><line style="stroke:#181818;stroke-width:1.0;stroke-dasharray:2.0,2.0;" x1="227.5" x2="450.5" y1="297.0703" y2="297.0703"/><text fill="#000000" font-family="sans-serif" font-size="13" lengthAdjust="spacing" textLength="162" x="239.5" y="292.2139">operationTypeSpecialization</text><polygon fill="#181818" points="434.5,323.4219,444.5,327.4219,434.5,331.4219,438.5,327.4219" style="stroke:#181818;stroke-width:1.0;"/><line style="stroke:#181818;stroke-width:1.0;" x1="222.5" x2="440.5" y1="327.4219" y2="327.4219"/><text fill="#000000" font-family="sans-serif" font-size="13" lengthAdjust="spacing" textLength="205" x="229.5" y="322.5654">update operationTypeSpecialization</text><polygon fill="#181818" points="233.5,353.7734,223.5,357.7734,233.5,361.7734,229.5,357.7734" style="stroke:#181818;stroke-width:1.0;"/><line style="stroke:#181818;stroke-width:1.0;stroke-dasharray:2.0,2.0;" x1="227.5" x2="450.5" y1="357.7734" y2="357.7734"/><text fill="#000000" font-family="sans-serif" font-size="13" lengthAdjust="spacing" textLength="162" x="239.5" y="352.917">operationTypeSpecialization</text><polygon fill="#181818" points="38.5,384.125,28.5,388.125,38.5,392.125,34.5,388.125" style="stroke:#181818;stroke-width:1.0;"/><line style="stroke:#181818;stroke-width:1.0;stroke-dasharray:2.0,2.0;" x1="32.5" x2="216.5" y1="388.125" y2="388.125"/><text fill="#000000" font-family="sans-serif" font-size="13" lengthAdjust="spacing" textLength="44" x="44.5" y="383.2686">200 OK</text><!--SRC=[nPB12i8m38RlUugm-zZmk8CWUFEWu7o0R0qIS5jfuq35TxUTMgREYnwMosZ_V7_-bM0bhO5ueMfkOa0BgEf8en6kM6CZ46_9T6HwpPhkLLkYO8cMUbMLKOILS8T2lGsuSbz8vfw473Qx0bBKdBQQ30gtZPmqsVJ2wdhlVk9-4ZpAiyv2bSvXJm81BXmSkWBgOi2W79Q40EEeeZ5uEFQebLSdcFpnmrjD5UE1p_tD7o6-6Fts61EcSZv-oNAOPHciLz5Rkz-amT7lvGq0]--></g></svg>