<?xml version="1.0" encoding="us-ascii" standalone="no"?><svg xmlns="http://www.w3.org/2000/svg" xmlns:xlink="http://www.w3.org/1999/xlink" contentStyleType="text/css" height="820px" preserveAspectRatio="none" style="width:1801px;height:820px;background:#FFFFFF;" version="1.1" viewBox="0 0 1801 820" width="1801px" zoomAndPan="magnify"><defs/><g><rect fill="#FFFFFF" height="609.0313" style="stroke:#181818;stroke-width:1.0;" width="10" x="47.5" y="96.2188"/><rect fill="#FFFFFF" height="586.6797" style="stroke:#181818;stroke-width:1.0;" width="10" x="248.5" y="118.5703"/><rect fill="#FFFFFF" height="525.9766" style="stroke:#181818;stroke-width:1.0;" width="10" x="600.5" y="148.9219"/><rect fill="#FFFFFF" height="30.3516" style="stroke:#181818;stroke-width:1.0;" width="10" x="1426" y="179.2734"/><rect fill="#FFFFFF" height="30.3516" style="stroke:#181818;stroke-width:1.0;" width="10" x="1651" y="483.7891"/><rect fill="none" height="79.0547" style="stroke:#000000;stroke-width:1.5;" width="673.5" x="20" y="224.625"/><rect fill="none" height="48.7031" style="stroke:#000000;stroke-width:1.5;" width="622.5" x="517.5" y="317.6797"/><rect fill="none" height="48.7031" style="stroke:#000000;stroke-width:1.5;" width="622.5" x="517.5" y="380.3828"/><rect fill="none" height="202.4609" style="stroke:#000000;stroke-width:1.5;" width="1785" x="10" y="443.0859"/><rect fill="none" height="79.0547" style="stroke:#000000;stroke-width:1.5;" width="673.5" x="20" y="529.1406"/><line style="stroke:#181818;stroke-width:0.5;stroke-dasharray:5.0,5.0;" x1="52" x2="52" y1="86.2188" y2="723.25"/><line style="stroke:#181818;stroke-width:0.5;stroke-dasharray:5.0,5.0;" x1="253.5" x2="253.5" y1="86.2188" y2="723.25"/><line style="stroke:#181818;stroke-width:0.5;stroke-dasharray:5.0,5.0;" x1="605.5" x2="605.5" y1="86.2188" y2="723.25"/><line style="stroke:#181818;stroke-width:0.5;stroke-dasharray:5.0,5.0;" x1="1075" x2="1075" y1="86.2188" y2="723.25"/><line style="stroke:#181818;stroke-width:0.5;stroke-dasharray:5.0,5.0;" x1="1237" x2="1237" y1="86.2188" y2="723.25"/><line style="stroke:#181818;stroke-width:0.5;stroke-dasharray:5.0,5.0;" x1="1431" x2="1431" y1="86.2188" y2="723.25"/><line style="stroke:#181818;stroke-width:0.5;stroke-dasharray:5.0,5.0;" x1="1656" x2="1656" y1="86.2188" y2="723.25"/><text fill="#000000" font-family="sans-serif" font-size="14" lengthAdjust="spacing" textLength="39" x="30" y="83.1426">Admin</text><ellipse cx="52.5" cy="17.1094" fill="#E2E2F0" rx="8" ry="8" style="stroke:#181818;stroke-width:0.5;"/><path d="M52.5,25.1094 L52.5,52.1094 M39.5,33.1094 L65.5,33.1094 M52.5,52.1094 L39.5,67.1094 M52.5,52.1094 L65.5,67.1094 " fill="none" style="stroke:#181818;stroke-width:0.5;"/><text fill="#000000" font-family="sans-serif" font-size="14" lengthAdjust="spacing" textLength="39" x="30" y="736.7832">Admin</text><ellipse cx="52.5" cy="748.3594" fill="#E2E2F0" rx="8" ry="8" style="stroke:#181818;stroke-width:0.5;"/><path d="M52.5,756.3594 L52.5,783.3594 M39.5,764.3594 L65.5,764.3594 M52.5,783.3594 L39.5,798.3594 M52.5,783.3594 L65.5,798.3594 " fill="none" style="stroke:#181818;stroke-width:0.5;"/><rect fill="#E2E2F0" height="49.2188" rx="2.5" ry="2.5" style="stroke:#181818;stroke-width:0.5;" width="178" x="164.5" y="36"/><text fill="#000000" font-family="sans-serif" font-size="14" font-style="italic" lengthAdjust="spacing" textLength="78" x="214.5" y="57.5332">&#171;Controller&#187;</text><text fill="#000000" font-family="sans-serif" font-size="14" lengthAdjust="spacing" textLength="164" x="171.5" y="75.1426">OperationTypesController</text><rect fill="#E2E2F0" height="49.2188" rx="2.5" ry="2.5" style="stroke:#181818;stroke-width:0.5;" width="178" x="164.5" y="722.25"/><text fill="#000000" font-family="sans-serif" font-size="14" font-style="italic" lengthAdjust="spacing" textLength="78" x="214.5" y="743.7832">&#171;Controller&#187;</text><text fill="#000000" font-family="sans-serif" font-size="14" lengthAdjust="spacing" textLength="164" x="171.5" y="761.3926">OperationTypesController</text><rect fill="#E2E2F0" height="49.2188" rx="2.5" ry="2.5" style="stroke:#181818;stroke-width:0.5;" width="156" x="527.5" y="36"/><text fill="#000000" font-family="sans-serif" font-size="14" font-style="italic" lengthAdjust="spacing" textLength="62" x="574.5" y="57.5332">&#171;Service&#187;</text><text fill="#000000" font-family="sans-serif" font-size="14" lengthAdjust="spacing" textLength="142" x="534.5" y="75.1426">OperationTypeService</text><rect fill="#E2E2F0" height="49.2188" rx="2.5" ry="2.5" style="stroke:#181818;stroke-width:0.5;" width="156" x="527.5" y="722.25"/><text fill="#000000" font-family="sans-serif" font-size="14" font-style="italic" lengthAdjust="spacing" textLength="62" x="574.5" y="743.7832">&#171;Service&#187;</text><text fill="#000000" font-family="sans-serif" font-size="14" lengthAdjust="spacing" textLength="142" x="534.5" y="761.3926">OperationTypeService</text><rect fill="#E2E2F0" height="49.2188" rx="2.5" ry="2.5" style="stroke:#181818;stroke-width:0.5;" width="109" x="1021" y="36"/><text fill="#000000" font-family="sans-serif" font-size="14" font-style="italic" lengthAdjust="spacing" textLength="64" x="1043.5" y="57.5332">&#171;Domain&#187;</text><text fill="#000000" font-family="sans-serif" font-size="14" lengthAdjust="spacing" textLength="95" x="1028" y="75.1426">OperationType</text><rect fill="#E2E2F0" height="49.2188" rx="2.5" ry="2.5" style="stroke:#181818;stroke-width:0.5;" width="109" x="1021" y="722.25"/><text fill="#000000" font-family="sans-serif" font-size="14" font-style="italic" lengthAdjust="spacing" textLength="64" x="1043.5" y="743.7832">&#171;Domain&#187;</text><text fill="#000000" font-family="sans-serif" font-size="14" lengthAdjust="spacing" textLength="95" x="1028" y="761.3926">OperationType</text><rect fill="#E2E2F0" height="49.2188" rx="2.5" ry="2.5" style="stroke:#181818;stroke-width:0.5;" width="195" x="1140" y="36"/><text fill="#000000" font-family="sans-serif" font-size="14" font-style="italic" lengthAdjust="spacing" textLength="64" x="1205.5" y="57.5332">&#171;Domain&#187;</text><text fill="#000000" font-family="sans-serif" font-size="14" lengthAdjust="spacing" textLength="181" x="1147" y="75.1426">OperationTypeSpecialization</text><rect fill="#E2E2F0" height="49.2188" rx="2.5" ry="2.5" style="stroke:#181818;stroke-width:0.5;" width="195" x="1140" y="722.25"/><text fill="#000000" font-family="sans-serif" font-size="14" font-style="italic" lengthAdjust="spacing" textLength="64" x="1205.5" y="743.7832">&#171;Domain&#187;</text><text fill="#000000" font-family="sans-serif" font-size="14" lengthAdjust="spacing" textLength="181" x="1147" y="761.3926">OperationTypeSpecialization</text><text fill="#000000" font-family="sans-serif" font-size="14" font-style="italic" lengthAdjust="spacing" textLength="64" x="1396" y="65.5332">&#171;Domain&#187;</text><text fill="#000000" font-family="sans-serif" font-size="14" lengthAdjust="spacing" textLength="166" x="1345" y="83.1426">IOperationTypeRepository</text><path d="M1413,15 C1413,5 1431,5 1431,5 C1431,5 1449,5 1449,15 L1449,41 C1449,51 1431,51 1431,51 C1431,51 1413,51 1413,41 L1413,15 " fill="#E2E2F0" style="stroke:#181818;stroke-width:1.5;"/><path d="M1413,15 C1413,25 1431,25 1431,25 C1431,25 1449,25 1449,15 " fill="none" style="stroke:#181818;stroke-width:1.5;"/><text fill="#000000" font-family="sans-serif" font-size="14" font-style="italic" lengthAdjust="spacing" textLength="64" x="1396" y="736.7832">&#171;Domain&#187;</text><text fill="#000000" font-family="sans-serif" font-size="14" lengthAdjust="spacing" textLength="166" x="1345" y="754.3926">IOperationTypeRepository</text><path d="M1413,767.4688 C1413,757.4688 1431,757.4688 1431,757.4688 C1431,757.4688 1449,757.4688 1449,767.4688 L1449,793.4688 C1449,803.4688 1431,803.4688 1431,803.4688 C1431,803.4688 1413,803.4688 1413,793.4688 L1413,767.4688 " fill="#E2E2F0" style="stroke:#181818;stroke-width:1.5;"/><path d="M1413,767.4688 C1413,777.4688 1431,777.4688 1431,777.4688 C1431,777.4688 1449,777.4688 1449,767.4688 " fill="none" style="stroke:#181818;stroke-width:1.5;"/><text fill="#000000" font-family="sans-serif" font-size="14" font-style="italic" lengthAdjust="spacing" textLength="64" x="1621" y="65.5332">&#171;Domain&#187;</text><text fill="#000000" font-family="sans-serif" font-size="14" lengthAdjust="spacing" textLength="252" x="1527" y="83.1426">IOperationTypeSpecializationRepository</text><path d="M1638,15 C1638,5 1656,5 1656,5 C1656,5 1674,5 1674,15 L1674,41 C1674,51 1656,51 1656,51 C1656,51 1638,51 1638,41 L1638,15 " fill="#E2E2F0" style="stroke:#181818;stroke-width:1.5;"/><path d="M1638,15 C1638,25 1656,25 1656,25 C1656,25 1674,25 1674,15 " fill="none" style="stroke:#181818;stroke-width:1.5;"/><text fill="#000000" font-family="sans-serif" font-size="14" font-style="italic" lengthAdjust="spacing" textLength="64" x="1621" y="736.7832">&#171;Domain&#187;</text><text fill="#000000" font-family="sans-serif" font-size="14" lengthAdjust="spacing" textLength="252" x="1527" y="754.3926">IOperationTypeSpecializationRepository</text><path d="M1638,767.4688 C1638,757.4688 1656,757.4688 1656,757.4688 C1656,757.4688 1674,757.4688 1674,767.4688 L1674,793.4688 C1674,803.4688 1656,803.4688 1656,803.4688 C1656,803.4688 1638,803.4688 1638,793.4688 L1638,767.4688 " fill="#E2E2F0" style="stroke:#181818;stroke-width:1.5;"/><path d="M1638,767.4688 C1638,777.4688 1656,777.4688 1656,777.4688 C1656,777.4688 1674,777.4688 1674,767.4688 " fill="none" style="stroke:#181818;stroke-width:1.5;"/><rect fill="#FFFFFF" height="609.0313" style="stroke:#181818;stroke-width:1.0;" width="10" x="47.5" y="96.2188"/><rect fill="#FFFFFF" height="586.6797" style="stroke:#181818;stroke-width:1.0;" width="10" x="248.5" y="118.5703"/><rect fill="#FFFFFF" height="525.9766" style="stroke:#181818;stroke-width:1.0;" width="10" x="600.5" y="148.9219"/><rect fill="#FFFFFF" height="30.3516" style="stroke:#181818;stroke-width:1.0;" width="10" x="1426" y="179.2734"/><rect fill="#FFFFFF" height="30.3516" style="stroke:#181818;stroke-width:1.0;" width="10" x="1651" y="483.7891"/><polygon fill="#181818" points="236.5,114.5703,246.5,118.5703,236.5,122.5703,240.5,118.5703" style="stroke:#181818;stroke-width:1.0;"/><line style="stroke:#181818;stroke-width:1.0;" x1="57.5" x2="242.5" y1="118.5703" y2="118.5703"/><text fill="#000000" font-family="sans-serif" font-size="13" font-weight="bold" lengthAdjust="spacing" textLength="7" x="64.5" y="113.7139">1</text><text fill="#000000" font-family="sans-serif" font-size="13" lengthAdjust="spacing" textLength="161" x="75.5" y="113.7139">PUT /api/operationtypes/{id}</text><polygon fill="#181818" points="588.5,144.9219,598.5,148.9219,588.5,152.9219,592.5,148.9219" style="stroke:#181818;stroke-width:1.0;"/><line style="stroke:#181818;stroke-width:1.0;" x1="258.5" x2="594.5" y1="148.9219" y2="148.9219"/><text fill="#000000" font-family="sans-serif" font-size="13" font-weight="bold" lengthAdjust="spacing" textLength="7" x="265.5" y="144.0654">2</text><text fill="#000000" font-family="sans-serif" font-size="13" lengthAdjust="spacing" textLength="312" x="276.5" y="144.0654">EditOperationTypeAsync(id, editingOperationTypeDto)</text><polygon fill="#181818" points="1414,175.2734,1424,179.2734,1414,183.2734,1418,179.2734" style="stroke:#181818;stroke-width:1.0;"/><line style="stroke:#181818;stroke-width:1.0;" x1="610.5" x2="1420" y1="179.2734" y2="179.2734"/><text fill="#000000" font-family="sans-serif" font-size="13" font-weight="bold" lengthAdjust="spacing" textLength="7" x="617.5" y="174.417">3</text><text fill="#000000" font-family="sans-serif" font-size="13" lengthAdjust="spacing" textLength="102" x="628.5" y="174.417">GetByIdAsync(id)</text><polygon fill="#181818" points="621.5,205.625,611.5,209.625,621.5,213.625,617.5,209.625" style="stroke:#181818;stroke-width:1.0;"/><line style="stroke:#181818;stroke-width:1.0;stroke-dasharray:2.0,2.0;" x1="615.5" x2="1430" y1="209.625" y2="209.625"/><text fill="#000000" font-family="sans-serif" font-size="13" font-weight="bold" lengthAdjust="spacing" textLength="7" x="627.5" y="204.7686">4</text><text fill="#000000" font-family="sans-serif" font-size="13" lengthAdjust="spacing" textLength="81" x="638.5" y="204.7686">operationType</text><path d="M20,224.625 L81,224.625 L81,232.9766 L71,242.9766 L20,242.9766 L20,224.625 " fill="#EEEEEE" style="stroke:#000000;stroke-width:1.5;"/><rect fill="none" height="79.0547" style="stroke:#000000;stroke-width:1.5;" width="673.5" x="20" y="224.625"/><text fill="#000000" font-family="sans-serif" font-size="13" font-weight="bold" lengthAdjust="spacing" textLength="16" x="35" y="239.1201">alt</text><text fill="#000000" font-family="sans-serif" font-size="11" font-weight="bold" lengthAdjust="spacing" textLength="126" x="96" y="238.0439">[operationType == null]</text><polygon fill="#181818" points="269.5,261.3281,259.5,265.3281,269.5,269.3281,265.5,265.3281" style="stroke:#181818;stroke-width:1.0;"/><line style="stroke:#181818;stroke-width:1.0;stroke-dasharray:2.0,2.0;" x1="263.5" x2="599.5" y1="265.3281" y2="265.3281"/><text fill="#000000" font-family="sans-serif" font-size="13" font-weight="bold" lengthAdjust="spacing" textLength="7" x="275.5" y="260.4717">5</text><text fill="#000000" font-family="sans-serif" font-size="13" lengthAdjust="spacing" textLength="138" x="286.5" y="260.4717">NullReferenceException</text><polygon fill="#181818" points="68.5,291.6797,58.5,295.6797,68.5,299.6797,64.5,295.6797" style="stroke:#181818;stroke-width:1.0;"/><line style="stroke:#181818;stroke-width:1.0;stroke-dasharray:2.0,2.0;" x1="62.5" x2="247.5" y1="295.6797" y2="295.6797"/><text fill="#000000" font-family="sans-serif" font-size="13" font-weight="bold" lengthAdjust="spacing" textLength="7" x="74.5" y="290.8232">6</text><text fill="#000000" font-family="sans-serif" font-size="13" lengthAdjust="spacing" textLength="85" x="85.5" y="290.8232">404 Not Found</text><path d="M517.5,317.6797 L578.5,317.6797 L578.5,326.0313 L568.5,336.0313 L517.5,336.0313 L517.5,317.6797 " fill="#EEEEEE" style="stroke:#000000;stroke-width:1.5;"/><rect fill="none" height="48.7031" style="stroke:#000000;stroke-width:1.5;" width="622.5" x="517.5" y="317.6797"/><text fill="#000000" font-family="sans-serif" font-size="13" font-weight="bold" lengthAdjust="spacing" textLength="16" x="532.5" y="332.1748">alt</text><text fill="#000000" font-family="sans-serif" font-size="11" font-weight="bold" lengthAdjust="spacing" textLength="95" x="593.5" y="331.0986">[dto.Name != null]</text><polygon fill="#181818" points="1063.5,354.3828,1073.5,358.3828,1063.5,362.3828,1067.5,358.3828" style="stroke:#181818;stroke-width:1.0;"/><line style="stroke:#181818;stroke-width:1.0;" x1="610.5" x2="1069.5" y1="358.3828" y2="358.3828"/><text fill="#000000" font-family="sans-serif" font-size="13" font-weight="bold" lengthAdjust="spacing" textLength="7" x="617.5" y="353.5264">7</text><text fill="#000000" font-family="sans-serif" font-size="13" lengthAdjust="spacing" textLength="295" x="628.5" y="353.5264">ChangeName(new OperationTypeName(dto.Name))</text><path d="M517.5,380.3828 L578.5,380.3828 L578.5,388.7344 L568.5,398.7344 L517.5,398.7344 L517.5,380.3828 " fill="#EEEEEE" style="stroke:#000000;stroke-width:1.5;"/><rect fill="none" height="48.7031" style="stroke:#000000;stroke-width:1.5;" width="622.5" x="517.5" y="380.3828"/><text fill="#000000" font-family="sans-serif" font-size="13" font-weight="bold" lengthAdjust="spacing" textLength="16" x="532.5" y="394.8779">alt</text><text fill="#000000" font-family="sans-serif" font-size="11" font-weight="bold" lengthAdjust="spacing" textLength="165" x="593.5" y="393.8018">[dto.EstimatedDuration != null]</text><polygon fill="#181818" points="1063.5,417.0859,1073.5,421.0859,1063.5,425.0859,1067.5,421.0859" style="stroke:#181818;stroke-width:1.0;"/><line style="stroke:#181818;stroke-width:1.0;" x1="610.5" x2="1069.5" y1="421.0859" y2="421.0859"/><text fill="#000000" font-family="sans-serif" font-size="13" font-weight="bold" lengthAdjust="spacing" textLength="7" x="617.5" y="416.2295">8</text><text fill="#000000" font-family="sans-serif" font-size="13" lengthAdjust="spacing" textLength="430" x="628.5" y="416.2295">ChangeEstimatedDuration(new EstimatedDuration(dto.EstimatedDuration))</text><path d="M10,443.0859 L71,443.0859 L71,451.4375 L61,461.4375 L10,461.4375 L10,443.0859 " fill="#EEEEEE" style="stroke:#000000;stroke-width:1.5;"/><rect fill="none" height="202.4609" style="stroke:#000000;stroke-width:1.5;" width="1785" x="10" y="443.0859"/><text fill="#000000" font-family="sans-serif" font-size="13" font-weight="bold" lengthAdjust="spacing" textLength="16" x="25" y="457.5811">alt</text><text fill="#000000" font-family="sans-serif" font-size="11" font-weight="bold" lengthAdjust="spacing" textLength="177" x="86" y="456.5049">[dto.staffBySpecialization != null]</text><polygon fill="#181818" points="1639,479.7891,1649,483.7891,1639,487.7891,1643,483.7891" style="stroke:#181818;stroke-width:1.0;"/><line style="stroke:#181818;stroke-width:1.0;" x1="610.5" x2="1645" y1="483.7891" y2="483.7891"/><text fill="#000000" font-family="sans-serif" font-size="13" font-weight="bold" lengthAdjust="spacing" textLength="7" x="617.5" y="478.9326">9</text><text fill="#000000" font-family="sans-serif" font-size="13" lengthAdjust="spacing" textLength="102" x="628.5" y="478.9326">GetByIdAsync(id)</text><polygon fill="#181818" points="621.5,510.1406,611.5,514.1406,621.5,518.1406,617.5,514.1406" style="stroke:#181818;stroke-width:1.0;"/><line style="stroke:#181818;stroke-width:1.0;stroke-dasharray:2.0,2.0;" x1="615.5" x2="1655" y1="514.1406" y2="514.1406"/><text fill="#000000" font-family="sans-serif" font-size="13" font-weight="bold" lengthAdjust="spacing" textLength="14" x="627.5" y="509.2842">10</text><text fill="#000000" font-family="sans-serif" font-size="13" lengthAdjust="spacing" textLength="162" x="645.5" y="509.2842">operationTypeSpecialization</text><path d="M20,529.1406 L81,529.1406 L81,537.4922 L71,547.4922 L20,547.4922 L20,529.1406 " fill="#EEEEEE" style="stroke:#000000;stroke-width:1.5;"/><rect fill="none" height="79.0547" style="stroke:#000000;stroke-width:1.5;" width="673.5" x="20" y="529.1406"/><text fill="#000000" font-family="sans-serif" font-size="13" font-weight="bold" lengthAdjust="spacing" textLength="16" x="35" y="543.6357">alt</text><text fill="#000000" font-family="sans-serif" font-size="11" font-weight="bold" lengthAdjust="spacing" textLength="126" x="96" y="542.5596">[operationType == null]</text><polygon fill="#181818" points="269.5,565.8438,259.5,569.8438,269.5,573.8438,265.5,569.8438" style="stroke:#181818;stroke-width:1.0;"/><line style="stroke:#181818;stroke-width:1.0;stroke-dasharray:2.0,2.0;" x1="263.5" x2="599.5" y1="569.8438" y2="569.8438"/><text fill="#000000" font-family="sans-serif" font-size="13" font-weight="bold" lengthAdjust="spacing" textLength="14" x="275.5" y="564.9873">11</text><text fill="#000000" font-family="sans-serif" font-size="13" lengthAdjust="spacing" textLength="138" x="293.5" y="564.9873">NullReferenceException</text><polygon fill="#181818" points="68.5,596.1953,58.5,600.1953,68.5,604.1953,64.5,600.1953" style="stroke:#181818;stroke-width:1.0;"/><line style="stroke:#181818;stroke-width:1.0;stroke-dasharray:2.0,2.0;" x1="62.5" x2="247.5" y1="600.1953" y2="600.1953"/><text fill="#000000" font-family="sans-serif" font-size="13" font-weight="bold" lengthAdjust="spacing" textLength="14" x="74.5" y="595.3389">12</text><text fill="#000000" font-family="sans-serif" font-size="13" lengthAdjust="spacing" textLength="85" x="92.5" y="595.3389">404 Not Found</text><polygon fill="#181818" points="1225.5,633.5469,1235.5,637.5469,1225.5,641.5469,1229.5,637.5469" style="stroke:#181818;stroke-width:1.0;"/><line style="stroke:#181818;stroke-width:1.0;" x1="610.5" x2="1231.5" y1="637.5469" y2="637.5469"/><text fill="#000000" font-family="sans-serif" font-size="13" font-weight="bold" lengthAdjust="spacing" textLength="14" x="617.5" y="632.6904">13</text><text fill="#000000" font-family="sans-serif" font-size="13" lengthAdjust="spacing" textLength="447" x="635.5" y="632.6904">ChangeNumberOfStaff(new NumberOffStaff(dto.Specialization.numberOfStaff))</text><polygon fill="#181818" points="269.5,670.8984,259.5,674.8984,269.5,678.8984,265.5,674.8984" style="stroke:#181818;stroke-width:1.0;"/><line style="stroke:#181818;stroke-width:1.0;stroke-dasharray:2.0,2.0;" x1="263.5" x2="604.5" y1="674.8984" y2="674.8984"/><text fill="#000000" font-family="sans-serif" font-size="13" font-weight="bold" lengthAdjust="spacing" textLength="14" x="275.5" y="670.042">14</text><text fill="#000000" font-family="sans-serif" font-size="13" lengthAdjust="spacing" textLength="101" x="293.5" y="670.042">operationTypeDto</text><polygon fill="#181818" points="63.5,701.25,53.5,705.25,63.5,709.25,59.5,705.25" style="stroke:#181818;stroke-width:1.0;"/><line style="stroke:#181818;stroke-width:1.0;stroke-dasharray:2.0,2.0;" x1="57.5" x2="252.5" y1="705.25" y2="705.25"/><text fill="#000000" font-family="sans-serif" font-size="13" font-weight="bold" lengthAdjust="spacing" textLength="14" x="69.5" y="700.3936">15</text><text fill="#000000" font-family="sans-serif" font-size="13" lengthAdjust="spacing" textLength="44" x="87.5" y="700.3936">200 OK</text><!--SRC=[hLRRSjem47tNLsnvWfbo2IMTrfDacWII2I6NIKZwBAmbqOoHFB9CIplzzqeA1Wl7t5ezoRiwvwoqkv9fggL89oDKXD1GImMLKpRXeW8q0JSZCLMQXpocGaFbBaP5DPTYE8inEPT2Anb5gDpwvISS7Iq_JaxMS3oYcl8G7Nu-D-3vR2tIGJoB0NRbX7AnNZ76aDE8_tAM8ellptCogkc89WYLAm_nWB5Ck3cyMP5jwTk6oTTUnrksCgzYCygdLECyas26cq7z99-i0EwVXj2aCM_AJ4FR_3P_S_R7mHPCIvYpsv5ZChnP4WFeCQwzc4-JcGYhd7q4D2ukNZnlLylQWdEXDwTREEp898nQsLa7S8dwR7R5CisQnx2WBy5xY-qeqwbxEvRvLHu7mvqaQQHzCZW-1f56KI6mmfciflRMe1vmZ0f5YBsV8SQMyrsUV28DpLkf1D1fTU1MQhYGgM0U40MpeHP2PresRka4uSEsKQzaqgYUlrBnWfQbAl27xtRMJAHMopDk7LylqNnYyi6wwHlnlmTRe7IH5wtlok-vZKJJyVXijd9fxRkLqbjbGpzjxgqovbAQGjULnhQc1trCgLPPT-uSzEvz-xzwT-yUtbHekvVDiddTZyNT-D7MgEk5p38tsGBsiGsHnspH4sIhWvGh3mrv9_FvbwRa5Dkj5jnTanLWxaaaEVFRc_lD14h8VMJ-Gvvk1Z15bTWZEcYqM-rEurDr-9h21OxWu10ElWQTLj0wXE-z8LXtZLGlxmVJDYGoLMPRZ2TQyL7ghWlIfrCA3wamzmW6DX-YtxtE3D0JKwwacA3GfFzyirpmkLC_uzhjrkpk-OPqSKnJKxSz4Kfc7kK0deONzIzaO5AOqXV37MjoRkf6gvdvKnZ-1G00]--></g></svg>