<?xml version="1.0" encoding="us-ascii" standalone="no"?><svg xmlns="http://www.w3.org/2000/svg" xmlns:xlink="http://www.w3.org/1999/xlink" contentStyleType="text/css" height="993px" preserveAspectRatio="none" style="width:1647px;height:993px;background:#FFFFFF;" version="1.1" viewBox="0 0 1647 993" width="1647px" zoomAndPan="magnify"><defs/><g><rect fill="#FFFFFF" height="781.7891" style="stroke:#181818;stroke-width:1.0;" width="10" x="37.5" y="96.2188"/><rect fill="#FFFFFF" height="759.4375" style="stroke:#181818;stroke-width:1.0;" width="10" x="220.5" y="118.5703"/><rect fill="#FFFFFF" height="698.7344" style="stroke:#181818;stroke-width:1.0;" width="10" x="403.5" y="148.9219"/><rect fill="#FFFFFF" height="41.3516" style="stroke:#181818;stroke-width:1.0;" width="10" x="408.5" y="427.0859"/><rect fill="#FFFFFF" height="30.3516" style="stroke:#181818;stroke-width:1.0;" width="10" x="670.5" y="786.9531"/><rect fill="#FFFFFF" height="30.3516" style="stroke:#181818;stroke-width:1.0;" width="10" x="967.5" y="505.7891"/><rect fill="#FFFFFF" height="30.3516" style="stroke:#181818;stroke-width:1.0;" width="10" x="1220.5" y="351.3828"/><rect fill="#FFFFFF" height="30.3516" style="stroke:#181818;stroke-width:1.0;" width="10" x="1344" y="179.2734"/><rect fill="#FFFFFF" height="30.3516" style="stroke:#181818;stroke-width:1.0;" width="10" x="1528" y="566.4922"/><rect fill="none" height="79.0547" style="stroke:#000000;stroke-width:1.5;" width="942.5" x="346" y="310.6797"/><rect fill="none" height="115.4063" style="stroke:#000000;stroke-width:1.5;" width="942.5" x="346" y="642.1953"/><line style="stroke:#181818;stroke-width:0.5;stroke-dasharray:5.0,5.0;" x1="42" x2="42" y1="86.2188" y2="896.0078"/><line style="stroke:#181818;stroke-width:0.5;stroke-dasharray:5.0,5.0;" x1="225" x2="225" y1="86.2188" y2="896.0078"/><line style="stroke:#181818;stroke-width:0.5;stroke-dasharray:5.0,5.0;" x1="408" x2="408" y1="86.2188" y2="896.0078"/><line style="stroke:#181818;stroke-width:0.5;stroke-dasharray:5.0,5.0;" x1="675.5" x2="675.5" y1="86.2188" y2="896.0078"/><line style="stroke:#181818;stroke-width:0.5;stroke-dasharray:5.0,5.0;" x1="972.5" x2="972.5" y1="86.2188" y2="896.0078"/><line style="stroke:#181818;stroke-width:0.5;stroke-dasharray:5.0,5.0;" x1="1113.5" x2="1113.5" y1="86.2188" y2="896.0078"/><line style="stroke:#181818;stroke-width:0.5;stroke-dasharray:5.0,5.0;" x1="1225.5" x2="1225.5" y1="86.2188" y2="896.0078"/><line style="stroke:#181818;stroke-width:0.5;stroke-dasharray:5.0,5.0;" x1="1348.5" x2="1348.5" y1="86.2188" y2="896.0078"/><line style="stroke:#181818;stroke-width:0.5;stroke-dasharray:5.0,5.0;" x1="1532.5" x2="1532.5" y1="86.2188" y2="896.0078"/><text fill="#000000" font-family="sans-serif" font-size="14" lengthAdjust="spacing" textLength="39" x="20" y="83.1426">Admin</text><ellipse cx="42.5" cy="17.1094" fill="#E2E2F0" rx="8" ry="8" style="stroke:#181818;stroke-width:0.5;"/><path d="M42.5,25.1094 L42.5,52.1094 M29.5,33.1094 L55.5,33.1094 M42.5,52.1094 L29.5,67.1094 M42.5,52.1094 L55.5,67.1094 " fill="none" style="stroke:#181818;stroke-width:0.5;"/><text fill="#000000" font-family="sans-serif" font-size="14" lengthAdjust="spacing" textLength="39" x="20" y="909.541">Admin</text><ellipse cx="42.5" cy="921.1172" fill="#E2E2F0" rx="8" ry="8" style="stroke:#181818;stroke-width:0.5;"/><path d="M42.5,929.1172 L42.5,956.1172 M29.5,937.1172 L55.5,937.1172 M42.5,956.1172 L29.5,971.1172 M42.5,956.1172 L55.5,971.1172 " fill="none" style="stroke:#181818;stroke-width:0.5;"/><rect fill="#E2E2F0" height="49.2188" rx="2.5" ry="2.5" style="stroke:#181818;stroke-width:0.5;" width="127" x="162" y="36"/><text fill="#000000" font-family="sans-serif" font-size="14" font-style="italic" lengthAdjust="spacing" textLength="78" x="186.5" y="57.5332">&#171;Controller&#187;</text><text fill="#000000" font-family="sans-serif" font-size="14" lengthAdjust="spacing" textLength="113" x="169" y="75.1426">PatientsController</text><rect fill="#E2E2F0" height="49.2188" rx="2.5" ry="2.5" style="stroke:#181818;stroke-width:0.5;" width="127" x="162" y="895.0078"/><text fill="#000000" font-family="sans-serif" font-size="14" font-style="italic" lengthAdjust="spacing" textLength="78" x="186.5" y="916.541">&#171;Controller&#187;</text><text fill="#000000" font-family="sans-serif" font-size="14" lengthAdjust="spacing" textLength="113" x="169" y="934.1504">PatientsController</text><rect fill="#E2E2F0" height="49.2188" rx="2.5" ry="2.5" style="stroke:#181818;stroke-width:0.5;" width="105" x="356" y="36"/><text fill="#000000" font-family="sans-serif" font-size="14" font-style="italic" lengthAdjust="spacing" textLength="62" x="377.5" y="57.5332">&#171;Service&#187;</text><text fill="#000000" font-family="sans-serif" font-size="14" lengthAdjust="spacing" textLength="91" x="363" y="75.1426">PatientService</text><rect fill="#E2E2F0" height="49.2188" rx="2.5" ry="2.5" style="stroke:#181818;stroke-width:0.5;" width="105" x="356" y="895.0078"/><text fill="#000000" font-family="sans-serif" font-size="14" font-style="italic" lengthAdjust="spacing" textLength="62" x="377.5" y="916.541">&#171;Service&#187;</text><text fill="#000000" font-family="sans-serif" font-size="14" lengthAdjust="spacing" textLength="91" x="363" y="934.1504">PatientService</text><rect fill="#E2E2F0" height="49.2188" rx="2.5" ry="2.5" style="stroke:#181818;stroke-width:0.5;" width="80" x="635.5" y="36"/><text fill="#000000" font-family="sans-serif" font-size="14" font-style="italic" lengthAdjust="spacing" textLength="64" x="643.5" y="57.5332">&#171;Domain&#187;</text><text fill="#000000" font-family="sans-serif" font-size="14" lengthAdjust="spacing" textLength="66" x="642.5" y="75.1426">PatientDto</text><rect fill="#E2E2F0" height="49.2188" rx="2.5" ry="2.5" style="stroke:#181818;stroke-width:0.5;" width="80" x="635.5" y="895.0078"/><text fill="#000000" font-family="sans-serif" font-size="14" font-style="italic" lengthAdjust="spacing" textLength="64" x="643.5" y="916.541">&#171;Domain&#187;</text><text fill="#000000" font-family="sans-serif" font-size="14" lengthAdjust="spacing" textLength="66" x="642.5" y="934.1504">PatientDto</text><rect fill="#E2E2F0" height="49.2188" rx="2.5" ry="2.5" style="stroke:#181818;stroke-width:0.5;" width="164" x="890.5" y="36"/><text fill="#000000" font-family="sans-serif" font-size="14" font-style="italic" lengthAdjust="spacing" textLength="64" x="940.5" y="57.5332">&#171;Domain&#187;</text><text fill="#000000" font-family="sans-serif" font-size="14" lengthAdjust="spacing" textLength="150" x="897.5" y="75.1426">AnonymizedPatientData</text><rect fill="#E2E2F0" height="49.2188" rx="2.5" ry="2.5" style="stroke:#181818;stroke-width:0.5;" width="164" x="890.5" y="895.0078"/><text fill="#000000" font-family="sans-serif" font-size="14" font-style="italic" lengthAdjust="spacing" textLength="64" x="940.5" y="916.541">&#171;Domain&#187;</text><text fill="#000000" font-family="sans-serif" font-size="14" lengthAdjust="spacing" textLength="150" x="897.5" y="934.1504">AnonymizedPatientData</text><rect fill="#E2E2F0" height="49.2188" rx="2.5" ry="2.5" style="stroke:#181818;stroke-width:0.5;" width="98" x="1064.5" y="36"/><text fill="#000000" font-family="sans-serif" font-size="14" font-style="italic" lengthAdjust="spacing" textLength="64" x="1081.5" y="57.5332">&#171;Domain&#187;</text><text fill="#000000" font-family="sans-serif" font-size="14" lengthAdjust="spacing" textLength="84" x="1071.5" y="75.1426">IEmailService</text><rect fill="#E2E2F0" height="49.2188" rx="2.5" ry="2.5" style="stroke:#181818;stroke-width:0.5;" width="98" x="1064.5" y="895.0078"/><text fill="#000000" font-family="sans-serif" font-size="14" font-style="italic" lengthAdjust="spacing" textLength="64" x="1081.5" y="916.541">&#171;Domain&#187;</text><text fill="#000000" font-family="sans-serif" font-size="14" lengthAdjust="spacing" textLength="84" x="1071.5" y="934.1504">IEmailService</text><text fill="#000000" font-family="sans-serif" font-size="14" font-style="italic" lengthAdjust="spacing" textLength="64" x="1190.5" y="65.5332">&#171;Domain&#187;</text><text fill="#000000" font-family="sans-serif" font-size="14" lengthAdjust="spacing" textLength="100" x="1172.5" y="83.1426">IUserRepository</text><path d="M1207.5,15 C1207.5,5 1225.5,5 1225.5,5 C1225.5,5 1243.5,5 1243.5,15 L1243.5,41 C1243.5,51 1225.5,51 1225.5,51 C1225.5,51 1207.5,51 1207.5,41 L1207.5,15 " fill="#E2E2F0" style="stroke:#181818;stroke-width:1.5;"/><path d="M1207.5,15 C1207.5,25 1225.5,25 1225.5,25 C1225.5,25 1243.5,25 1243.5,15 " fill="none" style="stroke:#181818;stroke-width:1.5;"/><text fill="#000000" font-family="sans-serif" font-size="14" font-style="italic" lengthAdjust="spacing" textLength="64" x="1190.5" y="909.541">&#171;Domain&#187;</text><text fill="#000000" font-family="sans-serif" font-size="14" lengthAdjust="spacing" textLength="100" x="1172.5" y="927.1504">IUserRepository</text><path d="M1207.5,940.2266 C1207.5,930.2266 1225.5,930.2266 1225.5,930.2266 C1225.5,930.2266 1243.5,930.2266 1243.5,940.2266 L1243.5,966.2266 C1243.5,976.2266 1225.5,976.2266 1225.5,976.2266 C1225.5,976.2266 1207.5,976.2266 1207.5,966.2266 L1207.5,940.2266 " fill="#E2E2F0" style="stroke:#181818;stroke-width:1.5;"/><path d="M1207.5,940.2266 C1207.5,950.2266 1225.5,950.2266 1225.5,950.2266 C1225.5,950.2266 1243.5,950.2266 1243.5,940.2266 " fill="none" style="stroke:#181818;stroke-width:1.5;"/><text fill="#000000" font-family="sans-serif" font-size="14" font-style="italic" lengthAdjust="spacing" textLength="64" x="1314" y="65.5332">&#171;Domain&#187;</text><text fill="#000000" font-family="sans-serif" font-size="14" lengthAdjust="spacing" textLength="115" x="1288.5" y="83.1426">IPatientRepository</text><path d="M1331,15 C1331,5 1349,5 1349,5 C1349,5 1367,5 1367,15 L1367,41 C1367,51 1349,51 1349,51 C1349,51 1331,51 1331,41 L1331,15 " fill="#E2E2F0" style="stroke:#181818;stroke-width:1.5;"/><path d="M1331,15 C1331,25 1349,25 1349,25 C1349,25 1367,25 1367,15 " fill="none" style="stroke:#181818;stroke-width:1.5;"/><text fill="#000000" font-family="sans-serif" font-size="14" font-style="italic" lengthAdjust="spacing" textLength="64" x="1314" y="909.541">&#171;Domain&#187;</text><text fill="#000000" font-family="sans-serif" font-size="14" lengthAdjust="spacing" textLength="115" x="1288.5" y="927.1504">IPatientRepository</text><path d="M1331,940.2266 C1331,930.2266 1349,930.2266 1349,930.2266 C1349,930.2266 1367,930.2266 1367,940.2266 L1367,966.2266 C1367,976.2266 1349,976.2266 1349,976.2266 C1349,976.2266 1331,976.2266 1331,966.2266 L1331,940.2266 " fill="#E2E2F0" style="stroke:#181818;stroke-width:1.5;"/><path d="M1331,940.2266 C1331,950.2266 1349,950.2266 1349,950.2266 C1349,950.2266 1367,950.2266 1367,940.2266 " fill="none" style="stroke:#181818;stroke-width:1.5;"/><text fill="#000000" font-family="sans-serif" font-size="14" font-style="italic" lengthAdjust="spacing" textLength="64" x="1498" y="65.5332">&#171;Domain&#187;</text><text fill="#000000" font-family="sans-serif" font-size="14" lengthAdjust="spacing" textLength="221" x="1419.5" y="83.1426">IAnonymizedPatientDataRepository</text><path d="M1515,15 C1515,5 1533,5 1533,5 C1533,5 1551,5 1551,15 L1551,41 C1551,51 1533,51 1533,51 C1533,51 1515,51 1515,41 L1515,15 " fill="#E2E2F0" style="stroke:#181818;stroke-width:1.5;"/><path d="M1515,15 C1515,25 1533,25 1533,25 C1533,25 1551,25 1551,15 " fill="none" style="stroke:#181818;stroke-width:1.5;"/><text fill="#000000" font-family="sans-serif" font-size="14" font-style="italic" lengthAdjust="spacing" textLength="64" x="1498" y="909.541">&#171;Domain&#187;</text><text fill="#000000" font-family="sans-serif" font-size="14" lengthAdjust="spacing" textLength="221" x="1419.5" y="927.1504">IAnonymizedPatientDataRepository</text><path d="M1515,940.2266 C1515,930.2266 1533,930.2266 1533,930.2266 C1533,930.2266 1551,930.2266 1551,940.2266 L1551,966.2266 C1551,976.2266 1533,976.2266 1533,976.2266 C1533,976.2266 1515,976.2266 1515,966.2266 L1515,940.2266 " fill="#E2E2F0" style="stroke:#181818;stroke-width:1.5;"/><path d="M1515,940.2266 C1515,950.2266 1533,950.2266 1533,950.2266 C1533,950.2266 1551,950.2266 1551,940.2266 " fill="none" style="stroke:#181818;stroke-width:1.5;"/><rect fill="#FFFFFF" height="781.7891" style="stroke:#181818;stroke-width:1.0;" width="10" x="37.5" y="96.2188"/><rect fill="#FFFFFF" height="759.4375" style="stroke:#181818;stroke-width:1.0;" width="10" x="220.5" y="118.5703"/><rect fill="#FFFFFF" height="698.7344" style="stroke:#181818;stroke-width:1.0;" width="10" x="403.5" y="148.9219"/><rect fill="#FFFFFF" height="41.3516" style="stroke:#181818;stroke-width:1.0;" width="10" x="408.5" y="427.0859"/><rect fill="#FFFFFF" height="30.3516" style="stroke:#181818;stroke-width:1.0;" width="10" x="670.5" y="786.9531"/><rect fill="#FFFFFF" height="30.3516" style="stroke:#181818;stroke-width:1.0;" width="10" x="967.5" y="505.7891"/><rect fill="#FFFFFF" height="30.3516" style="stroke:#181818;stroke-width:1.0;" width="10" x="1220.5" y="351.3828"/><rect fill="#FFFFFF" height="30.3516" style="stroke:#181818;stroke-width:1.0;" width="10" x="1344" y="179.2734"/><rect fill="#FFFFFF" height="30.3516" style="stroke:#181818;stroke-width:1.0;" width="10" x="1528" y="566.4922"/><polygon fill="#181818" points="208.5,114.5703,218.5,118.5703,208.5,122.5703,212.5,118.5703" style="stroke:#181818;stroke-width:1.0;"/><line style="stroke:#181818;stroke-width:1.0;" x1="47.5" x2="214.5" y1="118.5703" y2="118.5703"/><text fill="#000000" font-family="sans-serif" font-size="13" font-weight="bold" lengthAdjust="spacing" textLength="7" x="54.5" y="113.7139">1</text><text fill="#000000" font-family="sans-serif" font-size="13" lengthAdjust="spacing" textLength="143" x="65.5" y="113.7139">DELETE api/patients/{id}</text><polygon fill="#181818" points="391.5,144.9219,401.5,148.9219,391.5,152.9219,395.5,148.9219" style="stroke:#181818;stroke-width:1.0;"/><line style="stroke:#181818;stroke-width:1.0;" x1="230.5" x2="397.5" y1="148.9219" y2="148.9219"/><text fill="#000000" font-family="sans-serif" font-size="13" font-weight="bold" lengthAdjust="spacing" textLength="7" x="237.5" y="144.0654">2</text><text fill="#000000" font-family="sans-serif" font-size="13" lengthAdjust="spacing" textLength="133" x="248.5" y="144.0654">DeletePatientAsync(id)</text><polygon fill="#181818" points="1332,175.2734,1342,179.2734,1332,183.2734,1336,179.2734" style="stroke:#181818;stroke-width:1.0;"/><line style="stroke:#181818;stroke-width:1.0;" x1="413.5" x2="1338" y1="179.2734" y2="179.2734"/><text fill="#000000" font-family="sans-serif" font-size="13" font-weight="bold" lengthAdjust="spacing" textLength="7" x="420.5" y="174.417">3</text><text fill="#000000" font-family="sans-serif" font-size="13" lengthAdjust="spacing" textLength="102" x="431.5" y="174.417">GetByIdAsync(id)</text><polygon fill="#181818" points="424.5,205.625,414.5,209.625,424.5,213.625,420.5,209.625" style="stroke:#181818;stroke-width:1.0;"/><line style="stroke:#181818;stroke-width:1.0;stroke-dasharray:2.0,2.0;" x1="418.5" x2="1348" y1="209.625" y2="209.625"/><text fill="#000000" font-family="sans-serif" font-size="13" font-weight="bold" lengthAdjust="spacing" textLength="7" x="430.5" y="204.7686">4</text><text fill="#000000" font-family="sans-serif" font-size="13" lengthAdjust="spacing" textLength="39" x="441.5" y="204.7686">patient</text><polygon fill="#181818" points="241.5,261.3281,231.5,265.3281,241.5,269.3281,237.5,265.3281" style="stroke:#181818;stroke-width:1.0;"/><line style="stroke:#181818;stroke-width:1.0;stroke-dasharray:2.0,2.0;" x1="235.5" x2="402.5" y1="265.3281" y2="265.3281"/><text fill="#000000" font-family="sans-serif" font-size="13" font-weight="bold" lengthAdjust="spacing" textLength="7" x="247.5" y="260.4717">5</text><text fill="#000000" font-family="sans-serif" font-size="13" lengthAdjust="spacing" textLength="138" x="258.5" y="260.4717">NullReferenceException</text><polygon fill="#181818" points="58.5,291.6797,48.5,295.6797,58.5,299.6797,54.5,295.6797" style="stroke:#181818;stroke-width:1.0;"/><line style="stroke:#181818;stroke-width:1.0;stroke-dasharray:2.0,2.0;" x1="52.5" x2="219.5" y1="295.6797" y2="295.6797"/><text fill="#000000" font-family="sans-serif" font-size="13" font-weight="bold" lengthAdjust="spacing" textLength="7" x="64.5" y="290.8232">6</text><text fill="#000000" font-family="sans-serif" font-size="13" lengthAdjust="spacing" textLength="85" x="75.5" y="290.8232">404 Not Found</text><path d="M346,310.6797 L407,310.6797 L407,319.0313 L397,329.0313 L346,329.0313 L346,310.6797 " fill="#EEEEEE" style="stroke:#000000;stroke-width:1.5;"/><rect fill="none" height="79.0547" style="stroke:#000000;stroke-width:1.5;" width="942.5" x="346" y="310.6797"/><text fill="#000000" font-family="sans-serif" font-size="13" font-weight="bold" lengthAdjust="spacing" textLength="16" x="361" y="325.1748">alt</text><text fill="#000000" font-family="sans-serif" font-size="11" font-weight="bold" lengthAdjust="spacing" textLength="66" x="422" y="324.0986">[user !=null]</text><polygon fill="#181818" points="1208.5,347.3828,1218.5,351.3828,1208.5,355.3828,1212.5,351.3828" style="stroke:#181818;stroke-width:1.0;"/><line style="stroke:#181818;stroke-width:1.0;" x1="413.5" x2="1214.5" y1="351.3828" y2="351.3828"/><text fill="#000000" font-family="sans-serif" font-size="13" font-weight="bold" lengthAdjust="spacing" textLength="7" x="420.5" y="346.5264">7</text><text fill="#000000" font-family="sans-serif" font-size="13" lengthAdjust="spacing" textLength="102" x="431.5" y="346.5264">GetByIdAsync(id)</text><polygon fill="#181818" points="424.5,377.7344,414.5,381.7344,424.5,385.7344,420.5,381.7344" style="stroke:#181818;stroke-width:1.0;"/><line style="stroke:#181818;stroke-width:1.0;stroke-dasharray:2.0,2.0;" x1="418.5" x2="1224.5" y1="381.7344" y2="381.7344"/><text fill="#000000" font-family="sans-serif" font-size="13" font-weight="bold" lengthAdjust="spacing" textLength="7" x="430.5" y="376.8779">8</text><text fill="#000000" font-family="sans-serif" font-size="13" lengthAdjust="spacing" textLength="25" x="441.5" y="376.8779">user</text><line style="stroke:#181818;stroke-width:1.0;" x1="413.5" x2="460.5" y1="414.0859" y2="414.0859"/><line style="stroke:#181818;stroke-width:1.0;" x1="460.5" x2="460.5" y1="414.0859" y2="427.0859"/><line style="stroke:#181818;stroke-width:1.0;" x1="419.5" x2="460.5" y1="427.0859" y2="427.0859"/><polygon fill="#181818" points="429.5,423.0859,419.5,427.0859,429.5,431.0859,425.5,427.0859" style="stroke:#181818;stroke-width:1.0;"/><text fill="#000000" font-family="sans-serif" font-size="13" font-weight="bold" lengthAdjust="spacing" textLength="7" x="425.5" y="409.2295">9</text><text fill="#000000" font-family="sans-serif" font-size="13" lengthAdjust="spacing" textLength="232" x="436.5" y="409.2295">CalculateAgeRange(patient.DateOfBirth)</text><line style="stroke:#181818;stroke-width:1.0;stroke-dasharray:2.0,2.0;" x1="418.5" x2="460.5" y1="467.4375" y2="467.4375"/><line style="stroke:#181818;stroke-width:1.0;stroke-dasharray:2.0,2.0;" x1="460.5" x2="460.5" y1="467.4375" y2="480.4375"/><line style="stroke:#181818;stroke-width:1.0;stroke-dasharray:2.0,2.0;" x1="413.5" x2="460.5" y1="480.4375" y2="480.4375"/><polygon fill="#181818" points="423.5,476.4375,413.5,480.4375,423.5,484.4375,419.5,480.4375" style="stroke:#181818;stroke-width:1.0;"/><text fill="#000000" font-family="sans-serif" font-size="13" font-weight="bold" lengthAdjust="spacing" textLength="14" x="425.5" y="462.5811">10</text><text fill="#000000" font-family="sans-serif" font-size="13" lengthAdjust="spacing" textLength="58" x="443.5" y="462.5811">ageRange</text><polygon fill="#181818" points="955.5,501.7891,965.5,505.7891,955.5,509.7891,959.5,505.7891" style="stroke:#181818;stroke-width:1.0;"/><line style="stroke:#181818;stroke-width:1.0;" x1="413.5" x2="961.5" y1="505.7891" y2="505.7891"/><text fill="#000000" font-family="sans-serif" font-size="13" font-weight="bold" lengthAdjust="spacing" textLength="14" x="420.5" y="500.9326">11</text><text fill="#000000" font-family="sans-serif" font-size="13" lengthAdjust="spacing" textLength="517" x="438.5" y="500.9326">create(ageRange, patient.Gender, patient.MedicalConditions, patient.AppointmentHistory)</text><polygon fill="#181818" points="424.5,532.1406,414.5,536.1406,424.5,540.1406,420.5,536.1406" style="stroke:#181818;stroke-width:1.0;"/><line style="stroke:#181818;stroke-width:1.0;stroke-dasharray:2.0,2.0;" x1="418.5" x2="971.5" y1="536.1406" y2="536.1406"/><text fill="#000000" font-family="sans-serif" font-size="13" font-weight="bold" lengthAdjust="spacing" textLength="14" x="430.5" y="531.2842">12</text><text fill="#000000" font-family="sans-serif" font-size="13" lengthAdjust="spacing" textLength="138" x="448.5" y="531.2842">anonymizedPatientData</text><polygon fill="#181818" points="1516,562.4922,1526,566.4922,1516,570.4922,1520,566.4922" style="stroke:#181818;stroke-width:1.0;"/><line style="stroke:#181818;stroke-width:1.0;" x1="413.5" x2="1522" y1="566.4922" y2="566.4922"/><text fill="#000000" font-family="sans-serif" font-size="13" font-weight="bold" lengthAdjust="spacing" textLength="14" x="420.5" y="561.6357">13</text><text fill="#000000" font-family="sans-serif" font-size="13" lengthAdjust="spacing" textLength="206" x="438.5" y="561.6357">AddAsync(anonymizedPatientData)</text><polygon fill="#181818" points="424.5,592.8438,414.5,596.8438,424.5,600.8438,420.5,596.8438" style="stroke:#181818;stroke-width:1.0;"/><line style="stroke:#181818;stroke-width:1.0;stroke-dasharray:2.0,2.0;" x1="418.5" x2="1532" y1="596.8438" y2="596.8438"/><text fill="#000000" font-family="sans-serif" font-size="13" font-weight="bold" lengthAdjust="spacing" textLength="14" x="430.5" y="591.9873">14</text><text fill="#000000" font-family="sans-serif" font-size="13" lengthAdjust="spacing" textLength="138" x="448.5" y="591.9873">anonymizedPatientData</text><polygon fill="#181818" points="1337,623.1953,1347,627.1953,1337,631.1953,1341,627.1953" style="stroke:#181818;stroke-width:1.0;"/><line style="stroke:#181818;stroke-width:1.0;" x1="413.5" x2="1343" y1="627.1953" y2="627.1953"/><text fill="#000000" font-family="sans-serif" font-size="13" font-weight="bold" lengthAdjust="spacing" textLength="14" x="420.5" y="622.3389">15</text><text fill="#000000" font-family="sans-serif" font-size="13" lengthAdjust="spacing" textLength="93" x="438.5" y="622.3389">Remove(patient)</text><path d="M346,642.1953 L407,642.1953 L407,650.5469 L397,660.5469 L346,660.5469 L346,642.1953 " fill="#EEEEEE" style="stroke:#000000;stroke-width:1.5;"/><rect fill="none" height="115.4063" style="stroke:#000000;stroke-width:1.5;" width="942.5" x="346" y="642.1953"/><text fill="#000000" font-family="sans-serif" font-size="13" font-weight="bold" lengthAdjust="spacing" textLength="16" x="361" y="656.6904">alt</text><text fill="#000000" font-family="sans-serif" font-size="11" font-weight="bold" lengthAdjust="spacing" textLength="63" x="422" y="655.6143">[user!=null]</text><polygon fill="#181818" points="1213.5,678.8984,1223.5,682.8984,1213.5,686.8984,1217.5,682.8984" style="stroke:#181818;stroke-width:1.0;"/><line style="stroke:#181818;stroke-width:1.0;" x1="413.5" x2="1219.5" y1="682.8984" y2="682.8984"/><text fill="#000000" font-family="sans-serif" font-size="13" font-weight="bold" lengthAdjust="spacing" textLength="14" x="420.5" y="678.042">16</text><text fill="#000000" font-family="sans-serif" font-size="13" lengthAdjust="spacing" textLength="79" x="438.5" y="678.042">Remove(user)</text><path d="M418,695.8984 L418,721.8984 L598,721.8984 L598,705.8984 L588,695.8984 L418,695.8984 " fill="#FEFFDD" style="stroke:#181818;stroke-width:0.5;"/><path d="M588,695.8984 L588,705.8984 L598,705.8984 L588,695.8984 " fill="#FEFFDD" style="stroke:#181818;stroke-width:0.5;"/><text fill="#000000" font-family="sans-serif" font-size="13" lengthAdjust="spacing" textLength="159" x="424" y="714.3936">Delete user in the auth0 api</text><polygon fill="#181818" points="1101.5,745.6016,1111.5,749.6016,1101.5,753.6016,1105.5,749.6016" style="stroke:#181818;stroke-width:1.0;"/><line style="stroke:#181818;stroke-width:1.0;" x1="413.5" x2="1107.5" y1="749.6016" y2="749.6016"/><text fill="#000000" font-family="sans-serif" font-size="13" font-weight="bold" lengthAdjust="spacing" textLength="14" x="420.5" y="744.7451">17</text><text fill="#000000" font-family="sans-serif" font-size="13" lengthAdjust="spacing" textLength="197" x="438.5" y="744.7451">SendEmailAsync(to,subject,body)</text><polygon fill="#181818" points="658.5,782.9531,668.5,786.9531,658.5,790.9531,662.5,786.9531" style="stroke:#181818;stroke-width:1.0;"/><line style="stroke:#181818;stroke-width:1.0;" x1="413.5" x2="664.5" y1="786.9531" y2="786.9531"/><text fill="#000000" font-family="sans-serif" font-size="13" font-weight="bold" lengthAdjust="spacing" textLength="14" x="420.5" y="782.0967">18</text><text fill="#000000" font-family="sans-serif" font-size="13" lengthAdjust="spacing" textLength="83" x="438.5" y="782.0967">create(patient)</text><polygon fill="#181818" points="424.5,813.3047,414.5,817.3047,424.5,821.3047,420.5,817.3047" style="stroke:#181818;stroke-width:1.0;"/><line style="stroke:#181818;stroke-width:1.0;stroke-dasharray:2.0,2.0;" x1="418.5" x2="674.5" y1="817.3047" y2="817.3047"/><text fill="#000000" font-family="sans-serif" font-size="13" font-weight="bold" lengthAdjust="spacing" textLength="14" x="430.5" y="812.4482">19</text><text fill="#000000" font-family="sans-serif" font-size="13" lengthAdjust="spacing" textLength="59" x="448.5" y="812.4482">patientDto</text><polygon fill="#181818" points="241.5,843.6563,231.5,847.6563,241.5,851.6563,237.5,847.6563" style="stroke:#181818;stroke-width:1.0;"/><line style="stroke:#181818;stroke-width:1.0;stroke-dasharray:2.0,2.0;" x1="235.5" x2="407.5" y1="847.6563" y2="847.6563"/><text fill="#000000" font-family="sans-serif" font-size="13" font-weight="bold" lengthAdjust="spacing" textLength="14" x="247.5" y="842.7998">20</text><text fill="#000000" font-family="sans-serif" font-size="13" lengthAdjust="spacing" textLength="59" x="265.5" y="842.7998">patientDto</text><polygon fill="#181818" points="53.5,874.0078,43.5,878.0078,53.5,882.0078,49.5,878.0078" style="stroke:#181818;stroke-width:1.0;"/><line style="stroke:#181818;stroke-width:1.0;stroke-dasharray:2.0,2.0;" x1="47.5" x2="224.5" y1="878.0078" y2="878.0078"/><text fill="#000000" font-family="sans-serif" font-size="13" font-weight="bold" lengthAdjust="spacing" textLength="14" x="59.5" y="873.1514">21</text><text fill="#000000" font-family="sans-serif" font-size="13" lengthAdjust="spacing" textLength="44" x="77.5" y="873.1514">200 OK</text><!--SRC=[hLRRZjem47tdAroUM0bsKRLF292o2zskskwkQFi19Xx0LM97YODAg_vx9ub3xDW9LAgVV9bpF3wU6PlcIeeyta8w6D1GoPGC0nPpCIGq8sLlaD1KyP0dL2WoVAEAWr3PenGgbL44QMdP3CbytWoMIo_wAwH77aA9r7s4wLu7PgLaQTyC4RAICUMYZGY45AUO_m9M6rD5gmFvLZfvdjSu6vdEMZCcZY7FbcQ0eEyPf1j8PCPHpLC9iwSwSDgZ5jIPxK1xJzRYkc1ZCXUnm8zKWOw10S5MTibaQTxsZApMdzVVreGc_2xHmN7tcxC_5URCqs2gXQ8PFCXQougK4842xMIGdKGuukocmPr9DQHPALhDWvIkUZFo1EhXzCmyj1Qr0xNjYkQoJunZu5PQ3nl9uDezQAHg2h9O4957aUl4-RJjUtb1ymti80KHmlfd28dYKhW4rQtE9nCRVZ-z9ozIaGyo5yprAyUG9kyMfKyTuhUY_chbRPphS8jtOeLEuLUdtYrcqme4AyxLhQyTeOyq2lC8EOCzRAZOmqXVr2tc5Bpk7dYg3ZSkMt_a-kwqsPFghHo8Cs4SkNCVuwByLN56mXIGObJlEww3yVO9rOAq6Ny1naCQOVmmNWHPrYm5IIAvK37sF_AiaBrF5QydVetyJjkA4NeTdw7NbHvSKi-A-u3fcFUwqwV79V9_aCQVCRF_9L6VJnSAyWPYUJmda4yENMyyvQQTeKxDqUG5tCEC1GvnATyV596xHfJg0QgA71P7TG12StMO5gzSt_7i_y4CbmGhfwhxLtASvTiV4AhnLZBCX8kPZFWhv2m-G-TqxT6nzUuWp1z01gsTK4aFq7tNl6QTxvMFkw-GTRnRxwTJylgfCZFWvlV3ZENgT_CN]--></g></svg>