<?xml version="1.0" encoding="us-ascii" standalone="no"?><svg xmlns="http://www.w3.org/2000/svg" xmlns:xlink="http://www.w3.org/1999/xlink" contentStyleType="text/css" height="526px" preserveAspectRatio="none" style="width:458px;height:526px;background:#FFFFFF;" version="1.1" viewBox="0 0 458 526" width="458px" zoomAndPan="magnify"><defs/><g><rect fill="#FFFFFF" height="333.8672" style="stroke:#181818;stroke-width:1.0;" width="10" x="22.5" y="92.6094"/><rect fill="#FFFFFF" height="311.5156" style="stroke:#181818;stroke-width:1.0;" width="10" x="198.5" y="114.9609"/><rect fill="#FFFFFF" height="167.7578" style="stroke:#181818;stroke-width:1.0;" width="10" x="399.5" y="145.3125"/><rect fill="#FFFFFF" height="30.3516" style="stroke:#181818;stroke-width:1.0;" width="10" x="399.5" y="335.4219"/><rect fill="none" height="115.4063" style="stroke:#000000;stroke-width:1.5;" width="286.5" x="165.5" y="190.6641"/><line style="stroke:#181818;stroke-width:0.5;stroke-dasharray:5.0,5.0;" x1="27" x2="27" y1="82.6094" y2="444.4766"/><line style="stroke:#181818;stroke-width:0.5;stroke-dasharray:5.0,5.0;" x1="203.5" x2="203.5" y1="82.6094" y2="444.4766"/><line style="stroke:#181818;stroke-width:0.5;stroke-dasharray:5.0,5.0;" x1="404" x2="404" y1="82.6094" y2="444.4766"/><text fill="#000000" font-family="sans-serif" font-size="14" lengthAdjust="spacing" textLength="39" x="5" y="79.5332">Admin</text><ellipse cx="27.5" cy="13.5" fill="#E2E2F0" rx="8" ry="8" style="stroke:#181818;stroke-width:0.5;"/><path d="M27.5,21.5 L27.5,48.5 M14.5,29.5 L40.5,29.5 M27.5,48.5 L14.5,63.5 M27.5,48.5 L40.5,63.5 " fill="none" style="stroke:#181818;stroke-width:0.5;"/><text fill="#000000" font-family="sans-serif" font-size="14" lengthAdjust="spacing" textLength="39" x="5" y="458.0098">Admin</text><ellipse cx="27.5" cy="469.5859" fill="#E2E2F0" rx="8" ry="8" style="stroke:#181818;stroke-width:0.5;"/><path d="M27.5,477.5859 L27.5,504.5859 M14.5,485.5859 L40.5,485.5859 M27.5,504.5859 L14.5,519.5859 M27.5,504.5859 L40.5,519.5859 " fill="none" style="stroke:#181818;stroke-width:0.5;"/><rect fill="#E2E2F0" height="31.6094" rx="2.5" ry="2.5" style="stroke:#181818;stroke-width:0.5;" width="56" x="175.5" y="50"/><text fill="#000000" font-family="sans-serif" font-size="14" lengthAdjust="spacing" textLength="42" x="182.5" y="71.5332">Server</text><rect fill="#E2E2F0" height="31.6094" rx="2.5" ry="2.5" style="stroke:#181818;stroke-width:0.5;" width="56" x="175.5" y="443.4766"/><text fill="#000000" font-family="sans-serif" font-size="14" lengthAdjust="spacing" textLength="42" x="182.5" y="465.0098">Server</text><rect fill="#E2E2F0" height="31.6094" rx="2.5" ry="2.5" style="stroke:#181818;stroke-width:0.5;" width="75" x="367" y="50"/><text fill="#000000" font-family="sans-serif" font-size="14" lengthAdjust="spacing" textLength="61" x="374" y="71.5332">Database</text><rect fill="#E2E2F0" height="31.6094" rx="2.5" ry="2.5" style="stroke:#181818;stroke-width:0.5;" width="75" x="367" y="443.4766"/><text fill="#000000" font-family="sans-serif" font-size="14" lengthAdjust="spacing" textLength="61" x="374" y="465.0098">Database</text><rect fill="#FFFFFF" height="333.8672" style="stroke:#181818;stroke-width:1.0;" width="10" x="22.5" y="92.6094"/><rect fill="#FFFFFF" height="311.5156" style="stroke:#181818;stroke-width:1.0;" width="10" x="198.5" y="114.9609"/><rect fill="#FFFFFF" height="167.7578" style="stroke:#181818;stroke-width:1.0;" width="10" x="399.5" y="145.3125"/><rect fill="#FFFFFF" height="30.3516" style="stroke:#181818;stroke-width:1.0;" width="10" x="399.5" y="335.4219"/><polygon fill="#181818" points="186.5,110.9609,196.5,114.9609,186.5,118.9609,190.5,114.9609" style="stroke:#181818;stroke-width:1.0;"/><line style="stroke:#181818;stroke-width:1.0;" x1="32.5" x2="192.5" y1="114.9609" y2="114.9609"/><text fill="#000000" font-family="sans-serif" font-size="13" lengthAdjust="spacing" textLength="147" x="39.5" y="110.1045">DELETE /api/patients/{id}</text><polygon fill="#181818" points="387.5,141.3125,397.5,145.3125,387.5,149.3125,391.5,145.3125" style="stroke:#181818;stroke-width:1.0;"/><line style="stroke:#181818;stroke-width:1.0;" x1="208.5" x2="393.5" y1="145.3125" y2="145.3125"/><text fill="#000000" font-family="sans-serif" font-size="13" lengthAdjust="spacing" textLength="61" x="215.5" y="140.4561">get patient</text><polygon fill="#181818" points="219.5,171.6641,209.5,175.6641,219.5,179.6641,215.5,175.6641" style="stroke:#181818;stroke-width:1.0;"/><line style="stroke:#181818;stroke-width:1.0;stroke-dasharray:2.0,2.0;" x1="213.5" x2="398.5" y1="175.6641" y2="175.6641"/><text fill="#000000" font-family="sans-serif" font-size="13" lengthAdjust="spacing" textLength="39" x="225.5" y="170.8076">patient</text><path d="M165.5,190.6641 L226.5,190.6641 L226.5,199.0156 L216.5,209.0156 L165.5,209.0156 L165.5,190.6641 " fill="#EEEEEE" style="stroke:#000000;stroke-width:1.5;"/><rect fill="none" height="115.4063" style="stroke:#000000;stroke-width:1.5;" width="286.5" x="165.5" y="190.6641"/><text fill="#000000" font-family="sans-serif" font-size="13" font-weight="bold" lengthAdjust="spacing" textLength="16" x="180.5" y="205.1592">alt</text><text fill="#000000" font-family="sans-serif" font-size="11" font-weight="bold" lengthAdjust="spacing" textLength="63" x="241.5" y="204.083">[user!=null]</text><polygon fill="#181818" points="219.5,227.3672,209.5,231.3672,219.5,235.3672,215.5,231.3672" style="stroke:#181818;stroke-width:1.0;"/><line style="stroke:#181818;stroke-width:1.0;stroke-dasharray:2.0,2.0;" x1="213.5" x2="398.5" y1="231.3672" y2="231.3672"/><text fill="#000000" font-family="sans-serif" font-size="13" lengthAdjust="spacing" textLength="25" x="225.5" y="226.5107">user</text><polygon fill="#181818" points="387.5,257.7188,397.5,261.7188,387.5,265.7188,391.5,261.7188" style="stroke:#181818;stroke-width:1.0;"/><line style="stroke:#181818;stroke-width:1.0;" x1="208.5" x2="393.5" y1="261.7188" y2="261.7188"/><text fill="#000000" font-family="sans-serif" font-size="13" lengthAdjust="spacing" textLength="64" x="215.5" y="256.8623">delete user</text><path d="M213,274.7188 L213,300.7188 L393,300.7188 L393,284.7188 L383,274.7188 L213,274.7188 " fill="#FEFFDD" style="stroke:#181818;stroke-width:0.5;"/><path d="M383,274.7188 L383,284.7188 L393,284.7188 L383,274.7188 " fill="#FEFFDD" style="stroke:#181818;stroke-width:0.5;"/><text fill="#000000" font-family="sans-serif" font-size="13" lengthAdjust="spacing" textLength="159" x="219" y="293.2139">Delete user in the auth0 api</text><polygon fill="#181818" points="387.5,331.4219,397.5,335.4219,387.5,339.4219,391.5,335.4219" style="stroke:#181818;stroke-width:1.0;"/><line style="stroke:#181818;stroke-width:1.0;" x1="208.5" x2="393.5" y1="335.4219" y2="335.4219"/><text fill="#000000" font-family="sans-serif" font-size="13" lengthAdjust="spacing" textLength="172" x="215.5" y="330.5654">save anonymized patient data</text><polygon fill="#181818" points="219.5,361.7734,209.5,365.7734,219.5,369.7734,215.5,365.7734" style="stroke:#181818;stroke-width:1.0;"/><line style="stroke:#181818;stroke-width:1.0;stroke-dasharray:2.0,2.0;" x1="213.5" x2="403.5" y1="365.7734" y2="365.7734"/><text fill="#000000" font-family="sans-serif" font-size="13" lengthAdjust="spacing" textLength="142" x="225.5" y="360.917">anonymized patient data</text><polygon fill="#181818" points="392.5,392.125,402.5,396.125,392.5,400.125,396.5,396.125" style="stroke:#181818;stroke-width:1.0;"/><line style="stroke:#181818;stroke-width:1.0;" x1="208.5" x2="398.5" y1="396.125" y2="396.125"/><text fill="#000000" font-family="sans-serif" font-size="13" lengthAdjust="spacing" textLength="78" x="215.5" y="391.2686">delete patient</text><polygon fill="#181818" points="38.5,422.4766,28.5,426.4766,38.5,430.4766,34.5,426.4766" style="stroke:#181818;stroke-width:1.0;"/><line style="stroke:#181818;stroke-width:1.0;stroke-dasharray:2.0,2.0;" x1="32.5" x2="202.5" y1="426.4766" y2="426.4766"/><text fill="#000000" font-family="sans-serif" font-size="13" lengthAdjust="spacing" textLength="44" x="44.5" y="421.6201">200 OK</text><!--SRC=[XPBFJeGm4CRlFCN8VGFnk8ac9ij9emTzWO6EooHGI3kGgF7TdI9RsGMpSscQ-Nxpvsknaiv1-c1QjYcW1pHjqgCJhhX7Av2-aXl9JJdlnlFS0GLBz3HbJPaaM0cFA3IL0GqzONSVIDZ3eNWgtWh8iEUiHs6ouhClDj-_qXCRsi0S0LJUb8eVIM36OZv2sXqMeS0kzbr1ZS3WoTtSsQ5fphWL6tGhnN8gGmrf_qtTSwSPS7oi1RhtWAa9VtfW2rAhMOFKEQWhiG1P4wQCTqDRYox7y3Xg8TlPZvO_oPns1gDFb6pQzRzVLyjS7sTsvTBvIQAQy2tsS9ldyFAON5GCpx-uXf_q0m00]--></g></svg>