<?xml version="1.0" encoding="us-ascii" standalone="no"?><svg xmlns="http://www.w3.org/2000/svg" xmlns:xlink="http://www.w3.org/1999/xlink" contentStyleType="text/css" height="1000px" preserveAspectRatio="none" style="width:1728px;height:1000px;background:#FFFFFF;" version="1.1" viewBox="0 0 1728 1000" width="1728px" zoomAndPan="magnify"><defs/><g><rect fill="#FFFFFF" height="788.7891" style="stroke:#181818;stroke-width:1.0;" width="10" x="50" y="96.2188"/><rect fill="#FFFFFF" height="766.4375" style="stroke:#181818;stroke-width:1.0;" width="10" x="320" y="118.5703"/><rect fill="#FFFFFF" height="713.7344" style="stroke:#181818;stroke-width:1.0;" width="10" x="567" y="148.9219"/><rect fill="#FFFFFF" height="41.3516" style="stroke:#181818;stroke-width:1.0;" width="10" x="572" y="482.7891"/><rect fill="#FFFFFF" height="30.3516" style="stroke:#181818;stroke-width:1.0;" width="10" x="841" y="779.9531"/><rect fill="#FFFFFF" height="30.3516" style="stroke:#181818;stroke-width:1.0;" width="10" x="1131" y="561.4922"/><rect fill="#FFFFFF" height="30.3516" style="stroke:#181818;stroke-width:1.0;" width="10" x="1276" y="179.2734"/><rect fill="#FFFFFF" height="30.3516" style="stroke:#181818;stroke-width:1.0;" width="10" x="1399.5" y="326.0313"/><rect fill="#FFFFFF" height="30.3516" style="stroke:#181818;stroke-width:1.0;" width="10" x="1583.5" y="622.1953"/><rect fill="none" height="631.0313" style="stroke:#000000;stroke-width:1.5;" width="1712" x="10" y="224.625"/><rect fill="none" height="477.2734" style="stroke:#000000;stroke-width:1.5;" width="1692" x="20" y="371.3828"/><line style="stroke:#181818;stroke-width:0.5;stroke-dasharray:5.0,5.0;" x1="55" x2="55" y1="86.2188" y2="903.0078"/><line style="stroke:#181818;stroke-width:0.5;stroke-dasharray:5.0,5.0;" x1="325" x2="325" y1="86.2188" y2="903.0078"/><line style="stroke:#181818;stroke-width:0.5;stroke-dasharray:5.0,5.0;" x1="572" x2="572" y1="86.2188" y2="903.0078"/><line style="stroke:#181818;stroke-width:0.5;stroke-dasharray:5.0,5.0;" x1="846" x2="846" y1="86.2188" y2="903.0078"/><line style="stroke:#181818;stroke-width:0.5;stroke-dasharray:5.0,5.0;" x1="1136" x2="1136" y1="86.2188" y2="903.0078"/><line style="stroke:#181818;stroke-width:0.5;stroke-dasharray:5.0,5.0;" x1="1281" x2="1281" y1="86.2188" y2="903.0078"/><line style="stroke:#181818;stroke-width:0.5;stroke-dasharray:5.0,5.0;" x1="1404" x2="1404" y1="86.2188" y2="903.0078"/><line style="stroke:#181818;stroke-width:0.5;stroke-dasharray:5.0,5.0;" x1="1588" x2="1588" y1="86.2188" y2="903.0078"/><text fill="#000000" font-family="sans-serif" font-size="14" lengthAdjust="spacing" textLength="44" x="30" y="83.1426">Patient</text><ellipse cx="55" cy="17.1094" fill="#E2E2F0" rx="8" ry="8" style="stroke:#181818;stroke-width:0.5;"/><path d="M55,25.1094 L55,52.1094 M42,33.1094 L68,33.1094 M55,52.1094 L42,67.1094 M55,52.1094 L68,67.1094 " fill="none" style="stroke:#181818;stroke-width:0.5;"/><text fill="#000000" font-family="sans-serif" font-size="14" lengthAdjust="spacing" textLength="44" x="30" y="916.541">Patient</text><ellipse cx="55" cy="928.1172" fill="#E2E2F0" rx="8" ry="8" style="stroke:#181818;stroke-width:0.5;"/><path d="M55,936.1172 L55,963.1172 M42,944.1172 L68,944.1172 M55,963.1172 L42,978.1172 M55,963.1172 L68,978.1172 " fill="none" style="stroke:#181818;stroke-width:0.5;"/><rect fill="#E2E2F0" height="49.2188" rx="2.5" ry="2.5" style="stroke:#181818;stroke-width:0.5;" width="112" x="269" y="36"/><text fill="#000000" font-family="sans-serif" font-size="14" font-style="italic" lengthAdjust="spacing" textLength="78" x="286" y="57.5332">&#171;Controller&#187;</text><text fill="#000000" font-family="sans-serif" font-size="14" lengthAdjust="spacing" textLength="98" x="276" y="75.1426">UsersController</text><rect fill="#E2E2F0" height="49.2188" rx="2.5" ry="2.5" style="stroke:#181818;stroke-width:0.5;" width="112" x="269" y="902.0078"/><text fill="#000000" font-family="sans-serif" font-size="14" font-style="italic" lengthAdjust="spacing" textLength="78" x="286" y="923.541">&#171;Controller&#187;</text><text fill="#000000" font-family="sans-serif" font-size="14" lengthAdjust="spacing" textLength="98" x="276" y="941.1504">UsersController</text><rect fill="#E2E2F0" height="49.2188" rx="2.5" ry="2.5" style="stroke:#181818;stroke-width:0.5;" width="90" x="527" y="36"/><text fill="#000000" font-family="sans-serif" font-size="14" font-style="italic" lengthAdjust="spacing" textLength="62" x="541" y="57.5332">&#171;Service&#187;</text><text fill="#000000" font-family="sans-serif" font-size="14" lengthAdjust="spacing" textLength="76" x="534" y="75.1426">UserService</text><rect fill="#E2E2F0" height="49.2188" rx="2.5" ry="2.5" style="stroke:#181818;stroke-width:0.5;" width="90" x="527" y="902.0078"/><text fill="#000000" font-family="sans-serif" font-size="14" font-style="italic" lengthAdjust="spacing" textLength="62" x="541" y="923.541">&#171;Service&#187;</text><text fill="#000000" font-family="sans-serif" font-size="14" lengthAdjust="spacing" textLength="76" x="534" y="941.1504">UserService</text><rect fill="#E2E2F0" height="49.2188" rx="2.5" ry="2.5" style="stroke:#181818;stroke-width:0.5;" width="78" x="807" y="36"/><text fill="#000000" font-family="sans-serif" font-size="14" font-style="italic" lengthAdjust="spacing" textLength="64" x="814" y="57.5332">&#171;Domain&#187;</text><text fill="#000000" font-family="sans-serif" font-size="14" lengthAdjust="spacing" textLength="51" x="820.5" y="75.1426">UserDto</text><rect fill="#E2E2F0" height="49.2188" rx="2.5" ry="2.5" style="stroke:#181818;stroke-width:0.5;" width="78" x="807" y="902.0078"/><text fill="#000000" font-family="sans-serif" font-size="14" font-style="italic" lengthAdjust="spacing" textLength="64" x="814" y="923.541">&#171;Domain&#187;</text><text fill="#000000" font-family="sans-serif" font-size="14" lengthAdjust="spacing" textLength="51" x="820.5" y="941.1504">UserDto</text><rect fill="#E2E2F0" height="49.2188" rx="2.5" ry="2.5" style="stroke:#181818;stroke-width:0.5;" width="164" x="1054" y="36"/><text fill="#000000" font-family="sans-serif" font-size="14" font-style="italic" lengthAdjust="spacing" textLength="64" x="1104" y="57.5332">&#171;Domain&#187;</text><text fill="#000000" font-family="sans-serif" font-size="14" lengthAdjust="spacing" textLength="150" x="1061" y="75.1426">AnonymizedPatientData</text><rect fill="#E2E2F0" height="49.2188" rx="2.5" ry="2.5" style="stroke:#181818;stroke-width:0.5;" width="164" x="1054" y="902.0078"/><text fill="#000000" font-family="sans-serif" font-size="14" font-style="italic" lengthAdjust="spacing" textLength="64" x="1104" y="923.541">&#171;Domain&#187;</text><text fill="#000000" font-family="sans-serif" font-size="14" lengthAdjust="spacing" textLength="150" x="1061" y="941.1504">AnonymizedPatientData</text><text fill="#000000" font-family="sans-serif" font-size="14" font-style="italic" lengthAdjust="spacing" textLength="64" x="1246" y="65.5332">&#171;Domain&#187;</text><text fill="#000000" font-family="sans-serif" font-size="14" lengthAdjust="spacing" textLength="100" x="1228" y="83.1426">IUserRepository</text><path d="M1263,15 C1263,5 1281,5 1281,5 C1281,5 1299,5 1299,15 L1299,41 C1299,51 1281,51 1281,51 C1281,51 1263,51 1263,41 L1263,15 " fill="#E2E2F0" style="stroke:#181818;stroke-width:1.5;"/><path d="M1263,15 C1263,25 1281,25 1281,25 C1281,25 1299,25 1299,15 " fill="none" style="stroke:#181818;stroke-width:1.5;"/><text fill="#000000" font-family="sans-serif" font-size="14" font-style="italic" lengthAdjust="spacing" textLength="64" x="1246" y="916.541">&#171;Domain&#187;</text><text fill="#000000" font-family="sans-serif" font-size="14" lengthAdjust="spacing" textLength="100" x="1228" y="934.1504">IUserRepository</text><path d="M1263,947.2266 C1263,937.2266 1281,937.2266 1281,937.2266 C1281,937.2266 1299,937.2266 1299,947.2266 L1299,973.2266 C1299,983.2266 1281,983.2266 1281,983.2266 C1281,983.2266 1263,983.2266 1263,973.2266 L1263,947.2266 " fill="#E2E2F0" style="stroke:#181818;stroke-width:1.5;"/><path d="M1263,947.2266 C1263,957.2266 1281,957.2266 1281,957.2266 C1281,957.2266 1299,957.2266 1299,947.2266 " fill="none" style="stroke:#181818;stroke-width:1.5;"/><text fill="#000000" font-family="sans-serif" font-size="14" font-style="italic" lengthAdjust="spacing" textLength="64" x="1369.5" y="65.5332">&#171;Domain&#187;</text><text fill="#000000" font-family="sans-serif" font-size="14" lengthAdjust="spacing" textLength="115" x="1344" y="83.1426">IPatientRepository</text><path d="M1386.5,15 C1386.5,5 1404.5,5 1404.5,5 C1404.5,5 1422.5,5 1422.5,15 L1422.5,41 C1422.5,51 1404.5,51 1404.5,51 C1404.5,51 1386.5,51 1386.5,41 L1386.5,15 " fill="#E2E2F0" style="stroke:#181818;stroke-width:1.5;"/><path d="M1386.5,15 C1386.5,25 1404.5,25 1404.5,25 C1404.5,25 1422.5,25 1422.5,15 " fill="none" style="stroke:#181818;stroke-width:1.5;"/><text fill="#000000" font-family="sans-serif" font-size="14" font-style="italic" lengthAdjust="spacing" textLength="64" x="1369.5" y="916.541">&#171;Domain&#187;</text><text fill="#000000" font-family="sans-serif" font-size="14" lengthAdjust="spacing" textLength="115" x="1344" y="934.1504">IPatientRepository</text><path d="M1386.5,947.2266 C1386.5,937.2266 1404.5,937.2266 1404.5,937.2266 C1404.5,937.2266 1422.5,937.2266 1422.5,947.2266 L1422.5,973.2266 C1422.5,983.2266 1404.5,983.2266 1404.5,983.2266 C1404.5,983.2266 1386.5,983.2266 1386.5,973.2266 L1386.5,947.2266 " fill="#E2E2F0" style="stroke:#181818;stroke-width:1.5;"/><path d="M1386.5,947.2266 C1386.5,957.2266 1404.5,957.2266 1404.5,957.2266 C1404.5,957.2266 1422.5,957.2266 1422.5,947.2266 " fill="none" style="stroke:#181818;stroke-width:1.5;"/><text fill="#000000" font-family="sans-serif" font-size="14" font-style="italic" lengthAdjust="spacing" textLength="64" x="1553.5" y="65.5332">&#171;Domain&#187;</text><text fill="#000000" font-family="sans-serif" font-size="14" lengthAdjust="spacing" textLength="221" x="1475" y="83.1426">IAnonymizedPatientDataRepository</text><path d="M1570.5,15 C1570.5,5 1588.5,5 1588.5,5 C1588.5,5 1606.5,5 1606.5,15 L1606.5,41 C1606.5,51 1588.5,51 1588.5,51 C1588.5,51 1570.5,51 1570.5,41 L1570.5,15 " fill="#E2E2F0" style="stroke:#181818;stroke-width:1.5;"/><path d="M1570.5,15 C1570.5,25 1588.5,25 1588.5,25 C1588.5,25 1606.5,25 1606.5,15 " fill="none" style="stroke:#181818;stroke-width:1.5;"/><text fill="#000000" font-family="sans-serif" font-size="14" font-style="italic" lengthAdjust="spacing" textLength="64" x="1553.5" y="916.541">&#171;Domain&#187;</text><text fill="#000000" font-family="sans-serif" font-size="14" lengthAdjust="spacing" textLength="221" x="1475" y="934.1504">IAnonymizedPatientDataRepository</text><path d="M1570.5,947.2266 C1570.5,937.2266 1588.5,937.2266 1588.5,937.2266 C1588.5,937.2266 1606.5,937.2266 1606.5,947.2266 L1606.5,973.2266 C1606.5,983.2266 1588.5,983.2266 1588.5,983.2266 C1588.5,983.2266 1570.5,983.2266 1570.5,973.2266 L1570.5,947.2266 " fill="#E2E2F0" style="stroke:#181818;stroke-width:1.5;"/><path d="M1570.5,947.2266 C1570.5,957.2266 1588.5,957.2266 1588.5,957.2266 C1588.5,957.2266 1606.5,957.2266 1606.5,947.2266 " fill="none" style="stroke:#181818;stroke-width:1.5;"/><rect fill="#FFFFFF" height="788.7891" style="stroke:#181818;stroke-width:1.0;" width="10" x="50" y="96.2188"/><rect fill="#FFFFFF" height="766.4375" style="stroke:#181818;stroke-width:1.0;" width="10" x="320" y="118.5703"/><rect fill="#FFFFFF" height="713.7344" style="stroke:#181818;stroke-width:1.0;" width="10" x="567" y="148.9219"/><rect fill="#FFFFFF" height="41.3516" style="stroke:#181818;stroke-width:1.0;" width="10" x="572" y="482.7891"/><rect fill="#FFFFFF" height="30.3516" style="stroke:#181818;stroke-width:1.0;" width="10" x="841" y="779.9531"/><rect fill="#FFFFFF" height="30.3516" style="stroke:#181818;stroke-width:1.0;" width="10" x="1131" y="561.4922"/><rect fill="#FFFFFF" height="30.3516" style="stroke:#181818;stroke-width:1.0;" width="10" x="1276" y="179.2734"/><rect fill="#FFFFFF" height="30.3516" style="stroke:#181818;stroke-width:1.0;" width="10" x="1399.5" y="326.0313"/><rect fill="#FFFFFF" height="30.3516" style="stroke:#181818;stroke-width:1.0;" width="10" x="1583.5" y="622.1953"/><polygon fill="#181818" points="308,114.5703,318,118.5703,308,122.5703,312,118.5703" style="stroke:#181818;stroke-width:1.0;"/><line style="stroke:#181818;stroke-width:1.0;" x1="60" x2="314" y1="118.5703" y2="118.5703"/><text fill="#000000" font-family="sans-serif" font-size="13" font-weight="bold" lengthAdjust="spacing" textLength="7" x="67" y="113.7139">1</text><text fill="#000000" font-family="sans-serif" font-size="13" lengthAdjust="spacing" textLength="230" x="78" y="113.7139">DELETE /api/users/patients/{username}</text><polygon fill="#181818" points="555,144.9219,565,148.9219,555,152.9219,559,148.9219" style="stroke:#181818;stroke-width:1.0;"/><line style="stroke:#181818;stroke-width:1.0;" x1="330" x2="561" y1="148.9219" y2="148.9219"/><text fill="#000000" font-family="sans-serif" font-size="13" font-weight="bold" lengthAdjust="spacing" textLength="7" x="337" y="144.0654">2</text><text fill="#000000" font-family="sans-serif" font-size="13" lengthAdjust="spacing" textLength="207" x="348" y="144.0654">DeleteUserPatientAsync(username)</text><polygon fill="#181818" points="1264,175.2734,1274,179.2734,1264,183.2734,1268,179.2734" style="stroke:#181818;stroke-width:1.0;"/><line style="stroke:#181818;stroke-width:1.0;" x1="577" x2="1270" y1="179.2734" y2="179.2734"/><text fill="#000000" font-family="sans-serif" font-size="13" font-weight="bold" lengthAdjust="spacing" textLength="7" x="584" y="174.417">3</text><text fill="#000000" font-family="sans-serif" font-size="13" lengthAdjust="spacing" textLength="149" x="595" y="174.417">GetByIdAsync(username)</text><polygon fill="#181818" points="588,205.625,578,209.625,588,213.625,584,209.625" style="stroke:#181818;stroke-width:1.0;"/><line style="stroke:#181818;stroke-width:1.0;stroke-dasharray:2.0,2.0;" x1="582" x2="1280" y1="209.625" y2="209.625"/><text fill="#000000" font-family="sans-serif" font-size="13" font-weight="bold" lengthAdjust="spacing" textLength="7" x="594" y="204.7686">4</text><text fill="#000000" font-family="sans-serif" font-size="13" lengthAdjust="spacing" textLength="25" x="605" y="204.7686">user</text><path d="M10,224.625 L71,224.625 L71,232.9766 L61,242.9766 L10,242.9766 L10,224.625 " fill="#EEEEEE" style="stroke:#000000;stroke-width:1.5;"/><rect fill="none" height="631.0313" style="stroke:#000000;stroke-width:1.5;" width="1712" x="10" y="224.625"/><text fill="#000000" font-family="sans-serif" font-size="13" font-weight="bold" lengthAdjust="spacing" textLength="16" x="25" y="239.1201">alt</text><text fill="#000000" font-family="sans-serif" font-size="11" font-weight="bold" lengthAdjust="spacing" textLength="72" x="86" y="238.0439">[user == null]</text><polygon fill="#181818" points="341,261.3281,331,265.3281,341,269.3281,337,265.3281" style="stroke:#181818;stroke-width:1.0;"/><line style="stroke:#181818;stroke-width:1.0;stroke-dasharray:2.0,2.0;" x1="335" x2="566" y1="265.3281" y2="265.3281"/><text fill="#000000" font-family="sans-serif" font-size="13" font-weight="bold" lengthAdjust="spacing" textLength="7" x="347" y="260.4717">5</text><text fill="#000000" font-family="sans-serif" font-size="13" lengthAdjust="spacing" textLength="138" x="358" y="260.4717">NullReferenceException</text><polygon fill="#181818" points="71,291.6797,61,295.6797,71,299.6797,67,295.6797" style="stroke:#181818;stroke-width:1.0;"/><line style="stroke:#181818;stroke-width:1.0;stroke-dasharray:2.0,2.0;" x1="65" x2="319" y1="295.6797" y2="295.6797"/><text fill="#000000" font-family="sans-serif" font-size="13" font-weight="bold" lengthAdjust="spacing" textLength="7" x="77" y="290.8232">6</text><text fill="#000000" font-family="sans-serif" font-size="13" lengthAdjust="spacing" textLength="85" x="88" y="290.8232">404 Not Found</text><polygon fill="#181818" points="1387.5,322.0313,1397.5,326.0313,1387.5,330.0313,1391.5,326.0313" style="stroke:#181818;stroke-width:1.0;"/><line style="stroke:#181818;stroke-width:1.0;" x1="577" x2="1393.5" y1="326.0313" y2="326.0313"/><text fill="#000000" font-family="sans-serif" font-size="13" font-weight="bold" lengthAdjust="spacing" textLength="7" x="584" y="321.1748">7</text><text fill="#000000" font-family="sans-serif" font-size="13" lengthAdjust="spacing" textLength="176" x="595" y="321.1748">GetByUserIdAsync(username)</text><polygon fill="#181818" points="588,352.3828,578,356.3828,588,360.3828,584,356.3828" style="stroke:#181818;stroke-width:1.0;"/><line style="stroke:#181818;stroke-width:1.0;stroke-dasharray:2.0,2.0;" x1="582" x2="1403.5" y1="356.3828" y2="356.3828"/><text fill="#000000" font-family="sans-serif" font-size="13" font-weight="bold" lengthAdjust="spacing" textLength="7" x="594" y="351.5264">8</text><text fill="#000000" font-family="sans-serif" font-size="13" lengthAdjust="spacing" textLength="39" x="605" y="351.5264">patient</text><path d="M20,371.3828 L81,371.3828 L81,379.7344 L71,389.7344 L20,389.7344 L20,371.3828 " fill="#EEEEEE" style="stroke:#000000;stroke-width:1.5;"/><rect fill="none" height="477.2734" style="stroke:#000000;stroke-width:1.5;" width="1692" x="20" y="371.3828"/><text fill="#000000" font-family="sans-serif" font-size="13" font-weight="bold" lengthAdjust="spacing" textLength="16" x="35" y="385.8779">alt</text><text fill="#000000" font-family="sans-serif" font-size="11" font-weight="bold" lengthAdjust="spacing" textLength="84" x="96" y="384.8018">[patient == null]</text><polygon fill="#181818" points="341,408.0859,331,412.0859,341,416.0859,337,412.0859" style="stroke:#181818;stroke-width:1.0;"/><line style="stroke:#181818;stroke-width:1.0;stroke-dasharray:2.0,2.0;" x1="335" x2="566" y1="412.0859" y2="412.0859"/><text fill="#000000" font-family="sans-serif" font-size="13" font-weight="bold" lengthAdjust="spacing" textLength="7" x="347" y="407.2295">9</text><text fill="#000000" font-family="sans-serif" font-size="13" lengthAdjust="spacing" textLength="138" x="358" y="407.2295">NullReferenceException</text><polygon fill="#181818" points="71,438.4375,61,442.4375,71,446.4375,67,442.4375" style="stroke:#181818;stroke-width:1.0;"/><line style="stroke:#181818;stroke-width:1.0;stroke-dasharray:2.0,2.0;" x1="65" x2="319" y1="442.4375" y2="442.4375"/><text fill="#000000" font-family="sans-serif" font-size="13" font-weight="bold" lengthAdjust="spacing" textLength="14" x="77" y="437.5811">10</text><text fill="#000000" font-family="sans-serif" font-size="13" lengthAdjust="spacing" textLength="85" x="95" y="437.5811">404 Not Found</text><line style="stroke:#000000;stroke-width:1.0;stroke-dasharray:2.0,2.0;" x1="20" x2="1712" y1="451.4375" y2="451.4375"/><line style="stroke:#181818;stroke-width:1.0;" x1="577" x2="624" y1="469.7891" y2="469.7891"/><line style="stroke:#181818;stroke-width:1.0;" x1="624" x2="624" y1="469.7891" y2="482.7891"/><line style="stroke:#181818;stroke-width:1.0;" x1="583" x2="624" y1="482.7891" y2="482.7891"/><polygon fill="#181818" points="593,478.7891,583,482.7891,593,486.7891,589,482.7891" style="stroke:#181818;stroke-width:1.0;"/><text fill="#000000" font-family="sans-serif" font-size="13" font-weight="bold" lengthAdjust="spacing" textLength="14" x="589" y="464.9326">11</text><text fill="#000000" font-family="sans-serif" font-size="13" lengthAdjust="spacing" textLength="232" x="607" y="464.9326">CalculateAgeRange(patient.DateOfBirth)</text><line style="stroke:#181818;stroke-width:1.0;stroke-dasharray:2.0,2.0;" x1="582" x2="624" y1="523.1406" y2="523.1406"/><line style="stroke:#181818;stroke-width:1.0;stroke-dasharray:2.0,2.0;" x1="624" x2="624" y1="523.1406" y2="536.1406"/><line style="stroke:#181818;stroke-width:1.0;stroke-dasharray:2.0,2.0;" x1="577" x2="624" y1="536.1406" y2="536.1406"/><polygon fill="#181818" points="587,532.1406,577,536.1406,587,540.1406,583,536.1406" style="stroke:#181818;stroke-width:1.0;"/><text fill="#000000" font-family="sans-serif" font-size="13" font-weight="bold" lengthAdjust="spacing" textLength="14" x="589" y="518.2842">12</text><text fill="#000000" font-family="sans-serif" font-size="13" lengthAdjust="spacing" textLength="58" x="607" y="518.2842">ageRange</text><polygon fill="#181818" points="1119,557.4922,1129,561.4922,1119,565.4922,1123,561.4922" style="stroke:#181818;stroke-width:1.0;"/><line style="stroke:#181818;stroke-width:1.0;" x1="577" x2="1125" y1="561.4922" y2="561.4922"/><text fill="#000000" font-family="sans-serif" font-size="13" font-weight="bold" lengthAdjust="spacing" textLength="14" x="584" y="556.6357">13</text><text fill="#000000" font-family="sans-serif" font-size="13" lengthAdjust="spacing" textLength="517" x="602" y="556.6357">create(ageRange, patient.Gender, patient.MedicalConditions, patient.AppointmentHistory)</text><polygon fill="#181818" points="588,587.8438,578,591.8438,588,595.8438,584,591.8438" style="stroke:#181818;stroke-width:1.0;"/><line style="stroke:#181818;stroke-width:1.0;stroke-dasharray:2.0,2.0;" x1="582" x2="1135" y1="591.8438" y2="591.8438"/><text fill="#000000" font-family="sans-serif" font-size="13" font-weight="bold" lengthAdjust="spacing" textLength="14" x="594" y="586.9873">14</text><text fill="#000000" font-family="sans-serif" font-size="13" lengthAdjust="spacing" textLength="138" x="612" y="586.9873">anonymizedPatientData</text><polygon fill="#181818" points="1571.5,618.1953,1581.5,622.1953,1571.5,626.1953,1575.5,622.1953" style="stroke:#181818;stroke-width:1.0;"/><line style="stroke:#181818;stroke-width:1.0;" x1="577" x2="1577.5" y1="622.1953" y2="622.1953"/><text fill="#000000" font-family="sans-serif" font-size="13" font-weight="bold" lengthAdjust="spacing" textLength="14" x="584" y="617.3389">15</text><text fill="#000000" font-family="sans-serif" font-size="13" lengthAdjust="spacing" textLength="206" x="602" y="617.3389">AddAsync(anonymizedPatientData)</text><polygon fill="#181818" points="588,648.5469,578,652.5469,588,656.5469,584,652.5469" style="stroke:#181818;stroke-width:1.0;"/><line style="stroke:#181818;stroke-width:1.0;stroke-dasharray:2.0,2.0;" x1="582" x2="1587.5" y1="652.5469" y2="652.5469"/><text fill="#000000" font-family="sans-serif" font-size="13" font-weight="bold" lengthAdjust="spacing" textLength="14" x="594" y="647.6904">16</text><text fill="#000000" font-family="sans-serif" font-size="13" lengthAdjust="spacing" textLength="138" x="612" y="647.6904">anonymizedPatientData</text><polygon fill="#181818" points="1269,678.8984,1279,682.8984,1269,686.8984,1273,682.8984" style="stroke:#181818;stroke-width:1.0;"/><line style="stroke:#181818;stroke-width:1.0;" x1="577" x2="1275" y1="682.8984" y2="682.8984"/><text fill="#000000" font-family="sans-serif" font-size="13" font-weight="bold" lengthAdjust="spacing" textLength="14" x="584" y="678.042">17</text><text fill="#000000" font-family="sans-serif" font-size="13" lengthAdjust="spacing" textLength="79" x="602" y="678.042">Remove(user)</text><polygon fill="#181818" points="1392.5,709.25,1402.5,713.25,1392.5,717.25,1396.5,713.25" style="stroke:#181818;stroke-width:1.0;"/><line style="stroke:#181818;stroke-width:1.0;" x1="577" x2="1398.5" y1="713.25" y2="713.25"/><text fill="#000000" font-family="sans-serif" font-size="13" font-weight="bold" lengthAdjust="spacing" textLength="14" x="584" y="708.3936">18</text><text fill="#000000" font-family="sans-serif" font-size="13" lengthAdjust="spacing" textLength="93" x="602" y="708.3936">Remove(patient)</text><path d="M582,726.25 L582,752.25 L762,752.25 L762,736.25 L752,726.25 L582,726.25 " fill="#FEFFDD" style="stroke:#181818;stroke-width:0.5;"/><path d="M752,726.25 L752,736.25 L762,736.25 L752,726.25 " fill="#FEFFDD" style="stroke:#181818;stroke-width:0.5;"/><text fill="#000000" font-family="sans-serif" font-size="13" lengthAdjust="spacing" textLength="159" x="588" y="744.7451">Delete user in the auth0 api</text><polygon fill="#181818" points="829,775.9531,839,779.9531,829,783.9531,833,779.9531" style="stroke:#181818;stroke-width:1.0;"/><line style="stroke:#181818;stroke-width:1.0;" x1="577" x2="835" y1="779.9531" y2="779.9531"/><text fill="#000000" font-family="sans-serif" font-size="13" font-weight="bold" lengthAdjust="spacing" textLength="14" x="584" y="775.0967">19</text><text fill="#000000" font-family="sans-serif" font-size="13" lengthAdjust="spacing" textLength="170" x="602" y="775.0967">create(Username,Email,Role)</text><polygon fill="#181818" points="588,806.3047,578,810.3047,588,814.3047,584,810.3047" style="stroke:#181818;stroke-width:1.0;"/><line style="stroke:#181818;stroke-width:1.0;stroke-dasharray:2.0,2.0;" x1="582" x2="845" y1="810.3047" y2="810.3047"/><text fill="#000000" font-family="sans-serif" font-size="13" font-weight="bold" lengthAdjust="spacing" textLength="14" x="594" y="805.4482">20</text><text fill="#000000" font-family="sans-serif" font-size="13" lengthAdjust="spacing" textLength="45" x="612" y="805.4482">userDto</text><polygon fill="#181818" points="341,836.6563,331,840.6563,341,844.6563,337,840.6563" style="stroke:#181818;stroke-width:1.0;"/><line style="stroke:#181818;stroke-width:1.0;stroke-dasharray:2.0,2.0;" x1="335" x2="566" y1="840.6563" y2="840.6563"/><text fill="#000000" font-family="sans-serif" font-size="13" font-weight="bold" lengthAdjust="spacing" textLength="14" x="347" y="835.7998">21</text><text fill="#000000" font-family="sans-serif" font-size="13" lengthAdjust="spacing" textLength="45" x="365" y="835.7998">userDto</text><polygon fill="#181818" points="66,881.0078,56,885.0078,66,889.0078,62,885.0078" style="stroke:#181818;stroke-width:1.0;"/><line style="stroke:#181818;stroke-width:1.0;stroke-dasharray:2.0,2.0;" x1="60" x2="324" y1="885.0078" y2="885.0078"/><text fill="#000000" font-family="sans-serif" font-size="13" font-weight="bold" lengthAdjust="spacing" textLength="14" x="72" y="880.1514">22</text><text fill="#000000" font-family="sans-serif" font-size="13" lengthAdjust="spacing" textLength="44" x="90" y="880.1514">200 OK</text><!--SRC=[pLPDZzem4BtpAqQSG885LNj2B1AxqEsgxMwLxVu0RpA09SUE70ULLltljHE7E8aJgDH3S_B7l3VZDvvnIAO4p-9tb8C12PMGCFn654MkXa1IiEErsHaaH2eQqeHm1SEt56Nw8BYIWZ6KkNKrXUMocgnMRUWhoYCDCOVPiSROaG-mKI8tjcDjl14neRnfk-Q2dsBw4oCR-uOeaYEzEovFfEVl94KOFXal0IOYfVhWfxFZQga3PvaRqDPg1zeROOFhWetBR19AZqHXFOq3q9-xCbsvcLl0Pljb-tqBCvBGMMRIF4iAwtJsoymvYV5tGNFsK14K6-PpIBMBCikQ7nagD7gMKQGd7evAwd75SAQtu6h7V2MZ9cyaPm6FgEvFJr4dSuszZguRcQ_1FdLEerqPzZecmgke2LCv6ExkW6UCjHsVJzXCqRCs3t274dc8snyX9eeAtYPmqmpBwRJESZk_XMUXuAF8UDIfRVlsMddDsQwLk4NI6Mk7q0kmbx1JwWikZDgMeXGS_YV5aQNO7K-zWXu82pEc3xtUOq3u7aVsP3Uw6-3BxfvATHYtsVhhoQT1vPDOLor8Qy79IQSVvtxv-_82GecQObJwdPJPktb47g6ivbyneY5XMkY8cgIarTOwIGJbAjRZJpGrbw9F5MyaVetyGTSL0t8TdwFNbH5SKgzMg-l8rgWtd3uzBf7_XJJ-gbxyAudwOd9BgFLE11YB8-RjQzohiwyBMh2zR1wyBdNjLzBzGO7OLQSkNi2Y-LCEwe10CdMOWtvoUwCe_txErV5c- -vagnzzDWa4mxwCMhm_SILv_HPdNP36A-UrwMod9Mkj0-gMs9mFhcag_JttmtmEBvyBQuV5_MDfloBsL-aF]--></g></svg>