<?xml version="1.0" encoding="us-ascii" standalone="no"?><svg xmlns="http://www.w3.org/2000/svg" xmlns:xlink="http://www.w3.org/1999/xlink" contentStyleType="text/css" height="1338px" preserveAspectRatio="none" style="width:1976px;height:1338px;background:#FFFFFF;" version="1.1" viewBox="0 0 1976 1338" width="1976px" zoomAndPan="magnify"><defs/><g><rect fill="#FFFFFF" height="1126.6563" style="stroke:#181818;stroke-width:1.0;" width="10" x="60" y="96.2188"/><rect fill="#FFFFFF" height="300.5156" style="stroke:#181818;stroke-width:1.0;" width="10" x="401" y="118.5703"/><rect fill="#FFFFFF" height="773.4375" style="stroke:#181818;stroke-width:1.0;" width="10" x="401" y="449.4375"/><rect fill="#FFFFFF" height="239.8125" style="stroke:#181818;stroke-width:1.0;" width="10" x="696" y="148.9219"/><rect fill="#FFFFFF" height="720.7344" style="stroke:#181818;stroke-width:1.0;" width="10" x="696" y="479.7891"/><rect fill="#FFFFFF" height="41.3516" style="stroke:#181818;stroke-width:1.0;" width="10" x="701" y="813.6563"/><rect fill="#FFFFFF" height="30.3516" style="stroke:#181818;stroke-width:1.0;" width="10" x="1000" y="1110.8203"/><rect fill="#FFFFFF" height="30.3516" style="stroke:#181818;stroke-width:1.0;" width="10" x="1260" y="892.3594"/><rect fill="#FFFFFF" height="30.3516" style="stroke:#181818;stroke-width:1.0;" width="10" x="1401" y="328.0313"/><rect fill="#FFFFFF" height="30.3516" style="stroke:#181818;stroke-width:1.0;" width="10" x="1513" y="179.2734"/><rect fill="#FFFFFF" height="30.3516" style="stroke:#181818;stroke-width:1.0;" width="10" x="1513" y="510.1406"/><rect fill="#FFFFFF" height="30.3516" style="stroke:#181818;stroke-width:1.0;" width="10" x="1636.5" y="656.8984"/><rect fill="#FFFFFF" height="30.3516" style="stroke:#181818;stroke-width:1.0;" width="10" x="1820.5" y="953.0625"/><rect fill="none" height="968.8984" style="stroke:#000000;stroke-width:1.5;" width="1959" x="10" y="224.625"/><rect fill="none" height="631.0313" style="stroke:#000000;stroke-width:1.5;" width="1939" x="20" y="555.4922"/><rect fill="none" height="477.2734" style="stroke:#000000;stroke-width:1.5;" width="1919" x="30" y="702.25"/><line style="stroke:#181818;stroke-width:0.5;stroke-dasharray:5.0,5.0;" x1="65" x2="65" y1="86.2188" y2="1240.875"/><line style="stroke:#181818;stroke-width:0.5;stroke-dasharray:5.0,5.0;" x1="406" x2="406" y1="86.2188" y2="1240.875"/><line style="stroke:#181818;stroke-width:0.5;stroke-dasharray:5.0,5.0;" x1="701" x2="701" y1="86.2188" y2="1240.875"/><line style="stroke:#181818;stroke-width:0.5;stroke-dasharray:5.0,5.0;" x1="1005" x2="1005" y1="86.2188" y2="1240.875"/><line style="stroke:#181818;stroke-width:0.5;stroke-dasharray:5.0,5.0;" x1="1265" x2="1265" y1="86.2188" y2="1240.875"/><line style="stroke:#181818;stroke-width:0.5;stroke-dasharray:5.0,5.0;" x1="1406" x2="1406" y1="86.2188" y2="1240.875"/><line style="stroke:#181818;stroke-width:0.5;stroke-dasharray:5.0,5.0;" x1="1518" x2="1518" y1="86.2188" y2="1240.875"/><line style="stroke:#181818;stroke-width:0.5;stroke-dasharray:5.0,5.0;" x1="1641" x2="1641" y1="86.2188" y2="1240.875"/><line style="stroke:#181818;stroke-width:0.5;stroke-dasharray:5.0,5.0;" x1="1825" x2="1825" y1="86.2188" y2="1240.875"/><text fill="#000000" font-family="sans-serif" font-size="14" lengthAdjust="spacing" textLength="44" x="40" y="83.1426">Patient</text><ellipse cx="65" cy="17.1094" fill="#E2E2F0" rx="8" ry="8" style="stroke:#181818;stroke-width:0.5;"/><path d="M65,25.1094 L65,52.1094 M52,33.1094 L78,33.1094 M65,52.1094 L52,67.1094 M65,52.1094 L78,67.1094 " fill="none" style="stroke:#181818;stroke-width:0.5;"/><text fill="#000000" font-family="sans-serif" font-size="14" lengthAdjust="spacing" textLength="44" x="40" y="1254.4082">Patient</text><ellipse cx="65" cy="1265.9844" fill="#E2E2F0" rx="8" ry="8" style="stroke:#181818;stroke-width:0.5;"/><path d="M65,1273.9844 L65,1300.9844 M52,1281.9844 L78,1281.9844 M65,1300.9844 L52,1315.9844 M65,1300.9844 L78,1315.9844 " fill="none" style="stroke:#181818;stroke-width:0.5;"/><rect fill="#E2E2F0" height="49.2188" rx="2.5" ry="2.5" style="stroke:#181818;stroke-width:0.5;" width="112" x="350" y="36"/><text fill="#000000" font-family="sans-serif" font-size="14" font-style="italic" lengthAdjust="spacing" textLength="78" x="367" y="57.5332">&#171;Controller&#187;</text><text fill="#000000" font-family="sans-serif" font-size="14" lengthAdjust="spacing" textLength="98" x="357" y="75.1426">UsersController</text><rect fill="#E2E2F0" height="49.2188" rx="2.5" ry="2.5" style="stroke:#181818;stroke-width:0.5;" width="112" x="350" y="1239.875"/><text fill="#000000" font-family="sans-serif" font-size="14" font-style="italic" lengthAdjust="spacing" textLength="78" x="367" y="1261.4082">&#171;Controller&#187;</text><text fill="#000000" font-family="sans-serif" font-size="14" lengthAdjust="spacing" textLength="98" x="357" y="1279.0176">UsersController</text><rect fill="#E2E2F0" height="49.2188" rx="2.5" ry="2.5" style="stroke:#181818;stroke-width:0.5;" width="90" x="656" y="36"/><text fill="#000000" font-family="sans-serif" font-size="14" font-style="italic" lengthAdjust="spacing" textLength="62" x="670" y="57.5332">&#171;Service&#187;</text><text fill="#000000" font-family="sans-serif" font-size="14" lengthAdjust="spacing" textLength="76" x="663" y="75.1426">UserService</text><rect fill="#E2E2F0" height="49.2188" rx="2.5" ry="2.5" style="stroke:#181818;stroke-width:0.5;" width="90" x="656" y="1239.875"/><text fill="#000000" font-family="sans-serif" font-size="14" font-style="italic" lengthAdjust="spacing" textLength="62" x="670" y="1261.4082">&#171;Service&#187;</text><text fill="#000000" font-family="sans-serif" font-size="14" lengthAdjust="spacing" textLength="76" x="663" y="1279.0176">UserService</text><rect fill="#E2E2F0" height="49.2188" rx="2.5" ry="2.5" style="stroke:#181818;stroke-width:0.5;" width="78" x="966" y="36"/><text fill="#000000" font-family="sans-serif" font-size="14" font-style="italic" lengthAdjust="spacing" textLength="64" x="973" y="57.5332">&#171;Domain&#187;</text><text fill="#000000" font-family="sans-serif" font-size="14" lengthAdjust="spacing" textLength="51" x="979.5" y="75.1426">UserDto</text><rect fill="#E2E2F0" height="49.2188" rx="2.5" ry="2.5" style="stroke:#181818;stroke-width:0.5;" width="78" x="966" y="1239.875"/><text fill="#000000" font-family="sans-serif" font-size="14" font-style="italic" lengthAdjust="spacing" textLength="64" x="973" y="1261.4082">&#171;Domain&#187;</text><text fill="#000000" font-family="sans-serif" font-size="14" lengthAdjust="spacing" textLength="51" x="979.5" y="1279.0176">UserDto</text><rect fill="#E2E2F0" height="49.2188" rx="2.5" ry="2.5" style="stroke:#181818;stroke-width:0.5;" width="164" x="1183" y="36"/><text fill="#000000" font-family="sans-serif" font-size="14" font-style="italic" lengthAdjust="spacing" textLength="64" x="1233" y="57.5332">&#171;Domain&#187;</text><text fill="#000000" font-family="sans-serif" font-size="14" lengthAdjust="spacing" textLength="150" x="1190" y="75.1426">AnonymizedPatientData</text><rect fill="#E2E2F0" height="49.2188" rx="2.5" ry="2.5" style="stroke:#181818;stroke-width:0.5;" width="164" x="1183" y="1239.875"/><text fill="#000000" font-family="sans-serif" font-size="14" font-style="italic" lengthAdjust="spacing" textLength="64" x="1233" y="1261.4082">&#171;Domain&#187;</text><text fill="#000000" font-family="sans-serif" font-size="14" lengthAdjust="spacing" textLength="150" x="1190" y="1279.0176">AnonymizedPatientData</text><rect fill="#E2E2F0" height="49.2188" rx="2.5" ry="2.5" style="stroke:#181818;stroke-width:0.5;" width="98" x="1357" y="36"/><text fill="#000000" font-family="sans-serif" font-size="14" font-style="italic" lengthAdjust="spacing" textLength="64" x="1374" y="57.5332">&#171;Domain&#187;</text><text fill="#000000" font-family="sans-serif" font-size="14" lengthAdjust="spacing" textLength="84" x="1364" y="75.1426">IEmailService</text><rect fill="#E2E2F0" height="49.2188" rx="2.5" ry="2.5" style="stroke:#181818;stroke-width:0.5;" width="98" x="1357" y="1239.875"/><text fill="#000000" font-family="sans-serif" font-size="14" font-style="italic" lengthAdjust="spacing" textLength="64" x="1374" y="1261.4082">&#171;Domain&#187;</text><text fill="#000000" font-family="sans-serif" font-size="14" lengthAdjust="spacing" textLength="84" x="1364" y="1279.0176">IEmailService</text><text fill="#000000" font-family="sans-serif" font-size="14" font-style="italic" lengthAdjust="spacing" textLength="64" x="1483" y="65.5332">&#171;Domain&#187;</text><text fill="#000000" font-family="sans-serif" font-size="14" lengthAdjust="spacing" textLength="100" x="1465" y="83.1426">IUserRepository</text><path d="M1500,15 C1500,5 1518,5 1518,5 C1518,5 1536,5 1536,15 L1536,41 C1536,51 1518,51 1518,51 C1518,51 1500,51 1500,41 L1500,15 " fill="#E2E2F0" style="stroke:#181818;stroke-width:1.5;"/><path d="M1500,15 C1500,25 1518,25 1518,25 C1518,25 1536,25 1536,15 " fill="none" style="stroke:#181818;stroke-width:1.5;"/><text fill="#000000" font-family="sans-serif" font-size="14" font-style="italic" lengthAdjust="spacing" textLength="64" x="1483" y="1254.4082">&#171;Domain&#187;</text><text fill="#000000" font-family="sans-serif" font-size="14" lengthAdjust="spacing" textLength="100" x="1465" y="1272.0176">IUserRepository</text><path d="M1500,1285.0938 C1500,1275.0938 1518,1275.0938 1518,1275.0938 C1518,1275.0938 1536,1275.0938 1536,1285.0938 L1536,1311.0938 C1536,1321.0938 1518,1321.0938 1518,1321.0938 C1518,1321.0938 1500,1321.0938 1500,1311.0938 L1500,1285.0938 " fill="#E2E2F0" style="stroke:#181818;stroke-width:1.5;"/><path d="M1500,1285.0938 C1500,1295.0938 1518,1295.0938 1518,1295.0938 C1518,1295.0938 1536,1295.0938 1536,1285.0938 " fill="none" style="stroke:#181818;stroke-width:1.5;"/><text fill="#000000" font-family="sans-serif" font-size="14" font-style="italic" lengthAdjust="spacing" textLength="64" x="1606.5" y="65.5332">&#171;Domain&#187;</text><text fill="#000000" font-family="sans-serif" font-size="14" lengthAdjust="spacing" textLength="115" x="1581" y="83.1426">IPatientRepository</text><path d="M1623.5,15 C1623.5,5 1641.5,5 1641.5,5 C1641.5,5 1659.5,5 1659.5,15 L1659.5,41 C1659.5,51 1641.5,51 1641.5,51 C1641.5,51 1623.5,51 1623.5,41 L1623.5,15 " fill="#E2E2F0" style="stroke:#181818;stroke-width:1.5;"/><path d="M1623.5,15 C1623.5,25 1641.5,25 1641.5,25 C1641.5,25 1659.5,25 1659.5,15 " fill="none" style="stroke:#181818;stroke-width:1.5;"/><text fill="#000000" font-family="sans-serif" font-size="14" font-style="italic" lengthAdjust="spacing" textLength="64" x="1606.5" y="1254.4082">&#171;Domain&#187;</text><text fill="#000000" font-family="sans-serif" font-size="14" lengthAdjust="spacing" textLength="115" x="1581" y="1272.0176">IPatientRepository</text><path d="M1623.5,1285.0938 C1623.5,1275.0938 1641.5,1275.0938 1641.5,1275.0938 C1641.5,1275.0938 1659.5,1275.0938 1659.5,1285.0938 L1659.5,1311.0938 C1659.5,1321.0938 1641.5,1321.0938 1641.5,1321.0938 C1641.5,1321.0938 1623.5,1321.0938 1623.5,1311.0938 L1623.5,1285.0938 " fill="#E2E2F0" style="stroke:#181818;stroke-width:1.5;"/><path d="M1623.5,1285.0938 C1623.5,1295.0938 1641.5,1295.0938 1641.5,1295.0938 C1641.5,1295.0938 1659.5,1295.0938 1659.5,1285.0938 " fill="none" style="stroke:#181818;stroke-width:1.5;"/><text fill="#000000" font-family="sans-serif" font-size="14" font-style="italic" lengthAdjust="spacing" textLength="64" x="1790.5" y="65.5332">&#171;Domain&#187;</text><text fill="#000000" font-family="sans-serif" font-size="14" lengthAdjust="spacing" textLength="221" x="1712" y="83.1426">IAnonymizedPatientDataRepository</text><path d="M1807.5,15 C1807.5,5 1825.5,5 1825.5,5 C1825.5,5 1843.5,5 1843.5,15 L1843.5,41 C1843.5,51 1825.5,51 1825.5,51 C1825.5,51 1807.5,51 1807.5,41 L1807.5,15 " fill="#E2E2F0" style="stroke:#181818;stroke-width:1.5;"/><path d="M1807.5,15 C1807.5,25 1825.5,25 1825.5,25 C1825.5,25 1843.5,25 1843.5,15 " fill="none" style="stroke:#181818;stroke-width:1.5;"/><text fill="#000000" font-family="sans-serif" font-size="14" font-style="italic" lengthAdjust="spacing" textLength="64" x="1790.5" y="1254.4082">&#171;Domain&#187;</text><text fill="#000000" font-family="sans-serif" font-size="14" lengthAdjust="spacing" textLength="221" x="1712" y="1272.0176">IAnonymizedPatientDataRepository</text><path d="M1807.5,1285.0938 C1807.5,1275.0938 1825.5,1275.0938 1825.5,1275.0938 C1825.5,1275.0938 1843.5,1275.0938 1843.5,1285.0938 L1843.5,1311.0938 C1843.5,1321.0938 1825.5,1321.0938 1825.5,1321.0938 C1825.5,1321.0938 1807.5,1321.0938 1807.5,1311.0938 L1807.5,1285.0938 " fill="#E2E2F0" style="stroke:#181818;stroke-width:1.5;"/><path d="M1807.5,1285.0938 C1807.5,1295.0938 1825.5,1295.0938 1825.5,1295.0938 C1825.5,1295.0938 1843.5,1295.0938 1843.5,1285.0938 " fill="none" style="stroke:#181818;stroke-width:1.5;"/><rect fill="#FFFFFF" height="1126.6563" style="stroke:#181818;stroke-width:1.0;" width="10" x="60" y="96.2188"/><rect fill="#FFFFFF" height="300.5156" style="stroke:#181818;stroke-width:1.0;" width="10" x="401" y="118.5703"/><rect fill="#FFFFFF" height="773.4375" style="stroke:#181818;stroke-width:1.0;" width="10" x="401" y="449.4375"/><rect fill="#FFFFFF" height="239.8125" style="stroke:#181818;stroke-width:1.0;" width="10" x="696" y="148.9219"/><rect fill="#FFFFFF" height="720.7344" style="stroke:#181818;stroke-width:1.0;" width="10" x="696" y="479.7891"/><rect fill="#FFFFFF" height="41.3516" style="stroke:#181818;stroke-width:1.0;" width="10" x="701" y="813.6563"/><rect fill="#FFFFFF" height="30.3516" style="stroke:#181818;stroke-width:1.0;" width="10" x="1000" y="1110.8203"/><rect fill="#FFFFFF" height="30.3516" style="stroke:#181818;stroke-width:1.0;" width="10" x="1260" y="892.3594"/><rect fill="#FFFFFF" height="30.3516" style="stroke:#181818;stroke-width:1.0;" width="10" x="1401" y="328.0313"/><rect fill="#FFFFFF" height="30.3516" style="stroke:#181818;stroke-width:1.0;" width="10" x="1513" y="179.2734"/><rect fill="#FFFFFF" height="30.3516" style="stroke:#181818;stroke-width:1.0;" width="10" x="1513" y="510.1406"/><rect fill="#FFFFFF" height="30.3516" style="stroke:#181818;stroke-width:1.0;" width="10" x="1636.5" y="656.8984"/><rect fill="#FFFFFF" height="30.3516" style="stroke:#181818;stroke-width:1.0;" width="10" x="1820.5" y="953.0625"/><polygon fill="#181818" points="389,114.5703,399,118.5703,389,122.5703,393,118.5703" style="stroke:#181818;stroke-width:1.0;"/><line style="stroke:#181818;stroke-width:1.0;" x1="70" x2="395" y1="118.5703" y2="118.5703"/><text fill="#000000" font-family="sans-serif" font-size="13" font-weight="bold" lengthAdjust="spacing" textLength="7" x="77" y="113.7139">1</text><text fill="#000000" font-family="sans-serif" font-size="13" lengthAdjust="spacing" textLength="301" x="88" y="113.7139">POST /api/users/patients/request-delete/{username}</text><polygon fill="#181818" points="684,144.9219,694,148.9219,684,152.9219,688,148.9219" style="stroke:#181818;stroke-width:1.0;"/><line style="stroke:#181818;stroke-width:1.0;" x1="411" x2="690" y1="148.9219" y2="148.9219"/><text fill="#000000" font-family="sans-serif" font-size="13" font-weight="bold" lengthAdjust="spacing" textLength="7" x="418" y="144.0654">2</text><text fill="#000000" font-family="sans-serif" font-size="13" lengthAdjust="spacing" textLength="255" x="429" y="144.0654">RequestDeleteUserPatientAsync(username)</text><polygon fill="#181818" points="1501,175.2734,1511,179.2734,1501,183.2734,1505,179.2734" style="stroke:#181818;stroke-width:1.0;"/><line style="stroke:#181818;stroke-width:1.0;" x1="706" x2="1507" y1="179.2734" y2="179.2734"/><text fill="#000000" font-family="sans-serif" font-size="13" font-weight="bold" lengthAdjust="spacing" textLength="7" x="713" y="174.417">3</text><text fill="#000000" font-family="sans-serif" font-size="13" lengthAdjust="spacing" textLength="149" x="724" y="174.417">GetByIdAsync(username)</text><polygon fill="#181818" points="717,205.625,707,209.625,717,213.625,713,209.625" style="stroke:#181818;stroke-width:1.0;"/><line style="stroke:#181818;stroke-width:1.0;stroke-dasharray:2.0,2.0;" x1="711" x2="1517" y1="209.625" y2="209.625"/><text fill="#000000" font-family="sans-serif" font-size="13" font-weight="bold" lengthAdjust="spacing" textLength="7" x="723" y="204.7686">4</text><text fill="#000000" font-family="sans-serif" font-size="13" lengthAdjust="spacing" textLength="25" x="734" y="204.7686">user</text><path d="M10,224.625 L71,224.625 L71,232.9766 L61,242.9766 L10,242.9766 L10,224.625 " fill="#EEEEEE" style="stroke:#000000;stroke-width:1.5;"/><rect fill="none" height="968.8984" style="stroke:#000000;stroke-width:1.5;" width="1959" x="10" y="224.625"/><text fill="#000000" font-family="sans-serif" font-size="13" font-weight="bold" lengthAdjust="spacing" textLength="16" x="25" y="239.1201">alt</text><text fill="#000000" font-family="sans-serif" font-size="11" font-weight="bold" lengthAdjust="spacing" textLength="72" x="86" y="238.0439">[user == null]</text><polygon fill="#181818" points="422,261.3281,412,265.3281,422,269.3281,418,265.3281" style="stroke:#181818;stroke-width:1.0;"/><line style="stroke:#181818;stroke-width:1.0;stroke-dasharray:2.0,2.0;" x1="416" x2="695" y1="265.3281" y2="265.3281"/><text fill="#000000" font-family="sans-serif" font-size="13" font-weight="bold" lengthAdjust="spacing" textLength="7" x="428" y="260.4717">5</text><text fill="#000000" font-family="sans-serif" font-size="13" lengthAdjust="spacing" textLength="138" x="439" y="260.4717">NullReferenceException</text><polygon fill="#181818" points="81,291.6797,71,295.6797,81,299.6797,77,295.6797" style="stroke:#181818;stroke-width:1.0;"/><line style="stroke:#181818;stroke-width:1.0;stroke-dasharray:2.0,2.0;" x1="75" x2="400" y1="295.6797" y2="295.6797"/><text fill="#000000" font-family="sans-serif" font-size="13" font-weight="bold" lengthAdjust="spacing" textLength="7" x="87" y="290.8232">6</text><text fill="#000000" font-family="sans-serif" font-size="13" lengthAdjust="spacing" textLength="85" x="98" y="290.8232">404 Not Found</text><line style="stroke:#000000;stroke-width:1.0;stroke-dasharray:2.0,2.0;" x1="10" x2="1969" y1="304.6797" y2="304.6797"/><polygon fill="#181818" points="1389,324.0313,1399,328.0313,1389,332.0313,1393,328.0313" style="stroke:#181818;stroke-width:1.0;"/><line style="stroke:#181818;stroke-width:1.0;" x1="706" x2="1395" y1="328.0313" y2="328.0313"/><text fill="#000000" font-family="sans-serif" font-size="13" font-weight="bold" lengthAdjust="spacing" textLength="7" x="713" y="323.1748">7</text><text fill="#000000" font-family="sans-serif" font-size="13" lengthAdjust="spacing" textLength="197" x="724" y="323.1748">SendEmailAsync(to,subject,body)</text><polygon fill="#181818" points="717,354.3828,707,358.3828,717,362.3828,713,358.3828" style="stroke:#181818;stroke-width:1.0;"/><line style="stroke:#181818;stroke-width:1.0;stroke-dasharray:2.0,2.0;" x1="711" x2="1405" y1="358.3828" y2="358.3828"/><text fill="#000000" font-family="sans-serif" font-size="13" font-weight="bold" lengthAdjust="spacing" textLength="7" x="723" y="353.5264">8</text><text fill="#000000" font-family="sans-serif" font-size="13" lengthAdjust="spacing" textLength="53" x="734" y="353.5264">message</text><polygon fill="#181818" points="422,384.7344,412,388.7344,422,392.7344,418,388.7344" style="stroke:#181818;stroke-width:1.0;"/><line style="stroke:#181818;stroke-width:1.0;stroke-dasharray:2.0,2.0;" x1="416" x2="700" y1="388.7344" y2="388.7344"/><text fill="#000000" font-family="sans-serif" font-size="13" font-weight="bold" lengthAdjust="spacing" textLength="7" x="428" y="383.8779">9</text><text fill="#000000" font-family="sans-serif" font-size="13" lengthAdjust="spacing" textLength="53" x="439" y="383.8779">message</text><polygon fill="#181818" points="81,415.0859,71,419.0859,81,423.0859,77,419.0859" style="stroke:#181818;stroke-width:1.0;"/><line style="stroke:#181818;stroke-width:1.0;stroke-dasharray:2.0,2.0;" x1="75" x2="405" y1="419.0859" y2="419.0859"/><text fill="#000000" font-family="sans-serif" font-size="13" font-weight="bold" lengthAdjust="spacing" textLength="14" x="87" y="414.2295">10</text><text fill="#000000" font-family="sans-serif" font-size="13" lengthAdjust="spacing" textLength="44" x="105" y="414.2295">200 OK</text><polygon fill="#181818" points="389,445.4375,399,449.4375,389,453.4375,393,449.4375" style="stroke:#181818;stroke-width:1.0;"/><line style="stroke:#181818;stroke-width:1.0;" x1="70" x2="395" y1="449.4375" y2="449.4375"/><text fill="#000000" font-family="sans-serif" font-size="13" font-weight="bold" lengthAdjust="spacing" textLength="14" x="77" y="444.5811">11</text><text fill="#000000" font-family="sans-serif" font-size="13" lengthAdjust="spacing" textLength="287" x="95" y="444.5811">GET api/users/patients/confirm-delete/{username}</text><polygon fill="#181818" points="684,475.7891,694,479.7891,684,483.7891,688,479.7891" style="stroke:#181818;stroke-width:1.0;"/><line style="stroke:#181818;stroke-width:1.0;" x1="411" x2="690" y1="479.7891" y2="479.7891"/><text fill="#000000" font-family="sans-serif" font-size="13" font-weight="bold" lengthAdjust="spacing" textLength="14" x="418" y="474.9326">12</text><text fill="#000000" font-family="sans-serif" font-size="13" lengthAdjust="spacing" textLength="207" x="436" y="474.9326">DeleteUserPatientAsync(username)</text><polygon fill="#181818" points="1501,506.1406,1511,510.1406,1501,514.1406,1505,510.1406" style="stroke:#181818;stroke-width:1.0;"/><line style="stroke:#181818;stroke-width:1.0;" x1="706" x2="1507" y1="510.1406" y2="510.1406"/><text fill="#000000" font-family="sans-serif" font-size="13" font-weight="bold" lengthAdjust="spacing" textLength="14" x="713" y="505.2842">13</text><text fill="#000000" font-family="sans-serif" font-size="13" lengthAdjust="spacing" textLength="149" x="731" y="505.2842">GetByIdAsync(username)</text><polygon fill="#181818" points="717,536.4922,707,540.4922,717,544.4922,713,540.4922" style="stroke:#181818;stroke-width:1.0;"/><line style="stroke:#181818;stroke-width:1.0;stroke-dasharray:2.0,2.0;" x1="711" x2="1517" y1="540.4922" y2="540.4922"/><text fill="#000000" font-family="sans-serif" font-size="13" font-weight="bold" lengthAdjust="spacing" textLength="14" x="723" y="535.6357">14</text><text fill="#000000" font-family="sans-serif" font-size="13" lengthAdjust="spacing" textLength="25" x="741" y="535.6357">user</text><path d="M20,555.4922 L81,555.4922 L81,563.8438 L71,573.8438 L20,573.8438 L20,555.4922 " fill="#EEEEEE" style="stroke:#000000;stroke-width:1.5;"/><rect fill="none" height="631.0313" style="stroke:#000000;stroke-width:1.5;" width="1939" x="20" y="555.4922"/><text fill="#000000" font-family="sans-serif" font-size="13" font-weight="bold" lengthAdjust="spacing" textLength="16" x="35" y="569.9873">alt</text><text fill="#000000" font-family="sans-serif" font-size="11" font-weight="bold" lengthAdjust="spacing" textLength="72" x="96" y="568.9111">[user == null]</text><polygon fill="#181818" points="422,592.1953,412,596.1953,422,600.1953,418,596.1953" style="stroke:#181818;stroke-width:1.0;"/><line style="stroke:#181818;stroke-width:1.0;stroke-dasharray:2.0,2.0;" x1="416" x2="695" y1="596.1953" y2="596.1953"/><text fill="#000000" font-family="sans-serif" font-size="13" font-weight="bold" lengthAdjust="spacing" textLength="14" x="428" y="591.3389">15</text><text fill="#000000" font-family="sans-serif" font-size="13" lengthAdjust="spacing" textLength="138" x="446" y="591.3389">NullReferenceException</text><polygon fill="#181818" points="81,622.5469,71,626.5469,81,630.5469,77,626.5469" style="stroke:#181818;stroke-width:1.0;"/><line style="stroke:#181818;stroke-width:1.0;stroke-dasharray:2.0,2.0;" x1="75" x2="400" y1="626.5469" y2="626.5469"/><text fill="#000000" font-family="sans-serif" font-size="13" font-weight="bold" lengthAdjust="spacing" textLength="14" x="87" y="621.6904">16</text><text fill="#000000" font-family="sans-serif" font-size="13" lengthAdjust="spacing" textLength="85" x="105" y="621.6904">404 Not Found</text><polygon fill="#181818" points="1624.5,652.8984,1634.5,656.8984,1624.5,660.8984,1628.5,656.8984" style="stroke:#181818;stroke-width:1.0;"/><line style="stroke:#181818;stroke-width:1.0;" x1="706" x2="1630.5" y1="656.8984" y2="656.8984"/><text fill="#000000" font-family="sans-serif" font-size="13" font-weight="bold" lengthAdjust="spacing" textLength="14" x="713" y="652.042">17</text><text fill="#000000" font-family="sans-serif" font-size="13" lengthAdjust="spacing" textLength="176" x="731" y="652.042">GetByUserIdAsync(username)</text><polygon fill="#181818" points="717,683.25,707,687.25,717,691.25,713,687.25" style="stroke:#181818;stroke-width:1.0;"/><line style="stroke:#181818;stroke-width:1.0;stroke-dasharray:2.0,2.0;" x1="711" x2="1640.5" y1="687.25" y2="687.25"/><text fill="#000000" font-family="sans-serif" font-size="13" font-weight="bold" lengthAdjust="spacing" textLength="14" x="723" y="682.3936">18</text><text fill="#000000" font-family="sans-serif" font-size="13" lengthAdjust="spacing" textLength="39" x="741" y="682.3936">patient</text><path d="M30,702.25 L91,702.25 L91,710.6016 L81,720.6016 L30,720.6016 L30,702.25 " fill="#EEEEEE" style="stroke:#000000;stroke-width:1.5;"/><rect fill="none" height="477.2734" style="stroke:#000000;stroke-width:1.5;" width="1919" x="30" y="702.25"/><text fill="#000000" font-family="sans-serif" font-size="13" font-weight="bold" lengthAdjust="spacing" textLength="16" x="45" y="716.7451">alt</text><text fill="#000000" font-family="sans-serif" font-size="11" font-weight="bold" lengthAdjust="spacing" textLength="84" x="106" y="715.6689">[patient == null]</text><polygon fill="#181818" points="422,738.9531,412,742.9531,422,746.9531,418,742.9531" style="stroke:#181818;stroke-width:1.0;"/><line style="stroke:#181818;stroke-width:1.0;stroke-dasharray:2.0,2.0;" x1="416" x2="695" y1="742.9531" y2="742.9531"/><text fill="#000000" font-family="sans-serif" font-size="13" font-weight="bold" lengthAdjust="spacing" textLength="14" x="428" y="738.0967">19</text><text fill="#000000" font-family="sans-serif" font-size="13" lengthAdjust="spacing" textLength="138" x="446" y="738.0967">NullReferenceException</text><polygon fill="#181818" points="81,769.3047,71,773.3047,81,777.3047,77,773.3047" style="stroke:#181818;stroke-width:1.0;"/><line style="stroke:#181818;stroke-width:1.0;stroke-dasharray:2.0,2.0;" x1="75" x2="400" y1="773.3047" y2="773.3047"/><text fill="#000000" font-family="sans-serif" font-size="13" font-weight="bold" lengthAdjust="spacing" textLength="14" x="87" y="768.4482">20</text><text fill="#000000" font-family="sans-serif" font-size="13" lengthAdjust="spacing" textLength="85" x="105" y="768.4482">404 Not Found</text><line style="stroke:#000000;stroke-width:1.0;stroke-dasharray:2.0,2.0;" x1="30" x2="1949" y1="782.3047" y2="782.3047"/><line style="stroke:#181818;stroke-width:1.0;" x1="706" x2="753" y1="800.6563" y2="800.6563"/><line style="stroke:#181818;stroke-width:1.0;" x1="753" x2="753" y1="800.6563" y2="813.6563"/><line style="stroke:#181818;stroke-width:1.0;" x1="712" x2="753" y1="813.6563" y2="813.6563"/><polygon fill="#181818" points="722,809.6563,712,813.6563,722,817.6563,718,813.6563" style="stroke:#181818;stroke-width:1.0;"/><text fill="#000000" font-family="sans-serif" font-size="13" font-weight="bold" lengthAdjust="spacing" textLength="14" x="718" y="795.7998">21</text><text fill="#000000" font-family="sans-serif" font-size="13" lengthAdjust="spacing" textLength="232" x="736" y="795.7998">CalculateAgeRange(patient.DateOfBirth)</text><line style="stroke:#181818;stroke-width:1.0;stroke-dasharray:2.0,2.0;" x1="711" x2="753" y1="854.0078" y2="854.0078"/><line style="stroke:#181818;stroke-width:1.0;stroke-dasharray:2.0,2.0;" x1="753" x2="753" y1="854.0078" y2="867.0078"/><line style="stroke:#181818;stroke-width:1.0;stroke-dasharray:2.0,2.0;" x1="706" x2="753" y1="867.0078" y2="867.0078"/><polygon fill="#181818" points="716,863.0078,706,867.0078,716,871.0078,712,867.0078" style="stroke:#181818;stroke-width:1.0;"/><text fill="#000000" font-family="sans-serif" font-size="13" font-weight="bold" lengthAdjust="spacing" textLength="14" x="718" y="849.1514">22</text><text fill="#000000" font-family="sans-serif" font-size="13" lengthAdjust="spacing" textLength="58" x="736" y="849.1514">ageRange</text><polygon fill="#181818" points="1248,888.3594,1258,892.3594,1248,896.3594,1252,892.3594" style="stroke:#181818;stroke-width:1.0;"/><line style="stroke:#181818;stroke-width:1.0;" x1="706" x2="1254" y1="892.3594" y2="892.3594"/><text fill="#000000" font-family="sans-serif" font-size="13" font-weight="bold" lengthAdjust="spacing" textLength="14" x="713" y="887.5029">23</text><text fill="#000000" font-family="sans-serif" font-size="13" lengthAdjust="spacing" textLength="517" x="731" y="887.5029">create(ageRange, patient.Gender, patient.MedicalConditions, patient.AppointmentHistory)</text><polygon fill="#181818" points="717,918.7109,707,922.7109,717,926.7109,713,922.7109" style="stroke:#181818;stroke-width:1.0;"/><line style="stroke:#181818;stroke-width:1.0;stroke-dasharray:2.0,2.0;" x1="711" x2="1264" y1="922.7109" y2="922.7109"/><text fill="#000000" font-family="sans-serif" font-size="13" font-weight="bold" lengthAdjust="spacing" textLength="14" x="723" y="917.8545">24</text><text fill="#000000" font-family="sans-serif" font-size="13" lengthAdjust="spacing" textLength="138" x="741" y="917.8545">anonymizedPatientData</text><polygon fill="#181818" points="1808.5,949.0625,1818.5,953.0625,1808.5,957.0625,1812.5,953.0625" style="stroke:#181818;stroke-width:1.0;"/><line style="stroke:#181818;stroke-width:1.0;" x1="706" x2="1814.5" y1="953.0625" y2="953.0625"/><text fill="#000000" font-family="sans-serif" font-size="13" font-weight="bold" lengthAdjust="spacing" textLength="14" x="713" y="948.2061">25</text><text fill="#000000" font-family="sans-serif" font-size="13" lengthAdjust="spacing" textLength="206" x="731" y="948.2061">AddAsync(anonymizedPatientData)</text><polygon fill="#181818" points="717,979.4141,707,983.4141,717,987.4141,713,983.4141" style="stroke:#181818;stroke-width:1.0;"/><line style="stroke:#181818;stroke-width:1.0;stroke-dasharray:2.0,2.0;" x1="711" x2="1824.5" y1="983.4141" y2="983.4141"/><text fill="#000000" font-family="sans-serif" font-size="13" font-weight="bold" lengthAdjust="spacing" textLength="14" x="723" y="978.5576">26</text><text fill="#000000" font-family="sans-serif" font-size="13" lengthAdjust="spacing" textLength="138" x="741" y="978.5576">anonymizedPatientData</text><polygon fill="#181818" points="1506,1009.7656,1516,1013.7656,1506,1017.7656,1510,1013.7656" style="stroke:#181818;stroke-width:1.0;"/><line style="stroke:#181818;stroke-width:1.0;" x1="706" x2="1512" y1="1013.7656" y2="1013.7656"/><text fill="#000000" font-family="sans-serif" font-size="13" font-weight="bold" lengthAdjust="spacing" textLength="14" x="713" y="1008.9092">27</text><text fill="#000000" font-family="sans-serif" font-size="13" lengthAdjust="spacing" textLength="79" x="731" y="1008.9092">Remove(user)</text><polygon fill="#181818" points="1629.5,1040.1172,1639.5,1044.1172,1629.5,1048.1172,1633.5,1044.1172" style="stroke:#181818;stroke-width:1.0;"/><line style="stroke:#181818;stroke-width:1.0;" x1="706" x2="1635.5" y1="1044.1172" y2="1044.1172"/><text fill="#000000" font-family="sans-serif" font-size="13" font-weight="bold" lengthAdjust="spacing" textLength="14" x="713" y="1039.2607">28</text><text fill="#000000" font-family="sans-serif" font-size="13" lengthAdjust="spacing" textLength="93" x="731" y="1039.2607">Remove(patient)</text><path d="M711,1057.1172 L711,1083.1172 L891,1083.1172 L891,1067.1172 L881,1057.1172 L711,1057.1172 " fill="#FEFFDD" style="stroke:#181818;stroke-width:0.5;"/><path d="M881,1057.1172 L881,1067.1172 L891,1067.1172 L881,1057.1172 " fill="#FEFFDD" style="stroke:#181818;stroke-width:0.5;"/><text fill="#000000" font-family="sans-serif" font-size="13" lengthAdjust="spacing" textLength="159" x="717" y="1075.6123">Delete user in the auth0 api</text><polygon fill="#181818" points="988,1106.8203,998,1110.8203,988,1114.8203,992,1110.8203" style="stroke:#181818;stroke-width:1.0;"/><line style="stroke:#181818;stroke-width:1.0;" x1="706" x2="994" y1="1110.8203" y2="1110.8203"/><text fill="#000000" font-family="sans-serif" font-size="13" font-weight="bold" lengthAdjust="spacing" textLength="14" x="713" y="1105.9639">29</text><text fill="#000000" font-family="sans-serif" font-size="13" lengthAdjust="spacing" textLength="257" x="731" y="1105.9639">create(user.Username,user.Email,user.Role)</text><polygon fill="#181818" points="717,1137.1719,707,1141.1719,717,1145.1719,713,1141.1719" style="stroke:#181818;stroke-width:1.0;"/><line style="stroke:#181818;stroke-width:1.0;stroke-dasharray:2.0,2.0;" x1="711" x2="1004" y1="1141.1719" y2="1141.1719"/><text fill="#000000" font-family="sans-serif" font-size="13" font-weight="bold" lengthAdjust="spacing" textLength="14" x="723" y="1136.3154">30</text><text fill="#000000" font-family="sans-serif" font-size="13" lengthAdjust="spacing" textLength="45" x="741" y="1136.3154">userDto</text><polygon fill="#181818" points="422,1167.5234,412,1171.5234,422,1175.5234,418,1171.5234" style="stroke:#181818;stroke-width:1.0;"/><line style="stroke:#181818;stroke-width:1.0;stroke-dasharray:2.0,2.0;" x1="416" x2="695" y1="1171.5234" y2="1171.5234"/><text fill="#000000" font-family="sans-serif" font-size="13" font-weight="bold" lengthAdjust="spacing" textLength="14" x="428" y="1166.667">31</text><text fill="#000000" font-family="sans-serif" font-size="13" lengthAdjust="spacing" textLength="45" x="446" y="1166.667">userDto</text><polygon fill="#181818" points="76,1218.875,66,1222.875,76,1226.875,72,1222.875" style="stroke:#181818;stroke-width:1.0;"/><line style="stroke:#181818;stroke-width:1.0;stroke-dasharray:2.0,2.0;" x1="70" x2="405" y1="1222.875" y2="1222.875"/><text fill="#000000" font-family="sans-serif" font-size="13" font-weight="bold" lengthAdjust="spacing" textLength="14" x="82" y="1218.0186">32</text><text fill="#000000" font-family="sans-serif" font-size="13" lengthAdjust="spacing" textLength="44" x="100" y="1218.0186">200 OK</text><!--SRC=[pLV9Rjim4BtxAuYS4i0RYfo4n80JfsbGD0cSv0DeQMopa4YLf8AwHV-zf4HPf4GjHdEeJjpcpV0Dtv32cMGqIpR0HoCSIiRHsJEM1AWyGrWWqrxgcL6AkIGXIJ6LwEnD01UtZ4hEuXXulhhgegkhghDOD4rVWB-J478pqrOsfkKpM4cMBpPjjNZ54aneVUsICdf8o2-8JEmhB75kwPrfnNcuKwEn7QOpOjj52cU31IWZ7TqQKYQ88knm3BWQQh4p4TLC6wCjrjwTrR1wrjZ8-Y2GTop1JVy8gSyUcIpiZ0Ve-Udb5SrmIcQPFXopj5WhPXn-P23a988O9Cn-wscA4_XJO1xTMMZ5ZFwiGUMmf3z0wm9qbMDgailGn866vwMBYmh8SMLmd4cdex_IcV9RosA0xa7U71wYJc-EHnUXkL1_DIyJQyFAfVRIj8jWi0iSonm4NLyZciMnFuZZhklvVLGcQzW21nh2tSyGKaaOzOFOvmHTJIOkqkNy4ZqoYJwpZ4ODUuW5ZBgIuIenK5CqoeUAR4Ws5jdcEuHol67HeIifBfH_AwwtYNC84n02xw0pApqkMkdsObku3KHRAGhCIK60FitdwEbhiTf2gOpw1Nv_zueyyWuPtHAUd23lVdKFbtKx7nyXuS7QEbMw0sNRBzb_bkifKctZjdbJ6NhrtePIt01fZRM5w02PCzbATOyBpRQ1A0b7_nFZtPNHLT0jZiCiLfjUxc2DwGxEpSwcwkQ7f-qDuNBVLHixYwA_76BZgc7ILH_xA-EYvUqMe923WZWl_OxBx4tlrPK0lEf_WuY4E5P4HqGdHLHJopHbXCf4jRyGeGz55olUIFmS-ODs6KDu69x5ry08-jXpjBgCZ4QzuNJUe3tW9r3ZLtNmKHHrnMHBg75Fh25Xxv2NhujEddrLq1YRm-QnLr9NVZdPxILYsshNnGrO57z2aTm3mfdSp_KDFEfxgke_fACwDCJqpHJVSTxBdoH5SytYtdUhWcj_i6fVxg7EsangbvvtJMjrBL6TWbXxFlhweo4rfxia3tWxDIyPyzVq5m00]--></g></svg>