<?xml version="1.0" encoding="us-ascii" standalone="no"?><svg xmlns="http://www.w3.org/2000/svg" xmlns:xlink="http://www.w3.org/1999/xlink" contentStyleType="text/css" height="792px" preserveAspectRatio="none" style="width:1101px;height:792px;background:#FFFFFF;" version="1.1" viewBox="0 0 1101 792" width="1101px" zoomAndPan="magnify"><defs/><g><rect fill="#FFFFFF" height="580.6797" style="stroke:#181818;stroke-width:1.0;" width="10" x="50" y="96.2188"/><rect fill="#FFFFFF" height="558.3281" style="stroke:#181818;stroke-width:1.0;" width="10" x="320" y="118.5703"/><rect fill="#FFFFFF" height="505.625" style="stroke:#181818;stroke-width:1.0;" width="10" x="567" y="148.9219"/><rect fill="#FFFFFF" height="30.3516" style="stroke:#181818;stroke-width:1.0;" width="10" x="784" y="571.8438"/><rect fill="#FFFFFF" height="30.3516" style="stroke:#181818;stroke-width:1.0;" width="10" x="886" y="179.2734"/><rect fill="#FFFFFF" height="30.3516" style="stroke:#181818;stroke-width:1.0;" width="10" x="1009.5" y="326.0313"/><rect fill="none" height="422.9219" style="stroke:#000000;stroke-width:1.5;" width="1085" x="10" y="224.625"/><rect fill="none" height="269.1641" style="stroke:#000000;stroke-width:1.5;" width="1065" x="20" y="371.3828"/><line style="stroke:#181818;stroke-width:0.5;stroke-dasharray:5.0,5.0;" x1="55" x2="55" y1="86.2188" y2="694.8984"/><line style="stroke:#181818;stroke-width:0.5;stroke-dasharray:5.0,5.0;" x1="325" x2="325" y1="86.2188" y2="694.8984"/><line style="stroke:#181818;stroke-width:0.5;stroke-dasharray:5.0,5.0;" x1="572" x2="572" y1="86.2188" y2="694.8984"/><line style="stroke:#181818;stroke-width:0.5;stroke-dasharray:5.0,5.0;" x1="789" x2="789" y1="86.2188" y2="694.8984"/><line style="stroke:#181818;stroke-width:0.5;stroke-dasharray:5.0,5.0;" x1="891" x2="891" y1="86.2188" y2="694.8984"/><line style="stroke:#181818;stroke-width:0.5;stroke-dasharray:5.0,5.0;" x1="1014" x2="1014" y1="86.2188" y2="694.8984"/><text fill="#000000" font-family="sans-serif" font-size="14" lengthAdjust="spacing" textLength="44" x="30" y="83.1426">Patient</text><ellipse cx="55" cy="17.1094" fill="#E2E2F0" rx="8" ry="8" style="stroke:#181818;stroke-width:0.5;"/><path d="M55,25.1094 L55,52.1094 M42,33.1094 L68,33.1094 M55,52.1094 L42,67.1094 M55,52.1094 L68,67.1094 " fill="none" style="stroke:#181818;stroke-width:0.5;"/><text fill="#000000" font-family="sans-serif" font-size="14" lengthAdjust="spacing" textLength="44" x="30" y="708.4316">Patient</text><ellipse cx="55" cy="720.0078" fill="#E2E2F0" rx="8" ry="8" style="stroke:#181818;stroke-width:0.5;"/><path d="M55,728.0078 L55,755.0078 M42,736.0078 L68,736.0078 M55,755.0078 L42,770.0078 M55,755.0078 L68,770.0078 " fill="none" style="stroke:#181818;stroke-width:0.5;"/><rect fill="#E2E2F0" height="49.2188" rx="2.5" ry="2.5" style="stroke:#181818;stroke-width:0.5;" width="112" x="269" y="36"/><text fill="#000000" font-family="sans-serif" font-size="14" font-style="italic" lengthAdjust="spacing" textLength="78" x="286" y="57.5332">&#171;Controller&#187;</text><text fill="#000000" font-family="sans-serif" font-size="14" lengthAdjust="spacing" textLength="98" x="276" y="75.1426">UsersController</text><rect fill="#E2E2F0" height="49.2188" rx="2.5" ry="2.5" style="stroke:#181818;stroke-width:0.5;" width="112" x="269" y="693.8984"/><text fill="#000000" font-family="sans-serif" font-size="14" font-style="italic" lengthAdjust="spacing" textLength="78" x="286" y="715.4316">&#171;Controller&#187;</text><text fill="#000000" font-family="sans-serif" font-size="14" lengthAdjust="spacing" textLength="98" x="276" y="733.041">UsersController</text><rect fill="#E2E2F0" height="49.2188" rx="2.5" ry="2.5" style="stroke:#181818;stroke-width:0.5;" width="90" x="527" y="36"/><text fill="#000000" font-family="sans-serif" font-size="14" font-style="italic" lengthAdjust="spacing" textLength="62" x="541" y="57.5332">&#171;Service&#187;</text><text fill="#000000" font-family="sans-serif" font-size="14" lengthAdjust="spacing" textLength="76" x="534" y="75.1426">UserService</text><rect fill="#E2E2F0" height="49.2188" rx="2.5" ry="2.5" style="stroke:#181818;stroke-width:0.5;" width="90" x="527" y="693.8984"/><text fill="#000000" font-family="sans-serif" font-size="14" font-style="italic" lengthAdjust="spacing" textLength="62" x="541" y="715.4316">&#171;Service&#187;</text><text fill="#000000" font-family="sans-serif" font-size="14" lengthAdjust="spacing" textLength="76" x="534" y="733.041">UserService</text><rect fill="#E2E2F0" height="49.2188" rx="2.5" ry="2.5" style="stroke:#181818;stroke-width:0.5;" width="78" x="750" y="36"/><text fill="#000000" font-family="sans-serif" font-size="14" font-style="italic" lengthAdjust="spacing" textLength="64" x="757" y="57.5332">&#171;Domain&#187;</text><text fill="#000000" font-family="sans-serif" font-size="14" lengthAdjust="spacing" textLength="51" x="763.5" y="75.1426">UserDto</text><rect fill="#E2E2F0" height="49.2188" rx="2.5" ry="2.5" style="stroke:#181818;stroke-width:0.5;" width="78" x="750" y="693.8984"/><text fill="#000000" font-family="sans-serif" font-size="14" font-style="italic" lengthAdjust="spacing" textLength="64" x="757" y="715.4316">&#171;Domain&#187;</text><text fill="#000000" font-family="sans-serif" font-size="14" lengthAdjust="spacing" textLength="51" x="763.5" y="733.041">UserDto</text><text fill="#000000" font-family="sans-serif" font-size="14" font-style="italic" lengthAdjust="spacing" textLength="64" x="856" y="65.5332">&#171;Domain&#187;</text><text fill="#000000" font-family="sans-serif" font-size="14" lengthAdjust="spacing" textLength="100" x="838" y="83.1426">IUserRepository</text><path d="M873,15 C873,5 891,5 891,5 C891,5 909,5 909,15 L909,41 C909,51 891,51 891,51 C891,51 873,51 873,41 L873,15 " fill="#E2E2F0" style="stroke:#181818;stroke-width:1.5;"/><path d="M873,15 C873,25 891,25 891,25 C891,25 909,25 909,15 " fill="none" style="stroke:#181818;stroke-width:1.5;"/><text fill="#000000" font-family="sans-serif" font-size="14" font-style="italic" lengthAdjust="spacing" textLength="64" x="856" y="708.4316">&#171;Domain&#187;</text><text fill="#000000" font-family="sans-serif" font-size="14" lengthAdjust="spacing" textLength="100" x="838" y="726.041">IUserRepository</text><path d="M873,739.1172 C873,729.1172 891,729.1172 891,729.1172 C891,729.1172 909,729.1172 909,739.1172 L909,765.1172 C909,775.1172 891,775.1172 891,775.1172 C891,775.1172 873,775.1172 873,765.1172 L873,739.1172 " fill="#E2E2F0" style="stroke:#181818;stroke-width:1.5;"/><path d="M873,739.1172 C873,749.1172 891,749.1172 891,749.1172 C891,749.1172 909,749.1172 909,739.1172 " fill="none" style="stroke:#181818;stroke-width:1.5;"/><text fill="#000000" font-family="sans-serif" font-size="14" font-style="italic" lengthAdjust="spacing" textLength="64" x="979.5" y="65.5332">&#171;Domain&#187;</text><text fill="#000000" font-family="sans-serif" font-size="14" lengthAdjust="spacing" textLength="115" x="954" y="83.1426">IPatientRepository</text><path d="M996.5,15 C996.5,5 1014.5,5 1014.5,5 C1014.5,5 1032.5,5 1032.5,15 L1032.5,41 C1032.5,51 1014.5,51 1014.5,51 C1014.5,51 996.5,51 996.5,41 L996.5,15 " fill="#E2E2F0" style="stroke:#181818;stroke-width:1.5;"/><path d="M996.5,15 C996.5,25 1014.5,25 1014.5,25 C1014.5,25 1032.5,25 1032.5,15 " fill="none" style="stroke:#181818;stroke-width:1.5;"/><text fill="#000000" font-family="sans-serif" font-size="14" font-style="italic" lengthAdjust="spacing" textLength="64" x="979.5" y="708.4316">&#171;Domain&#187;</text><text fill="#000000" font-family="sans-serif" font-size="14" lengthAdjust="spacing" textLength="115" x="954" y="726.041">IPatientRepository</text><path d="M996.5,739.1172 C996.5,729.1172 1014.5,729.1172 1014.5,729.1172 C1014.5,729.1172 1032.5,729.1172 1032.5,739.1172 L1032.5,765.1172 C1032.5,775.1172 1014.5,775.1172 1014.5,775.1172 C1014.5,775.1172 996.5,775.1172 996.5,765.1172 L996.5,739.1172 " fill="#E2E2F0" style="stroke:#181818;stroke-width:1.5;"/><path d="M996.5,739.1172 C996.5,749.1172 1014.5,749.1172 1014.5,749.1172 C1014.5,749.1172 1032.5,749.1172 1032.5,739.1172 " fill="none" style="stroke:#181818;stroke-width:1.5;"/><rect fill="#FFFFFF" height="580.6797" style="stroke:#181818;stroke-width:1.0;" width="10" x="50" y="96.2188"/><rect fill="#FFFFFF" height="558.3281" style="stroke:#181818;stroke-width:1.0;" width="10" x="320" y="118.5703"/><rect fill="#FFFFFF" height="505.625" style="stroke:#181818;stroke-width:1.0;" width="10" x="567" y="148.9219"/><rect fill="#FFFFFF" height="30.3516" style="stroke:#181818;stroke-width:1.0;" width="10" x="784" y="571.8438"/><rect fill="#FFFFFF" height="30.3516" style="stroke:#181818;stroke-width:1.0;" width="10" x="886" y="179.2734"/><rect fill="#FFFFFF" height="30.3516" style="stroke:#181818;stroke-width:1.0;" width="10" x="1009.5" y="326.0313"/><polygon fill="#181818" points="308,114.5703,318,118.5703,308,122.5703,312,118.5703" style="stroke:#181818;stroke-width:1.0;"/><line style="stroke:#181818;stroke-width:1.0;" x1="60" x2="314" y1="118.5703" y2="118.5703"/><text fill="#000000" font-family="sans-serif" font-size="13" font-weight="bold" lengthAdjust="spacing" textLength="7" x="67" y="113.7139">1</text><text fill="#000000" font-family="sans-serif" font-size="13" lengthAdjust="spacing" textLength="230" x="78" y="113.7139">DELETE /api/users/patients/{username}</text><polygon fill="#181818" points="555,144.9219,565,148.9219,555,152.9219,559,148.9219" style="stroke:#181818;stroke-width:1.0;"/><line style="stroke:#181818;stroke-width:1.0;" x1="330" x2="561" y1="148.9219" y2="148.9219"/><text fill="#000000" font-family="sans-serif" font-size="13" font-weight="bold" lengthAdjust="spacing" textLength="7" x="337" y="144.0654">2</text><text fill="#000000" font-family="sans-serif" font-size="13" lengthAdjust="spacing" textLength="207" x="348" y="144.0654">DeleteUserPatientAsync(username)</text><polygon fill="#181818" points="874,175.2734,884,179.2734,874,183.2734,878,179.2734" style="stroke:#181818;stroke-width:1.0;"/><line style="stroke:#181818;stroke-width:1.0;" x1="577" x2="880" y1="179.2734" y2="179.2734"/><text fill="#000000" font-family="sans-serif" font-size="13" font-weight="bold" lengthAdjust="spacing" textLength="7" x="584" y="174.417">3</text><text fill="#000000" font-family="sans-serif" font-size="13" lengthAdjust="spacing" textLength="149" x="595" y="174.417">GetByIdAsync(username)</text><polygon fill="#181818" points="588,205.625,578,209.625,588,213.625,584,209.625" style="stroke:#181818;stroke-width:1.0;"/><line style="stroke:#181818;stroke-width:1.0;stroke-dasharray:2.0,2.0;" x1="582" x2="890" y1="209.625" y2="209.625"/><text fill="#000000" font-family="sans-serif" font-size="13" font-weight="bold" lengthAdjust="spacing" textLength="7" x="594" y="204.7686">4</text><text fill="#000000" font-family="sans-serif" font-size="13" lengthAdjust="spacing" textLength="25" x="605" y="204.7686">user</text><path d="M10,224.625 L71,224.625 L71,232.9766 L61,242.9766 L10,242.9766 L10,224.625 " fill="#EEEEEE" style="stroke:#000000;stroke-width:1.5;"/><rect fill="none" height="422.9219" style="stroke:#000000;stroke-width:1.5;" width="1085" x="10" y="224.625"/><text fill="#000000" font-family="sans-serif" font-size="13" font-weight="bold" lengthAdjust="spacing" textLength="16" x="25" y="239.1201">alt</text><text fill="#000000" font-family="sans-serif" font-size="11" font-weight="bold" lengthAdjust="spacing" textLength="72" x="86" y="238.0439">[user == null]</text><polygon fill="#181818" points="341,261.3281,331,265.3281,341,269.3281,337,265.3281" style="stroke:#181818;stroke-width:1.0;"/><line style="stroke:#181818;stroke-width:1.0;stroke-dasharray:2.0,2.0;" x1="335" x2="566" y1="265.3281" y2="265.3281"/><text fill="#000000" font-family="sans-serif" font-size="13" font-weight="bold" lengthAdjust="spacing" textLength="7" x="347" y="260.4717">5</text><text fill="#000000" font-family="sans-serif" font-size="13" lengthAdjust="spacing" textLength="138" x="358" y="260.4717">NullReferenceException</text><polygon fill="#181818" points="71,291.6797,61,295.6797,71,299.6797,67,295.6797" style="stroke:#181818;stroke-width:1.0;"/><line style="stroke:#181818;stroke-width:1.0;stroke-dasharray:2.0,2.0;" x1="65" x2="319" y1="295.6797" y2="295.6797"/><text fill="#000000" font-family="sans-serif" font-size="13" font-weight="bold" lengthAdjust="spacing" textLength="7" x="77" y="290.8232">6</text><text fill="#000000" font-family="sans-serif" font-size="13" lengthAdjust="spacing" textLength="85" x="88" y="290.8232">404 Not Found</text><polygon fill="#181818" points="997.5,322.0313,1007.5,326.0313,997.5,330.0313,1001.5,326.0313" style="stroke:#181818;stroke-width:1.0;"/><line style="stroke:#181818;stroke-width:1.0;" x1="577" x2="1003.5" y1="326.0313" y2="326.0313"/><text fill="#000000" font-family="sans-serif" font-size="13" font-weight="bold" lengthAdjust="spacing" textLength="7" x="584" y="321.1748">7</text><text fill="#000000" font-family="sans-serif" font-size="13" lengthAdjust="spacing" textLength="176" x="595" y="321.1748">GetByUserIdAsync(username)</text><polygon fill="#181818" points="588,352.3828,578,356.3828,588,360.3828,584,356.3828" style="stroke:#181818;stroke-width:1.0;"/><line style="stroke:#181818;stroke-width:1.0;stroke-dasharray:2.0,2.0;" x1="582" x2="1013.5" y1="356.3828" y2="356.3828"/><text fill="#000000" font-family="sans-serif" font-size="13" font-weight="bold" lengthAdjust="spacing" textLength="7" x="594" y="351.5264">8</text><text fill="#000000" font-family="sans-serif" font-size="13" lengthAdjust="spacing" textLength="39" x="605" y="351.5264">patient</text><path d="M20,371.3828 L81,371.3828 L81,379.7344 L71,389.7344 L20,389.7344 L20,371.3828 " fill="#EEEEEE" style="stroke:#000000;stroke-width:1.5;"/><rect fill="none" height="269.1641" style="stroke:#000000;stroke-width:1.5;" width="1065" x="20" y="371.3828"/><text fill="#000000" font-family="sans-serif" font-size="13" font-weight="bold" lengthAdjust="spacing" textLength="16" x="35" y="385.8779">alt</text><text fill="#000000" font-family="sans-serif" font-size="11" font-weight="bold" lengthAdjust="spacing" textLength="84" x="96" y="384.8018">[patient == null]</text><polygon fill="#181818" points="341,408.0859,331,412.0859,341,416.0859,337,412.0859" style="stroke:#181818;stroke-width:1.0;"/><line style="stroke:#181818;stroke-width:1.0;stroke-dasharray:2.0,2.0;" x1="335" x2="566" y1="412.0859" y2="412.0859"/><text fill="#000000" font-family="sans-serif" font-size="13" font-weight="bold" lengthAdjust="spacing" textLength="7" x="347" y="407.2295">9</text><text fill="#000000" font-family="sans-serif" font-size="13" lengthAdjust="spacing" textLength="138" x="358" y="407.2295">NullReferenceException</text><polygon fill="#181818" points="71,438.4375,61,442.4375,71,446.4375,67,442.4375" style="stroke:#181818;stroke-width:1.0;"/><line style="stroke:#181818;stroke-width:1.0;stroke-dasharray:2.0,2.0;" x1="65" x2="319" y1="442.4375" y2="442.4375"/><text fill="#000000" font-family="sans-serif" font-size="13" font-weight="bold" lengthAdjust="spacing" textLength="14" x="77" y="437.5811">10</text><text fill="#000000" font-family="sans-serif" font-size="13" lengthAdjust="spacing" textLength="85" x="95" y="437.5811">404 Not Found</text><line style="stroke:#000000;stroke-width:1.0;stroke-dasharray:2.0,2.0;" x1="20" x2="1085" y1="451.4375" y2="451.4375"/><polygon fill="#181818" points="879,470.7891,889,474.7891,879,478.7891,883,474.7891" style="stroke:#181818;stroke-width:1.0;"/><line style="stroke:#181818;stroke-width:1.0;" x1="577" x2="885" y1="474.7891" y2="474.7891"/><text fill="#000000" font-family="sans-serif" font-size="13" font-weight="bold" lengthAdjust="spacing" textLength="14" x="584" y="469.9326">11</text><text fill="#000000" font-family="sans-serif" font-size="13" lengthAdjust="spacing" textLength="79" x="602" y="469.9326">Remove(user)</text><polygon fill="#181818" points="1002.5,501.1406,1012.5,505.1406,1002.5,509.1406,1006.5,505.1406" style="stroke:#181818;stroke-width:1.0;"/><line style="stroke:#181818;stroke-width:1.0;" x1="577" x2="1008.5" y1="505.1406" y2="505.1406"/><text fill="#000000" font-family="sans-serif" font-size="13" font-weight="bold" lengthAdjust="spacing" textLength="14" x="584" y="500.2842">12</text><text fill="#000000" font-family="sans-serif" font-size="13" lengthAdjust="spacing" textLength="93" x="602" y="500.2842">Remove(patient)</text><path d="M582,518.1406 L582,544.1406 L762,544.1406 L762,528.1406 L752,518.1406 L582,518.1406 " fill="#FEFFDD" style="stroke:#181818;stroke-width:0.5;"/><path d="M752,518.1406 L752,528.1406 L762,528.1406 L752,518.1406 " fill="#FEFFDD" style="stroke:#181818;stroke-width:0.5;"/><text fill="#000000" font-family="sans-serif" font-size="13" lengthAdjust="spacing" textLength="159" x="588" y="536.6357">Delete user in the auth0 api</text><polygon fill="#181818" points="772,567.8438,782,571.8438,772,575.8438,776,571.8438" style="stroke:#181818;stroke-width:1.0;"/><line style="stroke:#181818;stroke-width:1.0;" x1="577" x2="778" y1="571.8438" y2="571.8438"/><text fill="#000000" font-family="sans-serif" font-size="13" font-weight="bold" lengthAdjust="spacing" textLength="14" x="584" y="566.9873">13</text><text fill="#000000" font-family="sans-serif" font-size="13" lengthAdjust="spacing" textLength="170" x="602" y="566.9873">create(Username,Email,Role)</text><polygon fill="#181818" points="588,598.1953,578,602.1953,588,606.1953,584,602.1953" style="stroke:#181818;stroke-width:1.0;"/><line style="stroke:#181818;stroke-width:1.0;stroke-dasharray:2.0,2.0;" x1="582" x2="788" y1="602.1953" y2="602.1953"/><text fill="#000000" font-family="sans-serif" font-size="13" font-weight="bold" lengthAdjust="spacing" textLength="14" x="594" y="597.3389">14</text><text fill="#000000" font-family="sans-serif" font-size="13" lengthAdjust="spacing" textLength="45" x="612" y="597.3389">userDto</text><polygon fill="#181818" points="341,628.5469,331,632.5469,341,636.5469,337,632.5469" style="stroke:#181818;stroke-width:1.0;"/><line style="stroke:#181818;stroke-width:1.0;stroke-dasharray:2.0,2.0;" x1="335" x2="566" y1="632.5469" y2="632.5469"/><text fill="#000000" font-family="sans-serif" font-size="13" font-weight="bold" lengthAdjust="spacing" textLength="14" x="347" y="627.6904">15</text><text fill="#000000" font-family="sans-serif" font-size="13" lengthAdjust="spacing" textLength="45" x="365" y="627.6904">userDto</text><polygon fill="#181818" points="66,672.8984,56,676.8984,66,680.8984,62,676.8984" style="stroke:#181818;stroke-width:1.0;"/><line style="stroke:#181818;stroke-width:1.0;stroke-dasharray:2.0,2.0;" x1="60" x2="324" y1="676.8984" y2="676.8984"/><text fill="#000000" font-family="sans-serif" font-size="13" font-weight="bold" lengthAdjust="spacing" textLength="14" x="72" y="672.042">16</text><text fill="#000000" font-family="sans-serif" font-size="13" lengthAdjust="spacing" textLength="44" x="90" y="672.042">200 OK</text><!--SRC=[pLHDRzim3BtxLn0vjK2314DFGHgWRRoXQD4DsVe3L8TT12YI8Sl1Wc7_VPGjnPPbfJrM9ttmFPAF55bjbApthwYpZ1L6QPZyO8QZD1DW5RZzhNt9IgODBtZ9f879IuMwkbVIQ2K4wiQwEy9osHrMgnZw4_M15zZ0t9umRZS6M1lL6Biz6Q_Ldd59jbjcs2kh42OFzdM3fQeu1Nmy0Rgh1CxbEO16jtsqbOiVcC5Gf0nezM-cgxuk2rZdJ_cl76QivBFQYZWhM-jgzjUU9TlZlvRcvA4ZQ1_iwf6I2wyXyQD0WpPh7qLrbCM5fxxi64xq3jozsEKPYNmWuGA-eRaxFcoJp05xY0wDx1gmJtlPa2lB7cAs-25g9am3XfiRaBKGiUDJXiCIFPFv1jzGeomm_rDWQRYICK6_pB2SJaEMw_arF2i3NrKjjqbjunvpyjhSFYfnH9ACDI7q0bmJ9gL-nuLLsr5umU4pAOw2_ZcjT4oZZRx1lJfWe__bcNJ6o-Z0JfOHFCLAVZN_lJEWtZoT_y9jzt89PeV0QhER0ysCir7uuRY0GYDLxUB5DSvLJbDBN6sKm94uWlz4-DZ2_rDB7lPDdO8ClkceJR8VF6jGGghfy9oDU8kcsVcc-JAVm_V7rhh7qX-vyJTmi_u_]--></g></svg>