<?xml version="1.0" encoding="us-ascii" standalone="no"?><svg xmlns="http://www.w3.org/2000/svg" xmlns:xlink="http://www.w3.org/1999/xlink" contentStyleType="text/css" height="1338px" preserveAspectRatio="none" style="width:1993px;height:1338px;background:#FFFFFF;" version="1.1" viewBox="0 0 1993 1338" width="1993px" zoomAndPan="magnify"><defs/><g><rect fill="#FFFFFF" height="1126.6563" style="stroke:#181818;stroke-width:1.0;" width="10" x="60" y="96.2188"/><rect fill="#FFFFFF" height="300.5156" style="stroke:#181818;stroke-width:1.0;" width="10" x="418" y="118.5703"/><rect fill="#FFFFFF" height="773.4375" style="stroke:#181818;stroke-width:1.0;" width="10" x="418" y="449.4375"/><rect fill="#FFFFFF" height="239.8125" style="stroke:#181818;stroke-width:1.0;" width="10" x="713" y="148.9219"/><rect fill="#FFFFFF" height="720.7344" style="stroke:#181818;stroke-width:1.0;" width="10" x="713" y="479.7891"/><rect fill="#FFFFFF" height="41.3516" style="stroke:#181818;stroke-width:1.0;" width="10" x="718" y="813.6563"/><rect fill="#FFFFFF" height="30.3516" style="stroke:#181818;stroke-width:1.0;" width="10" x="987" y="1110.8203"/><rect fill="#FFFFFF" height="30.3516" style="stroke:#181818;stroke-width:1.0;" width="10" x="1277" y="892.3594"/><rect fill="#FFFFFF" height="30.3516" style="stroke:#181818;stroke-width:1.0;" width="10" x="1418" y="328.0313"/><rect fill="#FFFFFF" height="30.3516" style="stroke:#181818;stroke-width:1.0;" width="10" x="1530" y="179.2734"/><rect fill="#FFFFFF" height="30.3516" style="stroke:#181818;stroke-width:1.0;" width="10" x="1530" y="510.1406"/><rect fill="#FFFFFF" height="30.3516" style="stroke:#181818;stroke-width:1.0;" width="10" x="1653.5" y="656.8984"/><rect fill="#FFFFFF" height="30.3516" style="stroke:#181818;stroke-width:1.0;" width="10" x="1837.5" y="953.0625"/><rect fill="none" height="968.8984" style="stroke:#000000;stroke-width:1.5;" width="1976" x="10" y="224.625"/><rect fill="none" height="631.0313" style="stroke:#000000;stroke-width:1.5;" width="1956" x="20" y="555.4922"/><rect fill="none" height="477.2734" style="stroke:#000000;stroke-width:1.5;" width="1936" x="30" y="702.25"/><line style="stroke:#181818;stroke-width:0.5;stroke-dasharray:5.0,5.0;" x1="65" x2="65" y1="86.2188" y2="1240.875"/><line style="stroke:#181818;stroke-width:0.5;stroke-dasharray:5.0,5.0;" x1="423" x2="423" y1="86.2188" y2="1240.875"/><line style="stroke:#181818;stroke-width:0.5;stroke-dasharray:5.0,5.0;" x1="718" x2="718" y1="86.2188" y2="1240.875"/><line style="stroke:#181818;stroke-width:0.5;stroke-dasharray:5.0,5.0;" x1="992" x2="992" y1="86.2188" y2="1240.875"/><line style="stroke:#181818;stroke-width:0.5;stroke-dasharray:5.0,5.0;" x1="1282" x2="1282" y1="86.2188" y2="1240.875"/><line style="stroke:#181818;stroke-width:0.5;stroke-dasharray:5.0,5.0;" x1="1423" x2="1423" y1="86.2188" y2="1240.875"/><line style="stroke:#181818;stroke-width:0.5;stroke-dasharray:5.0,5.0;" x1="1535" x2="1535" y1="86.2188" y2="1240.875"/><line style="stroke:#181818;stroke-width:0.5;stroke-dasharray:5.0,5.0;" x1="1658" x2="1658" y1="86.2188" y2="1240.875"/><line style="stroke:#181818;stroke-width:0.5;stroke-dasharray:5.0,5.0;" x1="1842" x2="1842" y1="86.2188" y2="1240.875"/><text fill="#000000" font-family="sans-serif" font-size="14" lengthAdjust="spacing" textLength="44" x="40" y="83.1426">Patient</text><ellipse cx="65" cy="17.1094" fill="#E2E2F0" rx="8" ry="8" style="stroke:#181818;stroke-width:0.5;"/><path d="M65,25.1094 L65,52.1094 M52,33.1094 L78,33.1094 M65,52.1094 L52,67.1094 M65,52.1094 L78,67.1094 " fill="none" style="stroke:#181818;stroke-width:0.5;"/><text fill="#000000" font-family="sans-serif" font-size="14" lengthAdjust="spacing" textLength="44" x="40" y="1254.4082">Patient</text><ellipse cx="65" cy="1265.9844" fill="#E2E2F0" rx="8" ry="8" style="stroke:#181818;stroke-width:0.5;"/><path d="M65,1273.9844 L65,1300.9844 M52,1281.9844 L78,1281.9844 M65,1300.9844 L52,1315.9844 M65,1300.9844 L78,1315.9844 " fill="none" style="stroke:#181818;stroke-width:0.5;"/><rect fill="#E2E2F0" height="49.2188" rx="2.5" ry="2.5" style="stroke:#181818;stroke-width:0.5;" width="112" x="367" y="36"/><text fill="#000000" font-family="sans-serif" font-size="14" font-style="italic" lengthAdjust="spacing" textLength="78" x="384" y="57.5332">&#171;Controller&#187;</text><text fill="#000000" font-family="sans-serif" font-size="14" lengthAdjust="spacing" textLength="98" x="374" y="75.1426">UsersController</text><rect fill="#E2E2F0" height="49.2188" rx="2.5" ry="2.5" style="stroke:#181818;stroke-width:0.5;" width="112" x="367" y="1239.875"/><text fill="#000000" font-family="sans-serif" font-size="14" font-style="italic" lengthAdjust="spacing" textLength="78" x="384" y="1261.4082">&#171;Controller&#187;</text><text fill="#000000" font-family="sans-serif" font-size="14" lengthAdjust="spacing" textLength="98" x="374" y="1279.0176">UsersController</text><rect fill="#E2E2F0" height="49.2188" rx="2.5" ry="2.5" style="stroke:#181818;stroke-width:0.5;" width="90" x="673" y="36"/><text fill="#000000" font-family="sans-serif" font-size="14" font-style="italic" lengthAdjust="spacing" textLength="62" x="687" y="57.5332">&#171;Service&#187;</text><text fill="#000000" font-family="sans-serif" font-size="14" lengthAdjust="spacing" textLength="76" x="680" y="75.1426">UserService</text><rect fill="#E2E2F0" height="49.2188" rx="2.5" ry="2.5" style="stroke:#181818;stroke-width:0.5;" width="90" x="673" y="1239.875"/><text fill="#000000" font-family="sans-serif" font-size="14" font-style="italic" lengthAdjust="spacing" textLength="62" x="687" y="1261.4082">&#171;Service&#187;</text><text fill="#000000" font-family="sans-serif" font-size="14" lengthAdjust="spacing" textLength="76" x="680" y="1279.0176">UserService</text><rect fill="#E2E2F0" height="49.2188" rx="2.5" ry="2.5" style="stroke:#181818;stroke-width:0.5;" width="78" x="953" y="36"/><text fill="#000000" font-family="sans-serif" font-size="14" font-style="italic" lengthAdjust="spacing" textLength="64" x="960" y="57.5332">&#171;Domain&#187;</text><text fill="#000000" font-family="sans-serif" font-size="14" lengthAdjust="spacing" textLength="51" x="966.5" y="75.1426">UserDto</text><rect fill="#E2E2F0" height="49.2188" rx="2.5" ry="2.5" style="stroke:#181818;stroke-width:0.5;" width="78" x="953" y="1239.875"/><text fill="#000000" font-family="sans-serif" font-size="14" font-style="italic" lengthAdjust="spacing" textLength="64" x="960" y="1261.4082">&#171;Domain&#187;</text><text fill="#000000" font-family="sans-serif" font-size="14" lengthAdjust="spacing" textLength="51" x="966.5" y="1279.0176">UserDto</text><rect fill="#E2E2F0" height="49.2188" rx="2.5" ry="2.5" style="stroke:#181818;stroke-width:0.5;" width="164" x="1200" y="36"/><text fill="#000000" font-family="sans-serif" font-size="14" font-style="italic" lengthAdjust="spacing" textLength="64" x="1250" y="57.5332">&#171;Domain&#187;</text><text fill="#000000" font-family="sans-serif" font-size="14" lengthAdjust="spacing" textLength="150" x="1207" y="75.1426">AnonymizedPatientData</text><rect fill="#E2E2F0" height="49.2188" rx="2.5" ry="2.5" style="stroke:#181818;stroke-width:0.5;" width="164" x="1200" y="1239.875"/><text fill="#000000" font-family="sans-serif" font-size="14" font-style="italic" lengthAdjust="spacing" textLength="64" x="1250" y="1261.4082">&#171;Domain&#187;</text><text fill="#000000" font-family="sans-serif" font-size="14" lengthAdjust="spacing" textLength="150" x="1207" y="1279.0176">AnonymizedPatientData</text><rect fill="#E2E2F0" height="49.2188" rx="2.5" ry="2.5" style="stroke:#181818;stroke-width:0.5;" width="98" x="1374" y="36"/><text fill="#000000" font-family="sans-serif" font-size="14" font-style="italic" lengthAdjust="spacing" textLength="64" x="1391" y="57.5332">&#171;Domain&#187;</text><text fill="#000000" font-family="sans-serif" font-size="14" lengthAdjust="spacing" textLength="84" x="1381" y="75.1426">IEmailService</text><rect fill="#E2E2F0" height="49.2188" rx="2.5" ry="2.5" style="stroke:#181818;stroke-width:0.5;" width="98" x="1374" y="1239.875"/><text fill="#000000" font-family="sans-serif" font-size="14" font-style="italic" lengthAdjust="spacing" textLength="64" x="1391" y="1261.4082">&#171;Domain&#187;</text><text fill="#000000" font-family="sans-serif" font-size="14" lengthAdjust="spacing" textLength="84" x="1381" y="1279.0176">IEmailService</text><text fill="#000000" font-family="sans-serif" font-size="14" font-style="italic" lengthAdjust="spacing" textLength="64" x="1500" y="65.5332">&#171;Domain&#187;</text><text fill="#000000" font-family="sans-serif" font-size="14" lengthAdjust="spacing" textLength="100" x="1482" y="83.1426">IUserRepository</text><path d="M1517,15 C1517,5 1535,5 1535,5 C1535,5 1553,5 1553,15 L1553,41 C1553,51 1535,51 1535,51 C1535,51 1517,51 1517,41 L1517,15 " fill="#E2E2F0" style="stroke:#181818;stroke-width:1.5;"/><path d="M1517,15 C1517,25 1535,25 1535,25 C1535,25 1553,25 1553,15 " fill="none" style="stroke:#181818;stroke-width:1.5;"/><text fill="#000000" font-family="sans-serif" font-size="14" font-style="italic" lengthAdjust="spacing" textLength="64" x="1500" y="1254.4082">&#171;Domain&#187;</text><text fill="#000000" font-family="sans-serif" font-size="14" lengthAdjust="spacing" textLength="100" x="1482" y="1272.0176">IUserRepository</text><path d="M1517,1285.0938 C1517,1275.0938 1535,1275.0938 1535,1275.0938 C1535,1275.0938 1553,1275.0938 1553,1285.0938 L1553,1311.0938 C1553,1321.0938 1535,1321.0938 1535,1321.0938 C1535,1321.0938 1517,1321.0938 1517,1311.0938 L1517,1285.0938 " fill="#E2E2F0" style="stroke:#181818;stroke-width:1.5;"/><path d="M1517,1285.0938 C1517,1295.0938 1535,1295.0938 1535,1295.0938 C1535,1295.0938 1553,1295.0938 1553,1285.0938 " fill="none" style="stroke:#181818;stroke-width:1.5;"/><text fill="#000000" font-family="sans-serif" font-size="14" font-style="italic" lengthAdjust="spacing" textLength="64" x="1623.5" y="65.5332">&#171;Domain&#187;</text><text fill="#000000" font-family="sans-serif" font-size="14" lengthAdjust="spacing" textLength="115" x="1598" y="83.1426">IPatientRepository</text><path d="M1640.5,15 C1640.5,5 1658.5,5 1658.5,5 C1658.5,5 1676.5,5 1676.5,15 L1676.5,41 C1676.5,51 1658.5,51 1658.5,51 C1658.5,51 1640.5,51 1640.5,41 L1640.5,15 " fill="#E2E2F0" style="stroke:#181818;stroke-width:1.5;"/><path d="M1640.5,15 C1640.5,25 1658.5,25 1658.5,25 C1658.5,25 1676.5,25 1676.5,15 " fill="none" style="stroke:#181818;stroke-width:1.5;"/><text fill="#000000" font-family="sans-serif" font-size="14" font-style="italic" lengthAdjust="spacing" textLength="64" x="1623.5" y="1254.4082">&#171;Domain&#187;</text><text fill="#000000" font-family="sans-serif" font-size="14" lengthAdjust="spacing" textLength="115" x="1598" y="1272.0176">IPatientRepository</text><path d="M1640.5,1285.0938 C1640.5,1275.0938 1658.5,1275.0938 1658.5,1275.0938 C1658.5,1275.0938 1676.5,1275.0938 1676.5,1285.0938 L1676.5,1311.0938 C1676.5,1321.0938 1658.5,1321.0938 1658.5,1321.0938 C1658.5,1321.0938 1640.5,1321.0938 1640.5,1311.0938 L1640.5,1285.0938 " fill="#E2E2F0" style="stroke:#181818;stroke-width:1.5;"/><path d="M1640.5,1285.0938 C1640.5,1295.0938 1658.5,1295.0938 1658.5,1295.0938 C1658.5,1295.0938 1676.5,1295.0938 1676.5,1285.0938 " fill="none" style="stroke:#181818;stroke-width:1.5;"/><text fill="#000000" font-family="sans-serif" font-size="14" font-style="italic" lengthAdjust="spacing" textLength="64" x="1807.5" y="65.5332">&#171;Domain&#187;</text><text fill="#000000" font-family="sans-serif" font-size="14" lengthAdjust="spacing" textLength="221" x="1729" y="83.1426">IAnonymizedPatientDataRepository</text><path d="M1824.5,15 C1824.5,5 1842.5,5 1842.5,5 C1842.5,5 1860.5,5 1860.5,15 L1860.5,41 C1860.5,51 1842.5,51 1842.5,51 C1842.5,51 1824.5,51 1824.5,41 L1824.5,15 " fill="#E2E2F0" style="stroke:#181818;stroke-width:1.5;"/><path d="M1824.5,15 C1824.5,25 1842.5,25 1842.5,25 C1842.5,25 1860.5,25 1860.5,15 " fill="none" style="stroke:#181818;stroke-width:1.5;"/><text fill="#000000" font-family="sans-serif" font-size="14" font-style="italic" lengthAdjust="spacing" textLength="64" x="1807.5" y="1254.4082">&#171;Domain&#187;</text><text fill="#000000" font-family="sans-serif" font-size="14" lengthAdjust="spacing" textLength="221" x="1729" y="1272.0176">IAnonymizedPatientDataRepository</text><path d="M1824.5,1285.0938 C1824.5,1275.0938 1842.5,1275.0938 1842.5,1275.0938 C1842.5,1275.0938 1860.5,1275.0938 1860.5,1285.0938 L1860.5,1311.0938 C1860.5,1321.0938 1842.5,1321.0938 1842.5,1321.0938 C1842.5,1321.0938 1824.5,1321.0938 1824.5,1311.0938 L1824.5,1285.0938 " fill="#E2E2F0" style="stroke:#181818;stroke-width:1.5;"/><path d="M1824.5,1285.0938 C1824.5,1295.0938 1842.5,1295.0938 1842.5,1295.0938 C1842.5,1295.0938 1860.5,1295.0938 1860.5,1285.0938 " fill="none" style="stroke:#181818;stroke-width:1.5;"/><rect fill="#FFFFFF" height="1126.6563" style="stroke:#181818;stroke-width:1.0;" width="10" x="60" y="96.2188"/><rect fill="#FFFFFF" height="300.5156" style="stroke:#181818;stroke-width:1.0;" width="10" x="418" y="118.5703"/><rect fill="#FFFFFF" height="773.4375" style="stroke:#181818;stroke-width:1.0;" width="10" x="418" y="449.4375"/><rect fill="#FFFFFF" height="239.8125" style="stroke:#181818;stroke-width:1.0;" width="10" x="713" y="148.9219"/><rect fill="#FFFFFF" height="720.7344" style="stroke:#181818;stroke-width:1.0;" width="10" x="713" y="479.7891"/><rect fill="#FFFFFF" height="41.3516" style="stroke:#181818;stroke-width:1.0;" width="10" x="718" y="813.6563"/><rect fill="#FFFFFF" height="30.3516" style="stroke:#181818;stroke-width:1.0;" width="10" x="987" y="1110.8203"/><rect fill="#FFFFFF" height="30.3516" style="stroke:#181818;stroke-width:1.0;" width="10" x="1277" y="892.3594"/><rect fill="#FFFFFF" height="30.3516" style="stroke:#181818;stroke-width:1.0;" width="10" x="1418" y="328.0313"/><rect fill="#FFFFFF" height="30.3516" style="stroke:#181818;stroke-width:1.0;" width="10" x="1530" y="179.2734"/><rect fill="#FFFFFF" height="30.3516" style="stroke:#181818;stroke-width:1.0;" width="10" x="1530" y="510.1406"/><rect fill="#FFFFFF" height="30.3516" style="stroke:#181818;stroke-width:1.0;" width="10" x="1653.5" y="656.8984"/><rect fill="#FFFFFF" height="30.3516" style="stroke:#181818;stroke-width:1.0;" width="10" x="1837.5" y="953.0625"/><polygon fill="#181818" points="406,114.5703,416,118.5703,406,122.5703,410,118.5703" style="stroke:#181818;stroke-width:1.0;"/><line style="stroke:#181818;stroke-width:1.0;" x1="70" x2="412" y1="118.5703" y2="118.5703"/><text fill="#000000" font-family="sans-serif" font-size="13" font-weight="bold" lengthAdjust="spacing" textLength="7" x="77" y="113.7139">1</text><text fill="#000000" font-family="sans-serif" font-size="13" lengthAdjust="spacing" textLength="301" x="88" y="113.7139">POST /api/users/patients/request-delete/{username}</text><polygon fill="#181818" points="701,144.9219,711,148.9219,701,152.9219,705,148.9219" style="stroke:#181818;stroke-width:1.0;"/><line style="stroke:#181818;stroke-width:1.0;" x1="428" x2="707" y1="148.9219" y2="148.9219"/><text fill="#000000" font-family="sans-serif" font-size="13" font-weight="bold" lengthAdjust="spacing" textLength="7" x="435" y="144.0654">2</text><text fill="#000000" font-family="sans-serif" font-size="13" lengthAdjust="spacing" textLength="255" x="446" y="144.0654">RequestDeleteUserPatientAsync(username)</text><polygon fill="#181818" points="1518,175.2734,1528,179.2734,1518,183.2734,1522,179.2734" style="stroke:#181818;stroke-width:1.0;"/><line style="stroke:#181818;stroke-width:1.0;" x1="723" x2="1524" y1="179.2734" y2="179.2734"/><text fill="#000000" font-family="sans-serif" font-size="13" font-weight="bold" lengthAdjust="spacing" textLength="7" x="730" y="174.417">3</text><text fill="#000000" font-family="sans-serif" font-size="13" lengthAdjust="spacing" textLength="149" x="741" y="174.417">GetByIdAsync(username)</text><polygon fill="#181818" points="734,205.625,724,209.625,734,213.625,730,209.625" style="stroke:#181818;stroke-width:1.0;"/><line style="stroke:#181818;stroke-width:1.0;stroke-dasharray:2.0,2.0;" x1="728" x2="1534" y1="209.625" y2="209.625"/><text fill="#000000" font-family="sans-serif" font-size="13" font-weight="bold" lengthAdjust="spacing" textLength="7" x="740" y="204.7686">4</text><text fill="#000000" font-family="sans-serif" font-size="13" lengthAdjust="spacing" textLength="25" x="751" y="204.7686">user</text><path d="M10,224.625 L71,224.625 L71,232.9766 L61,242.9766 L10,242.9766 L10,224.625 " fill="#EEEEEE" style="stroke:#000000;stroke-width:1.5;"/><rect fill="none" height="968.8984" style="stroke:#000000;stroke-width:1.5;" width="1976" x="10" y="224.625"/><text fill="#000000" font-family="sans-serif" font-size="13" font-weight="bold" lengthAdjust="spacing" textLength="16" x="25" y="239.1201">alt</text><text fill="#000000" font-family="sans-serif" font-size="11" font-weight="bold" lengthAdjust="spacing" textLength="72" x="86" y="238.0439">[user == null]</text><polygon fill="#181818" points="439,261.3281,429,265.3281,439,269.3281,435,265.3281" style="stroke:#181818;stroke-width:1.0;"/><line style="stroke:#181818;stroke-width:1.0;stroke-dasharray:2.0,2.0;" x1="433" x2="712" y1="265.3281" y2="265.3281"/><text fill="#000000" font-family="sans-serif" font-size="13" font-weight="bold" lengthAdjust="spacing" textLength="7" x="445" y="260.4717">5</text><text fill="#000000" font-family="sans-serif" font-size="13" lengthAdjust="spacing" textLength="138" x="456" y="260.4717">NullReferenceException</text><polygon fill="#181818" points="81,291.6797,71,295.6797,81,299.6797,77,295.6797" style="stroke:#181818;stroke-width:1.0;"/><line style="stroke:#181818;stroke-width:1.0;stroke-dasharray:2.0,2.0;" x1="75" x2="417" y1="295.6797" y2="295.6797"/><text fill="#000000" font-family="sans-serif" font-size="13" font-weight="bold" lengthAdjust="spacing" textLength="7" x="87" y="290.8232">6</text><text fill="#000000" font-family="sans-serif" font-size="13" lengthAdjust="spacing" textLength="85" x="98" y="290.8232">404 Not Found</text><line style="stroke:#000000;stroke-width:1.0;stroke-dasharray:2.0,2.0;" x1="10" x2="1986" y1="304.6797" y2="304.6797"/><polygon fill="#181818" points="1406,324.0313,1416,328.0313,1406,332.0313,1410,328.0313" style="stroke:#181818;stroke-width:1.0;"/><line style="stroke:#181818;stroke-width:1.0;" x1="723" x2="1412" y1="328.0313" y2="328.0313"/><text fill="#000000" font-family="sans-serif" font-size="13" font-weight="bold" lengthAdjust="spacing" textLength="7" x="730" y="323.1748">7</text><text fill="#000000" font-family="sans-serif" font-size="13" lengthAdjust="spacing" textLength="197" x="741" y="323.1748">SendEmailAsync(to,subject,body)</text><polygon fill="#181818" points="734,354.3828,724,358.3828,734,362.3828,730,358.3828" style="stroke:#181818;stroke-width:1.0;"/><line style="stroke:#181818;stroke-width:1.0;stroke-dasharray:2.0,2.0;" x1="728" x2="1422" y1="358.3828" y2="358.3828"/><text fill="#000000" font-family="sans-serif" font-size="13" font-weight="bold" lengthAdjust="spacing" textLength="7" x="740" y="353.5264">8</text><text fill="#000000" font-family="sans-serif" font-size="13" lengthAdjust="spacing" textLength="53" x="751" y="353.5264">message</text><polygon fill="#181818" points="439,384.7344,429,388.7344,439,392.7344,435,388.7344" style="stroke:#181818;stroke-width:1.0;"/><line style="stroke:#181818;stroke-width:1.0;stroke-dasharray:2.0,2.0;" x1="433" x2="717" y1="388.7344" y2="388.7344"/><text fill="#000000" font-family="sans-serif" font-size="13" font-weight="bold" lengthAdjust="spacing" textLength="7" x="445" y="383.8779">9</text><text fill="#000000" font-family="sans-serif" font-size="13" lengthAdjust="spacing" textLength="53" x="456" y="383.8779">message</text><polygon fill="#181818" points="81,415.0859,71,419.0859,81,423.0859,77,419.0859" style="stroke:#181818;stroke-width:1.0;"/><line style="stroke:#181818;stroke-width:1.0;stroke-dasharray:2.0,2.0;" x1="75" x2="422" y1="419.0859" y2="419.0859"/><text fill="#000000" font-family="sans-serif" font-size="13" font-weight="bold" lengthAdjust="spacing" textLength="14" x="87" y="414.2295">10</text><text fill="#000000" font-family="sans-serif" font-size="13" lengthAdjust="spacing" textLength="44" x="105" y="414.2295">200 OK</text><polygon fill="#181818" points="406,445.4375,416,449.4375,406,453.4375,410,449.4375" style="stroke:#181818;stroke-width:1.0;"/><line style="stroke:#181818;stroke-width:1.0;" x1="70" x2="412" y1="449.4375" y2="449.4375"/><text fill="#000000" font-family="sans-serif" font-size="13" font-weight="bold" lengthAdjust="spacing" textLength="14" x="77" y="444.5811">11</text><text fill="#000000" font-family="sans-serif" font-size="13" lengthAdjust="spacing" textLength="311" x="95" y="444.5811">DELETE api/users/patients/confirm-delete/{username}</text><polygon fill="#181818" points="701,475.7891,711,479.7891,701,483.7891,705,479.7891" style="stroke:#181818;stroke-width:1.0;"/><line style="stroke:#181818;stroke-width:1.0;" x1="428" x2="707" y1="479.7891" y2="479.7891"/><text fill="#000000" font-family="sans-serif" font-size="13" font-weight="bold" lengthAdjust="spacing" textLength="14" x="435" y="474.9326">12</text><text fill="#000000" font-family="sans-serif" font-size="13" lengthAdjust="spacing" textLength="207" x="453" y="474.9326">DeleteUserPatientAsync(username)</text><polygon fill="#181818" points="1518,506.1406,1528,510.1406,1518,514.1406,1522,510.1406" style="stroke:#181818;stroke-width:1.0;"/><line style="stroke:#181818;stroke-width:1.0;" x1="723" x2="1524" y1="510.1406" y2="510.1406"/><text fill="#000000" font-family="sans-serif" font-size="13" font-weight="bold" lengthAdjust="spacing" textLength="14" x="730" y="505.2842">13</text><text fill="#000000" font-family="sans-serif" font-size="13" lengthAdjust="spacing" textLength="149" x="748" y="505.2842">GetByIdAsync(username)</text><polygon fill="#181818" points="734,536.4922,724,540.4922,734,544.4922,730,540.4922" style="stroke:#181818;stroke-width:1.0;"/><line style="stroke:#181818;stroke-width:1.0;stroke-dasharray:2.0,2.0;" x1="728" x2="1534" y1="540.4922" y2="540.4922"/><text fill="#000000" font-family="sans-serif" font-size="13" font-weight="bold" lengthAdjust="spacing" textLength="14" x="740" y="535.6357">14</text><text fill="#000000" font-family="sans-serif" font-size="13" lengthAdjust="spacing" textLength="25" x="758" y="535.6357">user</text><path d="M20,555.4922 L81,555.4922 L81,563.8438 L71,573.8438 L20,573.8438 L20,555.4922 " fill="#EEEEEE" style="stroke:#000000;stroke-width:1.5;"/><rect fill="none" height="631.0313" style="stroke:#000000;stroke-width:1.5;" width="1956" x="20" y="555.4922"/><text fill="#000000" font-family="sans-serif" font-size="13" font-weight="bold" lengthAdjust="spacing" textLength="16" x="35" y="569.9873">alt</text><text fill="#000000" font-family="sans-serif" font-size="11" font-weight="bold" lengthAdjust="spacing" textLength="72" x="96" y="568.9111">[user == null]</text><polygon fill="#181818" points="439,592.1953,429,596.1953,439,600.1953,435,596.1953" style="stroke:#181818;stroke-width:1.0;"/><line style="stroke:#181818;stroke-width:1.0;stroke-dasharray:2.0,2.0;" x1="433" x2="712" y1="596.1953" y2="596.1953"/><text fill="#000000" font-family="sans-serif" font-size="13" font-weight="bold" lengthAdjust="spacing" textLength="14" x="445" y="591.3389">15</text><text fill="#000000" font-family="sans-serif" font-size="13" lengthAdjust="spacing" textLength="138" x="463" y="591.3389">NullReferenceException</text><polygon fill="#181818" points="81,622.5469,71,626.5469,81,630.5469,77,626.5469" style="stroke:#181818;stroke-width:1.0;"/><line style="stroke:#181818;stroke-width:1.0;stroke-dasharray:2.0,2.0;" x1="75" x2="417" y1="626.5469" y2="626.5469"/><text fill="#000000" font-family="sans-serif" font-size="13" font-weight="bold" lengthAdjust="spacing" textLength="14" x="87" y="621.6904">16</text><text fill="#000000" font-family="sans-serif" font-size="13" lengthAdjust="spacing" textLength="85" x="105" y="621.6904">404 Not Found</text><polygon fill="#181818" points="1641.5,652.8984,1651.5,656.8984,1641.5,660.8984,1645.5,656.8984" style="stroke:#181818;stroke-width:1.0;"/><line style="stroke:#181818;stroke-width:1.0;" x1="723" x2="1647.5" y1="656.8984" y2="656.8984"/><text fill="#000000" font-family="sans-serif" font-size="13" font-weight="bold" lengthAdjust="spacing" textLength="14" x="730" y="652.042">17</text><text fill="#000000" font-family="sans-serif" font-size="13" lengthAdjust="spacing" textLength="176" x="748" y="652.042">GetByUserIdAsync(username)</text><polygon fill="#181818" points="734,683.25,724,687.25,734,691.25,730,687.25" style="stroke:#181818;stroke-width:1.0;"/><line style="stroke:#181818;stroke-width:1.0;stroke-dasharray:2.0,2.0;" x1="728" x2="1657.5" y1="687.25" y2="687.25"/><text fill="#000000" font-family="sans-serif" font-size="13" font-weight="bold" lengthAdjust="spacing" textLength="14" x="740" y="682.3936">18</text><text fill="#000000" font-family="sans-serif" font-size="13" lengthAdjust="spacing" textLength="39" x="758" y="682.3936">patient</text><path d="M30,702.25 L91,702.25 L91,710.6016 L81,720.6016 L30,720.6016 L30,702.25 " fill="#EEEEEE" style="stroke:#000000;stroke-width:1.5;"/><rect fill="none" height="477.2734" style="stroke:#000000;stroke-width:1.5;" width="1936" x="30" y="702.25"/><text fill="#000000" font-family="sans-serif" font-size="13" font-weight="bold" lengthAdjust="spacing" textLength="16" x="45" y="716.7451">alt</text><text fill="#000000" font-family="sans-serif" font-size="11" font-weight="bold" lengthAdjust="spacing" textLength="84" x="106" y="715.6689">[patient == null]</text><polygon fill="#181818" points="439,738.9531,429,742.9531,439,746.9531,435,742.9531" style="stroke:#181818;stroke-width:1.0;"/><line style="stroke:#181818;stroke-width:1.0;stroke-dasharray:2.0,2.0;" x1="433" x2="712" y1="742.9531" y2="742.9531"/><text fill="#000000" font-family="sans-serif" font-size="13" font-weight="bold" lengthAdjust="spacing" textLength="14" x="445" y="738.0967">19</text><text fill="#000000" font-family="sans-serif" font-size="13" lengthAdjust="spacing" textLength="138" x="463" y="738.0967">NullReferenceException</text><polygon fill="#181818" points="81,769.3047,71,773.3047,81,777.3047,77,773.3047" style="stroke:#181818;stroke-width:1.0;"/><line style="stroke:#181818;stroke-width:1.0;stroke-dasharray:2.0,2.0;" x1="75" x2="417" y1="773.3047" y2="773.3047"/><text fill="#000000" font-family="sans-serif" font-size="13" font-weight="bold" lengthAdjust="spacing" textLength="14" x="87" y="768.4482">20</text><text fill="#000000" font-family="sans-serif" font-size="13" lengthAdjust="spacing" textLength="85" x="105" y="768.4482">404 Not Found</text><line style="stroke:#000000;stroke-width:1.0;stroke-dasharray:2.0,2.0;" x1="30" x2="1966" y1="782.3047" y2="782.3047"/><line style="stroke:#181818;stroke-width:1.0;" x1="723" x2="770" y1="800.6563" y2="800.6563"/><line style="stroke:#181818;stroke-width:1.0;" x1="770" x2="770" y1="800.6563" y2="813.6563"/><line style="stroke:#181818;stroke-width:1.0;" x1="729" x2="770" y1="813.6563" y2="813.6563"/><polygon fill="#181818" points="739,809.6563,729,813.6563,739,817.6563,735,813.6563" style="stroke:#181818;stroke-width:1.0;"/><text fill="#000000" font-family="sans-serif" font-size="13" font-weight="bold" lengthAdjust="spacing" textLength="14" x="735" y="795.7998">21</text><text fill="#000000" font-family="sans-serif" font-size="13" lengthAdjust="spacing" textLength="232" x="753" y="795.7998">CalculateAgeRange(patient.DateOfBirth)</text><line style="stroke:#181818;stroke-width:1.0;stroke-dasharray:2.0,2.0;" x1="728" x2="770" y1="854.0078" y2="854.0078"/><line style="stroke:#181818;stroke-width:1.0;stroke-dasharray:2.0,2.0;" x1="770" x2="770" y1="854.0078" y2="867.0078"/><line style="stroke:#181818;stroke-width:1.0;stroke-dasharray:2.0,2.0;" x1="723" x2="770" y1="867.0078" y2="867.0078"/><polygon fill="#181818" points="733,863.0078,723,867.0078,733,871.0078,729,867.0078" style="stroke:#181818;stroke-width:1.0;"/><text fill="#000000" font-family="sans-serif" font-size="13" font-weight="bold" lengthAdjust="spacing" textLength="14" x="735" y="849.1514">22</text><text fill="#000000" font-family="sans-serif" font-size="13" lengthAdjust="spacing" textLength="58" x="753" y="849.1514">ageRange</text><polygon fill="#181818" points="1265,888.3594,1275,892.3594,1265,896.3594,1269,892.3594" style="stroke:#181818;stroke-width:1.0;"/><line style="stroke:#181818;stroke-width:1.0;" x1="723" x2="1271" y1="892.3594" y2="892.3594"/><text fill="#000000" font-family="sans-serif" font-size="13" font-weight="bold" lengthAdjust="spacing" textLength="14" x="730" y="887.5029">23</text><text fill="#000000" font-family="sans-serif" font-size="13" lengthAdjust="spacing" textLength="517" x="748" y="887.5029">create(ageRange, patient.Gender, patient.MedicalConditions, patient.AppointmentHistory)</text><polygon fill="#181818" points="734,918.7109,724,922.7109,734,926.7109,730,922.7109" style="stroke:#181818;stroke-width:1.0;"/><line style="stroke:#181818;stroke-width:1.0;stroke-dasharray:2.0,2.0;" x1="728" x2="1281" y1="922.7109" y2="922.7109"/><text fill="#000000" font-family="sans-serif" font-size="13" font-weight="bold" lengthAdjust="spacing" textLength="14" x="740" y="917.8545">24</text><text fill="#000000" font-family="sans-serif" font-size="13" lengthAdjust="spacing" textLength="138" x="758" y="917.8545">anonymizedPatientData</text><polygon fill="#181818" points="1825.5,949.0625,1835.5,953.0625,1825.5,957.0625,1829.5,953.0625" style="stroke:#181818;stroke-width:1.0;"/><line style="stroke:#181818;stroke-width:1.0;" x1="723" x2="1831.5" y1="953.0625" y2="953.0625"/><text fill="#000000" font-family="sans-serif" font-size="13" font-weight="bold" lengthAdjust="spacing" textLength="14" x="730" y="948.2061">25</text><text fill="#000000" font-family="sans-serif" font-size="13" lengthAdjust="spacing" textLength="206" x="748" y="948.2061">AddAsync(anonymizedPatientData)</text><polygon fill="#181818" points="734,979.4141,724,983.4141,734,987.4141,730,983.4141" style="stroke:#181818;stroke-width:1.0;"/><line style="stroke:#181818;stroke-width:1.0;stroke-dasharray:2.0,2.0;" x1="728" x2="1841.5" y1="983.4141" y2="983.4141"/><text fill="#000000" font-family="sans-serif" font-size="13" font-weight="bold" lengthAdjust="spacing" textLength="14" x="740" y="978.5576">26</text><text fill="#000000" font-family="sans-serif" font-size="13" lengthAdjust="spacing" textLength="138" x="758" y="978.5576">anonymizedPatientData</text><polygon fill="#181818" points="1523,1009.7656,1533,1013.7656,1523,1017.7656,1527,1013.7656" style="stroke:#181818;stroke-width:1.0;"/><line style="stroke:#181818;stroke-width:1.0;" x1="723" x2="1529" y1="1013.7656" y2="1013.7656"/><text fill="#000000" font-family="sans-serif" font-size="13" font-weight="bold" lengthAdjust="spacing" textLength="14" x="730" y="1008.9092">27</text><text fill="#000000" font-family="sans-serif" font-size="13" lengthAdjust="spacing" textLength="79" x="748" y="1008.9092">Remove(user)</text><polygon fill="#181818" points="1646.5,1040.1172,1656.5,1044.1172,1646.5,1048.1172,1650.5,1044.1172" style="stroke:#181818;stroke-width:1.0;"/><line style="stroke:#181818;stroke-width:1.0;" x1="723" x2="1652.5" y1="1044.1172" y2="1044.1172"/><text fill="#000000" font-family="sans-serif" font-size="13" font-weight="bold" lengthAdjust="spacing" textLength="14" x="730" y="1039.2607">28</text><text fill="#000000" font-family="sans-serif" font-size="13" lengthAdjust="spacing" textLength="93" x="748" y="1039.2607">Remove(patient)</text><path d="M728,1057.1172 L728,1083.1172 L908,1083.1172 L908,1067.1172 L898,1057.1172 L728,1057.1172 " fill="#FEFFDD" style="stroke:#181818;stroke-width:0.5;"/><path d="M898,1057.1172 L898,1067.1172 L908,1067.1172 L898,1057.1172 " fill="#FEFFDD" style="stroke:#181818;stroke-width:0.5;"/><text fill="#000000" font-family="sans-serif" font-size="13" lengthAdjust="spacing" textLength="159" x="734" y="1075.6123">Delete user in the auth0 api</text><polygon fill="#181818" points="975,1106.8203,985,1110.8203,975,1114.8203,979,1110.8203" style="stroke:#181818;stroke-width:1.0;"/><line style="stroke:#181818;stroke-width:1.0;" x1="723" x2="981" y1="1110.8203" y2="1110.8203"/><text fill="#000000" font-family="sans-serif" font-size="13" font-weight="bold" lengthAdjust="spacing" textLength="14" x="730" y="1105.9639">29</text><text fill="#000000" font-family="sans-serif" font-size="13" lengthAdjust="spacing" textLength="170" x="748" y="1105.9639">create(Username,Email,Role)</text><polygon fill="#181818" points="734,1137.1719,724,1141.1719,734,1145.1719,730,1141.1719" style="stroke:#181818;stroke-width:1.0;"/><line style="stroke:#181818;stroke-width:1.0;stroke-dasharray:2.0,2.0;" x1="728" x2="991" y1="1141.1719" y2="1141.1719"/><text fill="#000000" font-family="sans-serif" font-size="13" font-weight="bold" lengthAdjust="spacing" textLength="14" x="740" y="1136.3154">30</text><text fill="#000000" font-family="sans-serif" font-size="13" lengthAdjust="spacing" textLength="45" x="758" y="1136.3154">userDto</text><polygon fill="#181818" points="439,1167.5234,429,1171.5234,439,1175.5234,435,1171.5234" style="stroke:#181818;stroke-width:1.0;"/><line style="stroke:#181818;stroke-width:1.0;stroke-dasharray:2.0,2.0;" x1="433" x2="712" y1="1171.5234" y2="1171.5234"/><text fill="#000000" font-family="sans-serif" font-size="13" font-weight="bold" lengthAdjust="spacing" textLength="14" x="445" y="1166.667">31</text><text fill="#000000" font-family="sans-serif" font-size="13" lengthAdjust="spacing" textLength="45" x="463" y="1166.667">userDto</text><polygon fill="#181818" points="76,1218.875,66,1222.875,76,1226.875,72,1222.875" style="stroke:#181818;stroke-width:1.0;"/><line style="stroke:#181818;stroke-width:1.0;stroke-dasharray:2.0,2.0;" x1="70" x2="422" y1="1222.875" y2="1222.875"/><text fill="#000000" font-family="sans-serif" font-size="13" font-weight="bold" lengthAdjust="spacing" textLength="14" x="82" y="1218.0186">32</text><text fill="#000000" font-family="sans-serif" font-size="13" lengthAdjust="spacing" textLength="44" x="100" y="1218.0186">200 OK</text><!--SRC=[pLVBRjim4BpxAuYS4i2EZI8d8JNWn6uQj4q29_a0MbhRB2HI9QcWRj5_BobH5YbH3wCvL2U-TdOvorbIE9ECPia6-6Y4GyauEdl2aW2LPmWBPDeBFJDACPSa92cc4fsz2k3Ybb79MHm3prTNNNHzNNNcywRfC_0t4a9kPjhAnhHy1al9yiMchHOlMO89hQzTK4OF2Va5aObzYINEBRqphJZtApKQss4w8xPTf70sM80oqj6j8MM2AC8Enu2heHOx4r7Dj37QOktTMGshPusDh0y2USCItFIFaFhiaSdSpdY0dXwVNz0KfsIQwSCnJOkrOihXHmP2JYA8GSBqjvwcE84_1URHdOLMpEZF6bGEI_e3j2v0bpcc9haCJHneU5wwkAY075S6nvbqElehdIc_jIm6w0xapU4-wlJcU7GHcWlrL_CoiJQiN6elJRi81hl0iSn1qCUFY6Pnx0_YkEjwVX-KoHgsm866iFePGYe9etuG-voWwyd4HRgQNQ479j4dbj6eOG-nW55NCbmb1cgAHlbGaGt9nYBRV8TGZZSiEdGbnONoRyNrDd4EOG92u1rqPgN7HIlTNcmBju5eAqM1EIa8q8VP33r-ALPRA9LHly2Ngw-hbnNoA3naT4juSeB2-mK-NDdjbBo7YWVBwrJr3bHklsh_MR6dgBMDs-PbPUZLUnjASGEaDTOMeWDapcGhrJqkDDi6eYGS_K-CTnT7Lq6tE0wpM6rwiOCrfZiuDpkxL9S_F6vl29VxhlBOMHVz5H4RLmsJhXBPNnpdBS-t08KS5CHvwNTSPk_oJjqAmAl-DuX8Y6D5T4HqKaGrjKXJHgXCLFip4VfGTB7YZSJFaJzebp64X-5PV0sCe8yzHwkBo6ZK6qxd9Te3VW8rVbK7xqLHLqosX1htn1eIzWPv-RhevDbN1OsnEMmUUoLrvPUJtLuYjgrsNTo0HV4d5Caz89p9_KpVmAE-rwh-IJgguzNKtN7-5XclMTpxLbNsxOzK3UwUugpDf7RBUTUqbjCIrQc0jIUZhpyQKcIwQ_20zrBpLZ5_Idy1]--></g></svg>