<?xml version="1.0" encoding="us-ascii" standalone="no"?><svg xmlns="http://www.w3.org/2000/svg" xmlns:xlink="http://www.w3.org/1999/xlink" contentStyleType="text/css" height="524px" preserveAspectRatio="none" style="width:555px;height:524px;background:#FFFFFF;" version="1.1" viewBox="0 0 555 524" width="555px" zoomAndPan="magnify"><defs/><g><rect fill="#FFFFFF" height="331.8672" style="stroke:#181818;stroke-width:1.0;" width="10" x="25" y="92.6094"/><rect fill="#FFFFFF" height="309.5156" style="stroke:#181818;stroke-width:1.0;" width="10" x="295" y="114.9609"/><rect fill="#FFFFFF" height="30.3516" style="stroke:#181818;stroke-width:1.0;" width="10" x="507" y="145.3125"/><rect fill="#FFFFFF" height="30.3516" style="stroke:#181818;stroke-width:1.0;" width="10" x="507" y="206.0156"/><rect fill="#FFFFFF" height="30.3516" style="stroke:#181818;stroke-width:1.0;" width="10" x="507" y="266.7188"/><line style="stroke:#181818;stroke-width:0.5;stroke-dasharray:5.0,5.0;" x1="30" x2="30" y1="82.6094" y2="442.4766"/><line style="stroke:#181818;stroke-width:0.5;stroke-dasharray:5.0,5.0;" x1="300" x2="300" y1="82.6094" y2="442.4766"/><line style="stroke:#181818;stroke-width:0.5;stroke-dasharray:5.0,5.0;" x1="511.5" x2="511.5" y1="82.6094" y2="442.4766"/><text fill="#000000" font-family="sans-serif" font-size="14" lengthAdjust="spacing" textLength="44" x="5" y="79.5332">Patient</text><ellipse cx="30" cy="13.5" fill="#E2E2F0" rx="8" ry="8" style="stroke:#181818;stroke-width:0.5;"/><path d="M30,21.5 L30,48.5 M17,29.5 L43,29.5 M30,48.5 L17,63.5 M30,48.5 L43,63.5 " fill="none" style="stroke:#181818;stroke-width:0.5;"/><text fill="#000000" font-family="sans-serif" font-size="14" lengthAdjust="spacing" textLength="44" x="5" y="456.0098">Patient</text><ellipse cx="30" cy="467.5859" fill="#E2E2F0" rx="8" ry="8" style="stroke:#181818;stroke-width:0.5;"/><path d="M30,475.5859 L30,502.5859 M17,483.5859 L43,483.5859 M30,502.5859 L17,517.5859 M30,502.5859 L43,517.5859 " fill="none" style="stroke:#181818;stroke-width:0.5;"/><rect fill="#E2E2F0" height="31.6094" rx="2.5" ry="2.5" style="stroke:#181818;stroke-width:0.5;" width="56" x="272" y="50"/><text fill="#000000" font-family="sans-serif" font-size="14" lengthAdjust="spacing" textLength="42" x="279" y="71.5332">Server</text><rect fill="#E2E2F0" height="31.6094" rx="2.5" ry="2.5" style="stroke:#181818;stroke-width:0.5;" width="56" x="272" y="441.4766"/><text fill="#000000" font-family="sans-serif" font-size="14" lengthAdjust="spacing" textLength="42" x="279" y="463.0098">Server</text><rect fill="#E2E2F0" height="31.6094" rx="2.5" ry="2.5" style="stroke:#181818;stroke-width:0.5;" width="75" x="474.5" y="50"/><text fill="#000000" font-family="sans-serif" font-size="14" lengthAdjust="spacing" textLength="61" x="481.5" y="71.5332">Database</text><rect fill="#E2E2F0" height="31.6094" rx="2.5" ry="2.5" style="stroke:#181818;stroke-width:0.5;" width="75" x="474.5" y="441.4766"/><text fill="#000000" font-family="sans-serif" font-size="14" lengthAdjust="spacing" textLength="61" x="481.5" y="463.0098">Database</text><rect fill="#FFFFFF" height="331.8672" style="stroke:#181818;stroke-width:1.0;" width="10" x="25" y="92.6094"/><rect fill="#FFFFFF" height="309.5156" style="stroke:#181818;stroke-width:1.0;" width="10" x="295" y="114.9609"/><rect fill="#FFFFFF" height="30.3516" style="stroke:#181818;stroke-width:1.0;" width="10" x="507" y="145.3125"/><rect fill="#FFFFFF" height="30.3516" style="stroke:#181818;stroke-width:1.0;" width="10" x="507" y="206.0156"/><rect fill="#FFFFFF" height="30.3516" style="stroke:#181818;stroke-width:1.0;" width="10" x="507" y="266.7188"/><polygon fill="#181818" points="283,110.9609,293,114.9609,283,118.9609,287,114.9609" style="stroke:#181818;stroke-width:1.0;"/><line style="stroke:#181818;stroke-width:1.0;" x1="35" x2="289" y1="114.9609" y2="114.9609"/><text fill="#000000" font-family="sans-serif" font-size="13" font-weight="bold" lengthAdjust="spacing" textLength="7" x="42" y="110.1045">1</text><text fill="#000000" font-family="sans-serif" font-size="13" lengthAdjust="spacing" textLength="230" x="53" y="110.1045">DELETE /api/users/patients/{username}</text><polygon fill="#181818" points="495,141.3125,505,145.3125,495,149.3125,499,145.3125" style="stroke:#181818;stroke-width:1.0;"/><line style="stroke:#181818;stroke-width:1.0;" x1="305" x2="501" y1="145.3125" y2="145.3125"/><text fill="#000000" font-family="sans-serif" font-size="13" font-weight="bold" lengthAdjust="spacing" textLength="7" x="312" y="140.4561">2</text><text fill="#000000" font-family="sans-serif" font-size="13" lengthAdjust="spacing" textLength="79" x="323" y="140.4561">get user by id</text><polygon fill="#181818" points="316,171.6641,306,175.6641,316,179.6641,312,175.6641" style="stroke:#181818;stroke-width:1.0;"/><line style="stroke:#181818;stroke-width:1.0;stroke-dasharray:2.0,2.0;" x1="310" x2="511" y1="175.6641" y2="175.6641"/><text fill="#000000" font-family="sans-serif" font-size="13" font-weight="bold" lengthAdjust="spacing" textLength="7" x="322" y="170.8076">3</text><text fill="#000000" font-family="sans-serif" font-size="13" lengthAdjust="spacing" textLength="25" x="333" y="170.8076">user</text><polygon fill="#181818" points="495,202.0156,505,206.0156,495,210.0156,499,206.0156" style="stroke:#181818;stroke-width:1.0;"/><line style="stroke:#181818;stroke-width:1.0;" x1="305" x2="501" y1="206.0156" y2="206.0156"/><text fill="#000000" font-family="sans-serif" font-size="13" font-weight="bold" lengthAdjust="spacing" textLength="7" x="312" y="201.1592">4</text><text fill="#000000" font-family="sans-serif" font-size="13" lengthAdjust="spacing" textLength="122" x="323" y="201.1592">get patient by user id</text><polygon fill="#181818" points="316,232.3672,306,236.3672,316,240.3672,312,236.3672" style="stroke:#181818;stroke-width:1.0;"/><line style="stroke:#181818;stroke-width:1.0;stroke-dasharray:2.0,2.0;" x1="310" x2="511" y1="236.3672" y2="236.3672"/><text fill="#000000" font-family="sans-serif" font-size="13" font-weight="bold" lengthAdjust="spacing" textLength="7" x="322" y="231.5107">5</text><text fill="#000000" font-family="sans-serif" font-size="13" lengthAdjust="spacing" textLength="39" x="333" y="231.5107">patient</text><polygon fill="#181818" points="495,262.7188,505,266.7188,495,270.7188,499,266.7188" style="stroke:#181818;stroke-width:1.0;"/><line style="stroke:#181818;stroke-width:1.0;" x1="305" x2="501" y1="266.7188" y2="266.7188"/><text fill="#000000" font-family="sans-serif" font-size="13" font-weight="bold" lengthAdjust="spacing" textLength="7" x="312" y="261.8623">6</text><text fill="#000000" font-family="sans-serif" font-size="13" lengthAdjust="spacing" textLength="172" x="323" y="261.8623">save anonymized patient data</text><polygon fill="#181818" points="316,293.0703,306,297.0703,316,301.0703,312,297.0703" style="stroke:#181818;stroke-width:1.0;"/><line style="stroke:#181818;stroke-width:1.0;stroke-dasharray:2.0,2.0;" x1="310" x2="511" y1="297.0703" y2="297.0703"/><text fill="#000000" font-family="sans-serif" font-size="13" font-weight="bold" lengthAdjust="spacing" textLength="7" x="322" y="292.2139">7</text><text fill="#000000" font-family="sans-serif" font-size="13" lengthAdjust="spacing" textLength="142" x="333" y="292.2139">anonymized patient data</text><polygon fill="#181818" points="500,323.4219,510,327.4219,500,331.4219,504,327.4219" style="stroke:#181818;stroke-width:1.0;"/><line style="stroke:#181818;stroke-width:1.0;" x1="305" x2="506" y1="327.4219" y2="327.4219"/><text fill="#000000" font-family="sans-serif" font-size="13" font-weight="bold" lengthAdjust="spacing" textLength="7" x="312" y="322.5654">8</text><text fill="#000000" font-family="sans-serif" font-size="13" lengthAdjust="spacing" textLength="70" x="323" y="322.5654">remove user</text><polygon fill="#181818" points="500,353.7734,510,357.7734,500,361.7734,504,357.7734" style="stroke:#181818;stroke-width:1.0;"/><line style="stroke:#181818;stroke-width:1.0;" x1="305" x2="506" y1="357.7734" y2="357.7734"/><text fill="#000000" font-family="sans-serif" font-size="13" font-weight="bold" lengthAdjust="spacing" textLength="7" x="312" y="352.917">9</text><text fill="#000000" font-family="sans-serif" font-size="13" lengthAdjust="spacing" textLength="84" x="323" y="352.917">remove patient</text><path d="M310,370.7734 L310,396.7734 L490,396.7734 L490,380.7734 L480,370.7734 L310,370.7734 " fill="#FEFFDD" style="stroke:#181818;stroke-width:0.5;"/><path d="M480,370.7734 L480,380.7734 L490,380.7734 L480,370.7734 " fill="#FEFFDD" style="stroke:#181818;stroke-width:0.5;"/><text fill="#000000" font-family="sans-serif" font-size="13" lengthAdjust="spacing" textLength="159" x="316" y="389.2686">Delete user in the auth0 api</text><polygon fill="#181818" points="41,420.4766,31,424.4766,41,428.4766,37,424.4766" style="stroke:#181818;stroke-width:1.0;"/><line style="stroke:#181818;stroke-width:1.0;stroke-dasharray:2.0,2.0;" x1="35" x2="299" y1="424.4766" y2="424.4766"/><text fill="#000000" font-family="sans-serif" font-size="13" font-weight="bold" lengthAdjust="spacing" textLength="14" x="47" y="419.6201">10</text><text fill="#000000" font-family="sans-serif" font-size="13" lengthAdjust="spacing" textLength="44" x="65" y="419.6201">200 OK</text><!--SRC=[hPFBJiGW58RtFCL9zqqRbyQucguqQg8lS3ezJaai43XjCXhVNMWfPM8SuuKLbv-l7t2A8sir3YrP8N3FsaBnW2n9SG7e8FQ5GSjoBmqgXkAHx4HsNb-wfyixP6pHqHnO1pDTJiYKc09yYuFoEgBW4dRDRVFKG8L6LgCZwogpX5pr5iOA1tfVTYTcz9WdGuimZrq5FFX03040xH5abxAfasYRD6GjaShSDW2tN4Td85zAnVC5hzdlt-HCVjM_ytCu4Q3IwZZ8L-gIQ-SZuczstr9_RcjfqDxtz57E9J_Tq9tsNmCh3ps3VevxVL7I2p75vr70lR-KaViQV9LkcsCrmrLPRiUyg6kulrb2sObYoMOpwu_n0G00]--></g></svg>