<?xml version="1.0" encoding="us-ascii" standalone="no"?><svg xmlns="http://www.w3.org/2000/svg" xmlns:xlink="http://www.w3.org/1999/xlink" contentStyleType="text/css" height="392px" preserveAspectRatio="none" style="width:624px;height:392px;background:#FFFFFF;" version="1.1" viewBox="0 0 624 392" width="624px" zoomAndPan="magnify"><defs/><g><rect fill="#FFFFFF" height="200.1094" style="stroke:#181818;stroke-width:1.0;" width="10" x="25" y="92.6094"/><rect fill="#FFFFFF" height="73.7031" style="stroke:#181818;stroke-width:1.0;" width="10" x="376" y="114.9609"/><rect fill="#FFFFFF" height="73.7031" style="stroke:#181818;stroke-width:1.0;" width="10" x="376" y="219.0156"/><line style="stroke:#181818;stroke-width:0.5;stroke-dasharray:5.0,5.0;" x1="30" x2="30" y1="82.6094" y2="310.7188"/><line style="stroke:#181818;stroke-width:0.5;stroke-dasharray:5.0,5.0;" x1="380.5" x2="380.5" y1="82.6094" y2="310.7188"/><text fill="#000000" font-family="sans-serif" font-size="14" lengthAdjust="spacing" textLength="44" x="5" y="79.5332">Patient</text><ellipse cx="30" cy="13.5" fill="#E2E2F0" rx="8" ry="8" style="stroke:#181818;stroke-width:0.5;"/><path d="M30,21.5 L30,48.5 M17,29.5 L43,29.5 M30,48.5 L17,63.5 M30,48.5 L43,63.5 " fill="none" style="stroke:#181818;stroke-width:0.5;"/><text fill="#000000" font-family="sans-serif" font-size="14" lengthAdjust="spacing" textLength="44" x="5" y="324.252">Patient</text><ellipse cx="30" cy="335.8281" fill="#E2E2F0" rx="8" ry="8" style="stroke:#181818;stroke-width:0.5;"/><path d="M30,343.8281 L30,370.8281 M17,351.8281 L43,351.8281 M30,370.8281 L17,385.8281 M30,370.8281 L43,385.8281 " fill="none" style="stroke:#181818;stroke-width:0.5;"/><rect fill="#E2E2F0" height="49.2188" rx="2.5" ry="2.5" style="stroke:#181818;stroke-width:0.5;" width="189" x="286.5" y="32.3906"/><text fill="#000000" font-family="sans-serif" font-size="14" font-style="italic" lengthAdjust="spacing" textLength="92" x="335" y="53.9238">&#171;system (C4)&#187;</text><text fill="#000000" font-family="sans-serif" font-size="14" lengthAdjust="spacing" textLength="175" x="293.5" y="71.5332">Backend Data Management</text><rect fill="#E2E2F0" height="49.2188" rx="2.5" ry="2.5" style="stroke:#181818;stroke-width:0.5;" width="189" x="286.5" y="309.7188"/><text fill="#000000" font-family="sans-serif" font-size="14" font-style="italic" lengthAdjust="spacing" textLength="92" x="335" y="331.252">&#171;system (C4)&#187;</text><text fill="#000000" font-family="sans-serif" font-size="14" lengthAdjust="spacing" textLength="175" x="293.5" y="348.8613">Backend Data Management</text><rect fill="#FFFFFF" height="200.1094" style="stroke:#181818;stroke-width:1.0;" width="10" x="25" y="92.6094"/><rect fill="#FFFFFF" height="73.7031" style="stroke:#181818;stroke-width:1.0;" width="10" x="376" y="114.9609"/><rect fill="#FFFFFF" height="73.7031" style="stroke:#181818;stroke-width:1.0;" width="10" x="376" y="219.0156"/><polygon fill="#181818" points="364,110.9609,374,114.9609,364,118.9609,368,114.9609" style="stroke:#181818;stroke-width:1.0;"/><line style="stroke:#181818;stroke-width:1.0;" x1="35" x2="370" y1="114.9609" y2="114.9609"/><text fill="#000000" font-family="sans-serif" font-size="13" font-weight="bold" lengthAdjust="spacing" textLength="7" x="42" y="110.1045">1</text><text fill="#000000" font-family="sans-serif" font-size="13" lengthAdjust="spacing" textLength="301" x="53" y="110.1045">POST /api/users/patients/request-delete/{username}</text><line style="stroke:#181818;stroke-width:1.0;" x1="386" x2="428" y1="145.3125" y2="145.3125"/><line style="stroke:#181818;stroke-width:1.0;" x1="428" x2="428" y1="145.3125" y2="158.3125"/><line style="stroke:#181818;stroke-width:1.0;" x1="387" x2="428" y1="158.3125" y2="158.3125"/><polygon fill="#181818" points="397,154.3125,387,158.3125,397,162.3125,393,158.3125" style="stroke:#181818;stroke-width:1.0;"/><text fill="#000000" font-family="sans-serif" font-size="13" font-weight="bold" lengthAdjust="spacing" textLength="7" x="393" y="140.4561">2</text><text fill="#000000" font-family="sans-serif" font-size="13" lengthAdjust="spacing" textLength="213" x="404" y="140.4561">requestDeleteUserPatient(username)</text><polygon fill="#181818" points="46,184.6641,36,188.6641,46,192.6641,42,188.6641" style="stroke:#181818;stroke-width:1.0;"/><line style="stroke:#181818;stroke-width:1.0;stroke-dasharray:2.0,2.0;" x1="40" x2="380" y1="188.6641" y2="188.6641"/><text fill="#000000" font-family="sans-serif" font-size="13" font-weight="bold" lengthAdjust="spacing" textLength="7" x="52" y="183.8076">3</text><text fill="#000000" font-family="sans-serif" font-size="13" lengthAdjust="spacing" textLength="44" x="63" y="183.8076">200 OK</text><polygon fill="#181818" points="364,215.0156,374,219.0156,364,223.0156,368,219.0156" style="stroke:#181818;stroke-width:1.0;"/><line style="stroke:#181818;stroke-width:1.0;" x1="35" x2="370" y1="219.0156" y2="219.0156"/><text fill="#000000" font-family="sans-serif" font-size="13" font-weight="bold" lengthAdjust="spacing" textLength="7" x="42" y="214.1592">4</text><text fill="#000000" font-family="sans-serif" font-size="13" lengthAdjust="spacing" textLength="311" x="53" y="214.1592">DELETE api/users/patients/confirm-delete/{username}</text><line style="stroke:#181818;stroke-width:1.0;" x1="386" x2="428" y1="249.3672" y2="249.3672"/><line style="stroke:#181818;stroke-width:1.0;" x1="428" x2="428" y1="249.3672" y2="262.3672"/><line style="stroke:#181818;stroke-width:1.0;" x1="387" x2="428" y1="262.3672" y2="262.3672"/><polygon fill="#181818" points="397,258.3672,387,262.3672,397,266.3672,393,262.3672" style="stroke:#181818;stroke-width:1.0;"/><text fill="#000000" font-family="sans-serif" font-size="13" font-weight="bold" lengthAdjust="spacing" textLength="7" x="393" y="244.5107">5</text><text fill="#000000" font-family="sans-serif" font-size="13" lengthAdjust="spacing" textLength="168" x="404" y="244.5107">deleteUserPatient(username)</text><polygon fill="#181818" points="41,288.7188,31,292.7188,41,296.7188,37,292.7188" style="stroke:#181818;stroke-width:1.0;"/><line style="stroke:#181818;stroke-width:1.0;stroke-dasharray:2.0,2.0;" x1="35" x2="380" y1="292.7188" y2="292.7188"/><text fill="#000000" font-family="sans-serif" font-size="13" font-weight="bold" lengthAdjust="spacing" textLength="7" x="47" y="287.8623">6</text><text fill="#000000" font-family="sans-serif" font-size="13" lengthAdjust="spacing" textLength="44" x="58" y="287.8623">200 OK</text><!--SRC=[nLB1Yi8m4BttAuQUz50YuabA3svxMXS5tG-ORMSbk4cxoLGGyTzjOweUsiNBuXn2mfjvxyqZM7EfQ_L59WWmvz90k4QMf3a4jE3lGOM6PIuhr0mBpFUaYnGPFr3ZZbJJqJQ77e4MWZiMGXpResLIC7gRZPF4ISa3Cjq40cZAFo1A1aJci5vjjY2magAsPAoehYDM6FgjoN9Kq0ynYLCBQrHqTipkk8dsabyjjDMl_OSfhvqwwSz6s2yowaoCx-JTZd4K3V9D9nDOlRkHWfvn_KHmQRRCjXdq99UN-biQDP3SluLMl2IjXuxkwrq0]--></g></svg>