<?xml version="1.0" encoding="us-ascii" standalone="no"?><svg xmlns="http://www.w3.org/2000/svg" xmlns:xlink="http://www.w3.org/1999/xlink" contentStyleType="text/css" height="937px" preserveAspectRatio="none" style="width:1780px;height:937px;background:#FFFFFF;" version="1.1" viewBox="0 0 1780 937" width="1780px" zoomAndPan="magnify"><defs/><g><rect fill="#ADD8E6" height="918.7734" style="stroke:#181818;stroke-width:0.5;" width="730" x="168.5" y="6"/><text fill="#000000" font-family="sans-serif" font-size="13" font-weight="bold" lengthAdjust="spacing" textLength="85" x="491" y="19.4951">&#171;system (C4)&#187;</text><text fill="#000000" font-family="sans-serif" font-size="13" font-weight="bold" lengthAdjust="spacing" textLength="57" x="505" y="35.8467">Frontend</text><rect fill="#DDDDDD" height="918.7734" style="stroke:#181818;stroke-width:0.5;" width="873.5" x="900.5" y="6"/><text fill="#000000" font-family="sans-serif" font-size="13" font-weight="bold" lengthAdjust="spacing" textLength="85" x="1294.75" y="19.4951">&#171;system (C4)&#187;</text><text fill="#000000" font-family="sans-serif" font-size="13" font-weight="bold" lengthAdjust="spacing" textLength="175" x="1249.75" y="35.8467">Backend Data Management</text><rect fill="#FFFFFF" height="688.6328" style="stroke:#181818;stroke-width:1.0;" width="10" x="22.5" y="133.9219"/><rect fill="#FFFFFF" height="30.3516" style="stroke:#181818;stroke-width:1.0;" width="10" x="233.5" y="156.2734"/><rect fill="#FFFFFF" height="605.5781" style="stroke:#181818;stroke-width:1.0;" width="10" x="233.5" y="216.9766"/><rect fill="#FFFFFF" height="544.875" style="stroke:#181818;stroke-width:1.0;" width="10" x="397.5" y="247.3281"/><rect fill="#FFFFFF" height="423.9531" style="stroke:#181818;stroke-width:1.0;" width="10" x="681.5" y="337.8984"/><rect fill="#FFFFFF" height="363.25" style="stroke:#181818;stroke-width:1.0;" width="10" x="823.5" y="368.25"/><rect fill="#FFFFFF" height="302.5469" style="stroke:#181818;stroke-width:1.0;" width="10" x="972" y="398.6016"/><rect fill="#FFFFFF" height="241.8438" style="stroke:#181818;stroke-width:1.0;" width="10" x="1211" y="428.9531"/><rect fill="#FFFFFF" height="50.2188" style="stroke:#181818;stroke-width:1.0;" width="10" x="1489.5" y="469.3047"/><rect fill="#FFFFFF" height="50.2188" style="stroke:#181818;stroke-width:1.0;" width="10" x="1593.5" y="590.2266"/><line style="stroke:#181818;stroke-width:0.5;stroke-dasharray:5.0,5.0;" x1="27" x2="27" y1="123.9219" y2="840.5547"/><line style="stroke:#181818;stroke-width:0.5;stroke-dasharray:5.0,5.0;" x1="238.5" x2="238.5" y1="123.9219" y2="840.5547"/><line style="stroke:#181818;stroke-width:0.5;stroke-dasharray:5.0,5.0;" x1="402.5" x2="402.5" y1="123.9219" y2="840.5547"/><line style="stroke:#181818;stroke-width:0.5;stroke-dasharray:5.0,5.0;" x1="544.5" x2="544.5" y1="295.4375" y2="840.5547"/><line style="stroke:#181818;stroke-width:0.5;stroke-dasharray:5.0,5.0;" x1="686.5" x2="686.5" y1="123.9219" y2="840.5547"/><line style="stroke:#181818;stroke-width:0.5;stroke-dasharray:5.0,5.0;" x1="828.5" x2="828.5" y1="123.9219" y2="840.5547"/><line style="stroke:#181818;stroke-width:0.5;stroke-dasharray:5.0,5.0;" x1="976.5" x2="976.5" y1="123.9219" y2="840.5547"/><line style="stroke:#181818;stroke-width:0.5;stroke-dasharray:5.0,5.0;" x1="1216" x2="1216" y1="123.9219" y2="840.5547"/><line style="stroke:#181818;stroke-width:0.5;stroke-dasharray:5.0,5.0;" x1="1494" x2="1494" y1="477.0625" y2="840.5547"/><line style="stroke:#181818;stroke-width:0.5;stroke-dasharray:5.0,5.0;" x1="1598" x2="1598" y1="597.9844" y2="840.5547"/><line style="stroke:#181818;stroke-width:0.5;stroke-dasharray:5.0,5.0;" x1="1715" x2="1715" y1="123.9219" y2="840.5547"/><text fill="#000000" font-family="sans-serif" font-size="14" lengthAdjust="spacing" textLength="39" x="5" y="120.8457">Admin</text><ellipse cx="27.5" cy="54.8125" fill="#E2E2F0" rx="8" ry="8" style="stroke:#181818;stroke-width:0.5;"/><path d="M27.5,62.8125 L27.5,89.8125 M14.5,70.8125 L40.5,70.8125 M27.5,89.8125 L14.5,104.8125 M27.5,89.8125 L40.5,104.8125 " fill="none" style="stroke:#181818;stroke-width:0.5;"/><text fill="#000000" font-family="sans-serif" font-size="14" lengthAdjust="spacing" textLength="39" x="5" y="854.0879">Admin</text><ellipse cx="27.5" cy="865.6641" fill="#E2E2F0" rx="8" ry="8" style="stroke:#181818;stroke-width:0.5;"/><path d="M27.5,873.6641 L27.5,900.6641 M14.5,881.6641 L40.5,881.6641 M27.5,900.6641 L14.5,915.6641 M27.5,900.6641 L40.5,915.6641 " fill="none" style="stroke:#181818;stroke-width:0.5;"/><rect fill="#E2E2F0" height="49.2188" rx="2.5" ry="2.5" style="stroke:#181818;stroke-width:0.5;" width="132" x="172.5" y="73.7031"/><text fill="#000000" font-family="sans-serif" font-size="14" font-style="italic" lengthAdjust="spacing" textLength="118" x="179.5" y="95.2363">&#171;component (C4)&#187;</text><text fill="#000000" font-family="sans-serif" font-size="14" lengthAdjust="spacing" textLength="89" x="194" y="112.8457">UI Component</text><rect fill="#E2E2F0" height="49.2188" rx="2.5" ry="2.5" style="stroke:#181818;stroke-width:0.5;" width="132" x="172.5" y="839.5547"/><text fill="#000000" font-family="sans-serif" font-size="14" font-style="italic" lengthAdjust="spacing" textLength="118" x="179.5" y="861.0879">&#171;component (C4)&#187;</text><text fill="#000000" font-family="sans-serif" font-size="14" lengthAdjust="spacing" textLength="89" x="194" y="878.6973">UI Component</text><rect fill="#E2E2F0" height="49.2188" rx="2.5" ry="2.5" style="stroke:#181818;stroke-width:0.5;" width="132" x="336.5" y="73.7031"/><text fill="#000000" font-family="sans-serif" font-size="14" font-style="italic" lengthAdjust="spacing" textLength="118" x="343.5" y="95.2363">&#171;component (C4)&#187;</text><text fill="#000000" font-family="sans-serif" font-size="14" lengthAdjust="spacing" textLength="73" x="366" y="112.8457">Component</text><rect fill="#E2E2F0" height="49.2188" rx="2.5" ry="2.5" style="stroke:#181818;stroke-width:0.5;" width="132" x="336.5" y="839.5547"/><text fill="#000000" font-family="sans-serif" font-size="14" font-style="italic" lengthAdjust="spacing" textLength="118" x="343.5" y="861.0879">&#171;component (C4)&#187;</text><text fill="#000000" font-family="sans-serif" font-size="14" lengthAdjust="spacing" textLength="73" x="366" y="878.6973">Component</text><rect fill="#E2E2F0" height="49.2188" rx="2.5" ry="2.5" style="stroke:#181818;stroke-width:0.5;" width="132" x="478.5" y="839.5547"/><text fill="#000000" font-family="sans-serif" font-size="14" font-style="italic" lengthAdjust="spacing" textLength="118" x="485.5" y="861.0879">&#171;component (C4)&#187;</text><text fill="#000000" font-family="sans-serif" font-size="14" lengthAdjust="spacing" textLength="38" x="525.5" y="878.6973">Model</text><rect fill="#E2E2F0" height="49.2188" rx="2.5" ry="2.5" style="stroke:#181818;stroke-width:0.5;" width="132" x="620.5" y="73.7031"/><text fill="#000000" font-family="sans-serif" font-size="14" font-style="italic" lengthAdjust="spacing" textLength="118" x="627.5" y="95.2363">&#171;component (C4)&#187;</text><text fill="#000000" font-family="sans-serif" font-size="14" lengthAdjust="spacing" textLength="47" x="663" y="112.8457">Service</text><rect fill="#E2E2F0" height="49.2188" rx="2.5" ry="2.5" style="stroke:#181818;stroke-width:0.5;" width="132" x="620.5" y="839.5547"/><text fill="#000000" font-family="sans-serif" font-size="14" font-style="italic" lengthAdjust="spacing" textLength="118" x="627.5" y="861.0879">&#171;component (C4)&#187;</text><text fill="#000000" font-family="sans-serif" font-size="14" lengthAdjust="spacing" textLength="47" x="663" y="878.6973">Service</text><rect fill="#E2E2F0" height="49.2188" rx="2.5" ry="2.5" style="stroke:#181818;stroke-width:0.5;" width="132" x="762.5" y="73.7031"/><text fill="#000000" font-family="sans-serif" font-size="14" font-style="italic" lengthAdjust="spacing" textLength="118" x="769.5" y="95.2363">&#171;component (C4)&#187;</text><text fill="#000000" font-family="sans-serif" font-size="14" lengthAdjust="spacing" textLength="36" x="810.5" y="112.8457">HTTP</text><rect fill="#E2E2F0" height="49.2188" rx="2.5" ry="2.5" style="stroke:#181818;stroke-width:0.5;" width="132" x="762.5" y="839.5547"/><text fill="#000000" font-family="sans-serif" font-size="14" font-style="italic" lengthAdjust="spacing" textLength="118" x="769.5" y="861.0879">&#171;component (C4)&#187;</text><text fill="#000000" font-family="sans-serif" font-size="14" lengthAdjust="spacing" textLength="36" x="810.5" y="878.6973">HTTP</text><rect fill="#E2E2F0" height="49.2188" rx="2.5" ry="2.5" style="stroke:#181818;stroke-width:0.5;" width="145" x="904.5" y="73.7031"/><text fill="#000000" font-family="sans-serif" font-size="14" font-style="italic" lengthAdjust="spacing" textLength="78" x="938" y="95.2363">&#171;Controller&#187;</text><text fill="#000000" font-family="sans-serif" font-size="14" lengthAdjust="spacing" textLength="131" x="911.5" y="112.8457">RoomTypeController</text><rect fill="#E2E2F0" height="49.2188" rx="2.5" ry="2.5" style="stroke:#181818;stroke-width:0.5;" width="145" x="904.5" y="839.5547"/><text fill="#000000" font-family="sans-serif" font-size="14" font-style="italic" lengthAdjust="spacing" textLength="78" x="938" y="861.0879">&#171;Controller&#187;</text><text fill="#000000" font-family="sans-serif" font-size="14" lengthAdjust="spacing" textLength="131" x="911.5" y="878.6973">RoomTypeController</text><rect fill="#E2E2F0" height="49.2188" rx="2.5" ry="2.5" style="stroke:#181818;stroke-width:0.5;" width="130" x="1151" y="73.7031"/><text fill="#000000" font-family="sans-serif" font-size="14" font-style="italic" lengthAdjust="spacing" textLength="62" x="1185" y="95.2363">&#171;Service&#187;</text><text fill="#000000" font-family="sans-serif" font-size="14" lengthAdjust="spacing" textLength="116" x="1158" y="112.8457">RoomTypeService</text><rect fill="#E2E2F0" height="49.2188" rx="2.5" ry="2.5" style="stroke:#181818;stroke-width:0.5;" width="130" x="1151" y="839.5547"/><text fill="#000000" font-family="sans-serif" font-size="14" font-style="italic" lengthAdjust="spacing" textLength="62" x="1185" y="861.0879">&#171;Service&#187;</text><text fill="#000000" font-family="sans-serif" font-size="14" lengthAdjust="spacing" textLength="116" x="1158" y="878.6973">RoomTypeService</text><rect fill="#E2E2F0" height="49.2188" rx="2.5" ry="2.5" style="stroke:#181818;stroke-width:0.5;" width="83" x="1453" y="839.5547"/><text fill="#000000" font-family="sans-serif" font-size="14" font-style="italic" lengthAdjust="spacing" textLength="64" x="1462.5" y="861.0879">&#171;Domain&#187;</text><text fill="#000000" font-family="sans-serif" font-size="14" lengthAdjust="spacing" textLength="69" x="1460" y="878.6973">RoomType</text><rect fill="#E2E2F0" height="49.2188" rx="2.5" ry="2.5" style="stroke:#181818;stroke-width:0.5;" width="105" x="1546" y="839.5547"/><text fill="#000000" font-family="sans-serif" font-size="14" font-style="italic" lengthAdjust="spacing" textLength="65" x="1566" y="861.0879">&#171;Mapper&#187;</text><text fill="#000000" font-family="sans-serif" font-size="14" lengthAdjust="spacing" textLength="91" x="1553" y="878.6973">RoomTypeDto</text><text fill="#000000" font-family="sans-serif" font-size="14" font-style="italic" lengthAdjust="spacing" textLength="64" x="1680.5" y="103.2363">&#171;Domain&#187;</text><text fill="#000000" font-family="sans-serif" font-size="14" lengthAdjust="spacing" textLength="103" x="1661" y="120.8457">RoomTypeRepo</text><path d="M1697.5,52.7031 C1697.5,42.7031 1715.5,42.7031 1715.5,42.7031 C1715.5,42.7031 1733.5,42.7031 1733.5,52.7031 L1733.5,78.7031 C1733.5,88.7031 1715.5,88.7031 1715.5,88.7031 C1715.5,88.7031 1697.5,88.7031 1697.5,78.7031 L1697.5,52.7031 " fill="#E2E2F0" style="stroke:#181818;stroke-width:1.5;"/><path d="M1697.5,52.7031 C1697.5,62.7031 1715.5,62.7031 1715.5,62.7031 C1715.5,62.7031 1733.5,62.7031 1733.5,52.7031 " fill="none" style="stroke:#181818;stroke-width:1.5;"/><text fill="#000000" font-family="sans-serif" font-size="14" font-style="italic" lengthAdjust="spacing" textLength="64" x="1680.5" y="854.0879">&#171;Domain&#187;</text><text fill="#000000" font-family="sans-serif" font-size="14" lengthAdjust="spacing" textLength="103" x="1661" y="871.6973">RoomTypeRepo</text><path d="M1697.5,884.7734 C1697.5,874.7734 1715.5,874.7734 1715.5,874.7734 C1715.5,874.7734 1733.5,874.7734 1733.5,884.7734 L1733.5,910.7734 C1733.5,920.7734 1715.5,920.7734 1715.5,920.7734 C1715.5,920.7734 1697.5,920.7734 1697.5,910.7734 L1697.5,884.7734 " fill="#E2E2F0" style="stroke:#181818;stroke-width:1.5;"/><path d="M1697.5,884.7734 C1697.5,894.7734 1715.5,894.7734 1715.5,894.7734 C1715.5,894.7734 1733.5,894.7734 1733.5,884.7734 " fill="none" style="stroke:#181818;stroke-width:1.5;"/><rect fill="#FFFFFF" height="688.6328" style="stroke:#181818;stroke-width:1.0;" width="10" x="22.5" y="133.9219"/><rect fill="#FFFFFF" height="30.3516" style="stroke:#181818;stroke-width:1.0;" width="10" x="233.5" y="156.2734"/><rect fill="#FFFFFF" height="605.5781" style="stroke:#181818;stroke-width:1.0;" width="10" x="233.5" y="216.9766"/><rect fill="#FFFFFF" height="544.875" style="stroke:#181818;stroke-width:1.0;" width="10" x="397.5" y="247.3281"/><rect fill="#FFFFFF" height="423.9531" style="stroke:#181818;stroke-width:1.0;" width="10" x="681.5" y="337.8984"/><rect fill="#FFFFFF" height="363.25" style="stroke:#181818;stroke-width:1.0;" width="10" x="823.5" y="368.25"/><rect fill="#FFFFFF" height="302.5469" style="stroke:#181818;stroke-width:1.0;" width="10" x="972" y="398.6016"/><rect fill="#FFFFFF" height="241.8438" style="stroke:#181818;stroke-width:1.0;" width="10" x="1211" y="428.9531"/><rect fill="#FFFFFF" height="50.2188" style="stroke:#181818;stroke-width:1.0;" width="10" x="1489.5" y="469.3047"/><rect fill="#FFFFFF" height="50.2188" style="stroke:#181818;stroke-width:1.0;" width="10" x="1593.5" y="590.2266"/><polygon fill="#181818" points="221.5,152.2734,231.5,156.2734,221.5,160.2734,225.5,156.2734" style="stroke:#181818;stroke-width:1.0;"/><line style="stroke:#181818;stroke-width:1.0;" x1="32.5" x2="227.5" y1="156.2734" y2="156.2734"/><text fill="#000000" font-family="sans-serif" font-size="13" font-weight="bold" lengthAdjust="spacing" textLength="7" x="42" y="151.417">1</text><text fill="#000000" font-family="sans-serif" font-size="13" lengthAdjust="spacing" textLength="171" x="53" y="151.417">asks to add new type of room</text><polygon fill="#181818" points="43.5,182.625,33.5,186.625,43.5,190.625,39.5,186.625" style="stroke:#181818;stroke-width:1.0;"/><line style="stroke:#181818;stroke-width:1.0;stroke-dasharray:2.0,2.0;" x1="37.5" x2="237.5" y1="186.625" y2="186.625"/><text fill="#000000" font-family="sans-serif" font-size="13" font-weight="bold" lengthAdjust="spacing" textLength="7" x="78" y="181.7686">2</text><text fill="#000000" font-family="sans-serif" font-size="13" lengthAdjust="spacing" textLength="104" x="89" y="181.7686">asks to input data</text><polygon fill="#181818" points="221.5,212.9766,231.5,216.9766,221.5,220.9766,225.5,216.9766" style="stroke:#181818;stroke-width:1.0;"/><line style="stroke:#181818;stroke-width:1.0;" x1="32.5" x2="227.5" y1="216.9766" y2="216.9766"/><text fill="#000000" font-family="sans-serif" font-size="13" font-weight="bold" lengthAdjust="spacing" textLength="7" x="99" y="212.1201">3</text><text fill="#000000" font-family="sans-serif" font-size="13" lengthAdjust="spacing" textLength="57" x="110" y="212.1201">input data</text><polygon fill="#181818" points="385.5,243.3281,395.5,247.3281,385.5,251.3281,389.5,247.3281" style="stroke:#181818;stroke-width:1.0;"/><line style="stroke:#181818;stroke-width:1.0;" x1="243.5" x2="391.5" y1="247.3281" y2="247.3281"/><text fill="#000000" font-family="sans-serif" font-size="13" font-weight="bold" lengthAdjust="spacing" textLength="7" x="253" y="242.4717">4</text><text fill="#000000" font-family="sans-serif" font-size="13" lengthAdjust="spacing" textLength="124" x="264" y="242.4717">add new type of room</text><polygon fill="#181818" points="466.5,273.6797,476.5,277.6797,466.5,281.6797,470.5,277.6797" style="stroke:#181818;stroke-width:1.0;"/><line style="stroke:#181818;stroke-width:1.0;" x1="407.5" x2="472.5" y1="277.6797" y2="277.6797"/><text fill="#000000" font-family="sans-serif" font-size="13" font-weight="bold" lengthAdjust="spacing" textLength="7" x="419.5" y="272.8232">5</text><text fill="#000000" font-family="sans-serif" font-size="13" lengthAdjust="spacing" textLength="36" x="430.5" y="272.8232">create</text><rect fill="#E2E2F0" height="49.2188" rx="2.5" ry="2.5" style="stroke:#181818;stroke-width:0.5;" width="132" x="478.5" y="255.3281"/><text fill="#000000" font-family="sans-serif" font-size="14" font-style="italic" lengthAdjust="spacing" textLength="118" x="485.5" y="276.8613">&#171;component (C4)&#187;</text><text fill="#000000" font-family="sans-serif" font-size="14" lengthAdjust="spacing" textLength="38" x="525.5" y="294.4707">Model</text><polygon fill="#181818" points="669.5,333.8984,679.5,337.8984,669.5,341.8984,673.5,337.8984" style="stroke:#181818;stroke-width:1.0;"/><line style="stroke:#181818;stroke-width:1.0;" x1="407.5" x2="675.5" y1="337.8984" y2="337.8984"/><text fill="#000000" font-family="sans-serif" font-size="13" font-weight="bold" lengthAdjust="spacing" textLength="7" x="477" y="333.042">6</text><text fill="#000000" font-family="sans-serif" font-size="13" lengthAdjust="spacing" textLength="124" x="488" y="333.042">add new type of room</text><polygon fill="#181818" points="811.5,364.25,821.5,368.25,811.5,372.25,815.5,368.25" style="stroke:#181818;stroke-width:1.0;"/><line style="stroke:#181818;stroke-width:1.0;" x1="691.5" x2="817.5" y1="368.25" y2="368.25"/><text fill="#000000" font-family="sans-serif" font-size="13" font-weight="bold" lengthAdjust="spacing" textLength="7" x="701" y="363.3936">7</text><text fill="#000000" font-family="sans-serif" font-size="13" lengthAdjust="spacing" textLength="102" x="712" y="363.3936">post('/roomtypes')</text><polygon fill="#181818" points="960,394.6016,970,398.6016,960,402.6016,964,398.6016" style="stroke:#181818;stroke-width:1.0;"/><line style="stroke:#181818;stroke-width:1.0;" x1="833.5" x2="966" y1="398.6016" y2="398.6016"/><text fill="#000000" font-family="sans-serif" font-size="13" font-weight="bold" lengthAdjust="spacing" textLength="7" x="845.25" y="393.7451">8</text><text fill="#000000" font-family="sans-serif" font-size="13" lengthAdjust="spacing" textLength="104" x="856.25" y="393.7451">POST /roomtypes</text><polygon fill="#181818" points="1199,424.9531,1209,428.9531,1199,432.9531,1203,428.9531" style="stroke:#181818;stroke-width:1.0;"/><line style="stroke:#181818;stroke-width:1.0;" x1="982" x2="1205" y1="428.9531" y2="428.9531"/><text fill="#000000" font-family="sans-serif" font-size="13" font-weight="bold" lengthAdjust="spacing" textLength="7" x="991.5" y="424.0967">9</text><text fill="#000000" font-family="sans-serif" font-size="13" lengthAdjust="spacing" textLength="199" x="1002.5" y="424.0967">addRoomType(creatingRoomType)</text><polygon fill="#181818" points="1441,455.3047,1451,459.3047,1441,463.3047,1445,459.3047" style="stroke:#181818;stroke-width:1.0;"/><line style="stroke:#181818;stroke-width:1.0;" x1="1221" x2="1447" y1="459.3047" y2="459.3047"/><text fill="#000000" font-family="sans-serif" font-size="13" font-weight="bold" lengthAdjust="spacing" textLength="14" x="1233" y="454.4482">10</text><text fill="#000000" font-family="sans-serif" font-size="13" lengthAdjust="spacing" textLength="190" x="1251" y="454.4482">create(creatingRoomType.Name)</text><rect fill="#E2E2F0" height="49.2188" rx="2.5" ry="2.5" style="stroke:#181818;stroke-width:0.5;" width="83" x="1453" y="436.9531"/><text fill="#000000" font-family="sans-serif" font-size="14" font-style="italic" lengthAdjust="spacing" textLength="64" x="1462.5" y="458.4863">&#171;Domain&#187;</text><text fill="#000000" font-family="sans-serif" font-size="14" lengthAdjust="spacing" textLength="69" x="1460" y="476.0957">RoomType</text><polygon fill="#181818" points="1232,515.5234,1222,519.5234,1232,523.5234,1228,519.5234" style="stroke:#181818;stroke-width:1.0;"/><line style="stroke:#181818;stroke-width:1.0;stroke-dasharray:2.0,2.0;" x1="1226" x2="1493.5" y1="519.5234" y2="519.5234"/><text fill="#000000" font-family="sans-serif" font-size="13" font-weight="bold" lengthAdjust="spacing" textLength="14" x="1320.25" y="514.667">11</text><text fill="#000000" font-family="sans-serif" font-size="13" lengthAdjust="spacing" textLength="57" x="1338.25" y="514.667">roomType</text><polygon fill="#181818" points="1703.5,545.875,1713.5,549.875,1703.5,553.875,1707.5,549.875" style="stroke:#181818;stroke-width:1.0;"/><line style="stroke:#181818;stroke-width:1.0;" x1="1221" x2="1709.5" y1="549.875" y2="549.875"/><text fill="#000000" font-family="sans-serif" font-size="13" font-weight="bold" lengthAdjust="spacing" textLength="14" x="1413.75" y="545.0186">12</text><text fill="#000000" font-family="sans-serif" font-size="13" lengthAdjust="spacing" textLength="91" x="1431.75" y="545.0186">save(roomType)</text><polygon fill="#181818" points="1534,576.2266,1544,580.2266,1534,584.2266,1538,580.2266" style="stroke:#181818;stroke-width:1.0;"/><line style="stroke:#181818;stroke-width:1.0;" x1="1221" x2="1540" y1="580.2266" y2="580.2266"/><text fill="#000000" font-family="sans-serif" font-size="13" font-weight="bold" lengthAdjust="spacing" textLength="14" x="1267.5" y="575.3701">13</text><text fill="#000000" font-family="sans-serif" font-size="13" lengthAdjust="spacing" textLength="214" x="1285.5" y="575.3701">create(roomType.Id,roomType.Name)</text><rect fill="#E2E2F0" height="49.2188" rx="2.5" ry="2.5" style="stroke:#181818;stroke-width:0.5;" width="105" x="1546" y="557.875"/><text fill="#000000" font-family="sans-serif" font-size="14" font-style="italic" lengthAdjust="spacing" textLength="65" x="1566" y="579.4082">&#171;Mapper&#187;</text><text fill="#000000" font-family="sans-serif" font-size="14" lengthAdjust="spacing" textLength="91" x="1553" y="597.0176">RoomTypeDto</text><polygon fill="#181818" points="1232,636.4453,1222,640.4453,1232,644.4453,1228,640.4453" style="stroke:#181818;stroke-width:1.0;"/><line style="stroke:#181818;stroke-width:1.0;stroke-dasharray:2.0,2.0;" x1="1226" x2="1597.5" y1="640.4453" y2="640.4453"/><text fill="#000000" font-family="sans-serif" font-size="13" font-weight="bold" lengthAdjust="spacing" textLength="14" x="1362.25" y="635.5889">14</text><text fill="#000000" font-family="sans-serif" font-size="13" lengthAdjust="spacing" textLength="77" x="1380.25" y="635.5889">roomTypeDto</text><polygon fill="#181818" points="993,666.7969,983,670.7969,993,674.7969,989,670.7969" style="stroke:#181818;stroke-width:1.0;"/><line style="stroke:#181818;stroke-width:1.0;stroke-dasharray:2.0,2.0;" x1="987" x2="1215" y1="670.7969" y2="670.7969"/><text fill="#000000" font-family="sans-serif" font-size="13" font-weight="bold" lengthAdjust="spacing" textLength="14" x="1051.5" y="665.9404">15</text><text fill="#000000" font-family="sans-serif" font-size="13" lengthAdjust="spacing" textLength="77" x="1069.5" y="665.9404">roomTypeDto</text><polygon fill="#181818" points="844.5,697.1484,834.5,701.1484,844.5,705.1484,840.5,701.1484" style="stroke:#181818;stroke-width:1.0;"/><line style="stroke:#181818;stroke-width:1.0;stroke-dasharray:2.0,2.0;" x1="838.5" x2="976" y1="701.1484" y2="701.1484"/><text fill="#000000" font-family="sans-serif" font-size="13" font-weight="bold" lengthAdjust="spacing" textLength="14" x="852.75" y="696.292">16</text><text fill="#000000" font-family="sans-serif" font-size="13" lengthAdjust="spacing" textLength="87" x="870.75" y="696.292">201 (roomtype)</text><polygon fill="#181818" points="702.5,727.5,692.5,731.5,702.5,735.5,698.5,731.5" style="stroke:#181818;stroke-width:1.0;"/><line style="stroke:#181818;stroke-width:1.0;stroke-dasharray:2.0,2.0;" x1="696.5" x2="827.5" y1="731.5" y2="731.5"/><text fill="#000000" font-family="sans-serif" font-size="13" font-weight="bold" lengthAdjust="spacing" textLength="14" x="724" y="726.6436">17</text><text fill="#000000" font-family="sans-serif" font-size="13" lengthAdjust="spacing" textLength="54" x="742" y="726.6436">roomtype</text><polygon fill="#181818" points="418.5,757.8516,408.5,761.8516,418.5,765.8516,414.5,761.8516" style="stroke:#181818;stroke-width:1.0;"/><line style="stroke:#181818;stroke-width:1.0;stroke-dasharray:2.0,2.0;" x1="412.5" x2="685.5" y1="761.8516" y2="761.8516"/><text fill="#000000" font-family="sans-serif" font-size="13" font-weight="bold" lengthAdjust="spacing" textLength="14" x="511" y="756.9951">18</text><text fill="#000000" font-family="sans-serif" font-size="13" lengthAdjust="spacing" textLength="54" x="529" y="756.9951">roomtype</text><polygon fill="#181818" points="254.5,788.2031,244.5,792.2031,254.5,796.2031,250.5,792.2031" style="stroke:#181818;stroke-width:1.0;"/><line style="stroke:#181818;stroke-width:1.0;stroke-dasharray:2.0,2.0;" x1="248.5" x2="401.5" y1="792.2031" y2="792.2031"/><text fill="#000000" font-family="sans-serif" font-size="13" font-weight="bold" lengthAdjust="spacing" textLength="14" x="287" y="787.3467">19</text><text fill="#000000" font-family="sans-serif" font-size="13" lengthAdjust="spacing" textLength="54" x="305" y="787.3467">roomtype</text><polygon fill="#181818" points="38.5,818.5547,28.5,822.5547,38.5,826.5547,34.5,822.5547" style="stroke:#181818;stroke-width:1.0;"/><line style="stroke:#181818;stroke-width:1.0;stroke-dasharray:2.0,2.0;" x1="32.5" x2="237.5" y1="822.5547" y2="822.5547"/><text fill="#000000" font-family="sans-serif" font-size="13" font-weight="bold" lengthAdjust="spacing" textLength="14" x="50.5" y="817.6982">20</text><text fill="#000000" font-family="sans-serif" font-size="13" lengthAdjust="spacing" textLength="147" x="68.5" y="817.6982">shows success message</text><!--SRC=[fPPTRziW58Rl_IkGUz4aMheFxIgo8hMDfbLQjghDxYP5nAQf5Hiim6dxxtV00UFOE4xBHOenxyFXDUTGN4f6otn3U21sAIqmnpbQa2TSPd95NkLrbcvfJgX4CVp0B1nBnj5ragSKOO52tGk3OCDUKHX5uar8agFHxVVnVFwF_k0CL3G9BtwbssTvavKaGD1W7Pd6QO41VCloWb6W_xtJHFXZXq8KHR5vE53z02q_Jxja2ScqJlS6QHu9twSnqQf3Vv3kvsfrhqMgqwa0fn0OwNFp1iSxDMM19KPBJF6Mg4yJTZX29MTPHhXUxu6nVFLMa7eOsFM3VulhXjpiDOeElGwXcTiGWcB1SfpI7i52ieO6da6sn4LX0qnWsniiYDKyaA8fKWFkOjPFEBNf7ajI7Tn0uwepF9qt3k0CU3k1L319WYXvGLBjXZqX3cjedMKvkegecWkR0hnQfSP2ZfLIRwNI9CJFyqJe8CwCno6faBfsQ8LjRFsk0LPOdJoJ2K1ZJa3KcEcNcKoQ-TrkXNFGD8DHpS20gpDjXWecvEZois8fhhWSjrMMgpIjjwffcBRE9jKCtVzvNA6Q77GgZsmqSk_SoX-xIctGkdB87FEHDZcbMpCmxaNslZpsTHtqJdUCNgi0JGIJYVdqhU2kVkESZ4zZRIH6U5AXcYquqwPTV2Z4IK2xyBiiqDLeXWJUan6t7-PTA2X-JZ9PsjLTyeb_r5LW1sSvgogpnzn1h0w3bUwKx0pZZfDpS7XEQFNn3uQaPbraldtvYaQc47W-IAF8spBGKsqQjT70smA7gykNloOUbNwBx7V3M_5RTr8Bs7MlkRTQD9qU8SGpUn58b75CX40v_C3_Dxrtf3DUtUl_0G00]--></g></svg>