<?xml version="1.0" encoding="us-ascii" standalone="no"?><svg xmlns="http://www.w3.org/2000/svg" xmlns:xlink="http://www.w3.org/1999/xlink" contentStyleType="text/css" height="968px" preserveAspectRatio="none" style="width:1893px;height:968px;background:#FFFFFF;" version="1.1" viewBox="0 0 1893 968" width="1893px" zoomAndPan="magnify"><defs/><g><rect fill="#ADD8E6" height="949.6094" style="stroke:#181818;stroke-width:0.5;" width="730" x="168.5" y="6"/><text fill="#000000" font-family="sans-serif" font-size="13" font-weight="bold" lengthAdjust="spacing" textLength="85" x="491" y="19.4951">&#171;system (C4)&#187;</text><text fill="#000000" font-family="sans-serif" font-size="13" font-weight="bold" lengthAdjust="spacing" textLength="57" x="505" y="35.8467">Frontend</text><rect fill="#DDDDDD" height="949.6094" style="stroke:#181818;stroke-width:0.5;" width="982" x="905.5" y="6"/><text fill="#000000" font-family="sans-serif" font-size="13" font-weight="bold" lengthAdjust="spacing" textLength="85" x="1354" y="19.4951">&#171;system (C4)&#187;</text><text fill="#000000" font-family="sans-serif" font-size="13" font-weight="bold" lengthAdjust="spacing" textLength="92" x="1350.5" y="35.8467">Backend Node</text><rect fill="#FFFFFF" height="719.4688" style="stroke:#181818;stroke-width:1.0;" width="10" x="22.5" y="133.9219"/><rect fill="#FFFFFF" height="30.3516" style="stroke:#181818;stroke-width:1.0;" width="10" x="233.5" y="156.2734"/><rect fill="#FFFFFF" height="636.4141" style="stroke:#181818;stroke-width:1.0;" width="10" x="233.5" y="216.9766"/><rect fill="#FFFFFF" height="575.7109" style="stroke:#181818;stroke-width:1.0;" width="10" x="397.5" y="247.3281"/><rect fill="#FFFFFF" height="454.7891" style="stroke:#181818;stroke-width:1.0;" width="10" x="681.5" y="337.8984"/><rect fill="#FFFFFF" height="394.0859" style="stroke:#181818;stroke-width:1.0;" width="10" x="823.5" y="368.25"/><rect fill="#FFFFFF" height="333.3828" style="stroke:#181818;stroke-width:1.0;" width="10" x="967.5" y="398.6016"/><rect fill="#FFFFFF" height="272.6797" style="stroke:#181818;stroke-width:1.0;" width="10" x="1167.5" y="428.9531"/><rect fill="#FFFFFF" height="211.9766" style="stroke:#181818;stroke-width:1.0;" width="10" x="1382.5" y="459.3047"/><rect fill="#FFFFFF" height="50.2188" style="stroke:#181818;stroke-width:1.0;" width="10" x="1598" y="499.6563"/><rect fill="#FFFFFF" height="30.3516" style="stroke:#181818;stroke-width:1.0;" width="10" x="1704.5" y="610.5781"/><line style="stroke:#181818;stroke-width:0.5;stroke-dasharray:5.0,5.0;" x1="27" x2="27" y1="123.9219" y2="871.3906"/><line style="stroke:#181818;stroke-width:0.5;stroke-dasharray:5.0,5.0;" x1="238.5" x2="238.5" y1="123.9219" y2="871.3906"/><line style="stroke:#181818;stroke-width:0.5;stroke-dasharray:5.0,5.0;" x1="402.5" x2="402.5" y1="123.9219" y2="871.3906"/><line style="stroke:#181818;stroke-width:0.5;stroke-dasharray:5.0,5.0;" x1="544.5" x2="544.5" y1="295.4375" y2="871.3906"/><line style="stroke:#181818;stroke-width:0.5;stroke-dasharray:5.0,5.0;" x1="686.5" x2="686.5" y1="123.9219" y2="871.3906"/><line style="stroke:#181818;stroke-width:0.5;stroke-dasharray:5.0,5.0;" x1="828.5" x2="828.5" y1="123.9219" y2="871.3906"/><line style="stroke:#181818;stroke-width:0.5;stroke-dasharray:5.0,5.0;" x1="972.5" x2="972.5" y1="123.9219" y2="871.3906"/><line style="stroke:#181818;stroke-width:0.5;stroke-dasharray:5.0,5.0;" x1="1172" x2="1172" y1="123.9219" y2="871.3906"/><line style="stroke:#181818;stroke-width:0.5;stroke-dasharray:5.0,5.0;" x1="1387.5" x2="1387.5" y1="123.9219" y2="871.3906"/><line style="stroke:#181818;stroke-width:0.5;stroke-dasharray:5.0,5.0;" x1="1602.5" x2="1602.5" y1="507.4141" y2="871.3906"/><line style="stroke:#181818;stroke-width:0.5;stroke-dasharray:5.0,5.0;" x1="1709.5" x2="1709.5" y1="123.9219" y2="871.3906"/><line style="stroke:#181818;stroke-width:0.5;stroke-dasharray:5.0,5.0;" x1="1828.5" x2="1828.5" y1="123.9219" y2="871.3906"/><text fill="#000000" font-family="sans-serif" font-size="14" lengthAdjust="spacing" textLength="39" x="5" y="120.8457">Admin</text><ellipse cx="27.5" cy="54.8125" fill="#E2E2F0" rx="8" ry="8" style="stroke:#181818;stroke-width:0.5;"/><path d="M27.5,62.8125 L27.5,89.8125 M14.5,70.8125 L40.5,70.8125 M27.5,89.8125 L14.5,104.8125 M27.5,89.8125 L40.5,104.8125 " fill="none" style="stroke:#181818;stroke-width:0.5;"/><text fill="#000000" font-family="sans-serif" font-size="14" lengthAdjust="spacing" textLength="39" x="5" y="884.9238">Admin</text><ellipse cx="27.5" cy="896.5" fill="#E2E2F0" rx="8" ry="8" style="stroke:#181818;stroke-width:0.5;"/><path d="M27.5,904.5 L27.5,931.5 M14.5,912.5 L40.5,912.5 M27.5,931.5 L14.5,946.5 M27.5,931.5 L40.5,946.5 " fill="none" style="stroke:#181818;stroke-width:0.5;"/><rect fill="#E2E2F0" height="49.2188" rx="2.5" ry="2.5" style="stroke:#181818;stroke-width:0.5;" width="132" x="172.5" y="73.7031"/><text fill="#000000" font-family="sans-serif" font-size="14" font-style="italic" lengthAdjust="spacing" textLength="118" x="179.5" y="95.2363">&#171;component (C4)&#187;</text><text fill="#000000" font-family="sans-serif" font-size="14" lengthAdjust="spacing" textLength="89" x="194" y="112.8457">UI Component</text><rect fill="#E2E2F0" height="49.2188" rx="2.5" ry="2.5" style="stroke:#181818;stroke-width:0.5;" width="132" x="172.5" y="870.3906"/><text fill="#000000" font-family="sans-serif" font-size="14" font-style="italic" lengthAdjust="spacing" textLength="118" x="179.5" y="891.9238">&#171;component (C4)&#187;</text><text fill="#000000" font-family="sans-serif" font-size="14" lengthAdjust="spacing" textLength="89" x="194" y="909.5332">UI Component</text><rect fill="#E2E2F0" height="49.2188" rx="2.5" ry="2.5" style="stroke:#181818;stroke-width:0.5;" width="132" x="336.5" y="73.7031"/><text fill="#000000" font-family="sans-serif" font-size="14" font-style="italic" lengthAdjust="spacing" textLength="118" x="343.5" y="95.2363">&#171;component (C4)&#187;</text><text fill="#000000" font-family="sans-serif" font-size="14" lengthAdjust="spacing" textLength="73" x="366" y="112.8457">Component</text><rect fill="#E2E2F0" height="49.2188" rx="2.5" ry="2.5" style="stroke:#181818;stroke-width:0.5;" width="132" x="336.5" y="870.3906"/><text fill="#000000" font-family="sans-serif" font-size="14" font-style="italic" lengthAdjust="spacing" textLength="118" x="343.5" y="891.9238">&#171;component (C4)&#187;</text><text fill="#000000" font-family="sans-serif" font-size="14" lengthAdjust="spacing" textLength="73" x="366" y="909.5332">Component</text><rect fill="#E2E2F0" height="49.2188" rx="2.5" ry="2.5" style="stroke:#181818;stroke-width:0.5;" width="132" x="478.5" y="870.3906"/><text fill="#000000" font-family="sans-serif" font-size="14" font-style="italic" lengthAdjust="spacing" textLength="118" x="485.5" y="891.9238">&#171;component (C4)&#187;</text><text fill="#000000" font-family="sans-serif" font-size="14" lengthAdjust="spacing" textLength="38" x="525.5" y="909.5332">Model</text><rect fill="#E2E2F0" height="49.2188" rx="2.5" ry="2.5" style="stroke:#181818;stroke-width:0.5;" width="132" x="620.5" y="73.7031"/><text fill="#000000" font-family="sans-serif" font-size="14" font-style="italic" lengthAdjust="spacing" textLength="118" x="627.5" y="95.2363">&#171;component (C4)&#187;</text><text fill="#000000" font-family="sans-serif" font-size="14" lengthAdjust="spacing" textLength="47" x="663" y="112.8457">Service</text><rect fill="#E2E2F0" height="49.2188" rx="2.5" ry="2.5" style="stroke:#181818;stroke-width:0.5;" width="132" x="620.5" y="870.3906"/><text fill="#000000" font-family="sans-serif" font-size="14" font-style="italic" lengthAdjust="spacing" textLength="118" x="627.5" y="891.9238">&#171;component (C4)&#187;</text><text fill="#000000" font-family="sans-serif" font-size="14" lengthAdjust="spacing" textLength="47" x="663" y="909.5332">Service</text><rect fill="#E2E2F0" height="49.2188" rx="2.5" ry="2.5" style="stroke:#181818;stroke-width:0.5;" width="132" x="762.5" y="73.7031"/><text fill="#000000" font-family="sans-serif" font-size="14" font-style="italic" lengthAdjust="spacing" textLength="118" x="769.5" y="95.2363">&#171;component (C4)&#187;</text><text fill="#000000" font-family="sans-serif" font-size="14" lengthAdjust="spacing" textLength="36" x="810.5" y="112.8457">HTTP</text><rect fill="#E2E2F0" height="49.2188" rx="2.5" ry="2.5" style="stroke:#181818;stroke-width:0.5;" width="132" x="762.5" y="870.3906"/><text fill="#000000" font-family="sans-serif" font-size="14" font-style="italic" lengthAdjust="spacing" textLength="118" x="769.5" y="891.9238">&#171;component (C4)&#187;</text><text fill="#000000" font-family="sans-serif" font-size="14" lengthAdjust="spacing" textLength="36" x="810.5" y="909.5332">HTTP</text><rect fill="#E2E2F0" height="49.2188" rx="2.5" ry="2.5" style="stroke:#181818;stroke-width:0.5;" width="126" x="909.5" y="73.7031"/><text fill="#000000" font-family="sans-serif" font-size="14" font-style="italic" lengthAdjust="spacing" textLength="59" x="943" y="95.2363">&#171;Router&#187;</text><text fill="#000000" font-family="sans-serif" font-size="14" lengthAdjust="spacing" textLength="112" x="916.5" y="112.8457">RoomTypeRouter</text><rect fill="#E2E2F0" height="49.2188" rx="2.5" ry="2.5" style="stroke:#181818;stroke-width:0.5;" width="126" x="909.5" y="870.3906"/><text fill="#000000" font-family="sans-serif" font-size="14" font-style="italic" lengthAdjust="spacing" textLength="59" x="943" y="891.9238">&#171;Router&#187;</text><text fill="#000000" font-family="sans-serif" font-size="14" lengthAdjust="spacing" textLength="112" x="916.5" y="909.5332">RoomTypeRouter</text><rect fill="#E2E2F0" height="49.2188" rx="2.5" ry="2.5" style="stroke:#181818;stroke-width:0.5;" width="145" x="1100" y="73.7031"/><text fill="#000000" font-family="sans-serif" font-size="14" font-style="italic" lengthAdjust="spacing" textLength="78" x="1133.5" y="95.2363">&#171;Controller&#187;</text><text fill="#000000" font-family="sans-serif" font-size="14" lengthAdjust="spacing" textLength="131" x="1107" y="112.8457">RoomTypeController</text><rect fill="#E2E2F0" height="49.2188" rx="2.5" ry="2.5" style="stroke:#181818;stroke-width:0.5;" width="145" x="1100" y="870.3906"/><text fill="#000000" font-family="sans-serif" font-size="14" font-style="italic" lengthAdjust="spacing" textLength="78" x="1133.5" y="891.9238">&#171;Controller&#187;</text><text fill="#000000" font-family="sans-serif" font-size="14" lengthAdjust="spacing" textLength="131" x="1107" y="909.5332">RoomTypeController</text><rect fill="#E2E2F0" height="49.2188" rx="2.5" ry="2.5" style="stroke:#181818;stroke-width:0.5;" width="130" x="1322.5" y="73.7031"/><text fill="#000000" font-family="sans-serif" font-size="14" font-style="italic" lengthAdjust="spacing" textLength="62" x="1356.5" y="95.2363">&#171;Service&#187;</text><text fill="#000000" font-family="sans-serif" font-size="14" lengthAdjust="spacing" textLength="116" x="1329.5" y="112.8457">RoomTypeService</text><rect fill="#E2E2F0" height="49.2188" rx="2.5" ry="2.5" style="stroke:#181818;stroke-width:0.5;" width="130" x="1322.5" y="870.3906"/><text fill="#000000" font-family="sans-serif" font-size="14" font-style="italic" lengthAdjust="spacing" textLength="62" x="1356.5" y="891.9238">&#171;Service&#187;</text><text fill="#000000" font-family="sans-serif" font-size="14" lengthAdjust="spacing" textLength="116" x="1329.5" y="909.5332">RoomTypeService</text><rect fill="#E2E2F0" height="49.2188" rx="2.5" ry="2.5" style="stroke:#181818;stroke-width:0.5;" width="83" x="1561.5" y="870.3906"/><text fill="#000000" font-family="sans-serif" font-size="14" font-style="italic" lengthAdjust="spacing" textLength="64" x="1571" y="891.9238">&#171;Domain&#187;</text><text fill="#000000" font-family="sans-serif" font-size="14" lengthAdjust="spacing" textLength="69" x="1568.5" y="909.5332">RoomType</text><rect fill="#E2E2F0" height="49.2188" rx="2.5" ry="2.5" style="stroke:#181818;stroke-width:0.5;" width="110" x="1654.5" y="73.7031"/><text fill="#000000" font-family="sans-serif" font-size="14" font-style="italic" lengthAdjust="spacing" textLength="65" x="1677" y="95.2363">&#171;Mapper&#187;</text><text fill="#000000" font-family="sans-serif" font-size="14" lengthAdjust="spacing" textLength="96" x="1661.5" y="112.8457">RoomTypeMap</text><rect fill="#E2E2F0" height="49.2188" rx="2.5" ry="2.5" style="stroke:#181818;stroke-width:0.5;" width="110" x="1654.5" y="870.3906"/><text fill="#000000" font-family="sans-serif" font-size="14" font-style="italic" lengthAdjust="spacing" textLength="65" x="1677" y="891.9238">&#171;Mapper&#187;</text><text fill="#000000" font-family="sans-serif" font-size="14" lengthAdjust="spacing" textLength="96" x="1661.5" y="909.5332">RoomTypeMap</text><text fill="#000000" font-family="sans-serif" font-size="14" font-style="italic" lengthAdjust="spacing" textLength="64" x="1794" y="103.2363">&#171;Domain&#187;</text><text fill="#000000" font-family="sans-serif" font-size="14" lengthAdjust="spacing" textLength="103" x="1774.5" y="120.8457">RoomTypeRepo</text><path d="M1811,52.7031 C1811,42.7031 1829,42.7031 1829,42.7031 C1829,42.7031 1847,42.7031 1847,52.7031 L1847,78.7031 C1847,88.7031 1829,88.7031 1829,88.7031 C1829,88.7031 1811,88.7031 1811,78.7031 L1811,52.7031 " fill="#E2E2F0" style="stroke:#181818;stroke-width:1.5;"/><path d="M1811,52.7031 C1811,62.7031 1829,62.7031 1829,62.7031 C1829,62.7031 1847,62.7031 1847,52.7031 " fill="none" style="stroke:#181818;stroke-width:1.5;"/><text fill="#000000" font-family="sans-serif" font-size="14" font-style="italic" lengthAdjust="spacing" textLength="64" x="1794" y="884.9238">&#171;Domain&#187;</text><text fill="#000000" font-family="sans-serif" font-size="14" lengthAdjust="spacing" textLength="103" x="1774.5" y="902.5332">RoomTypeRepo</text><path d="M1811,915.6094 C1811,905.6094 1829,905.6094 1829,905.6094 C1829,905.6094 1847,905.6094 1847,915.6094 L1847,941.6094 C1847,951.6094 1829,951.6094 1829,951.6094 C1829,951.6094 1811,951.6094 1811,941.6094 L1811,915.6094 " fill="#E2E2F0" style="stroke:#181818;stroke-width:1.5;"/><path d="M1811,915.6094 C1811,925.6094 1829,925.6094 1829,925.6094 C1829,925.6094 1847,925.6094 1847,915.6094 " fill="none" style="stroke:#181818;stroke-width:1.5;"/><rect fill="#FFFFFF" height="719.4688" style="stroke:#181818;stroke-width:1.0;" width="10" x="22.5" y="133.9219"/><rect fill="#FFFFFF" height="30.3516" style="stroke:#181818;stroke-width:1.0;" width="10" x="233.5" y="156.2734"/><rect fill="#FFFFFF" height="636.4141" style="stroke:#181818;stroke-width:1.0;" width="10" x="233.5" y="216.9766"/><rect fill="#FFFFFF" height="575.7109" style="stroke:#181818;stroke-width:1.0;" width="10" x="397.5" y="247.3281"/><rect fill="#FFFFFF" height="454.7891" style="stroke:#181818;stroke-width:1.0;" width="10" x="681.5" y="337.8984"/><rect fill="#FFFFFF" height="394.0859" style="stroke:#181818;stroke-width:1.0;" width="10" x="823.5" y="368.25"/><rect fill="#FFFFFF" height="333.3828" style="stroke:#181818;stroke-width:1.0;" width="10" x="967.5" y="398.6016"/><rect fill="#FFFFFF" height="272.6797" style="stroke:#181818;stroke-width:1.0;" width="10" x="1167.5" y="428.9531"/><rect fill="#FFFFFF" height="211.9766" style="stroke:#181818;stroke-width:1.0;" width="10" x="1382.5" y="459.3047"/><rect fill="#FFFFFF" height="50.2188" style="stroke:#181818;stroke-width:1.0;" width="10" x="1598" y="499.6563"/><rect fill="#FFFFFF" height="30.3516" style="stroke:#181818;stroke-width:1.0;" width="10" x="1704.5" y="610.5781"/><polygon fill="#181818" points="221.5,152.2734,231.5,156.2734,221.5,160.2734,225.5,156.2734" style="stroke:#181818;stroke-width:1.0;"/><line style="stroke:#181818;stroke-width:1.0;" x1="32.5" x2="227.5" y1="156.2734" y2="156.2734"/><text fill="#000000" font-family="sans-serif" font-size="13" font-weight="bold" lengthAdjust="spacing" textLength="7" x="42" y="151.417">1</text><text fill="#000000" font-family="sans-serif" font-size="13" lengthAdjust="spacing" textLength="171" x="53" y="151.417">asks to add new type of room</text><polygon fill="#181818" points="43.5,182.625,33.5,186.625,43.5,190.625,39.5,186.625" style="stroke:#181818;stroke-width:1.0;"/><line style="stroke:#181818;stroke-width:1.0;stroke-dasharray:2.0,2.0;" x1="37.5" x2="237.5" y1="186.625" y2="186.625"/><text fill="#000000" font-family="sans-serif" font-size="13" font-weight="bold" lengthAdjust="spacing" textLength="7" x="78" y="181.7686">2</text><text fill="#000000" font-family="sans-serif" font-size="13" lengthAdjust="spacing" textLength="104" x="89" y="181.7686">asks to input data</text><polygon fill="#181818" points="221.5,212.9766,231.5,216.9766,221.5,220.9766,225.5,216.9766" style="stroke:#181818;stroke-width:1.0;"/><line style="stroke:#181818;stroke-width:1.0;" x1="32.5" x2="227.5" y1="216.9766" y2="216.9766"/><text fill="#000000" font-family="sans-serif" font-size="13" font-weight="bold" lengthAdjust="spacing" textLength="7" x="99" y="212.1201">3</text><text fill="#000000" font-family="sans-serif" font-size="13" lengthAdjust="spacing" textLength="57" x="110" y="212.1201">input data</text><polygon fill="#181818" points="385.5,243.3281,395.5,247.3281,385.5,251.3281,389.5,247.3281" style="stroke:#181818;stroke-width:1.0;"/><line style="stroke:#181818;stroke-width:1.0;" x1="243.5" x2="391.5" y1="247.3281" y2="247.3281"/><text fill="#000000" font-family="sans-serif" font-size="13" font-weight="bold" lengthAdjust="spacing" textLength="7" x="253" y="242.4717">4</text><text fill="#000000" font-family="sans-serif" font-size="13" lengthAdjust="spacing" textLength="124" x="264" y="242.4717">add new type of room</text><polygon fill="#181818" points="466.5,273.6797,476.5,277.6797,466.5,281.6797,470.5,277.6797" style="stroke:#181818;stroke-width:1.0;"/><line style="stroke:#181818;stroke-width:1.0;" x1="407.5" x2="472.5" y1="277.6797" y2="277.6797"/><text fill="#000000" font-family="sans-serif" font-size="13" font-weight="bold" lengthAdjust="spacing" textLength="7" x="419.5" y="272.8232">5</text><text fill="#000000" font-family="sans-serif" font-size="13" lengthAdjust="spacing" textLength="36" x="430.5" y="272.8232">create</text><rect fill="#E2E2F0" height="49.2188" rx="2.5" ry="2.5" style="stroke:#181818;stroke-width:0.5;" width="132" x="478.5" y="255.3281"/><text fill="#000000" font-family="sans-serif" font-size="14" font-style="italic" lengthAdjust="spacing" textLength="118" x="485.5" y="276.8613">&#171;component (C4)&#187;</text><text fill="#000000" font-family="sans-serif" font-size="14" lengthAdjust="spacing" textLength="38" x="525.5" y="294.4707">Model</text><polygon fill="#181818" points="669.5,333.8984,679.5,337.8984,669.5,341.8984,673.5,337.8984" style="stroke:#181818;stroke-width:1.0;"/><line style="stroke:#181818;stroke-width:1.0;" x1="407.5" x2="675.5" y1="337.8984" y2="337.8984"/><text fill="#000000" font-family="sans-serif" font-size="13" font-weight="bold" lengthAdjust="spacing" textLength="7" x="477" y="333.042">6</text><text fill="#000000" font-family="sans-serif" font-size="13" lengthAdjust="spacing" textLength="124" x="488" y="333.042">add new type of room</text><polygon fill="#181818" points="811.5,364.25,821.5,368.25,811.5,372.25,815.5,368.25" style="stroke:#181818;stroke-width:1.0;"/><line style="stroke:#181818;stroke-width:1.0;" x1="691.5" x2="817.5" y1="368.25" y2="368.25"/><text fill="#000000" font-family="sans-serif" font-size="13" font-weight="bold" lengthAdjust="spacing" textLength="7" x="701" y="363.3936">7</text><text fill="#000000" font-family="sans-serif" font-size="13" lengthAdjust="spacing" textLength="102" x="712" y="363.3936">post('/roomtypes')</text><polygon fill="#181818" points="955.5,394.6016,965.5,398.6016,955.5,402.6016,959.5,398.6016" style="stroke:#181818;stroke-width:1.0;"/><line style="stroke:#181818;stroke-width:1.0;" x1="833.5" x2="961.5" y1="398.6016" y2="398.6016"/><text fill="#000000" font-family="sans-serif" font-size="13" font-weight="bold" lengthAdjust="spacing" textLength="7" x="843" y="393.7451">8</text><text fill="#000000" font-family="sans-serif" font-size="13" lengthAdjust="spacing" textLength="104" x="854" y="393.7451">POST /roomtypes</text><polygon fill="#181818" points="1155.5,424.9531,1165.5,428.9531,1155.5,432.9531,1159.5,428.9531" style="stroke:#181818;stroke-width:1.0;"/><line style="stroke:#181818;stroke-width:1.0;" x1="977.5" x2="1161.5" y1="428.9531" y2="428.9531"/><text fill="#000000" font-family="sans-serif" font-size="13" font-weight="bold" lengthAdjust="spacing" textLength="7" x="987" y="424.0967">9</text><text fill="#000000" font-family="sans-serif" font-size="13" lengthAdjust="spacing" textLength="160" x="998" y="424.0967">addRoomType(req,res,next)</text><polygon fill="#181818" points="1370.5,455.3047,1380.5,459.3047,1370.5,463.3047,1374.5,459.3047" style="stroke:#181818;stroke-width:1.0;"/><line style="stroke:#181818;stroke-width:1.0;" x1="1177.5" x2="1376.5" y1="459.3047" y2="459.3047"/><text fill="#000000" font-family="sans-serif" font-size="13" font-weight="bold" lengthAdjust="spacing" textLength="14" x="1187" y="454.4482">10</text><text fill="#000000" font-family="sans-serif" font-size="13" lengthAdjust="spacing" textLength="168" x="1205" y="454.4482">addRoomType(roomTypeDto)</text><polygon fill="#181818" points="1549.5,485.6563,1559.5,489.6563,1549.5,493.6563,1553.5,489.6563" style="stroke:#181818;stroke-width:1.0;"/><line style="stroke:#181818;stroke-width:1.0;" x1="1392.5" x2="1555.5" y1="489.6563" y2="489.6563"/><text fill="#000000" font-family="sans-serif" font-size="13" font-weight="bold" lengthAdjust="spacing" textLength="14" x="1404.5" y="484.7998">11</text><text fill="#000000" font-family="sans-serif" font-size="13" lengthAdjust="spacing" textLength="127" x="1422.5" y="484.7998">create(roomTypeDTO)</text><rect fill="#E2E2F0" height="49.2188" rx="2.5" ry="2.5" style="stroke:#181818;stroke-width:0.5;" width="83" x="1561.5" y="467.3047"/><text fill="#000000" font-family="sans-serif" font-size="14" font-style="italic" lengthAdjust="spacing" textLength="64" x="1571" y="488.8379">&#171;Domain&#187;</text><text fill="#000000" font-family="sans-serif" font-size="14" lengthAdjust="spacing" textLength="69" x="1568.5" y="506.4473">RoomType</text><polygon fill="#181818" points="1403.5,545.875,1393.5,549.875,1403.5,553.875,1399.5,549.875" style="stroke:#181818;stroke-width:1.0;"/><line style="stroke:#181818;stroke-width:1.0;stroke-dasharray:2.0,2.0;" x1="1397.5" x2="1602" y1="549.875" y2="549.875"/><text fill="#000000" font-family="sans-serif" font-size="13" font-weight="bold" lengthAdjust="spacing" textLength="14" x="1460.25" y="545.0186">12</text><text fill="#000000" font-family="sans-serif" font-size="13" lengthAdjust="spacing" textLength="57" x="1478.25" y="545.0186">roomType</text><polygon fill="#181818" points="1817,576.2266,1827,580.2266,1817,584.2266,1821,580.2266" style="stroke:#181818;stroke-width:1.0;"/><line style="stroke:#181818;stroke-width:1.0;" x1="1392.5" x2="1823" y1="580.2266" y2="580.2266"/><text fill="#000000" font-family="sans-serif" font-size="13" font-weight="bold" lengthAdjust="spacing" textLength="14" x="1556.25" y="575.3701">13</text><text fill="#000000" font-family="sans-serif" font-size="13" lengthAdjust="spacing" textLength="91" x="1574.25" y="575.3701">save(roomType)</text><polygon fill="#181818" points="1692.5,606.5781,1702.5,610.5781,1692.5,614.5781,1696.5,610.5781" style="stroke:#181818;stroke-width:1.0;"/><line style="stroke:#181818;stroke-width:1.0;" x1="1392.5" x2="1698.5" y1="610.5781" y2="610.5781"/><text fill="#000000" font-family="sans-serif" font-size="13" font-weight="bold" lengthAdjust="spacing" textLength="14" x="1488.5" y="605.7217">14</text><text fill="#000000" font-family="sans-serif" font-size="13" lengthAdjust="spacing" textLength="102" x="1506.5" y="605.7217">toDTO(roomType)</text><polygon fill="#181818" points="1403.5,636.9297,1393.5,640.9297,1403.5,644.9297,1399.5,640.9297" style="stroke:#181818;stroke-width:1.0;"/><line style="stroke:#181818;stroke-width:1.0;stroke-dasharray:2.0,2.0;" x1="1397.5" x2="1708.5" y1="640.9297" y2="640.9297"/><text fill="#000000" font-family="sans-serif" font-size="13" font-weight="bold" lengthAdjust="spacing" textLength="14" x="1500.5" y="636.0732">15</text><text fill="#000000" font-family="sans-serif" font-size="13" lengthAdjust="spacing" textLength="83" x="1518.5" y="636.0732">roomTypeDTO</text><polygon fill="#181818" points="1188.5,667.2813,1178.5,671.2813,1188.5,675.2813,1184.5,671.2813" style="stroke:#181818;stroke-width:1.0;"/><line style="stroke:#181818;stroke-width:1.0;stroke-dasharray:2.0,2.0;" x1="1182.5" x2="1386.5" y1="671.2813" y2="671.2813"/><text fill="#000000" font-family="sans-serif" font-size="13" font-weight="bold" lengthAdjust="spacing" textLength="14" x="1232" y="666.4248">16</text><text fill="#000000" font-family="sans-serif" font-size="13" lengthAdjust="spacing" textLength="83" x="1250" y="666.4248">roomTypeDTO</text><polygon fill="#181818" points="988.5,697.6328,978.5,701.6328,988.5,705.6328,984.5,701.6328" style="stroke:#181818;stroke-width:1.0;"/><line style="stroke:#181818;stroke-width:1.0;stroke-dasharray:2.0,2.0;" x1="982.5" x2="1171.5" y1="701.6328" y2="701.6328"/><text fill="#000000" font-family="sans-serif" font-size="13" font-weight="bold" lengthAdjust="spacing" textLength="14" x="1024.5" y="696.7764">17</text><text fill="#000000" font-family="sans-serif" font-size="13" lengthAdjust="spacing" textLength="83" x="1042.5" y="696.7764">roomTypeDTO</text><polygon fill="#181818" points="844.5,727.9844,834.5,731.9844,844.5,735.9844,840.5,731.9844" style="stroke:#181818;stroke-width:1.0;"/><line style="stroke:#181818;stroke-width:1.0;stroke-dasharray:2.0,2.0;" x1="838.5" x2="971.5" y1="731.9844" y2="731.9844"/><text fill="#000000" font-family="sans-serif" font-size="13" font-weight="bold" lengthAdjust="spacing" textLength="14" x="850.5" y="727.1279">18</text><text fill="#000000" font-family="sans-serif" font-size="13" lengthAdjust="spacing" textLength="87" x="868.5" y="727.1279">201 (roomtype)</text><polygon fill="#181818" points="702.5,758.3359,692.5,762.3359,702.5,766.3359,698.5,762.3359" style="stroke:#181818;stroke-width:1.0;"/><line style="stroke:#181818;stroke-width:1.0;stroke-dasharray:2.0,2.0;" x1="696.5" x2="827.5" y1="762.3359" y2="762.3359"/><text fill="#000000" font-family="sans-serif" font-size="13" font-weight="bold" lengthAdjust="spacing" textLength="14" x="724" y="757.4795">19</text><text fill="#000000" font-family="sans-serif" font-size="13" lengthAdjust="spacing" textLength="54" x="742" y="757.4795">roomtype</text><polygon fill="#181818" points="418.5,788.6875,408.5,792.6875,418.5,796.6875,414.5,792.6875" style="stroke:#181818;stroke-width:1.0;"/><line style="stroke:#181818;stroke-width:1.0;stroke-dasharray:2.0,2.0;" x1="412.5" x2="685.5" y1="792.6875" y2="792.6875"/><text fill="#000000" font-family="sans-serif" font-size="13" font-weight="bold" lengthAdjust="spacing" textLength="14" x="511" y="787.8311">20</text><text fill="#000000" font-family="sans-serif" font-size="13" lengthAdjust="spacing" textLength="54" x="529" y="787.8311">roomtype</text><polygon fill="#181818" points="254.5,819.0391,244.5,823.0391,254.5,827.0391,250.5,823.0391" style="stroke:#181818;stroke-width:1.0;"/><line style="stroke:#181818;stroke-width:1.0;stroke-dasharray:2.0,2.0;" x1="248.5" x2="401.5" y1="823.0391" y2="823.0391"/><text fill="#000000" font-family="sans-serif" font-size="13" font-weight="bold" lengthAdjust="spacing" textLength="14" x="287" y="818.1826">21</text><text fill="#000000" font-family="sans-serif" font-size="13" lengthAdjust="spacing" textLength="54" x="305" y="818.1826">roomtype</text><polygon fill="#181818" points="38.5,849.3906,28.5,853.3906,38.5,857.3906,34.5,853.3906" style="stroke:#181818;stroke-width:1.0;"/><line style="stroke:#181818;stroke-width:1.0;stroke-dasharray:2.0,2.0;" x1="32.5" x2="237.5" y1="853.3906" y2="853.3906"/><text fill="#000000" font-family="sans-serif" font-size="13" font-weight="bold" lengthAdjust="spacing" textLength="14" x="50.5" y="848.5342">22</text><text fill="#000000" font-family="sans-serif" font-size="13" lengthAdjust="spacing" textLength="147" x="68.5" y="848.5342">shows success message</text><!--SRC=[dPPDRwCm48Rl_0gBFJH4ZVP3Uq8eKjjejIjjjrLARoj53hWf2c0McxJzzpksmPWF9oG-46FyFZCUUyR15QTvbMr9wR1zaXUun1bQaHTSfJmax_mcJNPvHdAE8dZ0B1nnMgARE4joX1boPSzrd2rzHsuGi0_6IOPcTz-zvV9l_gEaeCfZzzFlPFVARzEAE0WQsE59b1GOm7SqAsWEzETVaWW_UiX5GH0rBpNL3f3oyxJtD2QfrCdU9CqJAGz9HAIgxa_I_Gp3HoaIdL45H0f186tHlCNHNapv0www0_oQLh11qi2QqYpyA8WQ0f3gZCOkvoLDqvwm7GPn-s8FngOZRw8I17LlHDZCxGX1iQ8PJl8ZWdjST3Jm3Z9u5jh167EynOnepPeKj1iP632DwSZ3-KuEc1Drn1s9KwTziUmSLHzuUuOuSECOvUGDSR4Q-e9Ai25rccNe554q4xO0kBBIOY4RAowNeZGniVCi7Xg8C_qnICAbiHLguH3RVkk01LQcsNmEqAWa8EhCjCkQdFFjqHwuKskwpeZMm80hSz971MLyTlLPi0INNNb3bUOApU2hQ186q3eJVVJuy1IYbkgCgZHNoSOdYLPZvTxeh9K1QKxrh2J_hal2hdCetPwTPEnO0xBELLkXxRLxiUdRhZihJhsZjACV-xktSOvEDxPpeqAld9ZFcmFM-XK-UATXncuesKc5sfgwc2swyIcdGepareOlMhYiT3vY-D2ktBiC9Ggj3vK80dSEQh0Gu3XdHL4OjWGIV74k2QRmuPJiZ23rSt2oUuPhqmwucNfcQPbaiNDbw4m_MM3QklZjorSqQ-gNPUyxqRPNC5KSEwMy0Gy51bDMMti9xzrK6daywDOBQd253e1Zrx1v2GUBHG_1NkaRGwoA8i8Ook21T-JebMwCgxyX_m40]--></g></svg>