<?xml version="1.0" encoding="us-ascii" standalone="no"?><svg xmlns="http://www.w3.org/2000/svg" xmlns:xlink="http://www.w3.org/1999/xlink" contentStyleType="text/css" height="623px" preserveAspectRatio="none" style="width:1056px;height:623px;background:#FFFFFF;" version="1.1" viewBox="0 0 1056 623" width="1056px" zoomAndPan="magnify"><defs/><g><rect fill="#ADD8E6" height="611.9688" style="stroke:#181818;stroke-width:0.5;" width="735" x="173.5" y="6"/><text fill="#000000" font-family="sans-serif" font-size="13" font-weight="bold" lengthAdjust="spacing" textLength="85" x="498.5" y="19.4951">&#171;system (C4)&#187;</text><text fill="#000000" font-family="sans-serif" font-size="13" font-weight="bold" lengthAdjust="spacing" textLength="57" x="512.5" y="35.8467">Frontend</text><rect fill="#DDDDDD" height="611.9688" style="stroke:#181818;stroke-width:0.5;" width="140" x="910.5" y="6"/><text fill="#000000" font-family="sans-serif" font-size="13" font-weight="bold" lengthAdjust="spacing" textLength="85" x="938" y="19.4951">&#171;system (C4)&#187;</text><text fill="#000000" font-family="sans-serif" font-size="13" font-weight="bold" lengthAdjust="spacing" textLength="42" x="959.5" y="35.8467">Server</text><rect fill="#FFFFFF" height="416.4375" style="stroke:#181818;stroke-width:1.0;" width="10" x="22.5" y="102.9219"/><rect fill="#FFFFFF" height="30.3516" style="stroke:#181818;stroke-width:1.0;" width="10" x="238.5" y="125.2734"/><rect fill="#FFFFFF" height="333.3828" style="stroke:#181818;stroke-width:1.0;" width="10" x="238.5" y="185.9766"/><rect fill="#FFFFFF" height="272.6797" style="stroke:#181818;stroke-width:1.0;" width="10" x="407.5" y="216.3281"/><rect fill="#FFFFFF" height="151.7578" style="stroke:#181818;stroke-width:1.0;" width="10" x="691.5" y="306.8984"/><rect fill="#FFFFFF" height="91.0547" style="stroke:#181818;stroke-width:1.0;" width="10" x="833.5" y="337.25"/><rect fill="#FFFFFF" height="30.3516" style="stroke:#181818;stroke-width:1.0;" width="10" x="975.5" y="367.6016"/><line style="stroke:#181818;stroke-width:0.5;stroke-dasharray:5.0,5.0;" x1="27" x2="27" y1="92.9219" y2="537.3594"/><line style="stroke:#181818;stroke-width:0.5;stroke-dasharray:5.0,5.0;" x1="243.5" x2="243.5" y1="92.9219" y2="537.3594"/><line style="stroke:#181818;stroke-width:0.5;stroke-dasharray:5.0,5.0;" x1="412.5" x2="412.5" y1="92.9219" y2="537.3594"/><line style="stroke:#181818;stroke-width:0.5;stroke-dasharray:5.0,5.0;" x1="554.5" x2="554.5" y1="264.4375" y2="537.3594"/><line style="stroke:#181818;stroke-width:0.5;stroke-dasharray:5.0,5.0;" x1="696.5" x2="696.5" y1="92.9219" y2="537.3594"/><line style="stroke:#181818;stroke-width:0.5;stroke-dasharray:5.0,5.0;" x1="838.5" x2="838.5" y1="92.9219" y2="537.3594"/><line style="stroke:#181818;stroke-width:0.5;stroke-dasharray:5.0,5.0;" x1="980.5" x2="980.5" y1="92.9219" y2="537.3594"/><text fill="#000000" font-family="sans-serif" font-size="14" lengthAdjust="spacing" textLength="39" x="5" y="89.8457">Admin</text><ellipse cx="27.5" cy="23.8125" fill="#E2E2F0" rx="8" ry="8" style="stroke:#181818;stroke-width:0.5;"/><path d="M27.5,31.8125 L27.5,58.8125 M14.5,39.8125 L40.5,39.8125 M27.5,58.8125 L14.5,73.8125 M27.5,58.8125 L40.5,73.8125 " fill="none" style="stroke:#181818;stroke-width:0.5;"/><text fill="#000000" font-family="sans-serif" font-size="14" lengthAdjust="spacing" textLength="39" x="5" y="550.8926">Admin</text><ellipse cx="27.5" cy="562.4688" fill="#E2E2F0" rx="8" ry="8" style="stroke:#181818;stroke-width:0.5;"/><path d="M27.5,570.4688 L27.5,597.4688 M14.5,578.4688 L40.5,578.4688 M27.5,597.4688 L14.5,612.4688 M27.5,597.4688 L40.5,612.4688 " fill="none" style="stroke:#181818;stroke-width:0.5;"/><rect fill="#E2E2F0" height="49.2188" rx="2.5" ry="2.5" style="stroke:#181818;stroke-width:0.5;" width="132" x="177.5" y="42.7031"/><text fill="#000000" font-family="sans-serif" font-size="14" font-style="italic" lengthAdjust="spacing" textLength="118" x="184.5" y="64.2363">&#171;component (C4)&#187;</text><text fill="#000000" font-family="sans-serif" font-size="14" lengthAdjust="spacing" textLength="89" x="199" y="81.8457">UI Component</text><rect fill="#E2E2F0" height="49.2188" rx="2.5" ry="2.5" style="stroke:#181818;stroke-width:0.5;" width="132" x="177.5" y="536.3594"/><text fill="#000000" font-family="sans-serif" font-size="14" font-style="italic" lengthAdjust="spacing" textLength="118" x="184.5" y="557.8926">&#171;component (C4)&#187;</text><text fill="#000000" font-family="sans-serif" font-size="14" lengthAdjust="spacing" textLength="89" x="199" y="575.502">UI Component</text><rect fill="#E2E2F0" height="49.2188" rx="2.5" ry="2.5" style="stroke:#181818;stroke-width:0.5;" width="132" x="346.5" y="42.7031"/><text fill="#000000" font-family="sans-serif" font-size="14" font-style="italic" lengthAdjust="spacing" textLength="118" x="353.5" y="64.2363">&#171;component (C4)&#187;</text><text fill="#000000" font-family="sans-serif" font-size="14" lengthAdjust="spacing" textLength="73" x="376" y="81.8457">Component</text><rect fill="#E2E2F0" height="49.2188" rx="2.5" ry="2.5" style="stroke:#181818;stroke-width:0.5;" width="132" x="346.5" y="536.3594"/><text fill="#000000" font-family="sans-serif" font-size="14" font-style="italic" lengthAdjust="spacing" textLength="118" x="353.5" y="557.8926">&#171;component (C4)&#187;</text><text fill="#000000" font-family="sans-serif" font-size="14" lengthAdjust="spacing" textLength="73" x="376" y="575.502">Component</text><rect fill="#E2E2F0" height="49.2188" rx="2.5" ry="2.5" style="stroke:#181818;stroke-width:0.5;" width="132" x="488.5" y="536.3594"/><text fill="#000000" font-family="sans-serif" font-size="14" font-style="italic" lengthAdjust="spacing" textLength="118" x="495.5" y="557.8926">&#171;component (C4)&#187;</text><text fill="#000000" font-family="sans-serif" font-size="14" lengthAdjust="spacing" textLength="38" x="535.5" y="575.502">Model</text><rect fill="#E2E2F0" height="49.2188" rx="2.5" ry="2.5" style="stroke:#181818;stroke-width:0.5;" width="132" x="630.5" y="42.7031"/><text fill="#000000" font-family="sans-serif" font-size="14" font-style="italic" lengthAdjust="spacing" textLength="118" x="637.5" y="64.2363">&#171;component (C4)&#187;</text><text fill="#000000" font-family="sans-serif" font-size="14" lengthAdjust="spacing" textLength="47" x="673" y="81.8457">Service</text><rect fill="#E2E2F0" height="49.2188" rx="2.5" ry="2.5" style="stroke:#181818;stroke-width:0.5;" width="132" x="630.5" y="536.3594"/><text fill="#000000" font-family="sans-serif" font-size="14" font-style="italic" lengthAdjust="spacing" textLength="118" x="637.5" y="557.8926">&#171;component (C4)&#187;</text><text fill="#000000" font-family="sans-serif" font-size="14" lengthAdjust="spacing" textLength="47" x="673" y="575.502">Service</text><rect fill="#E2E2F0" height="49.2188" rx="2.5" ry="2.5" style="stroke:#181818;stroke-width:0.5;" width="132" x="772.5" y="42.7031"/><text fill="#000000" font-family="sans-serif" font-size="14" font-style="italic" lengthAdjust="spacing" textLength="118" x="779.5" y="64.2363">&#171;component (C4)&#187;</text><text fill="#000000" font-family="sans-serif" font-size="14" lengthAdjust="spacing" textLength="36" x="820.5" y="81.8457">HTTP</text><rect fill="#E2E2F0" height="49.2188" rx="2.5" ry="2.5" style="stroke:#181818;stroke-width:0.5;" width="132" x="772.5" y="536.3594"/><text fill="#000000" font-family="sans-serif" font-size="14" font-style="italic" lengthAdjust="spacing" textLength="118" x="779.5" y="557.8926">&#171;component (C4)&#187;</text><text fill="#000000" font-family="sans-serif" font-size="14" lengthAdjust="spacing" textLength="36" x="820.5" y="575.502">HTTP</text><rect fill="#E2E2F0" height="49.2188" rx="2.5" ry="2.5" style="stroke:#181818;stroke-width:0.5;" width="132" x="914.5" y="42.7031"/><text fill="#000000" font-family="sans-serif" font-size="14" font-style="italic" lengthAdjust="spacing" textLength="118" x="921.5" y="64.2363">&#171;component (C4)&#187;</text><text fill="#000000" font-family="sans-serif" font-size="14" lengthAdjust="spacing" textLength="42" x="959.5" y="81.8457">Server</text><rect fill="#E2E2F0" height="49.2188" rx="2.5" ry="2.5" style="stroke:#181818;stroke-width:0.5;" width="132" x="914.5" y="536.3594"/><text fill="#000000" font-family="sans-serif" font-size="14" font-style="italic" lengthAdjust="spacing" textLength="118" x="921.5" y="557.8926">&#171;component (C4)&#187;</text><text fill="#000000" font-family="sans-serif" font-size="14" lengthAdjust="spacing" textLength="42" x="959.5" y="575.502">Server</text><rect fill="#FFFFFF" height="416.4375" style="stroke:#181818;stroke-width:1.0;" width="10" x="22.5" y="102.9219"/><rect fill="#FFFFFF" height="30.3516" style="stroke:#181818;stroke-width:1.0;" width="10" x="238.5" y="125.2734"/><rect fill="#FFFFFF" height="333.3828" style="stroke:#181818;stroke-width:1.0;" width="10" x="238.5" y="185.9766"/><rect fill="#FFFFFF" height="272.6797" style="stroke:#181818;stroke-width:1.0;" width="10" x="407.5" y="216.3281"/><rect fill="#FFFFFF" height="151.7578" style="stroke:#181818;stroke-width:1.0;" width="10" x="691.5" y="306.8984"/><rect fill="#FFFFFF" height="91.0547" style="stroke:#181818;stroke-width:1.0;" width="10" x="833.5" y="337.25"/><rect fill="#FFFFFF" height="30.3516" style="stroke:#181818;stroke-width:1.0;" width="10" x="975.5" y="367.6016"/><polygon fill="#181818" points="226.5,121.2734,236.5,125.2734,226.5,129.2734,230.5,125.2734" style="stroke:#181818;stroke-width:1.0;"/><line style="stroke:#181818;stroke-width:1.0;" x1="32.5" x2="232.5" y1="125.2734" y2="125.2734"/><text fill="#000000" font-family="sans-serif" font-size="13" font-weight="bold" lengthAdjust="spacing" textLength="7" x="42" y="120.417">1</text><text fill="#000000" font-family="sans-serif" font-size="13" lengthAdjust="spacing" textLength="176" x="53" y="120.417">asks to create new staff profile</text><polygon fill="#181818" points="43.5,151.625,33.5,155.625,43.5,159.625,39.5,155.625" style="stroke:#181818;stroke-width:1.0;"/><line style="stroke:#181818;stroke-width:1.0;stroke-dasharray:2.0,2.0;" x1="37.5" x2="242.5" y1="155.625" y2="155.625"/><text fill="#000000" font-family="sans-serif" font-size="13" font-weight="bold" lengthAdjust="spacing" textLength="7" x="80.5" y="150.7686">2</text><text fill="#000000" font-family="sans-serif" font-size="13" lengthAdjust="spacing" textLength="104" x="91.5" y="150.7686">asks to input data</text><polygon fill="#181818" points="226.5,181.9766,236.5,185.9766,226.5,189.9766,230.5,185.9766" style="stroke:#181818;stroke-width:1.0;"/><line style="stroke:#181818;stroke-width:1.0;" x1="32.5" x2="232.5" y1="185.9766" y2="185.9766"/><text fill="#000000" font-family="sans-serif" font-size="13" font-weight="bold" lengthAdjust="spacing" textLength="7" x="98" y="181.1201">3</text><text fill="#000000" font-family="sans-serif" font-size="13" lengthAdjust="spacing" textLength="64" x="109" y="181.1201">inputs data</text><polygon fill="#181818" points="395.5,212.3281,405.5,216.3281,395.5,220.3281,399.5,216.3281" style="stroke:#181818;stroke-width:1.0;"/><line style="stroke:#181818;stroke-width:1.0;" x1="248.5" x2="401.5" y1="216.3281" y2="216.3281"/><text fill="#000000" font-family="sans-serif" font-size="13" font-weight="bold" lengthAdjust="spacing" textLength="7" x="258" y="211.4717">4</text><text fill="#000000" font-family="sans-serif" font-size="13" lengthAdjust="spacing" textLength="129" x="269" y="211.4717">create new staff profile</text><polygon fill="#181818" points="476.5,242.6797,486.5,246.6797,476.5,250.6797,480.5,246.6797" style="stroke:#181818;stroke-width:1.0;"/><line style="stroke:#181818;stroke-width:1.0;" x1="417.5" x2="482.5" y1="246.6797" y2="246.6797"/><text fill="#000000" font-family="sans-serif" font-size="13" font-weight="bold" lengthAdjust="spacing" textLength="7" x="429.5" y="241.8232">5</text><text fill="#000000" font-family="sans-serif" font-size="13" lengthAdjust="spacing" textLength="36" x="440.5" y="241.8232">create</text><rect fill="#E2E2F0" height="49.2188" rx="2.5" ry="2.5" style="stroke:#181818;stroke-width:0.5;" width="132" x="488.5" y="224.3281"/><text fill="#000000" font-family="sans-serif" font-size="14" font-style="italic" lengthAdjust="spacing" textLength="118" x="495.5" y="245.8613">&#171;component (C4)&#187;</text><text fill="#000000" font-family="sans-serif" font-size="14" lengthAdjust="spacing" textLength="38" x="535.5" y="263.4707">Model</text><polygon fill="#181818" points="679.5,302.8984,689.5,306.8984,679.5,310.8984,683.5,306.8984" style="stroke:#181818;stroke-width:1.0;"/><line style="stroke:#181818;stroke-width:1.0;" x1="417.5" x2="685.5" y1="306.8984" y2="306.8984"/><text fill="#000000" font-family="sans-serif" font-size="13" font-weight="bold" lengthAdjust="spacing" textLength="7" x="484.5" y="302.042">6</text><text fill="#000000" font-family="sans-serif" font-size="13" lengthAdjust="spacing" textLength="129" x="495.5" y="302.042">create new staff profile</text><polygon fill="#181818" points="821.5,333.25,831.5,337.25,821.5,341.25,825.5,337.25" style="stroke:#181818;stroke-width:1.0;"/><line style="stroke:#181818;stroke-width:1.0;" x1="701.5" x2="827.5" y1="337.25" y2="337.25"/><text fill="#000000" font-family="sans-serif" font-size="13" font-weight="bold" lengthAdjust="spacing" textLength="7" x="726" y="332.3936">7</text><text fill="#000000" font-family="sans-serif" font-size="13" lengthAdjust="spacing" textLength="72" x="737" y="332.3936">post('/staffs')</text><polygon fill="#181818" points="963.5,363.6016,973.5,367.6016,963.5,371.6016,967.5,367.6016" style="stroke:#181818;stroke-width:1.0;"/><line style="stroke:#181818;stroke-width:1.0;" x1="843.5" x2="969.5" y1="367.6016" y2="367.6016"/><text fill="#000000" font-family="sans-serif" font-size="13" font-weight="bold" lengthAdjust="spacing" textLength="7" x="867" y="362.7451">8</text><text fill="#000000" font-family="sans-serif" font-size="13" lengthAdjust="spacing" textLength="74" x="878" y="362.7451">POST /staffs</text><polygon fill="#181818" points="854.5,393.9531,844.5,397.9531,854.5,401.9531,850.5,397.9531" style="stroke:#181818;stroke-width:1.0;"/><line style="stroke:#181818;stroke-width:1.0;stroke-dasharray:2.0,2.0;" x1="848.5" x2="979.5" y1="397.9531" y2="397.9531"/><text fill="#000000" font-family="sans-serif" font-size="13" font-weight="bold" lengthAdjust="spacing" textLength="7" x="878" y="393.0967">9</text><text fill="#000000" font-family="sans-serif" font-size="13" lengthAdjust="spacing" textLength="57" x="889" y="393.0967">201 (staff)</text><polygon fill="#181818" points="712.5,424.3047,702.5,428.3047,712.5,432.3047,708.5,428.3047" style="stroke:#181818;stroke-width:1.0;"/><line style="stroke:#181818;stroke-width:1.0;stroke-dasharray:2.0,2.0;" x1="706.5" x2="837.5" y1="428.3047" y2="428.3047"/><text fill="#000000" font-family="sans-serif" font-size="13" font-weight="bold" lengthAdjust="spacing" textLength="14" x="749" y="423.4482">10</text><text fill="#000000" font-family="sans-serif" font-size="13" lengthAdjust="spacing" textLength="24" x="767" y="423.4482">staff</text><polygon fill="#181818" points="428.5,454.6563,418.5,458.6563,428.5,462.6563,424.5,458.6563" style="stroke:#181818;stroke-width:1.0;"/><line style="stroke:#181818;stroke-width:1.0;stroke-dasharray:2.0,2.0;" x1="422.5" x2="695.5" y1="458.6563" y2="458.6563"/><text fill="#000000" font-family="sans-serif" font-size="13" font-weight="bold" lengthAdjust="spacing" textLength="14" x="536" y="453.7998">11</text><text fill="#000000" font-family="sans-serif" font-size="13" lengthAdjust="spacing" textLength="24" x="554" y="453.7998">staff</text><polygon fill="#181818" points="259.5,485.0078,249.5,489.0078,259.5,493.0078,255.5,489.0078" style="stroke:#181818;stroke-width:1.0;"/><line style="stroke:#181818;stroke-width:1.0;stroke-dasharray:2.0,2.0;" x1="253.5" x2="411.5" y1="489.0078" y2="489.0078"/><text fill="#000000" font-family="sans-serif" font-size="13" font-weight="bold" lengthAdjust="spacing" textLength="14" x="309.5" y="484.1514">12</text><text fill="#000000" font-family="sans-serif" font-size="13" lengthAdjust="spacing" textLength="24" x="327.5" y="484.1514">staff</text><polygon fill="#181818" points="38.5,515.3594,28.5,519.3594,38.5,523.3594,34.5,519.3594" style="stroke:#181818;stroke-width:1.0;"/><line style="stroke:#181818;stroke-width:1.0;stroke-dasharray:2.0,2.0;" x1="32.5" x2="242.5" y1="519.3594" y2="519.3594"/><text fill="#000000" font-family="sans-serif" font-size="13" font-weight="bold" lengthAdjust="spacing" textLength="14" x="53" y="514.5029">13</text><text fill="#000000" font-family="sans-serif" font-size="13" lengthAdjust="spacing" textLength="147" x="71" y="514.5029">shows success message</text><!--SRC=[bPFVJy8m4CVVzrTSvWDWilWZFf6513564ur4q2TVwbQWOMkNjKFzxxtUSEjWM_0UHcdl- -btTpTM62MBz9FddjuAcR6SfN37Lwn8p99_csaYrZBbqa243ynYaL4vJEDKI60QV5hvtgVw1ZyCzOysF8NXx6OqcNp8-roXICR-sPDORynjKd0FCF0Q8oAHCUJEL9efYV2tHmBYJxNbGnX6Vt_sr6u0oV-dVLOnJqX7gvCqYzTtKYnulXCHFqdpi5pEIMGNhGgi4c0HlOvAsijuxdi7LcYtSeC9lMZidTWnmylsaScoaS6aqOOn4hSQZ88evpPVyY_GXgrMaELg9PAoYnNEqTA13PSN8B-yg2RZh1K6OcOOIMBUIUkmI01T4qvtuv2Gq_kAxU3gg86sO9gYy_CQwqItoaxK2KOQPb3JEB1XEOYZOHj3fhGP3Yw8fGUZe-mAPVEFJcqGoFehnsmCyvV54lR4LaLjZoIjEUIq90Qrs-lBAnWIUTIgSWQaXrqwhafAFAy7rVhgLCQ3AJackOOEUk4qzsXicw2siNU6FWo2G_b6VMdGHHHnhI751rlplY_8sIw_-by0]--></g></svg>