<?xml version="1.0" encoding="us-ascii" standalone="no"?><svg xmlns="http://www.w3.org/2000/svg" xmlns:xlink="http://www.w3.org/1999/xlink" contentStyleType="text/css" height="786px" preserveAspectRatio="none" style="width:2799px;height:786px;background:#FFFFFF;" version="1.1" viewBox="0 0 2799 786" width="2799px" zoomAndPan="magnify"><defs/><g><rect fill="#FFFFFF" height="574.6797" style="stroke:#181818;stroke-width:1.0;" width="10" x="47.5" y="96.2188"/><rect fill="#FFFFFF" height="552.3281" style="stroke:#181818;stroke-width:1.0;" width="10" x="236.5" y="118.5703"/><rect fill="#FFFFFF" height="491.625" style="stroke:#181818;stroke-width:1.0;" width="10" x="492.5" y="148.9219"/><rect fill="#FFFFFF" height="30.3516" style="stroke:#181818;stroke-width:1.0;" width="10" x="1747.5" y="179.2734"/><rect fill="#FFFFFF" height="30.3516" style="stroke:#181818;stroke-width:1.0;" width="10" x="1877.5" y="579.8438"/><rect fill="#FFFFFF" height="30.3516" style="stroke:#181818;stroke-width:1.0;" width="10" x="2050.5" y="474.7891"/><rect fill="#FFFFFF" height="30.3516" style="stroke:#181818;stroke-width:1.0;" width="10" x="2244" y="239.9766"/><rect fill="#FFFFFF" height="30.3516" style="stroke:#181818;stroke-width:1.0;" width="10" x="2420" y="326.0313"/><rect fill="none" height="265.1641" style="stroke:#000000;stroke-width:1.5;" width="2783" x="10" y="285.3281"/><rect fill="none" height="172.1094" style="stroke:#000000;stroke-width:1.5;" width="2763" x="20" y="371.3828"/><line style="stroke:#181818;stroke-width:0.5;stroke-dasharray:5.0,5.0;" x1="52" x2="52" y1="86.2188" y2="688.8984"/><line style="stroke:#181818;stroke-width:0.5;stroke-dasharray:5.0,5.0;" x1="241.5" x2="241.5" y1="86.2188" y2="688.8984"/><line style="stroke:#181818;stroke-width:0.5;stroke-dasharray:5.0,5.0;" x1="497.5" x2="497.5" y1="86.2188" y2="688.8984"/><line style="stroke:#181818;stroke-width:0.5;stroke-dasharray:5.0,5.0;" x1="1752" x2="1752" y1="86.2188" y2="688.8984"/><line style="stroke:#181818;stroke-width:0.5;stroke-dasharray:5.0,5.0;" x1="1882" x2="1882" y1="86.2188" y2="688.8984"/><line style="stroke:#181818;stroke-width:0.5;stroke-dasharray:5.0,5.0;" x1="2055" x2="2055" y1="86.2188" y2="688.8984"/><line style="stroke:#181818;stroke-width:0.5;stroke-dasharray:5.0,5.0;" x1="2249" x2="2249" y1="86.2188" y2="688.8984"/><line style="stroke:#181818;stroke-width:0.5;stroke-dasharray:5.0,5.0;" x1="2425" x2="2425" y1="86.2188" y2="688.8984"/><line style="stroke:#181818;stroke-width:0.5;stroke-dasharray:5.0,5.0;" x1="2644" x2="2644" y1="86.2188" y2="688.8984"/><text fill="#000000" font-family="sans-serif" font-size="14" lengthAdjust="spacing" textLength="39" x="30" y="83.1426">Admin</text><ellipse cx="52.5" cy="17.1094" fill="#E2E2F0" rx="8" ry="8" style="stroke:#181818;stroke-width:0.5;"/><path d="M52.5,25.1094 L52.5,52.1094 M39.5,33.1094 L65.5,33.1094 M52.5,52.1094 L39.5,67.1094 M52.5,52.1094 L65.5,67.1094 " fill="none" style="stroke:#181818;stroke-width:0.5;"/><text fill="#000000" font-family="sans-serif" font-size="14" lengthAdjust="spacing" textLength="39" x="30" y="702.4316">Admin</text><ellipse cx="52.5" cy="714.0078" fill="#E2E2F0" rx="8" ry="8" style="stroke:#181818;stroke-width:0.5;"/><path d="M52.5,722.0078 L52.5,749.0078 M39.5,730.0078 L65.5,730.0078 M52.5,749.0078 L39.5,764.0078 M52.5,749.0078 L65.5,764.0078 " fill="none" style="stroke:#181818;stroke-width:0.5;"/><rect fill="#E2E2F0" height="49.2188" rx="2.5" ry="2.5" style="stroke:#181818;stroke-width:0.5;" width="178" x="152.5" y="36"/><text fill="#000000" font-family="sans-serif" font-size="14" font-style="italic" lengthAdjust="spacing" textLength="78" x="202.5" y="57.5332">&#171;Controller&#187;</text><text fill="#000000" font-family="sans-serif" font-size="14" lengthAdjust="spacing" textLength="164" x="159.5" y="75.1426">OperationTypesController</text><rect fill="#E2E2F0" height="49.2188" rx="2.5" ry="2.5" style="stroke:#181818;stroke-width:0.5;" width="178" x="152.5" y="687.8984"/><text fill="#000000" font-family="sans-serif" font-size="14" font-style="italic" lengthAdjust="spacing" textLength="78" x="202.5" y="709.4316">&#171;Controller&#187;</text><text fill="#000000" font-family="sans-serif" font-size="14" lengthAdjust="spacing" textLength="164" x="159.5" y="727.041">OperationTypesController</text><rect fill="#E2E2F0" height="49.2188" rx="2.5" ry="2.5" style="stroke:#181818;stroke-width:0.5;" width="156" x="419.5" y="36"/><text fill="#000000" font-family="sans-serif" font-size="14" font-style="italic" lengthAdjust="spacing" textLength="62" x="466.5" y="57.5332">&#171;Service&#187;</text><text fill="#000000" font-family="sans-serif" font-size="14" lengthAdjust="spacing" textLength="142" x="426.5" y="75.1426">OperationTypeService</text><rect fill="#E2E2F0" height="49.2188" rx="2.5" ry="2.5" style="stroke:#181818;stroke-width:0.5;" width="156" x="419.5" y="687.8984"/><text fill="#000000" font-family="sans-serif" font-size="14" font-style="italic" lengthAdjust="spacing" textLength="62" x="466.5" y="709.4316">&#171;Service&#187;</text><text fill="#000000" font-family="sans-serif" font-size="14" lengthAdjust="spacing" textLength="142" x="426.5" y="727.041">OperationTypeService</text><rect fill="#E2E2F0" height="49.2188" rx="2.5" ry="2.5" style="stroke:#181818;stroke-width:0.5;" width="109" x="1698" y="36"/><text fill="#000000" font-family="sans-serif" font-size="14" font-style="italic" lengthAdjust="spacing" textLength="64" x="1720.5" y="57.5332">&#171;Domain&#187;</text><text fill="#000000" font-family="sans-serif" font-size="14" lengthAdjust="spacing" textLength="95" x="1705" y="75.1426">OperationType</text><rect fill="#E2E2F0" height="49.2188" rx="2.5" ry="2.5" style="stroke:#181818;stroke-width:0.5;" width="109" x="1698" y="687.8984"/><text fill="#000000" font-family="sans-serif" font-size="14" font-style="italic" lengthAdjust="spacing" textLength="64" x="1720.5" y="709.4316">&#171;Domain&#187;</text><text fill="#000000" font-family="sans-serif" font-size="14" lengthAdjust="spacing" textLength="95" x="1705" y="727.041">OperationType</text><rect fill="#E2E2F0" height="49.2188" rx="2.5" ry="2.5" style="stroke:#181818;stroke-width:0.5;" width="131" x="1817" y="36"/><text fill="#000000" font-family="sans-serif" font-size="14" font-style="italic" lengthAdjust="spacing" textLength="64" x="1850.5" y="57.5332">&#171;Domain&#187;</text><text fill="#000000" font-family="sans-serif" font-size="14" lengthAdjust="spacing" textLength="117" x="1824" y="75.1426">OperationTypeDto</text><rect fill="#E2E2F0" height="49.2188" rx="2.5" ry="2.5" style="stroke:#181818;stroke-width:0.5;" width="131" x="1817" y="687.8984"/><text fill="#000000" font-family="sans-serif" font-size="14" font-style="italic" lengthAdjust="spacing" textLength="64" x="1850.5" y="709.4316">&#171;Domain&#187;</text><text fill="#000000" font-family="sans-serif" font-size="14" lengthAdjust="spacing" textLength="117" x="1824" y="727.041">OperationTypeDto</text><rect fill="#E2E2F0" height="49.2188" rx="2.5" ry="2.5" style="stroke:#181818;stroke-width:0.5;" width="195" x="1958" y="36"/><text fill="#000000" font-family="sans-serif" font-size="14" font-style="italic" lengthAdjust="spacing" textLength="64" x="2023.5" y="57.5332">&#171;Domain&#187;</text><text fill="#000000" font-family="sans-serif" font-size="14" lengthAdjust="spacing" textLength="181" x="1965" y="75.1426">OperationTypeSpecialization</text><rect fill="#E2E2F0" height="49.2188" rx="2.5" ry="2.5" style="stroke:#181818;stroke-width:0.5;" width="195" x="1958" y="687.8984"/><text fill="#000000" font-family="sans-serif" font-size="14" font-style="italic" lengthAdjust="spacing" textLength="64" x="2023.5" y="709.4316">&#171;Domain&#187;</text><text fill="#000000" font-family="sans-serif" font-size="14" lengthAdjust="spacing" textLength="181" x="1965" y="727.041">OperationTypeSpecialization</text><text fill="#000000" font-family="sans-serif" font-size="14" font-style="italic" lengthAdjust="spacing" textLength="64" x="2214" y="65.5332">&#171;Domain&#187;</text><text fill="#000000" font-family="sans-serif" font-size="14" lengthAdjust="spacing" textLength="166" x="2163" y="83.1426">IOperationTypeRepository</text><path d="M2231,15 C2231,5 2249,5 2249,5 C2249,5 2267,5 2267,15 L2267,41 C2267,51 2249,51 2249,51 C2249,51 2231,51 2231,41 L2231,15 " fill="#E2E2F0" style="stroke:#181818;stroke-width:1.5;"/><path d="M2231,15 C2231,25 2249,25 2249,25 C2249,25 2267,25 2267,15 " fill="none" style="stroke:#181818;stroke-width:1.5;"/><text fill="#000000" font-family="sans-serif" font-size="14" font-style="italic" lengthAdjust="spacing" textLength="64" x="2214" y="702.4316">&#171;Domain&#187;</text><text fill="#000000" font-family="sans-serif" font-size="14" lengthAdjust="spacing" textLength="166" x="2163" y="720.041">IOperationTypeRepository</text><path d="M2231,733.1172 C2231,723.1172 2249,723.1172 2249,723.1172 C2249,723.1172 2267,723.1172 2267,733.1172 L2267,759.1172 C2267,769.1172 2249,769.1172 2249,769.1172 C2249,769.1172 2231,769.1172 2231,759.1172 L2231,733.1172 " fill="#E2E2F0" style="stroke:#181818;stroke-width:1.5;"/><path d="M2231,733.1172 C2231,743.1172 2249,743.1172 2249,743.1172 C2249,743.1172 2267,743.1172 2267,733.1172 " fill="none" style="stroke:#181818;stroke-width:1.5;"/><text fill="#000000" font-family="sans-serif" font-size="14" font-style="italic" lengthAdjust="spacing" textLength="64" x="2390" y="65.5332">&#171;Domain&#187;</text><text fill="#000000" font-family="sans-serif" font-size="14" lengthAdjust="spacing" textLength="154" x="2345" y="83.1426">SpecializationRepository</text><path d="M2407,15 C2407,5 2425,5 2425,5 C2425,5 2443,5 2443,15 L2443,41 C2443,51 2425,51 2425,51 C2425,51 2407,51 2407,41 L2407,15 " fill="#E2E2F0" style="stroke:#181818;stroke-width:1.5;"/><path d="M2407,15 C2407,25 2425,25 2425,25 C2425,25 2443,25 2443,15 " fill="none" style="stroke:#181818;stroke-width:1.5;"/><text fill="#000000" font-family="sans-serif" font-size="14" font-style="italic" lengthAdjust="spacing" textLength="64" x="2390" y="702.4316">&#171;Domain&#187;</text><text fill="#000000" font-family="sans-serif" font-size="14" lengthAdjust="spacing" textLength="154" x="2345" y="720.041">SpecializationRepository</text><path d="M2407,733.1172 C2407,723.1172 2425,723.1172 2425,723.1172 C2425,723.1172 2443,723.1172 2443,733.1172 L2443,759.1172 C2443,769.1172 2425,769.1172 2425,769.1172 C2425,769.1172 2407,769.1172 2407,759.1172 L2407,733.1172 " fill="#E2E2F0" style="stroke:#181818;stroke-width:1.5;"/><path d="M2407,733.1172 C2407,743.1172 2425,743.1172 2425,743.1172 C2425,743.1172 2443,743.1172 2443,733.1172 " fill="none" style="stroke:#181818;stroke-width:1.5;"/><text fill="#000000" font-family="sans-serif" font-size="14" font-style="italic" lengthAdjust="spacing" textLength="64" x="2609" y="65.5332">&#171;Domain&#187;</text><text fill="#000000" font-family="sans-serif" font-size="14" lengthAdjust="spacing" textLength="252" x="2515" y="83.1426">IOperationTypeSpecializationRepository</text><path d="M2626,15 C2626,5 2644,5 2644,5 C2644,5 2662,5 2662,15 L2662,41 C2662,51 2644,51 2644,51 C2644,51 2626,51 2626,41 L2626,15 " fill="#E2E2F0" style="stroke:#181818;stroke-width:1.5;"/><path d="M2626,15 C2626,25 2644,25 2644,25 C2644,25 2662,25 2662,15 " fill="none" style="stroke:#181818;stroke-width:1.5;"/><text fill="#000000" font-family="sans-serif" font-size="14" font-style="italic" lengthAdjust="spacing" textLength="64" x="2609" y="702.4316">&#171;Domain&#187;</text><text fill="#000000" font-family="sans-serif" font-size="14" lengthAdjust="spacing" textLength="252" x="2515" y="720.041">IOperationTypeSpecializationRepository</text><path d="M2626,733.1172 C2626,723.1172 2644,723.1172 2644,723.1172 C2644,723.1172 2662,723.1172 2662,733.1172 L2662,759.1172 C2662,769.1172 2644,769.1172 2644,769.1172 C2644,769.1172 2626,769.1172 2626,759.1172 L2626,733.1172 " fill="#E2E2F0" style="stroke:#181818;stroke-width:1.5;"/><path d="M2626,733.1172 C2626,743.1172 2644,743.1172 2644,743.1172 C2644,743.1172 2662,743.1172 2662,733.1172 " fill="none" style="stroke:#181818;stroke-width:1.5;"/><rect fill="#FFFFFF" height="574.6797" style="stroke:#181818;stroke-width:1.0;" width="10" x="47.5" y="96.2188"/><rect fill="#FFFFFF" height="552.3281" style="stroke:#181818;stroke-width:1.0;" width="10" x="236.5" y="118.5703"/><rect fill="#FFFFFF" height="491.625" style="stroke:#181818;stroke-width:1.0;" width="10" x="492.5" y="148.9219"/><rect fill="#FFFFFF" height="30.3516" style="stroke:#181818;stroke-width:1.0;" width="10" x="1747.5" y="179.2734"/><rect fill="#FFFFFF" height="30.3516" style="stroke:#181818;stroke-width:1.0;" width="10" x="1877.5" y="579.8438"/><rect fill="#FFFFFF" height="30.3516" style="stroke:#181818;stroke-width:1.0;" width="10" x="2050.5" y="474.7891"/><rect fill="#FFFFFF" height="30.3516" style="stroke:#181818;stroke-width:1.0;" width="10" x="2244" y="239.9766"/><rect fill="#FFFFFF" height="30.3516" style="stroke:#181818;stroke-width:1.0;" width="10" x="2420" y="326.0313"/><polygon fill="#181818" points="224.5,114.5703,234.5,118.5703,224.5,122.5703,228.5,118.5703" style="stroke:#181818;stroke-width:1.0;"/><line style="stroke:#181818;stroke-width:1.0;" x1="57.5" x2="230.5" y1="118.5703" y2="118.5703"/><text fill="#000000" font-family="sans-serif" font-size="13" font-weight="bold" lengthAdjust="spacing" textLength="7" x="64.5" y="113.7139">1</text><text fill="#000000" font-family="sans-serif" font-size="13" lengthAdjust="spacing" textLength="149" x="75.5" y="113.7139">POST /api/operationtypes</text><polygon fill="#181818" points="480.5,144.9219,490.5,148.9219,480.5,152.9219,484.5,148.9219" style="stroke:#181818;stroke-width:1.0;"/><line style="stroke:#181818;stroke-width:1.0;" x1="246.5" x2="486.5" y1="148.9219" y2="148.9219"/><text fill="#000000" font-family="sans-serif" font-size="13" font-weight="bold" lengthAdjust="spacing" textLength="7" x="253.5" y="144.0654">2</text><text fill="#000000" font-family="sans-serif" font-size="13" lengthAdjust="spacing" textLength="216" x="264.5" y="144.0654">addAsync(creatingOperationTypeDto)</text><polygon fill="#181818" points="1735.5,175.2734,1745.5,179.2734,1735.5,183.2734,1739.5,179.2734" style="stroke:#181818;stroke-width:1.0;"/><line style="stroke:#181818;stroke-width:1.0;" x1="502.5" x2="1741.5" y1="179.2734" y2="179.2734"/><text fill="#000000" font-family="sans-serif" font-size="13" font-weight="bold" lengthAdjust="spacing" textLength="7" x="509.5" y="174.417">3</text><text fill="#000000" font-family="sans-serif" font-size="13" lengthAdjust="spacing" textLength="1215" x="520.5" y="174.417">create(creatingOperationTypeDto.Name,creatingOperationTypeDto.EstimatedDuration,creatingOperationTypeDto.AnesthesiaTime,creatingOperationTypeDto.CleaningTime,creatingOperationTypeDto.SurgeryTime)</text><polygon fill="#181818" points="513.5,205.625,503.5,209.625,513.5,213.625,509.5,209.625" style="stroke:#181818;stroke-width:1.0;"/><line style="stroke:#181818;stroke-width:1.0;stroke-dasharray:2.0,2.0;" x1="507.5" x2="1751.5" y1="209.625" y2="209.625"/><text fill="#000000" font-family="sans-serif" font-size="13" font-weight="bold" lengthAdjust="spacing" textLength="7" x="519.5" y="204.7686">4</text><text fill="#000000" font-family="sans-serif" font-size="13" lengthAdjust="spacing" textLength="81" x="530.5" y="204.7686">operationType</text><polygon fill="#181818" points="2232,235.9766,2242,239.9766,2232,243.9766,2236,239.9766" style="stroke:#181818;stroke-width:1.0;"/><line style="stroke:#181818;stroke-width:1.0;" x1="502.5" x2="2238" y1="239.9766" y2="239.9766"/><text fill="#000000" font-family="sans-serif" font-size="13" font-weight="bold" lengthAdjust="spacing" textLength="7" x="509.5" y="235.1201">5</text><text fill="#000000" font-family="sans-serif" font-size="13" lengthAdjust="spacing" textLength="149" x="520.5" y="235.1201">AddAsync(operationType)</text><polygon fill="#181818" points="513.5,266.3281,503.5,270.3281,513.5,274.3281,509.5,270.3281" style="stroke:#181818;stroke-width:1.0;"/><line style="stroke:#181818;stroke-width:1.0;stroke-dasharray:2.0,2.0;" x1="507.5" x2="2248" y1="270.3281" y2="270.3281"/><text fill="#000000" font-family="sans-serif" font-size="13" font-weight="bold" lengthAdjust="spacing" textLength="7" x="519.5" y="265.4717">6</text><text fill="#000000" font-family="sans-serif" font-size="13" lengthAdjust="spacing" textLength="81" x="530.5" y="265.4717">operationType</text><path d="M10,285.3281 L83,285.3281 L83,293.6797 L73,303.6797 L10,303.6797 L10,285.3281 " fill="#EEEEEE" style="stroke:#000000;stroke-width:1.5;"/><rect fill="none" height="265.1641" style="stroke:#000000;stroke-width:1.5;" width="2783" x="10" y="285.3281"/><text fill="#000000" font-family="sans-serif" font-size="13" font-weight="bold" lengthAdjust="spacing" textLength="28" x="25" y="299.8232">loop</text><text fill="#000000" font-family="sans-serif" font-size="11" font-weight="bold" lengthAdjust="spacing" textLength="149" x="98" y="298.7471">[for each specializationDto]</text><polygon fill="#181818" points="2408,322.0313,2418,326.0313,2408,330.0313,2412,326.0313" style="stroke:#181818;stroke-width:1.0;"/><line style="stroke:#181818;stroke-width:1.0;" x1="502.5" x2="2414" y1="326.0313" y2="326.0313"/><text fill="#000000" font-family="sans-serif" font-size="13" font-weight="bold" lengthAdjust="spacing" textLength="7" x="509.5" y="321.1748">7</text><text fill="#000000" font-family="sans-serif" font-size="13" lengthAdjust="spacing" textLength="181" x="520.5" y="321.1748">GetByIdAsync(specializationId)</text><polygon fill="#181818" points="513.5,352.3828,503.5,356.3828,513.5,360.3828,509.5,356.3828" style="stroke:#181818;stroke-width:1.0;"/><line style="stroke:#181818;stroke-width:1.0;stroke-dasharray:2.0,2.0;" x1="507.5" x2="2424" y1="356.3828" y2="356.3828"/><text fill="#000000" font-family="sans-serif" font-size="13" font-weight="bold" lengthAdjust="spacing" textLength="7" x="519.5" y="351.5264">8</text><text fill="#000000" font-family="sans-serif" font-size="13" lengthAdjust="spacing" textLength="79" x="530.5" y="351.5264">specialization</text><path d="M20,371.3828 L81,371.3828 L81,379.7344 L71,389.7344 L20,389.7344 L20,371.3828 " fill="#EEEEEE" style="stroke:#000000;stroke-width:1.5;"/><rect fill="none" height="172.1094" style="stroke:#000000;stroke-width:1.5;" width="2763" x="20" y="371.3828"/><text fill="#000000" font-family="sans-serif" font-size="13" font-weight="bold" lengthAdjust="spacing" textLength="16" x="35" y="385.8779">alt</text><text fill="#000000" font-family="sans-serif" font-size="11" font-weight="bold" lengthAdjust="spacing" textLength="121" x="96" y="384.8018">[specialization == null]</text><polygon fill="#181818" points="257.5,408.0859,247.5,412.0859,257.5,416.0859,253.5,412.0859" style="stroke:#181818;stroke-width:1.0;"/><line style="stroke:#181818;stroke-width:1.0;stroke-dasharray:2.0,2.0;" x1="251.5" x2="491.5" y1="412.0859" y2="412.0859"/><text fill="#000000" font-family="sans-serif" font-size="13" font-weight="bold" lengthAdjust="spacing" textLength="7" x="263.5" y="407.2295">9</text><text fill="#000000" font-family="sans-serif" font-size="13" lengthAdjust="spacing" textLength="114" x="274.5" y="407.2295">NotFoundException</text><polygon fill="#181818" points="68.5,438.4375,58.5,442.4375,68.5,446.4375,64.5,442.4375" style="stroke:#181818;stroke-width:1.0;"/><line style="stroke:#181818;stroke-width:1.0;stroke-dasharray:2.0,2.0;" x1="62.5" x2="235.5" y1="442.4375" y2="442.4375"/><text fill="#000000" font-family="sans-serif" font-size="13" font-weight="bold" lengthAdjust="spacing" textLength="14" x="74.5" y="437.5811">10</text><text fill="#000000" font-family="sans-serif" font-size="13" lengthAdjust="spacing" textLength="85" x="92.5" y="437.5811">404 Not Found</text><line style="stroke:#000000;stroke-width:1.0;stroke-dasharray:2.0,2.0;" x1="20" x2="2783" y1="451.4375" y2="451.4375"/><polygon fill="#181818" points="2038.5,470.7891,2048.5,474.7891,2038.5,478.7891,2042.5,474.7891" style="stroke:#181818;stroke-width:1.0;"/><line style="stroke:#181818;stroke-width:1.0;" x1="502.5" x2="2044.5" y1="474.7891" y2="474.7891"/><text fill="#000000" font-family="sans-serif" font-size="13" font-weight="bold" lengthAdjust="spacing" textLength="14" x="509.5" y="469.9326">11</text><text fill="#000000" font-family="sans-serif" font-size="13" lengthAdjust="spacing" textLength="321" x="527.5" y="469.9326">create(OperationTypeId,SpecializationId,NumberOfStaff)</text><polygon fill="#181818" points="513.5,501.1406,503.5,505.1406,513.5,509.1406,509.5,505.1406" style="stroke:#181818;stroke-width:1.0;"/><line style="stroke:#181818;stroke-width:1.0;stroke-dasharray:2.0,2.0;" x1="507.5" x2="2054.5" y1="505.1406" y2="505.1406"/><text fill="#000000" font-family="sans-serif" font-size="13" font-weight="bold" lengthAdjust="spacing" textLength="14" x="519.5" y="500.2842">12</text><text fill="#000000" font-family="sans-serif" font-size="13" lengthAdjust="spacing" textLength="162" x="537.5" y="500.2842">operationTypeSpecialization</text><polygon fill="#181818" points="2632,531.4922,2642,535.4922,2632,539.4922,2636,535.4922" style="stroke:#181818;stroke-width:1.0;"/><line style="stroke:#181818;stroke-width:1.0;" x1="502.5" x2="2638" y1="535.4922" y2="535.4922"/><text fill="#000000" font-family="sans-serif" font-size="13" font-weight="bold" lengthAdjust="spacing" textLength="14" x="509.5" y="530.6357">13</text><text fill="#000000" font-family="sans-serif" font-size="13" lengthAdjust="spacing" textLength="230" x="527.5" y="530.6357">AddAsync(operationTypeSpecialization)</text><polygon fill="#181818" points="1865.5,575.8438,1875.5,579.8438,1865.5,583.8438,1869.5,579.8438" style="stroke:#181818;stroke-width:1.0;"/><line style="stroke:#181818;stroke-width:1.0;" x1="502.5" x2="1871.5" y1="579.8438" y2="579.8438"/><text fill="#000000" font-family="sans-serif" font-size="13" font-weight="bold" lengthAdjust="spacing" textLength="14" x="509.5" y="574.9873">14</text><text fill="#000000" font-family="sans-serif" font-size="13" lengthAdjust="spacing" textLength="543" x="527.5" y="574.9873">create(OperationTypeId,Name,EstimatedDuration,AnesthesiaTime,CleaningTime,SurgeryTime)</text><polygon fill="#181818" points="513.5,606.1953,503.5,610.1953,513.5,614.1953,509.5,610.1953" style="stroke:#181818;stroke-width:1.0;"/><line style="stroke:#181818;stroke-width:1.0;stroke-dasharray:2.0,2.0;" x1="507.5" x2="1881.5" y1="610.1953" y2="610.1953"/><text fill="#000000" font-family="sans-serif" font-size="13" font-weight="bold" lengthAdjust="spacing" textLength="14" x="519.5" y="605.3389">15</text><text fill="#000000" font-family="sans-serif" font-size="13" lengthAdjust="spacing" textLength="101" x="537.5" y="605.3389">operationTypeDto</text><polygon fill="#181818" points="257.5,636.5469,247.5,640.5469,257.5,644.5469,253.5,640.5469" style="stroke:#181818;stroke-width:1.0;"/><line style="stroke:#181818;stroke-width:1.0;stroke-dasharray:2.0,2.0;" x1="251.5" x2="496.5" y1="640.5469" y2="640.5469"/><text fill="#000000" font-family="sans-serif" font-size="13" font-weight="bold" lengthAdjust="spacing" textLength="14" x="263.5" y="635.6904">16</text><text fill="#000000" font-family="sans-serif" font-size="13" lengthAdjust="spacing" textLength="101" x="281.5" y="635.6904">operationTypeDto</text><polygon fill="#181818" points="63.5,666.8984,53.5,670.8984,63.5,674.8984,59.5,670.8984" style="stroke:#181818;stroke-width:1.0;"/><line style="stroke:#181818;stroke-width:1.0;stroke-dasharray:2.0,2.0;" x1="57.5" x2="240.5" y1="670.8984" y2="670.8984"/><text fill="#000000" font-family="sans-serif" font-size="13" font-weight="bold" lengthAdjust="spacing" textLength="14" x="69.5" y="666.042">17</text><text fill="#000000" font-family="sans-serif" font-size="13" lengthAdjust="spacing" textLength="70" x="87.5" y="666.042">201 Created</text><!--SRC=[dLPBRjim4Dth50ElQi1kqY8hmJ7Ws6dXZLrKlW0ZZHC24Yb8L53rzALeVKXHPDHmHN7clHdEZoALuApANh080X8BNi1YbsIKBO2Ke7P1JWf1OveJ9c1nph4WWd9sgNCizvo9WgSf5af_-8JDPlZORZqS4HRlD4Q5R_SItEwyI0KnJYJmm3D2cHTt4Do6oiDvw2Z7c9AK_bKdDf4frpaJ8iWBAH4MHmFn6tDUKXdwMh4DdzDWqy08x1BEySDBF4jJjz9K4tqd0jig0hdKRhtLwoI4N-Ve0dSaftUyio6QsWeKf6SPC3T1ipGUoTfLJmWaINPbpU8lSO6IaBsEKxqSE7e3BNoGDAlZbFHcfOMWkD5fukk9PBXoIfzBGJE9JmxLJU1MtJ4inHkMb5oeZtAV8c5IuDUAgk8LYxfHMfftxIDXO4oTPfc1M1kHvsveWdCCT5HDnBN22cNjj3arJBYkC41j_pNQppZleauvp-4g1wXKVOFIQ14PUDiFhRQS3HN2JnHFzR6zkybwJ9Oswr3F3auRefnnUM26o7J0fjBYDDy-ISM861uVWLLf2WvdkyYDPyc9Yn-yOidpdnZpQG_xEGIRzTf4Fzm_D0oWA6mafd9cMgT-1xVUnw4V8eRICLb5epolJkg9FbyZGQxNvVIjfjih-Y1ZarqzyjFJ9dFeNPq_1wlFWtbla6jKc8296E8uwTQ1AwtDpuCpb-eTiCVzQAeRm_j_P_JaUB4yz6JH8d2bp59qjgARNvyHupVNqPdVxx_1NeMtpOZ6eVyOQCUtluxW7m00]--></g></svg>