<?xml version="1.0" encoding="us-ascii" standalone="no"?><svg xmlns="http://www.w3.org/2000/svg" xmlns:xlink="http://www.w3.org/1999/xlink" contentStyleType="text/css" height="339px" preserveAspectRatio="none" style="width:393px;height:339px;background:#FFFFFF;" version="1.1" viewBox="0 0 393 339" width="393px" zoomAndPan="magnify"><defs/><g><rect fill="#FFFFFF" height="214.4609" style="stroke:#181818;stroke-width:1.0;" width="10" x="100" y="69.9609"/><rect fill="#FFFFFF" height="30.3516" style="stroke:#181818;stroke-width:1.0;" width="10" x="335" y="100.3125"/><rect fill="#FFFFFF" height="30.3516" style="stroke:#181818;stroke-width:1.0;" width="10" x="335" y="186.3672"/><rect fill="none" height="109.4063" style="stroke:#000000;stroke-width:1.5;" width="320.5" x="67" y="145.6641"/><line style="stroke:#181818;stroke-width:0.5;stroke-dasharray:5.0,5.0;" x1="105" x2="105" y1="37.6094" y2="302.4219"/><line style="stroke:#181818;stroke-width:0.5;stroke-dasharray:5.0,5.0;" x1="339.5" x2="339.5" y1="37.6094" y2="302.4219"/><rect fill="#E2E2F0" height="31.6094" rx="2.5" ry="2.5" style="stroke:#181818;stroke-width:0.5;" width="56" x="77" y="5"/><text fill="#000000" font-family="sans-serif" font-size="14" lengthAdjust="spacing" textLength="42" x="84" y="26.5332">Server</text><rect fill="#E2E2F0" height="31.6094" rx="2.5" ry="2.5" style="stroke:#181818;stroke-width:0.5;" width="56" x="77" y="301.4219"/><text fill="#000000" font-family="sans-serif" font-size="14" lengthAdjust="spacing" textLength="42" x="84" y="322.9551">Server</text><rect fill="#E2E2F0" height="31.6094" rx="2.5" ry="2.5" style="stroke:#181818;stroke-width:0.5;" width="75" x="302.5" y="5"/><text fill="#000000" font-family="sans-serif" font-size="14" lengthAdjust="spacing" textLength="61" x="309.5" y="26.5332">Database</text><rect fill="#E2E2F0" height="31.6094" rx="2.5" ry="2.5" style="stroke:#181818;stroke-width:0.5;" width="75" x="302.5" y="301.4219"/><text fill="#000000" font-family="sans-serif" font-size="14" lengthAdjust="spacing" textLength="61" x="309.5" y="322.9551">Database</text><rect fill="#FFFFFF" height="214.4609" style="stroke:#181818;stroke-width:1.0;" width="10" x="100" y="69.9609"/><rect fill="#FFFFFF" height="30.3516" style="stroke:#181818;stroke-width:1.0;" width="10" x="335" y="100.3125"/><rect fill="#FFFFFF" height="30.3516" style="stroke:#181818;stroke-width:1.0;" width="10" x="335" y="186.3672"/><ellipse cx="31.5" cy="69.2109" fill="none" rx="4" ry="4" style="stroke:#181818;stroke-width:1.5;"/><polygon fill="#181818" points="88,65.9609,98,69.9609,88,73.9609,92,69.9609" style="stroke:#181818;stroke-width:1.0;"/><line style="stroke:#181818;stroke-width:1.0;" x1="36" x2="94" y1="69.9609" y2="69.9609"/><text fill="#000000" font-family="sans-serif" font-size="13" font-weight="bold" lengthAdjust="spacing" textLength="7" x="39" y="65.1045">1</text><text fill="#000000" font-family="sans-serif" font-size="13" lengthAdjust="spacing" textLength="35" x="50" y="65.1045">POST</text><polygon fill="#181818" points="323,96.3125,333,100.3125,323,104.3125,327,100.3125" style="stroke:#181818;stroke-width:1.0;"/><line style="stroke:#181818;stroke-width:1.0;" x1="110" x2="329" y1="100.3125" y2="100.3125"/><text fill="#000000" font-family="sans-serif" font-size="13" font-weight="bold" lengthAdjust="spacing" textLength="7" x="117" y="95.4561">2</text><text fill="#000000" font-family="sans-serif" font-size="13" lengthAdjust="spacing" textLength="112" x="128" y="95.4561">save operation type</text><polygon fill="#181818" points="121,126.6641,111,130.6641,121,134.6641,117,130.6641" style="stroke:#181818;stroke-width:1.0;"/><line style="stroke:#181818;stroke-width:1.0;stroke-dasharray:2.0,2.0;" x1="115" x2="339" y1="130.6641" y2="130.6641"/><text fill="#000000" font-family="sans-serif" font-size="13" font-weight="bold" lengthAdjust="spacing" textLength="7" x="127" y="125.8076">3</text><text fill="#000000" font-family="sans-serif" font-size="13" lengthAdjust="spacing" textLength="82" x="138" y="125.8076">operation type</text><path d="M67,145.6641 L140,145.6641 L140,154.0156 L130,164.0156 L67,164.0156 L67,145.6641 " fill="#EEEEEE" style="stroke:#000000;stroke-width:1.5;"/><rect fill="none" height="109.4063" style="stroke:#000000;stroke-width:1.5;" width="320.5" x="67" y="145.6641"/><text fill="#000000" font-family="sans-serif" font-size="13" font-weight="bold" lengthAdjust="spacing" textLength="28" x="82" y="160.1592">loop</text><text fill="#000000" font-family="sans-serif" font-size="11" font-weight="bold" lengthAdjust="spacing" textLength="131" x="155" y="159.083">[for each specialization]</text><polygon fill="#181818" points="323,182.3672,333,186.3672,323,190.3672,327,186.3672" style="stroke:#181818;stroke-width:1.0;"/><line style="stroke:#181818;stroke-width:1.0;" x1="110" x2="329" y1="186.3672" y2="186.3672"/><text fill="#000000" font-family="sans-serif" font-size="13" font-weight="bold" lengthAdjust="spacing" textLength="7" x="117" y="181.5107">4</text><text fill="#000000" font-family="sans-serif" font-size="13" lengthAdjust="spacing" textLength="101" x="128" y="181.5107">get specialization</text><polygon fill="#181818" points="121,212.7188,111,216.7188,121,220.7188,117,216.7188" style="stroke:#181818;stroke-width:1.0;"/><line style="stroke:#181818;stroke-width:1.0;stroke-dasharray:2.0,2.0;" x1="115" x2="339" y1="216.7188" y2="216.7188"/><text fill="#000000" font-family="sans-serif" font-size="13" font-weight="bold" lengthAdjust="spacing" textLength="7" x="127" y="211.8623">5</text><text fill="#000000" font-family="sans-serif" font-size="13" lengthAdjust="spacing" textLength="79" x="138" y="211.8623">specialization</text><polygon fill="#181818" points="328,243.0703,338,247.0703,328,251.0703,332,247.0703" style="stroke:#181818;stroke-width:1.0;"/><line style="stroke:#181818;stroke-width:1.0;" x1="110" x2="334" y1="247.0703" y2="247.0703"/><text fill="#000000" font-family="sans-serif" font-size="13" font-weight="bold" lengthAdjust="spacing" textLength="7" x="117" y="242.2139">6</text><text fill="#000000" font-family="sans-serif" font-size="13" lengthAdjust="spacing" textLength="195" x="128" y="242.2139">save operation type specialization</text><polygon fill="#181818" points="11,280.4219,1,284.4219,11,288.4219,7,284.4219" style="stroke:#181818;stroke-width:1.0;"/><line style="stroke:#181818;stroke-width:1.0;stroke-dasharray:2.0,2.0;" x1="5" x2="104" y1="284.4219" y2="284.4219"/><text fill="#000000" font-family="sans-serif" font-size="13" font-weight="bold" lengthAdjust="spacing" textLength="7" x="17" y="279.5654">7</text><text fill="#000000" font-family="sans-serif" font-size="13" lengthAdjust="spacing" textLength="70" x="28" y="279.5654">201 Created</text><!--SRC=[bP5D2i8m48NtSugX-uAw5D65xXNg1QRjg87QX6HQqDCRqbzBAvX5c91ltdkJK2Mwh9ufMm13LbIc39M2KSAsPXiXEMpAx-iJ2QNaE03T0U2WuttBunOlv-IA09I9gacu4mBqguKytdNx1aSrepPiIPGkKLw60nosNcQmmtRr4l7OVY8Kw9mNP0gj3TwqHGyyq1dE51Ng7Ve7ezdKTvPfGyVtnO_momCifLWSuf-7dOlCPOwDqYwEXnoRrHgFbhrV3Z0oR__p0m00]--></g></svg>