<?xml version="1.0" encoding="us-ascii" standalone="no"?><svg xmlns="http://www.w3.org/2000/svg" xmlns:xlink="http://www.w3.org/1999/xlink" contentStyleType="text/css" height="786px" preserveAspectRatio="none" style="width:2801px;height:786px;background:#FFFFFF;" version="1.1" viewBox="0 0 2801 786" width="2801px" zoomAndPan="magnify"><defs/><g><rect fill="#FFFFFF" height="574.6797" style="stroke:#181818;stroke-width:1.0;" width="10" x="47.5" y="96.2188"/><rect fill="#FFFFFF" height="552.3281" style="stroke:#181818;stroke-width:1.0;" width="10" x="236.5" y="118.5703"/><rect fill="#FFFFFF" height="491.625" style="stroke:#181818;stroke-width:1.0;" width="10" x="494.5" y="148.9219"/><rect fill="#FFFFFF" height="30.3516" style="stroke:#181818;stroke-width:1.0;" width="10" x="1749.5" y="179.2734"/><rect fill="#FFFFFF" height="30.3516" style="stroke:#181818;stroke-width:1.0;" width="10" x="1879.5" y="579.8438"/><rect fill="#FFFFFF" height="30.3516" style="stroke:#181818;stroke-width:1.0;" width="10" x="2052.5" y="474.7891"/><rect fill="#FFFFFF" height="30.3516" style="stroke:#181818;stroke-width:1.0;" width="10" x="2246" y="239.9766"/><rect fill="#FFFFFF" height="30.3516" style="stroke:#181818;stroke-width:1.0;" width="10" x="2422" y="326.0313"/><rect fill="none" height="265.1641" style="stroke:#000000;stroke-width:1.5;" width="2785" x="10" y="285.3281"/><rect fill="none" height="172.1094" style="stroke:#000000;stroke-width:1.5;" width="2765" x="20" y="371.3828"/><line style="stroke:#181818;stroke-width:0.5;stroke-dasharray:5.0,5.0;" x1="52" x2="52" y1="86.2188" y2="688.8984"/><line style="stroke:#181818;stroke-width:0.5;stroke-dasharray:5.0,5.0;" x1="241.5" x2="241.5" y1="86.2188" y2="688.8984"/><line style="stroke:#181818;stroke-width:0.5;stroke-dasharray:5.0,5.0;" x1="499.5" x2="499.5" y1="86.2188" y2="688.8984"/><line style="stroke:#181818;stroke-width:0.5;stroke-dasharray:5.0,5.0;" x1="1754" x2="1754" y1="86.2188" y2="688.8984"/><line style="stroke:#181818;stroke-width:0.5;stroke-dasharray:5.0,5.0;" x1="1884" x2="1884" y1="86.2188" y2="688.8984"/><line style="stroke:#181818;stroke-width:0.5;stroke-dasharray:5.0,5.0;" x1="2057" x2="2057" y1="86.2188" y2="688.8984"/><line style="stroke:#181818;stroke-width:0.5;stroke-dasharray:5.0,5.0;" x1="2251" x2="2251" y1="86.2188" y2="688.8984"/><line style="stroke:#181818;stroke-width:0.5;stroke-dasharray:5.0,5.0;" x1="2427" x2="2427" y1="86.2188" y2="688.8984"/><line style="stroke:#181818;stroke-width:0.5;stroke-dasharray:5.0,5.0;" x1="2646" x2="2646" y1="86.2188" y2="688.8984"/><text fill="#000000" font-family="sans-serif" font-size="14" lengthAdjust="spacing" textLength="39" x="30" y="83.1426">Admin</text><ellipse cx="52.5" cy="17.1094" fill="#E2E2F0" rx="8" ry="8" style="stroke:#181818;stroke-width:0.5;"/><path d="M52.5,25.1094 L52.5,52.1094 M39.5,33.1094 L65.5,33.1094 M52.5,52.1094 L39.5,67.1094 M52.5,52.1094 L65.5,67.1094 " fill="none" style="stroke:#181818;stroke-width:0.5;"/><text fill="#000000" font-family="sans-serif" font-size="14" lengthAdjust="spacing" textLength="39" x="30" y="702.4316">Admin</text><ellipse cx="52.5" cy="714.0078" fill="#E2E2F0" rx="8" ry="8" style="stroke:#181818;stroke-width:0.5;"/><path d="M52.5,722.0078 L52.5,749.0078 M39.5,730.0078 L65.5,730.0078 M52.5,749.0078 L39.5,764.0078 M52.5,749.0078 L65.5,764.0078 " fill="none" style="stroke:#181818;stroke-width:0.5;"/><rect fill="#E2E2F0" height="49.2188" rx="2.5" ry="2.5" style="stroke:#181818;stroke-width:0.5;" width="178" x="152.5" y="36"/><text fill="#000000" font-family="sans-serif" font-size="14" font-style="italic" lengthAdjust="spacing" textLength="78" x="202.5" y="57.5332">&#171;Controller&#187;</text><text fill="#000000" font-family="sans-serif" font-size="14" lengthAdjust="spacing" textLength="164" x="159.5" y="75.1426">OperationTypesController</text><rect fill="#E2E2F0" height="49.2188" rx="2.5" ry="2.5" style="stroke:#181818;stroke-width:0.5;" width="178" x="152.5" y="687.8984"/><text fill="#000000" font-family="sans-serif" font-size="14" font-style="italic" lengthAdjust="spacing" textLength="78" x="202.5" y="709.4316">&#171;Controller&#187;</text><text fill="#000000" font-family="sans-serif" font-size="14" lengthAdjust="spacing" textLength="164" x="159.5" y="727.041">OperationTypesController</text><rect fill="#E2E2F0" height="49.2188" rx="2.5" ry="2.5" style="stroke:#181818;stroke-width:0.5;" width="156" x="421.5" y="36"/><text fill="#000000" font-family="sans-serif" font-size="14" font-style="italic" lengthAdjust="spacing" textLength="62" x="468.5" y="57.5332">&#171;Service&#187;</text><text fill="#000000" font-family="sans-serif" font-size="14" lengthAdjust="spacing" textLength="142" x="428.5" y="75.1426">OperationTypeService</text><rect fill="#E2E2F0" height="49.2188" rx="2.5" ry="2.5" style="stroke:#181818;stroke-width:0.5;" width="156" x="421.5" y="687.8984"/><text fill="#000000" font-family="sans-serif" font-size="14" font-style="italic" lengthAdjust="spacing" textLength="62" x="468.5" y="709.4316">&#171;Service&#187;</text><text fill="#000000" font-family="sans-serif" font-size="14" lengthAdjust="spacing" textLength="142" x="428.5" y="727.041">OperationTypeService</text><rect fill="#E2E2F0" height="49.2188" rx="2.5" ry="2.5" style="stroke:#181818;stroke-width:0.5;" width="109" x="1700" y="36"/><text fill="#000000" font-family="sans-serif" font-size="14" font-style="italic" lengthAdjust="spacing" textLength="64" x="1722.5" y="57.5332">&#171;Domain&#187;</text><text fill="#000000" font-family="sans-serif" font-size="14" lengthAdjust="spacing" textLength="95" x="1707" y="75.1426">OperationType</text><rect fill="#E2E2F0" height="49.2188" rx="2.5" ry="2.5" style="stroke:#181818;stroke-width:0.5;" width="109" x="1700" y="687.8984"/><text fill="#000000" font-family="sans-serif" font-size="14" font-style="italic" lengthAdjust="spacing" textLength="64" x="1722.5" y="709.4316">&#171;Domain&#187;</text><text fill="#000000" font-family="sans-serif" font-size="14" lengthAdjust="spacing" textLength="95" x="1707" y="727.041">OperationType</text><rect fill="#E2E2F0" height="49.2188" rx="2.5" ry="2.5" style="stroke:#181818;stroke-width:0.5;" width="131" x="1819" y="36"/><text fill="#000000" font-family="sans-serif" font-size="14" font-style="italic" lengthAdjust="spacing" textLength="64" x="1852.5" y="57.5332">&#171;Domain&#187;</text><text fill="#000000" font-family="sans-serif" font-size="14" lengthAdjust="spacing" textLength="117" x="1826" y="75.1426">OperationTypeDto</text><rect fill="#E2E2F0" height="49.2188" rx="2.5" ry="2.5" style="stroke:#181818;stroke-width:0.5;" width="131" x="1819" y="687.8984"/><text fill="#000000" font-family="sans-serif" font-size="14" font-style="italic" lengthAdjust="spacing" textLength="64" x="1852.5" y="709.4316">&#171;Domain&#187;</text><text fill="#000000" font-family="sans-serif" font-size="14" lengthAdjust="spacing" textLength="117" x="1826" y="727.041">OperationTypeDto</text><rect fill="#E2E2F0" height="49.2188" rx="2.5" ry="2.5" style="stroke:#181818;stroke-width:0.5;" width="195" x="1960" y="36"/><text fill="#000000" font-family="sans-serif" font-size="14" font-style="italic" lengthAdjust="spacing" textLength="64" x="2025.5" y="57.5332">&#171;Domain&#187;</text><text fill="#000000" font-family="sans-serif" font-size="14" lengthAdjust="spacing" textLength="181" x="1967" y="75.1426">OperationTypeSpecialization</text><rect fill="#E2E2F0" height="49.2188" rx="2.5" ry="2.5" style="stroke:#181818;stroke-width:0.5;" width="195" x="1960" y="687.8984"/><text fill="#000000" font-family="sans-serif" font-size="14" font-style="italic" lengthAdjust="spacing" textLength="64" x="2025.5" y="709.4316">&#171;Domain&#187;</text><text fill="#000000" font-family="sans-serif" font-size="14" lengthAdjust="spacing" textLength="181" x="1967" y="727.041">OperationTypeSpecialization</text><text fill="#000000" font-family="sans-serif" font-size="14" font-style="italic" lengthAdjust="spacing" textLength="64" x="2216" y="65.5332">&#171;Domain&#187;</text><text fill="#000000" font-family="sans-serif" font-size="14" lengthAdjust="spacing" textLength="166" x="2165" y="83.1426">IOperationTypeRepository</text><path d="M2233,15 C2233,5 2251,5 2251,5 C2251,5 2269,5 2269,15 L2269,41 C2269,51 2251,51 2251,51 C2251,51 2233,51 2233,41 L2233,15 " fill="#E2E2F0" style="stroke:#181818;stroke-width:1.5;"/><path d="M2233,15 C2233,25 2251,25 2251,25 C2251,25 2269,25 2269,15 " fill="none" style="stroke:#181818;stroke-width:1.5;"/><text fill="#000000" font-family="sans-serif" font-size="14" font-style="italic" lengthAdjust="spacing" textLength="64" x="2216" y="702.4316">&#171;Domain&#187;</text><text fill="#000000" font-family="sans-serif" font-size="14" lengthAdjust="spacing" textLength="166" x="2165" y="720.041">IOperationTypeRepository</text><path d="M2233,733.1172 C2233,723.1172 2251,723.1172 2251,723.1172 C2251,723.1172 2269,723.1172 2269,733.1172 L2269,759.1172 C2269,769.1172 2251,769.1172 2251,769.1172 C2251,769.1172 2233,769.1172 2233,759.1172 L2233,733.1172 " fill="#E2E2F0" style="stroke:#181818;stroke-width:1.5;"/><path d="M2233,733.1172 C2233,743.1172 2251,743.1172 2251,743.1172 C2251,743.1172 2269,743.1172 2269,733.1172 " fill="none" style="stroke:#181818;stroke-width:1.5;"/><text fill="#000000" font-family="sans-serif" font-size="14" font-style="italic" lengthAdjust="spacing" textLength="64" x="2392" y="65.5332">&#171;Domain&#187;</text><text fill="#000000" font-family="sans-serif" font-size="14" lengthAdjust="spacing" textLength="154" x="2347" y="83.1426">SpecializationRepository</text><path d="M2409,15 C2409,5 2427,5 2427,5 C2427,5 2445,5 2445,15 L2445,41 C2445,51 2427,51 2427,51 C2427,51 2409,51 2409,41 L2409,15 " fill="#E2E2F0" style="stroke:#181818;stroke-width:1.5;"/><path d="M2409,15 C2409,25 2427,25 2427,25 C2427,25 2445,25 2445,15 " fill="none" style="stroke:#181818;stroke-width:1.5;"/><text fill="#000000" font-family="sans-serif" font-size="14" font-style="italic" lengthAdjust="spacing" textLength="64" x="2392" y="702.4316">&#171;Domain&#187;</text><text fill="#000000" font-family="sans-serif" font-size="14" lengthAdjust="spacing" textLength="154" x="2347" y="720.041">SpecializationRepository</text><path d="M2409,733.1172 C2409,723.1172 2427,723.1172 2427,723.1172 C2427,723.1172 2445,723.1172 2445,733.1172 L2445,759.1172 C2445,769.1172 2427,769.1172 2427,769.1172 C2427,769.1172 2409,769.1172 2409,759.1172 L2409,733.1172 " fill="#E2E2F0" style="stroke:#181818;stroke-width:1.5;"/><path d="M2409,733.1172 C2409,743.1172 2427,743.1172 2427,743.1172 C2427,743.1172 2445,743.1172 2445,733.1172 " fill="none" style="stroke:#181818;stroke-width:1.5;"/><text fill="#000000" font-family="sans-serif" font-size="14" font-style="italic" lengthAdjust="spacing" textLength="64" x="2611" y="65.5332">&#171;Domain&#187;</text><text fill="#000000" font-family="sans-serif" font-size="14" lengthAdjust="spacing" textLength="252" x="2517" y="83.1426">IOperationTypeSpecializationRepository</text><path d="M2628,15 C2628,5 2646,5 2646,5 C2646,5 2664,5 2664,15 L2664,41 C2664,51 2646,51 2646,51 C2646,51 2628,51 2628,41 L2628,15 " fill="#E2E2F0" style="stroke:#181818;stroke-width:1.5;"/><path d="M2628,15 C2628,25 2646,25 2646,25 C2646,25 2664,25 2664,15 " fill="none" style="stroke:#181818;stroke-width:1.5;"/><text fill="#000000" font-family="sans-serif" font-size="14" font-style="italic" lengthAdjust="spacing" textLength="64" x="2611" y="702.4316">&#171;Domain&#187;</text><text fill="#000000" font-family="sans-serif" font-size="14" lengthAdjust="spacing" textLength="252" x="2517" y="720.041">IOperationTypeSpecializationRepository</text><path d="M2628,733.1172 C2628,723.1172 2646,723.1172 2646,723.1172 C2646,723.1172 2664,723.1172 2664,733.1172 L2664,759.1172 C2664,769.1172 2646,769.1172 2646,769.1172 C2646,769.1172 2628,769.1172 2628,759.1172 L2628,733.1172 " fill="#E2E2F0" style="stroke:#181818;stroke-width:1.5;"/><path d="M2628,733.1172 C2628,743.1172 2646,743.1172 2646,743.1172 C2646,743.1172 2664,743.1172 2664,733.1172 " fill="none" style="stroke:#181818;stroke-width:1.5;"/><rect fill="#FFFFFF" height="574.6797" style="stroke:#181818;stroke-width:1.0;" width="10" x="47.5" y="96.2188"/><rect fill="#FFFFFF" height="552.3281" style="stroke:#181818;stroke-width:1.0;" width="10" x="236.5" y="118.5703"/><rect fill="#FFFFFF" height="491.625" style="stroke:#181818;stroke-width:1.0;" width="10" x="494.5" y="148.9219"/><rect fill="#FFFFFF" height="30.3516" style="stroke:#181818;stroke-width:1.0;" width="10" x="1749.5" y="179.2734"/><rect fill="#FFFFFF" height="30.3516" style="stroke:#181818;stroke-width:1.0;" width="10" x="1879.5" y="579.8438"/><rect fill="#FFFFFF" height="30.3516" style="stroke:#181818;stroke-width:1.0;" width="10" x="2052.5" y="474.7891"/><rect fill="#FFFFFF" height="30.3516" style="stroke:#181818;stroke-width:1.0;" width="10" x="2246" y="239.9766"/><rect fill="#FFFFFF" height="30.3516" style="stroke:#181818;stroke-width:1.0;" width="10" x="2422" y="326.0313"/><polygon fill="#181818" points="224.5,114.5703,234.5,118.5703,224.5,122.5703,228.5,118.5703" style="stroke:#181818;stroke-width:1.0;"/><line style="stroke:#181818;stroke-width:1.0;" x1="57.5" x2="230.5" y1="118.5703" y2="118.5703"/><text fill="#000000" font-family="sans-serif" font-size="13" font-weight="bold" lengthAdjust="spacing" textLength="7" x="64.5" y="113.7139">1</text><text fill="#000000" font-family="sans-serif" font-size="13" lengthAdjust="spacing" textLength="149" x="75.5" y="113.7139">POST /api/operationtypes</text><polygon fill="#181818" points="482.5,144.9219,492.5,148.9219,482.5,152.9219,486.5,148.9219" style="stroke:#181818;stroke-width:1.0;"/><line style="stroke:#181818;stroke-width:1.0;" x1="246.5" x2="488.5" y1="148.9219" y2="148.9219"/><text fill="#000000" font-family="sans-serif" font-size="13" font-weight="bold" lengthAdjust="spacing" textLength="7" x="253.5" y="144.0654">2</text><text fill="#000000" font-family="sans-serif" font-size="13" lengthAdjust="spacing" textLength="218" x="264.5" y="144.0654">AddAsync(creatingOperationTypeDto)</text><polygon fill="#181818" points="1737.5,175.2734,1747.5,179.2734,1737.5,183.2734,1741.5,179.2734" style="stroke:#181818;stroke-width:1.0;"/><line style="stroke:#181818;stroke-width:1.0;" x1="504.5" x2="1743.5" y1="179.2734" y2="179.2734"/><text fill="#000000" font-family="sans-serif" font-size="13" font-weight="bold" lengthAdjust="spacing" textLength="7" x="511.5" y="174.417">3</text><text fill="#000000" font-family="sans-serif" font-size="13" lengthAdjust="spacing" textLength="1215" x="522.5" y="174.417">create(creatingOperationTypeDto.Name,creatingOperationTypeDto.EstimatedDuration,creatingOperationTypeDto.AnesthesiaTime,creatingOperationTypeDto.CleaningTime,creatingOperationTypeDto.SurgeryTime)</text><polygon fill="#181818" points="515.5,205.625,505.5,209.625,515.5,213.625,511.5,209.625" style="stroke:#181818;stroke-width:1.0;"/><line style="stroke:#181818;stroke-width:1.0;stroke-dasharray:2.0,2.0;" x1="509.5" x2="1753.5" y1="209.625" y2="209.625"/><text fill="#000000" font-family="sans-serif" font-size="13" font-weight="bold" lengthAdjust="spacing" textLength="7" x="521.5" y="204.7686">4</text><text fill="#000000" font-family="sans-serif" font-size="13" lengthAdjust="spacing" textLength="81" x="532.5" y="204.7686">operationType</text><polygon fill="#181818" points="2234,235.9766,2244,239.9766,2234,243.9766,2238,239.9766" style="stroke:#181818;stroke-width:1.0;"/><line style="stroke:#181818;stroke-width:1.0;" x1="504.5" x2="2240" y1="239.9766" y2="239.9766"/><text fill="#000000" font-family="sans-serif" font-size="13" font-weight="bold" lengthAdjust="spacing" textLength="7" x="511.5" y="235.1201">5</text><text fill="#000000" font-family="sans-serif" font-size="13" lengthAdjust="spacing" textLength="149" x="522.5" y="235.1201">AddAsync(operationType)</text><polygon fill="#181818" points="515.5,266.3281,505.5,270.3281,515.5,274.3281,511.5,270.3281" style="stroke:#181818;stroke-width:1.0;"/><line style="stroke:#181818;stroke-width:1.0;stroke-dasharray:2.0,2.0;" x1="509.5" x2="2250" y1="270.3281" y2="270.3281"/><text fill="#000000" font-family="sans-serif" font-size="13" font-weight="bold" lengthAdjust="spacing" textLength="7" x="521.5" y="265.4717">6</text><text fill="#000000" font-family="sans-serif" font-size="13" lengthAdjust="spacing" textLength="81" x="532.5" y="265.4717">operationType</text><path d="M10,285.3281 L83,285.3281 L83,293.6797 L73,303.6797 L10,303.6797 L10,285.3281 " fill="#EEEEEE" style="stroke:#000000;stroke-width:1.5;"/><rect fill="none" height="265.1641" style="stroke:#000000;stroke-width:1.5;" width="2785" x="10" y="285.3281"/><text fill="#000000" font-family="sans-serif" font-size="13" font-weight="bold" lengthAdjust="spacing" textLength="28" x="25" y="299.8232">loop</text><text fill="#000000" font-family="sans-serif" font-size="11" font-weight="bold" lengthAdjust="spacing" textLength="156" x="98" y="298.7471">[for each staffSpecialization]</text><polygon fill="#181818" points="2410,322.0313,2420,326.0313,2410,330.0313,2414,326.0313" style="stroke:#181818;stroke-width:1.0;"/><line style="stroke:#181818;stroke-width:1.0;" x1="504.5" x2="2416" y1="326.0313" y2="326.0313"/><text fill="#000000" font-family="sans-serif" font-size="13" font-weight="bold" lengthAdjust="spacing" textLength="7" x="511.5" y="321.1748">7</text><text fill="#000000" font-family="sans-serif" font-size="13" lengthAdjust="spacing" textLength="181" x="522.5" y="321.1748">GetByIdAsync(specializationId)</text><polygon fill="#181818" points="515.5,352.3828,505.5,356.3828,515.5,360.3828,511.5,356.3828" style="stroke:#181818;stroke-width:1.0;"/><line style="stroke:#181818;stroke-width:1.0;stroke-dasharray:2.0,2.0;" x1="509.5" x2="2426" y1="356.3828" y2="356.3828"/><text fill="#000000" font-family="sans-serif" font-size="13" font-weight="bold" lengthAdjust="spacing" textLength="7" x="521.5" y="351.5264">8</text><text fill="#000000" font-family="sans-serif" font-size="13" lengthAdjust="spacing" textLength="79" x="532.5" y="351.5264">specialization</text><path d="M20,371.3828 L81,371.3828 L81,379.7344 L71,389.7344 L20,389.7344 L20,371.3828 " fill="#EEEEEE" style="stroke:#000000;stroke-width:1.5;"/><rect fill="none" height="172.1094" style="stroke:#000000;stroke-width:1.5;" width="2765" x="20" y="371.3828"/><text fill="#000000" font-family="sans-serif" font-size="13" font-weight="bold" lengthAdjust="spacing" textLength="16" x="35" y="385.8779">alt</text><text fill="#000000" font-family="sans-serif" font-size="11" font-weight="bold" lengthAdjust="spacing" textLength="121" x="96" y="384.8018">[specialization == null]</text><polygon fill="#181818" points="257.5,408.0859,247.5,412.0859,257.5,416.0859,253.5,412.0859" style="stroke:#181818;stroke-width:1.0;"/><line style="stroke:#181818;stroke-width:1.0;stroke-dasharray:2.0,2.0;" x1="251.5" x2="493.5" y1="412.0859" y2="412.0859"/><text fill="#000000" font-family="sans-serif" font-size="13" font-weight="bold" lengthAdjust="spacing" textLength="7" x="263.5" y="407.2295">9</text><text fill="#000000" font-family="sans-serif" font-size="13" lengthAdjust="spacing" textLength="138" x="274.5" y="407.2295">NullReferenceException</text><polygon fill="#181818" points="68.5,438.4375,58.5,442.4375,68.5,446.4375,64.5,442.4375" style="stroke:#181818;stroke-width:1.0;"/><line style="stroke:#181818;stroke-width:1.0;stroke-dasharray:2.0,2.0;" x1="62.5" x2="235.5" y1="442.4375" y2="442.4375"/><text fill="#000000" font-family="sans-serif" font-size="13" font-weight="bold" lengthAdjust="spacing" textLength="14" x="74.5" y="437.5811">10</text><text fill="#000000" font-family="sans-serif" font-size="13" lengthAdjust="spacing" textLength="85" x="92.5" y="437.5811">404 Not Found</text><line style="stroke:#000000;stroke-width:1.0;stroke-dasharray:2.0,2.0;" x1="20" x2="2785" y1="451.4375" y2="451.4375"/><polygon fill="#181818" points="2040.5,470.7891,2050.5,474.7891,2040.5,478.7891,2044.5,474.7891" style="stroke:#181818;stroke-width:1.0;"/><line style="stroke:#181818;stroke-width:1.0;" x1="504.5" x2="2046.5" y1="474.7891" y2="474.7891"/><text fill="#000000" font-family="sans-serif" font-size="13" font-weight="bold" lengthAdjust="spacing" textLength="14" x="511.5" y="469.9326">11</text><text fill="#000000" font-family="sans-serif" font-size="13" lengthAdjust="spacing" textLength="405" x="529.5" y="469.9326">create(operationType,specialization,staffSpecialization.NumberOfStaff)</text><polygon fill="#181818" points="515.5,501.1406,505.5,505.1406,515.5,509.1406,511.5,505.1406" style="stroke:#181818;stroke-width:1.0;"/><line style="stroke:#181818;stroke-width:1.0;stroke-dasharray:2.0,2.0;" x1="509.5" x2="2056.5" y1="505.1406" y2="505.1406"/><text fill="#000000" font-family="sans-serif" font-size="13" font-weight="bold" lengthAdjust="spacing" textLength="14" x="521.5" y="500.2842">12</text><text fill="#000000" font-family="sans-serif" font-size="13" lengthAdjust="spacing" textLength="162" x="539.5" y="500.2842">operationTypeSpecialization</text><polygon fill="#181818" points="2634,531.4922,2644,535.4922,2634,539.4922,2638,535.4922" style="stroke:#181818;stroke-width:1.0;"/><line style="stroke:#181818;stroke-width:1.0;" x1="504.5" x2="2640" y1="535.4922" y2="535.4922"/><text fill="#000000" font-family="sans-serif" font-size="13" font-weight="bold" lengthAdjust="spacing" textLength="14" x="511.5" y="530.6357">13</text><text fill="#000000" font-family="sans-serif" font-size="13" lengthAdjust="spacing" textLength="230" x="529.5" y="530.6357">AddAsync(operationTypeSpecialization)</text><polygon fill="#181818" points="1867.5,575.8438,1877.5,579.8438,1867.5,583.8438,1871.5,579.8438" style="stroke:#181818;stroke-width:1.0;"/><line style="stroke:#181818;stroke-width:1.0;" x1="504.5" x2="1873.5" y1="579.8438" y2="579.8438"/><text fill="#000000" font-family="sans-serif" font-size="13" font-weight="bold" lengthAdjust="spacing" textLength="14" x="511.5" y="574.9873">14</text><text fill="#000000" font-family="sans-serif" font-size="13" lengthAdjust="spacing" textLength="543" x="529.5" y="574.9873">create(OperationTypeId,Name,EstimatedDuration,AnesthesiaTime,CleaningTime,SurgeryTime)</text><polygon fill="#181818" points="515.5,606.1953,505.5,610.1953,515.5,614.1953,511.5,610.1953" style="stroke:#181818;stroke-width:1.0;"/><line style="stroke:#181818;stroke-width:1.0;stroke-dasharray:2.0,2.0;" x1="509.5" x2="1883.5" y1="610.1953" y2="610.1953"/><text fill="#000000" font-family="sans-serif" font-size="13" font-weight="bold" lengthAdjust="spacing" textLength="14" x="521.5" y="605.3389">15</text><text fill="#000000" font-family="sans-serif" font-size="13" lengthAdjust="spacing" textLength="101" x="539.5" y="605.3389">operationTypeDto</text><polygon fill="#181818" points="257.5,636.5469,247.5,640.5469,257.5,644.5469,253.5,640.5469" style="stroke:#181818;stroke-width:1.0;"/><line style="stroke:#181818;stroke-width:1.0;stroke-dasharray:2.0,2.0;" x1="251.5" x2="498.5" y1="640.5469" y2="640.5469"/><text fill="#000000" font-family="sans-serif" font-size="13" font-weight="bold" lengthAdjust="spacing" textLength="14" x="263.5" y="635.6904">16</text><text fill="#000000" font-family="sans-serif" font-size="13" lengthAdjust="spacing" textLength="101" x="281.5" y="635.6904">operationTypeDto</text><polygon fill="#181818" points="63.5,666.8984,53.5,670.8984,63.5,674.8984,59.5,670.8984" style="stroke:#181818;stroke-width:1.0;"/><line style="stroke:#181818;stroke-width:1.0;stroke-dasharray:2.0,2.0;" x1="57.5" x2="240.5" y1="670.8984" y2="670.8984"/><text fill="#000000" font-family="sans-serif" font-size="13" font-weight="bold" lengthAdjust="spacing" textLength="14" x="69.5" y="666.042">17</text><text fill="#000000" font-family="sans-serif" font-size="13" lengthAdjust="spacing" textLength="70" x="87.5" y="666.042">201 Created</text><!--SRC=[dLRRZjiW47ttLw0yDLAobsgVecoaDDcjyf9Kc_m0QuztaMom0A_gVdqnyGMC8MvvmioSCyFSC2ubesN-3ZoAS2mPHxDjaXCwGrWWlOiAp2M9IO6fHBDJ0HnBmkYbAa3i69MSPHbmhTz_elMw_zXi0Xndu5ya1erlzWhSx8983R5E573FSane4BUNp8MgmsdeSm4nmHdveqzS8bjkSYPOudSi0CqE5k8D2YQ82dsbsVhFSR1jO03s2QVu4IIUf6bQgQk9V649JHKXjVHkkJ7hP8L-dSuNT8yBSizQ6xAkhKX3EfOUSnNKo-1Hh6trh9ITP2ig6d-BEIX2-Z5CzRpdw0mqy5vIhvPJqTkLjaAQ6xmcxeuuXuLN-Y8aoHK-sPTNWLzrIq78Jn04NqY8SfS1faeGrZgN_0DuLIlDxRjsaR0mjawzx40ihSWpFpI1AGPQgZhYHc4PERLC-AxGGrt_3Th_STv7dJ5Me5GDKANwYOJ4QMhtYUk9KLtUbbgXdo1_L8VcziBIEoHpbxMlQ0-d2z7E-3omWoHktCc8r7JxE9C3OlJyZ6YPPSZZR1kvuJGvAimRfC21nl3oEuPYtCrk7A7rScbJF3qyeIEJw9MLD76HaAdHwPo6lTm4tuXkbbW5kB03iXYfgBkZVhbFwRcMpSTlETvrjqfpjDa7VWUwPmgzRo1CmPfZOjhJv9iWDc0aXZ0i0kV0b-RwdwBBhIKv90lzFBYlm63OMpFzNqUtidzZUjSU1hBe4FXIvYXw-zFFRmwEuLFiwTJl3uzefyFRPCJWCFyNZEFhpqZq5m00]--></g></svg>