<?xml version="1.0" encoding="us-ascii" standalone="no"?><svg xmlns="http://www.w3.org/2000/svg" xmlns:xlink="http://www.w3.org/1999/xlink" contentStyleType="text/css" height="623px" preserveAspectRatio="none" style="width:1084px;height:623px;background:#FFFFFF;" version="1.1" viewBox="0 0 1084 623" width="1084px" zoomAndPan="magnify"><defs/><g><rect fill="#ADD8E6" height="611.9688" style="stroke:#181818;stroke-width:0.5;" width="722" x="157.5" y="6"/><text fill="#000000" font-family="sans-serif" font-size="13" font-weight="bold" lengthAdjust="spacing" textLength="85" x="476" y="19.4951">&#171;system (C4)&#187;</text><text fill="#000000" font-family="sans-serif" font-size="13" font-weight="bold" lengthAdjust="spacing" textLength="57" x="490" y="35.8467">Frontend</text><rect fill="#DDDDDD" height="611.9688" style="stroke:#181818;stroke-width:0.5;" width="197" x="881.5" y="6"/><text fill="#000000" font-family="sans-serif" font-size="13" font-weight="bold" lengthAdjust="spacing" textLength="85" x="937.5" y="19.4951">&#171;system (C4)&#187;</text><text fill="#000000" font-family="sans-serif" font-size="13" font-weight="bold" lengthAdjust="spacing" textLength="175" x="892.5" y="35.8467">Backend Data Management</text><rect fill="#FFFFFF" height="416.4375" style="stroke:#181818;stroke-width:1.0;" width="10" x="22.5" y="102.9219"/><rect fill="#FFFFFF" height="30.3516" style="stroke:#181818;stroke-width:1.0;" width="10" x="222.5" y="125.2734"/><rect fill="#FFFFFF" height="333.3828" style="stroke:#181818;stroke-width:1.0;" width="10" x="222.5" y="185.9766"/><rect fill="#FFFFFF" height="272.6797" style="stroke:#181818;stroke-width:1.0;" width="10" x="364.5" y="216.3281"/><rect fill="#FFFFFF" height="151.7578" style="stroke:#181818;stroke-width:1.0;" width="10" x="648.5" y="306.8984"/><rect fill="#FFFFFF" height="91.0547" style="stroke:#181818;stroke-width:1.0;" width="10" x="804.5" y="337.25"/><rect fill="#FFFFFF" height="30.3516" style="stroke:#181818;stroke-width:1.0;" width="10" x="975" y="367.6016"/><line style="stroke:#181818;stroke-width:0.5;stroke-dasharray:5.0,5.0;" x1="27" x2="27" y1="92.9219" y2="537.3594"/><line style="stroke:#181818;stroke-width:0.5;stroke-dasharray:5.0,5.0;" x1="227.5" x2="227.5" y1="92.9219" y2="537.3594"/><line style="stroke:#181818;stroke-width:0.5;stroke-dasharray:5.0,5.0;" x1="369.5" x2="369.5" y1="92.9219" y2="537.3594"/><line style="stroke:#181818;stroke-width:0.5;stroke-dasharray:5.0,5.0;" x1="511.5" x2="511.5" y1="264.4375" y2="537.3594"/><line style="stroke:#181818;stroke-width:0.5;stroke-dasharray:5.0,5.0;" x1="653.5" x2="653.5" y1="92.9219" y2="537.3594"/><line style="stroke:#181818;stroke-width:0.5;stroke-dasharray:5.0,5.0;" x1="809.5" x2="809.5" y1="92.9219" y2="537.3594"/><line style="stroke:#181818;stroke-width:0.5;stroke-dasharray:5.0,5.0;" x1="979.5" x2="979.5" y1="92.9219" y2="537.3594"/><text fill="#000000" font-family="sans-serif" font-size="14" lengthAdjust="spacing" textLength="39" x="5" y="89.8457">Admin</text><ellipse cx="27.5" cy="23.8125" fill="#E2E2F0" rx="8" ry="8" style="stroke:#181818;stroke-width:0.5;"/><path d="M27.5,31.8125 L27.5,58.8125 M14.5,39.8125 L40.5,39.8125 M27.5,58.8125 L14.5,73.8125 M27.5,58.8125 L40.5,73.8125 " fill="none" style="stroke:#181818;stroke-width:0.5;"/><text fill="#000000" font-family="sans-serif" font-size="14" lengthAdjust="spacing" textLength="39" x="5" y="550.8926">Admin</text><ellipse cx="27.5" cy="562.4688" fill="#E2E2F0" rx="8" ry="8" style="stroke:#181818;stroke-width:0.5;"/><path d="M27.5,570.4688 L27.5,597.4688 M14.5,578.4688 L40.5,578.4688 M27.5,597.4688 L14.5,612.4688 M27.5,597.4688 L40.5,612.4688 " fill="none" style="stroke:#181818;stroke-width:0.5;"/><rect fill="#E2E2F0" height="49.2188" rx="2.5" ry="2.5" style="stroke:#181818;stroke-width:0.5;" width="132" x="161.5" y="42.7031"/><text fill="#000000" font-family="sans-serif" font-size="14" font-style="italic" lengthAdjust="spacing" textLength="118" x="168.5" y="64.2363">&#171;component (C4)&#187;</text><text fill="#000000" font-family="sans-serif" font-size="14" lengthAdjust="spacing" textLength="89" x="183" y="81.8457">UI Component</text><rect fill="#E2E2F0" height="49.2188" rx="2.5" ry="2.5" style="stroke:#181818;stroke-width:0.5;" width="132" x="161.5" y="536.3594"/><text fill="#000000" font-family="sans-serif" font-size="14" font-style="italic" lengthAdjust="spacing" textLength="118" x="168.5" y="557.8926">&#171;component (C4)&#187;</text><text fill="#000000" font-family="sans-serif" font-size="14" lengthAdjust="spacing" textLength="89" x="183" y="575.502">UI Component</text><rect fill="#E2E2F0" height="49.2188" rx="2.5" ry="2.5" style="stroke:#181818;stroke-width:0.5;" width="132" x="303.5" y="42.7031"/><text fill="#000000" font-family="sans-serif" font-size="14" font-style="italic" lengthAdjust="spacing" textLength="118" x="310.5" y="64.2363">&#171;component (C4)&#187;</text><text fill="#000000" font-family="sans-serif" font-size="14" lengthAdjust="spacing" textLength="73" x="333" y="81.8457">Component</text><rect fill="#E2E2F0" height="49.2188" rx="2.5" ry="2.5" style="stroke:#181818;stroke-width:0.5;" width="132" x="303.5" y="536.3594"/><text fill="#000000" font-family="sans-serif" font-size="14" font-style="italic" lengthAdjust="spacing" textLength="118" x="310.5" y="557.8926">&#171;component (C4)&#187;</text><text fill="#000000" font-family="sans-serif" font-size="14" lengthAdjust="spacing" textLength="73" x="333" y="575.502">Component</text><rect fill="#E2E2F0" height="49.2188" rx="2.5" ry="2.5" style="stroke:#181818;stroke-width:0.5;" width="132" x="445.5" y="536.3594"/><text fill="#000000" font-family="sans-serif" font-size="14" font-style="italic" lengthAdjust="spacing" textLength="118" x="452.5" y="557.8926">&#171;component (C4)&#187;</text><text fill="#000000" font-family="sans-serif" font-size="14" lengthAdjust="spacing" textLength="38" x="492.5" y="575.502">Model</text><rect fill="#E2E2F0" height="49.2188" rx="2.5" ry="2.5" style="stroke:#181818;stroke-width:0.5;" width="132" x="587.5" y="42.7031"/><text fill="#000000" font-family="sans-serif" font-size="14" font-style="italic" lengthAdjust="spacing" textLength="118" x="594.5" y="64.2363">&#171;component (C4)&#187;</text><text fill="#000000" font-family="sans-serif" font-size="14" lengthAdjust="spacing" textLength="47" x="630" y="81.8457">Service</text><rect fill="#E2E2F0" height="49.2188" rx="2.5" ry="2.5" style="stroke:#181818;stroke-width:0.5;" width="132" x="587.5" y="536.3594"/><text fill="#000000" font-family="sans-serif" font-size="14" font-style="italic" lengthAdjust="spacing" textLength="118" x="594.5" y="557.8926">&#171;component (C4)&#187;</text><text fill="#000000" font-family="sans-serif" font-size="14" lengthAdjust="spacing" textLength="47" x="630" y="575.502">Service</text><rect fill="#E2E2F0" height="49.2188" rx="2.5" ry="2.5" style="stroke:#181818;stroke-width:0.5;" width="132" x="743.5" y="42.7031"/><text fill="#000000" font-family="sans-serif" font-size="14" font-style="italic" lengthAdjust="spacing" textLength="118" x="750.5" y="64.2363">&#171;component (C4)&#187;</text><text fill="#000000" font-family="sans-serif" font-size="14" lengthAdjust="spacing" textLength="36" x="791.5" y="81.8457">HTTP</text><rect fill="#E2E2F0" height="49.2188" rx="2.5" ry="2.5" style="stroke:#181818;stroke-width:0.5;" width="132" x="743.5" y="536.3594"/><text fill="#000000" font-family="sans-serif" font-size="14" font-style="italic" lengthAdjust="spacing" textLength="118" x="750.5" y="557.8926">&#171;component (C4)&#187;</text><text fill="#000000" font-family="sans-serif" font-size="14" lengthAdjust="spacing" textLength="36" x="791.5" y="575.502">HTTP</text><rect fill="#E2E2F0" height="49.2188" rx="2.5" ry="2.5" style="stroke:#181818;stroke-width:0.5;" width="189" x="885.5" y="42.7031"/><text fill="#000000" font-family="sans-serif" font-size="14" font-style="italic" lengthAdjust="spacing" textLength="118" x="921" y="64.2363">&#171;component (C4)&#187;</text><text fill="#000000" font-family="sans-serif" font-size="14" lengthAdjust="spacing" textLength="175" x="892.5" y="81.8457">Backend Data Management</text><rect fill="#E2E2F0" height="49.2188" rx="2.5" ry="2.5" style="stroke:#181818;stroke-width:0.5;" width="189" x="885.5" y="536.3594"/><text fill="#000000" font-family="sans-serif" font-size="14" font-style="italic" lengthAdjust="spacing" textLength="118" x="921" y="557.8926">&#171;component (C4)&#187;</text><text fill="#000000" font-family="sans-serif" font-size="14" lengthAdjust="spacing" textLength="175" x="892.5" y="575.502">Backend Data Management</text><rect fill="#FFFFFF" height="416.4375" style="stroke:#181818;stroke-width:1.0;" width="10" x="22.5" y="102.9219"/><rect fill="#FFFFFF" height="30.3516" style="stroke:#181818;stroke-width:1.0;" width="10" x="222.5" y="125.2734"/><rect fill="#FFFFFF" height="333.3828" style="stroke:#181818;stroke-width:1.0;" width="10" x="222.5" y="185.9766"/><rect fill="#FFFFFF" height="272.6797" style="stroke:#181818;stroke-width:1.0;" width="10" x="364.5" y="216.3281"/><rect fill="#FFFFFF" height="151.7578" style="stroke:#181818;stroke-width:1.0;" width="10" x="648.5" y="306.8984"/><rect fill="#FFFFFF" height="91.0547" style="stroke:#181818;stroke-width:1.0;" width="10" x="804.5" y="337.25"/><rect fill="#FFFFFF" height="30.3516" style="stroke:#181818;stroke-width:1.0;" width="10" x="975" y="367.6016"/><polygon fill="#181818" points="210.5,121.2734,220.5,125.2734,210.5,129.2734,214.5,125.2734" style="stroke:#181818;stroke-width:1.0;"/><line style="stroke:#181818;stroke-width:1.0;" x1="32.5" x2="216.5" y1="125.2734" y2="125.2734"/><text fill="#000000" font-family="sans-serif" font-size="13" font-weight="bold" lengthAdjust="spacing" textLength="7" x="42" y="120.417">1</text><text fill="#000000" font-family="sans-serif" font-size="13" lengthAdjust="spacing" textLength="160" x="53" y="120.417">asks to edit a patient profile</text><polygon fill="#181818" points="43.5,151.625,33.5,155.625,43.5,159.625,39.5,155.625" style="stroke:#181818;stroke-width:1.0;"/><line style="stroke:#181818;stroke-width:1.0;stroke-dasharray:2.0,2.0;" x1="37.5" x2="226.5" y1="155.625" y2="155.625"/><text fill="#000000" font-family="sans-serif" font-size="13" font-weight="bold" lengthAdjust="spacing" textLength="7" x="72.5" y="150.7686">2</text><text fill="#000000" font-family="sans-serif" font-size="13" lengthAdjust="spacing" textLength="104" x="83.5" y="150.7686">asks to input data</text><polygon fill="#181818" points="210.5,181.9766,220.5,185.9766,210.5,189.9766,214.5,185.9766" style="stroke:#181818;stroke-width:1.0;"/><line style="stroke:#181818;stroke-width:1.0;" x1="32.5" x2="216.5" y1="185.9766" y2="185.9766"/><text fill="#000000" font-family="sans-serif" font-size="13" font-weight="bold" lengthAdjust="spacing" textLength="7" x="90" y="181.1201">3</text><text fill="#000000" font-family="sans-serif" font-size="13" lengthAdjust="spacing" textLength="64" x="101" y="181.1201">inputs data</text><polygon fill="#181818" points="352.5,212.3281,362.5,216.3281,352.5,220.3281,356.5,216.3281" style="stroke:#181818;stroke-width:1.0;"/><line style="stroke:#181818;stroke-width:1.0;" x1="232.5" x2="358.5" y1="216.3281" y2="216.3281"/><text fill="#000000" font-family="sans-serif" font-size="13" font-weight="bold" lengthAdjust="spacing" textLength="7" x="242" y="211.4717">4</text><text fill="#000000" font-family="sans-serif" font-size="13" lengthAdjust="spacing" textLength="102" x="253" y="211.4717">edit patient profile</text><polygon fill="#181818" points="433.5,242.6797,443.5,246.6797,433.5,250.6797,437.5,246.6797" style="stroke:#181818;stroke-width:1.0;"/><line style="stroke:#181818;stroke-width:1.0;" x1="374.5" x2="439.5" y1="246.6797" y2="246.6797"/><text fill="#000000" font-family="sans-serif" font-size="13" font-weight="bold" lengthAdjust="spacing" textLength="7" x="386.5" y="241.8232">5</text><text fill="#000000" font-family="sans-serif" font-size="13" lengthAdjust="spacing" textLength="36" x="397.5" y="241.8232">create</text><rect fill="#E2E2F0" height="49.2188" rx="2.5" ry="2.5" style="stroke:#181818;stroke-width:0.5;" width="132" x="445.5" y="224.3281"/><text fill="#000000" font-family="sans-serif" font-size="14" font-style="italic" lengthAdjust="spacing" textLength="118" x="452.5" y="245.8613">&#171;component (C4)&#187;</text><text fill="#000000" font-family="sans-serif" font-size="14" lengthAdjust="spacing" textLength="38" x="492.5" y="263.4707">Model</text><polygon fill="#181818" points="636.5,302.8984,646.5,306.8984,636.5,310.8984,640.5,306.8984" style="stroke:#181818;stroke-width:1.0;"/><line style="stroke:#181818;stroke-width:1.0;" x1="374.5" x2="642.5" y1="306.8984" y2="306.8984"/><text fill="#000000" font-family="sans-serif" font-size="13" font-weight="bold" lengthAdjust="spacing" textLength="7" x="455" y="302.042">6</text><text fill="#000000" font-family="sans-serif" font-size="13" lengthAdjust="spacing" textLength="102" x="466" y="302.042">edit patient profile</text><polygon fill="#181818" points="792.5,333.25,802.5,337.25,792.5,341.25,796.5,337.25" style="stroke:#181818;stroke-width:1.0;"/><line style="stroke:#181818;stroke-width:1.0;" x1="658.5" x2="798.5" y1="337.25" y2="337.25"/><text fill="#000000" font-family="sans-serif" font-size="13" font-weight="bold" lengthAdjust="spacing" textLength="7" x="668" y="332.3936">7</text><text fill="#000000" font-family="sans-serif" font-size="13" lengthAdjust="spacing" textLength="116" x="679" y="332.3936">patch('/patients/{id}')</text><polygon fill="#181818" points="963,363.6016,973,367.6016,963,371.6016,967,367.6016" style="stroke:#181818;stroke-width:1.0;"/><line style="stroke:#181818;stroke-width:1.0;" x1="814.5" x2="969" y1="367.6016" y2="367.6016"/><text fill="#000000" font-family="sans-serif" font-size="13" font-weight="bold" lengthAdjust="spacing" textLength="7" x="829.75" y="362.7451">8</text><text fill="#000000" font-family="sans-serif" font-size="13" lengthAdjust="spacing" textLength="119" x="840.75" y="362.7451">PATCH /patients/{id}</text><polygon fill="#181818" points="825.5,393.9531,815.5,397.9531,825.5,401.9531,821.5,397.9531" style="stroke:#181818;stroke-width:1.0;"/><line style="stroke:#181818;stroke-width:1.0;stroke-dasharray:2.0,2.0;" x1="819.5" x2="979" y1="397.9531" y2="397.9531"/><text fill="#000000" font-family="sans-serif" font-size="13" font-weight="bold" lengthAdjust="spacing" textLength="7" x="855.75" y="393.0967">9</text><text fill="#000000" font-family="sans-serif" font-size="13" lengthAdjust="spacing" textLength="72" x="866.75" y="393.0967">200 (patient)</text><polygon fill="#181818" points="669.5,424.3047,659.5,428.3047,669.5,432.3047,665.5,428.3047" style="stroke:#181818;stroke-width:1.0;"/><line style="stroke:#181818;stroke-width:1.0;stroke-dasharray:2.0,2.0;" x1="663.5" x2="808.5" y1="428.3047" y2="428.3047"/><text fill="#000000" font-family="sans-serif" font-size="13" font-weight="bold" lengthAdjust="spacing" textLength="14" x="705.5" y="423.4482">10</text><text fill="#000000" font-family="sans-serif" font-size="13" lengthAdjust="spacing" textLength="39" x="723.5" y="423.4482">patient</text><polygon fill="#181818" points="385.5,454.6563,375.5,458.6563,385.5,462.6563,381.5,458.6563" style="stroke:#181818;stroke-width:1.0;"/><line style="stroke:#181818;stroke-width:1.0;stroke-dasharray:2.0,2.0;" x1="379.5" x2="652.5" y1="458.6563" y2="458.6563"/><text fill="#000000" font-family="sans-serif" font-size="13" font-weight="bold" lengthAdjust="spacing" textLength="14" x="485.5" y="453.7998">11</text><text fill="#000000" font-family="sans-serif" font-size="13" lengthAdjust="spacing" textLength="39" x="503.5" y="453.7998">patient</text><polygon fill="#181818" points="243.5,485.0078,233.5,489.0078,243.5,493.0078,239.5,489.0078" style="stroke:#181818;stroke-width:1.0;"/><line style="stroke:#181818;stroke-width:1.0;stroke-dasharray:2.0,2.0;" x1="237.5" x2="368.5" y1="489.0078" y2="489.0078"/><text fill="#000000" font-family="sans-serif" font-size="13" font-weight="bold" lengthAdjust="spacing" textLength="14" x="272.5" y="484.1514">12</text><text fill="#000000" font-family="sans-serif" font-size="13" lengthAdjust="spacing" textLength="39" x="290.5" y="484.1514">patient</text><polygon fill="#181818" points="38.5,515.3594,28.5,519.3594,38.5,523.3594,34.5,519.3594" style="stroke:#181818;stroke-width:1.0;"/><line style="stroke:#181818;stroke-width:1.0;stroke-dasharray:2.0,2.0;" x1="32.5" x2="226.5" y1="519.3594" y2="519.3594"/><text fill="#000000" font-family="sans-serif" font-size="13" font-weight="bold" lengthAdjust="spacing" textLength="14" x="45" y="514.5029">13</text><text fill="#000000" font-family="sans-serif" font-size="13" lengthAdjust="spacing" textLength="147" x="63" y="514.5029">shows success message</text><!--SRC=[bPJVIyCm4CVV-rSSzS5DA8huDCfWJaH1GNJwv4jCunRM9gD9_O7ultkvrYxTqZdleSkQV3_VI-vILbcjgk95b95PIhLY9IlWGhooAhSpyM4dkPohGYWB71-uYd6hIvXaXLJ03CGqYgCN_G5ncffFOqK1W-dPS3n-LfUbHf7AueCREL_OyxmI4M2WZPLShXXofxfOQONmnsi2ua_xAeOqvRz_6ce_WEJ_qzxgJEIaez5UceVx9r8yYF9DSh6NvceskoEH6mGLU4g0XnZrdEGvuqktv89P1hTCiRbmLOcZha-ppArQBoBZFi3ENB3OyerPKTURTbLNFXbtwZP2YwK1gq5a4lqm9oiTS5NgLvdNHMzXdf8cNFYq1EcrpPgBhLbPo31vacIYbzQJ807Cch1_DXu9ERJ1qFR2q7QgWtLGQhYZ8qJoKZYD5_qgrtn_9D591DTt9bmu1gAe9qSEmnU3m-C6Puw_PFPzEDnIjKYdsvfrGK04Xvjm17UJsVGAkaP1K6iL90KbBiA-oNghfoSdC6ZiXq6CrrVxUzVxRelJ64GxsC4ZfB9iT5k8vN4sg-krojO5s4I5hf1tWT8asG2OXNutO2hEXJ5Gu0CFPTTjz5xNtuyV]--></g></svg>