<?xml version="1.0" encoding="us-ascii" standalone="no"?><svg xmlns="http://www.w3.org/2000/svg" xmlns:xlink="http://www.w3.org/1999/xlink" contentStyleType="text/css" height="385px" preserveAspectRatio="none" style="width:1009px;height:385px;background:#FFFFFF;" version="1.1" viewBox="0 0 1009 385" width="1009px" zoomAndPan="magnify"><defs/><g><rect fill="#FFFFFF" height="174.1094" style="stroke:#181818;stroke-width:1.0;" width="10" x="22.5" y="96.2188"/><rect fill="#FFFFFF" height="151.7578" style="stroke:#181818;stroke-width:1.0;" width="10" x="230.5" y="118.5703"/><rect fill="#FFFFFF" height="91.0547" style="stroke:#181818;stroke-width:1.0;" width="10" x="555.5" y="148.9219"/><rect fill="#FFFFFF" height="30.3516" style="stroke:#181818;stroke-width:1.0;" width="10" x="917.5" y="179.2734"/><line style="stroke:#181818;stroke-width:0.5;stroke-dasharray:5.0,5.0;" x1="27" x2="27" y1="86.2188" y2="288.3281"/><line style="stroke:#181818;stroke-width:0.5;stroke-dasharray:5.0,5.0;" x1="235.5" x2="235.5" y1="86.2188" y2="288.3281"/><line style="stroke:#181818;stroke-width:0.5;stroke-dasharray:5.0,5.0;" x1="560.5" x2="560.5" y1="86.2188" y2="288.3281"/><line style="stroke:#181818;stroke-width:0.5;stroke-dasharray:5.0,5.0;" x1="922.5" x2="922.5" y1="86.2188" y2="288.3281"/><text fill="#000000" font-family="sans-serif" font-size="14" lengthAdjust="spacing" textLength="39" x="5" y="83.1426">Admin</text><ellipse cx="27.5" cy="17.1094" fill="#E2E2F0" rx="8" ry="8" style="stroke:#181818;stroke-width:0.5;"/><path d="M27.5,25.1094 L27.5,52.1094 M14.5,33.1094 L40.5,33.1094 M27.5,52.1094 L14.5,67.1094 M27.5,52.1094 L40.5,67.1094 " fill="none" style="stroke:#181818;stroke-width:0.5;"/><text fill="#000000" font-family="sans-serif" font-size="14" lengthAdjust="spacing" textLength="39" x="5" y="301.8613">Admin</text><ellipse cx="27.5" cy="313.4375" fill="#E2E2F0" rx="8" ry="8" style="stroke:#181818;stroke-width:0.5;"/><path d="M27.5,321.4375 L27.5,348.4375 M14.5,329.4375 L40.5,329.4375 M27.5,348.4375 L14.5,363.4375 M27.5,348.4375 L40.5,363.4375 " fill="none" style="stroke:#181818;stroke-width:0.5;"/><rect fill="#E2E2F0" height="49.2188" rx="2.5" ry="2.5" style="stroke:#181818;stroke-width:0.5;" width="178" x="146.5" y="36"/><text fill="#000000" font-family="sans-serif" font-size="14" font-style="italic" lengthAdjust="spacing" textLength="78" x="196.5" y="57.5332">&#171;Controller&#187;</text><text fill="#000000" font-family="sans-serif" font-size="14" lengthAdjust="spacing" textLength="164" x="153.5" y="75.1426">OperationTypesController</text><rect fill="#E2E2F0" height="49.2188" rx="2.5" ry="2.5" style="stroke:#181818;stroke-width:0.5;" width="178" x="146.5" y="287.3281"/><text fill="#000000" font-family="sans-serif" font-size="14" font-style="italic" lengthAdjust="spacing" textLength="78" x="196.5" y="308.8613">&#171;Controller&#187;</text><text fill="#000000" font-family="sans-serif" font-size="14" lengthAdjust="spacing" textLength="164" x="153.5" y="326.4707">OperationTypesController</text><rect fill="#E2E2F0" height="49.2188" rx="2.5" ry="2.5" style="stroke:#181818;stroke-width:0.5;" width="156" x="482.5" y="36"/><text fill="#000000" font-family="sans-serif" font-size="14" font-style="italic" lengthAdjust="spacing" textLength="62" x="529.5" y="57.5332">&#171;Service&#187;</text><text fill="#000000" font-family="sans-serif" font-size="14" lengthAdjust="spacing" textLength="142" x="489.5" y="75.1426">OperationTypeService</text><rect fill="#E2E2F0" height="49.2188" rx="2.5" ry="2.5" style="stroke:#181818;stroke-width:0.5;" width="156" x="482.5" y="287.3281"/><text fill="#000000" font-family="sans-serif" font-size="14" font-style="italic" lengthAdjust="spacing" textLength="62" x="529.5" y="308.8613">&#171;Service&#187;</text><text fill="#000000" font-family="sans-serif" font-size="14" lengthAdjust="spacing" textLength="142" x="489.5" y="326.4707">OperationTypeService</text><text fill="#000000" font-family="sans-serif" font-size="14" font-style="italic" lengthAdjust="spacing" textLength="64" x="887.5" y="65.5332">&#171;Domain&#187;</text><text fill="#000000" font-family="sans-serif" font-size="14" lengthAdjust="spacing" textLength="166" x="836.5" y="83.1426">IOperationTypeRepository</text><path d="M904.5,15 C904.5,5 922.5,5 922.5,5 C922.5,5 940.5,5 940.5,15 L940.5,41 C940.5,51 922.5,51 922.5,51 C922.5,51 904.5,51 904.5,41 L904.5,15 " fill="#E2E2F0" style="stroke:#181818;stroke-width:1.5;"/><path d="M904.5,15 C904.5,25 922.5,25 922.5,25 C922.5,25 940.5,25 940.5,15 " fill="none" style="stroke:#181818;stroke-width:1.5;"/><text fill="#000000" font-family="sans-serif" font-size="14" font-style="italic" lengthAdjust="spacing" textLength="64" x="887.5" y="301.8613">&#171;Domain&#187;</text><text fill="#000000" font-family="sans-serif" font-size="14" lengthAdjust="spacing" textLength="166" x="836.5" y="319.4707">IOperationTypeRepository</text><path d="M904.5,332.5469 C904.5,322.5469 922.5,322.5469 922.5,322.5469 C922.5,322.5469 940.5,322.5469 940.5,332.5469 L940.5,358.5469 C940.5,368.5469 922.5,368.5469 922.5,368.5469 C922.5,368.5469 904.5,368.5469 904.5,358.5469 L904.5,332.5469 " fill="#E2E2F0" style="stroke:#181818;stroke-width:1.5;"/><path d="M904.5,332.5469 C904.5,342.5469 922.5,342.5469 922.5,342.5469 C922.5,342.5469 940.5,342.5469 940.5,332.5469 " fill="none" style="stroke:#181818;stroke-width:1.5;"/><rect fill="#FFFFFF" height="174.1094" style="stroke:#181818;stroke-width:1.0;" width="10" x="22.5" y="96.2188"/><rect fill="#FFFFFF" height="151.7578" style="stroke:#181818;stroke-width:1.0;" width="10" x="230.5" y="118.5703"/><rect fill="#FFFFFF" height="91.0547" style="stroke:#181818;stroke-width:1.0;" width="10" x="555.5" y="148.9219"/><rect fill="#FFFFFF" height="30.3516" style="stroke:#181818;stroke-width:1.0;" width="10" x="917.5" y="179.2734"/><polygon fill="#181818" points="218.5,114.5703,228.5,118.5703,218.5,122.5703,222.5,118.5703" style="stroke:#181818;stroke-width:1.0;"/><line style="stroke:#181818;stroke-width:1.0;" x1="32.5" x2="224.5" y1="118.5703" y2="118.5703"/><text fill="#000000" font-family="sans-serif" font-size="13" font-weight="bold" lengthAdjust="spacing" textLength="7" x="39.5" y="113.7139">1</text><text fill="#000000" font-family="sans-serif" font-size="13" lengthAdjust="spacing" textLength="168" x="50.5" y="113.7139">GET /api/operationtypes/filter</text><polygon fill="#181818" points="543.5,144.9219,553.5,148.9219,543.5,152.9219,547.5,148.9219" style="stroke:#181818;stroke-width:1.0;"/><line style="stroke:#181818;stroke-width:1.0;" x1="240.5" x2="549.5" y1="148.9219" y2="148.9219"/><text fill="#000000" font-family="sans-serif" font-size="13" font-weight="bold" lengthAdjust="spacing" textLength="7" x="247.5" y="144.0654">2</text><text fill="#000000" font-family="sans-serif" font-size="13" lengthAdjust="spacing" textLength="285" x="258.5" y="144.0654">GetOperationTypes(name,specializationId,status)</text><polygon fill="#181818" points="905.5,175.2734,915.5,179.2734,905.5,183.2734,909.5,179.2734" style="stroke:#181818;stroke-width:1.0;"/><line style="stroke:#181818;stroke-width:1.0;" x1="565.5" x2="911.5" y1="179.2734" y2="179.2734"/><text fill="#000000" font-family="sans-serif" font-size="13" font-weight="bold" lengthAdjust="spacing" textLength="7" x="572.5" y="174.417">3</text><text fill="#000000" font-family="sans-serif" font-size="13" lengthAdjust="spacing" textLength="322" x="583.5" y="174.417">GetOperationTypesAsync(name,specializationId,status)</text><polygon fill="#181818" points="576.5,205.625,566.5,209.625,576.5,213.625,572.5,209.625" style="stroke:#181818;stroke-width:1.0;"/><line style="stroke:#181818;stroke-width:1.0;stroke-dasharray:2.0,2.0;" x1="570.5" x2="921.5" y1="209.625" y2="209.625"/><text fill="#000000" font-family="sans-serif" font-size="13" font-weight="bold" lengthAdjust="spacing" textLength="7" x="582.5" y="204.7686">4</text><text fill="#000000" font-family="sans-serif" font-size="13" lengthAdjust="spacing" textLength="88" x="593.5" y="204.7686">operationTypes</text><polygon fill="#181818" points="251.5,235.9766,241.5,239.9766,251.5,243.9766,247.5,239.9766" style="stroke:#181818;stroke-width:1.0;"/><line style="stroke:#181818;stroke-width:1.0;stroke-dasharray:2.0,2.0;" x1="245.5" x2="559.5" y1="239.9766" y2="239.9766"/><text fill="#000000" font-family="sans-serif" font-size="13" font-weight="bold" lengthAdjust="spacing" textLength="7" x="257.5" y="235.1201">5</text><text fill="#000000" font-family="sans-serif" font-size="13" lengthAdjust="spacing" textLength="108" x="268.5" y="235.1201">operationTypesDto</text><polygon fill="#181818" points="38.5,266.3281,28.5,270.3281,38.5,274.3281,34.5,270.3281" style="stroke:#181818;stroke-width:1.0;"/><line style="stroke:#181818;stroke-width:1.0;stroke-dasharray:2.0,2.0;" x1="32.5" x2="234.5" y1="270.3281" y2="270.3281"/><text fill="#000000" font-family="sans-serif" font-size="13" font-weight="bold" lengthAdjust="spacing" textLength="7" x="44.5" y="265.4717">6</text><text fill="#000000" font-family="sans-serif" font-size="13" lengthAdjust="spacing" textLength="44" x="55.5" y="265.4717">200 OK</text><!--SRC=[bL9DQyCm3BtxLvYSDcX9sR6KG5d7A3iKjlu1DT70aDZ6LWhPhv_jEh5DnzXqaYozz_HX64d9SRYWOGnQKePN-suGik9WUV2O1aEY5HeayUgaqG099S-JHlki91dLzsX2VGhvRfU2flc5umFDLRGOyD5tuEWvP0S45x38gsE1UqUjh70DJm6QGeS-g064T60_ahW2OHo5yMWXvEicRtdBNr_El0OjQZKhaP-o_XGz-GNDw8KrGwUijopXHEQvd09IkS472GEkhCPMG2- -GkBOhIm1ZVQn95ra8r-PzJOBESry8p_exkqas_-85mqaxliYRvdsslUI5g2ABkxH7Vv9P1dKinStB0KEf4fmnd-tnVneZlVsHxRyQRFXfxTRMGPFrOnbp_6ZVGC0]--></g></svg>