<?xml version="1.0" encoding="us-ascii" standalone="no"?><svg xmlns="http://www.w3.org/2000/svg" xmlns:xlink="http://www.w3.org/1999/xlink" contentStyleType="text/css" height="1754px" preserveAspectRatio="none" style="width:1579px;height:1754px;background:#FFFFFF;" version="1.1" viewBox="0 0 1579 1754" width="1579px" zoomAndPan="magnify"><defs/><g><!--cluster BackendDataManagement--><g id="cluster_BackendDataManagement"><rect fill="none" height="1409.5" rx="2.5" ry="2.5" style="stroke:#181818;stroke-width:1.0;" width="795" x="696" y="339"/><rect fill="none" height="10" style="stroke:#181818;stroke-width:1.0;" width="15" x="1471" y="344"/><rect fill="none" height="2" style="stroke:#181818;stroke-width:1.0;" width="4" x="1469" y="346"/><rect fill="none" height="2" style="stroke:#181818;stroke-width:1.0;" width="4" x="1469" y="350"/><text fill="#000000" font-family="sans-serif" font-size="14" font-style="italic" lengthAdjust="spacing" textLength="86" x="1050.5" y="366.5332">&#171;component&#187;</text><text fill="#000000" font-family="sans-serif" font-size="14" font-style="italic" lengthAdjust="spacing" textLength="100" x="1043.5" y="384.1426">&#171;C4 Container&#187;</text><text fill="#000000" font-family="sans-serif" font-size="14" font-weight="bold" lengthAdjust="spacing" textLength="191" x="998" y="401.752">Backend Data Management</text></g><!--cluster Infrastructure--><g id="cluster_Infrastructure"><path d="M867.5,638 L1082.5,638 A3.75,3.75 0 0 1 1085,640.5 L1092,661.6094 L1234.5,661.6094 A2.5,2.5 0 0 1 1237,664.1094 L1237,768.5 A2.5,2.5 0 0 1 1234.5,771 L867.5,771 A2.5,2.5 0 0 1 865,768.5 L865,640.5 A2.5,2.5 0 0 1 867.5,638 " fill="none" style="stroke:#000000;stroke-width:1.5;"/><line style="stroke:#000000;stroke-width:1.5;" x1="865" x2="1092" y1="661.6094" y2="661.6094"/><text fill="#000000" font-family="sans-serif" font-size="14" font-weight="bold" lengthAdjust="spacing" textLength="214" x="869" y="654.5332">Frameworks and Drivers Layer</text></g><!--cluster InterfaceAdapters--><g id="cluster_InterfaceAdapters"><path d="M730.5,977.5 L903.5,977.5 A3.75,3.75 0 0 1 906,980 L913,1001.1094 L1079.5,1001.1094 A2.5,2.5 0 0 1 1082,1003.6094 L1082,1108 A2.5,2.5 0 0 1 1079.5,1110.5 L730.5,1110.5 A2.5,2.5 0 0 1 728,1108 L728,980 A2.5,2.5 0 0 1 730.5,977.5 " fill="none" style="stroke:#000000;stroke-width:1.5;"/><line style="stroke:#000000;stroke-width:1.5;" x1="728" x2="913" y1="1001.1094" y2="1001.1094"/><text fill="#000000" font-family="sans-serif" font-size="14" font-weight="bold" lengthAdjust="spacing" textLength="172" x="732" y="994.0332">Interface Adapters Layer</text></g><!--cluster ApplicationServices--><g id="cluster_ApplicationServices"><path d="M850.5,1280.5 L1042.5,1280.5 A3.75,3.75 0 0 1 1045,1283 L1052,1304.1094 L1072.5,1304.1094 A2.5,2.5 0 0 1 1075,1306.6094 L1075,1411 A2.5,2.5 0 0 1 1072.5,1413.5 L850.5,1413.5 A2.5,2.5 0 0 1 848,1411 L848,1283 A2.5,2.5 0 0 1 850.5,1280.5 " fill="none" style="stroke:#000000;stroke-width:1.5;"/><line style="stroke:#000000;stroke-width:1.5;" x1="848" x2="1052" y1="1304.1094" y2="1304.1094"/><text fill="#000000" font-family="sans-serif" font-size="14" font-weight="bold" lengthAdjust="spacing" textLength="191" x="852" y="1297.0332">Application Business Rules</text></g><!--cluster Domain--><g id="cluster_Domain"><path d="M730.5,1583.5 L918.5,1583.5 A3.75,3.75 0 0 1 921,1586 L928,1607.1094 L956.5,1607.1094 A2.5,2.5 0 0 1 959,1609.6094 L959,1714 A2.5,2.5 0 0 1 956.5,1716.5 L730.5,1716.5 A2.5,2.5 0 0 1 728,1714 L728,1586 A2.5,2.5 0 0 1 730.5,1583.5 " fill="none" style="stroke:#000000;stroke-width:1.5;"/><line style="stroke:#000000;stroke-width:1.5;" x1="728" x2="928" y1="1607.1094" y2="1607.1094"/><text fill="#000000" font-family="sans-serif" font-size="14" font-weight="bold" lengthAdjust="spacing" textLength="187" x="732" y="1600.0332">Enterprise Business Rules</text></g><!--cluster BackendDataManagement_--><g id="cluster_BackendDataManagement_"><rect fill="none" height="791.5" rx="2.5" ry="2.5" style="stroke:#181818;stroke-width:1.0;" width="507" x="7" y="7"/><rect fill="none" height="10" style="stroke:#181818;stroke-width:1.0;" width="15" x="494" y="12"/><rect fill="none" height="2" style="stroke:#181818;stroke-width:1.0;" width="4" x="492" y="14"/><rect fill="none" height="2" style="stroke:#181818;stroke-width:1.0;" width="4" x="492" y="18"/><text fill="#000000" font-family="sans-serif" font-size="14" font-style="italic" lengthAdjust="spacing" textLength="86" x="217.5" y="34.5332">&#171;component&#187;</text><text fill="#000000" font-family="sans-serif" font-size="14" font-style="italic" lengthAdjust="spacing" textLength="107" x="207" y="52.1426">&#171;container (C4)&#187;</text><text fill="#000000" font-family="sans-serif" font-size="14" font-weight="bold" lengthAdjust="spacing" textLength="191" x="165" y="69.752">Backend Data Management</text></g><!--cluster Infrastructure_--><g id="cluster_Infrastructure_"><path d="M189.5,94 L287.5,94 A3.75,3.75 0 0 1 290,96.5 L297,117.6094 L466.5,117.6094 A2.5,2.5 0 0 1 469,120.1094 L469,215.5 A2.5,2.5 0 0 1 466.5,218 L189.5,218 A2.5,2.5 0 0 1 187,215.5 L187,96.5 A2.5,2.5 0 0 1 189.5,94 " fill="none" style="stroke:#000000;stroke-width:1.5;"/><line style="stroke:#000000;stroke-width:1.5;" x1="187" x2="297" y1="117.6094" y2="117.6094"/><text fill="#000000" font-family="sans-serif" font-size="14" font-weight="bold" lengthAdjust="spacing" textLength="97" x="191" y="110.5332">Infrastructure</text></g><!--cluster InterfaceAdapters_--><g id="cluster_InterfaceAdapters_"><path d="M173.5,267 L304.5,267 A3.75,3.75 0 0 1 307,269.5 L314,290.6094 L479.5,290.6094 A2.5,2.5 0 0 1 482,293.1094 L482,388.5 A2.5,2.5 0 0 1 479.5,391 L173.5,391 A2.5,2.5 0 0 1 171,388.5 L171,269.5 A2.5,2.5 0 0 1 173.5,267 " fill="none" style="stroke:#000000;stroke-width:1.5;"/><line style="stroke:#000000;stroke-width:1.5;" x1="171" x2="314" y1="290.6094" y2="290.6094"/><text fill="#000000" font-family="sans-serif" font-size="14" font-weight="bold" lengthAdjust="spacing" textLength="130" x="175" y="283.5332">Interface Adapters</text></g><!--cluster ApplicationServices_--><g id="cluster_ApplicationServices_"><path d="M170.5,457 L315.5,457 A3.75,3.75 0 0 1 318,459.5 L325,480.6094 L346.5,480.6094 A2.5,2.5 0 0 1 349,483.1094 L349,578.5 A2.5,2.5 0 0 1 346.5,581 L170.5,581 A2.5,2.5 0 0 1 168,578.5 L168,459.5 A2.5,2.5 0 0 1 170.5,457 " fill="none" style="stroke:#000000;stroke-width:1.5;"/><line style="stroke:#000000;stroke-width:1.5;" x1="168" x2="325" y1="480.6094" y2="480.6094"/><text fill="#000000" font-family="sans-serif" font-size="14" font-weight="bold" lengthAdjust="spacing" textLength="144" x="172" y="473.5332">Application Services</text></g><!--cluster Domain_--><g id="cluster_Domain_"><path d="M41.5,642.5 L94.5,642.5 A3.75,3.75 0 0 1 97,645 L104,666.1094 L479.5,666.1094 A2.5,2.5 0 0 1 482,668.6094 L482,764 A2.5,2.5 0 0 1 479.5,766.5 L41.5,766.5 A2.5,2.5 0 0 1 39,764 L39,645 A2.5,2.5 0 0 1 41.5,642.5 " fill="none" style="stroke:#000000;stroke-width:1.5;"/><line style="stroke:#000000;stroke-width:1.5;" x1="39" x2="104" y1="666.1094" y2="666.1094"/><text fill="#000000" font-family="sans-serif" font-size="14" font-weight="bold" lengthAdjust="spacing" textLength="52" x="43" y="659.0332">Domain</text></g><text fill="#000000" font-family="sans-serif" font-size="14" lengthAdjust="spacing" textLength="4" x="1011" y="317.9238">&#160;</text><rect fill="#F1F1F1" height="12" style="stroke:#181818;stroke-width:1.5;" width="12" x="1007" y="333"/><text fill="#000000" font-family="sans-serif" font-size="14" lengthAdjust="spacing" textLength="4" x="1139" y="317.9238">&#160;</text><rect fill="#F1F1F1" height="12" style="stroke:#181818;stroke-width:1.5;" width="12" x="1135" y="333"/><text fill="#000000" font-family="sans-serif" font-size="14" lengthAdjust="spacing" textLength="4" x="1489" y="1519.0332">&#160;</text><rect fill="#F1F1F1" height="12" style="stroke:#181818;stroke-width:1.5;" width="12" x="1485" y="1492.5"/><!--entity Controller_API--><g id="elem_Controller_API"><ellipse cx="848" cy="875.5" fill="#F1F1F1" rx="8" ry="8" style="stroke:#181818;stroke-width:0.5;"/><text fill="#000000" font-family="sans-serif" font-size="14" lengthAdjust="spacing" textLength="87" x="804.5" y="907.0332">Controller API</text></g><!--entity DataModel_API--><g id="elem_DataModel_API"><ellipse cx="995" cy="875.5" fill="#F1F1F1" rx="8" ry="8" style="stroke:#181818;stroke-width:0.5;"/><text fill="#000000" font-family="sans-serif" font-size="14" lengthAdjust="spacing" textLength="97" x="946.5" y="907.0332">Data Model API</text></g><!--entity ApplicationServiceAPI--><g id="elem_ApplicationServiceAPI"><ellipse cx="824" cy="1195.5" fill="#F1F1F1" rx="8" ry="8" style="stroke:#181818;stroke-width:0.5;"/><text fill="#000000" font-family="sans-serif" font-size="14" lengthAdjust="spacing" textLength="108" x="770" y="1227.0332">App Services API</text></g><!--entity DatabaseDriverAPI--><g id="elem_DatabaseDriverAPI"><ellipse cx="1215" cy="875.5" fill="#F1F1F1" rx="8" ry="8" style="stroke:#181818;stroke-width:0.5;"/><text fill="#000000" font-family="sans-serif" font-size="14" lengthAdjust="spacing" textLength="128" x="1151" y="907.0332">Database Driver API</text></g><!--entity RepoAPI--><g id="elem_RepoAPI"><ellipse cx="995" cy="1195.5" fill="#F1F1F1" rx="8" ry="8" style="stroke:#181818;stroke-width:0.5;"/><text fill="#000000" font-family="sans-serif" font-size="14" lengthAdjust="spacing" textLength="59" x="965.5" y="1227.0332">Repo API</text></g><!--entity DTOAPI--><g id="elem_DTOAPI"><ellipse cx="1171" cy="1195.5" fill="#F1F1F1" rx="8" ry="8" style="stroke:#181818;stroke-width:0.5;"/><text fill="#000000" font-family="sans-serif" font-size="14" lengthAdjust="spacing" textLength="55" x="1143.5" y="1227.0332">DTO API</text></g><!--entity ModelAPI--><g id="elem_ModelAPI"><ellipse cx="971" cy="1498.5" fill="#F1F1F1" rx="8" ry="8" style="stroke:#181818;stroke-width:0.5;"/><text fill="#000000" font-family="sans-serif" font-size="14" lengthAdjust="spacing" textLength="63" x="939.5" y="1530.0332">Model API</text></g><!--entity VOAPI--><g id="elem_VOAPI"><ellipse cx="828" cy="1498.5" fill="#F1F1F1" rx="8" ry="8" style="stroke:#181818;stroke-width:0.5;"/><text fill="#000000" font-family="sans-serif" font-size="14" lengthAdjust="spacing" textLength="45" x="805.5" y="1530.0332">VO API</text></g><!--entity DatabaseDriver--><g id="elem_DatabaseDriver"><rect fill="#F1F1F1" height="65.2188" rx="2.5" ry="2.5" style="stroke:#181818;stroke-width:0.5;" width="143" x="1069.5" y="682"/><rect fill="#F1F1F1" height="10" style="stroke:#181818;stroke-width:0.5;" width="15" x="1192.5" y="687"/><rect fill="#F1F1F1" height="2" style="stroke:#181818;stroke-width:0.5;" width="4" x="1190.5" y="689"/><rect fill="#F1F1F1" height="2" style="stroke:#181818;stroke-width:0.5;" width="4" x="1190.5" y="693"/><text fill="#000000" font-family="sans-serif" font-size="14" font-style="italic" lengthAdjust="spacing" textLength="86" x="1093" y="716.5332">&#171;component&#187;</text><text fill="#000000" font-family="sans-serif" font-size="14" lengthAdjust="spacing" textLength="103" x="1084.5" y="734.1426">Database Driver</text></g><!--entity Routing--><g id="elem_Routing"><rect fill="#F1F1F1" height="65.2188" rx="2.5" ry="2.5" style="stroke:#181818;stroke-width:0.5;" width="126" x="908" y="682"/><rect fill="#F1F1F1" height="10" style="stroke:#181818;stroke-width:0.5;" width="15" x="1014" y="687"/><rect fill="#F1F1F1" height="2" style="stroke:#181818;stroke-width:0.5;" width="4" x="1012" y="689"/><rect fill="#F1F1F1" height="2" style="stroke:#181818;stroke-width:0.5;" width="4" x="1012" y="693"/><text fill="#000000" font-family="sans-serif" font-size="14" font-style="italic" lengthAdjust="spacing" textLength="86" x="923" y="716.5332">&#171;component&#187;</text><text fill="#000000" font-family="sans-serif" font-size="14" lengthAdjust="spacing" textLength="49" x="941.5" y="734.1426">Routing</text></g><!--entity DTO--><g id="elem_DTO"><rect fill="#F1F1F1" height="65.2188" rx="2.5" ry="2.5" style="stroke:#181818;stroke-width:0.5;" width="126" x="1143" y="1021.5"/><rect fill="#F1F1F1" height="10" style="stroke:#181818;stroke-width:0.5;" width="15" x="1249" y="1026.5"/><rect fill="#F1F1F1" height="2" style="stroke:#181818;stroke-width:0.5;" width="4" x="1247" y="1028.5"/><rect fill="#F1F1F1" height="2" style="stroke:#181818;stroke-width:0.5;" width="4" x="1247" y="1032.5"/><text fill="#000000" font-family="sans-serif" font-size="14" font-style="italic" lengthAdjust="spacing" textLength="86" x="1158" y="1056.0332">&#171;component&#187;</text><text fill="#000000" font-family="sans-serif" font-size="14" lengthAdjust="spacing" textLength="30" x="1186" y="1073.6426">DTO</text></g><!--entity DataModel--><g id="elem_DataModel"><rect fill="#F1F1F1" height="65.2188" rx="2.5" ry="2.5" style="stroke:#181818;stroke-width:0.5;" width="126" x="712" y="682"/><rect fill="#F1F1F1" height="10" style="stroke:#181818;stroke-width:0.5;" width="15" x="818" y="687"/><rect fill="#F1F1F1" height="2" style="stroke:#181818;stroke-width:0.5;" width="4" x="816" y="689"/><rect fill="#F1F1F1" height="2" style="stroke:#181818;stroke-width:0.5;" width="4" x="816" y="693"/><text fill="#000000" font-family="sans-serif" font-size="14" font-style="italic" lengthAdjust="spacing" textLength="86" x="727" y="716.5332">&#171;component&#187;</text><text fill="#000000" font-family="sans-serif" font-size="14" lengthAdjust="spacing" textLength="72" x="734" y="734.1426">Data Model</text></g><!--entity Controller--><g id="elem_Controller"><rect fill="#F1F1F1" height="65.2188" rx="2.5" ry="2.5" style="stroke:#181818;stroke-width:0.5;" width="126" x="771" y="1021.5"/><rect fill="#F1F1F1" height="10" style="stroke:#181818;stroke-width:0.5;" width="15" x="877" y="1026.5"/><rect fill="#F1F1F1" height="2" style="stroke:#181818;stroke-width:0.5;" width="4" x="875" y="1028.5"/><rect fill="#F1F1F1" height="2" style="stroke:#181818;stroke-width:0.5;" width="4" x="875" y="1032.5"/><text fill="#000000" font-family="sans-serif" font-size="14" font-style="italic" lengthAdjust="spacing" textLength="86" x="786" y="1056.0332">&#171;component&#187;</text><text fill="#000000" font-family="sans-serif" font-size="14" lengthAdjust="spacing" textLength="62" x="798" y="1073.6426">Controller</text></g><!--entity Repository--><g id="elem_Repository"><rect fill="#F1F1F1" height="65.2188" rx="2.5" ry="2.5" style="stroke:#181818;stroke-width:0.5;" width="126" x="932" y="1021.5"/><rect fill="#F1F1F1" height="10" style="stroke:#181818;stroke-width:0.5;" width="15" x="1038" y="1026.5"/><rect fill="#F1F1F1" height="2" style="stroke:#181818;stroke-width:0.5;" width="4" x="1036" y="1028.5"/><rect fill="#F1F1F1" height="2" style="stroke:#181818;stroke-width:0.5;" width="4" x="1036" y="1032.5"/><text fill="#000000" font-family="sans-serif" font-size="14" font-style="italic" lengthAdjust="spacing" textLength="86" x="947" y="1056.0332">&#171;component&#187;</text><text fill="#000000" font-family="sans-serif" font-size="14" lengthAdjust="spacing" textLength="68" x="956" y="1073.6426">Repository</text></g><!--entity ApplicationService--><g id="elem_ApplicationService"><rect fill="#F1F1F1" height="65.2188" rx="2.5" ry="2.5" style="stroke:#181818;stroke-width:0.5;" width="160" x="891" y="1324.5"/><rect fill="#F1F1F1" height="10" style="stroke:#181818;stroke-width:0.5;" width="15" x="1031" y="1329.5"/><rect fill="#F1F1F1" height="2" style="stroke:#181818;stroke-width:0.5;" width="4" x="1029" y="1331.5"/><rect fill="#F1F1F1" height="2" style="stroke:#181818;stroke-width:0.5;" width="4" x="1029" y="1335.5"/><text fill="#000000" font-family="sans-serif" font-size="14" font-style="italic" lengthAdjust="spacing" textLength="86" x="923" y="1359.0332">&#171;component&#187;</text><text fill="#000000" font-family="sans-serif" font-size="14" lengthAdjust="spacing" textLength="120" x="906" y="1376.6426">Application Service</text></g><!--entity DomainModelDDD--><g id="elem_DomainModelDDD"><rect fill="#F1F1F1" height="65.2188" rx="2.5" ry="2.5" style="stroke:#181818;stroke-width:0.5;" width="164" x="771" y="1627.5"/><rect fill="#F1F1F1" height="10" style="stroke:#181818;stroke-width:0.5;" width="15" x="915" y="1632.5"/><rect fill="#F1F1F1" height="2" style="stroke:#181818;stroke-width:0.5;" width="4" x="913" y="1634.5"/><rect fill="#F1F1F1" height="2" style="stroke:#181818;stroke-width:0.5;" width="4" x="913" y="1638.5"/><text fill="#000000" font-family="sans-serif" font-size="14" font-style="italic" lengthAdjust="spacing" textLength="86" x="805" y="1662.0332">&#171;component&#187;</text><text fill="#000000" font-family="sans-serif" font-size="14" lengthAdjust="spacing" textLength="124" x="786" y="1679.6426">Domain Model DDD</text></g><!--entity Persistence_--><g id="elem_Persistence_"><path d="M343.5,138 L384.5,138 A3.75,3.75 0 0 1 387,140.5 L394,159 L442.5,159 A2.5,2.5 0 0 1 445,161.5 L445,191.1094 A2.5,2.5 0 0 1 442.5,193.6094 L343.5,193.6094 A2.5,2.5 0 0 1 341,191.1094 L341,140.5 A2.5,2.5 0 0 1 343.5,138 " fill="#F1F1F1" style="stroke:#181818;stroke-width:0.5;"/><line style="stroke:#181818;stroke-width:0.5;" x1="341" x2="394" y1="159" y2="159"/><text fill="#000000" font-family="sans-serif" font-size="14" lengthAdjust="spacing" textLength="74" x="351" y="180.5332">Persistence</text></g><!--entity Routes_--><g id="elem_Routes_"><path d="M233,138 L274,138 A3.75,3.75 0 0 1 276.5,140.5 L283.5,159 L303,159 A2.5,2.5 0 0 1 305.5,161.5 L305.5,191.1094 A2.5,2.5 0 0 1 303,193.6094 L233,193.6094 A2.5,2.5 0 0 1 230.5,191.1094 L230.5,140.5 A2.5,2.5 0 0 1 233,138 " fill="#F1F1F1" style="stroke:#181818;stroke-width:0.5;"/><line style="stroke:#181818;stroke-width:0.5;" x1="230.5" x2="283.5" y1="159" y2="159"/><text fill="#000000" font-family="sans-serif" font-size="14" lengthAdjust="spacing" textLength="45" x="240.5" y="180.5332">Routes</text></g><!--entity Controllers_--><g id="elem_Controllers_"><path d="M217,311 L258,311 A3.75,3.75 0 0 1 260.5,313.5 L267.5,332 L311,332 A2.5,2.5 0 0 1 313.5,334.5 L313.5,364.1094 A2.5,2.5 0 0 1 311,366.6094 L217,366.6094 A2.5,2.5 0 0 1 214.5,364.1094 L214.5,313.5 A2.5,2.5 0 0 1 217,311 " fill="#F1F1F1" style="stroke:#181818;stroke-width:0.5;"/><line style="stroke:#181818;stroke-width:0.5;" x1="214.5" x2="267.5" y1="332" y2="332"/><text fill="#000000" font-family="sans-serif" font-size="14" lengthAdjust="spacing" textLength="69" x="224.5" y="353.5332">Controllers</text></g><!--entity Repositories_--><g id="elem_Repositories_"><path d="M351,311 L392,311 A3.75,3.75 0 0 1 394.5,313.5 L401.5,332 L455,332 A2.5,2.5 0 0 1 457.5,334.5 L457.5,364.1094 A2.5,2.5 0 0 1 455,366.6094 L351,366.6094 A2.5,2.5 0 0 1 348.5,364.1094 L348.5,313.5 A2.5,2.5 0 0 1 351,311 " fill="#F1F1F1" style="stroke:#181818;stroke-width:0.5;"/><line style="stroke:#181818;stroke-width:0.5;" x1="348.5" x2="401.5" y1="332" y2="332"/><text fill="#000000" font-family="sans-serif" font-size="14" lengthAdjust="spacing" textLength="79" x="358.5" y="353.5332">Repositories</text></g><!--entity AppServices_--><g id="elem_AppServices_"><path d="M214,501 L255,501 A3.75,3.75 0 0 1 257.5,503.5 L264.5,522 L322,522 A2.5,2.5 0 0 1 324.5,524.5 L324.5,554.1094 A2.5,2.5 0 0 1 322,556.6094 L214,556.6094 A2.5,2.5 0 0 1 211.5,554.1094 L211.5,503.5 A2.5,2.5 0 0 1 214,501 " fill="#F1F1F1" style="stroke:#181818;stroke-width:0.5;"/><line style="stroke:#181818;stroke-width:0.5;" x1="211.5" x2="264.5" y1="522" y2="522"/><text fill="#000000" font-family="sans-serif" font-size="14" lengthAdjust="spacing" textLength="83" x="221.5" y="543.5332">App Services</text></g><!--entity Aggregates_--><g id="elem_Aggregates_"><path d="M204,686.5 L245,686.5 A3.75,3.75 0 0 1 247.5,689 L254.5,707.5 L302,707.5 A2.5,2.5 0 0 1 304.5,710 L304.5,739.6094 A2.5,2.5 0 0 1 302,742.1094 L204,742.1094 A2.5,2.5 0 0 1 201.5,739.6094 L201.5,689 A2.5,2.5 0 0 1 204,686.5 " fill="#F1F1F1" style="stroke:#181818;stroke-width:0.5;"/><line style="stroke:#181818;stroke-width:0.5;" x1="201.5" x2="254.5" y1="707.5" y2="707.5"/><text fill="#000000" font-family="sans-serif" font-size="14" lengthAdjust="spacing" textLength="73" x="211.5" y="729.0332">Aggregates</text></g><!--entity ValueObjects_--><g id="elem_ValueObjects_"><path d="M342.5,686.5 L383.5,686.5 A3.75,3.75 0 0 1 386,689 L393,707.5 L455.5,707.5 A2.5,2.5 0 0 1 458,710 L458,739.6094 A2.5,2.5 0 0 1 455.5,742.1094 L342.5,742.1094 A2.5,2.5 0 0 1 340,739.6094 L340,689 A2.5,2.5 0 0 1 342.5,686.5 " fill="#F1F1F1" style="stroke:#181818;stroke-width:0.5;"/><line style="stroke:#181818;stroke-width:0.5;" x1="340" x2="393" y1="707.5" y2="707.5"/><text fill="#000000" font-family="sans-serif" font-size="14" lengthAdjust="spacing" textLength="88" x="350" y="729.0332">Value Objects</text></g><!--entity Services_--><g id="elem_Services_"><path d="M84.5,686.5 L125.5,686.5 A3.75,3.75 0 0 1 128,689 L135,707.5 L163.5,707.5 A2.5,2.5 0 0 1 166,710 L166,739.6094 A2.5,2.5 0 0 1 163.5,742.1094 L84.5,742.1094 A2.5,2.5 0 0 1 82,739.6094 L82,689 A2.5,2.5 0 0 1 84.5,686.5 " fill="#F1F1F1" style="stroke:#181818;stroke-width:0.5;"/><line style="stroke:#181818;stroke-width:0.5;" x1="82" x2="135" y1="707.5" y2="707.5"/><text fill="#000000" font-family="sans-serif" font-size="14" lengthAdjust="spacing" textLength="54" x="92" y="729.0332">Services</text></g><!--entity API--><g id="elem_API"><ellipse cx="1013" cy="166" fill="#F1F1F1" rx="8" ry="8" style="stroke:#181818;stroke-width:0.5;"/><text fill="#000000" font-family="sans-serif" font-size="14" lengthAdjust="spacing" textLength="21" x="1002.5" y="197.5332">API</text></g><!--entity A0API--><g id="elem_A0API"><ellipse cx="1541" cy="1498.5" fill="#F1F1F1" rx="8" ry="8" style="stroke:#181818;stroke-width:0.5;"/><text fill="#000000" font-family="sans-serif" font-size="14" lengthAdjust="spacing" textLength="62" x="1510" y="1530.0332">Auth0 API</text></g><!--entity DB_API--><g id="elem_DB_API"><ellipse cx="1141" cy="166" fill="#F1F1F1" rx="8" ry="8" style="stroke:#181818;stroke-width:0.5;"/><text fill="#000000" font-family="sans-serif" font-size="14" lengthAdjust="spacing" textLength="86" x="1098" y="197.5332">Database API</text></g><!--link API to P1--><g id="link_API_P1"><path d="M1013,175.25 C1013,205.27 1013,308.24 1013,332.74 " fill="none" id="API-P1" style="stroke:#181818;stroke-width:1.0;"/></g><!--reverse link DB_API to P2--><g id="link_DB_API_P2"><path d="M1141,185.25 C1141,215.27 1141,308.24 1141,332.74 " fill="none" id="DB_API-backto-P2" style="stroke:#181818;stroke-width:1.0;"/><path d="M1132.5428,178.3282 A9,9 0 0 0 1149.4572 178.3282" fill="none" style="stroke:#181818;stroke-width:1.5;"/></g><!--link P3 to A0API--><g id="link_P3_A0API"><path d="M1497.25,1498.5 C1508.76,1498.5 1510.26,1498.5 1521.77,1498.5 " fill="none" id="P3-to-A0API" style="stroke:#181818;stroke-width:1.0;"/><path d="M1528.6918,1490.0428 A9,9 0 0 0 1528.6918 1506.9572" fill="none" style="stroke:#181818;stroke-width:1.5;"/></g><!--link Routing to P1--><g id="link_Routing_P1"><path d="M974.55,681.93 C983.81,599.56 1008.28,381.94 1012.41,345.28 " fill="none" id="Routing-P1" style="stroke:#181818;stroke-width:1.0;"/></g><!--link Routing to Controller_API--><g id="link_Routing_Controller_API"><path d="M948.16,747.4 C935.4,765 919.07,787.15 904,806.5 C886.9,828.46 872.2837,845.9382 861.5137,858.6182 " fill="none" id="Routing-to-Controller_API" style="stroke:#181818;stroke-width:1.0;"/><path d="M863.4786,869.3688 A9,9 0 0 0 850.5868 858.4189" fill="none" style="stroke:#181818;stroke-width:1.5;"/></g><!--link Routing to DTOAPI--><g id="link_Routing_DTOAPI"><path d="M1001.27,747.07 C1023.37,771.89 1052.29,808.39 1069,845.5 C1121.32,961.7 1077.27,1008.75 1126,1126.5 C1135.74,1150.05 1147.6907,1166.3661 1157.6907,1178.5661 " fill="none" id="Routing-to-DTOAPI" style="stroke:#181818;stroke-width:1.0;"/><path d="M1168.6194,1178.5581 A9,9 0 0 0 1155.5379 1189.2806" fill="none" style="stroke:#181818;stroke-width:1.5;"/></g><!--link DatabaseDriver to DatabaseDriverAPI--><g id="link_DatabaseDriver_DatabaseDriverAPI"><path d="M1139.85,747.25 C1140.35,767.73 1143.39,794.38 1154,815.5 C1166.04,839.46 1191.79,859.17 1205.67,868.57 " fill="none" id="DatabaseDriver-DatabaseDriverAPI" style="stroke:#181818;stroke-width:1.0;"/></g><!--link DatabaseDriver to P2--><g id="link_DatabaseDriver_P2"><path d="M1141,681.93 C1141,599.56 1141,381.94 1141,345.28 " fill="none" id="DatabaseDriver-P2" style="stroke:#181818;stroke-width:1.0;"/></g><!--link DatabaseDriver to DataModel_API--><g id="link_DatabaseDriver_DataModel_API"><path d="M1111.81,747.29 C1077.35,784.81 1029.0147,837.4653 1009.1747,859.0653 " fill="none" id="DatabaseDriver-to-DataModel_API" style="stroke:#181818;stroke-width:1.0;"/><path d="M1010.7208,869.884 A9,9 0 0 0 998.2637 858.442" fill="none" style="stroke:#181818;stroke-width:1.5;"/></g><!--link Repository to RepoAPI--><g id="link_Repository_RepoAPI"><path d="M995,1086.65 C995,1119.13 995,1167.5 995,1186.46 " fill="none" id="Repository-RepoAPI" style="stroke:#181818;stroke-width:1.0;"/></g><!--reverse link DatabaseDriverAPI to Repository--><g id="link_DatabaseDriverAPI_Repository"><path d="M1196.019,878.8913 C1169.739,882.4213 1102.34,894.56 1056,935.5 C1030.08,958.4 1013.55,994.99 1004.33,1021.25 " fill="none" id="DatabaseDriverAPI-backto-Repository" style="stroke:#181818;stroke-width:1.0;"/><path d="M1201.7533,869.5878 A9,9 0 0 0 1204.0051 886.3517" fill="none" style="stroke:#181818;stroke-width:1.5;"/></g><!--reverse link DataModel_API to Repository--><g id="link_DataModel_API_Repository"><path d="M995,894.54 C995,918.35 995,979.4 995,1021.24 " fill="none" id="DataModel_API-backto-Repository" style="stroke:#181818;stroke-width:1.0;"/><path d="M986.5428,887.6182 A9,9 0 0 0 1003.4572 887.6182" fill="none" style="stroke:#181818;stroke-width:1.5;"/></g><!--link Repository to VOAPI--><g id="link_Repository_VOAPI"><path d="M979.21,1086.72 C956.05,1132.91 914.48,1214.4 904,1225.5 C881.13,1249.72 857.05,1235.89 840,1264.5 C794.58,1340.7 815.7418,1447.3196 823.4818,1479.3596 " fill="none" id="Repository-to-VOAPI" style="stroke:#181818;stroke-width:1.0;"/><path d="M833.3279,1484.102 A9,9 0 0 0 816.8864 1488.0738" fill="none" style="stroke:#181818;stroke-width:1.5;"/></g><!--link Repository to ModelAPI--><g id="link_Repository_ModelAPI"><path d="M1013.97,1086.53 C1051.6,1153.52 1127.06,1313.35 1067,1429.5 C1064.58,1434.17 1012.1828,1469.7717 988.5728,1485.6817 " fill="none" id="Repository-to-ModelAPI" style="stroke:#181818;stroke-width:1.0;"/><path d="M987.5588,1496.5633 A9,9 0 0 0 978.1066 1482.5364" fill="none" style="stroke:#181818;stroke-width:1.5;"/></g><!--link DataModel to DataModel_API--><g id="link_DataModel_DataModel_API"><path d="M798.67,747.38 C813.83,766.26 834.78,789.69 857,806.5 C900.67,839.53 962.89,863.27 985.95,871.41 " fill="none" id="DataModel-DataModel_API" style="stroke:#181818;stroke-width:1.0;"/></g><!--link Controller to ApplicationServiceAPI--><g id="link_Controller_ApplicationServiceAPI"><path d="M831.73,1086.65 C829.4,1119.13 826.6555,1157.5256 825.2955,1176.4856 " fill="none" id="Controller-to-ApplicationServiceAPI" style="stroke:#181818;stroke-width:1.0;"/><path d="M833.2358,1183.9948 A9,9 0 0 0 816.3647 1182.7846" fill="none" style="stroke:#181818;stroke-width:1.5;"/></g><!--link Controller_API to Controller--><g id="link_Controller_API_Controller"><path d="M847.36,884.54 C845.47,908.35 839.84,979.4 836.52,1021.24 " fill="none" id="Controller_API-Controller" style="stroke:#181818;stroke-width:1.0;"/></g><!--link Controller to DTOAPI--><g id="link_Controller_DTOAPI"><path d="M862.97,1086.55 C877.39,1100.59 895.82,1116.23 915,1126.5 C937.86,1138.73 1109.3507,1179.8691 1152.2107,1190.0491 " fill="none" id="Controller-to-DTOAPI" style="stroke:#181818;stroke-width:1.0;"/><path d="M1160.8995,1183.4203 A9,9 0 0 0 1156.9908 1199.877" fill="none" style="stroke:#181818;stroke-width:1.5;"/></g><!--link Controller to VOAPI--><g id="link_Controller_VOAPI"><path d="M804.49,1086.67 C781.04,1112.67 751.18,1147.96 745,1165.5 C700.74,1291.01 792.0083,1442.6898 816.8883,1480.7498 " fill="none" id="Controller-to-VOAPI" style="stroke:#181818;stroke-width:1.0;"/><path d="M827.7546,1481.916 A9,9 0 0 0 813.5968 1491.171" fill="none" style="stroke:#181818;stroke-width:1.5;"/></g><!--link ApplicationServiceAPI to ApplicationService--><g id="link_ApplicationServiceAPI_ApplicationService"><path d="M831.77,1204.86 C843.68,1217.68 867.14,1242.97 887,1264.5 C905.27,1284.32 925.73,1306.59 941.88,1324.21 " fill="none" id="ApplicationServiceAPI-ApplicationService" style="stroke:#181818;stroke-width:1.0;"/></g><!--link ApplicationService to P3--><g id="link_ApplicationService_P3"><path d="M998.41,1389.7 C1013.44,1404.7 1033.39,1421.13 1055,1429.5 C1079.47,1438.98 1264.89,1434.94 1291,1437.5 C1312.29,1439.59 1464.64,1454.72 1481,1468.5 C1488,1474.4 1490.11,1485.46 1490.74,1492.09 " fill="none" id="ApplicationService-P3" style="stroke:#181818;stroke-width:1.0;"/></g><!--link ApplicationService to VOAPI--><g id="link_ApplicationService_VOAPI"><path d="M938.55,1389.65 C905.26,1422.13 862.8389,1463.5179 843.3989,1482.4779 " fill="none" id="ApplicationService-to-VOAPI" style="stroke:#181818;stroke-width:1.0;"/><path d="M844.3486,1493.3652 A9,9 0 0 0 832.5387 1481.2563" fill="none" style="stroke:#181818;stroke-width:1.5;"/></g><!--reverse link RepoAPI to ApplicationService--><g id="link_RepoAPI_ApplicationService"><path d="M992.2906,1214.5185 C989.0206,1236.2285 981.44,1286.59 975.79,1324.2 " fill="none" id="RepoAPI-backto-ApplicationService" style="stroke:#181818;stroke-width:1.0;"/><path d="M984.9586,1206.4142 A9,9 0 0 0 1001.6844 1208.9335" fill="none" style="stroke:#181818;stroke-width:1.5;"/></g><!--link ApplicationService to ModelAPI--><g id="link_ApplicationService_ModelAPI"><path d="M971,1389.65 C971,1422.13 971,1460.5 971,1479.46 " fill="none" id="ApplicationService-to-ModelAPI" style="stroke:#181818;stroke-width:1.0;"/><path d="M979.4572,1486.3818 A9,9 0 0 0 962.5428 1486.3818" fill="none" style="stroke:#181818;stroke-width:1.5;"/></g><!--link DTO to DTOAPI--><g id="link_DTO_DTOAPI"><path d="M1198.06,1086.65 C1189.91,1119.13 1177.77,1167.5 1173.02,1186.46 " fill="none" id="DTO-DTOAPI" style="stroke:#181818;stroke-width:1.0;"/></g><!--link ModelAPI to DomainModelDDD--><g id="link_ModelAPI_DomainModelDDD"><path d="M964.99,1507.63 C948.92,1529.34 904.35,1589.59 876.53,1627.2 " fill="none" id="ModelAPI-DomainModelDDD" style="stroke:#181818;stroke-width:1.0;"/></g><!--link VOAPI to DomainModelDDD--><g id="link_VOAPI_DomainModelDDD"><path d="M829.27,1507.63 C832.68,1529.34 842.12,1589.59 848.02,1627.2 " fill="none" id="VOAPI-DomainModelDDD" style="stroke:#181818;stroke-width:1.0;"/></g><!--link Routes_ to Controllers_--><g id="link_Routes__Controllers_"><path d="M267.37,194.1 C266.62,226.02 265.5306,293.7616 264.7806,325.7516 " fill="none" id="Routes_-to-Controllers_" style="stroke:#181818;stroke-width:1.0;stroke-dasharray:7.0,7.0;"/><polygon fill="#181818" points="264.64,331.75,268.8498,322.8462,264.7572,326.7514,260.852,322.6587,264.64,331.75" style="stroke:#181818;stroke-width:1.0;"/></g><!--link Repositories_ to Persistence_--><g id="link_Repositories__Persistence_"><path d="M401.41,331.75 C399.54,299.76 396.8009,232.0097 394.9309,200.0897 " fill="none" id="Repositories_-to-Persistence_" style="stroke:#181818;stroke-width:1.0;stroke-dasharray:7.0,7.0;"/><polygon fill="#181818" points="394.58,194.1,391.1132,203.3185,394.8724,199.0914,399.0995,202.8507,394.58,194.1" style="stroke:#181818;stroke-width:1.0;"/></g><!--link Controllers_ to AppServices_--><g id="link_Controllers__AppServices_"><path d="M264.58,367.34 C265.34,403.08 266.5437,480.3213 267.2937,515.9413 " fill="none" id="Controllers_-to-AppServices_" style="stroke:#181818;stroke-width:1.0;stroke-dasharray:7.0,7.0;"/><polygon fill="#181818" points="267.42,521.94,271.2297,512.8578,267.3147,516.9411,263.2314,513.0262,267.42,521.94" style="stroke:#181818;stroke-width:1.0;"/></g><!--link Repositories_ to AppServices_--><g id="link_Repositories__AppServices_"><path d="M383.37,367.34 C357.7,403.08 316.5098,481.4465 290.9298,517.0665 " fill="none" id="Repositories_-to-AppServices_" style="stroke:#181818;stroke-width:1.0;stroke-dasharray:7.0,7.0;"/><polygon fill="#181818" points="287.43,521.94,295.9288,516.963,290.3465,517.8787,289.4308,512.2965,287.43,521.94" style="stroke:#181818;stroke-width:1.0;"/></g><!--link AppServices_ to Aggregates_--><g id="link_AppServices__Aggregates_"><path d="M265.79,557.08 C262.95,591.77 258.5489,666.5899 255.7089,701.3299 " fill="none" id="AppServices_-to-Aggregates_" style="stroke:#181818;stroke-width:1.0;stroke-dasharray:7.0,7.0;"/><polygon fill="#181818" points="255.22,707.31,259.94,698.6658,255.6274,702.3266,251.9666,698.014,255.22,707.31" style="stroke:#181818;stroke-width:1.0;"/></g><!--link AppServices_ to ValueObjects_--><g id="link_AppServices__ValueObjects_"><path d="M287.33,557.08 C312.1,591.77 351.3039,646.6866 376.1039,681.4266 " fill="none" id="AppServices_-to-ValueObjects_" style="stroke:#181818;stroke-width:1.0;stroke-dasharray:7.0,7.0;"/><polygon fill="#181818" points="379.59,686.31,377.6164,676.6609,376.6849,682.2405,371.1053,681.309,379.59,686.31" style="stroke:#181818;stroke-width:1.0;"/></g><!--link AppServices_ to Services_--><g id="link_AppServices__Services_"><path d="M245.38,557.23 C234.34,569.87 220.54,584.77 207,597 C197.56,605.52 192.56,604.6 184,614 C164.17,635.78 150.1616,680.7277 139.4416,701.8877 " fill="none" id="AppServices_-to-Services_" style="stroke:#181818;stroke-width:1.0;stroke-dasharray:7.0,7.0;"/><polygon fill="#181818" points="136.73,707.24,144.3656,701.0192,138.9896,702.7797,137.2291,697.4038,136.73,707.24" style="stroke:#181818;stroke-width:1.0;"/></g><!--link Infrastructure_ to InterfaceAdapters_--><g id="link_Infrastructure__InterfaceAdapters_"><path d="M190.1862,218.4406 C190.074,219.6392 189.9609,220.8484 189.8468,222.0671 C188.9345,231.8169 187.9653,242.1737 186.9963,252.53 C186.754,255.1191 186.5117,257.7081 186.2704,260.2876 C186.1497,261.5773 186.0292,262.8647 185.9091,264.1485 C185.849,264.7904 185.789,265.4314 185.7292,266.0713 C185.7142,266.2313 186.2582,260.4173 186.2433,260.5772 " fill="none" id="Infrastructure_-to-InterfaceAdapters_" style="stroke:#181818;stroke-width:1.0;stroke-dasharray:7.0,7.0;"/><polygon fill="#181818" points="185.6843,266.5511,190.5053,257.9629,186.1501,261.5728,182.5401,257.2176,185.6843,266.5511" style="stroke:#181818;stroke-width:1.0;"/></g><!--link InterfaceAdapters_ to ApplicationServices_--><g id="link_InterfaceAdapters__ApplicationServices_"><path d="M178.1767,391.6738 C178.1715,391.9954 178.1664,392.3178 178.1612,392.641 C178.1199,395.2268 178.0778,397.8647 178.035,400.5444 C177.8637,411.2631 177.6819,422.6494 177.5,434.035 C177.4091,439.7278 177.3181,445.4205 177.2285,451.0294 C177.2061,452.4317 177.1838,453.8287 177.1616,455.2192 C177.156,455.5668 177.1505,455.914 177.1449,456.2608 C177.1422,456.4342 177.2353,450.6082 177.2325,450.7814 " fill="none" id="InterfaceAdapters_-to-ApplicationServices_" style="stroke:#181818;stroke-width:1.0;stroke-dasharray:7.0,7.0;"/><polygon fill="#181818" points="177.1366,456.7807,181.2799,447.8457,177.2165,451.7813,173.2809,447.7179,177.1366,456.7807" style="stroke:#181818;stroke-width:1.0;"/></g><!--link ApplicationServices_ to Domain_--><g id="link_ApplicationServices__Domain_"><path d="M167.9457,533.5763 C167.8467,533.6225 167.7469,533.6692 167.6463,533.7162 C166.0366,534.4693 164.2263,535.3339 162.2437,536.3075 C154.3138,540.2019 143.63,545.84 132.025,553.0575 C108.815,567.4925 81.92,588.245 66,614 C63.0875,618.7125 60.6041,623.7717 58.4882,629.021 C57.4303,631.6456 56.4642,634.3178 55.5824,637.0179 C55.1415,638.3679 54.7216,639.7249 54.3219,641.0865 C54.2219,641.4269 55.7722,635.9986 55.6748,636.3395 " fill="none" id="ApplicationServices_-to-Domain_" style="stroke:#181818;stroke-width:1.0;stroke-dasharray:7.0,7.0;"/><polygon fill="#181818" points="54.0258,642.1085,60.3452,634.5543,55.3999,637.301,52.6533,632.3557,54.0258,642.1085" style="stroke:#181818;stroke-width:1.0;"/></g><!--link Infrastructure_ to Infrastructure--><g id="link_Infrastructure__Infrastructure"><path d="M202.1474,218.2474 C202.1969,218.3536 202.2468,218.4596 202.2969,218.5654 C202.6983,219.4121 203.1197,220.2476 203.5621,221.07 C204.4469,222.7149 205.4158,224.3071 206.4763,225.8299 C208.5973,228.8756 211.085,231.6438 214,234 C259.03,270.4 421.26,227.11 474,251 C567.9,293.53 568.16,339.19 638,415 C713.42,496.87 701.86,553.48 800,606 C813.61,613.28 858.5,602.68 869,614 C872.7038,617.9925 875.5566,622.5089 877.7118,627.3598 C878.7894,629.7853 879.6926,632.2944 880.4406,634.8635 C880.6276,635.5057 880.8049,636.1518 880.9727,636.8011 C881.0567,637.1258 879.7218,631.621 879.8011,631.9473 " fill="none" id="Infrastructure_-to-Infrastructure" style="stroke:#181818;stroke-width:1.0;stroke-dasharray:7.0,7.0;"/><polygon fill="#181818" points="881.2176,637.7777,882.9798,628.0878,880.0372,632.919,875.206,629.9764,881.2176,637.7777" style="stroke:#181818;stroke-width:1.0;"/><text fill="#000000" font-family="sans-serif" font-size="13" lengthAdjust="spacing" textLength="63" x="653" y="429.4951">&#171;manifest&#187;</text></g><!--link InterfaceAdapters_ to InterfaceAdapters--><g id="link_InterfaceAdapters__InterfaceAdapters"><path d="M187.1239,391.1194 C187.1727,391.227 187.2219,391.3346 187.2713,391.442 C187.3701,391.6567 187.4701,391.8709 187.5712,392.0845 C187.7734,392.5117 187.9802,392.9365 188.1916,393.3587 C189.0375,395.0474 189.9582,396.6939 190.9603,398.2828 C192.9644,401.4605 195.2938,404.4075 198,407 C245.17,452.19 278.08,423.45 341,441 C462.85,474.99 612,401.5 612,528 C612,528 612,528 612,876.5 C612,923.685 642.04,967.18 672.5487,999.1863 C687.8031,1015.1894 703.1747,1028.3203 714.967,1037.6042 C717.9151,1039.9252 720.6395,1042.0057 723.0824,1043.8306 C724.3039,1044.743 725.455,1045.5915 726.5285,1046.3742 C726.7969,1046.5699 727.0604,1046.7615 727.319,1046.9489 C727.4483,1047.0426 722.7134,1043.6207 722.8402,1043.7124 " fill="none" id="InterfaceAdapters_-to-InterfaceAdapters" style="stroke:#181818;stroke-width:1.0;stroke-dasharray:7.0,7.0;"/><polygon fill="#181818" points="727.7031,1047.2269,722.7517,1038.7132,723.6507,1044.2981,718.0657,1045.1971,727.7031,1047.2269" style="stroke:#181818;stroke-width:1.0;"/><text fill="#000000" font-family="sans-serif" font-size="13" lengthAdjust="spacing" textLength="63" x="613" y="719.9951">&#171;manifest&#187;</text></g><!--link ApplicationServices_ to ApplicationServices--><g id="link_ApplicationServices__ApplicationServices"><path d="M183.1312,581.2688 C183.1808,581.3749 183.2307,581.4808 183.2809,581.5866 C183.6826,582.4327 184.1044,583.2677 184.5472,584.0895 C185.4329,585.733 186.4029,587.3237 187.4648,588.8447 C189.5886,591.8867 192.08,594.65 195,597 C243.39,635.94 422.15,579.8 474,614 C515.32,641.25 524,664.01 524,713.5 C524,713.5 524,713.5 524,1196.5 C524,1277.71 605.7075,1317.6 688.0538,1337.18 C729.2269,1346.97 770.5597,1351.6825 801.9186,1353.9438 C817.598,1355.0744 830.784,1355.5922 840.2098,1355.8255 C842.5663,1355.8838 844.6877,1355.9243 846.5543,1355.9522 C847.021,1355.9592 841.4722,1355.8898 841.9067,1355.8953 " fill="none" id="ApplicationServices_-to-ApplicationServices" style="stroke:#181818;stroke-width:1.0;stroke-dasharray:7.0,7.0;"/><polygon fill="#181818" points="847.9062,1355.9708,838.9573,1351.8579,842.9066,1355.9079,838.8566,1359.8572,847.9062,1355.9708" style="stroke:#181818;stroke-width:1.0;"/><text fill="#000000" font-family="sans-serif" font-size="13" lengthAdjust="spacing" textLength="63" x="525" y="949.9951">&#171;manifest&#187;</text></g><!--link Domain_ to Domain--><g id="link_Domain__Domain"><path d="M49.0029,766.7155 C49.0329,766.8708 49.0632,767.026 49.0937,767.1813 C49.1548,767.492 49.217,767.8027 49.2805,768.1136 C49.5341,769.3572 49.8064,770.6027 50.0985,771.8476 C50.6828,774.3374 51.3464,776.8247 52.0989,779.2895 C55.1087,789.1488 59.54,798.6475 66,806.5 C115.35,866.48 227,796.82 227,874.5 C227,874.5 227,874.5 227,1499.5 C227,1558.305 352.27,1598.02 478.5188,1623.1125 C541.6431,1635.6588 605.0122,1644.5494 653.0895,1650.3428 C677.1282,1653.2395 697.3439,1655.362 711.7947,1656.7799 C715.4074,1657.1344 718.6598,1657.4448 721.5215,1657.7123 C722.9524,1657.8461 724.2856,1657.9691 725.5173,1658.0815 C726.1332,1658.1377 720.7479,1657.6523 721.3126,1657.7033 " fill="none" id="Domain_-to-Domain" style="stroke:#181818;stroke-width:1.0;stroke-dasharray:7.0,7.0;"/><polygon fill="#181818" points="727.2883,1658.2422,718.684,1653.4499,722.3086,1657.7931,717.9654,1661.4176,727.2883,1658.2422" style="stroke:#181818;stroke-width:1.0;"/><text fill="#000000" font-family="sans-serif" font-size="13" lengthAdjust="spacing" textLength="63" x="228" y="1200.9951">&#171;manifest&#187;</text></g><!--SRC=[fLPBJnin4BxlhnZbb1w2A72g458WhOJKAX4Whf7PEAdBPhsolLIeuhztl7wiNukGE2MU-URfRyQhU0UAmnDNYXzXnmIj5UDjLLMiLLJiIKrXjjpSpe18mDz8tAlVf-2LfubwHHHv8f9wnEfwgo5LpOyTRschO7PDwcVQxa1ZuHTfoO4UKJ70hKwhHWrSNdhpgoiytLp03MyLOIqLAFXN0NHSADR230Otcw-vwCoAUA-yxBn2uUsOllOgUDDGuGiOHKCX4TnKm7Uq6UlLcMk9AHjWpviTkflz4EH8_tBnB87euWLxeKB2J_9AnM1vs-u5aKhqjUe5rJK115tpdJMMFfYM6L7I9kFXBVLpX_MpzZ3Os_-JXc-wW327XxM9-x0ks6HetvsuCrEcGMENNGVtLBomcahJskKzeB1XDT5KjRhYXGHDygPnepApEzfnZzM7t35Mx9qzh3DzG0943ASCypYwU5mdx1XXontfLCeCgtIwZ1mZIHFEVf0JMB9aYejNGmj_V9yPBldWOk2wbpYL4ftq3PLcIMJt9Y6h8FHXKHF67ylfk-vP9nXoeP3IYXznUUHPMBcvpTLg5O076OhU2Oy9uBN2Og7tp-OC5lrYxXRWvXpb0izcPLPkz1O6FHxdwSO9LPPwLJBuw2DdU8x15PW9v_760inil7sqSTCGIdjh5SM38YHm7FcTsn68X2XramEcHdCHjhmmoO3Xsgoy6a9GlqZxchYmhKsaTb0BBDGUos5Bu8L-QueA5wCSOkuk0AQimuxXajAzSYI9UQiJ7i45fQtrKq_rDdkhQ_TGm_pcuekT63kbyPENFu9REruMli7LnwIYRJrWW-CsXEc1mHLZtpSgj-bko9TjUSqcuKTgo7Z9oZYyepIpIGJdxNkhqot7gQMPf1Czaix6OzD0vhw3VPPvEnm4FH3bVFbZLDpiaJGzXVNJ7_ncDCX1OWKnDaekpkpDR41TrCd9LTpBg663Ehhf43jeex9puqWT7emsg3DJngLbwj5jbV9MgtC-LGMAsHIpowwA3D1eUt-be2PiD5JVS0QFf6LxAd4WonaKiqqj9_APo3-rTgGp1lQTJJ3_0G00]--></g></svg>