<?xml version="1.0" encoding="us-ascii" standalone="no"?><svg xmlns="http://www.w3.org/2000/svg" xmlns:xlink="http://www.w3.org/1999/xlink" contentStyleType="text/css" height="1306px" preserveAspectRatio="none" style="width:1526px;height:1306px;background:#FFFFFF;" version="1.1" viewBox="0 0 1526 1306" width="1526px" zoomAndPan="magnify"><defs/><g><rect fill="#FFFFFF" height="1094.6563" style="stroke:#181818;stroke-width:1.0;" width="10" x="50" y="96.2188"/><rect fill="#FFFFFF" height="1072.3047" style="stroke:#181818;stroke-width:1.0;" width="10" x="305" y="118.5703"/><rect fill="#FFFFFF" height="1019.6016" style="stroke:#181818;stroke-width:1.0;" width="10" x="687" y="148.9219"/><rect fill="#FFFFFF" height="30.3516" style="stroke:#181818;stroke-width:1.0;" width="10" x="1209" y="1085.8203"/><rect fill="#FFFFFF" height="30.3516" style="stroke:#181818;stroke-width:1.0;" width="10" x="1311" y="179.2734"/><rect fill="#FFFFFF" height="30.3516" style="stroke:#181818;stroke-width:1.0;" width="10" x="1311" y="881.3594"/><rect fill="#FFFFFF" height="30.3516" style="stroke:#181818;stroke-width:1.0;" width="10" x="1434.5" y="326.0313"/><rect fill="#FFFFFF" height="30.3516" style="stroke:#181818;stroke-width:1.0;" width="10" x="1434.5" y="972.4141"/><rect fill="none" height="936.8984" style="stroke:#000000;stroke-width:1.5;" width="1510" x="10" y="224.625"/><rect fill="none" height="783.1406" style="stroke:#000000;stroke-width:1.5;" width="1490" x="20" y="371.3828"/><rect fill="none" height="48.7031" style="stroke:#000000;stroke-width:1.5;" width="450" x="637" y="459.4375"/><rect fill="none" height="48.7031" style="stroke:#000000;stroke-width:1.5;" width="538" x="637" y="522.1406"/><rect fill="none" height="48.7031" style="stroke:#000000;stroke-width:1.5;" width="538" x="637" y="584.8438"/><rect fill="none" height="48.7031" style="stroke:#000000;stroke-width:1.5;" width="538" x="637" y="647.5469"/><rect fill="none" height="79.0547" style="stroke:#000000;stroke-width:1.5;" width="538" x="637" y="710.25"/><rect fill="none" height="48.7031" style="stroke:#000000;stroke-width:1.5;" width="538" x="637" y="803.3047"/><line style="stroke:#181818;stroke-width:0.5;stroke-dasharray:5.0,5.0;" x1="55" x2="55" y1="86.2188" y2="1208.875"/><line style="stroke:#181818;stroke-width:0.5;stroke-dasharray:5.0,5.0;" x1="310" x2="310" y1="86.2188" y2="1208.875"/><line style="stroke:#181818;stroke-width:0.5;stroke-dasharray:5.0,5.0;" x1="692" x2="692" y1="86.2188" y2="1208.875"/><line style="stroke:#181818;stroke-width:0.5;stroke-dasharray:5.0,5.0;" x1="1038" x2="1038" y1="86.2188" y2="1208.875"/><line style="stroke:#181818;stroke-width:0.5;stroke-dasharray:5.0,5.0;" x1="1126" x2="1126" y1="86.2188" y2="1208.875"/><line style="stroke:#181818;stroke-width:0.5;stroke-dasharray:5.0,5.0;" x1="1214" x2="1214" y1="86.2188" y2="1208.875"/><line style="stroke:#181818;stroke-width:0.5;stroke-dasharray:5.0,5.0;" x1="1316" x2="1316" y1="86.2188" y2="1208.875"/><line style="stroke:#181818;stroke-width:0.5;stroke-dasharray:5.0,5.0;" x1="1439" x2="1439" y1="86.2188" y2="1208.875"/><text fill="#000000" font-family="sans-serif" font-size="14" lengthAdjust="spacing" textLength="44" x="30" y="83.1426">Patient</text><ellipse cx="55" cy="17.1094" fill="#E2E2F0" rx="8" ry="8" style="stroke:#181818;stroke-width:0.5;"/><path d="M55,25.1094 L55,52.1094 M42,33.1094 L68,33.1094 M55,52.1094 L42,67.1094 M55,52.1094 L68,67.1094 " fill="none" style="stroke:#181818;stroke-width:0.5;"/><text fill="#000000" font-family="sans-serif" font-size="14" lengthAdjust="spacing" textLength="44" x="30" y="1222.4082">Patient</text><ellipse cx="55" cy="1233.9844" fill="#E2E2F0" rx="8" ry="8" style="stroke:#181818;stroke-width:0.5;"/><path d="M55,1241.9844 L55,1268.9844 M42,1249.9844 L68,1249.9844 M55,1268.9844 L42,1283.9844 M55,1268.9844 L68,1283.9844 " fill="none" style="stroke:#181818;stroke-width:0.5;"/><rect fill="#E2E2F0" height="49.2188" rx="2.5" ry="2.5" style="stroke:#181818;stroke-width:0.5;" width="112" x="254" y="36"/><text fill="#000000" font-family="sans-serif" font-size="14" font-style="italic" lengthAdjust="spacing" textLength="78" x="271" y="57.5332">&#171;Controller&#187;</text><text fill="#000000" font-family="sans-serif" font-size="14" lengthAdjust="spacing" textLength="98" x="261" y="75.1426">UsersController</text><rect fill="#E2E2F0" height="49.2188" rx="2.5" ry="2.5" style="stroke:#181818;stroke-width:0.5;" width="112" x="254" y="1207.875"/><text fill="#000000" font-family="sans-serif" font-size="14" font-style="italic" lengthAdjust="spacing" textLength="78" x="271" y="1229.4082">&#171;Controller&#187;</text><text fill="#000000" font-family="sans-serif" font-size="14" lengthAdjust="spacing" textLength="98" x="261" y="1247.0176">UsersController</text><rect fill="#E2E2F0" height="49.2188" rx="2.5" ry="2.5" style="stroke:#181818;stroke-width:0.5;" width="90" x="647" y="36"/><text fill="#000000" font-family="sans-serif" font-size="14" font-style="italic" lengthAdjust="spacing" textLength="62" x="661" y="57.5332">&#171;Service&#187;</text><text fill="#000000" font-family="sans-serif" font-size="14" lengthAdjust="spacing" textLength="76" x="654" y="75.1426">UserService</text><rect fill="#E2E2F0" height="49.2188" rx="2.5" ry="2.5" style="stroke:#181818;stroke-width:0.5;" width="90" x="647" y="1207.875"/><text fill="#000000" font-family="sans-serif" font-size="14" font-style="italic" lengthAdjust="spacing" textLength="62" x="661" y="1229.4082">&#171;Service&#187;</text><text fill="#000000" font-family="sans-serif" font-size="14" lengthAdjust="spacing" textLength="76" x="654" y="1247.0176">UserService</text><rect fill="#E2E2F0" height="49.2188" rx="2.5" ry="2.5" style="stroke:#181818;stroke-width:0.5;" width="78" x="999" y="36"/><text fill="#000000" font-family="sans-serif" font-size="14" font-style="italic" lengthAdjust="spacing" textLength="64" x="1006" y="57.5332">&#171;Domain&#187;</text><text fill="#000000" font-family="sans-serif" font-size="14" lengthAdjust="spacing" textLength="29" x="1023.5" y="75.1426">User</text><rect fill="#E2E2F0" height="49.2188" rx="2.5" ry="2.5" style="stroke:#181818;stroke-width:0.5;" width="78" x="999" y="1207.875"/><text fill="#000000" font-family="sans-serif" font-size="14" font-style="italic" lengthAdjust="spacing" textLength="64" x="1006" y="1229.4082">&#171;Domain&#187;</text><text fill="#000000" font-family="sans-serif" font-size="14" lengthAdjust="spacing" textLength="29" x="1023.5" y="1247.0176">User</text><rect fill="#E2E2F0" height="49.2188" rx="2.5" ry="2.5" style="stroke:#181818;stroke-width:0.5;" width="78" x="1087" y="36"/><text fill="#000000" font-family="sans-serif" font-size="14" font-style="italic" lengthAdjust="spacing" textLength="64" x="1094" y="57.5332">&#171;Domain&#187;</text><text fill="#000000" font-family="sans-serif" font-size="14" lengthAdjust="spacing" textLength="44" x="1104" y="75.1426">Patient</text><rect fill="#E2E2F0" height="49.2188" rx="2.5" ry="2.5" style="stroke:#181818;stroke-width:0.5;" width="78" x="1087" y="1207.875"/><text fill="#000000" font-family="sans-serif" font-size="14" font-style="italic" lengthAdjust="spacing" textLength="64" x="1094" y="1229.4082">&#171;Domain&#187;</text><text fill="#000000" font-family="sans-serif" font-size="14" lengthAdjust="spacing" textLength="44" x="1104" y="1247.0176">Patient</text><rect fill="#E2E2F0" height="49.2188" rx="2.5" ry="2.5" style="stroke:#181818;stroke-width:0.5;" width="78" x="1175" y="36"/><text fill="#000000" font-family="sans-serif" font-size="14" font-style="italic" lengthAdjust="spacing" textLength="64" x="1182" y="57.5332">&#171;Domain&#187;</text><text fill="#000000" font-family="sans-serif" font-size="14" lengthAdjust="spacing" textLength="51" x="1188.5" y="75.1426">UserDto</text><rect fill="#E2E2F0" height="49.2188" rx="2.5" ry="2.5" style="stroke:#181818;stroke-width:0.5;" width="78" x="1175" y="1207.875"/><text fill="#000000" font-family="sans-serif" font-size="14" font-style="italic" lengthAdjust="spacing" textLength="64" x="1182" y="1229.4082">&#171;Domain&#187;</text><text fill="#000000" font-family="sans-serif" font-size="14" lengthAdjust="spacing" textLength="51" x="1188.5" y="1247.0176">UserDto</text><text fill="#000000" font-family="sans-serif" font-size="14" font-style="italic" lengthAdjust="spacing" textLength="64" x="1281" y="65.5332">&#171;Domain&#187;</text><text fill="#000000" font-family="sans-serif" font-size="14" lengthAdjust="spacing" textLength="100" x="1263" y="83.1426">IUserRepository</text><path d="M1298,15 C1298,5 1316,5 1316,5 C1316,5 1334,5 1334,15 L1334,41 C1334,51 1316,51 1316,51 C1316,51 1298,51 1298,41 L1298,15 " fill="#E2E2F0" style="stroke:#181818;stroke-width:1.5;"/><path d="M1298,15 C1298,25 1316,25 1316,25 C1316,25 1334,25 1334,15 " fill="none" style="stroke:#181818;stroke-width:1.5;"/><text fill="#000000" font-family="sans-serif" font-size="14" font-style="italic" lengthAdjust="spacing" textLength="64" x="1281" y="1222.4082">&#171;Domain&#187;</text><text fill="#000000" font-family="sans-serif" font-size="14" lengthAdjust="spacing" textLength="100" x="1263" y="1240.0176">IUserRepository</text><path d="M1298,1253.0938 C1298,1243.0938 1316,1243.0938 1316,1243.0938 C1316,1243.0938 1334,1243.0938 1334,1253.0938 L1334,1279.0938 C1334,1289.0938 1316,1289.0938 1316,1289.0938 C1316,1289.0938 1298,1289.0938 1298,1279.0938 L1298,1253.0938 " fill="#E2E2F0" style="stroke:#181818;stroke-width:1.5;"/><path d="M1298,1253.0938 C1298,1263.0938 1316,1263.0938 1316,1263.0938 C1316,1263.0938 1334,1263.0938 1334,1253.0938 " fill="none" style="stroke:#181818;stroke-width:1.5;"/><text fill="#000000" font-family="sans-serif" font-size="14" font-style="italic" lengthAdjust="spacing" textLength="64" x="1404.5" y="65.5332">&#171;Domain&#187;</text><text fill="#000000" font-family="sans-serif" font-size="14" lengthAdjust="spacing" textLength="115" x="1379" y="83.1426">IPatientRepository</text><path d="M1421.5,15 C1421.5,5 1439.5,5 1439.5,5 C1439.5,5 1457.5,5 1457.5,15 L1457.5,41 C1457.5,51 1439.5,51 1439.5,51 C1439.5,51 1421.5,51 1421.5,41 L1421.5,15 " fill="#E2E2F0" style="stroke:#181818;stroke-width:1.5;"/><path d="M1421.5,15 C1421.5,25 1439.5,25 1439.5,25 C1439.5,25 1457.5,25 1457.5,15 " fill="none" style="stroke:#181818;stroke-width:1.5;"/><text fill="#000000" font-family="sans-serif" font-size="14" font-style="italic" lengthAdjust="spacing" textLength="64" x="1404.5" y="1222.4082">&#171;Domain&#187;</text><text fill="#000000" font-family="sans-serif" font-size="14" lengthAdjust="spacing" textLength="115" x="1379" y="1240.0176">IPatientRepository</text><path d="M1421.5,1253.0938 C1421.5,1243.0938 1439.5,1243.0938 1439.5,1243.0938 C1439.5,1243.0938 1457.5,1243.0938 1457.5,1253.0938 L1457.5,1279.0938 C1457.5,1289.0938 1439.5,1289.0938 1439.5,1289.0938 C1439.5,1289.0938 1421.5,1289.0938 1421.5,1279.0938 L1421.5,1253.0938 " fill="#E2E2F0" style="stroke:#181818;stroke-width:1.5;"/><path d="M1421.5,1253.0938 C1421.5,1263.0938 1439.5,1263.0938 1439.5,1263.0938 C1439.5,1263.0938 1457.5,1263.0938 1457.5,1253.0938 " fill="none" style="stroke:#181818;stroke-width:1.5;"/><rect fill="#FFFFFF" height="1094.6563" style="stroke:#181818;stroke-width:1.0;" width="10" x="50" y="96.2188"/><rect fill="#FFFFFF" height="1072.3047" style="stroke:#181818;stroke-width:1.0;" width="10" x="305" y="118.5703"/><rect fill="#FFFFFF" height="1019.6016" style="stroke:#181818;stroke-width:1.0;" width="10" x="687" y="148.9219"/><rect fill="#FFFFFF" height="30.3516" style="stroke:#181818;stroke-width:1.0;" width="10" x="1209" y="1085.8203"/><rect fill="#FFFFFF" height="30.3516" style="stroke:#181818;stroke-width:1.0;" width="10" x="1311" y="179.2734"/><rect fill="#FFFFFF" height="30.3516" style="stroke:#181818;stroke-width:1.0;" width="10" x="1311" y="881.3594"/><rect fill="#FFFFFF" height="30.3516" style="stroke:#181818;stroke-width:1.0;" width="10" x="1434.5" y="326.0313"/><rect fill="#FFFFFF" height="30.3516" style="stroke:#181818;stroke-width:1.0;" width="10" x="1434.5" y="972.4141"/><polygon fill="#181818" points="293,114.5703,303,118.5703,293,122.5703,297,118.5703" style="stroke:#181818;stroke-width:1.0;"/><line style="stroke:#181818;stroke-width:1.0;" x1="60" x2="299" y1="118.5703" y2="118.5703"/><text fill="#000000" font-family="sans-serif" font-size="13" font-weight="bold" lengthAdjust="spacing" textLength="7" x="67" y="113.7139">1</text><text fill="#000000" font-family="sans-serif" font-size="13" lengthAdjust="spacing" textLength="215" x="78" y="113.7139">POST /api/users/patients/{username}</text><polygon fill="#181818" points="675,144.9219,685,148.9219,675,152.9219,679,148.9219" style="stroke:#181818;stroke-width:1.0;"/><line style="stroke:#181818;stroke-width:1.0;" x1="315" x2="681" y1="148.9219" y2="148.9219"/><text fill="#000000" font-family="sans-serif" font-size="13" font-weight="bold" lengthAdjust="spacing" textLength="7" x="322" y="144.0654">2</text><text fill="#000000" font-family="sans-serif" font-size="13" lengthAdjust="spacing" textLength="342" x="333" y="144.0654">UpdateUserPatientAsync(username,updateUserPatientDto)</text><polygon fill="#181818" points="1299,175.2734,1309,179.2734,1299,183.2734,1303,179.2734" style="stroke:#181818;stroke-width:1.0;"/><line style="stroke:#181818;stroke-width:1.0;" x1="697" x2="1305" y1="179.2734" y2="179.2734"/><text fill="#000000" font-family="sans-serif" font-size="13" font-weight="bold" lengthAdjust="spacing" textLength="7" x="704" y="174.417">3</text><text fill="#000000" font-family="sans-serif" font-size="13" lengthAdjust="spacing" textLength="149" x="715" y="174.417">GetByIdAsync(username)</text><polygon fill="#181818" points="708,205.625,698,209.625,708,213.625,704,209.625" style="stroke:#181818;stroke-width:1.0;"/><line style="stroke:#181818;stroke-width:1.0;stroke-dasharray:2.0,2.0;" x1="702" x2="1315" y1="209.625" y2="209.625"/><text fill="#000000" font-family="sans-serif" font-size="13" font-weight="bold" lengthAdjust="spacing" textLength="7" x="714" y="204.7686">4</text><text fill="#000000" font-family="sans-serif" font-size="13" lengthAdjust="spacing" textLength="25" x="725" y="204.7686">user</text><path d="M10,224.625 L71,224.625 L71,232.9766 L61,242.9766 L10,242.9766 L10,224.625 " fill="#EEEEEE" style="stroke:#000000;stroke-width:1.5;"/><rect fill="none" height="936.8984" style="stroke:#000000;stroke-width:1.5;" width="1510" x="10" y="224.625"/><text fill="#000000" font-family="sans-serif" font-size="13" font-weight="bold" lengthAdjust="spacing" textLength="16" x="25" y="239.1201">alt</text><text fill="#000000" font-family="sans-serif" font-size="11" font-weight="bold" lengthAdjust="spacing" textLength="72" x="86" y="238.0439">[user == null]</text><polygon fill="#181818" points="326,261.3281,316,265.3281,326,269.3281,322,265.3281" style="stroke:#181818;stroke-width:1.0;"/><line style="stroke:#181818;stroke-width:1.0;stroke-dasharray:2.0,2.0;" x1="320" x2="686" y1="265.3281" y2="265.3281"/><text fill="#000000" font-family="sans-serif" font-size="13" font-weight="bold" lengthAdjust="spacing" textLength="7" x="332" y="260.4717">5</text><text fill="#000000" font-family="sans-serif" font-size="13" lengthAdjust="spacing" textLength="138" x="343" y="260.4717">NullReferenceException</text><polygon fill="#181818" points="71,291.6797,61,295.6797,71,299.6797,67,295.6797" style="stroke:#181818;stroke-width:1.0;"/><line style="stroke:#181818;stroke-width:1.0;stroke-dasharray:2.0,2.0;" x1="65" x2="304" y1="295.6797" y2="295.6797"/><text fill="#000000" font-family="sans-serif" font-size="13" font-weight="bold" lengthAdjust="spacing" textLength="7" x="77" y="290.8232">6</text><text fill="#000000" font-family="sans-serif" font-size="13" lengthAdjust="spacing" textLength="85" x="88" y="290.8232">404 Not Found</text><polygon fill="#181818" points="1422.5,322.0313,1432.5,326.0313,1422.5,330.0313,1426.5,326.0313" style="stroke:#181818;stroke-width:1.0;"/><line style="stroke:#181818;stroke-width:1.0;" x1="697" x2="1428.5" y1="326.0313" y2="326.0313"/><text fill="#000000" font-family="sans-serif" font-size="13" font-weight="bold" lengthAdjust="spacing" textLength="7" x="704" y="321.1748">7</text><text fill="#000000" font-family="sans-serif" font-size="13" lengthAdjust="spacing" textLength="176" x="715" y="321.1748">GetByUserIdAsync(username)</text><polygon fill="#181818" points="708,352.3828,698,356.3828,708,360.3828,704,356.3828" style="stroke:#181818;stroke-width:1.0;"/><line style="stroke:#181818;stroke-width:1.0;stroke-dasharray:2.0,2.0;" x1="702" x2="1438.5" y1="356.3828" y2="356.3828"/><text fill="#000000" font-family="sans-serif" font-size="13" font-weight="bold" lengthAdjust="spacing" textLength="7" x="714" y="351.5264">8</text><text fill="#000000" font-family="sans-serif" font-size="13" lengthAdjust="spacing" textLength="39" x="725" y="351.5264">patient</text><path d="M20,371.3828 L81,371.3828 L81,379.7344 L71,389.7344 L20,389.7344 L20,371.3828 " fill="#EEEEEE" style="stroke:#000000;stroke-width:1.5;"/><rect fill="none" height="783.1406" style="stroke:#000000;stroke-width:1.5;" width="1490" x="20" y="371.3828"/><text fill="#000000" font-family="sans-serif" font-size="13" font-weight="bold" lengthAdjust="spacing" textLength="16" x="35" y="385.8779">alt</text><text fill="#000000" font-family="sans-serif" font-size="11" font-weight="bold" lengthAdjust="spacing" textLength="84" x="96" y="384.8018">[patient == null]</text><polygon fill="#181818" points="326,408.0859,316,412.0859,326,416.0859,322,412.0859" style="stroke:#181818;stroke-width:1.0;"/><line style="stroke:#181818;stroke-width:1.0;stroke-dasharray:2.0,2.0;" x1="320" x2="686" y1="412.0859" y2="412.0859"/><text fill="#000000" font-family="sans-serif" font-size="13" font-weight="bold" lengthAdjust="spacing" textLength="7" x="332" y="407.2295">9</text><text fill="#000000" font-family="sans-serif" font-size="13" lengthAdjust="spacing" textLength="138" x="343" y="407.2295">NullReferenceException</text><polygon fill="#181818" points="71,438.4375,61,442.4375,71,446.4375,67,442.4375" style="stroke:#181818;stroke-width:1.0;"/><line style="stroke:#181818;stroke-width:1.0;stroke-dasharray:2.0,2.0;" x1="65" x2="304" y1="442.4375" y2="442.4375"/><text fill="#000000" font-family="sans-serif" font-size="13" font-weight="bold" lengthAdjust="spacing" textLength="14" x="77" y="437.5811">10</text><text fill="#000000" font-family="sans-serif" font-size="13" lengthAdjust="spacing" textLength="85" x="95" y="437.5811">404 Not Found</text><line style="stroke:#000000;stroke-width:1.0;stroke-dasharray:2.0,2.0;" x1="20" x2="1510" y1="451.4375" y2="451.4375"/><path d="M637,459.4375 L698,459.4375 L698,467.7891 L688,477.7891 L637,477.7891 L637,459.4375 " fill="#EEEEEE" style="stroke:#000000;stroke-width:1.5;"/><rect fill="none" height="48.7031" style="stroke:#000000;stroke-width:1.5;" width="450" x="637" y="459.4375"/><text fill="#000000" font-family="sans-serif" font-size="13" font-weight="bold" lengthAdjust="spacing" textLength="16" x="652" y="473.9326">alt</text><text fill="#000000" font-family="sans-serif" font-size="11" font-weight="bold" lengthAdjust="spacing" textLength="197" x="713" y="472.8564">[updatePatientDto.Username != null]</text><polygon fill="#181818" points="1026,496.1406,1036,500.1406,1026,504.1406,1030,500.1406" style="stroke:#181818;stroke-width:1.0;"/><line style="stroke:#181818;stroke-width:1.0;" x1="697" x2="1032" y1="500.1406" y2="500.1406"/><text fill="#000000" font-family="sans-serif" font-size="13" font-weight="bold" lengthAdjust="spacing" textLength="14" x="704" y="495.2842">11</text><text fill="#000000" font-family="sans-serif" font-size="13" lengthAdjust="spacing" textLength="299" x="722" y="495.2842">changeUsername(updateUserPatientDto.Username)</text><path d="M637,522.1406 L698,522.1406 L698,530.4922 L688,540.4922 L637,540.4922 L637,522.1406 " fill="#EEEEEE" style="stroke:#000000;stroke-width:1.5;"/><rect fill="none" height="48.7031" style="stroke:#000000;stroke-width:1.5;" width="538" x="637" y="522.1406"/><text fill="#000000" font-family="sans-serif" font-size="13" font-weight="bold" lengthAdjust="spacing" textLength="16" x="652" y="536.6357">alt</text><text fill="#000000" font-family="sans-serif" font-size="11" font-weight="bold" lengthAdjust="spacing" textLength="196" x="713" y="535.5596">[updatePatientDto.FirstName != null]</text><polygon fill="#181818" points="1114,558.8438,1124,562.8438,1114,566.8438,1118,562.8438" style="stroke:#181818;stroke-width:1.0;"/><line style="stroke:#181818;stroke-width:1.0;" x1="697" x2="1120" y1="562.8438" y2="562.8438"/><text fill="#000000" font-family="sans-serif" font-size="13" font-weight="bold" lengthAdjust="spacing" textLength="14" x="704" y="557.9873">12</text><text fill="#000000" font-family="sans-serif" font-size="13" lengthAdjust="spacing" textLength="300" x="722" y="557.9873">changeUsername(updateUserPatientDto.FirstName)</text><path d="M637,584.8438 L698,584.8438 L698,593.1953 L688,603.1953 L637,603.1953 L637,584.8438 " fill="#EEEEEE" style="stroke:#000000;stroke-width:1.5;"/><rect fill="none" height="48.7031" style="stroke:#000000;stroke-width:1.5;" width="538" x="637" y="584.8438"/><text fill="#000000" font-family="sans-serif" font-size="13" font-weight="bold" lengthAdjust="spacing" textLength="16" x="652" y="599.3389">alt</text><text fill="#000000" font-family="sans-serif" font-size="11" font-weight="bold" lengthAdjust="spacing" textLength="195" x="713" y="598.2627">[updatePatientDto.LastName != null]</text><polygon fill="#181818" points="1114,621.5469,1124,625.5469,1114,629.5469,1118,625.5469" style="stroke:#181818;stroke-width:1.0;"/><line style="stroke:#181818;stroke-width:1.0;" x1="697" x2="1120" y1="625.5469" y2="625.5469"/><text fill="#000000" font-family="sans-serif" font-size="13" font-weight="bold" lengthAdjust="spacing" textLength="14" x="704" y="620.6904">13</text><text fill="#000000" font-family="sans-serif" font-size="13" lengthAdjust="spacing" textLength="299" x="722" y="620.6904">changeUsername(updateUserPatientDto.LastName)</text><path d="M637,647.5469 L698,647.5469 L698,655.8984 L688,665.8984 L637,665.8984 L637,647.5469 " fill="#EEEEEE" style="stroke:#000000;stroke-width:1.5;"/><rect fill="none" height="48.7031" style="stroke:#000000;stroke-width:1.5;" width="538" x="637" y="647.5469"/><text fill="#000000" font-family="sans-serif" font-size="13" font-weight="bold" lengthAdjust="spacing" textLength="16" x="652" y="662.042">alt</text><text fill="#000000" font-family="sans-serif" font-size="11" font-weight="bold" lengthAdjust="spacing" textLength="190" x="713" y="660.9658">[updatePatientDto.FullName != null]</text><polygon fill="#181818" points="1114,684.25,1124,688.25,1114,692.25,1118,688.25" style="stroke:#181818;stroke-width:1.0;"/><line style="stroke:#181818;stroke-width:1.0;" x1="697" x2="1120" y1="688.25" y2="688.25"/><text fill="#000000" font-family="sans-serif" font-size="13" font-weight="bold" lengthAdjust="spacing" textLength="14" x="704" y="683.3936">14</text><text fill="#000000" font-family="sans-serif" font-size="13" lengthAdjust="spacing" textLength="295" x="722" y="683.3936">changeUsername(updateUserPatientDto.FullName)</text><path d="M637,710.25 L698,710.25 L698,718.6016 L688,728.6016 L637,728.6016 L637,710.25 " fill="#EEEEEE" style="stroke:#000000;stroke-width:1.5;"/><rect fill="none" height="79.0547" style="stroke:#000000;stroke-width:1.5;" width="538" x="637" y="710.25"/><text fill="#000000" font-family="sans-serif" font-size="13" font-weight="bold" lengthAdjust="spacing" textLength="16" x="652" y="724.7451">alt</text><text fill="#000000" font-family="sans-serif" font-size="11" font-weight="bold" lengthAdjust="spacing" textLength="169" x="713" y="723.6689">[updatePatientDto.Email != null]</text><polygon fill="#181818" points="1026,746.9531,1036,750.9531,1026,754.9531,1030,750.9531" style="stroke:#181818;stroke-width:1.0;"/><line style="stroke:#181818;stroke-width:1.0;" x1="697" x2="1032" y1="750.9531" y2="750.9531"/><text fill="#000000" font-family="sans-serif" font-size="13" font-weight="bold" lengthAdjust="spacing" textLength="14" x="704" y="746.0967">15</text><text fill="#000000" font-family="sans-serif" font-size="13" lengthAdjust="spacing" textLength="247" x="722" y="746.0967">changeEmail(updateUserPatientDto.Email)</text><polygon fill="#181818" points="1114,777.3047,1124,781.3047,1114,785.3047,1118,781.3047" style="stroke:#181818;stroke-width:1.0;"/><line style="stroke:#181818;stroke-width:1.0;" x1="697" x2="1120" y1="781.3047" y2="781.3047"/><text fill="#000000" font-family="sans-serif" font-size="13" font-weight="bold" lengthAdjust="spacing" textLength="14" x="704" y="776.4482">16</text><text fill="#000000" font-family="sans-serif" font-size="13" lengthAdjust="spacing" textLength="247" x="722" y="776.4482">changeEmail(updateUserPatientDto.Email)</text><path d="M637,803.3047 L698,803.3047 L698,811.6563 L688,821.6563 L637,821.6563 L637,803.3047 " fill="#EEEEEE" style="stroke:#000000;stroke-width:1.5;"/><rect fill="none" height="48.7031" style="stroke:#000000;stroke-width:1.5;" width="538" x="637" y="803.3047"/><text fill="#000000" font-family="sans-serif" font-size="13" font-weight="bold" lengthAdjust="spacing" textLength="16" x="652" y="817.7998">alt</text><text fill="#000000" font-family="sans-serif" font-size="11" font-weight="bold" lengthAdjust="spacing" textLength="219" x="713" y="816.7236">[updatePatientDto.PhoneNumber != null]</text><polygon fill="#181818" points="1114,840.0078,1124,844.0078,1114,848.0078,1118,844.0078" style="stroke:#181818;stroke-width:1.0;"/><line style="stroke:#181818;stroke-width:1.0;" x1="697" x2="1120" y1="844.0078" y2="844.0078"/><text fill="#000000" font-family="sans-serif" font-size="13" font-weight="bold" lengthAdjust="spacing" textLength="14" x="704" y="839.1514">17</text><text fill="#000000" font-family="sans-serif" font-size="13" lengthAdjust="spacing" textLength="345" x="722" y="839.1514">changePhoneNumber(updateUserPatientDto.PhoneNumber)</text><polygon fill="#181818" points="1299,877.3594,1309,881.3594,1299,885.3594,1303,881.3594" style="stroke:#181818;stroke-width:1.0;"/><line style="stroke:#181818;stroke-width:1.0;" x1="697" x2="1305" y1="881.3594" y2="881.3594"/><text fill="#000000" font-family="sans-serif" font-size="13" font-weight="bold" lengthAdjust="spacing" textLength="14" x="704" y="876.5029">18</text><text fill="#000000" font-family="sans-serif" font-size="13" lengthAdjust="spacing" textLength="111" x="722" y="876.5029">UpdateAsync(user)</text><polygon fill="#181818" points="708,907.7109,698,911.7109,708,915.7109,704,911.7109" style="stroke:#181818;stroke-width:1.0;"/><line style="stroke:#181818;stroke-width:1.0;stroke-dasharray:2.0,2.0;" x1="702" x2="1315" y1="911.7109" y2="911.7109"/><text fill="#000000" font-family="sans-serif" font-size="13" font-weight="bold" lengthAdjust="spacing" textLength="14" x="714" y="906.8545">19</text><text fill="#000000" font-family="sans-serif" font-size="13" lengthAdjust="spacing" textLength="25" x="732" y="906.8545">user</text><polygon fill="#181818" points="1114,938.0625,1124,942.0625,1114,946.0625,1118,942.0625" style="stroke:#181818;stroke-width:1.0;"/><line style="stroke:#181818;stroke-width:1.0;" x1="697" x2="1120" y1="942.0625" y2="942.0625"/><text fill="#000000" font-family="sans-serif" font-size="13" font-weight="bold" lengthAdjust="spacing" textLength="14" x="704" y="937.2061">20</text><text fill="#000000" font-family="sans-serif" font-size="13" lengthAdjust="spacing" textLength="101" x="722" y="937.2061">UpdateUser(user)</text><polygon fill="#181818" points="1422.5,968.4141,1432.5,972.4141,1422.5,976.4141,1426.5,972.4141" style="stroke:#181818;stroke-width:1.0;"/><line style="stroke:#181818;stroke-width:1.0;" x1="697" x2="1428.5" y1="972.4141" y2="972.4141"/><text fill="#000000" font-family="sans-serif" font-size="13" font-weight="bold" lengthAdjust="spacing" textLength="14" x="704" y="967.5576">21</text><text fill="#000000" font-family="sans-serif" font-size="13" lengthAdjust="spacing" textLength="125" x="722" y="967.5576">UpdateAsync(patient)</text><polygon fill="#181818" points="708,998.7656,698,1002.7656,708,1006.7656,704,1002.7656" style="stroke:#181818;stroke-width:1.0;"/><line style="stroke:#181818;stroke-width:1.0;stroke-dasharray:2.0,2.0;" x1="702" x2="1438.5" y1="1002.7656" y2="1002.7656"/><text fill="#000000" font-family="sans-serif" font-size="13" font-weight="bold" lengthAdjust="spacing" textLength="14" x="714" y="997.9092">22</text><text fill="#000000" font-family="sans-serif" font-size="13" lengthAdjust="spacing" textLength="39" x="732" y="997.9092">patient</text><path d="M702,1015.7656 L702,1057.7656 L965,1057.7656 L965,1025.7656 L955,1015.7656 L702,1015.7656 " fill="#FEFFDD" style="stroke:#181818;stroke-width:0.5;"/><path d="M955,1015.7656 L955,1025.7656 L965,1025.7656 L955,1015.7656 " fill="#FEFFDD" style="stroke:#181818;stroke-width:0.5;"/><text fill="#000000" font-family="sans-serif" font-size="13" lengthAdjust="spacing" textLength="163" x="708" y="1034.2607">Update user in the auth0 api</text><text fill="#000000" font-family="sans-serif" font-size="13" lengthAdjust="spacing" textLength="242" x="708" y="1050.6123">and send email by auth0 for for verification</text><polygon fill="#181818" points="1197,1081.8203,1207,1085.8203,1197,1089.8203,1201,1085.8203" style="stroke:#181818;stroke-width:1.0;"/><line style="stroke:#181818;stroke-width:1.0;" x1="697" x2="1203" y1="1085.8203" y2="1085.8203"/><text fill="#000000" font-family="sans-serif" font-size="13" font-weight="bold" lengthAdjust="spacing" textLength="14" x="704" y="1080.9639">23</text><text fill="#000000" font-family="sans-serif" font-size="13" lengthAdjust="spacing" textLength="170" x="722" y="1080.9639">create(Username,Email,Role)</text><polygon fill="#181818" points="708,1112.1719,698,1116.1719,708,1120.1719,704,1116.1719" style="stroke:#181818;stroke-width:1.0;"/><line style="stroke:#181818;stroke-width:1.0;stroke-dasharray:2.0,2.0;" x1="702" x2="1213" y1="1116.1719" y2="1116.1719"/><text fill="#000000" font-family="sans-serif" font-size="13" font-weight="bold" lengthAdjust="spacing" textLength="14" x="714" y="1111.3154">24</text><text fill="#000000" font-family="sans-serif" font-size="13" lengthAdjust="spacing" textLength="45" x="732" y="1111.3154">userDto</text><polygon fill="#181818" points="326,1142.5234,316,1146.5234,326,1150.5234,322,1146.5234" style="stroke:#181818;stroke-width:1.0;"/><line style="stroke:#181818;stroke-width:1.0;stroke-dasharray:2.0,2.0;" x1="320" x2="686" y1="1146.5234" y2="1146.5234"/><text fill="#000000" font-family="sans-serif" font-size="13" font-weight="bold" lengthAdjust="spacing" textLength="14" x="332" y="1141.667">25</text><text fill="#000000" font-family="sans-serif" font-size="13" lengthAdjust="spacing" textLength="45" x="350" y="1141.667">userDto</text><polygon fill="#181818" points="66,1186.875,56,1190.875,66,1194.875,62,1190.875" style="stroke:#181818;stroke-width:1.0;"/><line style="stroke:#181818;stroke-width:1.0;stroke-dasharray:2.0,2.0;" x1="60" x2="309" y1="1190.875" y2="1190.875"/><text fill="#000000" font-family="sans-serif" font-size="13" font-weight="bold" lengthAdjust="spacing" textLength="14" x="72" y="1186.0186">26</text><text fill="#000000" font-family="sans-serif" font-size="13" lengthAdjust="spacing" textLength="44" x="90" y="1186.0186">200 OK</text><!--SRC=[pLRVQzim47xFNt7BKmB94aQVGXlOrdQKZJIqozjU5EVI21p9o79O6FlV9zcIBTjIupGK9Z38rjrtFtJdxqWcESlsQnIz7eaa5z1V4acHoJwG5Cp-ipxf9KH86j64C0dzLOeY_SgP53oEKUJIrIjSNrSlytbRzHd5WKQOgvczqZ4xdq8kgJTAx9Rl2MLDAO_VGLaDT2jv2Qhshko6IB8cAKB_GPy-OS9Jgb9mB1MgJm4zuq53jVNLrTONG0z4OZtjFL3B_JAUkvcUmVBn-ITCI48dcRwKILB8ffC_-fsHFVujG4hyIhquqCk1L0RidSnWbQYeKCTiVKYFB1fOw57MF5Uv75QmfKs3M9tePSqeYusipk0RoY_7XqtTtB2kNwBNjUj2UZNGnqw8ofH6h-jii1CqYMMk33StmB8uRXik8spUsaA9F-4M1R88xtv7c4ZAMHl0lNcu7e_hA5VJArXm2VSyOvjWRjjbPzAhO-kQuXP8qDT0ecTWAZEOwXCcTBODX4qu_4yPnrYrlbejnDO77GaKdLDrpSULkG7uOAe9FAlHCigZQ4VO2rhbWQyXI-XX2nERKOJzkwSYbOip7BI_uMu-bl0NEVc3lAUF5lsoF2gttZ6D1lqY5-yK9yLlgiDSq-zPVZGyDzhp0S-8SxdZ31Vv0FJMst0W_5uw0XrzBQd9nui58LV_xA4drgwqU88QVSnu1Zi64rVD5A48Jf2NcmF32A-beGDrXUdBmryd_-_TEKqlHIVghWLzsKdWMslFHbaC69I1t26GJEwce6Oz-CK8sq2gwWSmRzRrqPnk5Mtfvu22Rcb4_2pNw5yz0QkA5gWi3kmFPfGtsEY9ntYgofH-kBmqUBkkl2gDqlBA11dUeZORBDXmZhNMVFhw6F1fEeN7xuMqW-9ErkqYC0FzFm00]--></g></svg>