<?xml version="1.0" encoding="us-ascii" standalone="no"?><svg xmlns="http://www.w3.org/2000/svg" xmlns:xlink="http://www.w3.org/1999/xlink" contentStyleType="text/css" height="1292px" preserveAspectRatio="none" style="width:1509px;height:1292px;background:#FFFFFF;" version="1.1" viewBox="0 0 1509 1292" width="1509px" zoomAndPan="magnify"><defs/><g><rect fill="#FFFFFF" height="1080.6563" style="stroke:#181818;stroke-width:1.0;" width="10" x="50" y="96.2188"/><rect fill="#FFFFFF" height="1058.3047" style="stroke:#181818;stroke-width:1.0;" width="10" x="313" y="118.5703"/><rect fill="#FFFFFF" height="1005.6016" style="stroke:#181818;stroke-width:1.0;" width="10" x="695" y="148.9219"/><rect fill="#FFFFFF" height="30.3516" style="stroke:#181818;stroke-width:1.0;" width="10" x="1192" y="1071.8203"/><rect fill="#FFFFFF" height="30.3516" style="stroke:#181818;stroke-width:1.0;" width="10" x="1294" y="179.2734"/><rect fill="#FFFFFF" height="30.3516" style="stroke:#181818;stroke-width:1.0;" width="10" x="1294" y="897.7109"/><rect fill="#FFFFFF" height="30.3516" style="stroke:#181818;stroke-width:1.0;" width="10" x="1417.5" y="326.0313"/><rect fill="#FFFFFF" height="30.3516" style="stroke:#181818;stroke-width:1.0;" width="10" x="1417.5" y="958.4141"/><rect fill="none" height="922.8984" style="stroke:#000000;stroke-width:1.5;" width="1493" x="10" y="224.625"/><rect fill="none" height="769.1406" style="stroke:#000000;stroke-width:1.5;" width="1473" x="20" y="371.3828"/><rect fill="none" height="48.7031" style="stroke:#000000;stroke-width:1.5;" width="513" x="645" y="459.4375"/><rect fill="none" height="48.7031" style="stroke:#000000;stroke-width:1.5;" width="513" x="645" y="522.1406"/><rect fill="none" height="48.7031" style="stroke:#000000;stroke-width:1.5;" width="513" x="645" y="584.8438"/><rect fill="none" height="79.0547" style="stroke:#000000;stroke-width:1.5;" width="513" x="645" y="647.5469"/><rect fill="none" height="48.7031" style="stroke:#000000;stroke-width:1.5;" width="513" x="645" y="740.6016"/><rect fill="none" height="65.0547" style="stroke:#000000;stroke-width:1.5;" width="513" x="645" y="803.3047"/><line style="stroke:#181818;stroke-width:0.5;stroke-dasharray:5.0,5.0;" x1="55" x2="55" y1="86.2188" y2="1194.875"/><line style="stroke:#181818;stroke-width:0.5;stroke-dasharray:5.0,5.0;" x1="318" x2="318" y1="86.2188" y2="1194.875"/><line style="stroke:#181818;stroke-width:0.5;stroke-dasharray:5.0,5.0;" x1="700" x2="700" y1="86.2188" y2="1194.875"/><line style="stroke:#181818;stroke-width:0.5;stroke-dasharray:5.0,5.0;" x1="996" x2="996" y1="86.2188" y2="1194.875"/><line style="stroke:#181818;stroke-width:0.5;stroke-dasharray:5.0,5.0;" x1="1109" x2="1109" y1="86.2188" y2="1194.875"/><line style="stroke:#181818;stroke-width:0.5;stroke-dasharray:5.0,5.0;" x1="1197" x2="1197" y1="86.2188" y2="1194.875"/><line style="stroke:#181818;stroke-width:0.5;stroke-dasharray:5.0,5.0;" x1="1299" x2="1299" y1="86.2188" y2="1194.875"/><line style="stroke:#181818;stroke-width:0.5;stroke-dasharray:5.0,5.0;" x1="1422" x2="1422" y1="86.2188" y2="1194.875"/><text fill="#000000" font-family="sans-serif" font-size="14" lengthAdjust="spacing" textLength="44" x="30" y="83.1426">Patient</text><ellipse cx="55" cy="17.1094" fill="#E2E2F0" rx="8" ry="8" style="stroke:#181818;stroke-width:0.5;"/><path d="M55,25.1094 L55,52.1094 M42,33.1094 L68,33.1094 M55,52.1094 L42,67.1094 M55,52.1094 L68,67.1094 " fill="none" style="stroke:#181818;stroke-width:0.5;"/><text fill="#000000" font-family="sans-serif" font-size="14" lengthAdjust="spacing" textLength="44" x="30" y="1208.4082">Patient</text><ellipse cx="55" cy="1219.9844" fill="#E2E2F0" rx="8" ry="8" style="stroke:#181818;stroke-width:0.5;"/><path d="M55,1227.9844 L55,1254.9844 M42,1235.9844 L68,1235.9844 M55,1254.9844 L42,1269.9844 M55,1254.9844 L68,1269.9844 " fill="none" style="stroke:#181818;stroke-width:0.5;"/><rect fill="#E2E2F0" height="49.2188" rx="2.5" ry="2.5" style="stroke:#181818;stroke-width:0.5;" width="112" x="262" y="36"/><text fill="#000000" font-family="sans-serif" font-size="14" font-style="italic" lengthAdjust="spacing" textLength="78" x="279" y="57.5332">&#171;Controller&#187;</text><text fill="#000000" font-family="sans-serif" font-size="14" lengthAdjust="spacing" textLength="98" x="269" y="75.1426">UsersController</text><rect fill="#E2E2F0" height="49.2188" rx="2.5" ry="2.5" style="stroke:#181818;stroke-width:0.5;" width="112" x="262" y="1193.875"/><text fill="#000000" font-family="sans-serif" font-size="14" font-style="italic" lengthAdjust="spacing" textLength="78" x="279" y="1215.4082">&#171;Controller&#187;</text><text fill="#000000" font-family="sans-serif" font-size="14" lengthAdjust="spacing" textLength="98" x="269" y="1233.0176">UsersController</text><rect fill="#E2E2F0" height="49.2188" rx="2.5" ry="2.5" style="stroke:#181818;stroke-width:0.5;" width="90" x="655" y="36"/><text fill="#000000" font-family="sans-serif" font-size="14" font-style="italic" lengthAdjust="spacing" textLength="62" x="669" y="57.5332">&#171;Service&#187;</text><text fill="#000000" font-family="sans-serif" font-size="14" lengthAdjust="spacing" textLength="76" x="662" y="75.1426">UserService</text><rect fill="#E2E2F0" height="49.2188" rx="2.5" ry="2.5" style="stroke:#181818;stroke-width:0.5;" width="90" x="655" y="1193.875"/><text fill="#000000" font-family="sans-serif" font-size="14" font-style="italic" lengthAdjust="spacing" textLength="62" x="669" y="1215.4082">&#171;Service&#187;</text><text fill="#000000" font-family="sans-serif" font-size="14" lengthAdjust="spacing" textLength="76" x="662" y="1233.0176">UserService</text><rect fill="#E2E2F0" height="49.2188" rx="2.5" ry="2.5" style="stroke:#181818;stroke-width:0.5;" width="78" x="957" y="36"/><text fill="#000000" font-family="sans-serif" font-size="14" font-style="italic" lengthAdjust="spacing" textLength="64" x="964" y="57.5332">&#171;Domain&#187;</text><text fill="#000000" font-family="sans-serif" font-size="14" lengthAdjust="spacing" textLength="29" x="981.5" y="75.1426">User</text><rect fill="#E2E2F0" height="49.2188" rx="2.5" ry="2.5" style="stroke:#181818;stroke-width:0.5;" width="78" x="957" y="1193.875"/><text fill="#000000" font-family="sans-serif" font-size="14" font-style="italic" lengthAdjust="spacing" textLength="64" x="964" y="1215.4082">&#171;Domain&#187;</text><text fill="#000000" font-family="sans-serif" font-size="14" lengthAdjust="spacing" textLength="29" x="981.5" y="1233.0176">User</text><rect fill="#E2E2F0" height="49.2188" rx="2.5" ry="2.5" style="stroke:#181818;stroke-width:0.5;" width="78" x="1070" y="36"/><text fill="#000000" font-family="sans-serif" font-size="14" font-style="italic" lengthAdjust="spacing" textLength="64" x="1077" y="57.5332">&#171;Domain&#187;</text><text fill="#000000" font-family="sans-serif" font-size="14" lengthAdjust="spacing" textLength="44" x="1087" y="75.1426">Patient</text><rect fill="#E2E2F0" height="49.2188" rx="2.5" ry="2.5" style="stroke:#181818;stroke-width:0.5;" width="78" x="1070" y="1193.875"/><text fill="#000000" font-family="sans-serif" font-size="14" font-style="italic" lengthAdjust="spacing" textLength="64" x="1077" y="1215.4082">&#171;Domain&#187;</text><text fill="#000000" font-family="sans-serif" font-size="14" lengthAdjust="spacing" textLength="44" x="1087" y="1233.0176">Patient</text><rect fill="#E2E2F0" height="49.2188" rx="2.5" ry="2.5" style="stroke:#181818;stroke-width:0.5;" width="78" x="1158" y="36"/><text fill="#000000" font-family="sans-serif" font-size="14" font-style="italic" lengthAdjust="spacing" textLength="64" x="1165" y="57.5332">&#171;Domain&#187;</text><text fill="#000000" font-family="sans-serif" font-size="14" lengthAdjust="spacing" textLength="51" x="1171.5" y="75.1426">UserDto</text><rect fill="#E2E2F0" height="49.2188" rx="2.5" ry="2.5" style="stroke:#181818;stroke-width:0.5;" width="78" x="1158" y="1193.875"/><text fill="#000000" font-family="sans-serif" font-size="14" font-style="italic" lengthAdjust="spacing" textLength="64" x="1165" y="1215.4082">&#171;Domain&#187;</text><text fill="#000000" font-family="sans-serif" font-size="14" lengthAdjust="spacing" textLength="51" x="1171.5" y="1233.0176">UserDto</text><text fill="#000000" font-family="sans-serif" font-size="14" font-style="italic" lengthAdjust="spacing" textLength="64" x="1264" y="65.5332">&#171;Domain&#187;</text><text fill="#000000" font-family="sans-serif" font-size="14" lengthAdjust="spacing" textLength="100" x="1246" y="83.1426">IUserRepository</text><path d="M1281,15 C1281,5 1299,5 1299,5 C1299,5 1317,5 1317,15 L1317,41 C1317,51 1299,51 1299,51 C1299,51 1281,51 1281,41 L1281,15 " fill="#E2E2F0" style="stroke:#181818;stroke-width:1.5;"/><path d="M1281,15 C1281,25 1299,25 1299,25 C1299,25 1317,25 1317,15 " fill="none" style="stroke:#181818;stroke-width:1.5;"/><text fill="#000000" font-family="sans-serif" font-size="14" font-style="italic" lengthAdjust="spacing" textLength="64" x="1264" y="1208.4082">&#171;Domain&#187;</text><text fill="#000000" font-family="sans-serif" font-size="14" lengthAdjust="spacing" textLength="100" x="1246" y="1226.0176">IUserRepository</text><path d="M1281,1239.0938 C1281,1229.0938 1299,1229.0938 1299,1229.0938 C1299,1229.0938 1317,1229.0938 1317,1239.0938 L1317,1265.0938 C1317,1275.0938 1299,1275.0938 1299,1275.0938 C1299,1275.0938 1281,1275.0938 1281,1265.0938 L1281,1239.0938 " fill="#E2E2F0" style="stroke:#181818;stroke-width:1.5;"/><path d="M1281,1239.0938 C1281,1249.0938 1299,1249.0938 1299,1249.0938 C1299,1249.0938 1317,1249.0938 1317,1239.0938 " fill="none" style="stroke:#181818;stroke-width:1.5;"/><text fill="#000000" font-family="sans-serif" font-size="14" font-style="italic" lengthAdjust="spacing" textLength="64" x="1387.5" y="65.5332">&#171;Domain&#187;</text><text fill="#000000" font-family="sans-serif" font-size="14" lengthAdjust="spacing" textLength="115" x="1362" y="83.1426">IPatientRepository</text><path d="M1404.5,15 C1404.5,5 1422.5,5 1422.5,5 C1422.5,5 1440.5,5 1440.5,15 L1440.5,41 C1440.5,51 1422.5,51 1422.5,51 C1422.5,51 1404.5,51 1404.5,41 L1404.5,15 " fill="#E2E2F0" style="stroke:#181818;stroke-width:1.5;"/><path d="M1404.5,15 C1404.5,25 1422.5,25 1422.5,25 C1422.5,25 1440.5,25 1440.5,15 " fill="none" style="stroke:#181818;stroke-width:1.5;"/><text fill="#000000" font-family="sans-serif" font-size="14" font-style="italic" lengthAdjust="spacing" textLength="64" x="1387.5" y="1208.4082">&#171;Domain&#187;</text><text fill="#000000" font-family="sans-serif" font-size="14" lengthAdjust="spacing" textLength="115" x="1362" y="1226.0176">IPatientRepository</text><path d="M1404.5,1239.0938 C1404.5,1229.0938 1422.5,1229.0938 1422.5,1229.0938 C1422.5,1229.0938 1440.5,1229.0938 1440.5,1239.0938 L1440.5,1265.0938 C1440.5,1275.0938 1422.5,1275.0938 1422.5,1275.0938 C1422.5,1275.0938 1404.5,1275.0938 1404.5,1265.0938 L1404.5,1239.0938 " fill="#E2E2F0" style="stroke:#181818;stroke-width:1.5;"/><path d="M1404.5,1239.0938 C1404.5,1249.0938 1422.5,1249.0938 1422.5,1249.0938 C1422.5,1249.0938 1440.5,1249.0938 1440.5,1239.0938 " fill="none" style="stroke:#181818;stroke-width:1.5;"/><rect fill="#FFFFFF" height="1080.6563" style="stroke:#181818;stroke-width:1.0;" width="10" x="50" y="96.2188"/><rect fill="#FFFFFF" height="1058.3047" style="stroke:#181818;stroke-width:1.0;" width="10" x="313" y="118.5703"/><rect fill="#FFFFFF" height="1005.6016" style="stroke:#181818;stroke-width:1.0;" width="10" x="695" y="148.9219"/><rect fill="#FFFFFF" height="30.3516" style="stroke:#181818;stroke-width:1.0;" width="10" x="1192" y="1071.8203"/><rect fill="#FFFFFF" height="30.3516" style="stroke:#181818;stroke-width:1.0;" width="10" x="1294" y="179.2734"/><rect fill="#FFFFFF" height="30.3516" style="stroke:#181818;stroke-width:1.0;" width="10" x="1294" y="897.7109"/><rect fill="#FFFFFF" height="30.3516" style="stroke:#181818;stroke-width:1.0;" width="10" x="1417.5" y="326.0313"/><rect fill="#FFFFFF" height="30.3516" style="stroke:#181818;stroke-width:1.0;" width="10" x="1417.5" y="958.4141"/><polygon fill="#181818" points="301,114.5703,311,118.5703,301,122.5703,305,118.5703" style="stroke:#181818;stroke-width:1.0;"/><line style="stroke:#181818;stroke-width:1.0;" x1="60" x2="307" y1="118.5703" y2="118.5703"/><text fill="#000000" font-family="sans-serif" font-size="13" font-weight="bold" lengthAdjust="spacing" textLength="7" x="67" y="113.7139">1</text><text fill="#000000" font-family="sans-serif" font-size="13" lengthAdjust="spacing" textLength="223" x="78" y="113.7139">PATCH /api/users/patients/{username}</text><polygon fill="#181818" points="683,144.9219,693,148.9219,683,152.9219,687,148.9219" style="stroke:#181818;stroke-width:1.0;"/><line style="stroke:#181818;stroke-width:1.0;" x1="323" x2="689" y1="148.9219" y2="148.9219"/><text fill="#000000" font-family="sans-serif" font-size="13" font-weight="bold" lengthAdjust="spacing" textLength="7" x="330" y="144.0654">2</text><text fill="#000000" font-family="sans-serif" font-size="13" lengthAdjust="spacing" textLength="342" x="341" y="144.0654">UpdateUserPatientAsync(username,updateUserPatientDto)</text><polygon fill="#181818" points="1282,175.2734,1292,179.2734,1282,183.2734,1286,179.2734" style="stroke:#181818;stroke-width:1.0;"/><line style="stroke:#181818;stroke-width:1.0;" x1="705" x2="1288" y1="179.2734" y2="179.2734"/><text fill="#000000" font-family="sans-serif" font-size="13" font-weight="bold" lengthAdjust="spacing" textLength="7" x="712" y="174.417">3</text><text fill="#000000" font-family="sans-serif" font-size="13" lengthAdjust="spacing" textLength="149" x="723" y="174.417">GetByIdAsync(username)</text><polygon fill="#181818" points="716,205.625,706,209.625,716,213.625,712,209.625" style="stroke:#181818;stroke-width:1.0;"/><line style="stroke:#181818;stroke-width:1.0;stroke-dasharray:2.0,2.0;" x1="710" x2="1298" y1="209.625" y2="209.625"/><text fill="#000000" font-family="sans-serif" font-size="13" font-weight="bold" lengthAdjust="spacing" textLength="7" x="722" y="204.7686">4</text><text fill="#000000" font-family="sans-serif" font-size="13" lengthAdjust="spacing" textLength="25" x="733" y="204.7686">user</text><path d="M10,224.625 L71,224.625 L71,232.9766 L61,242.9766 L10,242.9766 L10,224.625 " fill="#EEEEEE" style="stroke:#000000;stroke-width:1.5;"/><rect fill="none" height="922.8984" style="stroke:#000000;stroke-width:1.5;" width="1493" x="10" y="224.625"/><text fill="#000000" font-family="sans-serif" font-size="13" font-weight="bold" lengthAdjust="spacing" textLength="16" x="25" y="239.1201">alt</text><text fill="#000000" font-family="sans-serif" font-size="11" font-weight="bold" lengthAdjust="spacing" textLength="72" x="86" y="238.0439">[user == null]</text><polygon fill="#181818" points="334,261.3281,324,265.3281,334,269.3281,330,265.3281" style="stroke:#181818;stroke-width:1.0;"/><line style="stroke:#181818;stroke-width:1.0;stroke-dasharray:2.0,2.0;" x1="328" x2="694" y1="265.3281" y2="265.3281"/><text fill="#000000" font-family="sans-serif" font-size="13" font-weight="bold" lengthAdjust="spacing" textLength="7" x="340" y="260.4717">5</text><text fill="#000000" font-family="sans-serif" font-size="13" lengthAdjust="spacing" textLength="138" x="351" y="260.4717">NullReferenceException</text><polygon fill="#181818" points="71,291.6797,61,295.6797,71,299.6797,67,295.6797" style="stroke:#181818;stroke-width:1.0;"/><line style="stroke:#181818;stroke-width:1.0;stroke-dasharray:2.0,2.0;" x1="65" x2="312" y1="295.6797" y2="295.6797"/><text fill="#000000" font-family="sans-serif" font-size="13" font-weight="bold" lengthAdjust="spacing" textLength="7" x="77" y="290.8232">6</text><text fill="#000000" font-family="sans-serif" font-size="13" lengthAdjust="spacing" textLength="85" x="88" y="290.8232">404 Not Found</text><polygon fill="#181818" points="1405.5,322.0313,1415.5,326.0313,1405.5,330.0313,1409.5,326.0313" style="stroke:#181818;stroke-width:1.0;"/><line style="stroke:#181818;stroke-width:1.0;" x1="705" x2="1411.5" y1="326.0313" y2="326.0313"/><text fill="#000000" font-family="sans-serif" font-size="13" font-weight="bold" lengthAdjust="spacing" textLength="7" x="712" y="321.1748">7</text><text fill="#000000" font-family="sans-serif" font-size="13" lengthAdjust="spacing" textLength="176" x="723" y="321.1748">GetByUserIdAsync(username)</text><polygon fill="#181818" points="716,352.3828,706,356.3828,716,360.3828,712,356.3828" style="stroke:#181818;stroke-width:1.0;"/><line style="stroke:#181818;stroke-width:1.0;stroke-dasharray:2.0,2.0;" x1="710" x2="1421.5" y1="356.3828" y2="356.3828"/><text fill="#000000" font-family="sans-serif" font-size="13" font-weight="bold" lengthAdjust="spacing" textLength="7" x="722" y="351.5264">8</text><text fill="#000000" font-family="sans-serif" font-size="13" lengthAdjust="spacing" textLength="39" x="733" y="351.5264">patient</text><path d="M20,371.3828 L81,371.3828 L81,379.7344 L71,389.7344 L20,389.7344 L20,371.3828 " fill="#EEEEEE" style="stroke:#000000;stroke-width:1.5;"/><rect fill="none" height="769.1406" style="stroke:#000000;stroke-width:1.5;" width="1473" x="20" y="371.3828"/><text fill="#000000" font-family="sans-serif" font-size="13" font-weight="bold" lengthAdjust="spacing" textLength="16" x="35" y="385.8779">alt</text><text fill="#000000" font-family="sans-serif" font-size="11" font-weight="bold" lengthAdjust="spacing" textLength="84" x="96" y="384.8018">[patient == null]</text><polygon fill="#181818" points="334,408.0859,324,412.0859,334,416.0859,330,412.0859" style="stroke:#181818;stroke-width:1.0;"/><line style="stroke:#181818;stroke-width:1.0;stroke-dasharray:2.0,2.0;" x1="328" x2="694" y1="412.0859" y2="412.0859"/><text fill="#000000" font-family="sans-serif" font-size="13" font-weight="bold" lengthAdjust="spacing" textLength="7" x="340" y="407.2295">9</text><text fill="#000000" font-family="sans-serif" font-size="13" lengthAdjust="spacing" textLength="138" x="351" y="407.2295">NullReferenceException</text><polygon fill="#181818" points="71,438.4375,61,442.4375,71,446.4375,67,442.4375" style="stroke:#181818;stroke-width:1.0;"/><line style="stroke:#181818;stroke-width:1.0;stroke-dasharray:2.0,2.0;" x1="65" x2="312" y1="442.4375" y2="442.4375"/><text fill="#000000" font-family="sans-serif" font-size="13" font-weight="bold" lengthAdjust="spacing" textLength="14" x="77" y="437.5811">10</text><text fill="#000000" font-family="sans-serif" font-size="13" lengthAdjust="spacing" textLength="85" x="95" y="437.5811">404 Not Found</text><line style="stroke:#000000;stroke-width:1.0;stroke-dasharray:2.0,2.0;" x1="20" x2="1493" y1="451.4375" y2="451.4375"/><path d="M645,459.4375 L706,459.4375 L706,467.7891 L696,477.7891 L645,477.7891 L645,459.4375 " fill="#EEEEEE" style="stroke:#000000;stroke-width:1.5;"/><rect fill="none" height="48.7031" style="stroke:#000000;stroke-width:1.5;" width="513" x="645" y="459.4375"/><text fill="#000000" font-family="sans-serif" font-size="13" font-weight="bold" lengthAdjust="spacing" textLength="16" x="660" y="473.9326">alt</text><text fill="#000000" font-family="sans-serif" font-size="11" font-weight="bold" lengthAdjust="spacing" textLength="196" x="721" y="472.8564">[updatePatientDto.FirstName != null]</text><polygon fill="#181818" points="1097,496.1406,1107,500.1406,1097,504.1406,1101,500.1406" style="stroke:#181818;stroke-width:1.0;"/><line style="stroke:#181818;stroke-width:1.0;" x1="705" x2="1103" y1="500.1406" y2="500.1406"/><text fill="#000000" font-family="sans-serif" font-size="13" font-weight="bold" lengthAdjust="spacing" textLength="14" x="712" y="495.2842">11</text><text fill="#000000" font-family="sans-serif" font-size="13" lengthAdjust="spacing" textLength="303" x="730" y="495.2842">ChangeFirstName(updateUserPatientDto.FirstName)</text><path d="M645,522.1406 L706,522.1406 L706,530.4922 L696,540.4922 L645,540.4922 L645,522.1406 " fill="#EEEEEE" style="stroke:#000000;stroke-width:1.5;"/><rect fill="none" height="48.7031" style="stroke:#000000;stroke-width:1.5;" width="513" x="645" y="522.1406"/><text fill="#000000" font-family="sans-serif" font-size="13" font-weight="bold" lengthAdjust="spacing" textLength="16" x="660" y="536.6357">alt</text><text fill="#000000" font-family="sans-serif" font-size="11" font-weight="bold" lengthAdjust="spacing" textLength="195" x="721" y="535.5596">[updatePatientDto.LastName != null]</text><polygon fill="#181818" points="1097,558.8438,1107,562.8438,1097,566.8438,1101,562.8438" style="stroke:#181818;stroke-width:1.0;"/><line style="stroke:#181818;stroke-width:1.0;" x1="705" x2="1103" y1="562.8438" y2="562.8438"/><text fill="#000000" font-family="sans-serif" font-size="13" font-weight="bold" lengthAdjust="spacing" textLength="14" x="712" y="557.9873">12</text><text fill="#000000" font-family="sans-serif" font-size="13" lengthAdjust="spacing" textLength="301" x="730" y="557.9873">ChangeLastName(updateUserPatientDto.LastName)</text><path d="M645,584.8438 L706,584.8438 L706,593.1953 L696,603.1953 L645,603.1953 L645,584.8438 " fill="#EEEEEE" style="stroke:#000000;stroke-width:1.5;"/><rect fill="none" height="48.7031" style="stroke:#000000;stroke-width:1.5;" width="513" x="645" y="584.8438"/><text fill="#000000" font-family="sans-serif" font-size="13" font-weight="bold" lengthAdjust="spacing" textLength="16" x="660" y="599.3389">alt</text><text fill="#000000" font-family="sans-serif" font-size="11" font-weight="bold" lengthAdjust="spacing" textLength="190" x="721" y="598.2627">[updatePatientDto.FullName != null]</text><polygon fill="#181818" points="1097,621.5469,1107,625.5469,1097,629.5469,1101,625.5469" style="stroke:#181818;stroke-width:1.0;"/><line style="stroke:#181818;stroke-width:1.0;" x1="705" x2="1103" y1="625.5469" y2="625.5469"/><text fill="#000000" font-family="sans-serif" font-size="13" font-weight="bold" lengthAdjust="spacing" textLength="14" x="712" y="620.6904">13</text><text fill="#000000" font-family="sans-serif" font-size="13" lengthAdjust="spacing" textLength="293" x="730" y="620.6904">ChangeFullName(updateUserPatientDto.FullName)</text><path d="M645,647.5469 L706,647.5469 L706,655.8984 L696,665.8984 L645,665.8984 L645,647.5469 " fill="#EEEEEE" style="stroke:#000000;stroke-width:1.5;"/><rect fill="none" height="79.0547" style="stroke:#000000;stroke-width:1.5;" width="513" x="645" y="647.5469"/><text fill="#000000" font-family="sans-serif" font-size="13" font-weight="bold" lengthAdjust="spacing" textLength="16" x="660" y="662.042">alt</text><text fill="#000000" font-family="sans-serif" font-size="11" font-weight="bold" lengthAdjust="spacing" textLength="169" x="721" y="660.9658">[updatePatientDto.Email != null]</text><polygon fill="#181818" points="984,684.25,994,688.25,984,692.25,988,688.25" style="stroke:#181818;stroke-width:1.0;"/><line style="stroke:#181818;stroke-width:1.0;" x1="705" x2="990" y1="688.25" y2="688.25"/><text fill="#000000" font-family="sans-serif" font-size="13" font-weight="bold" lengthAdjust="spacing" textLength="14" x="712" y="683.3936">14</text><text fill="#000000" font-family="sans-serif" font-size="13" lengthAdjust="spacing" textLength="249" x="730" y="683.3936">ChangeEmail(updateUserPatientDto.Email)</text><polygon fill="#181818" points="1097,714.6016,1107,718.6016,1097,722.6016,1101,718.6016" style="stroke:#181818;stroke-width:1.0;"/><line style="stroke:#181818;stroke-width:1.0;" x1="705" x2="1103" y1="718.6016" y2="718.6016"/><text fill="#000000" font-family="sans-serif" font-size="13" font-weight="bold" lengthAdjust="spacing" textLength="14" x="712" y="713.7451">15</text><text fill="#000000" font-family="sans-serif" font-size="13" lengthAdjust="spacing" textLength="249" x="730" y="713.7451">ChangeEmail(updateUserPatientDto.Email)</text><path d="M645,740.6016 L706,740.6016 L706,748.9531 L696,758.9531 L645,758.9531 L645,740.6016 " fill="#EEEEEE" style="stroke:#000000;stroke-width:1.5;"/><rect fill="none" height="48.7031" style="stroke:#000000;stroke-width:1.5;" width="513" x="645" y="740.6016"/><text fill="#000000" font-family="sans-serif" font-size="13" font-weight="bold" lengthAdjust="spacing" textLength="16" x="660" y="755.0967">alt</text><text fill="#000000" font-family="sans-serif" font-size="11" font-weight="bold" lengthAdjust="spacing" textLength="219" x="721" y="754.0205">[updatePatientDto.PhoneNumber != null]</text><polygon fill="#181818" points="1097,777.3047,1107,781.3047,1097,785.3047,1101,781.3047" style="stroke:#181818;stroke-width:1.0;"/><line style="stroke:#181818;stroke-width:1.0;" x1="705" x2="1103" y1="781.3047" y2="781.3047"/><text fill="#000000" font-family="sans-serif" font-size="13" font-weight="bold" lengthAdjust="spacing" textLength="14" x="712" y="776.4482">16</text><text fill="#000000" font-family="sans-serif" font-size="13" lengthAdjust="spacing" textLength="347" x="730" y="776.4482">ChangePhoneNumber(updateUserPatientDto.PhoneNumber)</text><path d="M645,803.3047 L706,803.3047 L706,811.6563 L696,821.6563 L645,821.6563 L645,803.3047 " fill="#EEEEEE" style="stroke:#000000;stroke-width:1.5;"/><rect fill="none" height="65.0547" style="stroke:#000000;stroke-width:1.5;" width="513" x="645" y="803.3047"/><text fill="#000000" font-family="sans-serif" font-size="13" font-weight="bold" lengthAdjust="spacing" textLength="16" x="660" y="817.7998">alt</text><text fill="#000000" font-family="sans-serif" font-size="11" font-weight="bold" lengthAdjust="spacing" textLength="360" x="721" y="816.7236">[updatePatientDto.Address != null || updatePatientDto.PostalCode]</text><polygon fill="#181818" points="1097,856.3594,1107,860.3594,1097,864.3594,1101,860.3594" style="stroke:#181818;stroke-width:1.0;"/><line style="stroke:#181818;stroke-width:1.0;" x1="705" x2="1103" y1="860.3594" y2="860.3594"/><text fill="#000000" font-family="sans-serif" font-size="13" font-weight="bold" lengthAdjust="spacing" textLength="14" x="712" y="847.3271">17</text><text fill="#000000" font-family="sans-serif" font-size="13" lengthAdjust="spacing" textLength="362" x="730" y="839.1514">ChangeAddress(new Address(updateUserPatientDto.Address+</text><text fill="#000000" font-family="sans-serif" font-size="13" lengthAdjust="spacing" textLength="228" x="730" y="855.5029">":"+updateUserPatientDto.PostalCode))</text><polygon fill="#181818" points="1282,893.7109,1292,897.7109,1282,901.7109,1286,897.7109" style="stroke:#181818;stroke-width:1.0;"/><line style="stroke:#181818;stroke-width:1.0;" x1="705" x2="1288" y1="897.7109" y2="897.7109"/><text fill="#000000" font-family="sans-serif" font-size="13" font-weight="bold" lengthAdjust="spacing" textLength="14" x="712" y="892.8545">18</text><text fill="#000000" font-family="sans-serif" font-size="13" lengthAdjust="spacing" textLength="111" x="730" y="892.8545">UpdateAsync(user)</text><polygon fill="#181818" points="716,924.0625,706,928.0625,716,932.0625,712,928.0625" style="stroke:#181818;stroke-width:1.0;"/><line style="stroke:#181818;stroke-width:1.0;stroke-dasharray:2.0,2.0;" x1="710" x2="1298" y1="928.0625" y2="928.0625"/><text fill="#000000" font-family="sans-serif" font-size="13" font-weight="bold" lengthAdjust="spacing" textLength="14" x="722" y="923.2061">19</text><text fill="#000000" font-family="sans-serif" font-size="13" lengthAdjust="spacing" textLength="25" x="740" y="923.2061">user</text><polygon fill="#181818" points="1405.5,954.4141,1415.5,958.4141,1405.5,962.4141,1409.5,958.4141" style="stroke:#181818;stroke-width:1.0;"/><line style="stroke:#181818;stroke-width:1.0;" x1="705" x2="1411.5" y1="958.4141" y2="958.4141"/><text fill="#000000" font-family="sans-serif" font-size="13" font-weight="bold" lengthAdjust="spacing" textLength="14" x="712" y="953.5576">20</text><text fill="#000000" font-family="sans-serif" font-size="13" lengthAdjust="spacing" textLength="125" x="730" y="953.5576">UpdateAsync(patient)</text><polygon fill="#181818" points="716,984.7656,706,988.7656,716,992.7656,712,988.7656" style="stroke:#181818;stroke-width:1.0;"/><line style="stroke:#181818;stroke-width:1.0;stroke-dasharray:2.0,2.0;" x1="710" x2="1421.5" y1="988.7656" y2="988.7656"/><text fill="#000000" font-family="sans-serif" font-size="13" font-weight="bold" lengthAdjust="spacing" textLength="14" x="722" y="983.9092">21</text><text fill="#000000" font-family="sans-serif" font-size="13" lengthAdjust="spacing" textLength="39" x="740" y="983.9092">patient</text><path d="M710,1001.7656 L710,1043.7656 L955,1043.7656 L955,1011.7656 L945,1001.7656 L710,1001.7656 " fill="#FEFFDD" style="stroke:#181818;stroke-width:0.5;"/><path d="M945,1001.7656 L945,1011.7656 L955,1011.7656 L945,1001.7656 " fill="#FEFFDD" style="stroke:#181818;stroke-width:0.5;"/><text fill="#000000" font-family="sans-serif" font-size="13" lengthAdjust="spacing" textLength="163" x="716" y="1020.2607">Update user in the auth0 api</text><text fill="#000000" font-family="sans-serif" font-size="13" lengthAdjust="spacing" textLength="224" x="716" y="1036.6123">and send email by auth0 for verification</text><polygon fill="#181818" points="1180,1067.8203,1190,1071.8203,1180,1075.8203,1184,1071.8203" style="stroke:#181818;stroke-width:1.0;"/><line style="stroke:#181818;stroke-width:1.0;" x1="705" x2="1186" y1="1071.8203" y2="1071.8203"/><text fill="#000000" font-family="sans-serif" font-size="13" font-weight="bold" lengthAdjust="spacing" textLength="14" x="712" y="1066.9639">22</text><text fill="#000000" font-family="sans-serif" font-size="13" lengthAdjust="spacing" textLength="257" x="730" y="1066.9639">create(user.Username,user.Email,user.Role)</text><polygon fill="#181818" points="716,1098.1719,706,1102.1719,716,1106.1719,712,1102.1719" style="stroke:#181818;stroke-width:1.0;"/><line style="stroke:#181818;stroke-width:1.0;stroke-dasharray:2.0,2.0;" x1="710" x2="1196" y1="1102.1719" y2="1102.1719"/><text fill="#000000" font-family="sans-serif" font-size="13" font-weight="bold" lengthAdjust="spacing" textLength="14" x="722" y="1097.3154">23</text><text fill="#000000" font-family="sans-serif" font-size="13" lengthAdjust="spacing" textLength="45" x="740" y="1097.3154">userDto</text><polygon fill="#181818" points="334,1128.5234,324,1132.5234,334,1136.5234,330,1132.5234" style="stroke:#181818;stroke-width:1.0;"/><line style="stroke:#181818;stroke-width:1.0;stroke-dasharray:2.0,2.0;" x1="328" x2="694" y1="1132.5234" y2="1132.5234"/><text fill="#000000" font-family="sans-serif" font-size="13" font-weight="bold" lengthAdjust="spacing" textLength="14" x="340" y="1127.667">24</text><text fill="#000000" font-family="sans-serif" font-size="13" lengthAdjust="spacing" textLength="45" x="358" y="1127.667">userDto</text><polygon fill="#181818" points="66,1172.875,56,1176.875,66,1180.875,62,1176.875" style="stroke:#181818;stroke-width:1.0;"/><line style="stroke:#181818;stroke-width:1.0;stroke-dasharray:2.0,2.0;" x1="60" x2="317" y1="1176.875" y2="1176.875"/><text fill="#000000" font-family="sans-serif" font-size="13" font-weight="bold" lengthAdjust="spacing" textLength="14" x="72" y="1172.0186">25</text><text fill="#000000" font-family="sans-serif" font-size="13" lengthAdjust="spacing" textLength="44" x="90" y="1172.0186">200 OK</text><!--SRC=[pLR1Rjim3BtdApYVOdHfWg6de2sGfSrMRCYARhtrejfC8y2L35dE5gpxzqcsPCkst3hBPJh99lduI54YIIuvovyVKOn6999SG71B94Kc0o0PcFr2IqOf4P96D2LCGd2VeSYMd4d1amH5eLr_mlbv_N5vsJNzZc978opCp5xPc9tFeD3K6wLsnPy9PMqj3-zUNGrq9Na5glQkRamaUIGPGd2ZfNUOyeog5EmhW_fNZvrXq3Bj_7MjzG7G7P7OJFi8r7B_J2xTJC_XTl5Z-Hcc9ANJN9_AD2sLi-bl_St8C_ufKIe7jNqfqCl1L1xieSpXFbLXeGxQaiZsB1fRwFTvMwwI6TQmbK-3M4lqicwKnrPQv_09vSVzJTnq5pRjA_IcTLD9hnRwn0bHkTBeJPiO1q6JH1R6S741B4-IhkCgmlQnhPNw7MvG88lm-bU4gQISTG7SeuVpoQI9SZOxWpMNiE8vYtjpswqxaruTsz0KTq1wkVOaUWwcCdjJ_OOBdMq3OHCE_rF6CL5tNwqkf6OEvKsfRydfYefChbNAuPqf7_2ixZag5iijOKzO0Onzjx363pl0sERUp_8hEOwajVTpjDAZAAuKhQFoQEnxqcYaHr6yLgzyCfHVqUWikSBIpwmGXOT6UpZW0N7URZd3TJ5I_EjfE11-bex2KLmNSImmoonFU7dnnCCpIP8bZ_7GC0pwcE5Fi7jlE4Puyi22UN3YZxXY4GwCkEfkljPQzlJwsGyz6HlQMT_ehhxcUa237T38t61CTtWjdW5jhB-LUNfPs_2rI0VuLgr57PgWJri9V6FzsIZBOOCoa5i4ailj3DJS1m-Ci1WoLGY0nJlpk3VIZMfXEnHqGoFYxtQjPqUFmdE812flHMsStbUJdlugNeXoUySJVAjo55n_oMXVtLhnchJAnQlJs_WjQllIz5uYnrjdR7rzElWmcy6tBwMsW-8EtDrwC8F-Nm00]--></g></svg>