<?xml version="1.0" encoding="us-ascii" standalone="no"?><svg xmlns="http://www.w3.org/2000/svg" xmlns:xlink="http://www.w3.org/1999/xlink" contentStyleType="text/css" height="540px" preserveAspectRatio="none" style="width:537px;height:540px;background:#FFFFFF;" version="1.1" viewBox="0 0 537 540" width="537px" zoomAndPan="magnify"><defs/><g><rect fill="#FFFFFF" height="348.2188" style="stroke:#181818;stroke-width:1.0;" width="10" x="25" y="92.6094"/><rect fill="#FFFFFF" height="325.8672" style="stroke:#181818;stroke-width:1.0;" width="10" x="270" y="114.9609"/><rect fill="#FFFFFF" height="30.3516" style="stroke:#181818;stroke-width:1.0;" width="10" x="432" y="145.3125"/><rect fill="#FFFFFF" height="30.3516" style="stroke:#181818;stroke-width:1.0;" width="10" x="432" y="206.0156"/><rect fill="#FFFFFF" height="30.3516" style="stroke:#181818;stroke-width:1.0;" width="10" x="432" y="266.7188"/><rect fill="#FFFFFF" height="30.3516" style="stroke:#181818;stroke-width:1.0;" width="10" x="432" y="327.4219"/><line style="stroke:#181818;stroke-width:0.5;stroke-dasharray:5.0,5.0;" x1="30" x2="30" y1="82.6094" y2="458.8281"/><line style="stroke:#181818;stroke-width:0.5;stroke-dasharray:5.0,5.0;" x1="275" x2="275" y1="82.6094" y2="458.8281"/><line style="stroke:#181818;stroke-width:0.5;stroke-dasharray:5.0,5.0;" x1="436.5" x2="436.5" y1="82.6094" y2="458.8281"/><text fill="#000000" font-family="sans-serif" font-size="14" lengthAdjust="spacing" textLength="44" x="5" y="79.5332">Patient</text><ellipse cx="30" cy="13.5" fill="#E2E2F0" rx="8" ry="8" style="stroke:#181818;stroke-width:0.5;"/><path d="M30,21.5 L30,48.5 M17,29.5 L43,29.5 M30,48.5 L17,63.5 M30,48.5 L43,63.5 " fill="none" style="stroke:#181818;stroke-width:0.5;"/><text fill="#000000" font-family="sans-serif" font-size="14" lengthAdjust="spacing" textLength="44" x="5" y="472.3613">Patient</text><ellipse cx="30" cy="483.9375" fill="#E2E2F0" rx="8" ry="8" style="stroke:#181818;stroke-width:0.5;"/><path d="M30,491.9375 L30,518.9375 M17,499.9375 L43,499.9375 M30,518.9375 L17,533.9375 M30,518.9375 L43,533.9375 " fill="none" style="stroke:#181818;stroke-width:0.5;"/><rect fill="#E2E2F0" height="31.6094" rx="2.5" ry="2.5" style="stroke:#181818;stroke-width:0.5;" width="56" x="247" y="50"/><text fill="#000000" font-family="sans-serif" font-size="14" lengthAdjust="spacing" textLength="42" x="254" y="71.5332">Server</text><rect fill="#E2E2F0" height="31.6094" rx="2.5" ry="2.5" style="stroke:#181818;stroke-width:0.5;" width="56" x="247" y="457.8281"/><text fill="#000000" font-family="sans-serif" font-size="14" lengthAdjust="spacing" textLength="42" x="254" y="479.3613">Server</text><rect fill="#E2E2F0" height="31.6094" rx="2.5" ry="2.5" style="stroke:#181818;stroke-width:0.5;" width="75" x="399.5" y="50"/><text fill="#000000" font-family="sans-serif" font-size="14" lengthAdjust="spacing" textLength="61" x="406.5" y="71.5332">Database</text><rect fill="#E2E2F0" height="31.6094" rx="2.5" ry="2.5" style="stroke:#181818;stroke-width:0.5;" width="75" x="399.5" y="457.8281"/><text fill="#000000" font-family="sans-serif" font-size="14" lengthAdjust="spacing" textLength="61" x="406.5" y="479.3613">Database</text><rect fill="#FFFFFF" height="348.2188" style="stroke:#181818;stroke-width:1.0;" width="10" x="25" y="92.6094"/><rect fill="#FFFFFF" height="325.8672" style="stroke:#181818;stroke-width:1.0;" width="10" x="270" y="114.9609"/><rect fill="#FFFFFF" height="30.3516" style="stroke:#181818;stroke-width:1.0;" width="10" x="432" y="145.3125"/><rect fill="#FFFFFF" height="30.3516" style="stroke:#181818;stroke-width:1.0;" width="10" x="432" y="206.0156"/><rect fill="#FFFFFF" height="30.3516" style="stroke:#181818;stroke-width:1.0;" width="10" x="432" y="266.7188"/><rect fill="#FFFFFF" height="30.3516" style="stroke:#181818;stroke-width:1.0;" width="10" x="432" y="327.4219"/><polygon fill="#181818" points="258,110.9609,268,114.9609,258,118.9609,262,114.9609" style="stroke:#181818;stroke-width:1.0;"/><line style="stroke:#181818;stroke-width:1.0;" x1="35" x2="264" y1="114.9609" y2="114.9609"/><text fill="#000000" font-family="sans-serif" font-size="13" font-weight="bold" lengthAdjust="spacing" textLength="7" x="42" y="110.1045">1</text><text fill="#000000" font-family="sans-serif" font-size="13" lengthAdjust="spacing" textLength="205" x="53" y="110.1045">PUT /api/users/patients/{username}</text><polygon fill="#181818" points="420,141.3125,430,145.3125,420,149.3125,424,145.3125" style="stroke:#181818;stroke-width:1.0;"/><line style="stroke:#181818;stroke-width:1.0;" x1="280" x2="426" y1="145.3125" y2="145.3125"/><text fill="#000000" font-family="sans-serif" font-size="13" font-weight="bold" lengthAdjust="spacing" textLength="7" x="287" y="140.4561">2</text><text fill="#000000" font-family="sans-serif" font-size="13" lengthAdjust="spacing" textLength="79" x="298" y="140.4561">get user by id</text><polygon fill="#181818" points="291,171.6641,281,175.6641,291,179.6641,287,175.6641" style="stroke:#181818;stroke-width:1.0;"/><line style="stroke:#181818;stroke-width:1.0;stroke-dasharray:2.0,2.0;" x1="285" x2="436" y1="175.6641" y2="175.6641"/><text fill="#000000" font-family="sans-serif" font-size="13" font-weight="bold" lengthAdjust="spacing" textLength="7" x="297" y="170.8076">3</text><text fill="#000000" font-family="sans-serif" font-size="13" lengthAdjust="spacing" textLength="25" x="308" y="170.8076">user</text><polygon fill="#181818" points="420,202.0156,430,206.0156,420,210.0156,424,206.0156" style="stroke:#181818;stroke-width:1.0;"/><line style="stroke:#181818;stroke-width:1.0;" x1="280" x2="426" y1="206.0156" y2="206.0156"/><text fill="#000000" font-family="sans-serif" font-size="13" font-weight="bold" lengthAdjust="spacing" textLength="7" x="287" y="201.1592">4</text><text fill="#000000" font-family="sans-serif" font-size="13" lengthAdjust="spacing" textLength="122" x="298" y="201.1592">get patient by user id</text><polygon fill="#181818" points="291,232.3672,281,236.3672,291,240.3672,287,236.3672" style="stroke:#181818;stroke-width:1.0;"/><line style="stroke:#181818;stroke-width:1.0;stroke-dasharray:2.0,2.0;" x1="285" x2="436" y1="236.3672" y2="236.3672"/><text fill="#000000" font-family="sans-serif" font-size="13" font-weight="bold" lengthAdjust="spacing" textLength="7" x="297" y="231.5107">5</text><text fill="#000000" font-family="sans-serif" font-size="13" lengthAdjust="spacing" textLength="39" x="308" y="231.5107">patient</text><polygon fill="#181818" points="420,262.7188,430,266.7188,420,270.7188,424,266.7188" style="stroke:#181818;stroke-width:1.0;"/><line style="stroke:#181818;stroke-width:1.0;" x1="280" x2="426" y1="266.7188" y2="266.7188"/><text fill="#000000" font-family="sans-serif" font-size="13" font-weight="bold" lengthAdjust="spacing" textLength="7" x="287" y="261.8623">6</text><text fill="#000000" font-family="sans-serif" font-size="13" lengthAdjust="spacing" textLength="68" x="298" y="261.8623">update user</text><polygon fill="#181818" points="291,293.0703,281,297.0703,291,301.0703,287,297.0703" style="stroke:#181818;stroke-width:1.0;"/><line style="stroke:#181818;stroke-width:1.0;stroke-dasharray:2.0,2.0;" x1="285" x2="436" y1="297.0703" y2="297.0703"/><text fill="#000000" font-family="sans-serif" font-size="13" font-weight="bold" lengthAdjust="spacing" textLength="7" x="297" y="292.2139">7</text><text fill="#000000" font-family="sans-serif" font-size="13" lengthAdjust="spacing" textLength="25" x="308" y="292.2139">user</text><polygon fill="#181818" points="420,323.4219,430,327.4219,420,331.4219,424,327.4219" style="stroke:#181818;stroke-width:1.0;"/><line style="stroke:#181818;stroke-width:1.0;" x1="280" x2="426" y1="327.4219" y2="327.4219"/><text fill="#000000" font-family="sans-serif" font-size="13" font-weight="bold" lengthAdjust="spacing" textLength="7" x="287" y="322.5654">8</text><text fill="#000000" font-family="sans-serif" font-size="13" lengthAdjust="spacing" textLength="82" x="298" y="322.5654">update patient</text><polygon fill="#181818" points="291,353.7734,281,357.7734,291,361.7734,287,357.7734" style="stroke:#181818;stroke-width:1.0;"/><line style="stroke:#181818;stroke-width:1.0;stroke-dasharray:2.0,2.0;" x1="285" x2="436" y1="357.7734" y2="357.7734"/><text fill="#000000" font-family="sans-serif" font-size="13" font-weight="bold" lengthAdjust="spacing" textLength="7" x="297" y="352.917">9</text><text fill="#000000" font-family="sans-serif" font-size="13" lengthAdjust="spacing" textLength="39" x="308" y="352.917">patient</text><path d="M285,370.7734 L285,412.7734 L530,412.7734 L530,380.7734 L520,370.7734 L285,370.7734 " fill="#FEFFDD" style="stroke:#181818;stroke-width:0.5;"/><path d="M520,370.7734 L520,380.7734 L530,380.7734 L520,370.7734 " fill="#FEFFDD" style="stroke:#181818;stroke-width:0.5;"/><text fill="#000000" font-family="sans-serif" font-size="13" lengthAdjust="spacing" textLength="163" x="291" y="389.2686">Update user in the auth0 api</text><text fill="#000000" font-family="sans-serif" font-size="13" lengthAdjust="spacing" textLength="224" x="291" y="405.6201">and send email by auth0 for verification</text><polygon fill="#181818" points="41,436.8281,31,440.8281,41,444.8281,37,440.8281" style="stroke:#181818;stroke-width:1.0;"/><line style="stroke:#181818;stroke-width:1.0;stroke-dasharray:2.0,2.0;" x1="35" x2="274" y1="440.8281" y2="440.8281"/><text fill="#000000" font-family="sans-serif" font-size="13" font-weight="bold" lengthAdjust="spacing" textLength="14" x="47" y="435.9717">10</text><text fill="#000000" font-family="sans-serif" font-size="13" lengthAdjust="spacing" textLength="44" x="65" y="435.9717">200 OK</text><!--SRC=[pPD1JuGm48Nl_8eNxWJYSMCyUJFHJNHlNWOObYPIcdROn1Z_kosKWWSz61ETGpDjNx- -3WnDCkffgDbc6JKoMkH74iLQSf13p3D3LbIZ36b1_iZsmdRUNzBFsxSaL9FZMR1EPhgwa71YPl0H9yLDHE60u-a99HbLJewjAysYSELRc6iQ-7qvce3HnBmO8f8ySxtTKyyi203Khr1jqgOaqJR7s4KY5Nkh0RZfMlu6ygMf-BxWQ_RtQ-RCliu_ypUPDgZdP_wFYaL7wzl-ebBter-6LUTUC7QHSi1fgnMKXlGCcgIlu7zbF6lIBHpxWGTIB-5hBxkTRpb_NdMgyIv6lTqJMmFNHR5PlQegFDmjeftBs0AxbRNBFW00]--></g></svg>