<?xml version="1.0" encoding="us-ascii" standalone="no"?><svg xmlns="http://www.w3.org/2000/svg" xmlns:xlink="http://www.w3.org/1999/xlink" contentStyleType="text/css" height="1306px" preserveAspectRatio="none" style="width:1528px;height:1306px;background:#FFFFFF;" version="1.1" viewBox="0 0 1528 1306" width="1528px" zoomAndPan="magnify"><defs/><g><rect fill="#FFFFFF" height="1094.6563" style="stroke:#181818;stroke-width:1.0;" width="10" x="50" y="96.2188"/><rect fill="#FFFFFF" height="1072.3047" style="stroke:#181818;stroke-width:1.0;" width="10" x="305" y="118.5703"/><rect fill="#FFFFFF" height="1019.6016" style="stroke:#181818;stroke-width:1.0;" width="10" x="687" y="148.9219"/><rect fill="#FFFFFF" height="30.3516" style="stroke:#181818;stroke-width:1.0;" width="10" x="1211" y="1085.8203"/><rect fill="#FFFFFF" height="30.3516" style="stroke:#181818;stroke-width:1.0;" width="10" x="1313" y="179.2734"/><rect fill="#FFFFFF" height="30.3516" style="stroke:#181818;stroke-width:1.0;" width="10" x="1313" y="881.3594"/><rect fill="#FFFFFF" height="30.3516" style="stroke:#181818;stroke-width:1.0;" width="10" x="1436.5" y="326.0313"/><rect fill="#FFFFFF" height="30.3516" style="stroke:#181818;stroke-width:1.0;" width="10" x="1436.5" y="972.4141"/><rect fill="none" height="936.8984" style="stroke:#000000;stroke-width:1.5;" width="1512" x="10" y="224.625"/><rect fill="none" height="783.1406" style="stroke:#000000;stroke-width:1.5;" width="1492" x="20" y="371.3828"/><rect fill="none" height="48.7031" style="stroke:#000000;stroke-width:1.5;" width="452" x="637" y="459.4375"/><rect fill="none" height="48.7031" style="stroke:#000000;stroke-width:1.5;" width="540" x="637" y="522.1406"/><rect fill="none" height="48.7031" style="stroke:#000000;stroke-width:1.5;" width="540" x="637" y="584.8438"/><rect fill="none" height="48.7031" style="stroke:#000000;stroke-width:1.5;" width="540" x="637" y="647.5469"/><rect fill="none" height="79.0547" style="stroke:#000000;stroke-width:1.5;" width="540" x="637" y="710.25"/><rect fill="none" height="48.7031" style="stroke:#000000;stroke-width:1.5;" width="540" x="637" y="803.3047"/><line style="stroke:#181818;stroke-width:0.5;stroke-dasharray:5.0,5.0;" x1="55" x2="55" y1="86.2188" y2="1208.875"/><line style="stroke:#181818;stroke-width:0.5;stroke-dasharray:5.0,5.0;" x1="310" x2="310" y1="86.2188" y2="1208.875"/><line style="stroke:#181818;stroke-width:0.5;stroke-dasharray:5.0,5.0;" x1="692" x2="692" y1="86.2188" y2="1208.875"/><line style="stroke:#181818;stroke-width:0.5;stroke-dasharray:5.0,5.0;" x1="1040" x2="1040" y1="86.2188" y2="1208.875"/><line style="stroke:#181818;stroke-width:0.5;stroke-dasharray:5.0,5.0;" x1="1128" x2="1128" y1="86.2188" y2="1208.875"/><line style="stroke:#181818;stroke-width:0.5;stroke-dasharray:5.0,5.0;" x1="1216" x2="1216" y1="86.2188" y2="1208.875"/><line style="stroke:#181818;stroke-width:0.5;stroke-dasharray:5.0,5.0;" x1="1318" x2="1318" y1="86.2188" y2="1208.875"/><line style="stroke:#181818;stroke-width:0.5;stroke-dasharray:5.0,5.0;" x1="1441" x2="1441" y1="86.2188" y2="1208.875"/><text fill="#000000" font-family="sans-serif" font-size="14" lengthAdjust="spacing" textLength="44" x="30" y="83.1426">Patient</text><ellipse cx="55" cy="17.1094" fill="#E2E2F0" rx="8" ry="8" style="stroke:#181818;stroke-width:0.5;"/><path d="M55,25.1094 L55,52.1094 M42,33.1094 L68,33.1094 M55,52.1094 L42,67.1094 M55,52.1094 L68,67.1094 " fill="none" style="stroke:#181818;stroke-width:0.5;"/><text fill="#000000" font-family="sans-serif" font-size="14" lengthAdjust="spacing" textLength="44" x="30" y="1222.4082">Patient</text><ellipse cx="55" cy="1233.9844" fill="#E2E2F0" rx="8" ry="8" style="stroke:#181818;stroke-width:0.5;"/><path d="M55,1241.9844 L55,1268.9844 M42,1249.9844 L68,1249.9844 M55,1268.9844 L42,1283.9844 M55,1268.9844 L68,1283.9844 " fill="none" style="stroke:#181818;stroke-width:0.5;"/><rect fill="#E2E2F0" height="49.2188" rx="2.5" ry="2.5" style="stroke:#181818;stroke-width:0.5;" width="112" x="254" y="36"/><text fill="#000000" font-family="sans-serif" font-size="14" font-style="italic" lengthAdjust="spacing" textLength="78" x="271" y="57.5332">&#171;Controller&#187;</text><text fill="#000000" font-family="sans-serif" font-size="14" lengthAdjust="spacing" textLength="98" x="261" y="75.1426">UsersController</text><rect fill="#E2E2F0" height="49.2188" rx="2.5" ry="2.5" style="stroke:#181818;stroke-width:0.5;" width="112" x="254" y="1207.875"/><text fill="#000000" font-family="sans-serif" font-size="14" font-style="italic" lengthAdjust="spacing" textLength="78" x="271" y="1229.4082">&#171;Controller&#187;</text><text fill="#000000" font-family="sans-serif" font-size="14" lengthAdjust="spacing" textLength="98" x="261" y="1247.0176">UsersController</text><rect fill="#E2E2F0" height="49.2188" rx="2.5" ry="2.5" style="stroke:#181818;stroke-width:0.5;" width="90" x="647" y="36"/><text fill="#000000" font-family="sans-serif" font-size="14" font-style="italic" lengthAdjust="spacing" textLength="62" x="661" y="57.5332">&#171;Service&#187;</text><text fill="#000000" font-family="sans-serif" font-size="14" lengthAdjust="spacing" textLength="76" x="654" y="75.1426">UserService</text><rect fill="#E2E2F0" height="49.2188" rx="2.5" ry="2.5" style="stroke:#181818;stroke-width:0.5;" width="90" x="647" y="1207.875"/><text fill="#000000" font-family="sans-serif" font-size="14" font-style="italic" lengthAdjust="spacing" textLength="62" x="661" y="1229.4082">&#171;Service&#187;</text><text fill="#000000" font-family="sans-serif" font-size="14" lengthAdjust="spacing" textLength="76" x="654" y="1247.0176">UserService</text><rect fill="#E2E2F0" height="49.2188" rx="2.5" ry="2.5" style="stroke:#181818;stroke-width:0.5;" width="78" x="1001" y="36"/><text fill="#000000" font-family="sans-serif" font-size="14" font-style="italic" lengthAdjust="spacing" textLength="64" x="1008" y="57.5332">&#171;Domain&#187;</text><text fill="#000000" font-family="sans-serif" font-size="14" lengthAdjust="spacing" textLength="29" x="1025.5" y="75.1426">User</text><rect fill="#E2E2F0" height="49.2188" rx="2.5" ry="2.5" style="stroke:#181818;stroke-width:0.5;" width="78" x="1001" y="1207.875"/><text fill="#000000" font-family="sans-serif" font-size="14" font-style="italic" lengthAdjust="spacing" textLength="64" x="1008" y="1229.4082">&#171;Domain&#187;</text><text fill="#000000" font-family="sans-serif" font-size="14" lengthAdjust="spacing" textLength="29" x="1025.5" y="1247.0176">User</text><rect fill="#E2E2F0" height="49.2188" rx="2.5" ry="2.5" style="stroke:#181818;stroke-width:0.5;" width="78" x="1089" y="36"/><text fill="#000000" font-family="sans-serif" font-size="14" font-style="italic" lengthAdjust="spacing" textLength="64" x="1096" y="57.5332">&#171;Domain&#187;</text><text fill="#000000" font-family="sans-serif" font-size="14" lengthAdjust="spacing" textLength="44" x="1106" y="75.1426">Patient</text><rect fill="#E2E2F0" height="49.2188" rx="2.5" ry="2.5" style="stroke:#181818;stroke-width:0.5;" width="78" x="1089" y="1207.875"/><text fill="#000000" font-family="sans-serif" font-size="14" font-style="italic" lengthAdjust="spacing" textLength="64" x="1096" y="1229.4082">&#171;Domain&#187;</text><text fill="#000000" font-family="sans-serif" font-size="14" lengthAdjust="spacing" textLength="44" x="1106" y="1247.0176">Patient</text><rect fill="#E2E2F0" height="49.2188" rx="2.5" ry="2.5" style="stroke:#181818;stroke-width:0.5;" width="78" x="1177" y="36"/><text fill="#000000" font-family="sans-serif" font-size="14" font-style="italic" lengthAdjust="spacing" textLength="64" x="1184" y="57.5332">&#171;Domain&#187;</text><text fill="#000000" font-family="sans-serif" font-size="14" lengthAdjust="spacing" textLength="51" x="1190.5" y="75.1426">UserDto</text><rect fill="#E2E2F0" height="49.2188" rx="2.5" ry="2.5" style="stroke:#181818;stroke-width:0.5;" width="78" x="1177" y="1207.875"/><text fill="#000000" font-family="sans-serif" font-size="14" font-style="italic" lengthAdjust="spacing" textLength="64" x="1184" y="1229.4082">&#171;Domain&#187;</text><text fill="#000000" font-family="sans-serif" font-size="14" lengthAdjust="spacing" textLength="51" x="1190.5" y="1247.0176">UserDto</text><text fill="#000000" font-family="sans-serif" font-size="14" font-style="italic" lengthAdjust="spacing" textLength="64" x="1283" y="65.5332">&#171;Domain&#187;</text><text fill="#000000" font-family="sans-serif" font-size="14" lengthAdjust="spacing" textLength="100" x="1265" y="83.1426">IUserRepository</text><path d="M1300,15 C1300,5 1318,5 1318,5 C1318,5 1336,5 1336,15 L1336,41 C1336,51 1318,51 1318,51 C1318,51 1300,51 1300,41 L1300,15 " fill="#E2E2F0" style="stroke:#181818;stroke-width:1.5;"/><path d="M1300,15 C1300,25 1318,25 1318,25 C1318,25 1336,25 1336,15 " fill="none" style="stroke:#181818;stroke-width:1.5;"/><text fill="#000000" font-family="sans-serif" font-size="14" font-style="italic" lengthAdjust="spacing" textLength="64" x="1283" y="1222.4082">&#171;Domain&#187;</text><text fill="#000000" font-family="sans-serif" font-size="14" lengthAdjust="spacing" textLength="100" x="1265" y="1240.0176">IUserRepository</text><path d="M1300,1253.0938 C1300,1243.0938 1318,1243.0938 1318,1243.0938 C1318,1243.0938 1336,1243.0938 1336,1253.0938 L1336,1279.0938 C1336,1289.0938 1318,1289.0938 1318,1289.0938 C1318,1289.0938 1300,1289.0938 1300,1279.0938 L1300,1253.0938 " fill="#E2E2F0" style="stroke:#181818;stroke-width:1.5;"/><path d="M1300,1253.0938 C1300,1263.0938 1318,1263.0938 1318,1263.0938 C1318,1263.0938 1336,1263.0938 1336,1253.0938 " fill="none" style="stroke:#181818;stroke-width:1.5;"/><text fill="#000000" font-family="sans-serif" font-size="14" font-style="italic" lengthAdjust="spacing" textLength="64" x="1406.5" y="65.5332">&#171;Domain&#187;</text><text fill="#000000" font-family="sans-serif" font-size="14" lengthAdjust="spacing" textLength="115" x="1381" y="83.1426">IPatientRepository</text><path d="M1423.5,15 C1423.5,5 1441.5,5 1441.5,5 C1441.5,5 1459.5,5 1459.5,15 L1459.5,41 C1459.5,51 1441.5,51 1441.5,51 C1441.5,51 1423.5,51 1423.5,41 L1423.5,15 " fill="#E2E2F0" style="stroke:#181818;stroke-width:1.5;"/><path d="M1423.5,15 C1423.5,25 1441.5,25 1441.5,25 C1441.5,25 1459.5,25 1459.5,15 " fill="none" style="stroke:#181818;stroke-width:1.5;"/><text fill="#000000" font-family="sans-serif" font-size="14" font-style="italic" lengthAdjust="spacing" textLength="64" x="1406.5" y="1222.4082">&#171;Domain&#187;</text><text fill="#000000" font-family="sans-serif" font-size="14" lengthAdjust="spacing" textLength="115" x="1381" y="1240.0176">IPatientRepository</text><path d="M1423.5,1253.0938 C1423.5,1243.0938 1441.5,1243.0938 1441.5,1243.0938 C1441.5,1243.0938 1459.5,1243.0938 1459.5,1253.0938 L1459.5,1279.0938 C1459.5,1289.0938 1441.5,1289.0938 1441.5,1289.0938 C1441.5,1289.0938 1423.5,1289.0938 1423.5,1279.0938 L1423.5,1253.0938 " fill="#E2E2F0" style="stroke:#181818;stroke-width:1.5;"/><path d="M1423.5,1253.0938 C1423.5,1263.0938 1441.5,1263.0938 1441.5,1263.0938 C1441.5,1263.0938 1459.5,1263.0938 1459.5,1253.0938 " fill="none" style="stroke:#181818;stroke-width:1.5;"/><rect fill="#FFFFFF" height="1094.6563" style="stroke:#181818;stroke-width:1.0;" width="10" x="50" y="96.2188"/><rect fill="#FFFFFF" height="1072.3047" style="stroke:#181818;stroke-width:1.0;" width="10" x="305" y="118.5703"/><rect fill="#FFFFFF" height="1019.6016" style="stroke:#181818;stroke-width:1.0;" width="10" x="687" y="148.9219"/><rect fill="#FFFFFF" height="30.3516" style="stroke:#181818;stroke-width:1.0;" width="10" x="1211" y="1085.8203"/><rect fill="#FFFFFF" height="30.3516" style="stroke:#181818;stroke-width:1.0;" width="10" x="1313" y="179.2734"/><rect fill="#FFFFFF" height="30.3516" style="stroke:#181818;stroke-width:1.0;" width="10" x="1313" y="881.3594"/><rect fill="#FFFFFF" height="30.3516" style="stroke:#181818;stroke-width:1.0;" width="10" x="1436.5" y="326.0313"/><rect fill="#FFFFFF" height="30.3516" style="stroke:#181818;stroke-width:1.0;" width="10" x="1436.5" y="972.4141"/><polygon fill="#181818" points="293,114.5703,303,118.5703,293,122.5703,297,118.5703" style="stroke:#181818;stroke-width:1.0;"/><line style="stroke:#181818;stroke-width:1.0;" x1="60" x2="299" y1="118.5703" y2="118.5703"/><text fill="#000000" font-family="sans-serif" font-size="13" font-weight="bold" lengthAdjust="spacing" textLength="7" x="67" y="113.7139">1</text><text fill="#000000" font-family="sans-serif" font-size="13" lengthAdjust="spacing" textLength="215" x="78" y="113.7139">POST /api/users/patients/{username}</text><polygon fill="#181818" points="675,144.9219,685,148.9219,675,152.9219,679,148.9219" style="stroke:#181818;stroke-width:1.0;"/><line style="stroke:#181818;stroke-width:1.0;" x1="315" x2="681" y1="148.9219" y2="148.9219"/><text fill="#000000" font-family="sans-serif" font-size="13" font-weight="bold" lengthAdjust="spacing" textLength="7" x="322" y="144.0654">2</text><text fill="#000000" font-family="sans-serif" font-size="13" lengthAdjust="spacing" textLength="342" x="333" y="144.0654">UpdateUserPatientAsync(username,updateUserPatientDto)</text><polygon fill="#181818" points="1301,175.2734,1311,179.2734,1301,183.2734,1305,179.2734" style="stroke:#181818;stroke-width:1.0;"/><line style="stroke:#181818;stroke-width:1.0;" x1="697" x2="1307" y1="179.2734" y2="179.2734"/><text fill="#000000" font-family="sans-serif" font-size="13" font-weight="bold" lengthAdjust="spacing" textLength="7" x="704" y="174.417">3</text><text fill="#000000" font-family="sans-serif" font-size="13" lengthAdjust="spacing" textLength="149" x="715" y="174.417">GetByIdAsync(username)</text><polygon fill="#181818" points="708,205.625,698,209.625,708,213.625,704,209.625" style="stroke:#181818;stroke-width:1.0;"/><line style="stroke:#181818;stroke-width:1.0;stroke-dasharray:2.0,2.0;" x1="702" x2="1317" y1="209.625" y2="209.625"/><text fill="#000000" font-family="sans-serif" font-size="13" font-weight="bold" lengthAdjust="spacing" textLength="7" x="714" y="204.7686">4</text><text fill="#000000" font-family="sans-serif" font-size="13" lengthAdjust="spacing" textLength="25" x="725" y="204.7686">user</text><path d="M10,224.625 L71,224.625 L71,232.9766 L61,242.9766 L10,242.9766 L10,224.625 " fill="#EEEEEE" style="stroke:#000000;stroke-width:1.5;"/><rect fill="none" height="936.8984" style="stroke:#000000;stroke-width:1.5;" width="1512" x="10" y="224.625"/><text fill="#000000" font-family="sans-serif" font-size="13" font-weight="bold" lengthAdjust="spacing" textLength="16" x="25" y="239.1201">alt</text><text fill="#000000" font-family="sans-serif" font-size="11" font-weight="bold" lengthAdjust="spacing" textLength="72" x="86" y="238.0439">[user == null]</text><polygon fill="#181818" points="326,261.3281,316,265.3281,326,269.3281,322,265.3281" style="stroke:#181818;stroke-width:1.0;"/><line style="stroke:#181818;stroke-width:1.0;stroke-dasharray:2.0,2.0;" x1="320" x2="686" y1="265.3281" y2="265.3281"/><text fill="#000000" font-family="sans-serif" font-size="13" font-weight="bold" lengthAdjust="spacing" textLength="7" x="332" y="260.4717">5</text><text fill="#000000" font-family="sans-serif" font-size="13" lengthAdjust="spacing" textLength="138" x="343" y="260.4717">NullReferenceException</text><polygon fill="#181818" points="71,291.6797,61,295.6797,71,299.6797,67,295.6797" style="stroke:#181818;stroke-width:1.0;"/><line style="stroke:#181818;stroke-width:1.0;stroke-dasharray:2.0,2.0;" x1="65" x2="304" y1="295.6797" y2="295.6797"/><text fill="#000000" font-family="sans-serif" font-size="13" font-weight="bold" lengthAdjust="spacing" textLength="7" x="77" y="290.8232">6</text><text fill="#000000" font-family="sans-serif" font-size="13" lengthAdjust="spacing" textLength="85" x="88" y="290.8232">404 Not Found</text><polygon fill="#181818" points="1424.5,322.0313,1434.5,326.0313,1424.5,330.0313,1428.5,326.0313" style="stroke:#181818;stroke-width:1.0;"/><line style="stroke:#181818;stroke-width:1.0;" x1="697" x2="1430.5" y1="326.0313" y2="326.0313"/><text fill="#000000" font-family="sans-serif" font-size="13" font-weight="bold" lengthAdjust="spacing" textLength="7" x="704" y="321.1748">7</text><text fill="#000000" font-family="sans-serif" font-size="13" lengthAdjust="spacing" textLength="176" x="715" y="321.1748">GetByUserIdAsync(username)</text><polygon fill="#181818" points="708,352.3828,698,356.3828,708,360.3828,704,356.3828" style="stroke:#181818;stroke-width:1.0;"/><line style="stroke:#181818;stroke-width:1.0;stroke-dasharray:2.0,2.0;" x1="702" x2="1440.5" y1="356.3828" y2="356.3828"/><text fill="#000000" font-family="sans-serif" font-size="13" font-weight="bold" lengthAdjust="spacing" textLength="7" x="714" y="351.5264">8</text><text fill="#000000" font-family="sans-serif" font-size="13" lengthAdjust="spacing" textLength="39" x="725" y="351.5264">patient</text><path d="M20,371.3828 L81,371.3828 L81,379.7344 L71,389.7344 L20,389.7344 L20,371.3828 " fill="#EEEEEE" style="stroke:#000000;stroke-width:1.5;"/><rect fill="none" height="783.1406" style="stroke:#000000;stroke-width:1.5;" width="1492" x="20" y="371.3828"/><text fill="#000000" font-family="sans-serif" font-size="13" font-weight="bold" lengthAdjust="spacing" textLength="16" x="35" y="385.8779">alt</text><text fill="#000000" font-family="sans-serif" font-size="11" font-weight="bold" lengthAdjust="spacing" textLength="84" x="96" y="384.8018">[patient == null]</text><polygon fill="#181818" points="326,408.0859,316,412.0859,326,416.0859,322,412.0859" style="stroke:#181818;stroke-width:1.0;"/><line style="stroke:#181818;stroke-width:1.0;stroke-dasharray:2.0,2.0;" x1="320" x2="686" y1="412.0859" y2="412.0859"/><text fill="#000000" font-family="sans-serif" font-size="13" font-weight="bold" lengthAdjust="spacing" textLength="7" x="332" y="407.2295">9</text><text fill="#000000" font-family="sans-serif" font-size="13" lengthAdjust="spacing" textLength="138" x="343" y="407.2295">NullReferenceException</text><polygon fill="#181818" points="71,438.4375,61,442.4375,71,446.4375,67,442.4375" style="stroke:#181818;stroke-width:1.0;"/><line style="stroke:#181818;stroke-width:1.0;stroke-dasharray:2.0,2.0;" x1="65" x2="304" y1="442.4375" y2="442.4375"/><text fill="#000000" font-family="sans-serif" font-size="13" font-weight="bold" lengthAdjust="spacing" textLength="14" x="77" y="437.5811">10</text><text fill="#000000" font-family="sans-serif" font-size="13" lengthAdjust="spacing" textLength="85" x="95" y="437.5811">404 Not Found</text><line style="stroke:#000000;stroke-width:1.0;stroke-dasharray:2.0,2.0;" x1="20" x2="1512" y1="451.4375" y2="451.4375"/><path d="M637,459.4375 L698,459.4375 L698,467.7891 L688,477.7891 L637,477.7891 L637,459.4375 " fill="#EEEEEE" style="stroke:#000000;stroke-width:1.5;"/><rect fill="none" height="48.7031" style="stroke:#000000;stroke-width:1.5;" width="452" x="637" y="459.4375"/><text fill="#000000" font-family="sans-serif" font-size="13" font-weight="bold" lengthAdjust="spacing" textLength="16" x="652" y="473.9326">alt</text><text fill="#000000" font-family="sans-serif" font-size="11" font-weight="bold" lengthAdjust="spacing" textLength="197" x="713" y="472.8564">[updatePatientDto.Username != null]</text><polygon fill="#181818" points="1028,496.1406,1038,500.1406,1028,504.1406,1032,500.1406" style="stroke:#181818;stroke-width:1.0;"/><line style="stroke:#181818;stroke-width:1.0;" x1="697" x2="1034" y1="500.1406" y2="500.1406"/><text fill="#000000" font-family="sans-serif" font-size="13" font-weight="bold" lengthAdjust="spacing" textLength="14" x="704" y="495.2842">11</text><text fill="#000000" font-family="sans-serif" font-size="13" lengthAdjust="spacing" textLength="301" x="722" y="495.2842">ChangeUsername(updateUserPatientDto.Username)</text><path d="M637,522.1406 L698,522.1406 L698,530.4922 L688,540.4922 L637,540.4922 L637,522.1406 " fill="#EEEEEE" style="stroke:#000000;stroke-width:1.5;"/><rect fill="none" height="48.7031" style="stroke:#000000;stroke-width:1.5;" width="540" x="637" y="522.1406"/><text fill="#000000" font-family="sans-serif" font-size="13" font-weight="bold" lengthAdjust="spacing" textLength="16" x="652" y="536.6357">alt</text><text fill="#000000" font-family="sans-serif" font-size="11" font-weight="bold" lengthAdjust="spacing" textLength="196" x="713" y="535.5596">[updatePatientDto.FirstName != null]</text><polygon fill="#181818" points="1116,558.8438,1126,562.8438,1116,566.8438,1120,562.8438" style="stroke:#181818;stroke-width:1.0;"/><line style="stroke:#181818;stroke-width:1.0;" x1="697" x2="1122" y1="562.8438" y2="562.8438"/><text fill="#000000" font-family="sans-serif" font-size="13" font-weight="bold" lengthAdjust="spacing" textLength="14" x="704" y="557.9873">12</text><text fill="#000000" font-family="sans-serif" font-size="13" lengthAdjust="spacing" textLength="302" x="722" y="557.9873">ChangeUsername(updateUserPatientDto.FirstName)</text><path d="M637,584.8438 L698,584.8438 L698,593.1953 L688,603.1953 L637,603.1953 L637,584.8438 " fill="#EEEEEE" style="stroke:#000000;stroke-width:1.5;"/><rect fill="none" height="48.7031" style="stroke:#000000;stroke-width:1.5;" width="540" x="637" y="584.8438"/><text fill="#000000" font-family="sans-serif" font-size="13" font-weight="bold" lengthAdjust="spacing" textLength="16" x="652" y="599.3389">alt</text><text fill="#000000" font-family="sans-serif" font-size="11" font-weight="bold" lengthAdjust="spacing" textLength="195" x="713" y="598.2627">[updatePatientDto.LastName != null]</text><polygon fill="#181818" points="1116,621.5469,1126,625.5469,1116,629.5469,1120,625.5469" style="stroke:#181818;stroke-width:1.0;"/><line style="stroke:#181818;stroke-width:1.0;" x1="697" x2="1122" y1="625.5469" y2="625.5469"/><text fill="#000000" font-family="sans-serif" font-size="13" font-weight="bold" lengthAdjust="spacing" textLength="14" x="704" y="620.6904">13</text><text fill="#000000" font-family="sans-serif" font-size="13" lengthAdjust="spacing" textLength="301" x="722" y="620.6904">ChangeUsername(updateUserPatientDto.LastName)</text><path d="M637,647.5469 L698,647.5469 L698,655.8984 L688,665.8984 L637,665.8984 L637,647.5469 " fill="#EEEEEE" style="stroke:#000000;stroke-width:1.5;"/><rect fill="none" height="48.7031" style="stroke:#000000;stroke-width:1.5;" width="540" x="637" y="647.5469"/><text fill="#000000" font-family="sans-serif" font-size="13" font-weight="bold" lengthAdjust="spacing" textLength="16" x="652" y="662.042">alt</text><text fill="#000000" font-family="sans-serif" font-size="11" font-weight="bold" lengthAdjust="spacing" textLength="190" x="713" y="660.9658">[updatePatientDto.FullName != null]</text><polygon fill="#181818" points="1116,684.25,1126,688.25,1116,692.25,1120,688.25" style="stroke:#181818;stroke-width:1.0;"/><line style="stroke:#181818;stroke-width:1.0;" x1="697" x2="1122" y1="688.25" y2="688.25"/><text fill="#000000" font-family="sans-serif" font-size="13" font-weight="bold" lengthAdjust="spacing" textLength="14" x="704" y="683.3936">14</text><text fill="#000000" font-family="sans-serif" font-size="13" lengthAdjust="spacing" textLength="297" x="722" y="683.3936">ChangeUsername(updateUserPatientDto.FullName)</text><path d="M637,710.25 L698,710.25 L698,718.6016 L688,728.6016 L637,728.6016 L637,710.25 " fill="#EEEEEE" style="stroke:#000000;stroke-width:1.5;"/><rect fill="none" height="79.0547" style="stroke:#000000;stroke-width:1.5;" width="540" x="637" y="710.25"/><text fill="#000000" font-family="sans-serif" font-size="13" font-weight="bold" lengthAdjust="spacing" textLength="16" x="652" y="724.7451">alt</text><text fill="#000000" font-family="sans-serif" font-size="11" font-weight="bold" lengthAdjust="spacing" textLength="169" x="713" y="723.6689">[updatePatientDto.Email != null]</text><polygon fill="#181818" points="1028,746.9531,1038,750.9531,1028,754.9531,1032,750.9531" style="stroke:#181818;stroke-width:1.0;"/><line style="stroke:#181818;stroke-width:1.0;" x1="697" x2="1034" y1="750.9531" y2="750.9531"/><text fill="#000000" font-family="sans-serif" font-size="13" font-weight="bold" lengthAdjust="spacing" textLength="14" x="704" y="746.0967">15</text><text fill="#000000" font-family="sans-serif" font-size="13" lengthAdjust="spacing" textLength="249" x="722" y="746.0967">ChangeEmail(updateUserPatientDto.Email)</text><polygon fill="#181818" points="1116,777.3047,1126,781.3047,1116,785.3047,1120,781.3047" style="stroke:#181818;stroke-width:1.0;"/><line style="stroke:#181818;stroke-width:1.0;" x1="697" x2="1122" y1="781.3047" y2="781.3047"/><text fill="#000000" font-family="sans-serif" font-size="13" font-weight="bold" lengthAdjust="spacing" textLength="14" x="704" y="776.4482">16</text><text fill="#000000" font-family="sans-serif" font-size="13" lengthAdjust="spacing" textLength="249" x="722" y="776.4482">ChangeEmail(updateUserPatientDto.Email)</text><path d="M637,803.3047 L698,803.3047 L698,811.6563 L688,821.6563 L637,821.6563 L637,803.3047 " fill="#EEEEEE" style="stroke:#000000;stroke-width:1.5;"/><rect fill="none" height="48.7031" style="stroke:#000000;stroke-width:1.5;" width="540" x="637" y="803.3047"/><text fill="#000000" font-family="sans-serif" font-size="13" font-weight="bold" lengthAdjust="spacing" textLength="16" x="652" y="817.7998">alt</text><text fill="#000000" font-family="sans-serif" font-size="11" font-weight="bold" lengthAdjust="spacing" textLength="219" x="713" y="816.7236">[updatePatientDto.PhoneNumber != null]</text><polygon fill="#181818" points="1116,840.0078,1126,844.0078,1116,848.0078,1120,844.0078" style="stroke:#181818;stroke-width:1.0;"/><line style="stroke:#181818;stroke-width:1.0;" x1="697" x2="1122" y1="844.0078" y2="844.0078"/><text fill="#000000" font-family="sans-serif" font-size="13" font-weight="bold" lengthAdjust="spacing" textLength="14" x="704" y="839.1514">17</text><text fill="#000000" font-family="sans-serif" font-size="13" lengthAdjust="spacing" textLength="347" x="722" y="839.1514">ChangePhoneNumber(updateUserPatientDto.PhoneNumber)</text><polygon fill="#181818" points="1301,877.3594,1311,881.3594,1301,885.3594,1305,881.3594" style="stroke:#181818;stroke-width:1.0;"/><line style="stroke:#181818;stroke-width:1.0;" x1="697" x2="1307" y1="881.3594" y2="881.3594"/><text fill="#000000" font-family="sans-serif" font-size="13" font-weight="bold" lengthAdjust="spacing" textLength="14" x="704" y="876.5029">18</text><text fill="#000000" font-family="sans-serif" font-size="13" lengthAdjust="spacing" textLength="111" x="722" y="876.5029">UpdateAsync(user)</text><polygon fill="#181818" points="708,907.7109,698,911.7109,708,915.7109,704,911.7109" style="stroke:#181818;stroke-width:1.0;"/><line style="stroke:#181818;stroke-width:1.0;stroke-dasharray:2.0,2.0;" x1="702" x2="1317" y1="911.7109" y2="911.7109"/><text fill="#000000" font-family="sans-serif" font-size="13" font-weight="bold" lengthAdjust="spacing" textLength="14" x="714" y="906.8545">19</text><text fill="#000000" font-family="sans-serif" font-size="13" lengthAdjust="spacing" textLength="25" x="732" y="906.8545">user</text><polygon fill="#181818" points="1116,938.0625,1126,942.0625,1116,946.0625,1120,942.0625" style="stroke:#181818;stroke-width:1.0;"/><line style="stroke:#181818;stroke-width:1.0;" x1="697" x2="1122" y1="942.0625" y2="942.0625"/><text fill="#000000" font-family="sans-serif" font-size="13" font-weight="bold" lengthAdjust="spacing" textLength="14" x="704" y="937.2061">20</text><text fill="#000000" font-family="sans-serif" font-size="13" lengthAdjust="spacing" textLength="101" x="722" y="937.2061">UpdateUser(user)</text><polygon fill="#181818" points="1424.5,968.4141,1434.5,972.4141,1424.5,976.4141,1428.5,972.4141" style="stroke:#181818;stroke-width:1.0;"/><line style="stroke:#181818;stroke-width:1.0;" x1="697" x2="1430.5" y1="972.4141" y2="972.4141"/><text fill="#000000" font-family="sans-serif" font-size="13" font-weight="bold" lengthAdjust="spacing" textLength="14" x="704" y="967.5576">21</text><text fill="#000000" font-family="sans-serif" font-size="13" lengthAdjust="spacing" textLength="125" x="722" y="967.5576">UpdateAsync(patient)</text><polygon fill="#181818" points="708,998.7656,698,1002.7656,708,1006.7656,704,1002.7656" style="stroke:#181818;stroke-width:1.0;"/><line style="stroke:#181818;stroke-width:1.0;stroke-dasharray:2.0,2.0;" x1="702" x2="1440.5" y1="1002.7656" y2="1002.7656"/><text fill="#000000" font-family="sans-serif" font-size="13" font-weight="bold" lengthAdjust="spacing" textLength="14" x="714" y="997.9092">22</text><text fill="#000000" font-family="sans-serif" font-size="13" lengthAdjust="spacing" textLength="39" x="732" y="997.9092">patient</text><path d="M702,1015.7656 L702,1057.7656 L965,1057.7656 L965,1025.7656 L955,1015.7656 L702,1015.7656 " fill="#FEFFDD" style="stroke:#181818;stroke-width:0.5;"/><path d="M955,1015.7656 L955,1025.7656 L965,1025.7656 L955,1015.7656 " fill="#FEFFDD" style="stroke:#181818;stroke-width:0.5;"/><text fill="#000000" font-family="sans-serif" font-size="13" lengthAdjust="spacing" textLength="163" x="708" y="1034.2607">Update user in the auth0 api</text><text fill="#000000" font-family="sans-serif" font-size="13" lengthAdjust="spacing" textLength="242" x="708" y="1050.6123">and send email by auth0 for for verification</text><polygon fill="#181818" points="1199,1081.8203,1209,1085.8203,1199,1089.8203,1203,1085.8203" style="stroke:#181818;stroke-width:1.0;"/><line style="stroke:#181818;stroke-width:1.0;" x1="697" x2="1205" y1="1085.8203" y2="1085.8203"/><text fill="#000000" font-family="sans-serif" font-size="13" font-weight="bold" lengthAdjust="spacing" textLength="14" x="704" y="1080.9639">23</text><text fill="#000000" font-family="sans-serif" font-size="13" lengthAdjust="spacing" textLength="170" x="722" y="1080.9639">create(Username,Email,Role)</text><polygon fill="#181818" points="708,1112.1719,698,1116.1719,708,1120.1719,704,1116.1719" style="stroke:#181818;stroke-width:1.0;"/><line style="stroke:#181818;stroke-width:1.0;stroke-dasharray:2.0,2.0;" x1="702" x2="1215" y1="1116.1719" y2="1116.1719"/><text fill="#000000" font-family="sans-serif" font-size="13" font-weight="bold" lengthAdjust="spacing" textLength="14" x="714" y="1111.3154">24</text><text fill="#000000" font-family="sans-serif" font-size="13" lengthAdjust="spacing" textLength="45" x="732" y="1111.3154">userDto</text><polygon fill="#181818" points="326,1142.5234,316,1146.5234,326,1150.5234,322,1146.5234" style="stroke:#181818;stroke-width:1.0;"/><line style="stroke:#181818;stroke-width:1.0;stroke-dasharray:2.0,2.0;" x1="320" x2="686" y1="1146.5234" y2="1146.5234"/><text fill="#000000" font-family="sans-serif" font-size="13" font-weight="bold" lengthAdjust="spacing" textLength="14" x="332" y="1141.667">25</text><text fill="#000000" font-family="sans-serif" font-size="13" lengthAdjust="spacing" textLength="45" x="350" y="1141.667">userDto</text><polygon fill="#181818" points="66,1186.875,56,1190.875,66,1194.875,62,1190.875" style="stroke:#181818;stroke-width:1.0;"/><line style="stroke:#181818;stroke-width:1.0;stroke-dasharray:2.0,2.0;" x1="60" x2="309" y1="1190.875" y2="1190.875"/><text fill="#000000" font-family="sans-serif" font-size="13" font-weight="bold" lengthAdjust="spacing" textLength="14" x="72" y="1186.0186">26</text><text fill="#000000" font-family="sans-serif" font-size="13" lengthAdjust="spacing" textLength="44" x="90" y="1186.0186">200 OK</text><!--SRC=[pLRTQzim47_FNt7BKmB94aQVGXlO-Z7AHbhQvcqlYdDf18vaR3aiZFtlasp9bYsfSHeA4nXaw-vt7xhpxqWkECjtAqnxFH89daB_aGYAJFI1PA3tNzL9Bo6fe15D21FGNsQOPjUSYPJ7CQQ5TFqAbvVrotpkgZvZkgSH5cfwBtNqpgTGIAgD5BlXEq9PMyhZTr1M0Tq8Ne7AlIsx9eAiI8RGlrUdJvZmZCeK72g5-bD0JtlGKdM-sjhg0kYU26oclGTosL_6SplJCtXyU7w12Kde95UNCabAsMpoHxqpiiE_9KY5NwkN1sfPaDA0kPCPB1CP5QgOZG_PWKK30ptAs-SobyCQjhAf4UiJjOmPQR6LrHbyH_7jSBzkcXiszIlqfdPJIAqM-jWAKPfIw4sTDNQ29h4ebE7g2bWUnwxXAiBshIsa-1DkC4KMuUtl21D1ENC1x9k7o_6uYN8nlO055t37SxOEvjOjEvrU5LlN53iWGLy3YPw1hinWge-OKDdM42RXy3zb76FP-d8vYCu75GcKdLDtpUUblW7ufAi9FAlLCjAZworXhsYK1xw6hA273YQsemZxTqVJJ2nESD3yXhlvMC6VvUHFyf4-6lJpyYZT-i0qQlIpNBoLd1I_gmuBJRzdnT7mr6XF1pmXpiSjPxWe1g3tteO5uVVI4kZeQqLDFbui2Rd-PmyziNQbnIFKw6F64zWncBXwfWX5S8Iyx1neHdWh3HseAqnV7luw-d_lpcbgIJgHTvtIrwq0lZ7sJ9JbW44PY2q2oSLs2dBMWr-Ci3Laidu0YsPT7VJfHjAMUlQOqWsDY9_bMlsh9k0PH2bAYmFpWnaL3JPwuZ4UgpAf7oul1UxMbLUbLLfUcI336zHsWmKRphBcpATlZm5VfbDu-55AMoZsPEqMWHxe_m40]--></g></svg>