<?xml version="1.0" encoding="us-ascii" standalone="no"?><svg xmlns="http://www.w3.org/2000/svg" xmlns:xlink="http://www.w3.org/1999/xlink" contentStyleType="text/css" height="1213px" preserveAspectRatio="none" style="width:1476px;height:1213px;background:#FFFFFF;" version="1.1" viewBox="0 0 1476 1213" width="1476px" zoomAndPan="magnify"><defs/><g><rect fill="#FFFFFF" height="1001.6016" style="stroke:#181818;stroke-width:1.0;" width="10" x="50" y="96.2188"/><rect fill="#FFFFFF" height="979.25" style="stroke:#181818;stroke-width:1.0;" width="10" x="295" y="118.5703"/><rect fill="#FFFFFF" height="926.5469" style="stroke:#181818;stroke-width:1.0;" width="10" x="677" y="148.9219"/><rect fill="#FFFFFF" height="30.3516" style="stroke:#181818;stroke-width:1.0;" width="10" x="1159" y="992.7656"/><rect fill="#FFFFFF" height="30.3516" style="stroke:#181818;stroke-width:1.0;" width="10" x="1261" y="179.2734"/><rect fill="#FFFFFF" height="30.3516" style="stroke:#181818;stroke-width:1.0;" width="10" x="1261" y="818.6563"/><rect fill="#FFFFFF" height="30.3516" style="stroke:#181818;stroke-width:1.0;" width="10" x="1384.5" y="326.0313"/><rect fill="#FFFFFF" height="30.3516" style="stroke:#181818;stroke-width:1.0;" width="10" x="1384.5" y="879.3594"/><rect fill="none" height="843.8438" style="stroke:#000000;stroke-width:1.5;" width="1460" x="10" y="224.625"/><rect fill="none" height="690.0859" style="stroke:#000000;stroke-width:1.5;" width="1440" x="20" y="371.3828"/><rect fill="none" height="48.7031" style="stroke:#000000;stroke-width:1.5;" width="498" x="627" y="459.4375"/><rect fill="none" height="48.7031" style="stroke:#000000;stroke-width:1.5;" width="498" x="627" y="522.1406"/><rect fill="none" height="48.7031" style="stroke:#000000;stroke-width:1.5;" width="498" x="627" y="584.8438"/><rect fill="none" height="79.0547" style="stroke:#000000;stroke-width:1.5;" width="498" x="627" y="647.5469"/><rect fill="none" height="48.7031" style="stroke:#000000;stroke-width:1.5;" width="498" x="627" y="740.6016"/><line style="stroke:#181818;stroke-width:0.5;stroke-dasharray:5.0,5.0;" x1="55" x2="55" y1="86.2188" y2="1115.8203"/><line style="stroke:#181818;stroke-width:0.5;stroke-dasharray:5.0,5.0;" x1="300" x2="300" y1="86.2188" y2="1115.8203"/><line style="stroke:#181818;stroke-width:0.5;stroke-dasharray:5.0,5.0;" x1="682" x2="682" y1="86.2188" y2="1115.8203"/><line style="stroke:#181818;stroke-width:0.5;stroke-dasharray:5.0,5.0;" x1="978" x2="978" y1="86.2188" y2="1115.8203"/><line style="stroke:#181818;stroke-width:0.5;stroke-dasharray:5.0,5.0;" x1="1076" x2="1076" y1="86.2188" y2="1115.8203"/><line style="stroke:#181818;stroke-width:0.5;stroke-dasharray:5.0,5.0;" x1="1164" x2="1164" y1="86.2188" y2="1115.8203"/><line style="stroke:#181818;stroke-width:0.5;stroke-dasharray:5.0,5.0;" x1="1266" x2="1266" y1="86.2188" y2="1115.8203"/><line style="stroke:#181818;stroke-width:0.5;stroke-dasharray:5.0,5.0;" x1="1389" x2="1389" y1="86.2188" y2="1115.8203"/><text fill="#000000" font-family="sans-serif" font-size="14" lengthAdjust="spacing" textLength="44" x="30" y="83.1426">Patient</text><ellipse cx="55" cy="17.1094" fill="#E2E2F0" rx="8" ry="8" style="stroke:#181818;stroke-width:0.5;"/><path d="M55,25.1094 L55,52.1094 M42,33.1094 L68,33.1094 M55,52.1094 L42,67.1094 M55,52.1094 L68,67.1094 " fill="none" style="stroke:#181818;stroke-width:0.5;"/><text fill="#000000" font-family="sans-serif" font-size="14" lengthAdjust="spacing" textLength="44" x="30" y="1129.3535">Patient</text><ellipse cx="55" cy="1140.9297" fill="#E2E2F0" rx="8" ry="8" style="stroke:#181818;stroke-width:0.5;"/><path d="M55,1148.9297 L55,1175.9297 M42,1156.9297 L68,1156.9297 M55,1175.9297 L42,1190.9297 M55,1175.9297 L68,1190.9297 " fill="none" style="stroke:#181818;stroke-width:0.5;"/><rect fill="#E2E2F0" height="49.2188" rx="2.5" ry="2.5" style="stroke:#181818;stroke-width:0.5;" width="112" x="244" y="36"/><text fill="#000000" font-family="sans-serif" font-size="14" font-style="italic" lengthAdjust="spacing" textLength="78" x="261" y="57.5332">&#171;Controller&#187;</text><text fill="#000000" font-family="sans-serif" font-size="14" lengthAdjust="spacing" textLength="98" x="251" y="75.1426">UsersController</text><rect fill="#E2E2F0" height="49.2188" rx="2.5" ry="2.5" style="stroke:#181818;stroke-width:0.5;" width="112" x="244" y="1114.8203"/><text fill="#000000" font-family="sans-serif" font-size="14" font-style="italic" lengthAdjust="spacing" textLength="78" x="261" y="1136.3535">&#171;Controller&#187;</text><text fill="#000000" font-family="sans-serif" font-size="14" lengthAdjust="spacing" textLength="98" x="251" y="1153.9629">UsersController</text><rect fill="#E2E2F0" height="49.2188" rx="2.5" ry="2.5" style="stroke:#181818;stroke-width:0.5;" width="90" x="637" y="36"/><text fill="#000000" font-family="sans-serif" font-size="14" font-style="italic" lengthAdjust="spacing" textLength="62" x="651" y="57.5332">&#171;Service&#187;</text><text fill="#000000" font-family="sans-serif" font-size="14" lengthAdjust="spacing" textLength="76" x="644" y="75.1426">UserService</text><rect fill="#E2E2F0" height="49.2188" rx="2.5" ry="2.5" style="stroke:#181818;stroke-width:0.5;" width="90" x="637" y="1114.8203"/><text fill="#000000" font-family="sans-serif" font-size="14" font-style="italic" lengthAdjust="spacing" textLength="62" x="651" y="1136.3535">&#171;Service&#187;</text><text fill="#000000" font-family="sans-serif" font-size="14" lengthAdjust="spacing" textLength="76" x="644" y="1153.9629">UserService</text><rect fill="#E2E2F0" height="49.2188" rx="2.5" ry="2.5" style="stroke:#181818;stroke-width:0.5;" width="78" x="939" y="36"/><text fill="#000000" font-family="sans-serif" font-size="14" font-style="italic" lengthAdjust="spacing" textLength="64" x="946" y="57.5332">&#171;Domain&#187;</text><text fill="#000000" font-family="sans-serif" font-size="14" lengthAdjust="spacing" textLength="29" x="963.5" y="75.1426">User</text><rect fill="#E2E2F0" height="49.2188" rx="2.5" ry="2.5" style="stroke:#181818;stroke-width:0.5;" width="78" x="939" y="1114.8203"/><text fill="#000000" font-family="sans-serif" font-size="14" font-style="italic" lengthAdjust="spacing" textLength="64" x="946" y="1136.3535">&#171;Domain&#187;</text><text fill="#000000" font-family="sans-serif" font-size="14" lengthAdjust="spacing" textLength="29" x="963.5" y="1153.9629">User</text><rect fill="#E2E2F0" height="49.2188" rx="2.5" ry="2.5" style="stroke:#181818;stroke-width:0.5;" width="78" x="1037" y="36"/><text fill="#000000" font-family="sans-serif" font-size="14" font-style="italic" lengthAdjust="spacing" textLength="64" x="1044" y="57.5332">&#171;Domain&#187;</text><text fill="#000000" font-family="sans-serif" font-size="14" lengthAdjust="spacing" textLength="44" x="1054" y="75.1426">Patient</text><rect fill="#E2E2F0" height="49.2188" rx="2.5" ry="2.5" style="stroke:#181818;stroke-width:0.5;" width="78" x="1037" y="1114.8203"/><text fill="#000000" font-family="sans-serif" font-size="14" font-style="italic" lengthAdjust="spacing" textLength="64" x="1044" y="1136.3535">&#171;Domain&#187;</text><text fill="#000000" font-family="sans-serif" font-size="14" lengthAdjust="spacing" textLength="44" x="1054" y="1153.9629">Patient</text><rect fill="#E2E2F0" height="49.2188" rx="2.5" ry="2.5" style="stroke:#181818;stroke-width:0.5;" width="78" x="1125" y="36"/><text fill="#000000" font-family="sans-serif" font-size="14" font-style="italic" lengthAdjust="spacing" textLength="64" x="1132" y="57.5332">&#171;Domain&#187;</text><text fill="#000000" font-family="sans-serif" font-size="14" lengthAdjust="spacing" textLength="51" x="1138.5" y="75.1426">UserDto</text><rect fill="#E2E2F0" height="49.2188" rx="2.5" ry="2.5" style="stroke:#181818;stroke-width:0.5;" width="78" x="1125" y="1114.8203"/><text fill="#000000" font-family="sans-serif" font-size="14" font-style="italic" lengthAdjust="spacing" textLength="64" x="1132" y="1136.3535">&#171;Domain&#187;</text><text fill="#000000" font-family="sans-serif" font-size="14" lengthAdjust="spacing" textLength="51" x="1138.5" y="1153.9629">UserDto</text><text fill="#000000" font-family="sans-serif" font-size="14" font-style="italic" lengthAdjust="spacing" textLength="64" x="1231" y="65.5332">&#171;Domain&#187;</text><text fill="#000000" font-family="sans-serif" font-size="14" lengthAdjust="spacing" textLength="100" x="1213" y="83.1426">IUserRepository</text><path d="M1248,15 C1248,5 1266,5 1266,5 C1266,5 1284,5 1284,15 L1284,41 C1284,51 1266,51 1266,51 C1266,51 1248,51 1248,41 L1248,15 " fill="#E2E2F0" style="stroke:#181818;stroke-width:1.5;"/><path d="M1248,15 C1248,25 1266,25 1266,25 C1266,25 1284,25 1284,15 " fill="none" style="stroke:#181818;stroke-width:1.5;"/><text fill="#000000" font-family="sans-serif" font-size="14" font-style="italic" lengthAdjust="spacing" textLength="64" x="1231" y="1129.3535">&#171;Domain&#187;</text><text fill="#000000" font-family="sans-serif" font-size="14" lengthAdjust="spacing" textLength="100" x="1213" y="1146.9629">IUserRepository</text><path d="M1248,1160.0391 C1248,1150.0391 1266,1150.0391 1266,1150.0391 C1266,1150.0391 1284,1150.0391 1284,1160.0391 L1284,1186.0391 C1284,1196.0391 1266,1196.0391 1266,1196.0391 C1266,1196.0391 1248,1196.0391 1248,1186.0391 L1248,1160.0391 " fill="#E2E2F0" style="stroke:#181818;stroke-width:1.5;"/><path d="M1248,1160.0391 C1248,1170.0391 1266,1170.0391 1266,1170.0391 C1266,1170.0391 1284,1170.0391 1284,1160.0391 " fill="none" style="stroke:#181818;stroke-width:1.5;"/><text fill="#000000" font-family="sans-serif" font-size="14" font-style="italic" lengthAdjust="spacing" textLength="64" x="1354.5" y="65.5332">&#171;Domain&#187;</text><text fill="#000000" font-family="sans-serif" font-size="14" lengthAdjust="spacing" textLength="115" x="1329" y="83.1426">IPatientRepository</text><path d="M1371.5,15 C1371.5,5 1389.5,5 1389.5,5 C1389.5,5 1407.5,5 1407.5,15 L1407.5,41 C1407.5,51 1389.5,51 1389.5,51 C1389.5,51 1371.5,51 1371.5,41 L1371.5,15 " fill="#E2E2F0" style="stroke:#181818;stroke-width:1.5;"/><path d="M1371.5,15 C1371.5,25 1389.5,25 1389.5,25 C1389.5,25 1407.5,25 1407.5,15 " fill="none" style="stroke:#181818;stroke-width:1.5;"/><text fill="#000000" font-family="sans-serif" font-size="14" font-style="italic" lengthAdjust="spacing" textLength="64" x="1354.5" y="1129.3535">&#171;Domain&#187;</text><text fill="#000000" font-family="sans-serif" font-size="14" lengthAdjust="spacing" textLength="115" x="1329" y="1146.9629">IPatientRepository</text><path d="M1371.5,1160.0391 C1371.5,1150.0391 1389.5,1150.0391 1389.5,1150.0391 C1389.5,1150.0391 1407.5,1150.0391 1407.5,1160.0391 L1407.5,1186.0391 C1407.5,1196.0391 1389.5,1196.0391 1389.5,1196.0391 C1389.5,1196.0391 1371.5,1196.0391 1371.5,1186.0391 L1371.5,1160.0391 " fill="#E2E2F0" style="stroke:#181818;stroke-width:1.5;"/><path d="M1371.5,1160.0391 C1371.5,1170.0391 1389.5,1170.0391 1389.5,1170.0391 C1389.5,1170.0391 1407.5,1170.0391 1407.5,1160.0391 " fill="none" style="stroke:#181818;stroke-width:1.5;"/><rect fill="#FFFFFF" height="1001.6016" style="stroke:#181818;stroke-width:1.0;" width="10" x="50" y="96.2188"/><rect fill="#FFFFFF" height="979.25" style="stroke:#181818;stroke-width:1.0;" width="10" x="295" y="118.5703"/><rect fill="#FFFFFF" height="926.5469" style="stroke:#181818;stroke-width:1.0;" width="10" x="677" y="148.9219"/><rect fill="#FFFFFF" height="30.3516" style="stroke:#181818;stroke-width:1.0;" width="10" x="1159" y="992.7656"/><rect fill="#FFFFFF" height="30.3516" style="stroke:#181818;stroke-width:1.0;" width="10" x="1261" y="179.2734"/><rect fill="#FFFFFF" height="30.3516" style="stroke:#181818;stroke-width:1.0;" width="10" x="1261" y="818.6563"/><rect fill="#FFFFFF" height="30.3516" style="stroke:#181818;stroke-width:1.0;" width="10" x="1384.5" y="326.0313"/><rect fill="#FFFFFF" height="30.3516" style="stroke:#181818;stroke-width:1.0;" width="10" x="1384.5" y="879.3594"/><polygon fill="#181818" points="283,114.5703,293,118.5703,283,122.5703,287,118.5703" style="stroke:#181818;stroke-width:1.0;"/><line style="stroke:#181818;stroke-width:1.0;" x1="60" x2="289" y1="118.5703" y2="118.5703"/><text fill="#000000" font-family="sans-serif" font-size="13" font-weight="bold" lengthAdjust="spacing" textLength="7" x="67" y="113.7139">1</text><text fill="#000000" font-family="sans-serif" font-size="13" lengthAdjust="spacing" textLength="205" x="78" y="113.7139">PUT /api/users/patients/{username}</text><polygon fill="#181818" points="665,144.9219,675,148.9219,665,152.9219,669,148.9219" style="stroke:#181818;stroke-width:1.0;"/><line style="stroke:#181818;stroke-width:1.0;" x1="305" x2="671" y1="148.9219" y2="148.9219"/><text fill="#000000" font-family="sans-serif" font-size="13" font-weight="bold" lengthAdjust="spacing" textLength="7" x="312" y="144.0654">2</text><text fill="#000000" font-family="sans-serif" font-size="13" lengthAdjust="spacing" textLength="342" x="323" y="144.0654">UpdateUserPatientAsync(username,updateUserPatientDto)</text><polygon fill="#181818" points="1249,175.2734,1259,179.2734,1249,183.2734,1253,179.2734" style="stroke:#181818;stroke-width:1.0;"/><line style="stroke:#181818;stroke-width:1.0;" x1="687" x2="1255" y1="179.2734" y2="179.2734"/><text fill="#000000" font-family="sans-serif" font-size="13" font-weight="bold" lengthAdjust="spacing" textLength="7" x="694" y="174.417">3</text><text fill="#000000" font-family="sans-serif" font-size="13" lengthAdjust="spacing" textLength="149" x="705" y="174.417">GetByIdAsync(username)</text><polygon fill="#181818" points="698,205.625,688,209.625,698,213.625,694,209.625" style="stroke:#181818;stroke-width:1.0;"/><line style="stroke:#181818;stroke-width:1.0;stroke-dasharray:2.0,2.0;" x1="692" x2="1265" y1="209.625" y2="209.625"/><text fill="#000000" font-family="sans-serif" font-size="13" font-weight="bold" lengthAdjust="spacing" textLength="7" x="704" y="204.7686">4</text><text fill="#000000" font-family="sans-serif" font-size="13" lengthAdjust="spacing" textLength="25" x="715" y="204.7686">user</text><path d="M10,224.625 L71,224.625 L71,232.9766 L61,242.9766 L10,242.9766 L10,224.625 " fill="#EEEEEE" style="stroke:#000000;stroke-width:1.5;"/><rect fill="none" height="843.8438" style="stroke:#000000;stroke-width:1.5;" width="1460" x="10" y="224.625"/><text fill="#000000" font-family="sans-serif" font-size="13" font-weight="bold" lengthAdjust="spacing" textLength="16" x="25" y="239.1201">alt</text><text fill="#000000" font-family="sans-serif" font-size="11" font-weight="bold" lengthAdjust="spacing" textLength="72" x="86" y="238.0439">[user == null]</text><polygon fill="#181818" points="316,261.3281,306,265.3281,316,269.3281,312,265.3281" style="stroke:#181818;stroke-width:1.0;"/><line style="stroke:#181818;stroke-width:1.0;stroke-dasharray:2.0,2.0;" x1="310" x2="676" y1="265.3281" y2="265.3281"/><text fill="#000000" font-family="sans-serif" font-size="13" font-weight="bold" lengthAdjust="spacing" textLength="7" x="322" y="260.4717">5</text><text fill="#000000" font-family="sans-serif" font-size="13" lengthAdjust="spacing" textLength="138" x="333" y="260.4717">NullReferenceException</text><polygon fill="#181818" points="71,291.6797,61,295.6797,71,299.6797,67,295.6797" style="stroke:#181818;stroke-width:1.0;"/><line style="stroke:#181818;stroke-width:1.0;stroke-dasharray:2.0,2.0;" x1="65" x2="294" y1="295.6797" y2="295.6797"/><text fill="#000000" font-family="sans-serif" font-size="13" font-weight="bold" lengthAdjust="spacing" textLength="7" x="77" y="290.8232">6</text><text fill="#000000" font-family="sans-serif" font-size="13" lengthAdjust="spacing" textLength="85" x="88" y="290.8232">404 Not Found</text><polygon fill="#181818" points="1372.5,322.0313,1382.5,326.0313,1372.5,330.0313,1376.5,326.0313" style="stroke:#181818;stroke-width:1.0;"/><line style="stroke:#181818;stroke-width:1.0;" x1="687" x2="1378.5" y1="326.0313" y2="326.0313"/><text fill="#000000" font-family="sans-serif" font-size="13" font-weight="bold" lengthAdjust="spacing" textLength="7" x="694" y="321.1748">7</text><text fill="#000000" font-family="sans-serif" font-size="13" lengthAdjust="spacing" textLength="176" x="705" y="321.1748">GetByUserIdAsync(username)</text><polygon fill="#181818" points="698,352.3828,688,356.3828,698,360.3828,694,356.3828" style="stroke:#181818;stroke-width:1.0;"/><line style="stroke:#181818;stroke-width:1.0;stroke-dasharray:2.0,2.0;" x1="692" x2="1388.5" y1="356.3828" y2="356.3828"/><text fill="#000000" font-family="sans-serif" font-size="13" font-weight="bold" lengthAdjust="spacing" textLength="7" x="704" y="351.5264">8</text><text fill="#000000" font-family="sans-serif" font-size="13" lengthAdjust="spacing" textLength="39" x="715" y="351.5264">patient</text><path d="M20,371.3828 L81,371.3828 L81,379.7344 L71,389.7344 L20,389.7344 L20,371.3828 " fill="#EEEEEE" style="stroke:#000000;stroke-width:1.5;"/><rect fill="none" height="690.0859" style="stroke:#000000;stroke-width:1.5;" width="1440" x="20" y="371.3828"/><text fill="#000000" font-family="sans-serif" font-size="13" font-weight="bold" lengthAdjust="spacing" textLength="16" x="35" y="385.8779">alt</text><text fill="#000000" font-family="sans-serif" font-size="11" font-weight="bold" lengthAdjust="spacing" textLength="84" x="96" y="384.8018">[patient == null]</text><polygon fill="#181818" points="316,408.0859,306,412.0859,316,416.0859,312,412.0859" style="stroke:#181818;stroke-width:1.0;"/><line style="stroke:#181818;stroke-width:1.0;stroke-dasharray:2.0,2.0;" x1="310" x2="676" y1="412.0859" y2="412.0859"/><text fill="#000000" font-family="sans-serif" font-size="13" font-weight="bold" lengthAdjust="spacing" textLength="7" x="322" y="407.2295">9</text><text fill="#000000" font-family="sans-serif" font-size="13" lengthAdjust="spacing" textLength="138" x="333" y="407.2295">NullReferenceException</text><polygon fill="#181818" points="71,438.4375,61,442.4375,71,446.4375,67,442.4375" style="stroke:#181818;stroke-width:1.0;"/><line style="stroke:#181818;stroke-width:1.0;stroke-dasharray:2.0,2.0;" x1="65" x2="294" y1="442.4375" y2="442.4375"/><text fill="#000000" font-family="sans-serif" font-size="13" font-weight="bold" lengthAdjust="spacing" textLength="14" x="77" y="437.5811">10</text><text fill="#000000" font-family="sans-serif" font-size="13" lengthAdjust="spacing" textLength="85" x="95" y="437.5811">404 Not Found</text><line style="stroke:#000000;stroke-width:1.0;stroke-dasharray:2.0,2.0;" x1="20" x2="1460" y1="451.4375" y2="451.4375"/><path d="M627,459.4375 L688,459.4375 L688,467.7891 L678,477.7891 L627,477.7891 L627,459.4375 " fill="#EEEEEE" style="stroke:#000000;stroke-width:1.5;"/><rect fill="none" height="48.7031" style="stroke:#000000;stroke-width:1.5;" width="498" x="627" y="459.4375"/><text fill="#000000" font-family="sans-serif" font-size="13" font-weight="bold" lengthAdjust="spacing" textLength="16" x="642" y="473.9326">alt</text><text fill="#000000" font-family="sans-serif" font-size="11" font-weight="bold" lengthAdjust="spacing" textLength="196" x="703" y="472.8564">[updatePatientDto.FirstName != null]</text><polygon fill="#181818" points="1064,496.1406,1074,500.1406,1064,504.1406,1068,500.1406" style="stroke:#181818;stroke-width:1.0;"/><line style="stroke:#181818;stroke-width:1.0;" x1="687" x2="1070" y1="500.1406" y2="500.1406"/><text fill="#000000" font-family="sans-serif" font-size="13" font-weight="bold" lengthAdjust="spacing" textLength="14" x="694" y="495.2842">11</text><text fill="#000000" font-family="sans-serif" font-size="13" lengthAdjust="spacing" textLength="303" x="712" y="495.2842">ChangeFirstName(updateUserPatientDto.FirstName)</text><path d="M627,522.1406 L688,522.1406 L688,530.4922 L678,540.4922 L627,540.4922 L627,522.1406 " fill="#EEEEEE" style="stroke:#000000;stroke-width:1.5;"/><rect fill="none" height="48.7031" style="stroke:#000000;stroke-width:1.5;" width="498" x="627" y="522.1406"/><text fill="#000000" font-family="sans-serif" font-size="13" font-weight="bold" lengthAdjust="spacing" textLength="16" x="642" y="536.6357">alt</text><text fill="#000000" font-family="sans-serif" font-size="11" font-weight="bold" lengthAdjust="spacing" textLength="195" x="703" y="535.5596">[updatePatientDto.LastName != null]</text><polygon fill="#181818" points="1064,558.8438,1074,562.8438,1064,566.8438,1068,562.8438" style="stroke:#181818;stroke-width:1.0;"/><line style="stroke:#181818;stroke-width:1.0;" x1="687" x2="1070" y1="562.8438" y2="562.8438"/><text fill="#000000" font-family="sans-serif" font-size="13" font-weight="bold" lengthAdjust="spacing" textLength="14" x="694" y="557.9873">12</text><text fill="#000000" font-family="sans-serif" font-size="13" lengthAdjust="spacing" textLength="301" x="712" y="557.9873">ChangeLastName(updateUserPatientDto.LastName)</text><path d="M627,584.8438 L688,584.8438 L688,593.1953 L678,603.1953 L627,603.1953 L627,584.8438 " fill="#EEEEEE" style="stroke:#000000;stroke-width:1.5;"/><rect fill="none" height="48.7031" style="stroke:#000000;stroke-width:1.5;" width="498" x="627" y="584.8438"/><text fill="#000000" font-family="sans-serif" font-size="13" font-weight="bold" lengthAdjust="spacing" textLength="16" x="642" y="599.3389">alt</text><text fill="#000000" font-family="sans-serif" font-size="11" font-weight="bold" lengthAdjust="spacing" textLength="190" x="703" y="598.2627">[updatePatientDto.FullName != null]</text><polygon fill="#181818" points="1064,621.5469,1074,625.5469,1064,629.5469,1068,625.5469" style="stroke:#181818;stroke-width:1.0;"/><line style="stroke:#181818;stroke-width:1.0;" x1="687" x2="1070" y1="625.5469" y2="625.5469"/><text fill="#000000" font-family="sans-serif" font-size="13" font-weight="bold" lengthAdjust="spacing" textLength="14" x="694" y="620.6904">13</text><text fill="#000000" font-family="sans-serif" font-size="13" lengthAdjust="spacing" textLength="293" x="712" y="620.6904">ChangeFullName(updateUserPatientDto.FullName)</text><path d="M627,647.5469 L688,647.5469 L688,655.8984 L678,665.8984 L627,665.8984 L627,647.5469 " fill="#EEEEEE" style="stroke:#000000;stroke-width:1.5;"/><rect fill="none" height="79.0547" style="stroke:#000000;stroke-width:1.5;" width="498" x="627" y="647.5469"/><text fill="#000000" font-family="sans-serif" font-size="13" font-weight="bold" lengthAdjust="spacing" textLength="16" x="642" y="662.042">alt</text><text fill="#000000" font-family="sans-serif" font-size="11" font-weight="bold" lengthAdjust="spacing" textLength="169" x="703" y="660.9658">[updatePatientDto.Email != null]</text><polygon fill="#181818" points="966,684.25,976,688.25,966,692.25,970,688.25" style="stroke:#181818;stroke-width:1.0;"/><line style="stroke:#181818;stroke-width:1.0;" x1="687" x2="972" y1="688.25" y2="688.25"/><text fill="#000000" font-family="sans-serif" font-size="13" font-weight="bold" lengthAdjust="spacing" textLength="14" x="694" y="683.3936">14</text><text fill="#000000" font-family="sans-serif" font-size="13" lengthAdjust="spacing" textLength="249" x="712" y="683.3936">ChangeEmail(updateUserPatientDto.Email)</text><polygon fill="#181818" points="1064,714.6016,1074,718.6016,1064,722.6016,1068,718.6016" style="stroke:#181818;stroke-width:1.0;"/><line style="stroke:#181818;stroke-width:1.0;" x1="687" x2="1070" y1="718.6016" y2="718.6016"/><text fill="#000000" font-family="sans-serif" font-size="13" font-weight="bold" lengthAdjust="spacing" textLength="14" x="694" y="713.7451">15</text><text fill="#000000" font-family="sans-serif" font-size="13" lengthAdjust="spacing" textLength="249" x="712" y="713.7451">ChangeEmail(updateUserPatientDto.Email)</text><path d="M627,740.6016 L688,740.6016 L688,748.9531 L678,758.9531 L627,758.9531 L627,740.6016 " fill="#EEEEEE" style="stroke:#000000;stroke-width:1.5;"/><rect fill="none" height="48.7031" style="stroke:#000000;stroke-width:1.5;" width="498" x="627" y="740.6016"/><text fill="#000000" font-family="sans-serif" font-size="13" font-weight="bold" lengthAdjust="spacing" textLength="16" x="642" y="755.0967">alt</text><text fill="#000000" font-family="sans-serif" font-size="11" font-weight="bold" lengthAdjust="spacing" textLength="219" x="703" y="754.0205">[updatePatientDto.PhoneNumber != null]</text><polygon fill="#181818" points="1064,777.3047,1074,781.3047,1064,785.3047,1068,781.3047" style="stroke:#181818;stroke-width:1.0;"/><line style="stroke:#181818;stroke-width:1.0;" x1="687" x2="1070" y1="781.3047" y2="781.3047"/><text fill="#000000" font-family="sans-serif" font-size="13" font-weight="bold" lengthAdjust="spacing" textLength="14" x="694" y="776.4482">16</text><text fill="#000000" font-family="sans-serif" font-size="13" lengthAdjust="spacing" textLength="347" x="712" y="776.4482">ChangePhoneNumber(updateUserPatientDto.PhoneNumber)</text><polygon fill="#181818" points="1249,814.6563,1259,818.6563,1249,822.6563,1253,818.6563" style="stroke:#181818;stroke-width:1.0;"/><line style="stroke:#181818;stroke-width:1.0;" x1="687" x2="1255" y1="818.6563" y2="818.6563"/><text fill="#000000" font-family="sans-serif" font-size="13" font-weight="bold" lengthAdjust="spacing" textLength="14" x="694" y="813.7998">17</text><text fill="#000000" font-family="sans-serif" font-size="13" lengthAdjust="spacing" textLength="111" x="712" y="813.7998">UpdateAsync(user)</text><polygon fill="#181818" points="698,845.0078,688,849.0078,698,853.0078,694,849.0078" style="stroke:#181818;stroke-width:1.0;"/><line style="stroke:#181818;stroke-width:1.0;stroke-dasharray:2.0,2.0;" x1="692" x2="1265" y1="849.0078" y2="849.0078"/><text fill="#000000" font-family="sans-serif" font-size="13" font-weight="bold" lengthAdjust="spacing" textLength="14" x="704" y="844.1514">18</text><text fill="#000000" font-family="sans-serif" font-size="13" lengthAdjust="spacing" textLength="25" x="722" y="844.1514">user</text><polygon fill="#181818" points="1372.5,875.3594,1382.5,879.3594,1372.5,883.3594,1376.5,879.3594" style="stroke:#181818;stroke-width:1.0;"/><line style="stroke:#181818;stroke-width:1.0;" x1="687" x2="1378.5" y1="879.3594" y2="879.3594"/><text fill="#000000" font-family="sans-serif" font-size="13" font-weight="bold" lengthAdjust="spacing" textLength="14" x="694" y="874.5029">19</text><text fill="#000000" font-family="sans-serif" font-size="13" lengthAdjust="spacing" textLength="125" x="712" y="874.5029">UpdateAsync(patient)</text><polygon fill="#181818" points="698,905.7109,688,909.7109,698,913.7109,694,909.7109" style="stroke:#181818;stroke-width:1.0;"/><line style="stroke:#181818;stroke-width:1.0;stroke-dasharray:2.0,2.0;" x1="692" x2="1388.5" y1="909.7109" y2="909.7109"/><text fill="#000000" font-family="sans-serif" font-size="13" font-weight="bold" lengthAdjust="spacing" textLength="14" x="704" y="904.8545">20</text><text fill="#000000" font-family="sans-serif" font-size="13" lengthAdjust="spacing" textLength="39" x="722" y="904.8545">patient</text><path d="M692,922.7109 L692,964.7109 L937,964.7109 L937,932.7109 L927,922.7109 L692,922.7109 " fill="#FEFFDD" style="stroke:#181818;stroke-width:0.5;"/><path d="M927,922.7109 L927,932.7109 L937,932.7109 L927,922.7109 " fill="#FEFFDD" style="stroke:#181818;stroke-width:0.5;"/><text fill="#000000" font-family="sans-serif" font-size="13" lengthAdjust="spacing" textLength="163" x="698" y="941.2061">Update user in the auth0 api</text><text fill="#000000" font-family="sans-serif" font-size="13" lengthAdjust="spacing" textLength="224" x="698" y="957.5576">and send email by auth0 for verification</text><polygon fill="#181818" points="1147,988.7656,1157,992.7656,1147,996.7656,1151,992.7656" style="stroke:#181818;stroke-width:1.0;"/><line style="stroke:#181818;stroke-width:1.0;" x1="687" x2="1153" y1="992.7656" y2="992.7656"/><text fill="#000000" font-family="sans-serif" font-size="13" font-weight="bold" lengthAdjust="spacing" textLength="14" x="694" y="987.9092">21</text><text fill="#000000" font-family="sans-serif" font-size="13" lengthAdjust="spacing" textLength="257" x="712" y="987.9092">create(user.Username,user.Email,user.Role)</text><polygon fill="#181818" points="698,1019.1172,688,1023.1172,698,1027.1172,694,1023.1172" style="stroke:#181818;stroke-width:1.0;"/><line style="stroke:#181818;stroke-width:1.0;stroke-dasharray:2.0,2.0;" x1="692" x2="1163" y1="1023.1172" y2="1023.1172"/><text fill="#000000" font-family="sans-serif" font-size="13" font-weight="bold" lengthAdjust="spacing" textLength="14" x="704" y="1018.2607">22</text><text fill="#000000" font-family="sans-serif" font-size="13" lengthAdjust="spacing" textLength="45" x="722" y="1018.2607">userDto</text><polygon fill="#181818" points="316,1049.4688,306,1053.4688,316,1057.4688,312,1053.4688" style="stroke:#181818;stroke-width:1.0;"/><line style="stroke:#181818;stroke-width:1.0;stroke-dasharray:2.0,2.0;" x1="310" x2="676" y1="1053.4688" y2="1053.4688"/><text fill="#000000" font-family="sans-serif" font-size="13" font-weight="bold" lengthAdjust="spacing" textLength="14" x="322" y="1048.6123">23</text><text fill="#000000" font-family="sans-serif" font-size="13" lengthAdjust="spacing" textLength="45" x="340" y="1048.6123">userDto</text><polygon fill="#181818" points="66,1093.8203,56,1097.8203,66,1101.8203,62,1097.8203" style="stroke:#181818;stroke-width:1.0;"/><line style="stroke:#181818;stroke-width:1.0;stroke-dasharray:2.0,2.0;" x1="60" x2="299" y1="1097.8203" y2="1097.8203"/><text fill="#000000" font-family="sans-serif" font-size="13" font-weight="bold" lengthAdjust="spacing" textLength="14" x="72" y="1092.9639">24</text><text fill="#000000" font-family="sans-serif" font-size="13" lengthAdjust="spacing" textLength="44" x="90" y="1092.9639">200 OK</text><!--SRC=[pLPDZzem4BtpAwQS5gaigDeJOf7QtQLQjQA8bbil9WoBfM17ZeEAglxtsecJEB4DeLpgavEPz-R3uncJJ7AM7JOeUZqIIIwWloII8fDz82cO_KSjwIL4I1hHX309_NMA8dtYJ0eUnoXoxVeJfjFwOpPpeTzH76c4ESpi5SRiV81SKs-KsZC_4ChQMXw_WxgQw5doYbJjRTqjaMH3KeJ-gvQkCE4fLIauLO3wLm1dF6X1dRysMXy0FHA9pRJtG2txpt1cPte2o_KF6964ZZ9z9gEaK4r7l_Kt8mVyKt1Kz3Mw4EXbCIh-yaWci4vKKAX3Bbr8JoowAwdVPssvIkMWfgri6iPQebTfHbbi9NK2dr5-Ehrkc-O6JNp5taGtbVHgiG-j49KfpTx4RB4JDObb3eR7Hs1P7Bk6gmZRXxPGwYlSeK0MuSkl21D9ENC9x8E7wN3OP7aOFy22IvZpZ6s3kNMhpgHNnzOrnGv9qDT0eYTWAZEOwWicTBODHPbm-9yoZh6w-MgvbDfpA6vAVKlkvrIaSg5I3kzC-O1dkUUel7ZQ4_Q65S6TxnRM_0E76Dk-XxtyIcvpiiJxVIobDxauLsxTb4U33wJHI6zoyKNr-BYhV_cOAvtBaNxFSj7WscYl9xmYpkMUCrpa3uf_FGsBmk-bfT3HrwhN-mPDCU7g9ZZmnDfrpboODRvHSyMuwT3MxM1ChpmNJuUc7cxidixU1fwBj8DjrMZLeGdwjfV0TwMzCifYz586Sez0ChaVWte5mKz6s1PILGY0-QtRd8nqfnhw4GNTqOZuUt_h4kfduGGYWSfQNXltw-hTex_o-r9iLpp6IvMZwC8bessvjUA5jCh5gnCSWoLh-z84Bv5bpNd4dP-L7yPZ-FQbqBPOxEUdMm_cqViN]--></g></svg>