<?xml version="1.0" encoding="us-ascii" standalone="no"?><svg xmlns="http://www.w3.org/2000/svg" xmlns:xlink="http://www.w3.org/1999/xlink" contentStyleType="text/css" height="1253px" preserveAspectRatio="none" style="width:1675px;height:1253px;background:#FFFFFF;" version="1.1" viewBox="0 0 1675 1253" width="1675px" zoomAndPan="magnify"><defs/><g><rect fill="#FFFFFF" height="1049.9531" style="stroke:#181818;stroke-width:1.0;" width="10" x="47.5" y="96.2188"/><rect fill="#FFFFFF" height="1027.6016" style="stroke:#181818;stroke-width:1.0;" width="10" x="194.5" y="118.5703"/><rect fill="#FFFFFF" height="997.25" style="stroke:#181818;stroke-width:1.0;" width="10" x="430.5" y="148.9219"/><rect fill="#FFFFFF" height="30.3516" style="stroke:#181818;stroke-width:1.0;" width="10" x="1136.5" y="821.6563"/><rect fill="#FFFFFF" height="30.3516" style="stroke:#181818;stroke-width:1.0;" width="10" x="1251.5" y="179.2734"/><rect fill="#FFFFFF" height="30.3516" style="stroke:#181818;stroke-width:1.0;" width="10" x="1396" y="358.3828"/><rect fill="#FFFFFF" height="30.3516" style="stroke:#181818;stroke-width:1.0;" width="10" x="1571" y="574.8438"/><rect fill="none" height="79.0547" style="stroke:#000000;stroke-width:1.5;" width="470.5" x="20" y="224.625"/><rect fill="none" height="202.4609" style="stroke:#000000;stroke-width:1.5;" width="1482.5" x="10" y="317.6797"/><rect fill="none" height="79.0547" style="stroke:#000000;stroke-width:1.5;" width="470.5" x="20" y="403.7344"/><rect fill="none" height="232.8125" style="stroke:#000000;stroke-width:1.5;" width="1659.5" x="10" y="534.1406"/><rect fill="none" height="79.0547" style="stroke:#000000;stroke-width:1.5;" width="470.5" x="20" y="620.1953"/><rect fill="none" height="139.7578" style="stroke:#000000;stroke-width:1.5;" width="1289" x="380.5" y="780.9531"/><rect fill="none" height="48.7031" style="stroke:#000000;stroke-width:1.5;" width="599" x="380.5" y="934.7109"/><rect fill="none" height="48.7031" style="stroke:#000000;stroke-width:1.5;" width="599" x="380.5" y="997.4141"/><rect fill="none" height="48.7031" style="stroke:#000000;stroke-width:1.5;" width="366" x="380.5" y="1090.4688"/><line style="stroke:#181818;stroke-width:0.5;stroke-dasharray:5.0,5.0;" x1="52" x2="52" y1="86.2188" y2="1156.1719"/><line style="stroke:#181818;stroke-width:0.5;stroke-dasharray:5.0,5.0;" x1="199.5" x2="199.5" y1="86.2188" y2="1156.1719"/><line style="stroke:#181818;stroke-width:0.5;stroke-dasharray:5.0,5.0;" x1="435.5" x2="435.5" y1="86.2188" y2="1156.1719"/><line style="stroke:#181818;stroke-width:0.5;stroke-dasharray:5.0,5.0;" x1="687.5" x2="687.5" y1="86.2188" y2="1156.1719"/><line style="stroke:#181818;stroke-width:0.5;stroke-dasharray:5.0,5.0;" x1="930.5" x2="930.5" y1="86.2188" y2="1156.1719"/><line style="stroke:#181818;stroke-width:0.5;stroke-dasharray:5.0,5.0;" x1="1029.5" x2="1029.5" y1="86.2188" y2="1156.1719"/><line style="stroke:#181818;stroke-width:0.5;stroke-dasharray:5.0,5.0;" x1="1141.5" x2="1141.5" y1="86.2188" y2="1156.1719"/><line style="stroke:#181818;stroke-width:0.5;stroke-dasharray:5.0,5.0;" x1="1256.5" x2="1256.5" y1="86.2188" y2="1156.1719"/><line style="stroke:#181818;stroke-width:0.5;stroke-dasharray:5.0,5.0;" x1="1400.5" x2="1400.5" y1="86.2188" y2="1156.1719"/><line style="stroke:#181818;stroke-width:0.5;stroke-dasharray:5.0,5.0;" x1="1575.5" x2="1575.5" y1="86.2188" y2="1156.1719"/><text fill="#000000" font-family="sans-serif" font-size="14" lengthAdjust="spacing" textLength="39" x="30" y="83.1426">Admin</text><ellipse cx="52.5" cy="17.1094" fill="#E2E2F0" rx="8" ry="8" style="stroke:#181818;stroke-width:0.5;"/><path d="M52.5,25.1094 L52.5,52.1094 M39.5,33.1094 L65.5,33.1094 M52.5,52.1094 L39.5,67.1094 M52.5,52.1094 L65.5,67.1094 " fill="none" style="stroke:#181818;stroke-width:0.5;"/><text fill="#000000" font-family="sans-serif" font-size="14" lengthAdjust="spacing" textLength="39" x="30" y="1169.7051">Admin</text><ellipse cx="52.5" cy="1181.2813" fill="#E2E2F0" rx="8" ry="8" style="stroke:#181818;stroke-width:0.5;"/><path d="M52.5,1189.2813 L52.5,1216.2813 M39.5,1197.2813 L65.5,1197.2813 M52.5,1216.2813 L39.5,1231.2813 M52.5,1216.2813 L65.5,1231.2813 " fill="none" style="stroke:#181818;stroke-width:0.5;"/><rect fill="#E2E2F0" height="49.2188" rx="2.5" ry="2.5" style="stroke:#181818;stroke-width:0.5;" width="112" x="143.5" y="36"/><text fill="#000000" font-family="sans-serif" font-size="14" font-style="italic" lengthAdjust="spacing" textLength="78" x="160.5" y="57.5332">&#171;Controller&#187;</text><text fill="#000000" font-family="sans-serif" font-size="14" lengthAdjust="spacing" textLength="98" x="150.5" y="75.1426">StaffsController</text><rect fill="#E2E2F0" height="49.2188" rx="2.5" ry="2.5" style="stroke:#181818;stroke-width:0.5;" width="112" x="143.5" y="1155.1719"/><text fill="#000000" font-family="sans-serif" font-size="14" font-style="italic" lengthAdjust="spacing" textLength="78" x="160.5" y="1176.7051">&#171;Controller&#187;</text><text fill="#000000" font-family="sans-serif" font-size="14" lengthAdjust="spacing" textLength="98" x="150.5" y="1194.3145">StaffsController</text><rect fill="#E2E2F0" height="49.2188" rx="2.5" ry="2.5" style="stroke:#181818;stroke-width:0.5;" width="90" x="390.5" y="36"/><text fill="#000000" font-family="sans-serif" font-size="14" font-style="italic" lengthAdjust="spacing" textLength="62" x="404.5" y="57.5332">&#171;Service&#187;</text><text fill="#000000" font-family="sans-serif" font-size="14" lengthAdjust="spacing" textLength="76" x="397.5" y="75.1426">StaffService</text><rect fill="#E2E2F0" height="49.2188" rx="2.5" ry="2.5" style="stroke:#181818;stroke-width:0.5;" width="90" x="390.5" y="1155.1719"/><text fill="#000000" font-family="sans-serif" font-size="14" font-style="italic" lengthAdjust="spacing" textLength="62" x="404.5" y="1176.7051">&#171;Service&#187;</text><text fill="#000000" font-family="sans-serif" font-size="14" lengthAdjust="spacing" textLength="76" x="397.5" y="1194.3145">StaffService</text><rect fill="#E2E2F0" height="49.2188" rx="2.5" ry="2.5" style="stroke:#181818;stroke-width:0.5;" width="98" x="638.5" y="36"/><text fill="#000000" font-family="sans-serif" font-size="14" font-style="italic" lengthAdjust="spacing" textLength="62" x="656.5" y="57.5332">&#171;Service&#187;</text><text fill="#000000" font-family="sans-serif" font-size="14" lengthAdjust="spacing" textLength="84" x="645.5" y="75.1426">IEmailService</text><rect fill="#E2E2F0" height="49.2188" rx="2.5" ry="2.5" style="stroke:#181818;stroke-width:0.5;" width="98" x="638.5" y="1155.1719"/><text fill="#000000" font-family="sans-serif" font-size="14" font-style="italic" lengthAdjust="spacing" textLength="62" x="656.5" y="1176.7051">&#171;Service&#187;</text><text fill="#000000" font-family="sans-serif" font-size="14" lengthAdjust="spacing" textLength="84" x="645.5" y="1194.3145">IEmailService</text><rect fill="#E2E2F0" height="49.2188" rx="2.5" ry="2.5" style="stroke:#181818;stroke-width:0.5;" width="78" x="891.5" y="36"/><text fill="#000000" font-family="sans-serif" font-size="14" font-style="italic" lengthAdjust="spacing" textLength="64" x="898.5" y="57.5332">&#171;Domain&#187;</text><text fill="#000000" font-family="sans-serif" font-size="14" lengthAdjust="spacing" textLength="29" x="916" y="75.1426">Staff</text><rect fill="#E2E2F0" height="49.2188" rx="2.5" ry="2.5" style="stroke:#181818;stroke-width:0.5;" width="78" x="891.5" y="1155.1719"/><text fill="#000000" font-family="sans-serif" font-size="14" font-style="italic" lengthAdjust="spacing" textLength="64" x="898.5" y="1176.7051">&#171;Domain&#187;</text><text fill="#000000" font-family="sans-serif" font-size="14" lengthAdjust="spacing" textLength="29" x="916" y="1194.3145">Staff</text><rect fill="#E2E2F0" height="49.2188" rx="2.5" ry="2.5" style="stroke:#181818;stroke-width:0.5;" width="100" x="979.5" y="36"/><text fill="#000000" font-family="sans-serif" font-size="14" font-style="italic" lengthAdjust="spacing" textLength="64" x="997.5" y="57.5332">&#171;Domain&#187;</text><text fill="#000000" font-family="sans-serif" font-size="14" lengthAdjust="spacing" textLength="86" x="986.5" y="75.1426">Specialization</text><rect fill="#E2E2F0" height="49.2188" rx="2.5" ry="2.5" style="stroke:#181818;stroke-width:0.5;" width="100" x="979.5" y="1155.1719"/><text fill="#000000" font-family="sans-serif" font-size="14" font-style="italic" lengthAdjust="spacing" textLength="64" x="997.5" y="1176.7051">&#171;Domain&#187;</text><text fill="#000000" font-family="sans-serif" font-size="14" lengthAdjust="spacing" textLength="86" x="986.5" y="1194.3145">Specialization</text><rect fill="#E2E2F0" height="49.2188" rx="2.5" ry="2.5" style="stroke:#181818;stroke-width:0.5;" width="104" x="1089.5" y="36"/><text fill="#000000" font-family="sans-serif" font-size="14" font-style="italic" lengthAdjust="spacing" textLength="64" x="1109.5" y="57.5332">&#171;Domain&#187;</text><text fill="#000000" font-family="sans-serif" font-size="14" lengthAdjust="spacing" textLength="90" x="1096.5" y="75.1426">AvailabilitySlot</text><rect fill="#E2E2F0" height="49.2188" rx="2.5" ry="2.5" style="stroke:#181818;stroke-width:0.5;" width="104" x="1089.5" y="1155.1719"/><text fill="#000000" font-family="sans-serif" font-size="14" font-style="italic" lengthAdjust="spacing" textLength="64" x="1109.5" y="1176.7051">&#171;Domain&#187;</text><text fill="#000000" font-family="sans-serif" font-size="14" lengthAdjust="spacing" textLength="90" x="1096.5" y="1194.3145">AvailabilitySlot</text><text fill="#000000" font-family="sans-serif" font-size="14" font-style="italic" lengthAdjust="spacing" textLength="64" x="1221.5" y="65.5332">&#171;Domain&#187;</text><text fill="#000000" font-family="sans-serif" font-size="14" lengthAdjust="spacing" textLength="100" x="1203.5" y="83.1426">IStaffRepository</text><path d="M1238.5,15 C1238.5,5 1256.5,5 1256.5,5 C1256.5,5 1274.5,5 1274.5,15 L1274.5,41 C1274.5,51 1256.5,51 1256.5,51 C1256.5,51 1238.5,51 1238.5,41 L1238.5,15 " fill="#E2E2F0" style="stroke:#181818;stroke-width:1.5;"/><path d="M1238.5,15 C1238.5,25 1256.5,25 1256.5,25 C1256.5,25 1274.5,25 1274.5,15 " fill="none" style="stroke:#181818;stroke-width:1.5;"/><text fill="#000000" font-family="sans-serif" font-size="14" font-style="italic" lengthAdjust="spacing" textLength="64" x="1221.5" y="1169.7051">&#171;Domain&#187;</text><text fill="#000000" font-family="sans-serif" font-size="14" lengthAdjust="spacing" textLength="100" x="1203.5" y="1187.3145">IStaffRepository</text><path d="M1238.5,1200.3906 C1238.5,1190.3906 1256.5,1190.3906 1256.5,1190.3906 C1256.5,1190.3906 1274.5,1190.3906 1274.5,1200.3906 L1274.5,1226.3906 C1274.5,1236.3906 1256.5,1236.3906 1256.5,1236.3906 C1256.5,1236.3906 1238.5,1236.3906 1238.5,1226.3906 L1238.5,1200.3906 " fill="#E2E2F0" style="stroke:#181818;stroke-width:1.5;"/><path d="M1238.5,1200.3906 C1238.5,1210.3906 1256.5,1210.3906 1256.5,1210.3906 C1256.5,1210.3906 1274.5,1210.3906 1274.5,1200.3906 " fill="none" style="stroke:#181818;stroke-width:1.5;"/><text fill="#000000" font-family="sans-serif" font-size="14" font-style="italic" lengthAdjust="spacing" textLength="64" x="1366" y="65.5332">&#171;Domain&#187;</text><text fill="#000000" font-family="sans-serif" font-size="14" lengthAdjust="spacing" textLength="157" x="1319.5" y="83.1426">ISpecializationRepository</text><path d="M1383,15 C1383,5 1401,5 1401,5 C1401,5 1419,5 1419,15 L1419,41 C1419,51 1401,51 1401,51 C1401,51 1383,51 1383,41 L1383,15 " fill="#E2E2F0" style="stroke:#181818;stroke-width:1.5;"/><path d="M1383,15 C1383,25 1401,25 1401,25 C1401,25 1419,25 1419,15 " fill="none" style="stroke:#181818;stroke-width:1.5;"/><text fill="#000000" font-family="sans-serif" font-size="14" font-style="italic" lengthAdjust="spacing" textLength="64" x="1366" y="1169.7051">&#171;Domain&#187;</text><text fill="#000000" font-family="sans-serif" font-size="14" lengthAdjust="spacing" textLength="157" x="1319.5" y="1187.3145">ISpecializationRepository</text><path d="M1383,1200.3906 C1383,1190.3906 1401,1190.3906 1401,1190.3906 C1401,1190.3906 1419,1190.3906 1419,1200.3906 L1419,1226.3906 C1419,1236.3906 1401,1236.3906 1401,1236.3906 C1401,1236.3906 1383,1236.3906 1383,1226.3906 L1383,1200.3906 " fill="#E2E2F0" style="stroke:#181818;stroke-width:1.5;"/><path d="M1383,1200.3906 C1383,1210.3906 1401,1210.3906 1401,1210.3906 C1401,1210.3906 1419,1210.3906 1419,1200.3906 " fill="none" style="stroke:#181818;stroke-width:1.5;"/><text fill="#000000" font-family="sans-serif" font-size="14" font-style="italic" lengthAdjust="spacing" textLength="64" x="1541" y="65.5332">&#171;Domain&#187;</text><text fill="#000000" font-family="sans-serif" font-size="14" lengthAdjust="spacing" textLength="161" x="1492.5" y="83.1426">IAvailabilitySlotRepository</text><path d="M1558,15 C1558,5 1576,5 1576,5 C1576,5 1594,5 1594,15 L1594,41 C1594,51 1576,51 1576,51 C1576,51 1558,51 1558,41 L1558,15 " fill="#E2E2F0" style="stroke:#181818;stroke-width:1.5;"/><path d="M1558,15 C1558,25 1576,25 1576,25 C1576,25 1594,25 1594,15 " fill="none" style="stroke:#181818;stroke-width:1.5;"/><text fill="#000000" font-family="sans-serif" font-size="14" font-style="italic" lengthAdjust="spacing" textLength="64" x="1541" y="1169.7051">&#171;Domain&#187;</text><text fill="#000000" font-family="sans-serif" font-size="14" lengthAdjust="spacing" textLength="161" x="1492.5" y="1187.3145">IAvailabilitySlotRepository</text><path d="M1558,1200.3906 C1558,1190.3906 1576,1190.3906 1576,1190.3906 C1576,1190.3906 1594,1190.3906 1594,1200.3906 L1594,1226.3906 C1594,1236.3906 1576,1236.3906 1576,1236.3906 C1576,1236.3906 1558,1236.3906 1558,1226.3906 L1558,1200.3906 " fill="#E2E2F0" style="stroke:#181818;stroke-width:1.5;"/><path d="M1558,1200.3906 C1558,1210.3906 1576,1210.3906 1576,1210.3906 C1576,1210.3906 1594,1210.3906 1594,1200.3906 " fill="none" style="stroke:#181818;stroke-width:1.5;"/><rect fill="#FFFFFF" height="1049.9531" style="stroke:#181818;stroke-width:1.0;" width="10" x="47.5" y="96.2188"/><rect fill="#FFFFFF" height="1027.6016" style="stroke:#181818;stroke-width:1.0;" width="10" x="194.5" y="118.5703"/><rect fill="#FFFFFF" height="997.25" style="stroke:#181818;stroke-width:1.0;" width="10" x="430.5" y="148.9219"/><rect fill="#FFFFFF" height="30.3516" style="stroke:#181818;stroke-width:1.0;" width="10" x="1136.5" y="821.6563"/><rect fill="#FFFFFF" height="30.3516" style="stroke:#181818;stroke-width:1.0;" width="10" x="1251.5" y="179.2734"/><rect fill="#FFFFFF" height="30.3516" style="stroke:#181818;stroke-width:1.0;" width="10" x="1396" y="358.3828"/><rect fill="#FFFFFF" height="30.3516" style="stroke:#181818;stroke-width:1.0;" width="10" x="1571" y="574.8438"/><polygon fill="#181818" points="182.5,114.5703,192.5,118.5703,182.5,122.5703,186.5,118.5703" style="stroke:#181818;stroke-width:1.0;"/><line style="stroke:#181818;stroke-width:1.0;" x1="57.5" x2="188.5" y1="118.5703" y2="118.5703"/><text fill="#000000" font-family="sans-serif" font-size="13" font-weight="bold" lengthAdjust="spacing" textLength="7" x="64.5" y="113.7139">1</text><text fill="#000000" font-family="sans-serif" font-size="13" lengthAdjust="spacing" textLength="107" x="75.5" y="113.7139">PUT /api/staffs/{id}</text><polygon fill="#181818" points="418.5,144.9219,428.5,148.9219,418.5,152.9219,422.5,148.9219" style="stroke:#181818;stroke-width:1.0;"/><line style="stroke:#181818;stroke-width:1.0;" x1="204.5" x2="424.5" y1="148.9219" y2="148.9219"/><text fill="#000000" font-family="sans-serif" font-size="13" font-weight="bold" lengthAdjust="spacing" textLength="7" x="211.5" y="144.0654">2</text><text fill="#000000" font-family="sans-serif" font-size="13" lengthAdjust="spacing" textLength="196" x="222.5" y="144.0654">EditStaffAsync(id, editingStaffDto)</text><polygon fill="#181818" points="1239.5,175.2734,1249.5,179.2734,1239.5,183.2734,1243.5,179.2734" style="stroke:#181818;stroke-width:1.0;"/><line style="stroke:#181818;stroke-width:1.0;" x1="440.5" x2="1245.5" y1="179.2734" y2="179.2734"/><text fill="#000000" font-family="sans-serif" font-size="13" font-weight="bold" lengthAdjust="spacing" textLength="7" x="447.5" y="174.417">3</text><text fill="#000000" font-family="sans-serif" font-size="13" lengthAdjust="spacing" textLength="102" x="458.5" y="174.417">GetByIdAsync(id)</text><polygon fill="#181818" points="451.5,205.625,441.5,209.625,451.5,213.625,447.5,209.625" style="stroke:#181818;stroke-width:1.0;"/><line style="stroke:#181818;stroke-width:1.0;stroke-dasharray:2.0,2.0;" x1="445.5" x2="1255.5" y1="209.625" y2="209.625"/><text fill="#000000" font-family="sans-serif" font-size="13" font-weight="bold" lengthAdjust="spacing" textLength="7" x="457.5" y="204.7686">4</text><text fill="#000000" font-family="sans-serif" font-size="13" lengthAdjust="spacing" textLength="24" x="468.5" y="204.7686">staff</text><path d="M20,224.625 L81,224.625 L81,232.9766 L71,242.9766 L20,242.9766 L20,224.625 " fill="#EEEEEE" style="stroke:#000000;stroke-width:1.5;"/><rect fill="none" height="79.0547" style="stroke:#000000;stroke-width:1.5;" width="470.5" x="20" y="224.625"/><text fill="#000000" font-family="sans-serif" font-size="13" font-weight="bold" lengthAdjust="spacing" textLength="16" x="35" y="239.1201">alt</text><text fill="#000000" font-family="sans-serif" font-size="11" font-weight="bold" lengthAdjust="spacing" textLength="68" x="96" y="238.0439">[staff != null]</text><polygon fill="#181818" points="215.5,261.3281,205.5,265.3281,215.5,269.3281,211.5,265.3281" style="stroke:#181818;stroke-width:1.0;"/><line style="stroke:#181818;stroke-width:1.0;stroke-dasharray:2.0,2.0;" x1="209.5" x2="429.5" y1="265.3281" y2="265.3281"/><text fill="#000000" font-family="sans-serif" font-size="13" font-weight="bold" lengthAdjust="spacing" textLength="7" x="221.5" y="260.4717">5</text><text fill="#000000" font-family="sans-serif" font-size="13" lengthAdjust="spacing" textLength="138" x="232.5" y="260.4717">NullReferenceException</text><polygon fill="#181818" points="68.5,291.6797,58.5,295.6797,68.5,299.6797,64.5,295.6797" style="stroke:#181818;stroke-width:1.0;"/><line style="stroke:#181818;stroke-width:1.0;stroke-dasharray:2.0,2.0;" x1="62.5" x2="193.5" y1="295.6797" y2="295.6797"/><text fill="#000000" font-family="sans-serif" font-size="13" font-weight="bold" lengthAdjust="spacing" textLength="7" x="74.5" y="290.8232">6</text><text fill="#000000" font-family="sans-serif" font-size="13" lengthAdjust="spacing" textLength="85" x="85.5" y="290.8232">404 Not Found</text><path d="M10,317.6797 L71,317.6797 L71,326.0313 L61,336.0313 L10,336.0313 L10,317.6797 " fill="#EEEEEE" style="stroke:#000000;stroke-width:1.5;"/><rect fill="none" height="202.4609" style="stroke:#000000;stroke-width:1.5;" width="1482.5" x="10" y="317.6797"/><text fill="#000000" font-family="sans-serif" font-size="13" font-weight="bold" lengthAdjust="spacing" textLength="16" x="25" y="332.1748">alt</text><text fill="#000000" font-family="sans-serif" font-size="11" font-weight="bold" lengthAdjust="spacing" textLength="212" x="86" y="331.0986">[editingStaffDto.specializationId != null]</text><polygon fill="#181818" points="1384,354.3828,1394,358.3828,1384,362.3828,1388,358.3828" style="stroke:#181818;stroke-width:1.0;"/><line style="stroke:#181818;stroke-width:1.0;" x1="440.5" x2="1390" y1="358.3828" y2="358.3828"/><text fill="#000000" font-family="sans-serif" font-size="13" font-weight="bold" lengthAdjust="spacing" textLength="7" x="447.5" y="353.5264">7</text><text fill="#000000" font-family="sans-serif" font-size="13" lengthAdjust="spacing" textLength="269" x="458.5" y="353.5264">GetByIdAsync(editingStaffDto.specializationid)</text><polygon fill="#181818" points="451.5,384.7344,441.5,388.7344,451.5,392.7344,447.5,388.7344" style="stroke:#181818;stroke-width:1.0;"/><line style="stroke:#181818;stroke-width:1.0;stroke-dasharray:2.0,2.0;" x1="445.5" x2="1400" y1="388.7344" y2="388.7344"/><text fill="#000000" font-family="sans-serif" font-size="13" font-weight="bold" lengthAdjust="spacing" textLength="7" x="457.5" y="383.8779">8</text><text fill="#000000" font-family="sans-serif" font-size="13" lengthAdjust="spacing" textLength="79" x="468.5" y="383.8779">specialization</text><path d="M20,403.7344 L81,403.7344 L81,412.0859 L71,422.0859 L20,422.0859 L20,403.7344 " fill="#EEEEEE" style="stroke:#000000;stroke-width:1.5;"/><rect fill="none" height="79.0547" style="stroke:#000000;stroke-width:1.5;" width="470.5" x="20" y="403.7344"/><text fill="#000000" font-family="sans-serif" font-size="13" font-weight="bold" lengthAdjust="spacing" textLength="16" x="35" y="418.2295">alt</text><text fill="#000000" font-family="sans-serif" font-size="11" font-weight="bold" lengthAdjust="spacing" textLength="121" x="96" y="417.1533">[specialization == null]</text><polygon fill="#181818" points="215.5,440.4375,205.5,444.4375,215.5,448.4375,211.5,444.4375" style="stroke:#181818;stroke-width:1.0;"/><line style="stroke:#181818;stroke-width:1.0;stroke-dasharray:2.0,2.0;" x1="209.5" x2="429.5" y1="444.4375" y2="444.4375"/><text fill="#000000" font-family="sans-serif" font-size="13" font-weight="bold" lengthAdjust="spacing" textLength="7" x="221.5" y="439.5811">9</text><text fill="#000000" font-family="sans-serif" font-size="13" lengthAdjust="spacing" textLength="138" x="232.5" y="439.5811">NullReferenceException</text><polygon fill="#181818" points="68.5,470.7891,58.5,474.7891,68.5,478.7891,64.5,474.7891" style="stroke:#181818;stroke-width:1.0;"/><line style="stroke:#181818;stroke-width:1.0;stroke-dasharray:2.0,2.0;" x1="62.5" x2="193.5" y1="474.7891" y2="474.7891"/><text fill="#000000" font-family="sans-serif" font-size="13" font-weight="bold" lengthAdjust="spacing" textLength="14" x="74.5" y="469.9326">10</text><text fill="#000000" font-family="sans-serif" font-size="13" lengthAdjust="spacing" textLength="85" x="92.5" y="469.9326">404 Not Found</text><polygon fill="#181818" points="918.5,508.1406,928.5,512.1406,918.5,516.1406,922.5,512.1406" style="stroke:#181818;stroke-width:1.0;"/><line style="stroke:#181818;stroke-width:1.0;" x1="440.5" x2="924.5" y1="512.1406" y2="512.1406"/><text fill="#000000" font-family="sans-serif" font-size="13" font-weight="bold" lengthAdjust="spacing" textLength="14" x="447.5" y="507.2842">11</text><text fill="#000000" font-family="sans-serif" font-size="13" lengthAdjust="spacing" textLength="212" x="465.5" y="507.2842">ChangeSpecialization(specialization)</text><path d="M10,534.1406 L71,534.1406 L71,542.4922 L61,552.4922 L10,552.4922 L10,534.1406 " fill="#EEEEEE" style="stroke:#000000;stroke-width:1.5;"/><rect fill="none" height="232.8125" style="stroke:#000000;stroke-width:1.5;" width="1659.5" x="10" y="534.1406"/><text fill="#000000" font-family="sans-serif" font-size="13" font-weight="bold" lengthAdjust="spacing" textLength="16" x="25" y="548.6357">alt</text><text fill="#000000" font-family="sans-serif" font-size="11" font-weight="bold" lengthAdjust="spacing" textLength="212" x="86" y="547.5596">[dto.ToRemoveAvailabilitySlotId != null]</text><polygon fill="#181818" points="1559,570.8438,1569,574.8438,1559,578.8438,1563,574.8438" style="stroke:#181818;stroke-width:1.0;"/><line style="stroke:#181818;stroke-width:1.0;" x1="440.5" x2="1565" y1="574.8438" y2="574.8438"/><text fill="#000000" font-family="sans-serif" font-size="13" font-weight="bold" lengthAdjust="spacing" textLength="14" x="447.5" y="569.9873">12</text><text fill="#000000" font-family="sans-serif" font-size="13" lengthAdjust="spacing" textLength="228" x="465.5" y="569.9873">getById(dto.ToRemoveAvailabilitySlotId)</text><polygon fill="#181818" points="451.5,601.1953,441.5,605.1953,451.5,609.1953,447.5,605.1953" style="stroke:#181818;stroke-width:1.0;"/><line style="stroke:#181818;stroke-width:1.0;stroke-dasharray:2.0,2.0;" x1="445.5" x2="1575" y1="605.1953" y2="605.1953"/><text fill="#000000" font-family="sans-serif" font-size="13" font-weight="bold" lengthAdjust="spacing" textLength="14" x="457.5" y="600.3389">13</text><text fill="#000000" font-family="sans-serif" font-size="13" lengthAdjust="spacing" textLength="82" x="475.5" y="600.3389">availabilitySlot</text><path d="M20,620.1953 L81,620.1953 L81,628.5469 L71,638.5469 L20,638.5469 L20,620.1953 " fill="#EEEEEE" style="stroke:#000000;stroke-width:1.5;"/><rect fill="none" height="79.0547" style="stroke:#000000;stroke-width:1.5;" width="470.5" x="20" y="620.1953"/><text fill="#000000" font-family="sans-serif" font-size="13" font-weight="bold" lengthAdjust="spacing" textLength="16" x="35" y="634.6904">alt</text><text fill="#000000" font-family="sans-serif" font-size="11" font-weight="bold" lengthAdjust="spacing" textLength="123" x="96" y="633.6143">[availabilitySlot == null]</text><polygon fill="#181818" points="215.5,656.8984,205.5,660.8984,215.5,664.8984,211.5,660.8984" style="stroke:#181818;stroke-width:1.0;"/><line style="stroke:#181818;stroke-width:1.0;stroke-dasharray:2.0,2.0;" x1="209.5" x2="429.5" y1="660.8984" y2="660.8984"/><text fill="#000000" font-family="sans-serif" font-size="13" font-weight="bold" lengthAdjust="spacing" textLength="14" x="221.5" y="656.042">14</text><text fill="#000000" font-family="sans-serif" font-size="13" lengthAdjust="spacing" textLength="138" x="239.5" y="656.042">NullReferenceException</text><polygon fill="#181818" points="68.5,687.25,58.5,691.25,68.5,695.25,64.5,691.25" style="stroke:#181818;stroke-width:1.0;"/><line style="stroke:#181818;stroke-width:1.0;stroke-dasharray:2.0,2.0;" x1="62.5" x2="193.5" y1="691.25" y2="691.25"/><text fill="#000000" font-family="sans-serif" font-size="13" font-weight="bold" lengthAdjust="spacing" textLength="14" x="74.5" y="686.3936">15</text><text fill="#000000" font-family="sans-serif" font-size="13" lengthAdjust="spacing" textLength="85" x="92.5" y="686.3936">404 Not Found</text><polygon fill="#181818" points="918.5,724.6016,928.5,728.6016,918.5,732.6016,922.5,728.6016" style="stroke:#181818;stroke-width:1.0;"/><line style="stroke:#181818;stroke-width:1.0;" x1="440.5" x2="924.5" y1="728.6016" y2="728.6016"/><text fill="#000000" font-family="sans-serif" font-size="13" font-weight="bold" lengthAdjust="spacing" textLength="14" x="447.5" y="723.7451">16</text><text fill="#000000" font-family="sans-serif" font-size="13" lengthAdjust="spacing" textLength="220" x="465.5" y="723.7451">RemoveAvailabilitySlot(availabilitySlot)</text><polygon fill="#181818" points="1564,754.9531,1574,758.9531,1564,762.9531,1568,758.9531" style="stroke:#181818;stroke-width:1.0;"/><line style="stroke:#181818;stroke-width:1.0;" x1="440.5" x2="1570" y1="758.9531" y2="758.9531"/><text fill="#000000" font-family="sans-serif" font-size="13" font-weight="bold" lengthAdjust="spacing" textLength="14" x="447.5" y="754.0967">17</text><text fill="#000000" font-family="sans-serif" font-size="13" lengthAdjust="spacing" textLength="136" x="465.5" y="754.0967">Remove(availabilitySlot)</text><path d="M380.5,780.9531 L441.5,780.9531 L441.5,789.3047 L431.5,799.3047 L380.5,799.3047 L380.5,780.9531 " fill="#EEEEEE" style="stroke:#000000;stroke-width:1.5;"/><rect fill="none" height="139.7578" style="stroke:#000000;stroke-width:1.5;" width="1289" x="380.5" y="780.9531"/><text fill="#000000" font-family="sans-serif" font-size="13" font-weight="bold" lengthAdjust="spacing" textLength="16" x="395.5" y="795.4482">alt</text><text fill="#000000" font-family="sans-serif" font-size="11" font-weight="bold" lengthAdjust="spacing" textLength="450" x="456.5" y="794.3721">[dto.NewAvailabilitySlotStartTime != null &amp;&amp; dto.NewAvailabilitySlotEndTime != null]</text><polygon fill="#181818" points="1124.5,817.6563,1134.5,821.6563,1124.5,825.6563,1128.5,821.6563" style="stroke:#181818;stroke-width:1.0;"/><line style="stroke:#181818;stroke-width:1.0;" x1="440.5" x2="1130.5" y1="821.6563" y2="821.6563"/><text fill="#000000" font-family="sans-serif" font-size="13" font-weight="bold" lengthAdjust="spacing" textLength="14" x="447.5" y="816.7998">18</text><text fill="#000000" font-family="sans-serif" font-size="13" lengthAdjust="spacing" textLength="155" x="465.5" y="816.7998">create(startTime, endTime)</text><polygon fill="#181818" points="451.5,848.0078,441.5,852.0078,451.5,856.0078,447.5,852.0078" style="stroke:#181818;stroke-width:1.0;"/><line style="stroke:#181818;stroke-width:1.0;stroke-dasharray:2.0,2.0;" x1="445.5" x2="1140.5" y1="852.0078" y2="852.0078"/><text fill="#000000" font-family="sans-serif" font-size="13" font-weight="bold" lengthAdjust="spacing" textLength="14" x="457.5" y="847.1514">19</text><text fill="#000000" font-family="sans-serif" font-size="13" lengthAdjust="spacing" textLength="82" x="475.5" y="847.1514">availabilitySlot</text><polygon fill="#181818" points="918.5,878.3594,928.5,882.3594,918.5,886.3594,922.5,882.3594" style="stroke:#181818;stroke-width:1.0;"/><line style="stroke:#181818;stroke-width:1.0;" x1="440.5" x2="924.5" y1="882.3594" y2="882.3594"/><text fill="#000000" font-family="sans-serif" font-size="13" font-weight="bold" lengthAdjust="spacing" textLength="14" x="447.5" y="877.5029">20</text><text fill="#000000" font-family="sans-serif" font-size="13" lengthAdjust="spacing" textLength="197" x="465.5" y="877.5029">AddAvailabilitySlot(availabilitySlot)</text><polygon fill="#181818" points="1564,908.7109,1574,912.7109,1564,916.7109,1568,912.7109" style="stroke:#181818;stroke-width:1.0;"/><line style="stroke:#181818;stroke-width:1.0;" x1="440.5" x2="1570" y1="912.7109" y2="912.7109"/><text fill="#000000" font-family="sans-serif" font-size="13" font-weight="bold" lengthAdjust="spacing" textLength="14" x="447.5" y="907.8545">21</text><text fill="#000000" font-family="sans-serif" font-size="13" lengthAdjust="spacing" textLength="150" x="465.5" y="907.8545">AddAsync(availabilitySlot)</text><path d="M380.5,934.7109 L441.5,934.7109 L441.5,943.0625 L431.5,953.0625 L380.5,953.0625 L380.5,934.7109 " fill="#EEEEEE" style="stroke:#000000;stroke-width:1.5;"/><rect fill="none" height="48.7031" style="stroke:#000000;stroke-width:1.5;" width="599" x="380.5" y="934.7109"/><text fill="#000000" font-family="sans-serif" font-size="13" font-weight="bold" lengthAdjust="spacing" textLength="16" x="395.5" y="949.2061">alt</text><text fill="#000000" font-family="sans-serif" font-size="11" font-weight="bold" lengthAdjust="spacing" textLength="93" x="456.5" y="948.1299">[dto.Email != null]</text><polygon fill="#181818" points="918.5,971.4141,928.5,975.4141,918.5,979.4141,922.5,975.4141" style="stroke:#181818;stroke-width:1.0;"/><line style="stroke:#181818;stroke-width:1.0;" x1="440.5" x2="924.5" y1="975.4141" y2="975.4141"/><text fill="#000000" font-family="sans-serif" font-size="13" font-weight="bold" lengthAdjust="spacing" textLength="14" x="447.5" y="970.5576">22</text><text fill="#000000" font-family="sans-serif" font-size="13" lengthAdjust="spacing" textLength="346" x="465.5" y="970.5576">ContactInformation.ChangeEmail(new StaffEmail(dto.Email))</text><path d="M380.5,997.4141 L441.5,997.4141 L441.5,1005.7656 L431.5,1015.7656 L380.5,1015.7656 L380.5,997.4141 " fill="#EEEEEE" style="stroke:#000000;stroke-width:1.5;"/><rect fill="none" height="48.7031" style="stroke:#000000;stroke-width:1.5;" width="599" x="380.5" y="997.4141"/><text fill="#000000" font-family="sans-serif" font-size="13" font-weight="bold" lengthAdjust="spacing" textLength="16" x="395.5" y="1011.9092">alt</text><text fill="#000000" font-family="sans-serif" font-size="11" font-weight="bold" lengthAdjust="spacing" textLength="143" x="456.5" y="1010.833">[dto.PhoneNumber != null]</text><polygon fill="#181818" points="918.5,1034.1172,928.5,1038.1172,918.5,1042.1172,922.5,1038.1172" style="stroke:#181818;stroke-width:1.0;"/><line style="stroke:#181818;stroke-width:1.0;" x1="440.5" x2="924.5" y1="1038.1172" y2="1038.1172"/><text fill="#000000" font-family="sans-serif" font-size="13" font-weight="bold" lengthAdjust="spacing" textLength="14" x="447.5" y="1033.2607">23</text><text fill="#000000" font-family="sans-serif" font-size="13" lengthAdjust="spacing" textLength="448" x="465.5" y="1033.2607">ContactInformation.ChangePhoneNumber(new StaffPhone(dto.PhoneNumber))</text><polygon fill="#181818" points="1244.5,1071.4688,1254.5,1075.4688,1244.5,1079.4688,1248.5,1075.4688" style="stroke:#181818;stroke-width:1.0;"/><line style="stroke:#181818;stroke-width:1.0;" x1="440.5" x2="1250.5" y1="1075.4688" y2="1075.4688"/><text fill="#000000" font-family="sans-serif" font-size="13" font-weight="bold" lengthAdjust="spacing" textLength="14" x="447.5" y="1070.6123">24</text><text fill="#000000" font-family="sans-serif" font-size="13" lengthAdjust="spacing" textLength="110" x="465.5" y="1070.6123">UpdateAsync(staff)</text><path d="M380.5,1090.4688 L441.5,1090.4688 L441.5,1098.8203 L431.5,1108.8203 L380.5,1108.8203 L380.5,1090.4688 " fill="#EEEEEE" style="stroke:#000000;stroke-width:1.5;"/><rect fill="none" height="48.7031" style="stroke:#000000;stroke-width:1.5;" width="366" x="380.5" y="1090.4688"/><text fill="#000000" font-family="sans-serif" font-size="13" font-weight="bold" lengthAdjust="spacing" textLength="16" x="395.5" y="1104.9639">alt</text><text fill="#000000" font-family="sans-serif" font-size="11" font-weight="bold" lengthAdjust="spacing" textLength="222" x="456.5" y="1103.8877">[ContactInformation changes happened]</text><polygon fill="#181818" points="675.5,1127.1719,685.5,1131.1719,675.5,1135.1719,679.5,1131.1719" style="stroke:#181818;stroke-width:1.0;"/><line style="stroke:#181818;stroke-width:1.0;" x1="440.5" x2="681.5" y1="1131.1719" y2="1131.1719"/><text fill="#000000" font-family="sans-serif" font-size="13" font-weight="bold" lengthAdjust="spacing" textLength="14" x="447.5" y="1126.3154">25</text><text fill="#000000" font-family="sans-serif" font-size="13" lengthAdjust="spacing" textLength="205" x="465.5" y="1126.3154">SendEmailAsync(to, subject, body)</text><!--SRC=[pLRRRjim37ttLt1zA6oWJIzBXyreW_MITYcQe6ZJxbcnc5Q38ncsd2uRzk-ZvLni9KgANR3voQR8moFoM2BBjPBvQ82fvx58gnIsJlb8o2rW6PWtBs6f5f58cDImTQ_PS9YTAwbJ5SUO6h_59nmVBpvQhHMnzvYEHOGcRlfEGTCtEwBJ7Z4HLqEgXceSh4XLvYZUoFD2KQHSefHW95WilZ4jLBdfkiaPUJec8cmWOg4dzx7IPS4iOpMQCyq6B4FQbU5qXudA15Lyik2viBaYQ-Hi2CUY0yicQw6vbwjuXMZ4c6cSYWNeCM-mswhg8eJRXpxiiKJiPKP2Uzy5_s7SvmWBTsCldWe2uStw7aAR2sqgTffDPEGBlWD89Y6VZFL2gs2ECSUVXiyNYcS6MQ1R7GZX2lNPfCDdEO9Qv0As7bTpCYaitDtQJamrQZ4SdT0ircK0l3a1cSVnwhtOfU-HvnqECKKPOVjhX4aXa9L5fj2oVI4qzvlG8mrVgbno3oK7IcyeMALkP3NXTVXwTYstKAsIhy_ZReW3VhapBXvMYsfkpbwvifgcrG-Lat_LlNNIfw3pPoQViBuJlyuzg2c1KrVwwWv7QepsWR5P1skEc12UIYNuwrCu9E16NXB16X9r6J3BqIM4DRcBajam_wqOLfVSj_a7lzJT4dm5cAsk7hxOG4GmrNqnmfc-O7lRvTkMlEhvMgx4C4gHkkbdisHqmvHOhvJSHg7z8NbjQkCfvt-fXmMoEQStTz6CRHklXTafH2AcxNRaKAKZS-WqoeF9eFWINqhNydCE7mHLt2KAjyzAOi-CkhzDf8Are6EClfKg25xrkzNg-f3Gb8PbQSrj7vXDBBE1oB39u9ab2KhahXorgJca5ScDgSoXrGva-U0BHde71efFbZbNxxdf5ELPzihqvbNbQiR2ZmJeURSnZSuFtHiOOveL_0yQX_k7pSPRl_-SmoKEuE083Zw4pVrm_mW-j_jGB0UUVtLxCpw4JEKfyUSYqwaOvELjT4tYWxjSQlepGoY-_7utWFlsp0XjEHQfaYEKshj-x9PEy8dEaOH-XSBvNNFtJ6YpCnB7OzUxm27BgUHj6IbE4mZrf7-v-zwxeNBdx8aI9TexfyDKfnEQRFi_0G00]--></g></svg>