<?xml version="1.0" encoding="us-ascii" standalone="no"?><svg xmlns="http://www.w3.org/2000/svg" xmlns:xlink="http://www.w3.org/1999/xlink" contentStyleType="text/css" height="1253px" preserveAspectRatio="none" style="width:1693px;height:1253px;background:#FFFFFF;" version="1.1" viewBox="0 0 1693 1253" width="1693px" zoomAndPan="magnify"><defs/><g><rect fill="#FFFFFF" height="1049.9531" style="stroke:#181818;stroke-width:1.0;" width="10" x="47.5" y="96.2188"/><rect fill="#FFFFFF" height="1027.6016" style="stroke:#181818;stroke-width:1.0;" width="10" x="212.5" y="118.5703"/><rect fill="#FFFFFF" height="997.25" style="stroke:#181818;stroke-width:1.0;" width="10" x="448.5" y="148.9219"/><rect fill="#FFFFFF" height="30.3516" style="stroke:#181818;stroke-width:1.0;" width="10" x="1154.5" y="821.6563"/><rect fill="#FFFFFF" height="30.3516" style="stroke:#181818;stroke-width:1.0;" width="10" x="1269.5" y="179.2734"/><rect fill="#FFFFFF" height="30.3516" style="stroke:#181818;stroke-width:1.0;" width="10" x="1414" y="358.3828"/><rect fill="#FFFFFF" height="30.3516" style="stroke:#181818;stroke-width:1.0;" width="10" x="1589" y="574.8438"/><rect fill="none" height="79.0547" style="stroke:#000000;stroke-width:1.5;" width="488.5" x="20" y="224.625"/><rect fill="none" height="202.4609" style="stroke:#000000;stroke-width:1.5;" width="1500.5" x="10" y="317.6797"/><rect fill="none" height="79.0547" style="stroke:#000000;stroke-width:1.5;" width="488.5" x="20" y="403.7344"/><rect fill="none" height="232.8125" style="stroke:#000000;stroke-width:1.5;" width="1677.5" x="10" y="534.1406"/><rect fill="none" height="79.0547" style="stroke:#000000;stroke-width:1.5;" width="488.5" x="20" y="620.1953"/><rect fill="none" height="139.7578" style="stroke:#000000;stroke-width:1.5;" width="1289" x="398.5" y="780.9531"/><rect fill="none" height="48.7031" style="stroke:#000000;stroke-width:1.5;" width="599" x="398.5" y="934.7109"/><rect fill="none" height="48.7031" style="stroke:#000000;stroke-width:1.5;" width="599" x="398.5" y="997.4141"/><rect fill="none" height="48.7031" style="stroke:#000000;stroke-width:1.5;" width="366" x="398.5" y="1090.4688"/><line style="stroke:#181818;stroke-width:0.5;stroke-dasharray:5.0,5.0;" x1="52" x2="52" y1="86.2188" y2="1156.1719"/><line style="stroke:#181818;stroke-width:0.5;stroke-dasharray:5.0,5.0;" x1="217.5" x2="217.5" y1="86.2188" y2="1156.1719"/><line style="stroke:#181818;stroke-width:0.5;stroke-dasharray:5.0,5.0;" x1="453.5" x2="453.5" y1="86.2188" y2="1156.1719"/><line style="stroke:#181818;stroke-width:0.5;stroke-dasharray:5.0,5.0;" x1="705.5" x2="705.5" y1="86.2188" y2="1156.1719"/><line style="stroke:#181818;stroke-width:0.5;stroke-dasharray:5.0,5.0;" x1="948.5" x2="948.5" y1="86.2188" y2="1156.1719"/><line style="stroke:#181818;stroke-width:0.5;stroke-dasharray:5.0,5.0;" x1="1047.5" x2="1047.5" y1="86.2188" y2="1156.1719"/><line style="stroke:#181818;stroke-width:0.5;stroke-dasharray:5.0,5.0;" x1="1159.5" x2="1159.5" y1="86.2188" y2="1156.1719"/><line style="stroke:#181818;stroke-width:0.5;stroke-dasharray:5.0,5.0;" x1="1274.5" x2="1274.5" y1="86.2188" y2="1156.1719"/><line style="stroke:#181818;stroke-width:0.5;stroke-dasharray:5.0,5.0;" x1="1418.5" x2="1418.5" y1="86.2188" y2="1156.1719"/><line style="stroke:#181818;stroke-width:0.5;stroke-dasharray:5.0,5.0;" x1="1593.5" x2="1593.5" y1="86.2188" y2="1156.1719"/><text fill="#000000" font-family="sans-serif" font-size="14" lengthAdjust="spacing" textLength="39" x="30" y="83.1426">Admin</text><ellipse cx="52.5" cy="17.1094" fill="#E2E2F0" rx="8" ry="8" style="stroke:#181818;stroke-width:0.5;"/><path d="M52.5,25.1094 L52.5,52.1094 M39.5,33.1094 L65.5,33.1094 M52.5,52.1094 L39.5,67.1094 M52.5,52.1094 L65.5,67.1094 " fill="none" style="stroke:#181818;stroke-width:0.5;"/><text fill="#000000" font-family="sans-serif" font-size="14" lengthAdjust="spacing" textLength="39" x="30" y="1169.7051">Admin</text><ellipse cx="52.5" cy="1181.2813" fill="#E2E2F0" rx="8" ry="8" style="stroke:#181818;stroke-width:0.5;"/><path d="M52.5,1189.2813 L52.5,1216.2813 M39.5,1197.2813 L65.5,1197.2813 M52.5,1216.2813 L39.5,1231.2813 M52.5,1216.2813 L65.5,1231.2813 " fill="none" style="stroke:#181818;stroke-width:0.5;"/><rect fill="#E2E2F0" height="49.2188" rx="2.5" ry="2.5" style="stroke:#181818;stroke-width:0.5;" width="112" x="161.5" y="36"/><text fill="#000000" font-family="sans-serif" font-size="14" font-style="italic" lengthAdjust="spacing" textLength="78" x="178.5" y="57.5332">&#171;Controller&#187;</text><text fill="#000000" font-family="sans-serif" font-size="14" lengthAdjust="spacing" textLength="98" x="168.5" y="75.1426">StaffsController</text><rect fill="#E2E2F0" height="49.2188" rx="2.5" ry="2.5" style="stroke:#181818;stroke-width:0.5;" width="112" x="161.5" y="1155.1719"/><text fill="#000000" font-family="sans-serif" font-size="14" font-style="italic" lengthAdjust="spacing" textLength="78" x="178.5" y="1176.7051">&#171;Controller&#187;</text><text fill="#000000" font-family="sans-serif" font-size="14" lengthAdjust="spacing" textLength="98" x="168.5" y="1194.3145">StaffsController</text><rect fill="#E2E2F0" height="49.2188" rx="2.5" ry="2.5" style="stroke:#181818;stroke-width:0.5;" width="90" x="408.5" y="36"/><text fill="#000000" font-family="sans-serif" font-size="14" font-style="italic" lengthAdjust="spacing" textLength="62" x="422.5" y="57.5332">&#171;Service&#187;</text><text fill="#000000" font-family="sans-serif" font-size="14" lengthAdjust="spacing" textLength="76" x="415.5" y="75.1426">StaffService</text><rect fill="#E2E2F0" height="49.2188" rx="2.5" ry="2.5" style="stroke:#181818;stroke-width:0.5;" width="90" x="408.5" y="1155.1719"/><text fill="#000000" font-family="sans-serif" font-size="14" font-style="italic" lengthAdjust="spacing" textLength="62" x="422.5" y="1176.7051">&#171;Service&#187;</text><text fill="#000000" font-family="sans-serif" font-size="14" lengthAdjust="spacing" textLength="76" x="415.5" y="1194.3145">StaffService</text><rect fill="#E2E2F0" height="49.2188" rx="2.5" ry="2.5" style="stroke:#181818;stroke-width:0.5;" width="98" x="656.5" y="36"/><text fill="#000000" font-family="sans-serif" font-size="14" font-style="italic" lengthAdjust="spacing" textLength="62" x="674.5" y="57.5332">&#171;Service&#187;</text><text fill="#000000" font-family="sans-serif" font-size="14" lengthAdjust="spacing" textLength="84" x="663.5" y="75.1426">IEmailService</text><rect fill="#E2E2F0" height="49.2188" rx="2.5" ry="2.5" style="stroke:#181818;stroke-width:0.5;" width="98" x="656.5" y="1155.1719"/><text fill="#000000" font-family="sans-serif" font-size="14" font-style="italic" lengthAdjust="spacing" textLength="62" x="674.5" y="1176.7051">&#171;Service&#187;</text><text fill="#000000" font-family="sans-serif" font-size="14" lengthAdjust="spacing" textLength="84" x="663.5" y="1194.3145">IEmailService</text><rect fill="#E2E2F0" height="49.2188" rx="2.5" ry="2.5" style="stroke:#181818;stroke-width:0.5;" width="78" x="909.5" y="36"/><text fill="#000000" font-family="sans-serif" font-size="14" font-style="italic" lengthAdjust="spacing" textLength="64" x="916.5" y="57.5332">&#171;Domain&#187;</text><text fill="#000000" font-family="sans-serif" font-size="14" lengthAdjust="spacing" textLength="29" x="934" y="75.1426">Staff</text><rect fill="#E2E2F0" height="49.2188" rx="2.5" ry="2.5" style="stroke:#181818;stroke-width:0.5;" width="78" x="909.5" y="1155.1719"/><text fill="#000000" font-family="sans-serif" font-size="14" font-style="italic" lengthAdjust="spacing" textLength="64" x="916.5" y="1176.7051">&#171;Domain&#187;</text><text fill="#000000" font-family="sans-serif" font-size="14" lengthAdjust="spacing" textLength="29" x="934" y="1194.3145">Staff</text><rect fill="#E2E2F0" height="49.2188" rx="2.5" ry="2.5" style="stroke:#181818;stroke-width:0.5;" width="100" x="997.5" y="36"/><text fill="#000000" font-family="sans-serif" font-size="14" font-style="italic" lengthAdjust="spacing" textLength="64" x="1015.5" y="57.5332">&#171;Domain&#187;</text><text fill="#000000" font-family="sans-serif" font-size="14" lengthAdjust="spacing" textLength="86" x="1004.5" y="75.1426">Specialization</text><rect fill="#E2E2F0" height="49.2188" rx="2.5" ry="2.5" style="stroke:#181818;stroke-width:0.5;" width="100" x="997.5" y="1155.1719"/><text fill="#000000" font-family="sans-serif" font-size="14" font-style="italic" lengthAdjust="spacing" textLength="64" x="1015.5" y="1176.7051">&#171;Domain&#187;</text><text fill="#000000" font-family="sans-serif" font-size="14" lengthAdjust="spacing" textLength="86" x="1004.5" y="1194.3145">Specialization</text><rect fill="#E2E2F0" height="49.2188" rx="2.5" ry="2.5" style="stroke:#181818;stroke-width:0.5;" width="104" x="1107.5" y="36"/><text fill="#000000" font-family="sans-serif" font-size="14" font-style="italic" lengthAdjust="spacing" textLength="64" x="1127.5" y="57.5332">&#171;Domain&#187;</text><text fill="#000000" font-family="sans-serif" font-size="14" lengthAdjust="spacing" textLength="90" x="1114.5" y="75.1426">AvailabilitySlot</text><rect fill="#E2E2F0" height="49.2188" rx="2.5" ry="2.5" style="stroke:#181818;stroke-width:0.5;" width="104" x="1107.5" y="1155.1719"/><text fill="#000000" font-family="sans-serif" font-size="14" font-style="italic" lengthAdjust="spacing" textLength="64" x="1127.5" y="1176.7051">&#171;Domain&#187;</text><text fill="#000000" font-family="sans-serif" font-size="14" lengthAdjust="spacing" textLength="90" x="1114.5" y="1194.3145">AvailabilitySlot</text><text fill="#000000" font-family="sans-serif" font-size="14" font-style="italic" lengthAdjust="spacing" textLength="64" x="1239.5" y="65.5332">&#171;Domain&#187;</text><text fill="#000000" font-family="sans-serif" font-size="14" lengthAdjust="spacing" textLength="100" x="1221.5" y="83.1426">IStaffRepository</text><path d="M1256.5,15 C1256.5,5 1274.5,5 1274.5,5 C1274.5,5 1292.5,5 1292.5,15 L1292.5,41 C1292.5,51 1274.5,51 1274.5,51 C1274.5,51 1256.5,51 1256.5,41 L1256.5,15 " fill="#E2E2F0" style="stroke:#181818;stroke-width:1.5;"/><path d="M1256.5,15 C1256.5,25 1274.5,25 1274.5,25 C1274.5,25 1292.5,25 1292.5,15 " fill="none" style="stroke:#181818;stroke-width:1.5;"/><text fill="#000000" font-family="sans-serif" font-size="14" font-style="italic" lengthAdjust="spacing" textLength="64" x="1239.5" y="1169.7051">&#171;Domain&#187;</text><text fill="#000000" font-family="sans-serif" font-size="14" lengthAdjust="spacing" textLength="100" x="1221.5" y="1187.3145">IStaffRepository</text><path d="M1256.5,1200.3906 C1256.5,1190.3906 1274.5,1190.3906 1274.5,1190.3906 C1274.5,1190.3906 1292.5,1190.3906 1292.5,1200.3906 L1292.5,1226.3906 C1292.5,1236.3906 1274.5,1236.3906 1274.5,1236.3906 C1274.5,1236.3906 1256.5,1236.3906 1256.5,1226.3906 L1256.5,1200.3906 " fill="#E2E2F0" style="stroke:#181818;stroke-width:1.5;"/><path d="M1256.5,1200.3906 C1256.5,1210.3906 1274.5,1210.3906 1274.5,1210.3906 C1274.5,1210.3906 1292.5,1210.3906 1292.5,1200.3906 " fill="none" style="stroke:#181818;stroke-width:1.5;"/><text fill="#000000" font-family="sans-serif" font-size="14" font-style="italic" lengthAdjust="spacing" textLength="64" x="1384" y="65.5332">&#171;Domain&#187;</text><text fill="#000000" font-family="sans-serif" font-size="14" lengthAdjust="spacing" textLength="157" x="1337.5" y="83.1426">ISpecializationRepository</text><path d="M1401,15 C1401,5 1419,5 1419,5 C1419,5 1437,5 1437,15 L1437,41 C1437,51 1419,51 1419,51 C1419,51 1401,51 1401,41 L1401,15 " fill="#E2E2F0" style="stroke:#181818;stroke-width:1.5;"/><path d="M1401,15 C1401,25 1419,25 1419,25 C1419,25 1437,25 1437,15 " fill="none" style="stroke:#181818;stroke-width:1.5;"/><text fill="#000000" font-family="sans-serif" font-size="14" font-style="italic" lengthAdjust="spacing" textLength="64" x="1384" y="1169.7051">&#171;Domain&#187;</text><text fill="#000000" font-family="sans-serif" font-size="14" lengthAdjust="spacing" textLength="157" x="1337.5" y="1187.3145">ISpecializationRepository</text><path d="M1401,1200.3906 C1401,1190.3906 1419,1190.3906 1419,1190.3906 C1419,1190.3906 1437,1190.3906 1437,1200.3906 L1437,1226.3906 C1437,1236.3906 1419,1236.3906 1419,1236.3906 C1419,1236.3906 1401,1236.3906 1401,1226.3906 L1401,1200.3906 " fill="#E2E2F0" style="stroke:#181818;stroke-width:1.5;"/><path d="M1401,1200.3906 C1401,1210.3906 1419,1210.3906 1419,1210.3906 C1419,1210.3906 1437,1210.3906 1437,1200.3906 " fill="none" style="stroke:#181818;stroke-width:1.5;"/><text fill="#000000" font-family="sans-serif" font-size="14" font-style="italic" lengthAdjust="spacing" textLength="64" x="1559" y="65.5332">&#171;Domain&#187;</text><text fill="#000000" font-family="sans-serif" font-size="14" lengthAdjust="spacing" textLength="161" x="1510.5" y="83.1426">IAvailabilitySlotRepository</text><path d="M1576,15 C1576,5 1594,5 1594,5 C1594,5 1612,5 1612,15 L1612,41 C1612,51 1594,51 1594,51 C1594,51 1576,51 1576,41 L1576,15 " fill="#E2E2F0" style="stroke:#181818;stroke-width:1.5;"/><path d="M1576,15 C1576,25 1594,25 1594,25 C1594,25 1612,25 1612,15 " fill="none" style="stroke:#181818;stroke-width:1.5;"/><text fill="#000000" font-family="sans-serif" font-size="14" font-style="italic" lengthAdjust="spacing" textLength="64" x="1559" y="1169.7051">&#171;Domain&#187;</text><text fill="#000000" font-family="sans-serif" font-size="14" lengthAdjust="spacing" textLength="161" x="1510.5" y="1187.3145">IAvailabilitySlotRepository</text><path d="M1576,1200.3906 C1576,1190.3906 1594,1190.3906 1594,1190.3906 C1594,1190.3906 1612,1190.3906 1612,1200.3906 L1612,1226.3906 C1612,1236.3906 1594,1236.3906 1594,1236.3906 C1594,1236.3906 1576,1236.3906 1576,1226.3906 L1576,1200.3906 " fill="#E2E2F0" style="stroke:#181818;stroke-width:1.5;"/><path d="M1576,1200.3906 C1576,1210.3906 1594,1210.3906 1594,1210.3906 C1594,1210.3906 1612,1210.3906 1612,1200.3906 " fill="none" style="stroke:#181818;stroke-width:1.5;"/><rect fill="#FFFFFF" height="1049.9531" style="stroke:#181818;stroke-width:1.0;" width="10" x="47.5" y="96.2188"/><rect fill="#FFFFFF" height="1027.6016" style="stroke:#181818;stroke-width:1.0;" width="10" x="212.5" y="118.5703"/><rect fill="#FFFFFF" height="997.25" style="stroke:#181818;stroke-width:1.0;" width="10" x="448.5" y="148.9219"/><rect fill="#FFFFFF" height="30.3516" style="stroke:#181818;stroke-width:1.0;" width="10" x="1154.5" y="821.6563"/><rect fill="#FFFFFF" height="30.3516" style="stroke:#181818;stroke-width:1.0;" width="10" x="1269.5" y="179.2734"/><rect fill="#FFFFFF" height="30.3516" style="stroke:#181818;stroke-width:1.0;" width="10" x="1414" y="358.3828"/><rect fill="#FFFFFF" height="30.3516" style="stroke:#181818;stroke-width:1.0;" width="10" x="1589" y="574.8438"/><polygon fill="#181818" points="200.5,114.5703,210.5,118.5703,200.5,122.5703,204.5,118.5703" style="stroke:#181818;stroke-width:1.0;"/><line style="stroke:#181818;stroke-width:1.0;" x1="57.5" x2="206.5" y1="118.5703" y2="118.5703"/><text fill="#000000" font-family="sans-serif" font-size="13" font-weight="bold" lengthAdjust="spacing" textLength="7" x="64.5" y="113.7139">1</text><text fill="#000000" font-family="sans-serif" font-size="13" lengthAdjust="spacing" textLength="125" x="75.5" y="113.7139">PATCH /api/staffs/{id}</text><polygon fill="#181818" points="436.5,144.9219,446.5,148.9219,436.5,152.9219,440.5,148.9219" style="stroke:#181818;stroke-width:1.0;"/><line style="stroke:#181818;stroke-width:1.0;" x1="222.5" x2="442.5" y1="148.9219" y2="148.9219"/><text fill="#000000" font-family="sans-serif" font-size="13" font-weight="bold" lengthAdjust="spacing" textLength="7" x="229.5" y="144.0654">2</text><text fill="#000000" font-family="sans-serif" font-size="13" lengthAdjust="spacing" textLength="196" x="240.5" y="144.0654">EditStaffAsync(id, editingStaffDto)</text><polygon fill="#181818" points="1257.5,175.2734,1267.5,179.2734,1257.5,183.2734,1261.5,179.2734" style="stroke:#181818;stroke-width:1.0;"/><line style="stroke:#181818;stroke-width:1.0;" x1="458.5" x2="1263.5" y1="179.2734" y2="179.2734"/><text fill="#000000" font-family="sans-serif" font-size="13" font-weight="bold" lengthAdjust="spacing" textLength="7" x="465.5" y="174.417">3</text><text fill="#000000" font-family="sans-serif" font-size="13" lengthAdjust="spacing" textLength="102" x="476.5" y="174.417">GetByIdAsync(id)</text><polygon fill="#181818" points="469.5,205.625,459.5,209.625,469.5,213.625,465.5,209.625" style="stroke:#181818;stroke-width:1.0;"/><line style="stroke:#181818;stroke-width:1.0;stroke-dasharray:2.0,2.0;" x1="463.5" x2="1273.5" y1="209.625" y2="209.625"/><text fill="#000000" font-family="sans-serif" font-size="13" font-weight="bold" lengthAdjust="spacing" textLength="7" x="475.5" y="204.7686">4</text><text fill="#000000" font-family="sans-serif" font-size="13" lengthAdjust="spacing" textLength="24" x="486.5" y="204.7686">staff</text><path d="M20,224.625 L81,224.625 L81,232.9766 L71,242.9766 L20,242.9766 L20,224.625 " fill="#EEEEEE" style="stroke:#000000;stroke-width:1.5;"/><rect fill="none" height="79.0547" style="stroke:#000000;stroke-width:1.5;" width="488.5" x="20" y="224.625"/><text fill="#000000" font-family="sans-serif" font-size="13" font-weight="bold" lengthAdjust="spacing" textLength="16" x="35" y="239.1201">alt</text><text fill="#000000" font-family="sans-serif" font-size="11" font-weight="bold" lengthAdjust="spacing" textLength="68" x="96" y="238.0439">[staff != null]</text><polygon fill="#181818" points="233.5,261.3281,223.5,265.3281,233.5,269.3281,229.5,265.3281" style="stroke:#181818;stroke-width:1.0;"/><line style="stroke:#181818;stroke-width:1.0;stroke-dasharray:2.0,2.0;" x1="227.5" x2="447.5" y1="265.3281" y2="265.3281"/><text fill="#000000" font-family="sans-serif" font-size="13" font-weight="bold" lengthAdjust="spacing" textLength="7" x="239.5" y="260.4717">5</text><text fill="#000000" font-family="sans-serif" font-size="13" lengthAdjust="spacing" textLength="138" x="250.5" y="260.4717">NullReferenceException</text><polygon fill="#181818" points="68.5,291.6797,58.5,295.6797,68.5,299.6797,64.5,295.6797" style="stroke:#181818;stroke-width:1.0;"/><line style="stroke:#181818;stroke-width:1.0;stroke-dasharray:2.0,2.0;" x1="62.5" x2="211.5" y1="295.6797" y2="295.6797"/><text fill="#000000" font-family="sans-serif" font-size="13" font-weight="bold" lengthAdjust="spacing" textLength="7" x="74.5" y="290.8232">6</text><text fill="#000000" font-family="sans-serif" font-size="13" lengthAdjust="spacing" textLength="85" x="85.5" y="290.8232">404 Not Found</text><path d="M10,317.6797 L71,317.6797 L71,326.0313 L61,336.0313 L10,336.0313 L10,317.6797 " fill="#EEEEEE" style="stroke:#000000;stroke-width:1.5;"/><rect fill="none" height="202.4609" style="stroke:#000000;stroke-width:1.5;" width="1500.5" x="10" y="317.6797"/><text fill="#000000" font-family="sans-serif" font-size="13" font-weight="bold" lengthAdjust="spacing" textLength="16" x="25" y="332.1748">alt</text><text fill="#000000" font-family="sans-serif" font-size="11" font-weight="bold" lengthAdjust="spacing" textLength="212" x="86" y="331.0986">[editingStaffDto.specializationId != null]</text><polygon fill="#181818" points="1402,354.3828,1412,358.3828,1402,362.3828,1406,358.3828" style="stroke:#181818;stroke-width:1.0;"/><line style="stroke:#181818;stroke-width:1.0;" x1="458.5" x2="1408" y1="358.3828" y2="358.3828"/><text fill="#000000" font-family="sans-serif" font-size="13" font-weight="bold" lengthAdjust="spacing" textLength="7" x="465.5" y="353.5264">7</text><text fill="#000000" font-family="sans-serif" font-size="13" lengthAdjust="spacing" textLength="269" x="476.5" y="353.5264">GetByIdAsync(editingStaffDto.specializationid)</text><polygon fill="#181818" points="469.5,384.7344,459.5,388.7344,469.5,392.7344,465.5,388.7344" style="stroke:#181818;stroke-width:1.0;"/><line style="stroke:#181818;stroke-width:1.0;stroke-dasharray:2.0,2.0;" x1="463.5" x2="1418" y1="388.7344" y2="388.7344"/><text fill="#000000" font-family="sans-serif" font-size="13" font-weight="bold" lengthAdjust="spacing" textLength="7" x="475.5" y="383.8779">8</text><text fill="#000000" font-family="sans-serif" font-size="13" lengthAdjust="spacing" textLength="79" x="486.5" y="383.8779">specialization</text><path d="M20,403.7344 L81,403.7344 L81,412.0859 L71,422.0859 L20,422.0859 L20,403.7344 " fill="#EEEEEE" style="stroke:#000000;stroke-width:1.5;"/><rect fill="none" height="79.0547" style="stroke:#000000;stroke-width:1.5;" width="488.5" x="20" y="403.7344"/><text fill="#000000" font-family="sans-serif" font-size="13" font-weight="bold" lengthAdjust="spacing" textLength="16" x="35" y="418.2295">alt</text><text fill="#000000" font-family="sans-serif" font-size="11" font-weight="bold" lengthAdjust="spacing" textLength="121" x="96" y="417.1533">[specialization == null]</text><polygon fill="#181818" points="233.5,440.4375,223.5,444.4375,233.5,448.4375,229.5,444.4375" style="stroke:#181818;stroke-width:1.0;"/><line style="stroke:#181818;stroke-width:1.0;stroke-dasharray:2.0,2.0;" x1="227.5" x2="447.5" y1="444.4375" y2="444.4375"/><text fill="#000000" font-family="sans-serif" font-size="13" font-weight="bold" lengthAdjust="spacing" textLength="7" x="239.5" y="439.5811">9</text><text fill="#000000" font-family="sans-serif" font-size="13" lengthAdjust="spacing" textLength="138" x="250.5" y="439.5811">NullReferenceException</text><polygon fill="#181818" points="68.5,470.7891,58.5,474.7891,68.5,478.7891,64.5,474.7891" style="stroke:#181818;stroke-width:1.0;"/><line style="stroke:#181818;stroke-width:1.0;stroke-dasharray:2.0,2.0;" x1="62.5" x2="211.5" y1="474.7891" y2="474.7891"/><text fill="#000000" font-family="sans-serif" font-size="13" font-weight="bold" lengthAdjust="spacing" textLength="14" x="74.5" y="469.9326">10</text><text fill="#000000" font-family="sans-serif" font-size="13" lengthAdjust="spacing" textLength="85" x="92.5" y="469.9326">404 Not Found</text><polygon fill="#181818" points="936.5,508.1406,946.5,512.1406,936.5,516.1406,940.5,512.1406" style="stroke:#181818;stroke-width:1.0;"/><line style="stroke:#181818;stroke-width:1.0;" x1="458.5" x2="942.5" y1="512.1406" y2="512.1406"/><text fill="#000000" font-family="sans-serif" font-size="13" font-weight="bold" lengthAdjust="spacing" textLength="14" x="465.5" y="507.2842">11</text><text fill="#000000" font-family="sans-serif" font-size="13" lengthAdjust="spacing" textLength="212" x="483.5" y="507.2842">ChangeSpecialization(specialization)</text><path d="M10,534.1406 L71,534.1406 L71,542.4922 L61,552.4922 L10,552.4922 L10,534.1406 " fill="#EEEEEE" style="stroke:#000000;stroke-width:1.5;"/><rect fill="none" height="232.8125" style="stroke:#000000;stroke-width:1.5;" width="1677.5" x="10" y="534.1406"/><text fill="#000000" font-family="sans-serif" font-size="13" font-weight="bold" lengthAdjust="spacing" textLength="16" x="25" y="548.6357">alt</text><text fill="#000000" font-family="sans-serif" font-size="11" font-weight="bold" lengthAdjust="spacing" textLength="212" x="86" y="547.5596">[dto.ToRemoveAvailabilitySlotId != null]</text><polygon fill="#181818" points="1577,570.8438,1587,574.8438,1577,578.8438,1581,574.8438" style="stroke:#181818;stroke-width:1.0;"/><line style="stroke:#181818;stroke-width:1.0;" x1="458.5" x2="1583" y1="574.8438" y2="574.8438"/><text fill="#000000" font-family="sans-serif" font-size="13" font-weight="bold" lengthAdjust="spacing" textLength="14" x="465.5" y="569.9873">12</text><text fill="#000000" font-family="sans-serif" font-size="13" lengthAdjust="spacing" textLength="228" x="483.5" y="569.9873">getById(dto.ToRemoveAvailabilitySlotId)</text><polygon fill="#181818" points="469.5,601.1953,459.5,605.1953,469.5,609.1953,465.5,605.1953" style="stroke:#181818;stroke-width:1.0;"/><line style="stroke:#181818;stroke-width:1.0;stroke-dasharray:2.0,2.0;" x1="463.5" x2="1593" y1="605.1953" y2="605.1953"/><text fill="#000000" font-family="sans-serif" font-size="13" font-weight="bold" lengthAdjust="spacing" textLength="14" x="475.5" y="600.3389">13</text><text fill="#000000" font-family="sans-serif" font-size="13" lengthAdjust="spacing" textLength="82" x="493.5" y="600.3389">availabilitySlot</text><path d="M20,620.1953 L81,620.1953 L81,628.5469 L71,638.5469 L20,638.5469 L20,620.1953 " fill="#EEEEEE" style="stroke:#000000;stroke-width:1.5;"/><rect fill="none" height="79.0547" style="stroke:#000000;stroke-width:1.5;" width="488.5" x="20" y="620.1953"/><text fill="#000000" font-family="sans-serif" font-size="13" font-weight="bold" lengthAdjust="spacing" textLength="16" x="35" y="634.6904">alt</text><text fill="#000000" font-family="sans-serif" font-size="11" font-weight="bold" lengthAdjust="spacing" textLength="123" x="96" y="633.6143">[availabilitySlot == null]</text><polygon fill="#181818" points="233.5,656.8984,223.5,660.8984,233.5,664.8984,229.5,660.8984" style="stroke:#181818;stroke-width:1.0;"/><line style="stroke:#181818;stroke-width:1.0;stroke-dasharray:2.0,2.0;" x1="227.5" x2="447.5" y1="660.8984" y2="660.8984"/><text fill="#000000" font-family="sans-serif" font-size="13" font-weight="bold" lengthAdjust="spacing" textLength="14" x="239.5" y="656.042">14</text><text fill="#000000" font-family="sans-serif" font-size="13" lengthAdjust="spacing" textLength="138" x="257.5" y="656.042">NullReferenceException</text><polygon fill="#181818" points="68.5,687.25,58.5,691.25,68.5,695.25,64.5,691.25" style="stroke:#181818;stroke-width:1.0;"/><line style="stroke:#181818;stroke-width:1.0;stroke-dasharray:2.0,2.0;" x1="62.5" x2="211.5" y1="691.25" y2="691.25"/><text fill="#000000" font-family="sans-serif" font-size="13" font-weight="bold" lengthAdjust="spacing" textLength="14" x="74.5" y="686.3936">15</text><text fill="#000000" font-family="sans-serif" font-size="13" lengthAdjust="spacing" textLength="85" x="92.5" y="686.3936">404 Not Found</text><polygon fill="#181818" points="936.5,724.6016,946.5,728.6016,936.5,732.6016,940.5,728.6016" style="stroke:#181818;stroke-width:1.0;"/><line style="stroke:#181818;stroke-width:1.0;" x1="458.5" x2="942.5" y1="728.6016" y2="728.6016"/><text fill="#000000" font-family="sans-serif" font-size="13" font-weight="bold" lengthAdjust="spacing" textLength="14" x="465.5" y="723.7451">16</text><text fill="#000000" font-family="sans-serif" font-size="13" lengthAdjust="spacing" textLength="220" x="483.5" y="723.7451">RemoveAvailabilitySlot(availabilitySlot)</text><polygon fill="#181818" points="1582,754.9531,1592,758.9531,1582,762.9531,1586,758.9531" style="stroke:#181818;stroke-width:1.0;"/><line style="stroke:#181818;stroke-width:1.0;" x1="458.5" x2="1588" y1="758.9531" y2="758.9531"/><text fill="#000000" font-family="sans-serif" font-size="13" font-weight="bold" lengthAdjust="spacing" textLength="14" x="465.5" y="754.0967">17</text><text fill="#000000" font-family="sans-serif" font-size="13" lengthAdjust="spacing" textLength="136" x="483.5" y="754.0967">Remove(availabilitySlot)</text><path d="M398.5,780.9531 L459.5,780.9531 L459.5,789.3047 L449.5,799.3047 L398.5,799.3047 L398.5,780.9531 " fill="#EEEEEE" style="stroke:#000000;stroke-width:1.5;"/><rect fill="none" height="139.7578" style="stroke:#000000;stroke-width:1.5;" width="1289" x="398.5" y="780.9531"/><text fill="#000000" font-family="sans-serif" font-size="13" font-weight="bold" lengthAdjust="spacing" textLength="16" x="413.5" y="795.4482">alt</text><text fill="#000000" font-family="sans-serif" font-size="11" font-weight="bold" lengthAdjust="spacing" textLength="450" x="474.5" y="794.3721">[dto.NewAvailabilitySlotStartTime != null &amp;&amp; dto.NewAvailabilitySlotEndTime != null]</text><polygon fill="#181818" points="1142.5,817.6563,1152.5,821.6563,1142.5,825.6563,1146.5,821.6563" style="stroke:#181818;stroke-width:1.0;"/><line style="stroke:#181818;stroke-width:1.0;" x1="458.5" x2="1148.5" y1="821.6563" y2="821.6563"/><text fill="#000000" font-family="sans-serif" font-size="13" font-weight="bold" lengthAdjust="spacing" textLength="14" x="465.5" y="816.7998">18</text><text fill="#000000" font-family="sans-serif" font-size="13" lengthAdjust="spacing" textLength="155" x="483.5" y="816.7998">create(startTime, endTime)</text><polygon fill="#181818" points="469.5,848.0078,459.5,852.0078,469.5,856.0078,465.5,852.0078" style="stroke:#181818;stroke-width:1.0;"/><line style="stroke:#181818;stroke-width:1.0;stroke-dasharray:2.0,2.0;" x1="463.5" x2="1158.5" y1="852.0078" y2="852.0078"/><text fill="#000000" font-family="sans-serif" font-size="13" font-weight="bold" lengthAdjust="spacing" textLength="14" x="475.5" y="847.1514">19</text><text fill="#000000" font-family="sans-serif" font-size="13" lengthAdjust="spacing" textLength="82" x="493.5" y="847.1514">availabilitySlot</text><polygon fill="#181818" points="936.5,878.3594,946.5,882.3594,936.5,886.3594,940.5,882.3594" style="stroke:#181818;stroke-width:1.0;"/><line style="stroke:#181818;stroke-width:1.0;" x1="458.5" x2="942.5" y1="882.3594" y2="882.3594"/><text fill="#000000" font-family="sans-serif" font-size="13" font-weight="bold" lengthAdjust="spacing" textLength="14" x="465.5" y="877.5029">20</text><text fill="#000000" font-family="sans-serif" font-size="13" lengthAdjust="spacing" textLength="197" x="483.5" y="877.5029">AddAvailabilitySlot(availabilitySlot)</text><polygon fill="#181818" points="1582,908.7109,1592,912.7109,1582,916.7109,1586,912.7109" style="stroke:#181818;stroke-width:1.0;"/><line style="stroke:#181818;stroke-width:1.0;" x1="458.5" x2="1588" y1="912.7109" y2="912.7109"/><text fill="#000000" font-family="sans-serif" font-size="13" font-weight="bold" lengthAdjust="spacing" textLength="14" x="465.5" y="907.8545">21</text><text fill="#000000" font-family="sans-serif" font-size="13" lengthAdjust="spacing" textLength="150" x="483.5" y="907.8545">AddAsync(availabilitySlot)</text><path d="M398.5,934.7109 L459.5,934.7109 L459.5,943.0625 L449.5,953.0625 L398.5,953.0625 L398.5,934.7109 " fill="#EEEEEE" style="stroke:#000000;stroke-width:1.5;"/><rect fill="none" height="48.7031" style="stroke:#000000;stroke-width:1.5;" width="599" x="398.5" y="934.7109"/><text fill="#000000" font-family="sans-serif" font-size="13" font-weight="bold" lengthAdjust="spacing" textLength="16" x="413.5" y="949.2061">alt</text><text fill="#000000" font-family="sans-serif" font-size="11" font-weight="bold" lengthAdjust="spacing" textLength="93" x="474.5" y="948.1299">[dto.Email != null]</text><polygon fill="#181818" points="936.5,971.4141,946.5,975.4141,936.5,979.4141,940.5,975.4141" style="stroke:#181818;stroke-width:1.0;"/><line style="stroke:#181818;stroke-width:1.0;" x1="458.5" x2="942.5" y1="975.4141" y2="975.4141"/><text fill="#000000" font-family="sans-serif" font-size="13" font-weight="bold" lengthAdjust="spacing" textLength="14" x="465.5" y="970.5576">22</text><text fill="#000000" font-family="sans-serif" font-size="13" lengthAdjust="spacing" textLength="346" x="483.5" y="970.5576">ContactInformation.ChangeEmail(new StaffEmail(dto.Email))</text><path d="M398.5,997.4141 L459.5,997.4141 L459.5,1005.7656 L449.5,1015.7656 L398.5,1015.7656 L398.5,997.4141 " fill="#EEEEEE" style="stroke:#000000;stroke-width:1.5;"/><rect fill="none" height="48.7031" style="stroke:#000000;stroke-width:1.5;" width="599" x="398.5" y="997.4141"/><text fill="#000000" font-family="sans-serif" font-size="13" font-weight="bold" lengthAdjust="spacing" textLength="16" x="413.5" y="1011.9092">alt</text><text fill="#000000" font-family="sans-serif" font-size="11" font-weight="bold" lengthAdjust="spacing" textLength="143" x="474.5" y="1010.833">[dto.PhoneNumber != null]</text><polygon fill="#181818" points="936.5,1034.1172,946.5,1038.1172,936.5,1042.1172,940.5,1038.1172" style="stroke:#181818;stroke-width:1.0;"/><line style="stroke:#181818;stroke-width:1.0;" x1="458.5" x2="942.5" y1="1038.1172" y2="1038.1172"/><text fill="#000000" font-family="sans-serif" font-size="13" font-weight="bold" lengthAdjust="spacing" textLength="14" x="465.5" y="1033.2607">23</text><text fill="#000000" font-family="sans-serif" font-size="13" lengthAdjust="spacing" textLength="448" x="483.5" y="1033.2607">ContactInformation.ChangePhoneNumber(new StaffPhone(dto.PhoneNumber))</text><polygon fill="#181818" points="1262.5,1071.4688,1272.5,1075.4688,1262.5,1079.4688,1266.5,1075.4688" style="stroke:#181818;stroke-width:1.0;"/><line style="stroke:#181818;stroke-width:1.0;" x1="458.5" x2="1268.5" y1="1075.4688" y2="1075.4688"/><text fill="#000000" font-family="sans-serif" font-size="13" font-weight="bold" lengthAdjust="spacing" textLength="14" x="465.5" y="1070.6123">24</text><text fill="#000000" font-family="sans-serif" font-size="13" lengthAdjust="spacing" textLength="110" x="483.5" y="1070.6123">UpdateAsync(staff)</text><path d="M398.5,1090.4688 L459.5,1090.4688 L459.5,1098.8203 L449.5,1108.8203 L398.5,1108.8203 L398.5,1090.4688 " fill="#EEEEEE" style="stroke:#000000;stroke-width:1.5;"/><rect fill="none" height="48.7031" style="stroke:#000000;stroke-width:1.5;" width="366" x="398.5" y="1090.4688"/><text fill="#000000" font-family="sans-serif" font-size="13" font-weight="bold" lengthAdjust="spacing" textLength="16" x="413.5" y="1104.9639">alt</text><text fill="#000000" font-family="sans-serif" font-size="11" font-weight="bold" lengthAdjust="spacing" textLength="222" x="474.5" y="1103.8877">[ContactInformation changes happened]</text><polygon fill="#181818" points="693.5,1127.1719,703.5,1131.1719,693.5,1135.1719,697.5,1131.1719" style="stroke:#181818;stroke-width:1.0;"/><line style="stroke:#181818;stroke-width:1.0;" x1="458.5" x2="699.5" y1="1131.1719" y2="1131.1719"/><text fill="#000000" font-family="sans-serif" font-size="13" font-weight="bold" lengthAdjust="spacing" textLength="14" x="465.5" y="1126.3154">25</text><text fill="#000000" font-family="sans-serif" font-size="13" lengthAdjust="spacing" textLength="205" x="483.5" y="1126.3154">SendEmailAsync(to, subject, body)</text><!--SRC=[pLPjJzim4FwUNt7Z0qeaA8MLQOkWMWVbJO0GBUop6r_1Ksf7YLFMJVllkpXzITowHNlHba_9-UwvntTFx6EvLZ8V3J3rF1PfbS9MXu-4t0AMWNdp4fPg4Oc4IGrRFSs6m-n4IPsgECRK-2q-uUXeyT5khuZjOJeM4PguwJi5JT_iYClkY8cu6b8rLEDWHQeoH_56dgUA8kKIfGGZmMBnZMcXoatNJSx8pfY8i868XPxqOgNBWbd6QZHdcWrOXhGhm-aU4vK9glXamNDXSqNMoDaGZaK7batMGdClL_4AqOWnqpWL2z1Ztc2tNTL527UT_ia5xB54x6L6H7lV1VzX0kOOYm1ZBvuA1Y7EEXz2bmjjQjR99ZBo1Ty199EGJyPwgbKmnvZZJyFd2yKpWopGhHw4S8xwq-IIpt84jSW5R3skvcHIMBYxjPsOQjHYE3gXMQpB07Xp33AFuzLxiOj_IvxtECGKPOJThn4cXKHM5fb2omQ6q6gsu9PKVAPooJsK72YzeM2Lkf7Lf7V9rxDhkwLgbNnz7dT37F3BdN7ni5fKStFsofNLDAr-h1p_g-wjapu5dJmp-OJrdVXrxa5D2PowqbVtE59Zj8-CpJfOSyY4y5GgmL-VmY41D_AI2DQGgCk0MOuk8Qp9NPJCXlblnR2wvBxDF_YbxfRWAy1iTTtYYmr415FT5oESwGksjrs-NSchdg_bIWoZ5AcRVZPBHZTCYVLAoMqKsX-IrwOsTZZ_IpqiaCqvlRcBPd3RU2tCJY4ICMttKWvLEZA7JgCyc0oAB_6bT2q_v_11KCLTed3th2JUcc7tjubKi1PqZD6tKWN1gtwtMbqV4fhJi2ojkUq3iubbDX0PDXayioH1YToLepOtXxGYkJ6LERJQWImVVC58xy10ySaov-ezDvsYFCjUcTwygbpDOFYH03tlBgRX-U7c6iQOPWN__SP1yw3LUEltdtCumm7i7yB-Xx3L39k7yBdRXs8vyFppk-ln0MGgJua_5vbEnI0lRwCh4X_SvrBJdnb2yUNtRmBeTMT6wCgnI9KSeTJUrUDDwGGNT8uaz2iKpkzQkv-4DZiZSJpUUASuP3cLl2iZnMa2ePxqptRVUzTKxfmzKQ94UoTqcEfqGhDj_oS0]--></g></svg>