<?xml version="1.0" encoding="us-ascii" standalone="no"?><svg xmlns="http://www.w3.org/2000/svg" xmlns:xlink="http://www.w3.org/1999/xlink" contentStyleType="text/css" height="1754px" preserveAspectRatio="none" style="width:1401px;height:1754px;background:#FFFFFF;" version="1.1" viewBox="0 0 1401 1754" width="1401px" zoomAndPan="magnify"><defs/><g><!--cluster BackendNode--><g id="cluster_BackendNode"><rect fill="none" height="1409.5" rx="2.5" ry="2.5" style="stroke:#181818;stroke-width:1.0;" width="699" x="696" y="339"/><rect fill="none" height="10" style="stroke:#181818;stroke-width:1.0;" width="15" x="1375" y="344"/><rect fill="none" height="2" style="stroke:#181818;stroke-width:1.0;" width="4" x="1373" y="346"/><rect fill="none" height="2" style="stroke:#181818;stroke-width:1.0;" width="4" x="1373" y="350"/><text fill="#000000" font-family="sans-serif" font-size="14" font-style="italic" lengthAdjust="spacing" textLength="86" x="1002.5" y="366.5332">&#171;component&#187;</text><text fill="#000000" font-family="sans-serif" font-size="14" font-style="italic" lengthAdjust="spacing" textLength="100" x="995.5" y="384.1426">&#171;C4 Container&#187;</text><text fill="#000000" font-family="sans-serif" font-size="14" font-weight="bold" lengthAdjust="spacing" textLength="102" x="994.5" y="401.752">Backend Node</text></g><!--cluster Infrastructure--><g id="cluster_Infrastructure"><path d="M867.5,638 L1082.5,638 A3.75,3.75 0 0 1 1085,640.5 L1092,661.6094 L1234.5,661.6094 A2.5,2.5 0 0 1 1237,664.1094 L1237,768.5 A2.5,2.5 0 0 1 1234.5,771 L867.5,771 A2.5,2.5 0 0 1 865,768.5 L865,640.5 A2.5,2.5 0 0 1 867.5,638 " fill="none" style="stroke:#000000;stroke-width:1.5;"/><line style="stroke:#000000;stroke-width:1.5;" x1="865" x2="1092" y1="661.6094" y2="661.6094"/><text fill="#000000" font-family="sans-serif" font-size="14" font-weight="bold" lengthAdjust="spacing" textLength="214" x="869" y="654.5332">Frameworks and Drivers Layer</text></g><!--cluster InterfaceAdapters--><g id="cluster_InterfaceAdapters"><path d="M810.5,977.5 L983.5,977.5 A3.75,3.75 0 0 1 986,980 L993,1001.1094 L1159.5,1001.1094 A2.5,2.5 0 0 1 1162,1003.6094 L1162,1108 A2.5,2.5 0 0 1 1159.5,1110.5 L810.5,1110.5 A2.5,2.5 0 0 1 808,1108 L808,980 A2.5,2.5 0 0 1 810.5,977.5 " fill="none" style="stroke:#000000;stroke-width:1.5;"/><line style="stroke:#000000;stroke-width:1.5;" x1="808" x2="993" y1="1001.1094" y2="1001.1094"/><text fill="#000000" font-family="sans-serif" font-size="14" font-weight="bold" lengthAdjust="spacing" textLength="172" x="812" y="994.0332">Interface Adapters Layer</text></g><!--cluster ApplicationServices--><g id="cluster_ApplicationServices"><path d="M743.5,1280.5 L935.5,1280.5 A3.75,3.75 0 0 1 938,1283 L945,1304.1094 L965.5,1304.1094 A2.5,2.5 0 0 1 968,1306.6094 L968,1411 A2.5,2.5 0 0 1 965.5,1413.5 L743.5,1413.5 A2.5,2.5 0 0 1 741,1411 L741,1283 A2.5,2.5 0 0 1 743.5,1280.5 " fill="none" style="stroke:#000000;stroke-width:1.5;"/><line style="stroke:#000000;stroke-width:1.5;" x1="741" x2="945" y1="1304.1094" y2="1304.1094"/><text fill="#000000" font-family="sans-serif" font-size="14" font-weight="bold" lengthAdjust="spacing" textLength="191" x="745" y="1297.0332">Application Business Rules</text></g><!--cluster Domain--><g id="cluster_Domain"><path d="M732.5,1583.5 L920.5,1583.5 A3.75,3.75 0 0 1 923,1586 L930,1607.1094 L958.5,1607.1094 A2.5,2.5 0 0 1 961,1609.6094 L961,1714 A2.5,2.5 0 0 1 958.5,1716.5 L732.5,1716.5 A2.5,2.5 0 0 1 730,1714 L730,1586 A2.5,2.5 0 0 1 732.5,1583.5 " fill="none" style="stroke:#000000;stroke-width:1.5;"/><line style="stroke:#000000;stroke-width:1.5;" x1="730" x2="930" y1="1607.1094" y2="1607.1094"/><text fill="#000000" font-family="sans-serif" font-size="14" font-weight="bold" lengthAdjust="spacing" textLength="187" x="734" y="1600.0332">Enterprise Business Rules</text></g><!--cluster BackendNode_--><g id="cluster_BackendNode_"><rect fill="none" height="791.5" rx="2.5" ry="2.5" style="stroke:#181818;stroke-width:1.0;" width="507" x="7" y="7"/><rect fill="none" height="10" style="stroke:#181818;stroke-width:1.0;" width="15" x="494" y="12"/><rect fill="none" height="2" style="stroke:#181818;stroke-width:1.0;" width="4" x="492" y="14"/><rect fill="none" height="2" style="stroke:#181818;stroke-width:1.0;" width="4" x="492" y="18"/><text fill="#000000" font-family="sans-serif" font-size="14" font-style="italic" lengthAdjust="spacing" textLength="86" x="217.5" y="34.5332">&#171;component&#187;</text><text fill="#000000" font-family="sans-serif" font-size="14" font-style="italic" lengthAdjust="spacing" textLength="107" x="207" y="52.1426">&#171;container (C4)&#187;</text><text fill="#000000" font-family="sans-serif" font-size="14" font-weight="bold" lengthAdjust="spacing" textLength="102" x="209.5" y="69.752">Backend Node</text></g><!--cluster Infrastructure_--><g id="cluster_Infrastructure_"><path d="M189.5,94 L287.5,94 A3.75,3.75 0 0 1 290,96.5 L297,117.6094 L466.5,117.6094 A2.5,2.5 0 0 1 469,120.1094 L469,215.5 A2.5,2.5 0 0 1 466.5,218 L189.5,218 A2.5,2.5 0 0 1 187,215.5 L187,96.5 A2.5,2.5 0 0 1 189.5,94 " fill="none" style="stroke:#000000;stroke-width:1.5;"/><line style="stroke:#000000;stroke-width:1.5;" x1="187" x2="297" y1="117.6094" y2="117.6094"/><text fill="#000000" font-family="sans-serif" font-size="14" font-weight="bold" lengthAdjust="spacing" textLength="97" x="191" y="110.5332">Infrastructure</text></g><!--cluster InterfaceAdapters_--><g id="cluster_InterfaceAdapters_"><path d="M173.5,267 L304.5,267 A3.75,3.75 0 0 1 307,269.5 L314,290.6094 L479.5,290.6094 A2.5,2.5 0 0 1 482,293.1094 L482,388.5 A2.5,2.5 0 0 1 479.5,391 L173.5,391 A2.5,2.5 0 0 1 171,388.5 L171,269.5 A2.5,2.5 0 0 1 173.5,267 " fill="none" style="stroke:#000000;stroke-width:1.5;"/><line style="stroke:#000000;stroke-width:1.5;" x1="171" x2="314" y1="290.6094" y2="290.6094"/><text fill="#000000" font-family="sans-serif" font-size="14" font-weight="bold" lengthAdjust="spacing" textLength="130" x="175" y="283.5332">Interface Adapters</text></g><!--cluster ApplicationServices_--><g id="cluster_ApplicationServices_"><path d="M177.5,457 L322.5,457 A3.75,3.75 0 0 1 325,459.5 L332,480.6094 L353.5,480.6094 A2.5,2.5 0 0 1 356,483.1094 L356,578.5 A2.5,2.5 0 0 1 353.5,581 L177.5,581 A2.5,2.5 0 0 1 175,578.5 L175,459.5 A2.5,2.5 0 0 1 177.5,457 " fill="none" style="stroke:#000000;stroke-width:1.5;"/><line style="stroke:#000000;stroke-width:1.5;" x1="175" x2="332" y1="480.6094" y2="480.6094"/><text fill="#000000" font-family="sans-serif" font-size="14" font-weight="bold" lengthAdjust="spacing" textLength="144" x="179" y="473.5332">Application Services</text></g><!--cluster Domain_--><g id="cluster_Domain_"><path d="M41.5,642.5 L94.5,642.5 A3.75,3.75 0 0 1 97,645 L104,666.1094 L479.5,666.1094 A2.5,2.5 0 0 1 482,668.6094 L482,764 A2.5,2.5 0 0 1 479.5,766.5 L41.5,766.5 A2.5,2.5 0 0 1 39,764 L39,645 A2.5,2.5 0 0 1 41.5,642.5 " fill="none" style="stroke:#000000;stroke-width:1.5;"/><line style="stroke:#000000;stroke-width:1.5;" x1="39" x2="104" y1="666.1094" y2="666.1094"/><text fill="#000000" font-family="sans-serif" font-size="14" font-weight="bold" lengthAdjust="spacing" textLength="52" x="43" y="659.0332">Domain</text></g><text fill="#000000" font-family="sans-serif" font-size="14" lengthAdjust="spacing" textLength="4" x="1148" y="317.9238">&#160;</text><rect fill="#F1F1F1" height="12" style="stroke:#181818;stroke-width:1.5;" width="12" x="1144" y="333"/><text fill="#000000" font-family="sans-serif" font-size="14" lengthAdjust="spacing" textLength="4" x="1058" y="317.9238">&#160;</text><rect fill="#F1F1F1" height="12" style="stroke:#181818;stroke-width:1.5;" width="12" x="1054" y="333"/><!--entity Controller_API--><g id="elem_Controller_API"><ellipse cx="1119" cy="875.5" fill="#F1F1F1" rx="8" ry="8" style="stroke:#181818;stroke-width:0.5;"/><text fill="#000000" font-family="sans-serif" font-size="14" lengthAdjust="spacing" textLength="87" x="1075.5" y="907.0332">Controller API</text></g><!--entity DataModel_API--><g id="elem_DataModel_API"><ellipse cx="977" cy="875.5" fill="#F1F1F1" rx="8" ry="8" style="stroke:#181818;stroke-width:0.5;"/><text fill="#000000" font-family="sans-serif" font-size="14" lengthAdjust="spacing" textLength="97" x="928.5" y="907.0332">Data Model API</text></g><!--entity ApplicationServiceAPI--><g id="elem_ApplicationServiceAPI"><ellipse cx="1054" cy="1195.5" fill="#F1F1F1" rx="8" ry="8" style="stroke:#181818;stroke-width:0.5;"/><text fill="#000000" font-family="sans-serif" font-size="14" lengthAdjust="spacing" textLength="108" x="1000" y="1227.0332">App Services API</text></g><!--entity DatabaseDriverAPI--><g id="elem_DatabaseDriverAPI"><ellipse cx="814" cy="875.5" fill="#F1F1F1" rx="8" ry="8" style="stroke:#181818;stroke-width:0.5;"/><text fill="#000000" font-family="sans-serif" font-size="14" lengthAdjust="spacing" textLength="128" x="750" y="907.0332">Database Driver API</text></g><!--entity RepoAPI--><g id="elem_RepoAPI"><ellipse cx="877" cy="1195.5" fill="#F1F1F1" rx="8" ry="8" style="stroke:#181818;stroke-width:0.5;"/><text fill="#000000" font-family="sans-serif" font-size="14" lengthAdjust="spacing" textLength="59" x="847.5" y="1227.0332">Repo API</text></g><!--entity DTOAPI--><g id="elem_DTOAPI"><ellipse cx="1223" cy="1195.5" fill="#F1F1F1" rx="8" ry="8" style="stroke:#181818;stroke-width:0.5;"/><text fill="#000000" font-family="sans-serif" font-size="14" lengthAdjust="spacing" textLength="55" x="1195.5" y="1227.0332">DTO API</text></g><!--entity ModelAPI--><g id="elem_ModelAPI"><ellipse cx="855" cy="1498.5" fill="#F1F1F1" rx="8" ry="8" style="stroke:#181818;stroke-width:0.5;"/><text fill="#000000" font-family="sans-serif" font-size="14" lengthAdjust="spacing" textLength="63" x="823.5" y="1530.0332">Model API</text></g><!--entity VOAPI--><g id="elem_VOAPI"><ellipse cx="976" cy="1498.5" fill="#F1F1F1" rx="8" ry="8" style="stroke:#181818;stroke-width:0.5;"/><text fill="#000000" font-family="sans-serif" font-size="14" lengthAdjust="spacing" textLength="45" x="953.5" y="1530.0332">VO API</text></g><!--entity DatabaseDriver--><g id="elem_DatabaseDriver"><rect fill="#F1F1F1" height="65.2188" rx="2.5" ry="2.5" style="stroke:#181818;stroke-width:0.5;" width="143" x="908.5" y="682"/><rect fill="#F1F1F1" height="10" style="stroke:#181818;stroke-width:0.5;" width="15" x="1031.5" y="687"/><rect fill="#F1F1F1" height="2" style="stroke:#181818;stroke-width:0.5;" width="4" x="1029.5" y="689"/><rect fill="#F1F1F1" height="2" style="stroke:#181818;stroke-width:0.5;" width="4" x="1029.5" y="693"/><text fill="#000000" font-family="sans-serif" font-size="14" font-style="italic" lengthAdjust="spacing" textLength="86" x="932" y="716.5332">&#171;component&#187;</text><text fill="#000000" font-family="sans-serif" font-size="14" lengthAdjust="spacing" textLength="103" x="923.5" y="734.1426">Database Driver</text></g><!--entity Routing--><g id="elem_Routing"><rect fill="#F1F1F1" height="65.2188" rx="2.5" ry="2.5" style="stroke:#181818;stroke-width:0.5;" width="126" x="1087" y="682"/><rect fill="#F1F1F1" height="10" style="stroke:#181818;stroke-width:0.5;" width="15" x="1193" y="687"/><rect fill="#F1F1F1" height="2" style="stroke:#181818;stroke-width:0.5;" width="4" x="1191" y="689"/><rect fill="#F1F1F1" height="2" style="stroke:#181818;stroke-width:0.5;" width="4" x="1191" y="693"/><text fill="#000000" font-family="sans-serif" font-size="14" font-style="italic" lengthAdjust="spacing" textLength="86" x="1102" y="716.5332">&#171;component&#187;</text><text fill="#000000" font-family="sans-serif" font-size="14" lengthAdjust="spacing" textLength="49" x="1120.5" y="734.1426">Routing</text></g><!--entity DTO--><g id="elem_DTO"><rect fill="#F1F1F1" height="65.2188" rx="2.5" ry="2.5" style="stroke:#181818;stroke-width:0.5;" width="126" x="1242" y="1021.5"/><rect fill="#F1F1F1" height="10" style="stroke:#181818;stroke-width:0.5;" width="15" x="1348" y="1026.5"/><rect fill="#F1F1F1" height="2" style="stroke:#181818;stroke-width:0.5;" width="4" x="1346" y="1028.5"/><rect fill="#F1F1F1" height="2" style="stroke:#181818;stroke-width:0.5;" width="4" x="1346" y="1032.5"/><text fill="#000000" font-family="sans-serif" font-size="14" font-style="italic" lengthAdjust="spacing" textLength="86" x="1257" y="1056.0332">&#171;component&#187;</text><text fill="#000000" font-family="sans-serif" font-size="14" lengthAdjust="spacing" textLength="30" x="1285" y="1073.6426">DTO</text></g><!--entity DataModel--><g id="elem_DataModel"><rect fill="#F1F1F1" height="65.2188" rx="2.5" ry="2.5" style="stroke:#181818;stroke-width:0.5;" width="126" x="712" y="682"/><rect fill="#F1F1F1" height="10" style="stroke:#181818;stroke-width:0.5;" width="15" x="818" y="687"/><rect fill="#F1F1F1" height="2" style="stroke:#181818;stroke-width:0.5;" width="4" x="816" y="689"/><rect fill="#F1F1F1" height="2" style="stroke:#181818;stroke-width:0.5;" width="4" x="816" y="693"/><text fill="#000000" font-family="sans-serif" font-size="14" font-style="italic" lengthAdjust="spacing" textLength="86" x="727" y="716.5332">&#171;component&#187;</text><text fill="#000000" font-family="sans-serif" font-size="14" lengthAdjust="spacing" textLength="72" x="734" y="734.1426">Data Model</text></g><!--entity Controller--><g id="elem_Controller"><rect fill="#F1F1F1" height="65.2188" rx="2.5" ry="2.5" style="stroke:#181818;stroke-width:0.5;" width="126" x="1012" y="1021.5"/><rect fill="#F1F1F1" height="10" style="stroke:#181818;stroke-width:0.5;" width="15" x="1118" y="1026.5"/><rect fill="#F1F1F1" height="2" style="stroke:#181818;stroke-width:0.5;" width="4" x="1116" y="1028.5"/><rect fill="#F1F1F1" height="2" style="stroke:#181818;stroke-width:0.5;" width="4" x="1116" y="1032.5"/><text fill="#000000" font-family="sans-serif" font-size="14" font-style="italic" lengthAdjust="spacing" textLength="86" x="1027" y="1056.0332">&#171;component&#187;</text><text fill="#000000" font-family="sans-serif" font-size="14" lengthAdjust="spacing" textLength="62" x="1039" y="1073.6426">Controller</text></g><!--entity Repository--><g id="elem_Repository"><rect fill="#F1F1F1" height="65.2188" rx="2.5" ry="2.5" style="stroke:#181818;stroke-width:0.5;" width="126" x="851" y="1021.5"/><rect fill="#F1F1F1" height="10" style="stroke:#181818;stroke-width:0.5;" width="15" x="957" y="1026.5"/><rect fill="#F1F1F1" height="2" style="stroke:#181818;stroke-width:0.5;" width="4" x="955" y="1028.5"/><rect fill="#F1F1F1" height="2" style="stroke:#181818;stroke-width:0.5;" width="4" x="955" y="1032.5"/><text fill="#000000" font-family="sans-serif" font-size="14" font-style="italic" lengthAdjust="spacing" textLength="86" x="866" y="1056.0332">&#171;component&#187;</text><text fill="#000000" font-family="sans-serif" font-size="14" lengthAdjust="spacing" textLength="68" x="875" y="1073.6426">Repository</text></g><!--entity ApplicationService--><g id="elem_ApplicationService"><rect fill="#F1F1F1" height="65.2188" rx="2.5" ry="2.5" style="stroke:#181818;stroke-width:0.5;" width="160" x="784" y="1324.5"/><rect fill="#F1F1F1" height="10" style="stroke:#181818;stroke-width:0.5;" width="15" x="924" y="1329.5"/><rect fill="#F1F1F1" height="2" style="stroke:#181818;stroke-width:0.5;" width="4" x="922" y="1331.5"/><rect fill="#F1F1F1" height="2" style="stroke:#181818;stroke-width:0.5;" width="4" x="922" y="1335.5"/><text fill="#000000" font-family="sans-serif" font-size="14" font-style="italic" lengthAdjust="spacing" textLength="86" x="816" y="1359.0332">&#171;component&#187;</text><text fill="#000000" font-family="sans-serif" font-size="14" lengthAdjust="spacing" textLength="120" x="799" y="1376.6426">Application Service</text></g><!--entity DomainModelDDD--><g id="elem_DomainModelDDD"><rect fill="#F1F1F1" height="65.2188" rx="2.5" ry="2.5" style="stroke:#181818;stroke-width:0.5;" width="164" x="773" y="1627.5"/><rect fill="#F1F1F1" height="10" style="stroke:#181818;stroke-width:0.5;" width="15" x="917" y="1632.5"/><rect fill="#F1F1F1" height="2" style="stroke:#181818;stroke-width:0.5;" width="4" x="915" y="1634.5"/><rect fill="#F1F1F1" height="2" style="stroke:#181818;stroke-width:0.5;" width="4" x="915" y="1638.5"/><text fill="#000000" font-family="sans-serif" font-size="14" font-style="italic" lengthAdjust="spacing" textLength="86" x="807" y="1662.0332">&#171;component&#187;</text><text fill="#000000" font-family="sans-serif" font-size="14" lengthAdjust="spacing" textLength="124" x="788" y="1679.6426">Domain Model DDD</text></g><!--entity Persistence_--><g id="elem_Persistence_"><path d="M343.5,138 L384.5,138 A3.75,3.75 0 0 1 387,140.5 L394,159 L442.5,159 A2.5,2.5 0 0 1 445,161.5 L445,191.1094 A2.5,2.5 0 0 1 442.5,193.6094 L343.5,193.6094 A2.5,2.5 0 0 1 341,191.1094 L341,140.5 A2.5,2.5 0 0 1 343.5,138 " fill="#F1F1F1" style="stroke:#181818;stroke-width:0.5;"/><line style="stroke:#181818;stroke-width:0.5;" x1="341" x2="394" y1="159" y2="159"/><text fill="#000000" font-family="sans-serif" font-size="14" lengthAdjust="spacing" textLength="74" x="351" y="180.5332">Persistence</text></g><!--entity Routes_--><g id="elem_Routes_"><path d="M233,138 L274,138 A3.75,3.75 0 0 1 276.5,140.5 L283.5,159 L303,159 A2.5,2.5 0 0 1 305.5,161.5 L305.5,191.1094 A2.5,2.5 0 0 1 303,193.6094 L233,193.6094 A2.5,2.5 0 0 1 230.5,191.1094 L230.5,140.5 A2.5,2.5 0 0 1 233,138 " fill="#F1F1F1" style="stroke:#181818;stroke-width:0.5;"/><line style="stroke:#181818;stroke-width:0.5;" x1="230.5" x2="283.5" y1="159" y2="159"/><text fill="#000000" font-family="sans-serif" font-size="14" lengthAdjust="spacing" textLength="45" x="240.5" y="180.5332">Routes</text></g><!--entity Controllers_--><g id="elem_Controllers_"><path d="M217,311 L258,311 A3.75,3.75 0 0 1 260.5,313.5 L267.5,332 L311,332 A2.5,2.5 0 0 1 313.5,334.5 L313.5,364.1094 A2.5,2.5 0 0 1 311,366.6094 L217,366.6094 A2.5,2.5 0 0 1 214.5,364.1094 L214.5,313.5 A2.5,2.5 0 0 1 217,311 " fill="#F1F1F1" style="stroke:#181818;stroke-width:0.5;"/><line style="stroke:#181818;stroke-width:0.5;" x1="214.5" x2="267.5" y1="332" y2="332"/><text fill="#000000" font-family="sans-serif" font-size="14" lengthAdjust="spacing" textLength="69" x="224.5" y="353.5332">Controllers</text></g><!--entity Repositories_--><g id="elem_Repositories_"><path d="M351,311 L392,311 A3.75,3.75 0 0 1 394.5,313.5 L401.5,332 L455,332 A2.5,2.5 0 0 1 457.5,334.5 L457.5,364.1094 A2.5,2.5 0 0 1 455,366.6094 L351,366.6094 A2.5,2.5 0 0 1 348.5,364.1094 L348.5,313.5 A2.5,2.5 0 0 1 351,311 " fill="#F1F1F1" style="stroke:#181818;stroke-width:0.5;"/><line style="stroke:#181818;stroke-width:0.5;" x1="348.5" x2="401.5" y1="332" y2="332"/><text fill="#000000" font-family="sans-serif" font-size="14" lengthAdjust="spacing" textLength="79" x="358.5" y="353.5332">Repositories</text></g><!--entity AppServices_--><g id="elem_AppServices_"><path d="M221,501 L262,501 A3.75,3.75 0 0 1 264.5,503.5 L271.5,522 L329,522 A2.5,2.5 0 0 1 331.5,524.5 L331.5,554.1094 A2.5,2.5 0 0 1 329,556.6094 L221,556.6094 A2.5,2.5 0 0 1 218.5,554.1094 L218.5,503.5 A2.5,2.5 0 0 1 221,501 " fill="#F1F1F1" style="stroke:#181818;stroke-width:0.5;"/><line style="stroke:#181818;stroke-width:0.5;" x1="218.5" x2="271.5" y1="522" y2="522"/><text fill="#000000" font-family="sans-serif" font-size="14" lengthAdjust="spacing" textLength="83" x="228.5" y="543.5332">App Services</text></g><!--entity Aggregates_--><g id="elem_Aggregates_"><path d="M85,686.5 L126,686.5 A3.75,3.75 0 0 1 128.5,689 L135.5,707.5 L183,707.5 A2.5,2.5 0 0 1 185.5,710 L185.5,739.6094 A2.5,2.5 0 0 1 183,742.1094 L85,742.1094 A2.5,2.5 0 0 1 82.5,739.6094 L82.5,689 A2.5,2.5 0 0 1 85,686.5 " fill="#F1F1F1" style="stroke:#181818;stroke-width:0.5;"/><line style="stroke:#181818;stroke-width:0.5;" x1="82.5" x2="135.5" y1="707.5" y2="707.5"/><text fill="#000000" font-family="sans-serif" font-size="14" lengthAdjust="spacing" textLength="73" x="92.5" y="729.0332">Aggregates</text></g><!--entity ValueObjects_--><g id="elem_ValueObjects_"><path d="M223.5,686.5 L264.5,686.5 A3.75,3.75 0 0 1 267,689 L274,707.5 L336.5,707.5 A2.5,2.5 0 0 1 339,710 L339,739.6094 A2.5,2.5 0 0 1 336.5,742.1094 L223.5,742.1094 A2.5,2.5 0 0 1 221,739.6094 L221,689 A2.5,2.5 0 0 1 223.5,686.5 " fill="#F1F1F1" style="stroke:#181818;stroke-width:0.5;"/><line style="stroke:#181818;stroke-width:0.5;" x1="221" x2="274" y1="707.5" y2="707.5"/><text fill="#000000" font-family="sans-serif" font-size="14" lengthAdjust="spacing" textLength="88" x="231" y="729.0332">Value Objects</text></g><!--entity Services_--><g id="elem_Services_"><path d="M376.5,686.5 L417.5,686.5 A3.75,3.75 0 0 1 420,689 L427,707.5 L455.5,707.5 A2.5,2.5 0 0 1 458,710 L458,739.6094 A2.5,2.5 0 0 1 455.5,742.1094 L376.5,742.1094 A2.5,2.5 0 0 1 374,739.6094 L374,689 A2.5,2.5 0 0 1 376.5,686.5 " fill="#F1F1F1" style="stroke:#181818;stroke-width:0.5;"/><line style="stroke:#181818;stroke-width:0.5;" x1="374" x2="427" y1="707.5" y2="707.5"/><text fill="#000000" font-family="sans-serif" font-size="14" lengthAdjust="spacing" textLength="54" x="384" y="729.0332">Services</text></g><!--entity API--><g id="elem_API"><ellipse cx="1158" cy="166" fill="#F1F1F1" rx="8" ry="8" style="stroke:#181818;stroke-width:0.5;"/><text fill="#000000" font-family="sans-serif" font-size="14" lengthAdjust="spacing" textLength="21" x="1147.5" y="197.5332">API</text></g><!--entity DB_API--><g id="elem_DB_API"><ellipse cx="1045" cy="166" fill="#F1F1F1" rx="8" ry="8" style="stroke:#181818;stroke-width:0.5;"/><text fill="#000000" font-family="sans-serif" font-size="14" lengthAdjust="spacing" textLength="86" x="1002" y="197.5332">Database API</text></g><!--link API to P1--><g id="link_API_P1"><path d="M1157.61,175.25 C1156.21,205.27 1151.39,308.24 1150.25,332.74 " fill="none" id="API-P1" style="stroke:#181818;stroke-width:1.0;"/></g><!--reverse link DB_API to P2--><g id="link_DB_API_P2"><path d="M1046.596,185.2116 C1049.236,215.2316 1057.39,308.24 1059.54,332.74 " fill="none" id="DB_API-backto-P2" style="stroke:#181818;stroke-width:1.0;"/><path d="M1037.5649,179.0572 A9,9 0 0 0 1054.4144 177.5755" fill="none" style="stroke:#181818;stroke-width:1.5;"/></g><!--link Routing to P1--><g id="link_Routing_P1"><path d="M1150,681.93 C1150,599.56 1150,381.94 1150,345.28 " fill="none" id="Routing-P1" style="stroke:#181818;stroke-width:1.0;"/></g><!--link Routing to Controller_API--><g id="link_Routing_Controller_API"><path d="M1143.8,747.29 C1136.49,784.81 1126.7075,835.0156 1122.4875,856.6156 " fill="none" id="Routing-to-Controller_API" style="stroke:#181818;stroke-width:1.0;"/><path d="M1129.4605,865.0306 A9,9 0 0 0 1112.8599 861.7873" fill="none" style="stroke:#181818;stroke-width:1.5;"/></g><!--link Routing to DTOAPI--><g id="link_Routing_DTOAPI"><path d="M1161.03,747.15 C1169.69,773.23 1181.35,811.34 1188,845.5 C1214.17,979.99 1221.0156,1137.6763 1222.3856,1176.3063 " fill="none" id="Routing-to-DTOAPI" style="stroke:#181818;stroke-width:1.0;"/><path d="M1231.0828,1182.924 A9,9 0 0 0 1214.179 1183.5235" fill="none" style="stroke:#181818;stroke-width:1.5;"/></g><!--link DatabaseDriver to DatabaseDriverAPI--><g id="link_DatabaseDriver_DatabaseDriverAPI"><path d="M957.05,747.01 C943.01,765.31 924.11,788.27 905,806.5 C877.59,832.63 840.11,857.82 823.08,868.77 " fill="none" id="DatabaseDriver-DatabaseDriverAPI" style="stroke:#181818;stroke-width:1.0;"/></g><!--link DatabaseDriver to P2--><g id="link_DatabaseDriver_P2"><path d="M986.76,681.93 C1004.41,599.56 1051.02,381.94 1058.87,345.28 " fill="none" id="DatabaseDriver-P2" style="stroke:#181818;stroke-width:1.0;"/></g><!--link DatabaseDriver to DataModel_API--><g id="link_DatabaseDriver_DataModel_API"><path d="M979.4,747.29 C978.69,784.81 977.7498,834.8318 977.3398,856.4318 " fill="none" id="DatabaseDriver-to-DataModel_API" style="stroke:#181818;stroke-width:1.0;"/><path d="M985.6641,863.5129 A9,9 0 0 0 968.7527 863.1919" fill="none" style="stroke:#181818;stroke-width:1.5;"/></g><!--link Repository to RepoAPI--><g id="link_Repository_RepoAPI"><path d="M905.6,1086.65 C896.99,1119.13 884.16,1167.5 879.13,1186.46 " fill="none" id="Repository-RepoAPI" style="stroke:#181818;stroke-width:1.0;"/></g><!--reverse link DatabaseDriverAPI to Repository--><g id="link_DatabaseDriverAPI_Repository"><path d="M823.4867,893.2422 C836.9667,917.0522 872.3,979.4 896.01,1021.24 " fill="none" id="DatabaseDriverAPI-backto-Repository" style="stroke:#181818;stroke-width:1.0;"/><path d="M812.7169,891.3853 A9,9 0 0 0 827.4361 883.052" fill="none" style="stroke:#181818;stroke-width:1.5;"/></g><!--reverse link DataModel_API to Repository--><g id="link_DataModel_API_Repository"><path d="M970.7679,893.9579 C962.2679,917.7679 940.27,979.4 925.34,1021.24 " fill="none" id="DataModel_API-backto-Repository" style="stroke:#181818;stroke-width:1.0;"/><path d="M965.1302,884.5956 A9,9 0 0 0 981.06 890.2824" fill="none" style="stroke:#181818;stroke-width:1.5;"/></g><!--link Repository to VOAPI--><g id="link_Repository_VOAPI"><path d="M922.49,1086.68 C933.07,1127.47 950.86,1200.73 960,1264.5 C972.54,1352 975.1465,1449.4417 975.6965,1479.4117 " fill="none" id="Repository-to-VOAPI" style="stroke:#181818;stroke-width:1.0;"/><path d="M984.2793,1486.1772 A9,9 0 0 0 967.3677 1486.4875" fill="none" style="stroke:#181818;stroke-width:1.5;"/></g><!--link Repository to ModelAPI--><g id="link_Repository_ModelAPI"><path d="M884.53,1086.59 C835.3,1139.72 740.9,1243.27 733,1264.5 C707.42,1333.23 695.85,1366.27 733,1429.5 C758.3,1472.57 812.1177,1488.1924 835.9877,1493.4924 " fill="none" id="Repository-to-ModelAPI" style="stroke:#181818;stroke-width:1.0;"/><path d="M844.5782,1486.7366 A9,9 0 0 0 840.9118 1503.2489" fill="none" style="stroke:#181818;stroke-width:1.5;"/></g><!--link DataModel to DataModel_API--><g id="link_DataModel_DataModel_API"><path d="M799.37,747.36 C814.63,766 835.44,789.19 857,806.5 C894.53,836.63 947.1,861.37 967.96,870.6 " fill="none" id="DataModel-DataModel_API" style="stroke:#181818;stroke-width:1.0;"/></g><!--link Controller to ApplicationServiceAPI--><g id="link_Controller_ApplicationServiceAPI"><path d="M1070.23,1086.65 C1065.35,1119.13 1059.5465,1157.6111 1056.6965,1176.5711 " fill="none" id="Controller-to-ApplicationServiceAPI" style="stroke:#181818;stroke-width:1.0;"/><path d="M1064.0308,1184.6732 A9,9 0 0 0 1047.3043 1182.1589" fill="none" style="stroke:#181818;stroke-width:1.5;"/></g><!--link Controller_API to Controller--><g id="link_Controller_API_Controller"><path d="M1117,884.54 C1111.06,908.35 1093.35,979.4 1082.92,1021.24 " fill="none" id="Controller_API-Controller" style="stroke:#181818;stroke-width:1.0;"/></g><!--link Controller to DTOAPI--><g id="link_Controller_DTOAPI"><path d="M1099.59,1086.72 C1111.32,1100.3 1126.22,1115.52 1142,1126.5 C1149.52,1131.74 1153.35,1129.45 1161,1134.5 C1183.75,1149.53 1199.0306,1165.8761 1209.7006,1178.4861 " fill="none" id="Controller-to-DTOAPI" style="stroke:#181818;stroke-width:1.0;"/><path d="M1220.6278,1178.3073 A9,9 0 0 0 1207.7155 1189.233" fill="none" style="stroke:#181818;stroke-width:1.5;"/></g><!--link Controller to VOAPI--><g id="link_Controller_VOAPI"><path d="M1097.31,1086.63 C1110.86,1107.85 1126.87,1137.02 1134,1165.5 C1140.47,1191.37 1140.94,1199.75 1134,1225.5 C1102.89,1340.98 1015.8137,1450.2844 989.4337,1481.6744 " fill="none" id="Controller-to-VOAPI" style="stroke:#181818;stroke-width:1.0;"/><path d="M991.4549,1492.4146 A9,9 0 0 0 978.5059 1481.5324" fill="none" style="stroke:#181818;stroke-width:1.5;"/></g><!--link ApplicationServiceAPI to ApplicationService--><g id="link_ApplicationServiceAPI_ApplicationService"><path d="M1044.96,1201.25 C1025.97,1211.45 980.96,1236.78 948,1264.5 C926.55,1282.54 905.22,1305.86 889.42,1324.44 " fill="none" id="ApplicationServiceAPI-ApplicationService" style="stroke:#181818;stroke-width:1.0;"/></g><!--link ApplicationService to VOAPI--><g id="link_ApplicationService_VOAPI"><path d="M889.41,1389.65 C915.49,1422.13 948.0575,1462.7038 963.2875,1481.6638 " fill="none" id="ApplicationService-to-VOAPI" style="stroke:#181818;stroke-width:1.0;"/><path d="M974.2158,1481.7638 A9,9 0 0 0 961.0288 1492.3565" fill="none" style="stroke:#181818;stroke-width:1.5;"/></g><!--reverse link RepoAPI to ApplicationService--><g id="link_RepoAPI_ApplicationService"><path d="M875.5274,1214.5969 C873.7574,1236.3069 869.66,1286.59 866.59,1324.2 " fill="none" id="RepoAPI-backto-ApplicationService" style="stroke:#181818;stroke-width:1.0;"/><path d="M867.6606,1207.0108 A9,9 0 0 0 884.5191 1208.3852" fill="none" style="stroke:#181818;stroke-width:1.5;"/></g><!--link ApplicationService to ModelAPI--><g id="link_ApplicationService_ModelAPI"><path d="M861.96,1389.65 C859.86,1422.13 857.3821,1460.5206 856.1621,1479.4806 " fill="none" id="ApplicationService-to-ModelAPI" style="stroke:#181818;stroke-width:1.0;"/><path d="M864.1574,1486.9312 A9,9 0 0 0 847.2779 1485.8451" fill="none" style="stroke:#181818;stroke-width:1.5;"/></g><!--link DTO to DTOAPI--><g id="link_DTO_DTOAPI"><path d="M1286.39,1086.65 C1267.3,1119.13 1238.87,1167.5 1227.72,1186.46 " fill="none" id="DTO-DTOAPI" style="stroke:#181818;stroke-width:1.0;"/></g><!--link ModelAPI to DomainModelDDD--><g id="link_ModelAPI_DomainModelDDD"><path d="M855,1507.63 C855,1529.34 855,1589.59 855,1627.2 " fill="none" id="ModelAPI-DomainModelDDD" style="stroke:#181818;stroke-width:1.0;"/></g><!--link VOAPI to DomainModelDDD--><g id="link_VOAPI_DomainModelDDD"><path d="M969.83,1507.63 C953.36,1529.34 907.66,1589.59 879.13,1627.2 " fill="none" id="VOAPI-DomainModelDDD" style="stroke:#181818;stroke-width:1.0;"/></g><!--link Routes_ to Controllers_--><g id="link_Routes__Controllers_"><path d="M267.37,194.1 C266.62,226.02 265.5306,293.7616 264.7806,325.7516 " fill="none" id="Routes_-to-Controllers_" style="stroke:#181818;stroke-width:1.0;stroke-dasharray:7.0,7.0;"/><polygon fill="#181818" points="264.64,331.75,268.8498,322.8462,264.7572,326.7514,260.852,322.6587,264.64,331.75" style="stroke:#181818;stroke-width:1.0;"/></g><!--link Repositories_ to Persistence_--><g id="link_Repositories__Persistence_"><path d="M401.41,331.75 C399.54,299.76 396.8009,232.0097 394.9309,200.0897 " fill="none" id="Repositories_-to-Persistence_" style="stroke:#181818;stroke-width:1.0;stroke-dasharray:7.0,7.0;"/><polygon fill="#181818" points="394.58,194.1,391.1132,203.3185,394.8724,199.0914,399.0995,202.8507,394.58,194.1" style="stroke:#181818;stroke-width:1.0;"/></g><!--link Controllers_ to AppServices_--><g id="link_Controllers__AppServices_"><path d="M265.6,367.34 C267.69,403.08 270.9786,480.3303 273.0686,515.9503 " fill="none" id="Controllers_-to-AppServices_" style="stroke:#181818;stroke-width:1.0;stroke-dasharray:7.0,7.0;"/><polygon fill="#181818" points="273.42,521.94,276.886,512.7212,273.1271,516.9486,268.8997,513.1897,273.42,521.94" style="stroke:#181818;stroke-width:1.0;"/></g><!--link Repositories_ to AppServices_--><g id="link_Repositories__AppServices_"><path d="M384.39,367.34 C360.05,403.08 321.0456,481.3596 296.8056,516.9796 " fill="none" id="Repositories_-to-AppServices_" style="stroke:#181818;stroke-width:1.0;stroke-dasharray:7.0,7.0;"/><polygon fill="#181818" points="293.43,521.94,301.8003,516.7499,296.243,517.8064,295.1865,512.249,293.43,521.94" style="stroke:#181818;stroke-width:1.0;"/></g><!--link AppServices_ to Aggregates_--><g id="link_AppServices__Aggregates_"><path d="M250.6,557.03 C236.31,573.21 218.14,594.39 203,614 C184.63,637.79 168.5748,682.0554 155.0548,702.3654 " fill="none" id="AppServices_-to-Aggregates_" style="stroke:#181818;stroke-width:1.0;stroke-dasharray:7.0,7.0;"/><polygon fill="#181818" points="151.73,707.36,160.0469,702.0847,154.5007,703.1979,153.3875,697.6516,151.73,707.36" style="stroke:#181818;stroke-width:1.0;"/></g><!--link AppServices_ to ValueObjects_--><g id="link_AppServices__ValueObjects_"><path d="M275.74,557.08 C276.68,591.77 278.146,666.5722 279.096,701.3122 " fill="none" id="AppServices_-to-ValueObjects_" style="stroke:#181818;stroke-width:1.0;stroke-dasharray:7.0,7.0;"/><polygon fill="#181818" points="279.26,707.31,283.0125,698.204,279.1233,702.3119,275.0155,698.4227,279.26,707.31" style="stroke:#181818;stroke-width:1.0;"/></g><!--link AppServices_ to Services_--><g id="link_AppServices__Services_"><path d="M304.42,557.32 C320.59,573.09 340.45,593.76 356,614 C373.69,637.04 387.5885,660.3772 398.8785,680.9972 " fill="none" id="AppServices_-to-Services_" style="stroke:#181818;stroke-width:1.0;stroke-dasharray:7.0,7.0;"/><polygon fill="#181818" points="401.76,686.26,400.9463,676.4448,399.3587,681.8743,393.9292,680.2868,401.76,686.26" style="stroke:#181818;stroke-width:1.0;"/></g><!--link Infrastructure_ to InterfaceAdapters_--><g id="link_Infrastructure__InterfaceAdapters_"><path d="M190.1862,218.4406 C190.074,219.6392 189.9609,220.8484 189.8468,222.0671 C188.9345,231.8169 187.9653,242.1737 186.9963,252.53 C186.754,255.1191 186.5117,257.7081 186.2704,260.2876 C186.1497,261.5773 186.0292,262.8647 185.9091,264.1485 C185.849,264.7904 185.789,265.4314 185.7292,266.0713 C185.7142,266.2313 186.2582,260.4173 186.2433,260.5772 " fill="none" id="Infrastructure_-to-InterfaceAdapters_" style="stroke:#181818;stroke-width:1.0;stroke-dasharray:7.0,7.0;"/><polygon fill="#181818" points="185.6843,266.5511,190.5053,257.9629,186.1501,261.5728,182.5401,257.2176,185.6843,266.5511" style="stroke:#181818;stroke-width:1.0;"/></g><!--link InterfaceAdapters_ to ApplicationServices_--><g id="link_InterfaceAdapters__ApplicationServices_"><path d="M180.0978,391.6738 C180.1046,391.9954 180.1115,392.3178 180.1184,392.641 C180.1735,395.2268 180.2296,397.8647 180.2867,400.5444 C180.515,411.2631 180.7575,422.6494 181,434.035 C181.1213,439.7278 181.2425,445.4205 181.362,451.0294 C181.3918,452.4317 181.4216,453.8287 181.4512,455.2192 C181.4586,455.5668 181.466,455.914 181.4734,456.2608 C181.4771,456.4342 181.353,450.6088 181.3567,450.782 " fill="none" id="InterfaceAdapters_-to-ApplicationServices_" style="stroke:#181818;stroke-width:1.0;stroke-dasharray:7.0,7.0;"/><polygon fill="#181818" points="181.4845,456.7807,185.2919,447.6975,181.378,451.7818,177.2937,447.8679,181.4845,456.7807" style="stroke:#181818;stroke-width:1.0;"/></g><!--link ApplicationServices_ to Domain_--><g id="link_ApplicationServices__Domain_"><path d="M174.7545,533.2938 C174.5473,533.381 174.3367,533.4699 174.1228,533.5606 C172.4116,534.2856 170.4869,535.1196 168.3792,536.0614 C159.9484,539.8284 148.5894,545.3181 136.2488,552.4388 C111.5675,566.68 82.96,587.445 66,614 C63.0175,618.6688 60.4812,623.695 58.3266,628.9201 C57.2493,631.5326 56.2674,634.1949 55.3727,636.887 C54.9254,638.2331 54.5,639.5867 54.0953,640.9452 C53.9942,641.2848 53.8943,641.6248 53.7957,641.965 C53.7464,642.1351 55.346,636.5362 55.2974,636.7064 " fill="none" id="ApplicationServices_-to-Domain_" style="stroke:#181818;stroke-width:1.0;stroke-dasharray:7.0,7.0;"/><polygon fill="#181818" points="53.6488,642.4755,59.9677,634.9209,55.0226,637.6679,52.2756,632.7229,53.6488,642.4755" style="stroke:#181818;stroke-width:1.0;"/></g><!--link Infrastructure_ to Infrastructure--><g id="link_Infrastructure__Infrastructure"><path d="M202.1474,218.2474 C202.1969,218.3536 202.2468,218.4596 202.2969,218.5654 C202.6983,219.4121 203.1197,220.2476 203.5621,221.07 C204.4469,222.7149 205.4158,224.3071 206.4763,225.8299 C208.5973,228.8756 211.085,231.6438 214,234 C259.03,270.4 421.26,227.11 474,251 C567.9,293.53 568.16,339.19 638,415 C713.42,496.87 701.86,553.48 800,606 C813.61,613.28 858.5,602.68 869,614 C872.7038,617.9925 875.5566,622.5089 877.7118,627.3598 C878.7894,629.7853 879.6926,632.2944 880.4406,634.8635 C880.6276,635.5057 880.8049,636.1518 880.9727,636.8011 C881.0567,637.1258 879.7218,631.621 879.8011,631.9473 " fill="none" id="Infrastructure_-to-Infrastructure" style="stroke:#181818;stroke-width:1.0;stroke-dasharray:7.0,7.0;"/><polygon fill="#181818" points="881.2176,637.7777,882.9798,628.0878,880.0372,632.919,875.206,629.9764,881.2176,637.7777" style="stroke:#181818;stroke-width:1.0;"/><text fill="#000000" font-family="sans-serif" font-size="13" lengthAdjust="spacing" textLength="63" x="653" y="429.4951">&#171;manifest&#187;</text></g><!--link InterfaceAdapters_ to InterfaceAdapters--><g id="link_InterfaceAdapters__InterfaceAdapters"><path d="M187.0791,391.1631 C187.1281,391.2706 187.1773,391.378 187.2269,391.4853 C187.326,391.6998 187.4262,391.9138 187.5276,392.1271 C187.7304,392.5538 187.9378,392.978 188.1499,393.3996 C188.9984,395.0858 189.9223,396.7293 190.9283,398.3144 C192.9402,401.4845 195.28,404.4213 198,407 C247.61,454.03 282.13,422.73 348,441 C467.04,474.03 612,404.46 612,528 C612,528 612,528 612,876.5 C612,935.51 661.4175,979.19 711.6075,1008.335 C736.7025,1022.9075 761.9906,1033.8463 781.3913,1041.2506 C791.0916,1044.9528 799.32,1047.7714 805.3165,1049.7188 C806.066,1049.9623 806.7807,1050.1921 807.4591,1050.4083 C807.6286,1050.4624 802.0769,1048.7009 802.242,1048.7533 " fill="none" id="InterfaceAdapters_-to-InterfaceAdapters" style="stroke:#181818;stroke-width:1.0;stroke-dasharray:7.0,7.0;"/><polygon fill="#181818" points="807.961,1050.5679,800.5922,1044.0333,803.1951,1049.0557,798.1727,1051.6586,807.961,1050.5679" style="stroke:#181818;stroke-width:1.0;"/><text fill="#000000" font-family="sans-serif" font-size="13" lengthAdjust="spacing" textLength="63" x="613" y="719.9951">&#171;manifest&#187;</text></g><!--link ApplicationServices_ to ApplicationServices--><g id="link_ApplicationServices__ApplicationServices"><path d="M190.1393,581.2607 C190.1889,581.3668 190.2387,581.4728 190.2889,581.5786 C190.6904,582.4248 191.112,583.26 191.5546,584.082 C192.4399,585.726 193.4093,587.3173 194.4705,588.839 C196.593,591.8823 199.0825,594.6475 202,597 C249.15,635.01 423.47,580.62 474,614 C515.3,641.28 524,664.01 524,713.5 C524,713.5 524,713.5 524,1196.5 C524,1256.83 578.505,1296.4125 633.8625,1321.055 C661.5413,1333.3762 689.4331,1341.9625 710.8316,1347.5397 C721.5308,1350.3283 730.6066,1352.3646 737.2208,1353.7394 C738.0476,1353.9113 738.8359,1354.0728 739.5841,1354.2241 C739.9582,1354.2998 734.4383,1353.1986 734.7922,1353.2693 " fill="none" id="ApplicationServices_-to-ApplicationServices" style="stroke:#181818;stroke-width:1.0;stroke-dasharray:7.0,7.0;"/><polygon fill="#181818" points="740.6761,1354.4436,732.6331,1348.7595,735.7728,1353.465,731.0673,1356.6048,740.6761,1354.4436" style="stroke:#181818;stroke-width:1.0;"/><text fill="#000000" font-family="sans-serif" font-size="13" lengthAdjust="spacing" textLength="63" x="525" y="949.9951">&#171;manifest&#187;</text></g><!--link Domain_ to Domain--><g id="link_Domain__Domain"><path d="M49.0029,766.7155 C49.0329,766.8708 49.0632,767.026 49.0937,767.1813 C49.1548,767.492 49.217,767.8027 49.2805,768.1136 C49.5341,769.3572 49.8064,770.6027 50.0985,771.8476 C50.6828,774.3374 51.3464,776.8247 52.0989,779.2895 C55.1087,789.1488 59.54,798.6475 66,806.5 C115.35,866.48 227,796.82 227,874.5 C227,874.5 227,874.5 227,1499.5 C227,1558.515 352.7625,1598.23 479.5075,1623.27 C542.88,1635.79 606.4981,1644.6413 654.7644,1650.4019 C678.8975,1653.2822 699.1927,1655.3898 713.7002,1656.7971 C717.327,1657.1489 720.5922,1657.457 723.4651,1657.7224 C724.9016,1657.8551 726.24,1657.9771 727.4766,1658.0886 C728.0949,1658.1444 722.7114,1657.6649 723.2783,1657.7155 " fill="none" id="Domain_-to-Domain" style="stroke:#181818;stroke-width:1.0;stroke-dasharray:7.0,7.0;"/><polygon fill="#181818" points="729.2546,1658.248,720.6452,1653.465,724.2743,1657.8042,719.9351,1661.4334,729.2546,1658.248" style="stroke:#181818;stroke-width:1.0;"/><text fill="#000000" font-family="sans-serif" font-size="13" lengthAdjust="spacing" textLength="63" x="228" y="1200.9951">&#171;manifest&#187;</text></g><!--SRC=[ZLPDRzim3BtxLn0vPOSKMD7JK1H8wmqei2r1M_GQA8uIQ7KiGv8x54F_-oZhm_foqLChyf5wf1xfADw3uh3dIl4p79YWZMAygwgATOgA8saeBDRR-mKG2VWtDDT4aJsH59o_ljrfIDNmSyyxsYbOt9BcXNO7-CqFTCHOWpx3zRL7tjpWwUuAxdYd2EkeGCE_2g3dGh4E5Z06Rx_cfiiARVSJAvr1yBQbmlEQJ2E_2AwBW5_8fftAGDDeCTK077bxm7IB7uASwLykNYGGhAaMx9KA2J_96nLZv7rt54GgCJHg45Jp1mYQuHjc8lrbscPCIKjCXlSqpmCVi0EdCTx-FnluhWi8EJnjpBrFcq9CXlRTYJip5neqTjtty4Z5AskeDArTFm8QMzOGBJ7hApv8q2GV6ZSg2tkWFVTOVSWJOyK-sTCcymSYGCHuoZ3FKuhdJQAE2RO-a5wboh1Evyl4COaqqUmdDO4bIwQuU3EoyCUFbU781my3juF42PIOP6YfD9EVlPk4h88mXqND17-EqtVTirumr4A1KitFk2Xo5jPkNhEkwm0ysj3qmVL809yLLYkzQxQNi1fMIx_NtAojZ7iwBjCL4xgirgfaqZ57BkaSW_ijCoxZ5GN8R7fkZ77o3ws3ZOhkWo8aI1pbNLhDHqQqkb41KwFfl2ql91b8MeULTq486bPfNvCKjhM9rKvcGNOwO_dQ4jYdAcTQkZx3N7JO65m-kYLE2x4UDQy9N73QaZxxPTrbdzR6VLTXUNVrnOhU3bhyrSg_Opix8HQ-nUt5fA9TCsA3uow4wH70BM4_KLJkql7EzsLvKoRNJuyjupqfu-kTI9ab4Pnt7sq_jz_czbv29_hEkHYFJIyoJnkif2pRwIJeYIYNon-ZuXRFf1qeRFP_yEUQGOuMQuYn4RcOsRlPQRgeYukRk9THmqPtzD8XTlH6PUV1aJiy66zGP-QCIylSKzegrQrsvtgg2XAp5BF7heeAq6ZxVgLBpRNHK7t36JoJZXsfn84iCoYoJIDd-CpmJwETw4o0_LGccFy0]--></g></svg>