<?xml version="1.0" encoding="us-ascii" standalone="no"?><svg xmlns="http://www.w3.org/2000/svg" xmlns:xlink="http://www.w3.org/1999/xlink" contentStyleType="text/css" height="385px" preserveAspectRatio="none" style="width:1264px;height:385px;background:#FFFFFF;" version="1.1" viewBox="0 0 1264 385" width="1264px" zoomAndPan="magnify"><defs/><g><rect fill="#FFFFFF" height="183.1094" style="stroke:#181818;stroke-width:1.0;" width="10" x="24" y="96.2188"/><rect fill="#FFFFFF" height="151.7578" style="stroke:#181818;stroke-width:1.0;" width="10" x="250" y="118.5703"/><rect fill="#FFFFFF" height="91.0547" style="stroke:#181818;stroke-width:1.0;" width="10" x="706" y="148.9219"/><rect fill="#FFFFFF" height="30.3516" style="stroke:#181818;stroke-width:1.0;" width="10" x="1162" y="179.2734"/><line style="stroke:#181818;stroke-width:0.5;stroke-dasharray:5.0,5.0;" x1="29" x2="29" y1="86.2188" y2="288.3281"/><line style="stroke:#181818;stroke-width:0.5;stroke-dasharray:5.0,5.0;" x1="254.5" x2="254.5" y1="86.2188" y2="288.3281"/><line style="stroke:#181818;stroke-width:0.5;stroke-dasharray:5.0,5.0;" x1="710.5" x2="710.5" y1="86.2188" y2="288.3281"/><line style="stroke:#181818;stroke-width:0.5;stroke-dasharray:5.0,5.0;" x1="1166.5" x2="1166.5" y1="86.2188" y2="288.3281"/><text fill="#000000" font-family="sans-serif" font-size="14" lengthAdjust="spacing" textLength="42" x="5" y="83.1426">Doctor</text><ellipse cx="29" cy="17.1094" fill="#E2E2F0" rx="8" ry="8" style="stroke:#181818;stroke-width:0.5;"/><path d="M29,25.1094 L29,52.1094 M16,33.1094 L42,33.1094 M29,52.1094 L16,67.1094 M29,52.1094 L42,67.1094 " fill="none" style="stroke:#181818;stroke-width:0.5;"/><text fill="#000000" font-family="sans-serif" font-size="14" lengthAdjust="spacing" textLength="42" x="5" y="301.8613">Doctor</text><ellipse cx="29" cy="313.4375" fill="#E2E2F0" rx="8" ry="8" style="stroke:#181818;stroke-width:0.5;"/><path d="M29,321.4375 L29,348.4375 M16,329.4375 L42,329.4375 M29,348.4375 L16,363.4375 M29,348.4375 L42,363.4375 " fill="none" style="stroke:#181818;stroke-width:0.5;"/><rect fill="#E2E2F0" height="49.2188" rx="2.5" ry="2.5" style="stroke:#181818;stroke-width:0.5;" width="199" x="155.5" y="36"/><text fill="#000000" font-family="sans-serif" font-size="14" font-style="italic" lengthAdjust="spacing" textLength="78" x="216" y="57.5332">&#171;Controller&#187;</text><text fill="#000000" font-family="sans-serif" font-size="14" lengthAdjust="spacing" textLength="185" x="162.5" y="75.1426">OperationRequestsController</text><rect fill="#E2E2F0" height="49.2188" rx="2.5" ry="2.5" style="stroke:#181818;stroke-width:0.5;" width="199" x="155.5" y="287.3281"/><text fill="#000000" font-family="sans-serif" font-size="14" font-style="italic" lengthAdjust="spacing" textLength="78" x="216" y="308.8613">&#171;Controller&#187;</text><text fill="#000000" font-family="sans-serif" font-size="14" lengthAdjust="spacing" textLength="185" x="162.5" y="326.4707">OperationRequestsController</text><rect fill="#E2E2F0" height="49.2188" rx="2.5" ry="2.5" style="stroke:#181818;stroke-width:0.5;" width="177" x="622.5" y="36"/><text fill="#000000" font-family="sans-serif" font-size="14" font-style="italic" lengthAdjust="spacing" textLength="62" x="680" y="57.5332">&#171;Service&#187;</text><text fill="#000000" font-family="sans-serif" font-size="14" lengthAdjust="spacing" textLength="163" x="629.5" y="75.1426">OperationRequestService</text><rect fill="#E2E2F0" height="49.2188" rx="2.5" ry="2.5" style="stroke:#181818;stroke-width:0.5;" width="177" x="622.5" y="287.3281"/><text fill="#000000" font-family="sans-serif" font-size="14" font-style="italic" lengthAdjust="spacing" textLength="62" x="680" y="308.8613">&#171;Service&#187;</text><text fill="#000000" font-family="sans-serif" font-size="14" lengthAdjust="spacing" textLength="163" x="629.5" y="326.4707">OperationRequestService</text><text fill="#000000" font-family="sans-serif" font-size="14" font-style="italic" lengthAdjust="spacing" textLength="64" x="1132" y="65.5332">&#171;Domain&#187;</text><text fill="#000000" font-family="sans-serif" font-size="14" lengthAdjust="spacing" textLength="187" x="1070.5" y="83.1426">IOperationRequestRepository</text><path d="M1149,15 C1149,5 1167,5 1167,5 C1167,5 1185,5 1185,15 L1185,41 C1185,51 1167,51 1167,51 C1167,51 1149,51 1149,41 L1149,15 " fill="#E2E2F0" style="stroke:#181818;stroke-width:1.5;"/><path d="M1149,15 C1149,25 1167,25 1167,25 C1167,25 1185,25 1185,15 " fill="none" style="stroke:#181818;stroke-width:1.5;"/><text fill="#000000" font-family="sans-serif" font-size="14" font-style="italic" lengthAdjust="spacing" textLength="64" x="1132" y="301.8613">&#171;Domain&#187;</text><text fill="#000000" font-family="sans-serif" font-size="14" lengthAdjust="spacing" textLength="187" x="1070.5" y="319.4707">IOperationRequestRepository</text><path d="M1149,332.5469 C1149,322.5469 1167,322.5469 1167,322.5469 C1167,322.5469 1185,322.5469 1185,332.5469 L1185,358.5469 C1185,368.5469 1167,368.5469 1167,368.5469 C1167,368.5469 1149,368.5469 1149,358.5469 L1149,332.5469 " fill="#E2E2F0" style="stroke:#181818;stroke-width:1.5;"/><path d="M1149,332.5469 C1149,342.5469 1167,342.5469 1167,342.5469 C1167,342.5469 1185,342.5469 1185,332.5469 " fill="none" style="stroke:#181818;stroke-width:1.5;"/><rect fill="#FFFFFF" height="183.1094" style="stroke:#181818;stroke-width:1.0;" width="10" x="24" y="96.2188"/><rect fill="#FFFFFF" height="151.7578" style="stroke:#181818;stroke-width:1.0;" width="10" x="250" y="118.5703"/><rect fill="#FFFFFF" height="91.0547" style="stroke:#181818;stroke-width:1.0;" width="10" x="706" y="148.9219"/><rect fill="#FFFFFF" height="30.3516" style="stroke:#181818;stroke-width:1.0;" width="10" x="1162" y="179.2734"/><polygon fill="#181818" points="238,114.5703,248,118.5703,238,122.5703,242,118.5703" style="stroke:#181818;stroke-width:1.0;"/><line style="stroke:#181818;stroke-width:1.0;" x1="34" x2="244" y1="118.5703" y2="118.5703"/><text fill="#000000" font-family="sans-serif" font-size="13" font-weight="bold" lengthAdjust="spacing" textLength="7" x="41" y="113.7139">1</text><text fill="#000000" font-family="sans-serif" font-size="13" lengthAdjust="spacing" textLength="186" x="52" y="113.7139">GET /api/operationrequests/filter</text><polygon fill="#181818" points="694,144.9219,704,148.9219,694,152.9219,698,148.9219" style="stroke:#181818;stroke-width:1.0;"/><line style="stroke:#181818;stroke-width:1.0;" x1="260" x2="700" y1="148.9219" y2="148.9219"/><text fill="#000000" font-family="sans-serif" font-size="13" font-weight="bold" lengthAdjust="spacing" textLength="7" x="267" y="144.0654">2</text><text fill="#000000" font-family="sans-serif" font-size="13" lengthAdjust="spacing" textLength="416" x="278" y="144.0654">GetOperationRequestsAsync(patientId, operationTypeId, priority, status)</text><polygon fill="#181818" points="1150,175.2734,1160,179.2734,1150,183.2734,1154,179.2734" style="stroke:#181818;stroke-width:1.0;"/><line style="stroke:#181818;stroke-width:1.0;" x1="716" x2="1156" y1="179.2734" y2="179.2734"/><text fill="#000000" font-family="sans-serif" font-size="13" font-weight="bold" lengthAdjust="spacing" textLength="7" x="723" y="174.417">3</text><text fill="#000000" font-family="sans-serif" font-size="13" lengthAdjust="spacing" textLength="416" x="734" y="174.417">GetOperationRequestsAsync(patientId, operationTypeId, priority, status)</text><polygon fill="#181818" points="727,205.625,717,209.625,727,213.625,723,209.625" style="stroke:#181818;stroke-width:1.0;"/><line style="stroke:#181818;stroke-width:1.0;stroke-dasharray:2.0,2.0;" x1="721" x2="1166" y1="209.625" y2="209.625"/><text fill="#000000" font-family="sans-serif" font-size="13" font-weight="bold" lengthAdjust="spacing" textLength="7" x="733" y="204.7686">4</text><text fill="#000000" font-family="sans-serif" font-size="13" lengthAdjust="spacing" textLength="108" x="744" y="204.7686">operationRequests</text><polygon fill="#181818" points="271,235.9766,261,239.9766,271,243.9766,267,239.9766" style="stroke:#181818;stroke-width:1.0;"/><line style="stroke:#181818;stroke-width:1.0;stroke-dasharray:2.0,2.0;" x1="265" x2="710" y1="239.9766" y2="239.9766"/><text fill="#000000" font-family="sans-serif" font-size="13" font-weight="bold" lengthAdjust="spacing" textLength="7" x="277" y="235.1201">5</text><text fill="#000000" font-family="sans-serif" font-size="13" lengthAdjust="spacing" textLength="128" x="288" y="235.1201">operationRequestsDto</text><polygon fill="#181818" points="45,266.3281,35,270.3281,45,274.3281,41,270.3281" style="stroke:#181818;stroke-width:1.0;"/><line style="stroke:#181818;stroke-width:1.0;stroke-dasharray:2.0,2.0;" x1="39" x2="254" y1="270.3281" y2="270.3281"/><text fill="#000000" font-family="sans-serif" font-size="13" font-weight="bold" lengthAdjust="spacing" textLength="7" x="51" y="265.4717">6</text><text fill="#000000" font-family="sans-serif" font-size="13" lengthAdjust="spacing" textLength="44" x="62" y="265.4717">200 OK</text><!--SRC=[hLBDQiCm3BxdAKHE6pIax5XAO2obb1qANLz0JJKmfBPdAuMy_UmciKlIvZ2cYsqvtvzYR5Z9vd8YaoHOiJAGbiglAQ25RfjeD2mgeL4of7jD1baeUQ2VXYpR3oNPgBgc3XEFi5x7Gr7CqtoHkOgARXJztk7xdGEVaV64bY3TZQ47qieAPxIzePzVEy9INL18n-VJYYio3I6x9IkYvHLiDqV8KOjS3Poc3vr_YvhTqC1LO8hGMzzNR6L57sQr9PuCyTssidhHhaUIT-S51CLZgyatj17A26uNO1cviQz18-Zt0k5Yg66UMG5pqt5v_ydPn46m-5n-2l8rOpVpSOPegsXhC3ubFDEVV8JnUS6xv_r0isILF50R_vZkhQspxEwnlIsNiFzCHiZumIy0]--></g></svg>