<?xml version="1.0" encoding="us-ascii" standalone="no"?><svg xmlns="http://www.w3.org/2000/svg" xmlns:xlink="http://www.w3.org/1999/xlink" contentStyleType="text/css" height="819px" preserveAspectRatio="none" style="width:1581px;height:819px;background:#FFFFFF;" version="1.1" viewBox="0 0 1581 819" width="1581px" zoomAndPan="magnify"><defs/><g><rect fill="#ADD8E6" height="800.8203" style="stroke:#181818;stroke-width:0.5;" width="715" x="155" y="6"/><text fill="#000000" font-family="sans-serif" font-size="13" font-weight="bold" lengthAdjust="spacing" textLength="85" x="470" y="19.4951">&#171;system (C4)&#187;</text><text fill="#000000" font-family="sans-serif" font-size="13" font-weight="bold" lengthAdjust="spacing" textLength="57" x="484" y="35.8467">Frontend</text><rect fill="#DDDDDD" height="800.8203" style="stroke:#181818;stroke-width:0.5;" width="696" x="879" y="6"/><text fill="#000000" font-family="sans-serif" font-size="13" font-weight="bold" lengthAdjust="spacing" textLength="85" x="1184.5" y="19.4951">&#171;system (C4)&#187;</text><text fill="#000000" font-family="sans-serif" font-size="13" font-weight="bold" lengthAdjust="spacing" textLength="92" x="1181" y="35.8467">Backend Node</text><rect fill="#FFFFFF" height="570.6797" style="stroke:#181818;stroke-width:1.0;" width="10" x="24" y="133.9219"/><rect fill="#FFFFFF" height="548.3281" style="stroke:#181818;stroke-width:1.0;" width="10" x="220" y="156.2734"/><rect fill="#FFFFFF" height="487.625" style="stroke:#181818;stroke-width:1.0;" width="10" x="369" y="186.625"/><rect fill="#FFFFFF" height="426.9219" style="stroke:#181818;stroke-width:1.0;" width="10" x="653" y="216.9766"/><rect fill="#FFFFFF" height="366.2188" style="stroke:#181818;stroke-width:1.0;" width="10" x="795" y="247.3281"/><rect fill="#FFFFFF" height="305.5156" style="stroke:#181818;stroke-width:1.0;" width="10" x="928" y="277.6797"/><rect fill="#FFFFFF" height="244.8125" style="stroke:#181818;stroke-width:1.0;" width="10" x="1113" y="308.0313"/><rect fill="#FFFFFF" height="184.1094" style="stroke:#181818;stroke-width:1.0;" width="10" x="1239" y="338.3828"/><rect fill="#FFFFFF" height="30.3516" style="stroke:#181818;stroke-width:1.0;" width="10" x="1431" y="454.7891"/><rect fill="#FFFFFF" height="30.3516" style="stroke:#181818;stroke-width:1.0;" width="10" x="1524.5" y="368.7344"/><rect fill="none" height="79.0547" style="stroke:#000000;stroke-width:1.5;" width="306" x="1182" y="414.0859"/><line style="stroke:#181818;stroke-width:0.5;stroke-dasharray:5.0,5.0;" x1="29" x2="29" y1="123.9219" y2="722.6016"/><line style="stroke:#181818;stroke-width:0.5;stroke-dasharray:5.0,5.0;" x1="225" x2="225" y1="123.9219" y2="722.6016"/><line style="stroke:#181818;stroke-width:0.5;stroke-dasharray:5.0,5.0;" x1="374" x2="374" y1="123.9219" y2="722.6016"/><line style="stroke:#181818;stroke-width:0.5;stroke-dasharray:5.0,5.0;" x1="516" x2="516" y1="123.9219" y2="722.6016"/><line style="stroke:#181818;stroke-width:0.5;stroke-dasharray:5.0,5.0;" x1="658" x2="658" y1="123.9219" y2="722.6016"/><line style="stroke:#181818;stroke-width:0.5;stroke-dasharray:5.0,5.0;" x1="800" x2="800" y1="123.9219" y2="722.6016"/><line style="stroke:#181818;stroke-width:0.5;stroke-dasharray:5.0,5.0;" x1="933" x2="933" y1="123.9219" y2="722.6016"/><line style="stroke:#181818;stroke-width:0.5;stroke-dasharray:5.0,5.0;" x1="1117.5" x2="1117.5" y1="123.9219" y2="722.6016"/><line style="stroke:#181818;stroke-width:0.5;stroke-dasharray:5.0,5.0;" x1="1244" x2="1244" y1="123.9219" y2="722.6016"/><line style="stroke:#181818;stroke-width:0.5;stroke-dasharray:5.0,5.0;" x1="1345" x2="1345" y1="123.9219" y2="722.6016"/><line style="stroke:#181818;stroke-width:0.5;stroke-dasharray:5.0,5.0;" x1="1436" x2="1436" y1="123.9219" y2="722.6016"/><line style="stroke:#181818;stroke-width:0.5;stroke-dasharray:5.0,5.0;" x1="1529" x2="1529" y1="123.9219" y2="722.6016"/><text fill="#000000" font-family="sans-serif" font-size="14" lengthAdjust="spacing" textLength="42" x="5" y="120.8457">Doctor</text><ellipse cx="29" cy="54.8125" fill="#E2E2F0" rx="8" ry="8" style="stroke:#181818;stroke-width:0.5;"/><path d="M29,62.8125 L29,89.8125 M16,70.8125 L42,70.8125 M29,89.8125 L16,104.8125 M29,89.8125 L42,104.8125 " fill="none" style="stroke:#181818;stroke-width:0.5;"/><text fill="#000000" font-family="sans-serif" font-size="14" lengthAdjust="spacing" textLength="42" x="5" y="736.1348">Doctor</text><ellipse cx="29" cy="747.7109" fill="#E2E2F0" rx="8" ry="8" style="stroke:#181818;stroke-width:0.5;"/><path d="M29,755.7109 L29,782.7109 M16,763.7109 L42,763.7109 M29,782.7109 L16,797.7109 M29,782.7109 L42,797.7109 " fill="none" style="stroke:#181818;stroke-width:0.5;"/><rect fill="#E2E2F0" height="49.2188" rx="2.5" ry="2.5" style="stroke:#181818;stroke-width:0.5;" width="132" x="159" y="73.7031"/><text fill="#000000" font-family="sans-serif" font-size="14" font-style="italic" lengthAdjust="spacing" textLength="118" x="166" y="95.2363">&#171;component (C4)&#187;</text><text fill="#000000" font-family="sans-serif" font-size="14" lengthAdjust="spacing" textLength="89" x="180.5" y="112.8457">UI Component</text><rect fill="#E2E2F0" height="49.2188" rx="2.5" ry="2.5" style="stroke:#181818;stroke-width:0.5;" width="132" x="159" y="721.6016"/><text fill="#000000" font-family="sans-serif" font-size="14" font-style="italic" lengthAdjust="spacing" textLength="118" x="166" y="743.1348">&#171;component (C4)&#187;</text><text fill="#000000" font-family="sans-serif" font-size="14" lengthAdjust="spacing" textLength="89" x="180.5" y="760.7441">UI Component</text><rect fill="#E2E2F0" height="49.2188" rx="2.5" ry="2.5" style="stroke:#181818;stroke-width:0.5;" width="132" x="308" y="73.7031"/><text fill="#000000" font-family="sans-serif" font-size="14" font-style="italic" lengthAdjust="spacing" textLength="118" x="315" y="95.2363">&#171;component (C4)&#187;</text><text fill="#000000" font-family="sans-serif" font-size="14" lengthAdjust="spacing" textLength="73" x="337.5" y="112.8457">Component</text><rect fill="#E2E2F0" height="49.2188" rx="2.5" ry="2.5" style="stroke:#181818;stroke-width:0.5;" width="132" x="308" y="721.6016"/><text fill="#000000" font-family="sans-serif" font-size="14" font-style="italic" lengthAdjust="spacing" textLength="118" x="315" y="743.1348">&#171;component (C4)&#187;</text><text fill="#000000" font-family="sans-serif" font-size="14" lengthAdjust="spacing" textLength="73" x="337.5" y="760.7441">Component</text><rect fill="#E2E2F0" height="49.2188" rx="2.5" ry="2.5" style="stroke:#181818;stroke-width:0.5;" width="132" x="450" y="73.7031"/><text fill="#000000" font-family="sans-serif" font-size="14" font-style="italic" lengthAdjust="spacing" textLength="118" x="457" y="95.2363">&#171;component (C4)&#187;</text><text fill="#000000" font-family="sans-serif" font-size="14" lengthAdjust="spacing" textLength="38" x="497" y="112.8457">Model</text><rect fill="#E2E2F0" height="49.2188" rx="2.5" ry="2.5" style="stroke:#181818;stroke-width:0.5;" width="132" x="450" y="721.6016"/><text fill="#000000" font-family="sans-serif" font-size="14" font-style="italic" lengthAdjust="spacing" textLength="118" x="457" y="743.1348">&#171;component (C4)&#187;</text><text fill="#000000" font-family="sans-serif" font-size="14" lengthAdjust="spacing" textLength="38" x="497" y="760.7441">Model</text><rect fill="#E2E2F0" height="49.2188" rx="2.5" ry="2.5" style="stroke:#181818;stroke-width:0.5;" width="132" x="592" y="73.7031"/><text fill="#000000" font-family="sans-serif" font-size="14" font-style="italic" lengthAdjust="spacing" textLength="118" x="599" y="95.2363">&#171;component (C4)&#187;</text><text fill="#000000" font-family="sans-serif" font-size="14" lengthAdjust="spacing" textLength="47" x="634.5" y="112.8457">Service</text><rect fill="#E2E2F0" height="49.2188" rx="2.5" ry="2.5" style="stroke:#181818;stroke-width:0.5;" width="132" x="592" y="721.6016"/><text fill="#000000" font-family="sans-serif" font-size="14" font-style="italic" lengthAdjust="spacing" textLength="118" x="599" y="743.1348">&#171;component (C4)&#187;</text><text fill="#000000" font-family="sans-serif" font-size="14" lengthAdjust="spacing" textLength="47" x="634.5" y="760.7441">Service</text><rect fill="#E2E2F0" height="49.2188" rx="2.5" ry="2.5" style="stroke:#181818;stroke-width:0.5;" width="132" x="734" y="73.7031"/><text fill="#000000" font-family="sans-serif" font-size="14" font-style="italic" lengthAdjust="spacing" textLength="118" x="741" y="95.2363">&#171;component (C4)&#187;</text><text fill="#000000" font-family="sans-serif" font-size="14" lengthAdjust="spacing" textLength="36" x="782" y="112.8457">HTTP</text><rect fill="#E2E2F0" height="49.2188" rx="2.5" ry="2.5" style="stroke:#181818;stroke-width:0.5;" width="132" x="734" y="721.6016"/><text fill="#000000" font-family="sans-serif" font-size="14" font-style="italic" lengthAdjust="spacing" textLength="118" x="741" y="743.1348">&#171;component (C4)&#187;</text><text fill="#000000" font-family="sans-serif" font-size="14" lengthAdjust="spacing" textLength="36" x="782" y="760.7441">HTTP</text><rect fill="#E2E2F0" height="49.2188" rx="2.5" ry="2.5" style="stroke:#181818;stroke-width:0.5;" width="100" x="883" y="73.7031"/><text fill="#000000" font-family="sans-serif" font-size="14" font-style="italic" lengthAdjust="spacing" textLength="59" x="903.5" y="95.2363">&#171;Router&#187;</text><text fill="#000000" font-family="sans-serif" font-size="14" lengthAdjust="spacing" textLength="86" x="890" y="112.8457">AllergyRouter</text><rect fill="#E2E2F0" height="49.2188" rx="2.5" ry="2.5" style="stroke:#181818;stroke-width:0.5;" width="100" x="883" y="721.6016"/><text fill="#000000" font-family="sans-serif" font-size="14" font-style="italic" lengthAdjust="spacing" textLength="59" x="903.5" y="743.1348">&#171;Router&#187;</text><text fill="#000000" font-family="sans-serif" font-size="14" lengthAdjust="spacing" textLength="86" x="890" y="760.7441">AllergyRouter</text><rect fill="#E2E2F0" height="49.2188" rx="2.5" ry="2.5" style="stroke:#181818;stroke-width:0.5;" width="119" x="1058.5" y="73.7031"/><text fill="#000000" font-family="sans-serif" font-size="14" font-style="italic" lengthAdjust="spacing" textLength="78" x="1079" y="95.2363">&#171;Controller&#187;</text><text fill="#000000" font-family="sans-serif" font-size="14" lengthAdjust="spacing" textLength="105" x="1065.5" y="112.8457">AllergyController</text><rect fill="#E2E2F0" height="49.2188" rx="2.5" ry="2.5" style="stroke:#181818;stroke-width:0.5;" width="119" x="1058.5" y="721.6016"/><text fill="#000000" font-family="sans-serif" font-size="14" font-style="italic" lengthAdjust="spacing" textLength="78" x="1079" y="743.1348">&#171;Controller&#187;</text><text fill="#000000" font-family="sans-serif" font-size="14" lengthAdjust="spacing" textLength="105" x="1065.5" y="760.7441">AllergyController</text><rect fill="#E2E2F0" height="49.2188" rx="2.5" ry="2.5" style="stroke:#181818;stroke-width:0.5;" width="104" x="1192" y="73.7031"/><text fill="#000000" font-family="sans-serif" font-size="14" font-style="italic" lengthAdjust="spacing" textLength="62" x="1213" y="95.2363">&#171;Service&#187;</text><text fill="#000000" font-family="sans-serif" font-size="14" lengthAdjust="spacing" textLength="90" x="1199" y="112.8457">AllergyService</text><rect fill="#E2E2F0" height="49.2188" rx="2.5" ry="2.5" style="stroke:#181818;stroke-width:0.5;" width="104" x="1192" y="721.6016"/><text fill="#000000" font-family="sans-serif" font-size="14" font-style="italic" lengthAdjust="spacing" textLength="62" x="1213" y="743.1348">&#171;Service&#187;</text><text fill="#000000" font-family="sans-serif" font-size="14" lengthAdjust="spacing" textLength="90" x="1199" y="760.7441">AllergyService</text><rect fill="#E2E2F0" height="49.2188" rx="2.5" ry="2.5" style="stroke:#181818;stroke-width:0.5;" width="78" x="1306" y="73.7031"/><text fill="#000000" font-family="sans-serif" font-size="14" font-style="italic" lengthAdjust="spacing" textLength="64" x="1313" y="95.2363">&#171;Domain&#187;</text><text fill="#000000" font-family="sans-serif" font-size="14" lengthAdjust="spacing" textLength="43" x="1323.5" y="112.8457">Allergy</text><rect fill="#E2E2F0" height="49.2188" rx="2.5" ry="2.5" style="stroke:#181818;stroke-width:0.5;" width="78" x="1306" y="721.6016"/><text fill="#000000" font-family="sans-serif" font-size="14" font-style="italic" lengthAdjust="spacing" textLength="64" x="1313" y="743.1348">&#171;Domain&#187;</text><text fill="#000000" font-family="sans-serif" font-size="14" lengthAdjust="spacing" textLength="43" x="1323.5" y="760.7441">Allergy</text><rect fill="#E2E2F0" height="49.2188" rx="2.5" ry="2.5" style="stroke:#181818;stroke-width:0.5;" width="84" x="1394" y="73.7031"/><text fill="#000000" font-family="sans-serif" font-size="14" font-style="italic" lengthAdjust="spacing" textLength="65" x="1403.5" y="95.2363">&#171;Mapper&#187;</text><text fill="#000000" font-family="sans-serif" font-size="14" lengthAdjust="spacing" textLength="70" x="1401" y="112.8457">AllergyMap</text><rect fill="#E2E2F0" height="49.2188" rx="2.5" ry="2.5" style="stroke:#181818;stroke-width:0.5;" width="84" x="1394" y="721.6016"/><text fill="#000000" font-family="sans-serif" font-size="14" font-style="italic" lengthAdjust="spacing" textLength="65" x="1403.5" y="743.1348">&#171;Mapper&#187;</text><text fill="#000000" font-family="sans-serif" font-size="14" lengthAdjust="spacing" textLength="70" x="1401" y="760.7441">AllergyMap</text><text fill="#000000" font-family="sans-serif" font-size="14" font-style="italic" lengthAdjust="spacing" textLength="64" x="1494.5" y="103.2363">&#171;Domain&#187;</text><text fill="#000000" font-family="sans-serif" font-size="14" lengthAdjust="spacing" textLength="77" x="1488" y="120.8457">AllergyRepo</text><path d="M1511.5,52.7031 C1511.5,42.7031 1529.5,42.7031 1529.5,42.7031 C1529.5,42.7031 1547.5,42.7031 1547.5,52.7031 L1547.5,78.7031 C1547.5,88.7031 1529.5,88.7031 1529.5,88.7031 C1529.5,88.7031 1511.5,88.7031 1511.5,78.7031 L1511.5,52.7031 " fill="#E2E2F0" style="stroke:#181818;stroke-width:1.5;"/><path d="M1511.5,52.7031 C1511.5,62.7031 1529.5,62.7031 1529.5,62.7031 C1529.5,62.7031 1547.5,62.7031 1547.5,52.7031 " fill="none" style="stroke:#181818;stroke-width:1.5;"/><text fill="#000000" font-family="sans-serif" font-size="14" font-style="italic" lengthAdjust="spacing" textLength="64" x="1494.5" y="736.1348">&#171;Domain&#187;</text><text fill="#000000" font-family="sans-serif" font-size="14" lengthAdjust="spacing" textLength="77" x="1488" y="753.7441">AllergyRepo</text><path d="M1511.5,766.8203 C1511.5,756.8203 1529.5,756.8203 1529.5,756.8203 C1529.5,756.8203 1547.5,756.8203 1547.5,766.8203 L1547.5,792.8203 C1547.5,802.8203 1529.5,802.8203 1529.5,802.8203 C1529.5,802.8203 1511.5,802.8203 1511.5,792.8203 L1511.5,766.8203 " fill="#E2E2F0" style="stroke:#181818;stroke-width:1.5;"/><path d="M1511.5,766.8203 C1511.5,776.8203 1529.5,776.8203 1529.5,776.8203 C1529.5,776.8203 1547.5,776.8203 1547.5,766.8203 " fill="none" style="stroke:#181818;stroke-width:1.5;"/><rect fill="#FFFFFF" height="570.6797" style="stroke:#181818;stroke-width:1.0;" width="10" x="24" y="133.9219"/><rect fill="#FFFFFF" height="548.3281" style="stroke:#181818;stroke-width:1.0;" width="10" x="220" y="156.2734"/><rect fill="#FFFFFF" height="487.625" style="stroke:#181818;stroke-width:1.0;" width="10" x="369" y="186.625"/><rect fill="#FFFFFF" height="426.9219" style="stroke:#181818;stroke-width:1.0;" width="10" x="653" y="216.9766"/><rect fill="#FFFFFF" height="366.2188" style="stroke:#181818;stroke-width:1.0;" width="10" x="795" y="247.3281"/><rect fill="#FFFFFF" height="305.5156" style="stroke:#181818;stroke-width:1.0;" width="10" x="928" y="277.6797"/><rect fill="#FFFFFF" height="244.8125" style="stroke:#181818;stroke-width:1.0;" width="10" x="1113" y="308.0313"/><rect fill="#FFFFFF" height="184.1094" style="stroke:#181818;stroke-width:1.0;" width="10" x="1239" y="338.3828"/><rect fill="#FFFFFF" height="30.3516" style="stroke:#181818;stroke-width:1.0;" width="10" x="1431" y="454.7891"/><rect fill="#FFFFFF" height="30.3516" style="stroke:#181818;stroke-width:1.0;" width="10" x="1524.5" y="368.7344"/><polygon fill="#181818" points="208,152.2734,218,156.2734,208,160.2734,212,156.2734" style="stroke:#181818;stroke-width:1.0;"/><line style="stroke:#181818;stroke-width:1.0;" x1="34" x2="214" y1="156.2734" y2="156.2734"/><text fill="#000000" font-family="sans-serif" font-size="13" font-weight="bold" lengthAdjust="spacing" textLength="7" x="43.5" y="151.417">1</text><text fill="#000000" font-family="sans-serif" font-size="13" lengthAdjust="spacing" textLength="156" x="54.5" y="151.417">asks to search for allergies</text><polygon fill="#181818" points="357,182.625,367,186.625,357,190.625,361,186.625" style="stroke:#181818;stroke-width:1.0;"/><line style="stroke:#181818;stroke-width:1.0;" x1="230" x2="363" y1="186.625" y2="186.625"/><text fill="#000000" font-family="sans-serif" font-size="13" font-weight="bold" lengthAdjust="spacing" textLength="7" x="239.5" y="181.7686">2</text><text fill="#000000" font-family="sans-serif" font-size="13" lengthAdjust="spacing" textLength="109" x="250.5" y="181.7686">search for allergies</text><polygon fill="#181818" points="641,212.9766,651,216.9766,641,220.9766,645,216.9766" style="stroke:#181818;stroke-width:1.0;"/><line style="stroke:#181818;stroke-width:1.0;" x1="379" x2="647" y1="216.9766" y2="216.9766"/><text fill="#000000" font-family="sans-serif" font-size="13" font-weight="bold" lengthAdjust="spacing" textLength="7" x="456" y="212.1201">3</text><text fill="#000000" font-family="sans-serif" font-size="13" lengthAdjust="spacing" textLength="109" x="467" y="212.1201">search for allergies</text><polygon fill="#181818" points="783,243.3281,793,247.3281,783,251.3281,787,247.3281" style="stroke:#181818;stroke-width:1.0;"/><line style="stroke:#181818;stroke-width:1.0;" x1="663" x2="789" y1="247.3281" y2="247.3281"/><text fill="#000000" font-family="sans-serif" font-size="13" font-weight="bold" lengthAdjust="spacing" textLength="7" x="682.5" y="242.4717">4</text><text fill="#000000" font-family="sans-serif" font-size="13" lengthAdjust="spacing" textLength="82" x="693.5" y="242.4717">get('/allergies')</text><polygon fill="#181818" points="916,273.6797,926,277.6797,916,281.6797,920,277.6797" style="stroke:#181818;stroke-width:1.0;"/><line style="stroke:#181818;stroke-width:1.0;" x1="805" x2="922" y1="277.6797" y2="277.6797"/><text fill="#000000" font-family="sans-serif" font-size="13" font-weight="bold" lengthAdjust="spacing" textLength="7" x="820" y="272.8232">5</text><text fill="#000000" font-family="sans-serif" font-size="13" lengthAdjust="spacing" textLength="82" x="831" y="272.8232">GET /allergies</text><polygon fill="#181818" points="1101,304.0313,1111,308.0313,1101,312.0313,1105,308.0313" style="stroke:#181818;stroke-width:1.0;"/><line style="stroke:#181818;stroke-width:1.0;" x1="938" x2="1107" y1="308.0313" y2="308.0313"/><text fill="#000000" font-family="sans-serif" font-size="13" font-weight="bold" lengthAdjust="spacing" textLength="7" x="947.5" y="303.1748">6</text><text fill="#000000" font-family="sans-serif" font-size="13" lengthAdjust="spacing" textLength="145" x="958.5" y="303.1748">getAllergies(req,res,next)</text><polygon fill="#181818" points="1227,334.3828,1237,338.3828,1227,342.3828,1231,338.3828" style="stroke:#181818;stroke-width:1.0;"/><line style="stroke:#181818;stroke-width:1.0;" x1="1123" x2="1233" y1="338.3828" y2="338.3828"/><text fill="#000000" font-family="sans-serif" font-size="13" font-weight="bold" lengthAdjust="spacing" textLength="7" x="1137.5" y="333.5264">7</text><text fill="#000000" font-family="sans-serif" font-size="13" lengthAdjust="spacing" textLength="76" x="1148.5" y="333.5264">getAllergies()</text><polygon fill="#181818" points="1512.5,364.7344,1522.5,368.7344,1512.5,372.7344,1516.5,368.7344" style="stroke:#181818;stroke-width:1.0;"/><line style="stroke:#181818;stroke-width:1.0;" x1="1249" x2="1518.5" y1="368.7344" y2="368.7344"/><text fill="#000000" font-family="sans-serif" font-size="13" font-weight="bold" lengthAdjust="spacing" textLength="7" x="1359.75" y="363.8779">8</text><text fill="#000000" font-family="sans-serif" font-size="13" lengthAdjust="spacing" textLength="43" x="1370.75" y="363.8779">findAll()</text><polygon fill="#181818" points="1260,395.0859,1250,399.0859,1260,403.0859,1256,399.0859" style="stroke:#181818;stroke-width:1.0;"/><line style="stroke:#181818;stroke-width:1.0;stroke-dasharray:2.0,2.0;" x1="1254" x2="1528.5" y1="399.0859" y2="399.0859"/><text fill="#000000" font-family="sans-serif" font-size="13" font-weight="bold" lengthAdjust="spacing" textLength="7" x="1359.75" y="394.2295">9</text><text fill="#000000" font-family="sans-serif" font-size="13" lengthAdjust="spacing" textLength="48" x="1370.75" y="394.2295">allergies</text><path d="M1182,414.0859 L1255,414.0859 L1255,422.4375 L1245,432.4375 L1182,432.4375 L1182,414.0859 " fill="#EEEEEE" style="stroke:#000000;stroke-width:1.5;"/><rect fill="none" height="79.0547" style="stroke:#000000;stroke-width:1.5;" width="306" x="1182" y="414.0859"/><text fill="#000000" font-family="sans-serif" font-size="13" font-weight="bold" lengthAdjust="spacing" textLength="28" x="1197" y="428.5811">loop</text><text fill="#000000" font-family="sans-serif" font-size="11" font-weight="bold" lengthAdjust="spacing" textLength="109" x="1270" y="427.5049">[allergy in allergies]</text><polygon fill="#181818" points="1419,450.7891,1429,454.7891,1419,458.7891,1423,454.7891" style="stroke:#181818;stroke-width:1.0;"/><line style="stroke:#181818;stroke-width:1.0;" x1="1249" x2="1425" y1="454.7891" y2="454.7891"/><text fill="#000000" font-family="sans-serif" font-size="13" font-weight="bold" lengthAdjust="spacing" textLength="14" x="1289.5" y="449.9326">10</text><text fill="#000000" font-family="sans-serif" font-size="13" lengthAdjust="spacing" textLength="83" x="1307.5" y="449.9326">toDTO(allergy)</text><polygon fill="#181818" points="1260,481.1406,1250,485.1406,1260,489.1406,1256,485.1406" style="stroke:#181818;stroke-width:1.0;"/><line style="stroke:#181818;stroke-width:1.0;stroke-dasharray:2.0,2.0;" x1="1254" x2="1435" y1="485.1406" y2="485.1406"/><text fill="#000000" font-family="sans-serif" font-size="13" font-weight="bold" lengthAdjust="spacing" textLength="14" x="1301.5" y="480.2842">11</text><text fill="#000000" font-family="sans-serif" font-size="13" lengthAdjust="spacing" textLength="64" x="1319.5" y="480.2842">allergyDTO</text><polygon fill="#181818" points="1134,518.4922,1124,522.4922,1134,526.4922,1130,522.4922" style="stroke:#181818;stroke-width:1.0;"/><line style="stroke:#181818;stroke-width:1.0;stroke-dasharray:2.0,2.0;" x1="1128" x2="1243" y1="522.4922" y2="522.4922"/><text fill="#000000" font-family="sans-serif" font-size="13" font-weight="bold" lengthAdjust="spacing" textLength="14" x="1137.5" y="517.6357">12</text><text fill="#000000" font-family="sans-serif" font-size="13" lengthAdjust="spacing" textLength="74" x="1155.5" y="517.6357">allergiesDTO</text><polygon fill="#181818" points="949,548.8438,939,552.8438,949,556.8438,945,552.8438" style="stroke:#181818;stroke-width:1.0;"/><line style="stroke:#181818;stroke-width:1.0;stroke-dasharray:2.0,2.0;" x1="943" x2="1117" y1="552.8438" y2="552.8438"/><text fill="#000000" font-family="sans-serif" font-size="13" font-weight="bold" lengthAdjust="spacing" textLength="14" x="982" y="547.9873">13</text><text fill="#000000" font-family="sans-serif" font-size="13" lengthAdjust="spacing" textLength="74" x="1000" y="547.9873">allergiesDTO</text><polygon fill="#181818" points="816,579.1953,806,583.1953,816,587.1953,812,583.1953" style="stroke:#181818;stroke-width:1.0;"/><line style="stroke:#181818;stroke-width:1.0;stroke-dasharray:2.0,2.0;" x1="810" x2="932" y1="583.1953" y2="583.1953"/><text fill="#000000" font-family="sans-serif" font-size="13" font-weight="bold" lengthAdjust="spacing" textLength="14" x="819.5" y="578.3389">14</text><text fill="#000000" font-family="sans-serif" font-size="13" lengthAdjust="spacing" textLength="81" x="837.5" y="578.3389">200 (allergies)</text><polygon fill="#181818" points="674,609.5469,664,613.5469,674,617.5469,670,613.5469" style="stroke:#181818;stroke-width:1.0;"/><line style="stroke:#181818;stroke-width:1.0;stroke-dasharray:2.0,2.0;" x1="668" x2="799" y1="613.5469" y2="613.5469"/><text fill="#000000" font-family="sans-serif" font-size="13" font-weight="bold" lengthAdjust="spacing" textLength="14" x="698.5" y="608.6904">15</text><text fill="#000000" font-family="sans-serif" font-size="13" lengthAdjust="spacing" textLength="48" x="716.5" y="608.6904">allergies</text><polygon fill="#181818" points="390,639.8984,380,643.8984,390,647.8984,386,643.8984" style="stroke:#181818;stroke-width:1.0;"/><line style="stroke:#181818;stroke-width:1.0;stroke-dasharray:2.0,2.0;" x1="384" x2="657" y1="643.8984" y2="643.8984"/><text fill="#000000" font-family="sans-serif" font-size="13" font-weight="bold" lengthAdjust="spacing" textLength="14" x="485.5" y="639.042">16</text><text fill="#000000" font-family="sans-serif" font-size="13" lengthAdjust="spacing" textLength="48" x="503.5" y="639.042">allergies</text><polygon fill="#181818" points="241,670.25,231,674.25,241,678.25,237,674.25" style="stroke:#181818;stroke-width:1.0;"/><line style="stroke:#181818;stroke-width:1.0;stroke-dasharray:2.0,2.0;" x1="235" x2="373" y1="674.25" y2="674.25"/><text fill="#000000" font-family="sans-serif" font-size="13" font-weight="bold" lengthAdjust="spacing" textLength="14" x="269" y="669.3936">17</text><text fill="#000000" font-family="sans-serif" font-size="13" lengthAdjust="spacing" textLength="48" x="287" y="669.3936">allergies</text><polygon fill="#181818" points="40,700.6016,30,704.6016,40,708.6016,36,704.6016" style="stroke:#181818;stroke-width:1.0;"/><line style="stroke:#181818;stroke-width:1.0;stroke-dasharray:2.0,2.0;" x1="34" x2="224" y1="704.6016" y2="704.6016"/><text fill="#000000" font-family="sans-serif" font-size="13" font-weight="bold" lengthAdjust="spacing" textLength="14" x="73.5" y="699.7451">18</text><text fill="#000000" font-family="sans-serif" font-size="13" lengthAdjust="spacing" textLength="89" x="91.5" y="699.7451">shows allergies</text><!--SRC=[fPPTRzem58RlyokixAA9LDHgsXMAa6ZPbxHkKyVk9Y4J34HDx2mnNVdtEtOSv-J38Try0VvwdsDUsyVGanJyb6rPuPLF2SzfGJEoOdjwIkMQlSXbcXnunhWaCNp0B1fBKP2Lq5-q97vLzJrlArw87qNbkPGi8y7zkt2n-CK_509qVEU_-P8SZl8kFJ6FG858CecJd0BwNcIvuC3_-LaZuSjs-IIAuhfXg6w0bhzE-o1sBDKwNPka-S6AvoHcMcNgatIVrkllMgGgWmfmYe2HBZVlQFoafdo5fVez_ACumHRf0CiqPSNXNFK0fweCMiTb8THih6jwGTiqt5PiiBgs98fCRK1dfc8Pp5-9Z2RSFVs1vbW1JH31PsxNjgEIRcd9QiKZoqNB4MZZGDPmEDZ9CvNCd6rFqymvdorQPtGEmAUII45AHeluIFRgBcX-mifAQN58M8seWcaO3cWtSXXhXrHfDHegXAYFh2C0rjaOHkErHbMfOS3LHtfE3am6LpUMTnNsHHQh9BrHLJGBcEOSpyd7zsjoC-328BPI3KzInL2rtVRCwvKlwmX1mNvV5woyvf3wGZSAxK9DSiwjTi86RBPYqmqUZZ961xjRjl56fwCztAWLuRio9_k4xw0d22z3R5n4kAnI1OUSjKsviE6uxDY_hI0L8ZTnpYJXZelmwcqOyLPbhZcaZDNwMs02XzESwlv284qJ8fjLz46Npx2UQRI-rPCM0ldr_prj_EpUNhjn5ty7Ml-qIu8lBKvAqqAYS2X9N4nEJKPzUtjB0XlBSLPGbB7qLoNMrYimSiaGLATgT_hlF5qEPjzvp_LEzH_QtiLi6Lk_WVYnZcQp3gGyYZzb1pM4KIyqwZT_1Fu2]--></g></svg>