<?xml version="1.0" encoding="us-ascii" standalone="no"?><svg xmlns="http://www.w3.org/2000/svg" xmlns:xlink="http://www.w3.org/1999/xlink" contentStyleType="text/css" height="1083px" preserveAspectRatio="none" style="width:750px;height:1083px;background:#FFFFFF;" version="1.1" viewBox="0 0 750 1083" width="750px" zoomAndPan="magnify"><defs/><g><!--cluster Server--><g id="cluster_Server"><rect fill="none" height="967" rx="2.5" ry="2.5" style="stroke:#181818;stroke-width:1.0;" width="655" x="7" y="110"/><rect fill="none" height="10" style="stroke:#181818;stroke-width:1.0;" width="15" x="642" y="115"/><rect fill="none" height="2" style="stroke:#181818;stroke-width:1.0;" width="4" x="640" y="117"/><rect fill="none" height="2" style="stroke:#181818;stroke-width:1.0;" width="4" x="640" y="121"/><text fill="#000000" font-family="sans-serif" font-size="14" font-style="italic" lengthAdjust="spacing" textLength="86" x="291.5" y="137.5332">&#171;component&#187;</text><text fill="#000000" font-family="sans-serif" font-size="14" font-style="italic" lengthAdjust="spacing" textLength="100" x="284.5" y="155.1426">&#171;C4 Container&#187;</text><text fill="#000000" font-family="sans-serif" font-size="14" font-weight="bold" lengthAdjust="spacing" textLength="48" x="310.5" y="172.752">Server</text></g><!--cluster Frameworks and Drivers Layer--><g id="cluster_Frameworks and Drivers Layer"><path d="M170.5,201 L385.5,201 A3.75,3.75 0 0 1 388,203.5 L395,224.6094 L502.5,224.6094 A2.5,2.5 0 0 1 505,227.1094 L505,315.5 A2.5,2.5 0 0 1 502.5,318 L170.5,318 A2.5,2.5 0 0 1 168,315.5 L168,203.5 A2.5,2.5 0 0 1 170.5,201 " fill="none" style="stroke:#000000;stroke-width:1.5;"/><line style="stroke:#000000;stroke-width:1.5;" x1="168" x2="395" y1="224.6094" y2="224.6094"/><text fill="#000000" font-family="sans-serif" font-size="14" font-weight="bold" lengthAdjust="spacing" textLength="214" x="172" y="217.5332">Frameworks and Drivers Layer</text></g><!--cluster Interface Adapters Layer--><g id="cluster_Interface Adapters Layer"><path d="M127.5,446 L300.5,446 A3.75,3.75 0 0 1 303,448.5 L310,469.6094 L441.5,469.6094 A2.5,2.5 0 0 1 444,472.1094 L444,560.5 A2.5,2.5 0 0 1 441.5,563 L127.5,563 A2.5,2.5 0 0 1 125,560.5 L125,448.5 A2.5,2.5 0 0 1 127.5,446 " fill="none" style="stroke:#000000;stroke-width:1.5;"/><line style="stroke:#000000;stroke-width:1.5;" x1="125" x2="310" y1="469.6094" y2="469.6094"/><text fill="#000000" font-family="sans-serif" font-size="14" font-weight="bold" lengthAdjust="spacing" textLength="172" x="129" y="462.5332">Interface Adapters Layer</text></g><!--cluster Application Business Rules--><g id="cluster_Application Business Rules"><path d="M251.5,691 L443.5,691 A3.75,3.75 0 0 1 446,693.5 L453,714.6094 L453.5,714.6094 A2.5,2.5 0 0 1 456,717.1094 L456,805.5 A2.5,2.5 0 0 1 453.5,808 L251.5,808 A2.5,2.5 0 0 1 249,805.5 L249,693.5 A2.5,2.5 0 0 1 251.5,691 " fill="none" style="stroke:#000000;stroke-width:1.5;"/><line style="stroke:#000000;stroke-width:1.5;" x1="249" x2="453" y1="714.6094" y2="714.6094"/><text fill="#000000" font-family="sans-serif" font-size="14" font-weight="bold" lengthAdjust="spacing" textLength="191" x="253" y="707.5332">Application Business Rules</text></g><!--cluster Enterprise Business Rules--><g id="cluster_Enterprise Business Rules"><path d="M197.5,936 L385.5,936 A3.75,3.75 0 0 1 388,938.5 L395,959.6094 L395.5,959.6094 A2.5,2.5 0 0 1 398,962.1094 L398,1050.5 A2.5,2.5 0 0 1 395.5,1053 L197.5,1053 A2.5,2.5 0 0 1 195,1050.5 L195,938.5 A2.5,2.5 0 0 1 197.5,936 " fill="none" style="stroke:#000000;stroke-width:1.5;"/><line style="stroke:#000000;stroke-width:1.5;" x1="195" x2="395" y1="959.6094" y2="959.6094"/><text fill="#000000" font-family="sans-serif" font-size="14" font-weight="bold" lengthAdjust="spacing" textLength="187" x="199" y="952.5332">Enterprise Business Rules</text></g><text fill="#000000" font-family="sans-serif" font-size="14" lengthAdjust="spacing" textLength="4" x="424" y="88.9238">&#160;</text><rect fill="#F1F1F1" height="12" style="stroke:#181818;stroke-width:1.5;" width="12" x="420" y="104"/><text fill="#000000" font-family="sans-serif" font-size="14" lengthAdjust="spacing" textLength="4" x="355" y="88.9238">&#160;</text><rect fill="#F1F1F1" height="12" style="stroke:#181818;stroke-width:1.5;" width="12" x="351" y="104"/><text fill="#000000" font-family="sans-serif" font-size="14" lengthAdjust="spacing" textLength="4" x="660" y="902.5332">&#160;</text><rect fill="#F1F1F1" height="12" style="stroke:#181818;stroke-width:1.5;" width="12" x="656" y="876"/><!--entity Controller_API--><g id="elem_Controller_API"><ellipse cx="420" cy="392" fill="#F1F1F1" rx="8" ry="8" style="stroke:#181818;stroke-width:0.5;"/><text fill="#000000" font-family="sans-serif" font-size="14" lengthAdjust="spacing" textLength="87" x="376.5" y="423.5332">Controller API</text></g><!--entity DataModel_API--><g id="elem_DataModel_API"><ellipse cx="93" cy="392" fill="#F1F1F1" rx="8" ry="8" style="stroke:#181818;stroke-width:0.5;"/><text fill="#000000" font-family="sans-serif" font-size="14" lengthAdjust="spacing" textLength="97" x="44.5" y="423.5332">Data Model API</text></g><!--entity ApplicationServiceAPI--><g id="elem_ApplicationServiceAPI"><ellipse cx="412" cy="637" fill="#F1F1F1" rx="8" ry="8" style="stroke:#181818;stroke-width:0.5;"/><text fill="#000000" font-family="sans-serif" font-size="14" lengthAdjust="spacing" textLength="108" x="358" y="668.5332">App Services API</text></g><!--entity DatabaseDriverAPI--><g id="elem_DatabaseDriverAPI"><ellipse cx="256" cy="392" fill="#F1F1F1" rx="8" ry="8" style="stroke:#181818;stroke-width:0.5;"/><text fill="#000000" font-family="sans-serif" font-size="14" lengthAdjust="spacing" textLength="128" x="192" y="423.5332">Database Driver API</text></g><!--entity RepoAPI--><g id="elem_RepoAPI"><ellipse cx="204" cy="637" fill="#F1F1F1" rx="8" ry="8" style="stroke:#181818;stroke-width:0.5;"/><text fill="#000000" font-family="sans-serif" font-size="14" lengthAdjust="spacing" textLength="59" x="174.5" y="668.5332">Repo API</text></g><!--entity DTOAPI--><g id="elem_DTOAPI"><ellipse cx="544" cy="637" fill="#F1F1F1" rx="8" ry="8" style="stroke:#181818;stroke-width:0.5;"/><text fill="#000000" font-family="sans-serif" font-size="14" lengthAdjust="spacing" textLength="55" x="516.5" y="668.5332">DTO API</text></g><!--entity ModelAPI--><g id="elem_ModelAPI"><ellipse cx="352" cy="882" fill="#F1F1F1" rx="8" ry="8" style="stroke:#181818;stroke-width:0.5;"/><text fill="#000000" font-family="sans-serif" font-size="14" lengthAdjust="spacing" textLength="63" x="320.5" y="913.5332">Model API</text></g><!--entity VOAPI--><g id="elem_VOAPI"><ellipse cx="240" cy="882" fill="#F1F1F1" rx="8" ry="8" style="stroke:#181818;stroke-width:0.5;"/><text fill="#000000" font-family="sans-serif" font-size="14" lengthAdjust="spacing" textLength="45" x="217.5" y="913.5332">VO API</text></g><!--entity DatabaseDriver--><g id="elem_DatabaseDriver"><rect fill="#F1F1F1" height="65.2188" rx="2.5" ry="2.5" style="stroke:#181818;stroke-width:0.5;" width="143" x="184.5" y="237"/><rect fill="#F1F1F1" height="10" style="stroke:#181818;stroke-width:0.5;" width="15" x="307.5" y="242"/><rect fill="#F1F1F1" height="2" style="stroke:#181818;stroke-width:0.5;" width="4" x="305.5" y="244"/><rect fill="#F1F1F1" height="2" style="stroke:#181818;stroke-width:0.5;" width="4" x="305.5" y="248"/><text fill="#000000" font-family="sans-serif" font-size="14" font-style="italic" lengthAdjust="spacing" textLength="86" x="208" y="271.5332">&#171;component&#187;</text><text fill="#000000" font-family="sans-serif" font-size="14" lengthAdjust="spacing" textLength="103" x="199.5" y="289.1426">Database Driver</text></g><!--entity Routing--><g id="elem_Routing"><rect fill="#F1F1F1" height="65.2188" rx="2.5" ry="2.5" style="stroke:#181818;stroke-width:0.5;" width="126" x="363" y="237"/><rect fill="#F1F1F1" height="10" style="stroke:#181818;stroke-width:0.5;" width="15" x="469" y="242"/><rect fill="#F1F1F1" height="2" style="stroke:#181818;stroke-width:0.5;" width="4" x="467" y="244"/><rect fill="#F1F1F1" height="2" style="stroke:#181818;stroke-width:0.5;" width="4" x="467" y="248"/><text fill="#000000" font-family="sans-serif" font-size="14" font-style="italic" lengthAdjust="spacing" textLength="86" x="378" y="271.5332">&#171;component&#187;</text><text fill="#000000" font-family="sans-serif" font-size="14" lengthAdjust="spacing" textLength="49" x="396.5" y="289.1426">Routing</text></g><!--entity DTO--><g id="elem_DTO"><rect fill="#F1F1F1" height="65.2188" rx="2.5" ry="2.5" style="stroke:#181818;stroke-width:0.5;" width="126" x="463" y="482"/><rect fill="#F1F1F1" height="10" style="stroke:#181818;stroke-width:0.5;" width="15" x="569" y="487"/><rect fill="#F1F1F1" height="2" style="stroke:#181818;stroke-width:0.5;" width="4" x="567" y="489"/><rect fill="#F1F1F1" height="2" style="stroke:#181818;stroke-width:0.5;" width="4" x="567" y="493"/><text fill="#000000" font-family="sans-serif" font-size="14" font-style="italic" lengthAdjust="spacing" textLength="86" x="478" y="516.5332">&#171;component&#187;</text><text fill="#000000" font-family="sans-serif" font-size="14" lengthAdjust="spacing" textLength="30" x="506" y="534.1426">DTO</text></g><!--entity DataModel--><g id="elem_DataModel"><rect fill="#F1F1F1" height="65.2188" rx="2.5" ry="2.5" style="stroke:#181818;stroke-width:0.5;" width="126" x="23" y="237"/><rect fill="#F1F1F1" height="10" style="stroke:#181818;stroke-width:0.5;" width="15" x="129" y="242"/><rect fill="#F1F1F1" height="2" style="stroke:#181818;stroke-width:0.5;" width="4" x="127" y="244"/><rect fill="#F1F1F1" height="2" style="stroke:#181818;stroke-width:0.5;" width="4" x="127" y="248"/><text fill="#000000" font-family="sans-serif" font-size="14" font-style="italic" lengthAdjust="spacing" textLength="86" x="38" y="271.5332">&#171;component&#187;</text><text fill="#000000" font-family="sans-serif" font-size="14" lengthAdjust="spacing" textLength="72" x="45" y="289.1426">Data Model</text></g><!--entity Controller--><g id="elem_Controller"><rect fill="#F1F1F1" height="65.2188" rx="2.5" ry="2.5" style="stroke:#181818;stroke-width:0.5;" width="126" x="302" y="482"/><rect fill="#F1F1F1" height="10" style="stroke:#181818;stroke-width:0.5;" width="15" x="408" y="487"/><rect fill="#F1F1F1" height="2" style="stroke:#181818;stroke-width:0.5;" width="4" x="406" y="489"/><rect fill="#F1F1F1" height="2" style="stroke:#181818;stroke-width:0.5;" width="4" x="406" y="493"/><text fill="#000000" font-family="sans-serif" font-size="14" font-style="italic" lengthAdjust="spacing" textLength="86" x="317" y="516.5332">&#171;component&#187;</text><text fill="#000000" font-family="sans-serif" font-size="14" lengthAdjust="spacing" textLength="62" x="329" y="534.1426">Controller</text></g><!--entity Repository--><g id="elem_Repository"><rect fill="#F1F1F1" height="65.2188" rx="2.5" ry="2.5" style="stroke:#181818;stroke-width:0.5;" width="126" x="141" y="482"/><rect fill="#F1F1F1" height="10" style="stroke:#181818;stroke-width:0.5;" width="15" x="247" y="487"/><rect fill="#F1F1F1" height="2" style="stroke:#181818;stroke-width:0.5;" width="4" x="245" y="489"/><rect fill="#F1F1F1" height="2" style="stroke:#181818;stroke-width:0.5;" width="4" x="245" y="493"/><text fill="#000000" font-family="sans-serif" font-size="14" font-style="italic" lengthAdjust="spacing" textLength="86" x="156" y="516.5332">&#171;component&#187;</text><text fill="#000000" font-family="sans-serif" font-size="14" lengthAdjust="spacing" textLength="68" x="165" y="534.1426">Repository</text></g><!--entity ApplicationService--><g id="elem_ApplicationService"><rect fill="#F1F1F1" height="65.2188" rx="2.5" ry="2.5" style="stroke:#181818;stroke-width:0.5;" width="160" x="272" y="727"/><rect fill="#F1F1F1" height="10" style="stroke:#181818;stroke-width:0.5;" width="15" x="412" y="732"/><rect fill="#F1F1F1" height="2" style="stroke:#181818;stroke-width:0.5;" width="4" x="410" y="734"/><rect fill="#F1F1F1" height="2" style="stroke:#181818;stroke-width:0.5;" width="4" x="410" y="738"/><text fill="#000000" font-family="sans-serif" font-size="14" font-style="italic" lengthAdjust="spacing" textLength="86" x="304" y="761.5332">&#171;component&#187;</text><text fill="#000000" font-family="sans-serif" font-size="14" lengthAdjust="spacing" textLength="120" x="287" y="779.1426">Application Service</text></g><!--entity DomainModelDDD--><g id="elem_DomainModelDDD"><rect fill="#F1F1F1" height="65.2188" rx="2.5" ry="2.5" style="stroke:#181818;stroke-width:0.5;" width="164" x="214" y="972"/><rect fill="#F1F1F1" height="10" style="stroke:#181818;stroke-width:0.5;" width="15" x="358" y="977"/><rect fill="#F1F1F1" height="2" style="stroke:#181818;stroke-width:0.5;" width="4" x="356" y="979"/><rect fill="#F1F1F1" height="2" style="stroke:#181818;stroke-width:0.5;" width="4" x="356" y="983"/><text fill="#000000" font-family="sans-serif" font-size="14" font-style="italic" lengthAdjust="spacing" textLength="86" x="248" y="1006.5332">&#171;component&#187;</text><text fill="#000000" font-family="sans-serif" font-size="14" lengthAdjust="spacing" textLength="124" x="229" y="1024.1426">Domain Model DDD</text></g><!--entity API--><g id="elem_API"><ellipse cx="459" cy="14" fill="#F1F1F1" rx="8" ry="8" style="stroke:#181818;stroke-width:0.5;"/><text fill="#000000" font-family="sans-serif" font-size="14" lengthAdjust="spacing" textLength="21" x="448.5" y="45.5332">API</text></g><!--entity A0API--><g id="elem_A0API"><ellipse cx="712" cy="882" fill="#F1F1F1" rx="8" ry="8" style="stroke:#181818;stroke-width:0.5;"/><text fill="#000000" font-family="sans-serif" font-size="14" lengthAdjust="spacing" textLength="62" x="681" y="913.5332">Auth0 API</text></g><!--entity DB_API--><g id="elem_DB_API"><ellipse cx="346" cy="14" fill="#F1F1F1" rx="8" ry="8" style="stroke:#181818;stroke-width:0.5;"/><text fill="#000000" font-family="sans-serif" font-size="14" lengthAdjust="spacing" textLength="86" x="303" y="45.5332">Database API</text></g><!--link API to P1--><g id="link_API_P1"><path d="M456.19,23.01 C449.58,41.84 433.21,88.45 427.78,103.92 " fill="none" id="API-P1" style="stroke:#181818;stroke-width:1.0;"/></g><!--reverse link DB_API to P2--><g id="link_DB_API_P2"><path d="M348.1005,32.9424 C350.3005,51.7724 354.6,88.45 356.41,103.92 " fill="none" id="DB_API-backto-P2" style="stroke:#181818;stroke-width:1.0;"/><path d="M338.8971,27.0488 A9,9 0 0 0 355.6973 25.086" fill="none" style="stroke:#181818;stroke-width:1.5;"/></g><!--link P3 to A0API--><g id="link_P3_A0API"><path d="M668.25,882 C679.76,882 681.26,882 692.77,882 " fill="none" id="P3-to-A0API" style="stroke:#181818;stroke-width:1.0;"/><path d="M699.6918,873.5428 A9,9 0 0 0 699.6918 890.4572" fill="none" style="stroke:#181818;stroke-width:1.5;"/></g><!--link Routing to P1--><g id="link_Routing_P1"><path d="M426,236.69 C426,197.75 426,134.71 426,116.24 " fill="none" id="Routing-P1" style="stroke:#181818;stroke-width:1.0;"/></g><!--link Routing to Controller_API--><g id="link_Routing_Controller_API"><path d="M424.42,302.16 C423.08,329.22 421.7242,356.2922 420.9142,372.6622 " fill="none" id="Routing-to-Controller_API" style="stroke:#181818;stroke-width:1.0;"/><path d="M429.019,379.9935 A9,9 0 0 0 412.1252 379.1576" fill="none" style="stroke:#181818;stroke-width:1.5;"/></g><!--link Routing to DTOAPI--><g id="link_Routing_DTOAPI"><path d="M463.19,302.08 C513.89,345.55 599.33,420.44 607,438 C630.67,492.16 629.19,516.21 607,571 C596.03,598.09 575.994,614.4846 561.344,624.5046 " fill="none" id="Routing-to-DTOAPI" style="stroke:#181818;stroke-width:1.0;"/><path d="M560.4052,635.3929 A9,9 0 0 0 550.8563 621.4316" fill="none" style="stroke:#181818;stroke-width:1.5;"/></g><!--link DatabaseDriver to DatabaseDriverAPI--><g id="link_DatabaseDriver_DatabaseDriverAPI"><path d="M256,302.16 C256,329.22 256,366.28 256,382.65 " fill="none" id="DatabaseDriver-DatabaseDriverAPI" style="stroke:#181818;stroke-width:1.0;"/></g><!--link DatabaseDriver to P2--><g id="link_DatabaseDriver_P2"><path d="M276.4,236.69 C301.37,197.75 341.8,134.71 353.64,116.24 " fill="none" id="DatabaseDriver-P2" style="stroke:#181818;stroke-width:1.0;"/></g><!--link DatabaseDriver to DataModel_API--><g id="link_DatabaseDriver_DataModel_API"><path d="M213.17,302.2 C202.65,309.99 191.42,318.3 181,326 C152.29,347.23 126.3355,366.3912 110.2955,378.2312 " fill="none" id="DatabaseDriver-to-DataModel_API" style="stroke:#181818;stroke-width:1.0;"/><path d="M109.7492,389.1462 A9,9 0 0 0 99.7039 375.5376" fill="none" style="stroke:#181818;stroke-width:1.5;"/></g><!--link Repository to RepoAPI--><g id="link_Repository_RepoAPI"><path d="M204,547.16 C204,574.22 204,611.28 204,627.65 " fill="none" id="Repository-RepoAPI" style="stroke:#181818;stroke-width:1.0;"/></g><!--reverse link DatabaseDriverAPI to Repository--><g id="link_DatabaseDriverAPI_Repository"><path d="M248.4664,410.4609 C241.4164,426.7909 229.37,454.7 217.69,481.79 " fill="none" id="DatabaseDriverAPI-backto-Repository" style="stroke:#181818;stroke-width:1.0;"/><path d="M243.4454,400.7539 A9,9 0 0 0 258.9745 407.4582" fill="none" style="stroke:#181818;stroke-width:1.5;"/></g><!--reverse link DataModel_API to Repository--><g id="link_DataModel_API_Repository"><path d="M107.4046,408.6356 C122.4446,424.9656 149.84,454.7 174.79,481.79 " fill="none" id="DataModel_API-backto-Repository" style="stroke:#181818;stroke-width:1.0;"/><path d="M96.4945,409.2736 A9,9 0 0 0 108.9362 397.8148" fill="none" style="stroke:#181818;stroke-width:1.5;"/></g><!--link Repository to VOAPI--><g id="link_Repository_VOAPI"><path d="M179.69,547.04 C168.26,563.85 155.88,585.47 150,607 C142.98,632.72 144.73,640.86 150,667 C167.14,751.94 213.9282,836.514 230.0882,864.194 " fill="none" id="Repository-to-VOAPI" style="stroke:#181818;stroke-width:1.0;"/><path d="M240.8817,865.9077 A9,9 0 0 0 226.2744 874.4357" fill="none" style="stroke:#181818;stroke-width:1.5;"/></g><!--link Repository to ModelAPI--><g id="link_Repository_ModelAPI"><path d="M221.21,547 C242.46,582.56 282.12,639.08 333,667 C378.24,691.82 414.12,644.08 448,683 C486.81,727.58 475.7,763.78 448,816 C447.85,816.29 393.4579,853.0144 369.4779,869.2044 " fill="none" id="Repository-to-ModelAPI" style="stroke:#181818;stroke-width:1.0;"/><path d="M368.4735,880.0869 A9,9 0 0 0 359.0089 866.0683" fill="none" style="stroke:#181818;stroke-width:1.5;"/></g><!--link DataModel to DataModel_API--><g id="link_DataModel_DataModel_API"><path d="M87.84,302.16 C89.41,329.22 91.56,366.28 92.52,382.65 " fill="none" id="DataModel-DataModel_API" style="stroke:#181818;stroke-width:1.0;"/></g><!--link Controller to ApplicationServiceAPI--><g id="link_Controller_ApplicationServiceAPI"><path d="M377.35,547.16 C387.9,574.22 398.7287,601.9626 405.1087,618.3326 " fill="none" id="Controller-to-ApplicationServiceAPI" style="stroke:#181818;stroke-width:1.0;"/><path d="M415.5021,621.7108 A9,9 0 0 0 399.7423 627.853" fill="none" style="stroke:#181818;stroke-width:1.5;"/></g><!--link Controller_API to Controller--><g id="link_Controller_API_Controller"><path d="M416.22,401.28 C408.77,417.61 391.84,454.7 379.47,481.79 " fill="none" id="Controller_API-Controller" style="stroke:#181818;stroke-width:1.0;"/></g><!--link Controller to DTOAPI--><g id="link_Controller_DTOAPI"><path d="M401,547.17 C410.8,555.27 421.59,563.74 432,571 C450.9,584.18 502.6026,613.0841 525.9426,626.0141 " fill="none" id="Controller-to-DTOAPI" style="stroke:#181818;stroke-width:1.0;"/><path d="M536.0957,621.9705 A9,9 0 0 0 527.8991 636.7662" fill="none" style="stroke:#181818;stroke-width:1.5;"/></g><!--link Controller to VOAPI--><g id="link_Controller_VOAPI"><path d="M337.34,547.23 C311.31,579.15 273.76,630.95 256,683 C232.06,753.18 236.2533,835.1718 238.4633,862.8218 " fill="none" id="Controller-to-VOAPI" style="stroke:#181818;stroke-width:1.0;"/><path d="M247.4451,869.0478 A9,9 0 0 0 230.5844 870.3954" fill="none" style="stroke:#181818;stroke-width:1.5;"/></g><!--link ApplicationServiceAPI to ApplicationService--><g id="link_ApplicationServiceAPI_ApplicationService"><path d="M407.88,646.28 C399.75,662.61 381.28,699.7 367.79,726.79 " fill="none" id="ApplicationServiceAPI-ApplicationService" style="stroke:#181818;stroke-width:1.0;"/></g><!--link ApplicationService to P3--><g id="link_ApplicationService_P3"><path d="M392.4,792.12 C405.65,801.1 420.87,810.05 436,816 C526.58,851.6 577.68,789.16 652,852 C658.99,857.91 661.1,868.97 661.74,875.59 " fill="none" id="ApplicationService-P3" style="stroke:#181818;stroke-width:1.0;"/></g><!--link ApplicationService to VOAPI--><g id="link_ApplicationService_VOAPI"><path d="M322.57,792.16 C297.43,819.22 269.7767,848.9541 254.5667,865.3241 " fill="none" id="ApplicationService-to-VOAPI" style="stroke:#181818;stroke-width:1.0;"/><path d="M256.0509,876.1516 A9,9 0 0 0 243.6596 864.6383" fill="none" style="stroke:#181818;stroke-width:1.5;"/></g><!--reverse link RepoAPI to ApplicationService--><g id="link_RepoAPI_ApplicationService"><path d="M221.7158,649.5637 C234.4158,657.9137 249.3,668.11 268,683 C285.18,696.68 303.41,712.84 318.47,726.69 " fill="none" id="RepoAPI-backto-ApplicationService" style="stroke:#181818;stroke-width:1.0;"/><path d="M211.2859,652.8277 A9,9 0 0 0 220.5782 638.6944" fill="none" style="stroke:#181818;stroke-width:1.5;"/></g><!--link ApplicationService to ModelAPI--><g id="link_ApplicationService_ModelAPI"><path d="M352,792.16 C352,819.22 352,846.28 352,862.65 " fill="none" id="ApplicationService-to-ModelAPI" style="stroke:#181818;stroke-width:1.0;"/><path d="M360.4572,869.5718 A9,9 0 0 0 343.5428 869.5718" fill="none" style="stroke:#181818;stroke-width:1.5;"/></g><!--link DTO to DTOAPI--><g id="link_DTO_DTOAPI"><path d="M530.73,547.16 C534.77,574.22 540.31,611.28 542.75,627.65 " fill="none" id="DTO-DTOAPI" style="stroke:#181818;stroke-width:1.0;"/></g><!--link ModelAPI to DomainModelDDD--><g id="link_ModelAPI_DomainModelDDD"><path d="M348.15,891.28 C340.56,907.61 323.33,944.7 310.74,971.79 " fill="none" id="ModelAPI-DomainModelDDD" style="stroke:#181818;stroke-width:1.0;"/></g><!--link VOAPI to DomainModelDDD--><g id="link_VOAPI_DomainModelDDD"><path d="M243.85,891.28 C251.44,907.61 268.67,944.7 281.26,971.79 " fill="none" id="VOAPI-DomainModelDDD" style="stroke:#181818;stroke-width:1.0;"/></g><!--SRC=[ZLLBQzmm4BxxLmm- -MB8eySGsCGf15fsIPPSWs8hgQZNCfBS4ah-UqUMBEkrcvpM-kOzyysiuYCe3YzSANw0ZWdQAiQ7ec23ekALj1JApUw-1281VmDuKh_Em0dF8d5357aXaZgDvkPPgnGjFunye8E2yf6AFrJCKlC9LrTEV7sDhzjlSCi7HTX01GB_2e2H2yK6A66ssvsdq8M5-AGSTbaWUB-cfxqAtlSOSqbmXUP40tLT3Vpa7UtNUX2Q4LCMm2llEtHNVXVaGFzoyLi26Jfe1CFA9FmWxxfMNGA0rmJNAAFeV6lCG55NZ8UFsCy3bik6jzdUVXyr_D3v-ZdijoRkVfknIRHTCy9673Fr-hWPntdKhANIT7Bp20Zsh2MQU5QMxR_N96SQDYenUw0ZTxhwaJh6Yfsp_JQHUpD7ZVcLw3ojBfws4HbMjKr7HdMA22l_8Zf-SVvOdcIAYtT30VSypO8bKMy8S3D9N3Y9JgQUoaoglh8TcRa2oII_5lnETsaK30VyQUo67_0Ss6LiciPmS0Pd3A4JGJ4iJWZgMb-EtGNKKrqjfsbtYRZ0jpbcnR95jT5UdrLyAtoHPL4HxJ3wICcQwk3nIi0gl3M0cQt3HPk5s3uwMQiW7cHLFCU1tygoEG0HNPO0J8rc4BOyFqcFmDeil-M-qbJ7VOrSsDP6gDsv3FUqntpOd7Aj_oMoWYL6FaIr302EMViTmtkZUxMG9EIjJdXLpWXD7ly1]--></g></svg>