<?xml version="1.0" encoding="us-ascii" standalone="no"?><svg xmlns="http://www.w3.org/2000/svg" xmlns:xlink="http://www.w3.org/1999/xlink" contentStyleType="text/css" height="385px" preserveAspectRatio="none" style="width:591px;height:385px;background:#FFFFFF;" version="1.1" viewBox="0 0 591 385" width="591px" zoomAndPan="magnify"><defs/><g><rect fill="#FFFFFF" height="174.1094" style="stroke:#181818;stroke-width:1.0;" width="10" x="22.5" y="96.2188"/><rect fill="#FFFFFF" height="151.7578" style="stroke:#181818;stroke-width:1.0;" width="10" x="191.5" y="118.5703"/><rect fill="#FFFFFF" height="91.0547" style="stroke:#181818;stroke-width:1.0;" width="10" x="339.5" y="148.9219"/><rect fill="#FFFFFF" height="30.3516" style="stroke:#181818;stroke-width:1.0;" width="10" x="524.5" y="179.2734"/><line style="stroke:#181818;stroke-width:0.5;stroke-dasharray:5.0,5.0;" x1="27" x2="27" y1="86.2188" y2="288.3281"/><line style="stroke:#181818;stroke-width:0.5;stroke-dasharray:5.0,5.0;" x1="196" x2="196" y1="86.2188" y2="288.3281"/><line style="stroke:#181818;stroke-width:0.5;stroke-dasharray:5.0,5.0;" x1="344" x2="344" y1="86.2188" y2="288.3281"/><line style="stroke:#181818;stroke-width:0.5;stroke-dasharray:5.0,5.0;" x1="529" x2="529" y1="86.2188" y2="288.3281"/><text fill="#000000" font-family="sans-serif" font-size="14" lengthAdjust="spacing" textLength="39" x="5" y="83.1426">Admin</text><ellipse cx="27.5" cy="17.1094" fill="#E2E2F0" rx="8" ry="8" style="stroke:#181818;stroke-width:0.5;"/><path d="M27.5,25.1094 L27.5,52.1094 M14.5,33.1094 L40.5,33.1094 M27.5,52.1094 L14.5,67.1094 M27.5,52.1094 L40.5,67.1094 " fill="none" style="stroke:#181818;stroke-width:0.5;"/><text fill="#000000" font-family="sans-serif" font-size="14" lengthAdjust="spacing" textLength="39" x="5" y="301.8613">Admin</text><ellipse cx="27.5" cy="313.4375" fill="#E2E2F0" rx="8" ry="8" style="stroke:#181818;stroke-width:0.5;"/><path d="M27.5,321.4375 L27.5,348.4375 M14.5,329.4375 L40.5,329.4375 M27.5,348.4375 L14.5,363.4375 M27.5,348.4375 L40.5,363.4375 " fill="none" style="stroke:#181818;stroke-width:0.5;"/><rect fill="#E2E2F0" height="49.2188" rx="2.5" ry="2.5" style="stroke:#181818;stroke-width:0.5;" width="127" x="133" y="36"/><text fill="#000000" font-family="sans-serif" font-size="14" font-style="italic" lengthAdjust="spacing" textLength="78" x="157.5" y="57.5332">&#171;Controller&#187;</text><text fill="#000000" font-family="sans-serif" font-size="14" lengthAdjust="spacing" textLength="113" x="140" y="75.1426">PatientsController</text><rect fill="#E2E2F0" height="49.2188" rx="2.5" ry="2.5" style="stroke:#181818;stroke-width:0.5;" width="127" x="133" y="287.3281"/><text fill="#000000" font-family="sans-serif" font-size="14" font-style="italic" lengthAdjust="spacing" textLength="78" x="157.5" y="308.8613">&#171;Controller&#187;</text><text fill="#000000" font-family="sans-serif" font-size="14" lengthAdjust="spacing" textLength="113" x="140" y="326.4707">PatientsController</text><rect fill="#E2E2F0" height="49.2188" rx="2.5" ry="2.5" style="stroke:#181818;stroke-width:0.5;" width="105" x="292" y="36"/><text fill="#000000" font-family="sans-serif" font-size="14" font-style="italic" lengthAdjust="spacing" textLength="62" x="313.5" y="57.5332">&#171;Service&#187;</text><text fill="#000000" font-family="sans-serif" font-size="14" lengthAdjust="spacing" textLength="91" x="299" y="75.1426">PatientService</text><rect fill="#E2E2F0" height="49.2188" rx="2.5" ry="2.5" style="stroke:#181818;stroke-width:0.5;" width="105" x="292" y="287.3281"/><text fill="#000000" font-family="sans-serif" font-size="14" font-style="italic" lengthAdjust="spacing" textLength="62" x="313.5" y="308.8613">&#171;Service&#187;</text><text fill="#000000" font-family="sans-serif" font-size="14" lengthAdjust="spacing" textLength="91" x="299" y="326.4707">PatientService</text><text fill="#000000" font-family="sans-serif" font-size="14" font-style="italic" lengthAdjust="spacing" textLength="64" x="494.5" y="65.5332">&#171;Domain&#187;</text><text fill="#000000" font-family="sans-serif" font-size="14" lengthAdjust="spacing" textLength="115" x="469" y="83.1426">IPatientRepository</text><path d="M511.5,15 C511.5,5 529.5,5 529.5,5 C529.5,5 547.5,5 547.5,15 L547.5,41 C547.5,51 529.5,51 529.5,51 C529.5,51 511.5,51 511.5,41 L511.5,15 " fill="#E2E2F0" style="stroke:#181818;stroke-width:1.5;"/><path d="M511.5,15 C511.5,25 529.5,25 529.5,25 C529.5,25 547.5,25 547.5,15 " fill="none" style="stroke:#181818;stroke-width:1.5;"/><text fill="#000000" font-family="sans-serif" font-size="14" font-style="italic" lengthAdjust="spacing" textLength="64" x="494.5" y="301.8613">&#171;Domain&#187;</text><text fill="#000000" font-family="sans-serif" font-size="14" lengthAdjust="spacing" textLength="115" x="469" y="319.4707">IPatientRepository</text><path d="M511.5,332.5469 C511.5,322.5469 529.5,322.5469 529.5,322.5469 C529.5,322.5469 547.5,322.5469 547.5,332.5469 L547.5,358.5469 C547.5,368.5469 529.5,368.5469 529.5,368.5469 C529.5,368.5469 511.5,368.5469 511.5,358.5469 L511.5,332.5469 " fill="#E2E2F0" style="stroke:#181818;stroke-width:1.5;"/><path d="M511.5,332.5469 C511.5,342.5469 529.5,342.5469 529.5,342.5469 C529.5,342.5469 547.5,342.5469 547.5,332.5469 " fill="none" style="stroke:#181818;stroke-width:1.5;"/><rect fill="#FFFFFF" height="174.1094" style="stroke:#181818;stroke-width:1.0;" width="10" x="22.5" y="96.2188"/><rect fill="#FFFFFF" height="151.7578" style="stroke:#181818;stroke-width:1.0;" width="10" x="191.5" y="118.5703"/><rect fill="#FFFFFF" height="91.0547" style="stroke:#181818;stroke-width:1.0;" width="10" x="339.5" y="148.9219"/><rect fill="#FFFFFF" height="30.3516" style="stroke:#181818;stroke-width:1.0;" width="10" x="524.5" y="179.2734"/><polygon fill="#181818" points="179.5,114.5703,189.5,118.5703,179.5,122.5703,183.5,118.5703" style="stroke:#181818;stroke-width:1.0;"/><line style="stroke:#181818;stroke-width:1.0;" x1="32.5" x2="185.5" y1="118.5703" y2="118.5703"/><text fill="#000000" font-family="sans-serif" font-size="13" font-weight="bold" lengthAdjust="spacing" textLength="7" x="39.5" y="113.7139">1</text><text fill="#000000" font-family="sans-serif" font-size="13" lengthAdjust="spacing" textLength="129" x="50.5" y="113.7139">GET /api/patients/filter</text><polygon fill="#181818" points="327.5,144.9219,337.5,148.9219,327.5,152.9219,331.5,148.9219" style="stroke:#181818;stroke-width:1.0;"/><line style="stroke:#181818;stroke-width:1.0;" x1="201.5" x2="333.5" y1="148.9219" y2="148.9219"/><text fill="#000000" font-family="sans-serif" font-size="13" font-weight="bold" lengthAdjust="spacing" textLength="7" x="208.5" y="144.0654">2</text><text fill="#000000" font-family="sans-serif" font-size="13" lengthAdjust="spacing" textLength="108" x="219.5" y="144.0654">GetPatients(filters)</text><polygon fill="#181818" points="512.5,175.2734,522.5,179.2734,512.5,183.2734,516.5,179.2734" style="stroke:#181818;stroke-width:1.0;"/><line style="stroke:#181818;stroke-width:1.0;" x1="349.5" x2="518.5" y1="179.2734" y2="179.2734"/><text fill="#000000" font-family="sans-serif" font-size="13" font-weight="bold" lengthAdjust="spacing" textLength="7" x="356.5" y="174.417">3</text><text fill="#000000" font-family="sans-serif" font-size="13" lengthAdjust="spacing" textLength="145" x="367.5" y="174.417">GetPatientsAsync(filters)</text><polygon fill="#181818" points="360.5,205.625,350.5,209.625,360.5,213.625,356.5,209.625" style="stroke:#181818;stroke-width:1.0;"/><line style="stroke:#181818;stroke-width:1.0;stroke-dasharray:2.0,2.0;" x1="354.5" x2="528.5" y1="209.625" y2="209.625"/><text fill="#000000" font-family="sans-serif" font-size="13" font-weight="bold" lengthAdjust="spacing" textLength="7" x="366.5" y="204.7686">4</text><text fill="#000000" font-family="sans-serif" font-size="13" lengthAdjust="spacing" textLength="46" x="377.5" y="204.7686">patients</text><polygon fill="#181818" points="212.5,235.9766,202.5,239.9766,212.5,243.9766,208.5,239.9766" style="stroke:#181818;stroke-width:1.0;"/><line style="stroke:#181818;stroke-width:1.0;stroke-dasharray:2.0,2.0;" x1="206.5" x2="343.5" y1="239.9766" y2="239.9766"/><text fill="#000000" font-family="sans-serif" font-size="13" font-weight="bold" lengthAdjust="spacing" textLength="7" x="218.5" y="235.1201">5</text><text fill="#000000" font-family="sans-serif" font-size="13" lengthAdjust="spacing" textLength="66" x="229.5" y="235.1201">patientsDto</text><polygon fill="#181818" points="38.5,266.3281,28.5,270.3281,38.5,274.3281,34.5,270.3281" style="stroke:#181818;stroke-width:1.0;"/><line style="stroke:#181818;stroke-width:1.0;stroke-dasharray:2.0,2.0;" x1="32.5" x2="195.5" y1="270.3281" y2="270.3281"/><text fill="#000000" font-family="sans-serif" font-size="13" font-weight="bold" lengthAdjust="spacing" textLength="7" x="44.5" y="265.4717">6</text><text fill="#000000" font-family="sans-serif" font-size="13" lengthAdjust="spacing" textLength="44" x="55.5" y="265.4717">200 OK</text><!--SRC=[ZPB1QWCX443lViMmf_OGDlGOma9eGYazjBJzWSck1M5NHIU1_7tLrLMJ53edHttFcTd54obvcexSC8OzAGFDRfY4R00jX1NJQ4ZqGgCaQ3wG19TadvKaeyQHct0pfx3TvgJhxj9Vt9n5pmCPrmwBAySCI7X4ow5vZSGdryeALzubG3brt5vDAAJ3V0FYZCHZuH0ZPB3goYety7BuXXQrQ7LigVqH8xav96on5TXowAFOT_BKY3DpIcDwc9tsiG8NSsIgGn_9vRHbhvLwPo-ol- -ltiZypHqVXNxbdyjjfBdSO0F_ZtpfmLkhoIVndXJxmtizc7BKpZT_qGqyhTVm_iQku7oP5RlpFy5-0G00]--></g></svg>