<?xml version="1.0" encoding="us-ascii" standalone="no"?><svg xmlns="http://www.w3.org/2000/svg" xmlns:xlink="http://www.w3.org/1999/xlink" contentStyleType="text/css" height="563px" preserveAspectRatio="none" style="width:994px;height:563px;background:#FFFFFF;" version="1.1" viewBox="0 0 994 563" width="994px" zoomAndPan="magnify"><defs/><g><rect fill="#ADD8E6" height="551.75" style="stroke:#181818;stroke-width:0.5;" width="610" x="179.5" y="6"/><text fill="#000000" font-family="sans-serif" font-size="13" font-weight="bold" lengthAdjust="spacing" textLength="85" x="442" y="19.4951">&#171;system (C4)&#187;</text><text fill="#000000" font-family="sans-serif" font-size="13" font-weight="bold" lengthAdjust="spacing" textLength="57" x="456" y="35.8467">Frontend</text><rect fill="#DDDDDD" height="551.75" style="stroke:#181818;stroke-width:0.5;" width="197" x="791.5" y="6"/><text fill="#000000" font-family="sans-serif" font-size="13" font-weight="bold" lengthAdjust="spacing" textLength="85" x="847.5" y="19.4951">&#171;system (C4)&#187;</text><text fill="#000000" font-family="sans-serif" font-size="13" font-weight="bold" lengthAdjust="spacing" textLength="175" x="802.5" y="35.8467">Backend Data Management</text><rect fill="#FFFFFF" height="356.2188" style="stroke:#181818;stroke-width:1.0;" width="10" x="22.5" y="102.9219"/><rect fill="#FFFFFF" height="30.3516" style="stroke:#181818;stroke-width:1.0;" width="10" x="244.5" y="125.2734"/><rect fill="#FFFFFF" height="273.1641" style="stroke:#181818;stroke-width:1.0;" width="10" x="244.5" y="185.9766"/><rect fill="#FFFFFF" height="212.4609" style="stroke:#181818;stroke-width:1.0;" width="10" x="408.5" y="216.3281"/><rect fill="#FFFFFF" height="151.7578" style="stroke:#181818;stroke-width:1.0;" width="10" x="572.5" y="246.6797"/><rect fill="#FFFFFF" height="91.0547" style="stroke:#181818;stroke-width:1.0;" width="10" x="714.5" y="277.0313"/><rect fill="#FFFFFF" height="30.3516" style="stroke:#181818;stroke-width:1.0;" width="10" x="885" y="307.3828"/><line style="stroke:#181818;stroke-width:0.5;stroke-dasharray:5.0,5.0;" x1="27" x2="27" y1="92.9219" y2="477.1406"/><line style="stroke:#181818;stroke-width:0.5;stroke-dasharray:5.0,5.0;" x1="249.5" x2="249.5" y1="92.9219" y2="477.1406"/><line style="stroke:#181818;stroke-width:0.5;stroke-dasharray:5.0,5.0;" x1="413.5" x2="413.5" y1="92.9219" y2="477.1406"/><line style="stroke:#181818;stroke-width:0.5;stroke-dasharray:5.0,5.0;" x1="577.5" x2="577.5" y1="92.9219" y2="477.1406"/><line style="stroke:#181818;stroke-width:0.5;stroke-dasharray:5.0,5.0;" x1="719.5" x2="719.5" y1="92.9219" y2="477.1406"/><line style="stroke:#181818;stroke-width:0.5;stroke-dasharray:5.0,5.0;" x1="889.5" x2="889.5" y1="92.9219" y2="477.1406"/><text fill="#000000" font-family="sans-serif" font-size="14" lengthAdjust="spacing" textLength="39" x="5" y="89.8457">Admin</text><ellipse cx="27.5" cy="23.8125" fill="#E2E2F0" rx="8" ry="8" style="stroke:#181818;stroke-width:0.5;"/><path d="M27.5,31.8125 L27.5,58.8125 M14.5,39.8125 L40.5,39.8125 M27.5,58.8125 L14.5,73.8125 M27.5,58.8125 L40.5,73.8125 " fill="none" style="stroke:#181818;stroke-width:0.5;"/><text fill="#000000" font-family="sans-serif" font-size="14" lengthAdjust="spacing" textLength="39" x="5" y="490.6738">Admin</text><ellipse cx="27.5" cy="502.25" fill="#E2E2F0" rx="8" ry="8" style="stroke:#181818;stroke-width:0.5;"/><path d="M27.5,510.25 L27.5,537.25 M14.5,518.25 L40.5,518.25 M27.5,537.25 L14.5,552.25 M27.5,537.25 L40.5,552.25 " fill="none" style="stroke:#181818;stroke-width:0.5;"/><rect fill="#E2E2F0" height="49.2188" rx="2.5" ry="2.5" style="stroke:#181818;stroke-width:0.5;" width="132" x="183.5" y="42.7031"/><text fill="#000000" font-family="sans-serif" font-size="14" font-style="italic" lengthAdjust="spacing" textLength="118" x="190.5" y="64.2363">&#171;component (C4)&#187;</text><text fill="#000000" font-family="sans-serif" font-size="14" lengthAdjust="spacing" textLength="89" x="205" y="81.8457">UI Component</text><rect fill="#E2E2F0" height="49.2188" rx="2.5" ry="2.5" style="stroke:#181818;stroke-width:0.5;" width="132" x="183.5" y="476.1406"/><text fill="#000000" font-family="sans-serif" font-size="14" font-style="italic" lengthAdjust="spacing" textLength="118" x="190.5" y="497.6738">&#171;component (C4)&#187;</text><text fill="#000000" font-family="sans-serif" font-size="14" lengthAdjust="spacing" textLength="89" x="205" y="515.2832">UI Component</text><rect fill="#E2E2F0" height="49.2188" rx="2.5" ry="2.5" style="stroke:#181818;stroke-width:0.5;" width="132" x="347.5" y="42.7031"/><text fill="#000000" font-family="sans-serif" font-size="14" font-style="italic" lengthAdjust="spacing" textLength="118" x="354.5" y="64.2363">&#171;component (C4)&#187;</text><text fill="#000000" font-family="sans-serif" font-size="14" lengthAdjust="spacing" textLength="73" x="377" y="81.8457">Component</text><rect fill="#E2E2F0" height="49.2188" rx="2.5" ry="2.5" style="stroke:#181818;stroke-width:0.5;" width="132" x="347.5" y="476.1406"/><text fill="#000000" font-family="sans-serif" font-size="14" font-style="italic" lengthAdjust="spacing" textLength="118" x="354.5" y="497.6738">&#171;component (C4)&#187;</text><text fill="#000000" font-family="sans-serif" font-size="14" lengthAdjust="spacing" textLength="73" x="377" y="515.2832">Component</text><rect fill="#E2E2F0" height="49.2188" rx="2.5" ry="2.5" style="stroke:#181818;stroke-width:0.5;" width="132" x="511.5" y="42.7031"/><text fill="#000000" font-family="sans-serif" font-size="14" font-style="italic" lengthAdjust="spacing" textLength="118" x="518.5" y="64.2363">&#171;component (C4)&#187;</text><text fill="#000000" font-family="sans-serif" font-size="14" lengthAdjust="spacing" textLength="47" x="554" y="81.8457">Service</text><rect fill="#E2E2F0" height="49.2188" rx="2.5" ry="2.5" style="stroke:#181818;stroke-width:0.5;" width="132" x="511.5" y="476.1406"/><text fill="#000000" font-family="sans-serif" font-size="14" font-style="italic" lengthAdjust="spacing" textLength="118" x="518.5" y="497.6738">&#171;component (C4)&#187;</text><text fill="#000000" font-family="sans-serif" font-size="14" lengthAdjust="spacing" textLength="47" x="554" y="515.2832">Service</text><rect fill="#E2E2F0" height="49.2188" rx="2.5" ry="2.5" style="stroke:#181818;stroke-width:0.5;" width="132" x="653.5" y="42.7031"/><text fill="#000000" font-family="sans-serif" font-size="14" font-style="italic" lengthAdjust="spacing" textLength="118" x="660.5" y="64.2363">&#171;component (C4)&#187;</text><text fill="#000000" font-family="sans-serif" font-size="14" lengthAdjust="spacing" textLength="36" x="701.5" y="81.8457">HTTP</text><rect fill="#E2E2F0" height="49.2188" rx="2.5" ry="2.5" style="stroke:#181818;stroke-width:0.5;" width="132" x="653.5" y="476.1406"/><text fill="#000000" font-family="sans-serif" font-size="14" font-style="italic" lengthAdjust="spacing" textLength="118" x="660.5" y="497.6738">&#171;component (C4)&#187;</text><text fill="#000000" font-family="sans-serif" font-size="14" lengthAdjust="spacing" textLength="36" x="701.5" y="515.2832">HTTP</text><rect fill="#E2E2F0" height="49.2188" rx="2.5" ry="2.5" style="stroke:#181818;stroke-width:0.5;" width="189" x="795.5" y="42.7031"/><text fill="#000000" font-family="sans-serif" font-size="14" font-style="italic" lengthAdjust="spacing" textLength="118" x="831" y="64.2363">&#171;component (C4)&#187;</text><text fill="#000000" font-family="sans-serif" font-size="14" lengthAdjust="spacing" textLength="175" x="802.5" y="81.8457">Backend Data Management</text><rect fill="#E2E2F0" height="49.2188" rx="2.5" ry="2.5" style="stroke:#181818;stroke-width:0.5;" width="189" x="795.5" y="476.1406"/><text fill="#000000" font-family="sans-serif" font-size="14" font-style="italic" lengthAdjust="spacing" textLength="118" x="831" y="497.6738">&#171;component (C4)&#187;</text><text fill="#000000" font-family="sans-serif" font-size="14" lengthAdjust="spacing" textLength="175" x="802.5" y="515.2832">Backend Data Management</text><rect fill="#FFFFFF" height="356.2188" style="stroke:#181818;stroke-width:1.0;" width="10" x="22.5" y="102.9219"/><rect fill="#FFFFFF" height="30.3516" style="stroke:#181818;stroke-width:1.0;" width="10" x="244.5" y="125.2734"/><rect fill="#FFFFFF" height="273.1641" style="stroke:#181818;stroke-width:1.0;" width="10" x="244.5" y="185.9766"/><rect fill="#FFFFFF" height="212.4609" style="stroke:#181818;stroke-width:1.0;" width="10" x="408.5" y="216.3281"/><rect fill="#FFFFFF" height="151.7578" style="stroke:#181818;stroke-width:1.0;" width="10" x="572.5" y="246.6797"/><rect fill="#FFFFFF" height="91.0547" style="stroke:#181818;stroke-width:1.0;" width="10" x="714.5" y="277.0313"/><rect fill="#FFFFFF" height="30.3516" style="stroke:#181818;stroke-width:1.0;" width="10" x="885" y="307.3828"/><polygon fill="#181818" points="232.5,121.2734,242.5,125.2734,232.5,129.2734,236.5,125.2734" style="stroke:#181818;stroke-width:1.0;"/><line style="stroke:#181818;stroke-width:1.0;" x1="32.5" x2="238.5" y1="125.2734" y2="125.2734"/><text fill="#000000" font-family="sans-serif" font-size="13" font-weight="bold" lengthAdjust="spacing" textLength="7" x="42" y="120.417">1</text><text fill="#000000" font-family="sans-serif" font-size="13" lengthAdjust="spacing" textLength="182" x="53" y="120.417">asks to deactivate a staff profile</text><polygon fill="#181818" points="43.5,151.625,33.5,155.625,43.5,159.625,39.5,155.625" style="stroke:#181818;stroke-width:1.0;"/><line style="stroke:#181818;stroke-width:1.0;stroke-dasharray:2.0,2.0;" x1="37.5" x2="248.5" y1="155.625" y2="155.625"/><text fill="#000000" font-family="sans-serif" font-size="13" font-weight="bold" lengthAdjust="spacing" textLength="7" x="91" y="150.7686">2</text><text fill="#000000" font-family="sans-serif" font-size="13" lengthAdjust="spacing" textLength="89" x="102" y="150.7686">asks to confirm</text><polygon fill="#181818" points="232.5,181.9766,242.5,185.9766,232.5,189.9766,236.5,185.9766" style="stroke:#181818;stroke-width:1.0;"/><line style="stroke:#181818;stroke-width:1.0;" x1="32.5" x2="238.5" y1="185.9766" y2="185.9766"/><text fill="#000000" font-family="sans-serif" font-size="13" font-weight="bold" lengthAdjust="spacing" textLength="7" x="108.5" y="181.1201">3</text><text fill="#000000" font-family="sans-serif" font-size="13" lengthAdjust="spacing" textLength="49" x="119.5" y="181.1201">confirms</text><polygon fill="#181818" points="396.5,212.3281,406.5,216.3281,396.5,220.3281,400.5,216.3281" style="stroke:#181818;stroke-width:1.0;"/><line style="stroke:#181818;stroke-width:1.0;" x1="254.5" x2="402.5" y1="216.3281" y2="216.3281"/><text fill="#000000" font-family="sans-serif" font-size="13" font-weight="bold" lengthAdjust="spacing" textLength="7" x="264" y="211.4717">4</text><text fill="#000000" font-family="sans-serif" font-size="13" lengthAdjust="spacing" textLength="124" x="275" y="211.4717">deactivate staff profile</text><polygon fill="#181818" points="560.5,242.6797,570.5,246.6797,560.5,250.6797,564.5,246.6797" style="stroke:#181818;stroke-width:1.0;"/><line style="stroke:#181818;stroke-width:1.0;" x1="418.5" x2="566.5" y1="246.6797" y2="246.6797"/><text fill="#000000" font-family="sans-serif" font-size="13" font-weight="bold" lengthAdjust="spacing" textLength="7" x="428" y="241.8232">5</text><text fill="#000000" font-family="sans-serif" font-size="13" lengthAdjust="spacing" textLength="124" x="439" y="241.8232">deactivate staff profile</text><polygon fill="#181818" points="702.5,273.0313,712.5,277.0313,702.5,281.0313,706.5,277.0313" style="stroke:#181818;stroke-width:1.0;"/><line style="stroke:#181818;stroke-width:1.0;" x1="582.5" x2="708.5" y1="277.0313" y2="277.0313"/><text fill="#000000" font-family="sans-serif" font-size="13" font-weight="bold" lengthAdjust="spacing" textLength="7" x="602" y="272.1748">6</text><text fill="#000000" font-family="sans-serif" font-size="13" lengthAdjust="spacing" textLength="82" x="613" y="272.1748">delete('/staffs')</text><polygon fill="#181818" points="873,303.3828,883,307.3828,873,311.3828,877,307.3828" style="stroke:#181818;stroke-width:1.0;"/><line style="stroke:#181818;stroke-width:1.0;" x1="724.5" x2="879" y1="307.3828" y2="307.3828"/><text fill="#000000" font-family="sans-serif" font-size="13" font-weight="bold" lengthAdjust="spacing" textLength="7" x="743.75" y="302.5264">7</text><text fill="#000000" font-family="sans-serif" font-size="13" lengthAdjust="spacing" textLength="111" x="754.75" y="302.5264">DELETE /staffs/{id}</text><polygon fill="#181818" points="735.5,333.7344,725.5,337.7344,735.5,341.7344,731.5,337.7344" style="stroke:#181818;stroke-width:1.0;"/><line style="stroke:#181818;stroke-width:1.0;stroke-dasharray:2.0,2.0;" x1="729.5" x2="889" y1="337.7344" y2="337.7344"/><text fill="#000000" font-family="sans-serif" font-size="13" font-weight="bold" lengthAdjust="spacing" textLength="7" x="773.25" y="332.8779">8</text><text fill="#000000" font-family="sans-serif" font-size="13" lengthAdjust="spacing" textLength="57" x="784.25" y="332.8779">200 (staff)</text><polygon fill="#181818" points="593.5,364.0859,583.5,368.0859,593.5,372.0859,589.5,368.0859" style="stroke:#181818;stroke-width:1.0;"/><line style="stroke:#181818;stroke-width:1.0;stroke-dasharray:2.0,2.0;" x1="587.5" x2="718.5" y1="368.0859" y2="368.0859"/><text fill="#000000" font-family="sans-serif" font-size="13" font-weight="bold" lengthAdjust="spacing" textLength="7" x="633.5" y="363.2295">9</text><text fill="#000000" font-family="sans-serif" font-size="13" lengthAdjust="spacing" textLength="24" x="644.5" y="363.2295">staff</text><polygon fill="#181818" points="429.5,394.4375,419.5,398.4375,429.5,402.4375,425.5,398.4375" style="stroke:#181818;stroke-width:1.0;"/><line style="stroke:#181818;stroke-width:1.0;stroke-dasharray:2.0,2.0;" x1="423.5" x2="576.5" y1="398.4375" y2="398.4375"/><text fill="#000000" font-family="sans-serif" font-size="13" font-weight="bold" lengthAdjust="spacing" textLength="14" x="477" y="393.5811">10</text><text fill="#000000" font-family="sans-serif" font-size="13" lengthAdjust="spacing" textLength="24" x="495" y="393.5811">staff</text><polygon fill="#181818" points="265.5,424.7891,255.5,428.7891,265.5,432.7891,261.5,428.7891" style="stroke:#181818;stroke-width:1.0;"/><line style="stroke:#181818;stroke-width:1.0;stroke-dasharray:2.0,2.0;" x1="259.5" x2="412.5" y1="428.7891" y2="428.7891"/><text fill="#000000" font-family="sans-serif" font-size="13" font-weight="bold" lengthAdjust="spacing" textLength="14" x="313" y="423.9326">11</text><text fill="#000000" font-family="sans-serif" font-size="13" lengthAdjust="spacing" textLength="24" x="331" y="423.9326">staff</text><polygon fill="#181818" points="38.5,455.1406,28.5,459.1406,38.5,463.1406,34.5,459.1406" style="stroke:#181818;stroke-width:1.0;"/><line style="stroke:#181818;stroke-width:1.0;stroke-dasharray:2.0,2.0;" x1="32.5" x2="248.5" y1="459.1406" y2="459.1406"/><text fill="#000000" font-family="sans-serif" font-size="13" font-weight="bold" lengthAdjust="spacing" textLength="14" x="56" y="454.2842">12</text><text fill="#000000" font-family="sans-serif" font-size="13" lengthAdjust="spacing" textLength="147" x="74" y="454.2842">shows success message</text><!--SRC=[bPJFJy8m5CVl-ojUvW4uB13ZYImayiDeWeaHzEIbbWuQjfQi7MAC_xkl7OwE5G8zZD6-x-VRllSwKcWfYkoJvO5QSx4XESbWp19If7hETle-vKkHCQ61uWEZ2DKoX_j5nWKG1Q5z2uDFkOCmZjMtqYo3zkYkCnXyY8TSeaWimfifNwxqC2rO03ZGHdFADmIv8vbjf43usvC5uayr5K8Sq_y_U-ffW9LVfvszlblLZELRJjb5ciVv_CMAp8jNWIS6J4Xm8Yj3GjScP4mqWMSYo9AP38T1tMSVPg8EGTRu5E3iNh1mV4iqAsjdJrLMCHhKQj17YxK2BM71AWq1fKcIm2QN2K_B8bQBZjekcE4I8tGehGviAaN2yyp6Epx7g1CxtAlLbVjmC0XnR9k7yuFjTBLUunkwwQOBk3KsQceBPXWEucoZ6LxAD6ktkfQcMfr6V0KpYiQg6HQ5I7zFzM4ycKxc4zXRT7_uujVBgPoy8A_43BzjT3ZZRQy7RMlUyKASd5xkN1wwgel51sV8tkpPMXnrJfFaK8uBwdH8eu_h8DyzS6v174N7yfNyKg0AIfbIaE43qt7kIZdJvLVW3m00]--></g></svg>