<?xml version="1.0" encoding="us-ascii" standalone="no"?><svg xmlns="http://www.w3.org/2000/svg" xmlns:xlink="http://www.w3.org/1999/xlink" contentStyleType="text/css" height="602px" preserveAspectRatio="none" style="width:1543px;height:602px;background:#FFFFFF;" version="1.1" viewBox="0 0 1543 602" width="1543px" zoomAndPan="magnify"><defs/><g><rect fill="#FFFFFF" height="390.5703" style="stroke:#181818;stroke-width:1.0;" width="10" x="37.5" y="96.2188"/><rect fill="#FFFFFF" height="368.2188" style="stroke:#181818;stroke-width:1.0;" width="10" x="263.5" y="118.5703"/><rect fill="#FFFFFF" height="315.5156" style="stroke:#181818;stroke-width:1.0;" width="10" x="446.5" y="148.9219"/><rect fill="#FFFFFF" height="30.3516" style="stroke:#181818;stroke-width:1.0;" width="10" x="1273.5" y="388.7344"/><rect fill="#FFFFFF" height="30.3516" style="stroke:#181818;stroke-width:1.0;" width="10" x="1435" y="179.2734"/><rect fill="none" height="232.8125" style="stroke:#000000;stroke-width:1.5;" width="1526" x="10" y="224.625"/><line style="stroke:#181818;stroke-width:0.5;stroke-dasharray:5.0,5.0;" x1="42" x2="42" y1="86.2188" y2="504.7891"/><line style="stroke:#181818;stroke-width:0.5;stroke-dasharray:5.0,5.0;" x1="268.5" x2="268.5" y1="86.2188" y2="504.7891"/><line style="stroke:#181818;stroke-width:0.5;stroke-dasharray:5.0,5.0;" x1="451.5" x2="451.5" y1="86.2188" y2="504.7891"/><line style="stroke:#181818;stroke-width:0.5;stroke-dasharray:5.0,5.0;" x1="593.5" x2="593.5" y1="86.2188" y2="504.7891"/><line style="stroke:#181818;stroke-width:0.5;stroke-dasharray:5.0,5.0;" x1="1278" x2="1278" y1="86.2188" y2="504.7891"/><line style="stroke:#181818;stroke-width:0.5;stroke-dasharray:5.0,5.0;" x1="1440" x2="1440" y1="86.2188" y2="504.7891"/><text fill="#000000" font-family="sans-serif" font-size="14" lengthAdjust="spacing" textLength="39" x="20" y="83.1426">Admin</text><ellipse cx="42.5" cy="17.1094" fill="#E2E2F0" rx="8" ry="8" style="stroke:#181818;stroke-width:0.5;"/><path d="M42.5,25.1094 L42.5,52.1094 M29.5,33.1094 L55.5,33.1094 M42.5,52.1094 L29.5,67.1094 M42.5,52.1094 L55.5,67.1094 " fill="none" style="stroke:#181818;stroke-width:0.5;"/><text fill="#000000" font-family="sans-serif" font-size="14" lengthAdjust="spacing" textLength="39" x="20" y="518.3223">Admin</text><ellipse cx="42.5" cy="529.8984" fill="#E2E2F0" rx="8" ry="8" style="stroke:#181818;stroke-width:0.5;"/><path d="M42.5,537.8984 L42.5,564.8984 M29.5,545.8984 L55.5,545.8984 M42.5,564.8984 L29.5,579.8984 M42.5,564.8984 L55.5,579.8984 " fill="none" style="stroke:#181818;stroke-width:0.5;"/><rect fill="#E2E2F0" height="49.2188" rx="2.5" ry="2.5" style="stroke:#181818;stroke-width:0.5;" width="178" x="179.5" y="36"/><text fill="#000000" font-family="sans-serif" font-size="14" font-style="italic" lengthAdjust="spacing" textLength="78" x="229.5" y="57.5332">&#171;Controller&#187;</text><text fill="#000000" font-family="sans-serif" font-size="14" lengthAdjust="spacing" textLength="164" x="186.5" y="75.1426">OperationTypesController</text><rect fill="#E2E2F0" height="49.2188" rx="2.5" ry="2.5" style="stroke:#181818;stroke-width:0.5;" width="178" x="179.5" y="503.7891"/><text fill="#000000" font-family="sans-serif" font-size="14" font-style="italic" lengthAdjust="spacing" textLength="78" x="229.5" y="525.3223">&#171;Controller&#187;</text><text fill="#000000" font-family="sans-serif" font-size="14" lengthAdjust="spacing" textLength="164" x="186.5" y="542.9316">OperationTypesController</text><rect fill="#E2E2F0" height="49.2188" rx="2.5" ry="2.5" style="stroke:#181818;stroke-width:0.5;" width="156" x="373.5" y="36"/><text fill="#000000" font-family="sans-serif" font-size="14" font-style="italic" lengthAdjust="spacing" textLength="62" x="420.5" y="57.5332">&#171;Service&#187;</text><text fill="#000000" font-family="sans-serif" font-size="14" lengthAdjust="spacing" textLength="142" x="380.5" y="75.1426">OperationTypeService</text><rect fill="#E2E2F0" height="49.2188" rx="2.5" ry="2.5" style="stroke:#181818;stroke-width:0.5;" width="156" x="373.5" y="503.7891"/><text fill="#000000" font-family="sans-serif" font-size="14" font-style="italic" lengthAdjust="spacing" textLength="62" x="420.5" y="525.3223">&#171;Service&#187;</text><text fill="#000000" font-family="sans-serif" font-size="14" lengthAdjust="spacing" textLength="142" x="380.5" y="542.9316">OperationTypeService</text><rect fill="#E2E2F0" height="49.2188" rx="2.5" ry="2.5" style="stroke:#181818;stroke-width:0.5;" width="109" x="539.5" y="36"/><text fill="#000000" font-family="sans-serif" font-size="14" font-style="italic" lengthAdjust="spacing" textLength="64" x="562" y="57.5332">&#171;Domain&#187;</text><text fill="#000000" font-family="sans-serif" font-size="14" lengthAdjust="spacing" textLength="95" x="546.5" y="75.1426">OperationType</text><rect fill="#E2E2F0" height="49.2188" rx="2.5" ry="2.5" style="stroke:#181818;stroke-width:0.5;" width="109" x="539.5" y="503.7891"/><text fill="#000000" font-family="sans-serif" font-size="14" font-style="italic" lengthAdjust="spacing" textLength="64" x="562" y="525.3223">&#171;Domain&#187;</text><text fill="#000000" font-family="sans-serif" font-size="14" lengthAdjust="spacing" textLength="95" x="546.5" y="542.9316">OperationType</text><rect fill="#E2E2F0" height="49.2188" rx="2.5" ry="2.5" style="stroke:#181818;stroke-width:0.5;" width="131" x="1213" y="36"/><text fill="#000000" font-family="sans-serif" font-size="14" font-style="italic" lengthAdjust="spacing" textLength="64" x="1246.5" y="57.5332">&#171;Domain&#187;</text><text fill="#000000" font-family="sans-serif" font-size="14" lengthAdjust="spacing" textLength="117" x="1220" y="75.1426">OperationTypeDto</text><rect fill="#E2E2F0" height="49.2188" rx="2.5" ry="2.5" style="stroke:#181818;stroke-width:0.5;" width="131" x="1213" y="503.7891"/><text fill="#000000" font-family="sans-serif" font-size="14" font-style="italic" lengthAdjust="spacing" textLength="64" x="1246.5" y="525.3223">&#171;Domain&#187;</text><text fill="#000000" font-family="sans-serif" font-size="14" lengthAdjust="spacing" textLength="117" x="1220" y="542.9316">OperationTypeDto</text><text fill="#000000" font-family="sans-serif" font-size="14" font-style="italic" lengthAdjust="spacing" textLength="64" x="1405" y="65.5332">&#171;Domain&#187;</text><text fill="#000000" font-family="sans-serif" font-size="14" lengthAdjust="spacing" textLength="166" x="1354" y="83.1426">IOperationTypeRepository</text><path d="M1422,15 C1422,5 1440,5 1440,5 C1440,5 1458,5 1458,15 L1458,41 C1458,51 1440,51 1440,51 C1440,51 1422,51 1422,41 L1422,15 " fill="#E2E2F0" style="stroke:#181818;stroke-width:1.5;"/><path d="M1422,15 C1422,25 1440,25 1440,25 C1440,25 1458,25 1458,15 " fill="none" style="stroke:#181818;stroke-width:1.5;"/><text fill="#000000" font-family="sans-serif" font-size="14" font-style="italic" lengthAdjust="spacing" textLength="64" x="1405" y="518.3223">&#171;Domain&#187;</text><text fill="#000000" font-family="sans-serif" font-size="14" lengthAdjust="spacing" textLength="166" x="1354" y="535.9316">IOperationTypeRepository</text><path d="M1422,549.0078 C1422,539.0078 1440,539.0078 1440,539.0078 C1440,539.0078 1458,539.0078 1458,549.0078 L1458,575.0078 C1458,585.0078 1440,585.0078 1440,585.0078 C1440,585.0078 1422,585.0078 1422,575.0078 L1422,549.0078 " fill="#E2E2F0" style="stroke:#181818;stroke-width:1.5;"/><path d="M1422,549.0078 C1422,559.0078 1440,559.0078 1440,559.0078 C1440,559.0078 1458,559.0078 1458,549.0078 " fill="none" style="stroke:#181818;stroke-width:1.5;"/><rect fill="#FFFFFF" height="390.5703" style="stroke:#181818;stroke-width:1.0;" width="10" x="37.5" y="96.2188"/><rect fill="#FFFFFF" height="368.2188" style="stroke:#181818;stroke-width:1.0;" width="10" x="263.5" y="118.5703"/><rect fill="#FFFFFF" height="315.5156" style="stroke:#181818;stroke-width:1.0;" width="10" x="446.5" y="148.9219"/><rect fill="#FFFFFF" height="30.3516" style="stroke:#181818;stroke-width:1.0;" width="10" x="1273.5" y="388.7344"/><rect fill="#FFFFFF" height="30.3516" style="stroke:#181818;stroke-width:1.0;" width="10" x="1435" y="179.2734"/><polygon fill="#181818" points="251.5,114.5703,261.5,118.5703,251.5,122.5703,255.5,118.5703" style="stroke:#181818;stroke-width:1.0;"/><line style="stroke:#181818;stroke-width:1.0;" x1="47.5" x2="257.5" y1="118.5703" y2="118.5703"/><text fill="#000000" font-family="sans-serif" font-size="13" font-weight="bold" lengthAdjust="spacing" textLength="7" x="54.5" y="113.7139">1</text><text fill="#000000" font-family="sans-serif" font-size="13" lengthAdjust="spacing" textLength="186" x="65.5" y="113.7139">DELETE /api/operationtypes/{id}</text><polygon fill="#181818" points="434.5,144.9219,444.5,148.9219,434.5,152.9219,438.5,148.9219" style="stroke:#181818;stroke-width:1.0;"/><line style="stroke:#181818;stroke-width:1.0;" x1="273.5" x2="440.5" y1="148.9219" y2="148.9219"/><text fill="#000000" font-family="sans-serif" font-size="13" font-weight="bold" lengthAdjust="spacing" textLength="7" x="280.5" y="144.0654">2</text><text fill="#000000" font-family="sans-serif" font-size="13" lengthAdjust="spacing" textLength="101" x="291.5" y="144.0654">RemoveAsync(id)</text><polygon fill="#181818" points="1423,175.2734,1433,179.2734,1423,183.2734,1427,179.2734" style="stroke:#181818;stroke-width:1.0;"/><line style="stroke:#181818;stroke-width:1.0;" x1="456.5" x2="1429" y1="179.2734" y2="179.2734"/><text fill="#000000" font-family="sans-serif" font-size="13" font-weight="bold" lengthAdjust="spacing" textLength="7" x="463.5" y="174.417">3</text><text fill="#000000" font-family="sans-serif" font-size="13" lengthAdjust="spacing" textLength="65" x="474.5" y="174.417">GetById(id)</text><polygon fill="#181818" points="467.5,205.625,457.5,209.625,467.5,213.625,463.5,209.625" style="stroke:#181818;stroke-width:1.0;"/><line style="stroke:#181818;stroke-width:1.0;stroke-dasharray:2.0,2.0;" x1="461.5" x2="1439" y1="209.625" y2="209.625"/><text fill="#000000" font-family="sans-serif" font-size="13" font-weight="bold" lengthAdjust="spacing" textLength="7" x="473.5" y="204.7686">4</text><text fill="#000000" font-family="sans-serif" font-size="13" lengthAdjust="spacing" textLength="81" x="484.5" y="204.7686">operationType</text><path d="M10,224.625 L71,224.625 L71,232.9766 L61,242.9766 L10,242.9766 L10,224.625 " fill="#EEEEEE" style="stroke:#000000;stroke-width:1.5;"/><rect fill="none" height="232.8125" style="stroke:#000000;stroke-width:1.5;" width="1526" x="10" y="224.625"/><text fill="#000000" font-family="sans-serif" font-size="13" font-weight="bold" lengthAdjust="spacing" textLength="16" x="25" y="239.1201">alt</text><text fill="#000000" font-family="sans-serif" font-size="11" font-weight="bold" lengthAdjust="spacing" textLength="126" x="86" y="238.0439">[operationType == null]</text><polygon fill="#181818" points="284.5,261.3281,274.5,265.3281,284.5,269.3281,280.5,265.3281" style="stroke:#181818;stroke-width:1.0;"/><line style="stroke:#181818;stroke-width:1.0;stroke-dasharray:2.0,2.0;" x1="278.5" x2="445.5" y1="265.3281" y2="265.3281"/><text fill="#000000" font-family="sans-serif" font-size="13" font-weight="bold" lengthAdjust="spacing" textLength="7" x="290.5" y="260.4717">5</text><text fill="#000000" font-family="sans-serif" font-size="13" lengthAdjust="spacing" textLength="138" x="301.5" y="260.4717">NullReferenceException</text><polygon fill="#181818" points="58.5,291.6797,48.5,295.6797,58.5,299.6797,54.5,295.6797" style="stroke:#181818;stroke-width:1.0;"/><line style="stroke:#181818;stroke-width:1.0;stroke-dasharray:2.0,2.0;" x1="52.5" x2="262.5" y1="295.6797" y2="295.6797"/><text fill="#000000" font-family="sans-serif" font-size="13" font-weight="bold" lengthAdjust="spacing" textLength="7" x="64.5" y="290.8232">6</text><text fill="#000000" font-family="sans-serif" font-size="13" lengthAdjust="spacing" textLength="85" x="75.5" y="290.8232">404 Not Found</text><line style="stroke:#000000;stroke-width:1.0;stroke-dasharray:2.0,2.0;" x1="10" x2="1536" y1="304.6797" y2="304.6797"/><polygon fill="#181818" points="582,324.0313,592,328.0313,582,332.0313,586,328.0313" style="stroke:#181818;stroke-width:1.0;"/><line style="stroke:#181818;stroke-width:1.0;" x1="456.5" x2="588" y1="328.0313" y2="328.0313"/><text fill="#000000" font-family="sans-serif" font-size="13" font-weight="bold" lengthAdjust="spacing" textLength="7" x="463.5" y="323.1748">7</text><text fill="#000000" font-family="sans-serif" font-size="13" lengthAdjust="spacing" textLength="49" x="474.5" y="323.1748">disable()</text><polygon fill="#181818" points="1428,354.3828,1438,358.3828,1428,362.3828,1432,358.3828" style="stroke:#181818;stroke-width:1.0;"/><line style="stroke:#181818;stroke-width:1.0;" x1="456.5" x2="1434" y1="358.3828" y2="358.3828"/><text fill="#000000" font-family="sans-serif" font-size="13" font-weight="bold" lengthAdjust="spacing" textLength="7" x="463.5" y="353.5264">8</text><text fill="#000000" font-family="sans-serif" font-size="13" lengthAdjust="spacing" textLength="167" x="474.5" y="353.5264">UpdateAsync(operationType)</text><polygon fill="#181818" points="1261.5,384.7344,1271.5,388.7344,1261.5,392.7344,1265.5,388.7344" style="stroke:#181818;stroke-width:1.0;"/><line style="stroke:#181818;stroke-width:1.0;" x1="456.5" x2="1267.5" y1="388.7344" y2="388.7344"/><text fill="#000000" font-family="sans-serif" font-size="13" font-weight="bold" lengthAdjust="spacing" textLength="7" x="463.5" y="383.8779">9</text><text fill="#000000" font-family="sans-serif" font-size="13" lengthAdjust="spacing" textLength="787" x="474.5" y="383.8779">create(OperationTypeId,Name,EstimatedDuration,AnesthesiaTime,CleaningTime,SurgeryTime,OperationTypeStatus,StaffSpecializations)</text><polygon fill="#181818" points="467.5,415.0859,457.5,419.0859,467.5,423.0859,463.5,419.0859" style="stroke:#181818;stroke-width:1.0;"/><line style="stroke:#181818;stroke-width:1.0;stroke-dasharray:2.0,2.0;" x1="461.5" x2="1277.5" y1="419.0859" y2="419.0859"/><text fill="#000000" font-family="sans-serif" font-size="13" font-weight="bold" lengthAdjust="spacing" textLength="14" x="473.5" y="414.2295">10</text><text fill="#000000" font-family="sans-serif" font-size="13" lengthAdjust="spacing" textLength="101" x="491.5" y="414.2295">operationTypeDto</text><polygon fill="#181818" points="284.5,445.4375,274.5,449.4375,284.5,453.4375,280.5,449.4375" style="stroke:#181818;stroke-width:1.0;"/><line style="stroke:#181818;stroke-width:1.0;stroke-dasharray:2.0,2.0;" x1="278.5" x2="445.5" y1="449.4375" y2="449.4375"/><text fill="#000000" font-family="sans-serif" font-size="13" font-weight="bold" lengthAdjust="spacing" textLength="14" x="290.5" y="444.5811">11</text><text fill="#000000" font-family="sans-serif" font-size="13" lengthAdjust="spacing" textLength="101" x="308.5" y="444.5811">operationTypeDto</text><polygon fill="#181818" points="53.5,482.7891,43.5,486.7891,53.5,490.7891,49.5,486.7891" style="stroke:#181818;stroke-width:1.0;"/><line style="stroke:#181818;stroke-width:1.0;stroke-dasharray:2.0,2.0;" x1="47.5" x2="267.5" y1="486.7891" y2="486.7891"/><text fill="#000000" font-family="sans-serif" font-size="13" font-weight="bold" lengthAdjust="spacing" textLength="14" x="59.5" y="481.9326">12</text><text fill="#000000" font-family="sans-serif" font-size="13" lengthAdjust="spacing" textLength="44" x="77.5" y="481.9326">200 OK</text><!--SRC=[ZLJ1Rk8m4BtdAqQSG0A1LZr558cMT8LsHQN2Vi0G3wsbn8vi1ssswh-lOmAnIKdhIyQUUS_sc-TWQQGeypsfACBKI0M39Skv601gS55Ke38yvGKA0uFdWXGQBiMkAaW_Ic6Kp39IhhwTmdpUJXQB7eujgIDFoU6Rs8ARg1Vf8C6A1QvaZbpqubP6Tg5sqKSpDBX7JJ1O1sKlL4ZDhKoLesYdFhWMaX_HK2CWsE6YoSANA8PLyZlP9J35Wa_bUHjJ2pjzv-mZSiWBMGiz9UhXqLdoitwnFLWkZxJKbKY7d8rQm8MjgMqpzJWJM2xlQZ7y9FDGhLb85T2rvM51FJogIN1AwKiRuXXzIOsP2HdW_Xv4cMNGFSBbOjSjsDZw5pgG8f5IyZUbecRh4hZ-mNmo2U5tiplOI0DFiXGiH55cxVEvlBM-eN5ZO5pZFgFXA41ygpj_2clNfjc18AERtUruFuPKaMKP1far6symft6Y3SzjbgtAKtAy5AJD6scEEsuB7ZD2mSMhcsnBzKggSd7urWsQKe_jvt3O5fHopFW_bzMtV7Lzq6vdEbVfyLY7mBDP_qut3TJFJzOLd-pLUNmtxFLZDeFdNz4LslyHUCkddqtq7m00]--></g></svg>