<?xml version="1.0" encoding="us-ascii" standalone="no"?><svg xmlns="http://www.w3.org/2000/svg" xmlns:xlink="http://www.w3.org/1999/xlink" contentStyleType="text/css" height="366px" preserveAspectRatio="none" style="width:735px;height:366px;background:#FFFFFF;" version="1.1" viewBox="0 0 735 366" width="735px" zoomAndPan="magnify"><defs/><g><rect fill="#FFFFFF" height="174.1094" style="stroke:#181818;stroke-width:1.0;" width="10" x="25" y="92.6094"/><rect fill="#FFFFFF" height="30.3516" style="stroke:#181818;stroke-width:1.0;" width="10" x="310" y="114.9609"/><rect fill="#FFFFFF" height="91.0547" style="stroke:#181818;stroke-width:1.0;" width="10" x="310" y="175.6641"/><rect fill="#FFFFFF" height="30.3516" style="stroke:#181818;stroke-width:1.0;" width="10" x="630" y="206.0156"/><line style="stroke:#181818;stroke-width:0.5;stroke-dasharray:5.0,5.0;" x1="30" x2="30" y1="82.6094" y2="284.7188"/><line style="stroke:#181818;stroke-width:0.5;stroke-dasharray:5.0,5.0;" x1="315" x2="315" y1="82.6094" y2="284.7188"/><line style="stroke:#181818;stroke-width:0.5;stroke-dasharray:5.0,5.0;" x1="634.5" x2="634.5" y1="82.6094" y2="284.7188"/><text fill="#000000" font-family="sans-serif" font-size="14" lengthAdjust="spacing" textLength="44" x="5" y="79.5332">Patient</text><ellipse cx="30" cy="13.5" fill="#E2E2F0" rx="8" ry="8" style="stroke:#181818;stroke-width:0.5;"/><path d="M30,21.5 L30,48.5 M17,29.5 L43,29.5 M30,48.5 L17,63.5 M30,48.5 L43,63.5 " fill="none" style="stroke:#181818;stroke-width:0.5;"/><text fill="#000000" font-family="sans-serif" font-size="14" lengthAdjust="spacing" textLength="44" x="5" y="298.252">Patient</text><ellipse cx="30" cy="309.8281" fill="#E2E2F0" rx="8" ry="8" style="stroke:#181818;stroke-width:0.5;"/><path d="M30,317.8281 L30,344.8281 M17,325.8281 L43,325.8281 M30,344.8281 L17,359.8281 M30,344.8281 L43,359.8281 " fill="none" style="stroke:#181818;stroke-width:0.5;"/><rect fill="#E2E2F0" height="49.2188" rx="2.5" ry="2.5" style="stroke:#181818;stroke-width:0.5;" width="106" x="262" y="32.3906"/><text fill="#000000" font-family="sans-serif" font-size="14" font-style="italic" lengthAdjust="spacing" textLength="92" x="269" y="53.9238">&#171;system (C4)&#187;</text><text fill="#000000" font-family="sans-serif" font-size="14" lengthAdjust="spacing" textLength="58" x="286" y="71.5332">Frontend</text><rect fill="#E2E2F0" height="49.2188" rx="2.5" ry="2.5" style="stroke:#181818;stroke-width:0.5;" width="106" x="262" y="283.7188"/><text fill="#000000" font-family="sans-serif" font-size="14" font-style="italic" lengthAdjust="spacing" textLength="92" x="269" y="305.252">&#171;system (C4)&#187;</text><text fill="#000000" font-family="sans-serif" font-size="14" lengthAdjust="spacing" textLength="58" x="286" y="322.8613">Frontend</text><rect fill="#E2E2F0" height="49.2188" rx="2.5" ry="2.5" style="stroke:#181818;stroke-width:0.5;" width="189" x="540.5" y="32.3906"/><text fill="#000000" font-family="sans-serif" font-size="14" font-style="italic" lengthAdjust="spacing" textLength="92" x="589" y="53.9238">&#171;system (C4)&#187;</text><text fill="#000000" font-family="sans-serif" font-size="14" lengthAdjust="spacing" textLength="175" x="547.5" y="71.5332">Backend Data Management</text><rect fill="#E2E2F0" height="49.2188" rx="2.5" ry="2.5" style="stroke:#181818;stroke-width:0.5;" width="189" x="540.5" y="283.7188"/><text fill="#000000" font-family="sans-serif" font-size="14" font-style="italic" lengthAdjust="spacing" textLength="92" x="589" y="305.252">&#171;system (C4)&#187;</text><text fill="#000000" font-family="sans-serif" font-size="14" lengthAdjust="spacing" textLength="175" x="547.5" y="322.8613">Backend Data Management</text><rect fill="#FFFFFF" height="174.1094" style="stroke:#181818;stroke-width:1.0;" width="10" x="25" y="92.6094"/><rect fill="#FFFFFF" height="30.3516" style="stroke:#181818;stroke-width:1.0;" width="10" x="310" y="114.9609"/><rect fill="#FFFFFF" height="91.0547" style="stroke:#181818;stroke-width:1.0;" width="10" x="310" y="175.6641"/><rect fill="#FFFFFF" height="30.3516" style="stroke:#181818;stroke-width:1.0;" width="10" x="630" y="206.0156"/><polygon fill="#181818" points="298,110.9609,308,114.9609,298,118.9609,302,114.9609" style="stroke:#181818;stroke-width:1.0;"/><line style="stroke:#181818;stroke-width:1.0;" x1="35" x2="304" y1="114.9609" y2="114.9609"/><text fill="#000000" font-family="sans-serif" font-size="13" font-weight="bold" lengthAdjust="spacing" textLength="7" x="42" y="110.1045">1</text><text fill="#000000" font-family="sans-serif" font-size="13" lengthAdjust="spacing" textLength="223" x="53" y="110.1045">asks to request to delete your account</text><polygon fill="#181818" points="46,141.3125,36,145.3125,46,149.3125,42,145.3125" style="stroke:#181818;stroke-width:1.0;"/><line style="stroke:#181818;stroke-width:1.0;stroke-dasharray:2.0,2.0;" x1="40" x2="314" y1="145.3125" y2="145.3125"/><text fill="#000000" font-family="sans-serif" font-size="13" font-weight="bold" lengthAdjust="spacing" textLength="7" x="52" y="140.4561">2</text><text fill="#000000" font-family="sans-serif" font-size="13" lengthAdjust="spacing" textLength="240" x="63" y="140.4561">asks to confirm request to delete account</text><polygon fill="#181818" points="298,171.6641,308,175.6641,298,179.6641,302,175.6641" style="stroke:#181818;stroke-width:1.0;"/><line style="stroke:#181818;stroke-width:1.0;" x1="35" x2="304" y1="175.6641" y2="175.6641"/><text fill="#000000" font-family="sans-serif" font-size="13" font-weight="bold" lengthAdjust="spacing" textLength="7" x="42" y="170.8076">3</text><text fill="#000000" font-family="sans-serif" font-size="13" lengthAdjust="spacing" textLength="200" x="53" y="170.8076">confirms request to delete account</text><polygon fill="#181818" points="618,202.0156,628,206.0156,618,210.0156,622,206.0156" style="stroke:#181818;stroke-width:1.0;"/><line style="stroke:#181818;stroke-width:1.0;" x1="320" x2="624" y1="206.0156" y2="206.0156"/><text fill="#000000" font-family="sans-serif" font-size="13" font-weight="bold" lengthAdjust="spacing" textLength="7" x="327" y="201.1592">4</text><text fill="#000000" font-family="sans-serif" font-size="13" lengthAdjust="spacing" textLength="280" x="338" y="201.1592">POST /users/patients/request-delete/{username}</text><polygon fill="#181818" points="331,232.3672,321,236.3672,331,240.3672,327,236.3672" style="stroke:#181818;stroke-width:1.0;"/><line style="stroke:#181818;stroke-width:1.0;stroke-dasharray:2.0,2.0;" x1="325" x2="634" y1="236.3672" y2="236.3672"/><text fill="#000000" font-family="sans-serif" font-size="13" font-weight="bold" lengthAdjust="spacing" textLength="7" x="337" y="231.5107">5</text><text fill="#000000" font-family="sans-serif" font-size="13" lengthAdjust="spacing" textLength="44" x="348" y="231.5107">200 OK</text><polygon fill="#181818" points="41,262.7188,31,266.7188,41,270.7188,37,266.7188" style="stroke:#181818;stroke-width:1.0;"/><line style="stroke:#181818;stroke-width:1.0;stroke-dasharray:2.0,2.0;" x1="35" x2="314" y1="266.7188" y2="266.7188"/><text fill="#000000" font-family="sans-serif" font-size="13" font-weight="bold" lengthAdjust="spacing" textLength="7" x="47" y="261.8623">6</text><text fill="#000000" font-family="sans-serif" font-size="13" lengthAdjust="spacing" textLength="147" x="58" y="261.8623">shows success message</text><!--SRC=[VPB1JiGW48RlVOf9JtfekZ6UDaqFkl5Yp6wYBp3IKPiLg0neDiPt5xg5xgRTSY30y7__7mPqLYidNyba6Ggh3UGxj2qfcmCo3EkiGsDRqNQeB3mOhIof9jJpkCcXglZ0bYHStTzUr_MPv0x5tb_QeCKdLFXEqaDx_L21K8AnDiM5TEqtMagPCl1Zs41HZxdMdhndi1eCVJbY6vODVP8N7xGpW49e5mc96_NzQHW9M7XwD1hXGgktriWPayWFa7vgQEgo47yWym9w8VealuVFDs0Dk-tp2vIEoN3P7RDmERWMHyloDvGLIlfBv6GyoytIlRDNh8hYOewRrGgsZwFmvC4MB2uqY3_q3mCx8OWPf9-yQhaP9sVnU_q3]--></g></svg>