<?xml version="1.0" encoding="us-ascii" standalone="no"?><svg xmlns="http://www.w3.org/2000/svg" xmlns:xlink="http://www.w3.org/1999/xlink" contentStyleType="text/css" height="1220px" preserveAspectRatio="none" style="width:1039px;height:1220px;background:#FFFFFF;" version="1.1" viewBox="0 0 1039 1220" width="1039px" zoomAndPan="magnify"><defs/><g><!--cluster  --><g id="cluster_ "><path d="M569.5,6 L574.5,6 A3.75,3.75 0 0 1 577,8.5 L584,29.6094 L921.5,29.6094 A2.5,2.5 0 0 1 924,32.1094 L924,411.5 A2.5,2.5 0 0 1 921.5,414 L569.5,414 A2.5,2.5 0 0 1 567,411.5 L567,8.5 A2.5,2.5 0 0 1 569.5,6 " fill="none" style="stroke:#000000;stroke-width:1.5;"/><line style="stroke:#000000;stroke-width:1.5;" x1="567" x2="584" y1="29.6094" y2="29.6094"/><text fill="#000000" font-family="sans-serif" font-size="14" font-weight="bold" lengthAdjust="spacing" textLength="4" x="571" y="22.5332">&#160;</text><text fill="#000000" font-family="sans-serif" font-size="14" font-style="italic" lengthAdjust="spacing" textLength="56" x="721.5" y="46.1426">&#171;SARM&#187;</text></g><!--cluster AngularComponent--><g id="cluster_AngularComponent"><path d="M625.5,68 L765.5,68 A3.75,3.75 0 0 1 768,70.5 L775,91.6094 L775.5,91.6094 A2.5,2.5 0 0 1 778,94.1094 L778,292.5 A2.5,2.5 0 0 1 775.5,295 L625.5,295 A2.5,2.5 0 0 1 623,292.5 L623,70.5 A2.5,2.5 0 0 1 625.5,68 " fill="none" style="stroke:#000000;stroke-width:1.5;"/><line style="stroke:#000000;stroke-width:1.5;" x1="623" x2="775" y1="91.6094" y2="91.6094"/><text fill="#000000" font-family="sans-serif" font-size="14" font-weight="bold" lengthAdjust="spacing" textLength="139" x="627" y="84.5332">Angular Component</text></g><!--cluster UI--><g id="cluster_UI"><rect fill="none" height="844" rx="2.5" ry="2.5" style="stroke:#181818;stroke-width:1.0;" width="544" x="7" y="370"/><rect fill="none" height="10" style="stroke:#181818;stroke-width:1.0;" width="15" x="531" y="375"/><rect fill="none" height="2" style="stroke:#181818;stroke-width:1.0;" width="4" x="529" y="377"/><rect fill="none" height="2" style="stroke:#181818;stroke-width:1.0;" width="4" x="529" y="381"/><text fill="#000000" font-family="sans-serif" font-size="14" font-style="italic" lengthAdjust="spacing" textLength="86" x="236" y="397.5332">&#171;component&#187;</text><text fill="#000000" font-family="sans-serif" font-size="14" font-style="italic" lengthAdjust="spacing" textLength="107" x="225.5" y="415.1426">&#171;container (C4)&#187;</text><text fill="#000000" font-family="sans-serif" font-size="14" font-weight="bold" lengthAdjust="spacing" textLength="14" x="272" y="432.752">UI</text></g><!--cluster Angular Component--><g id="cluster_Angular Component"><path d="M167.5,534 L307.5,534 A3.75,3.75 0 0 1 310,536.5 L317,557.6094 L324.5,557.6094 A2.5,2.5 0 0 1 327,560.1094 L327,962.5 A2.5,2.5 0 0 1 324.5,965 L167.5,965 A2.5,2.5 0 0 1 165,962.5 L165,536.5 A2.5,2.5 0 0 1 167.5,534 " fill="none" style="stroke:#000000;stroke-width:1.5;"/><line style="stroke:#000000;stroke-width:1.5;" x1="165" x2="317" y1="557.6094" y2="557.6094"/><text fill="#000000" font-family="sans-serif" font-size="14" font-weight="bold" lengthAdjust="spacing" textLength="139" x="169" y="550.5332">Angular Component</text></g><!--cluster HTTP_--><g id="cluster_HTTP_"><rect fill="none" height="168.5" rx="2.5" ry="2.5" style="stroke:#181818;stroke-width:1.0;" width="124" x="377" y="916.5"/><rect fill="none" height="10" style="stroke:#181818;stroke-width:1.0;" width="15" x="481" y="921.5"/><rect fill="none" height="2" style="stroke:#181818;stroke-width:1.0;" width="4" x="479" y="923.5"/><rect fill="none" height="2" style="stroke:#181818;stroke-width:1.0;" width="4" x="479" y="927.5"/><text fill="#000000" font-family="sans-serif" font-size="14" font-style="italic" lengthAdjust="spacing" textLength="86" x="396" y="944.0332">&#171;component&#187;</text><text fill="#000000" font-family="sans-serif" font-size="14" font-weight="bold" lengthAdjust="spacing" textLength="83" x="397.5" y="961.6426">HTTP Driver</text></g><!--entity ComponentUI--><g id="elem_ComponentUI"><path d="M644,104 L685,104 A3.75,3.75 0 0 1 687.5,106.5 L694.5,125 L758,125 A2.5,2.5 0 0 1 760.5,127.5 L760.5,157.1094 A2.5,2.5 0 0 1 758,159.6094 L644,159.6094 A2.5,2.5 0 0 1 641.5,157.1094 L641.5,106.5 A2.5,2.5 0 0 1 644,104 " fill="#F1F1F1" style="stroke:#181818;stroke-width:0.5;"/><line style="stroke:#181818;stroke-width:0.5;" x1="641.5" x2="694.5" y1="125" y2="125"/><text fill="#000000" font-family="sans-serif" font-size="14" lengthAdjust="spacing" textLength="89" x="651.5" y="146.5332">UI Component</text></g><!--entity Component--><g id="elem_Component"><path d="M660,223 L701,223 A3.75,3.75 0 0 1 703.5,225.5 L710.5,244 L758,244 A2.5,2.5 0 0 1 760.5,246.5 L760.5,276.1094 A2.5,2.5 0 0 1 758,278.6094 L660,278.6094 A2.5,2.5 0 0 1 657.5,276.1094 L657.5,225.5 A2.5,2.5 0 0 1 660,223 " fill="#F1F1F1" style="stroke:#181818;stroke-width:0.5;"/><line style="stroke:#181818;stroke-width:0.5;" x1="657.5" x2="710.5" y1="244" y2="244"/><text fill="#000000" font-family="sans-serif" font-size="14" lengthAdjust="spacing" textLength="73" x="667.5" y="265.5332">Component</text></g><!--entity Service--><g id="elem_Service"><path d="M833,223 L874,223 A3.75,3.75 0 0 1 876.5,225.5 L883.5,244 L905,244 A2.5,2.5 0 0 1 907.5,246.5 L907.5,276.1094 A2.5,2.5 0 0 1 905,278.6094 L833,278.6094 A2.5,2.5 0 0 1 830.5,276.1094 L830.5,225.5 A2.5,2.5 0 0 1 833,223 " fill="#F1F1F1" style="stroke:#181818;stroke-width:0.5;"/><line style="stroke:#181818;stroke-width:0.5;" x1="830.5" x2="883.5" y1="244" y2="244"/><text fill="#000000" font-family="sans-serif" font-size="14" lengthAdjust="spacing" textLength="47" x="840.5" y="265.5332">Service</text></g><!--entity HTTP--><g id="elem_HTTP"><path d="M690.5,342 L731.5,342 A3.75,3.75 0 0 1 734,344.5 L741,363 L793.5,363 A2.5,2.5 0 0 1 796,365.5 L796,395.1094 A2.5,2.5 0 0 1 793.5,397.6094 L690.5,397.6094 A2.5,2.5 0 0 1 688,395.1094 L688,344.5 A2.5,2.5 0 0 1 690.5,342 " fill="#F1F1F1" style="stroke:#181818;stroke-width:0.5;"/><line style="stroke:#181818;stroke-width:0.5;" x1="688" x2="741" y1="363" y2="363"/><text fill="#000000" font-family="sans-serif" font-size="14" lengthAdjust="spacing" textLength="78" x="698" y="384.5332">HTTP Driver</text></g><!--entity Model--><g id="elem_Model"><path d="M585.5,342 L626.5,342 A3.75,3.75 0 0 1 629,344.5 L636,363 L650.5,363 A2.5,2.5 0 0 1 653,365.5 L653,395.1094 A2.5,2.5 0 0 1 650.5,397.6094 L585.5,397.6094 A2.5,2.5 0 0 1 583,395.1094 L583,344.5 A2.5,2.5 0 0 1 585.5,342 " fill="#F1F1F1" style="stroke:#181818;stroke-width:0.5;"/><line style="stroke:#181818;stroke-width:0.5;" x1="583" x2="636" y1="363" y2="363"/><text fill="#000000" font-family="sans-serif" font-size="14" lengthAdjust="spacing" textLength="38" x="593" y="384.5332">Model</text></g><text fill="#000000" font-family="sans-serif" font-size="14" lengthAdjust="spacing" textLength="4" x="401" y="348.9238">&#160;</text><rect fill="#F1F1F1" height="12" style="stroke:#181818;stroke-width:1.5;" width="12" x="397" y="364"/><text fill="#000000" font-family="sans-serif" font-size="14" lengthAdjust="spacing" textLength="4" x="308" y="348.9238">&#160;</text><rect fill="#F1F1F1" height="12" style="stroke:#181818;stroke-width:1.5;" width="12" x="304" y="364"/><!--entity OBSERVER_API--><g id="elem_OBSERVER_API"><ellipse cx="374" cy="602.5" fill="#F1F1F1" rx="8" ry="8" style="stroke:#181818;stroke-width:0.5;"/><text fill="#000000" font-family="sans-serif" font-size="14" lengthAdjust="spacing" textLength="84" x="332" y="634.0332">Observer API</text></g><!--entity MODEL_API--><g id="elem_MODEL_API"><ellipse cx="352" cy="916.5" fill="#F1F1F1" rx="8" ry="8" style="stroke:#181818;stroke-width:0.5;"/><text fill="#000000" font-family="sans-serif" font-size="14" lengthAdjust="spacing" textLength="63" x="320.5" y="948.0332">Model API</text></g><!--entity SERVICE_API--><g id="elem_SERVICE_API"><ellipse cx="257" cy="1042" fill="#F1F1F1" rx="8" ry="8" style="stroke:#181818;stroke-width:0.5;"/><text fill="#000000" font-family="sans-serif" font-size="14" lengthAdjust="spacing" textLength="72" x="221" y="1073.5332">Service API</text></g><!--entity HTTP_SERVICE_API--><g id="elem_HTTP_SERVICE_API"><ellipse cx="455" cy="1165.5" fill="#F1F1F1" rx="8" ry="8" style="stroke:#181818;stroke-width:0.5;"/><text fill="#000000" font-family="sans-serif" font-size="14" lengthAdjust="spacing" textLength="103" x="403.5" y="1197.0332">HTTP Driver API</text></g><!--entity COMPONENT_API--><g id="elem_COMPONENT_API"><ellipse cx="238" cy="728.5" fill="#F1F1F1" rx="8" ry="8" style="stroke:#181818;stroke-width:0.5;"/><text fill="#000000" font-family="sans-serif" font-size="14" lengthAdjust="spacing" textLength="98" x="189" y="760.0332">Component API</text></g><!--entity Component_--><g id="elem_Component_"><rect fill="#F1F1F1" height="65.2188" rx="2.5" ry="2.5" style="stroke:#181818;stroke-width:0.5;" width="126" x="182" y="884"/><rect fill="#F1F1F1" height="10" style="stroke:#181818;stroke-width:0.5;" width="15" x="288" y="889"/><rect fill="#F1F1F1" height="2" style="stroke:#181818;stroke-width:0.5;" width="4" x="286" y="891"/><rect fill="#F1F1F1" height="2" style="stroke:#181818;stroke-width:0.5;" width="4" x="286" y="895"/><text fill="#000000" font-family="sans-serif" font-size="14" font-style="italic" lengthAdjust="spacing" textLength="86" x="197" y="918.5332">&#171;component&#187;</text><text fill="#000000" font-family="sans-serif" font-size="14" lengthAdjust="spacing" textLength="73" x="203.5" y="936.1426">Component</text></g><!--entity ComponentUI_--><g id="elem_ComponentUI_"><rect fill="#F1F1F1" height="65.2188" rx="2.5" ry="2.5" style="stroke:#181818;stroke-width:0.5;" width="129" x="181.5" y="570"/><rect fill="#F1F1F1" height="10" style="stroke:#181818;stroke-width:0.5;" width="15" x="290.5" y="575"/><rect fill="#F1F1F1" height="2" style="stroke:#181818;stroke-width:0.5;" width="4" x="288.5" y="577"/><rect fill="#F1F1F1" height="2" style="stroke:#181818;stroke-width:0.5;" width="4" x="288.5" y="581"/><text fill="#000000" font-family="sans-serif" font-size="14" font-style="italic" lengthAdjust="spacing" textLength="86" x="198" y="604.5332">&#171;component&#187;</text><text fill="#000000" font-family="sans-serif" font-size="14" lengthAdjust="spacing" textLength="89" x="196.5" y="622.1426">UI Component</text></g><!--entity Model_--><g id="elem_Model_"><rect fill="#F1F1F1" height="65.2188" rx="2.5" ry="2.5" style="stroke:#181818;stroke-width:0.5;" width="126" x="367" y="696"/><rect fill="#F1F1F1" height="10" style="stroke:#181818;stroke-width:0.5;" width="15" x="473" y="701"/><rect fill="#F1F1F1" height="2" style="stroke:#181818;stroke-width:0.5;" width="4" x="471" y="703"/><rect fill="#F1F1F1" height="2" style="stroke:#181818;stroke-width:0.5;" width="4" x="471" y="707"/><text fill="#000000" font-family="sans-serif" font-size="14" font-style="italic" lengthAdjust="spacing" textLength="86" x="382" y="730.5332">&#171;component&#187;</text><text fill="#000000" font-family="sans-serif" font-size="14" lengthAdjust="spacing" textLength="38" x="406" y="748.1426">Model</text></g><!--entity Service_--><g id="elem_Service_"><rect fill="#F1F1F1" height="65.2188" rx="2.5" ry="2.5" style="stroke:#181818;stroke-width:0.5;" width="126" x="285" y="1133"/><rect fill="#F1F1F1" height="10" style="stroke:#181818;stroke-width:0.5;" width="15" x="391" y="1138"/><rect fill="#F1F1F1" height="2" style="stroke:#181818;stroke-width:0.5;" width="4" x="389" y="1140"/><rect fill="#F1F1F1" height="2" style="stroke:#181818;stroke-width:0.5;" width="4" x="389" y="1144"/><text fill="#000000" font-family="sans-serif" font-size="14" font-style="italic" lengthAdjust="spacing" textLength="86" x="300" y="1167.5332">&#171;component&#187;</text><text fill="#000000" font-family="sans-serif" font-size="14" lengthAdjust="spacing" textLength="47" x="319.5" y="1185.1426">Service</text></g><text fill="#000000" font-family="sans-serif" font-size="14" lengthAdjust="spacing" textLength="4" x="481" y="895.4238">&#160;</text><rect fill="#F1F1F1" height="12" style="stroke:#181818;stroke-width:1.5;" width="12" x="477" y="910.5"/><!--entity API--><g id="elem_API"><ellipse cx="300" cy="251" fill="#F1F1F1" rx="8" ry="8" style="stroke:#181818;stroke-width:0.5;"/><text fill="#000000" font-family="sans-serif" font-size="14" lengthAdjust="spacing" textLength="67" x="266.5" y="282.5332">Server API</text></g><!--entity UI_API--><g id="elem_UI_API"><ellipse cx="403" cy="251" fill="#F1F1F1" rx="8" ry="8" style="stroke:#181818;stroke-width:0.5;"/><text fill="#000000" font-family="sans-serif" font-size="14" lengthAdjust="spacing" textLength="12" x="397" y="282.5332">UI</text></g><!--reverse link ComponentUI to Component--><g id="link_ComponentUI_Component"><path d="M703.2684,166.1261 C704.5484,184.8861 705.84,224.78 707.13,243.61 " fill="none" id="ComponentUI-backto-Component" style="stroke:#181818;stroke-width:1.0;stroke-dasharray:7.0,7.0;"/><polygon fill="#181818" points="702.86,160.14,699.4819,169.3914,703.2004,165.1284,707.4634,168.8468,702.86,160.14" style="stroke:#181818;stroke-width:1.0;"/></g><!--reverse link Component to Model--><g id="link_Component_Model"><path d="M684.2065,283.8762 C669.6165,302.6362 653.95,343.78 639.31,362.61 " fill="none" id="Component-backto-Model" style="stroke:#181818;stroke-width:1.0;stroke-dasharray:7.0,7.0;"/><polygon fill="#181818" points="687.89,279.14,679.2073,283.7887,684.8204,283.0869,685.5223,288.7,687.89,279.14" style="stroke:#181818;stroke-width:1.0;"/></g><!--reverse link ComponentUI to Model--><g id="link_ComponentUI_Model"><path d="M673.6354,164.716 C660.5054,181.226 648.82,198.7 640,221 C624.13,261.1 619.59,311.42 618.36,341.85 " fill="none" id="ComponentUI-backto-Model" style="stroke:#181818;stroke-width:1.0;stroke-dasharray:7.0,7.0;"/><polygon fill="#181818" points="677.37,160.02,668.6374,164.5743,674.2578,163.9333,674.8987,169.5538,677.37,160.02" style="stroke:#181818;stroke-width:1.0;"/></g><!--reverse link Model to ComponentUI--><g id="link_Model_ComponentUI"><path d="M609.1745,336.0005 C602.1745,305.3405 596.4,260.46 613,221 C623.22,196.7 643.69,175.58 662.31,160.12 " fill="none" id="Model-backto-ComponentUI" style="stroke:#181818;stroke-width:1.0;stroke-dasharray:7.0,7.0;"/><polygon fill="#181818" points="610.51,341.85,612.4064,332.1854,609.3971,336.9754,604.6071,333.9661,610.51,341.85" style="stroke:#181818;stroke-width:1.0;"/></g><!--reverse link Service to Model--><g id="link_Service_Model"><path d="M825.0784,278.173 C808.8984,287.403 794.93,294.79 777,303 C731.36,323.9 717,321.9 671,342 C665.13,344.56 659,347.47 653.07,350.4 " fill="none" id="Service-backto-Model" style="stroke:#181818;stroke-width:1.0;stroke-dasharray:7.0,7.0;"/><polygon fill="#181818" points="830.29,275.2,820.4905,276.1851,825.947,277.6775,824.4546,283.134,830.29,275.2" style="stroke:#181818;stroke-width:1.0;"/></g><!--reverse link Component to Service--><g id="link_Component_Service"><path d="M766.56,251 C789.86,251 807.16,251 830.45,251 " fill="none" id="Component-backto-Service" style="stroke:#181818;stroke-width:1.0;stroke-dasharray:7.0,7.0;"/><polygon fill="#181818" points="760.56,251,769.56,255,765.56,251,769.56,247,760.56,251" style="stroke:#181818;stroke-width:1.0;"/></g><!--reverse link Service to HTTP--><g id="link_Service_HTTP"><path d="M835.1265,283.2046 C814.7565,301.9646 792.17,343.78 771.74,362.61 " fill="none" id="Service-backto-HTTP" style="stroke:#181818;stroke-width:1.0;stroke-dasharray:7.0,7.0;"/><polygon fill="#181818" points="839.54,279.14,830.21,282.2946,835.8621,282.5272,835.6296,288.1793,839.54,279.14" style="stroke:#181818;stroke-width:1.0;"/></g><!--link UI_API to PI1--><g id="link_UI_API_PI1"><path d="M403,260.04 C403,282.55 403,345.74 403,364 " fill="none" id="UI_API-PI1" style="stroke:#181818;stroke-width:1.0;"/></g><!--link ComponentUI_ to PI1--><g id="link_ComponentUI__PI1"><path d="M271.24,569.62 C284.03,553.81 299.99,534.6 315,518 C351.46,477.67 379.5,480.94 401,431 C409.08,412.24 405.96,387.03 404.05,376.25 " fill="none" id="ComponentUI_-PI1" style="stroke:#181818;stroke-width:1.0;"/></g><!--link COMPONENT_API to Component_--><g id="link_COMPONENT_API_Component_"><path d="M238.32,737.98 C239.28,763.42 242.16,840.07 243.81,883.89 " fill="none" id="COMPONENT_API-Component_" style="stroke:#181818;stroke-width:1.0;"/></g><!--link ComponentUI_ to COMPONENT_API--><g id="link_ComponentUI__COMPONENT_API"><path d="M243.96,635.11 C242.15,663.24 240.2659,692.4709 239.1759,709.3109 " fill="none" id="ComponentUI_-to-COMPONENT_API" style="stroke:#181818;stroke-width:1.0;"/><path d="M247.1684,716.7645 A9,9 0 0 0 230.2893 715.672" fill="none" style="stroke:#181818;stroke-width:1.5;"/></g><!--link ComponentUI_ to OBSERVER_API--><g id="link_ComponentUI__OBSERVER_API"><path d="M311,602.5 C328.88,602.5 346.77,602.5 364.65,602.5 " fill="none" id="ComponentUI_-OBSERVER_API" style="stroke:#181818;stroke-width:1.0;"/></g><!--reverse link OBSERVER_API to Model_--><g id="link_OBSERVER_API_Model_"><path d="M380.1158,621.1513 C384.3258,633.2113 389.41,646.92 398,666 C402.45,675.88 407.72,686.41 412.7,695.92 " fill="none" id="OBSERVER_API-backto-Model_" style="stroke:#181818;stroke-width:1.0;"/><path d="M369.8498,617.4036 A9,9 0 0 0 385.8192 611.8288" fill="none" style="stroke:#181818;stroke-width:1.5;"/></g><!--link SERVICE_API to Service_--><g id="link_SERVICE_API_Service_"><path d="M263.25,1051.35 C275.62,1067.86 303.78,1105.46 324.25,1132.79 " fill="none" id="SERVICE_API-Service_" style="stroke:#181818;stroke-width:1.0;"/></g><!--link Component_ to SERVICE_API--><g id="link_Component__SERVICE_API"><path d="M248.09,949.3 C250.81,977.32 253.6233,1006.2368 255.2433,1022.9168 " fill="none" id="Component_-to-SERVICE_API" style="stroke:#181818;stroke-width:1.0;"/><path d="M264.3301,1028.9887 A9,9 0 0 0 247.4948 1030.6238" fill="none" style="stroke:#181818;stroke-width:1.5;"/></g><!--link Model_ to MODEL_API--><g id="link_Model__MODEL_API"><path d="M416.61,761.09 C412.55,770.69 408.09,781.27 404,791 C385.58,834.84 363.67,887.44 355.39,907.34 " fill="none" id="Model_-MODEL_API" style="stroke:#181818;stroke-width:1.0;"/></g><!--link Component_ to MODEL_API--><g id="link_Component__MODEL_API"><path d="M308.11,916.5 C319.66,916.5 321.2,916.5 332.74,916.5 " fill="none" id="Component_-to-MODEL_API" style="stroke:#181818;stroke-width:1.0;"/><path d="M339.6618,908.0428 A9,9 0 0 0 339.6618 924.9572" fill="none" style="stroke:#181818;stroke-width:1.5;"/></g><!--reverse link MODEL_API to Service_--><g id="link_MODEL_API_Service_"><path d="M351.7078,935.7187 C351.1878,967.7787 349.44,1075.49 348.51,1132.77 " fill="none" id="MODEL_API-backto-Service_" style="stroke:#181818;stroke-width:1.0;"/><path d="M343.364,928.6606 A9,9 0 0 0 360.2762 928.9349" fill="none" style="stroke:#181818;stroke-width:1.5;"/></g><!--link ComponentUI_ to MODEL_API--><g id="link_ComponentUI__MODEL_API"><path d="M274.43,635.11 C288.15,652.04 303.63,673.91 313,696 C345.81,773.31 350.7457,867.2738 351.5657,897.1538 " fill="none" id="ComponentUI_-to-MODEL_API" style="stroke:#181818;stroke-width:1.0;"/><path d="M360.2096,903.841 A9,9 0 0 0 343.3015 904.305" fill="none" style="stroke:#181818;stroke-width:1.5;"/></g><!--reverse link API to PI--><g id="link_API_PI"><path d="M301.5399,270.0038 C303.4599,292.5138 308.01,345.74 309.57,364 " fill="none" id="API-backto-PI" style="stroke:#181818;stroke-width:1.0;"/><path d="M292.525,263.8258 A9,9 0 0 0 309.3782 262.3883" fill="none" style="stroke:#181818;stroke-width:1.5;"/></g><!--link PI to PIHTTP--><g id="link_PI_PIHTTP"><path d="M316.22,375.92 C343.05,397.24 448.58,482.25 471,518 C551.32,646.08 567.81,709.31 524,854 C516.86,877.58 497.37,900.38 488.07,910.31 " fill="none" id="PI-PIHTTP" style="stroke:#181818;stroke-width:1.0;"/></g><!--link HTTP_ to HTTP_SERVICE_API--><g id="link_HTTP__HTTP_SERVICE_API"><path d="M453.0482,1085.4006 C453.0549,1085.6719 453.0616,1085.9437 453.0684,1086.216 C453.0818,1086.7606 453.0954,1087.3073 453.1089,1087.8559 C453.136,1088.953 453.1634,1090.0576 453.1908,1091.1681 C453.2457,1093.3889 453.3013,1095.6333 453.357,1097.8886 C453.4686,1102.3991 453.5813,1106.9531 453.6925,1111.45 C454.1375,1129.4375 454.56,1146.51 454.8,1156.22 " fill="none" id="HTTP_-HTTP_SERVICE_API" style="stroke:#181818;stroke-width:1.0;"/></g><!--link Service_ to HTTP_SERVICE_API--><g id="link_Service__HTTP_SERVICE_API"><path d="M411.11,1165.5 C422.66,1165.5 424.2,1165.5 435.74,1165.5 " fill="none" id="Service_-to-HTTP_SERVICE_API" style="stroke:#181818;stroke-width:1.0;"/><path d="M442.6618,1157.0428 A9,9 0 0 0 442.6618 1173.9572" fill="none" style="stroke:#181818;stroke-width:1.5;"/></g><!--link Component to Component_--><g id="link_Component_Component_"><path d="M732.2,279.05 C741.47,288.12 752.83,297.37 765,303 C790.21,314.67 805.19,293.78 827,311 C848.64,328.08 849,341.43 849,369 C849,369 849,369 849,823 C849,883.05 369.77,867.62 312,884 C310.76,884.35 315.2436,882.9198 314.0036,883.3098 " fill="none" id="Component-to-Component_" style="stroke:#181818;stroke-width:1.0;stroke-dasharray:7.0,7.0;"/><polygon fill="#181818" points="308.28,885.11,318.0655,886.2255,313.0497,883.6099,315.6653,878.594,308.28,885.11" style="stroke:#181818;stroke-width:1.0;"/><text fill="#000000" font-family="sans-serif" font-size="13" lengthAdjust="spacing" textLength="63" x="850" y="607.9951">&#171;manifest&#187;</text></g><!--link ComponentUI to ComponentUI_--><g id="link_ComponentUI_ComponentUI_"><path d="M641.43,139.39 C576.88,150 483,177.84 483,250 C483,250 483,250 483,462 C483,485.47 480.4,496.79 461,510 C434.14,528.29 344.01,503.36 315,518 C292.84,529.19 278.431,545.9906 266.531,564.5306 " fill="none" id="ComponentUI-to-ComponentUI_" style="stroke:#181818;stroke-width:1.0;stroke-dasharray:7.0,7.0;"/><polygon fill="#181818" points="263.29,569.58,271.5177,564.1666,265.9908,565.3722,264.7852,559.8453,263.29,569.58" style="stroke:#181818;stroke-width:1.0;"/><text fill="#000000" font-family="sans-serif" font-size="13" lengthAdjust="spacing" textLength="63" x="484" y="375.4951">&#171;manifest&#187;</text></g><!--link Model to Model_--><g id="link_Model_Model_"><path d="M603.72,398.09 C569.53,462.92 485.9293,621.453 449.4493,690.613 " fill="none" id="Model-to-Model_" style="stroke:#181818;stroke-width:1.0;stroke-dasharray:7.0,7.0;"/><polygon fill="#181818" points="446.65,695.92,454.3869,689.8257,448.9827,691.4975,447.3109,686.0933,446.65,695.92" style="stroke:#181818;stroke-width:1.0;"/><text fill="#000000" font-family="sans-serif" font-size="13" lengthAdjust="spacing" textLength="63" x="554" y="506.4951">&#171;manifest&#187;</text></g><!--link Service to Service_--><g id="link_Service_Service_"><path d="M907.73,276.81 C935.12,297.7 967,330.31 967,369 C967,369 967,369 967,1043 C967,1164.22 545.88,1100.86 429,1133 C423.18,1134.6 422.8834,1134.5468 416.9434,1136.5568 " fill="none" id="Service-to-Service_" style="stroke:#181818;stroke-width:1.0;stroke-dasharray:7.0,7.0;"/><polygon fill="#181818" points="411.26,1138.48,421.0673,1139.3842,415.9962,1136.8773,418.503,1131.8063,411.26,1138.48" style="stroke:#181818;stroke-width:1.0;"/><text fill="#000000" font-family="sans-serif" font-size="13" lengthAdjust="spacing" textLength="63" x="968" y="733.9951">&#171;manifest&#187;</text></g><!--link HTTP to HTTP_--><g id="link_HTTP_HTTP_"><path d="M718.07,398.14 C705.64,415.02 693,437.87 693,461 C693,461 693,461 693,917.5 C693,1002.13 579.8083,1028.0942 509.0683,1036.4742 " fill="none" id="HTTP-to-HTTP_" style="stroke:#181818;stroke-width:1.0;stroke-dasharray:7.0,7.0;"/><polygon fill="#181818" points="503.11,1037.18,512.5181,1040.0935,508.0753,1036.5918,511.5769,1032.149,503.11,1037.18" style="stroke:#181818;stroke-width:1.0;"/><text fill="#000000" font-family="sans-serif" font-size="13" lengthAdjust="spacing" textLength="63" x="694" y="733.9951">&#171;manifest&#187;</text></g><!--SRC=[XLHTQy8m57tFhmW-kOSAWpqDAJXNM62kHUrUfMeSPPf8pFOY- - -xoMtJ9ArRXTBSUqxkrxbgUQPQqgtKMfxelbPyfsif23bNky_gWzCH_ARJrMovIDCheV0Sv77F5HtDnCVNiL9qBazdARZG8rfTQ6DrHeeadrYoYEDE9RiI1_yXFUODMa3og2rjnTLtlUEMr7mtb0ZuibuNz5dLtrnPi3aF8nTopuyMOxyS261UDNGwcNHfTXvhjyGU6gts7R9BHfhSXzZMrlW3d2c1458BpTMX0gFj1fGmAnWEh62-jqHhoJR6GNOkGES1FJXpcjgJq5KjuDBn_E4EJ3ZpirIw5bP1m2lO_Q0LEyUw3FBjnSjmjgBvqofRlcTBcz4_2lIauAL-GpURg99h9ACeiQxPRU_c-QB8txAtjKij2loNrF-B_jFh3AgYRSiYVyvUSKfHr4YSmu7wrxUoQGEOhhDvDXXYOALkXJ7lE9ItQ2wSiMt-YZcqdRUR6ElCBe9RKjGtJHAZIqg2iQ2HU399li0M3Zjax9Dnv8y0AWbbt0m6BXw73kAw2RvW17u-m0ewrLwNUAhmyGe8dSSFCHvYO1Ty5p7DAi5a3jXCcw1nuHmWTc-2NI2JG7_0tKPDu4dzpNo4mPugKH_u1UOQ_4r6M9DiXCP5GLpJcWZHQXqnBiy8PSj421OP-Ny1]--></g></svg>