<?xml version="1.0" encoding="us-ascii" standalone="no"?><svg xmlns="http://www.w3.org/2000/svg" xmlns:xlink="http://www.w3.org/1999/xlink" contentStyleType="text/css" height="623px" preserveAspectRatio="none" style="width:1305px;height:623px;background:#FFFFFF;" version="1.1" viewBox="0 0 1305 623" width="1305px" zoomAndPan="magnify"><defs/><g><rect fill="#ADD8E6" height="611.9688" style="stroke:#181818;stroke-width:0.5;" width="840" x="260" y="6"/><text fill="#000000" font-family="sans-serif" font-size="13" font-weight="bold" lengthAdjust="spacing" textLength="85" x="637.5" y="19.4951">&#171;system (C4)&#187;</text><text fill="#000000" font-family="sans-serif" font-size="13" font-weight="bold" lengthAdjust="spacing" textLength="57" x="651.5" y="35.8467">Frontend</text><rect fill="#DDDDDD" height="611.9688" style="stroke:#181818;stroke-width:0.5;" width="197" x="1102" y="6"/><text fill="#000000" font-family="sans-serif" font-size="13" font-weight="bold" lengthAdjust="spacing" textLength="85" x="1158" y="19.4951">&#171;system (C4)&#187;</text><text fill="#000000" font-family="sans-serif" font-size="13" font-weight="bold" lengthAdjust="spacing" textLength="175" x="1113" y="35.8467">Backend Data Management</text><rect fill="#FFFFFF" height="416.4375" style="stroke:#181818;stroke-width:1.0;" width="10" x="25" y="102.9219"/><rect fill="#FFFFFF" height="30.3516" style="stroke:#181818;stroke-width:1.0;" width="10" x="325" y="125.2734"/><rect fill="#FFFFFF" height="333.3828" style="stroke:#181818;stroke-width:1.0;" width="10" x="325" y="185.9766"/><rect fill="#FFFFFF" height="272.6797" style="stroke:#181818;stroke-width:1.0;" width="10" x="578" y="216.3281"/><rect fill="#FFFFFF" height="151.7578" style="stroke:#181818;stroke-width:1.0;" width="10" x="862" y="306.8984"/><rect fill="#FFFFFF" height="91.0547" style="stroke:#181818;stroke-width:1.0;" width="10" x="1025" y="337.25"/><rect fill="#FFFFFF" height="30.3516" style="stroke:#181818;stroke-width:1.0;" width="10" x="1195.5" y="367.6016"/><line style="stroke:#181818;stroke-width:0.5;stroke-dasharray:5.0,5.0;" x1="30" x2="30" y1="92.9219" y2="537.3594"/><line style="stroke:#181818;stroke-width:0.5;stroke-dasharray:5.0,5.0;" x1="330" x2="330" y1="92.9219" y2="537.3594"/><line style="stroke:#181818;stroke-width:0.5;stroke-dasharray:5.0,5.0;" x1="583" x2="583" y1="92.9219" y2="537.3594"/><line style="stroke:#181818;stroke-width:0.5;stroke-dasharray:5.0,5.0;" x1="725" x2="725" y1="264.4375" y2="537.3594"/><line style="stroke:#181818;stroke-width:0.5;stroke-dasharray:5.0,5.0;" x1="867" x2="867" y1="92.9219" y2="537.3594"/><line style="stroke:#181818;stroke-width:0.5;stroke-dasharray:5.0,5.0;" x1="1030" x2="1030" y1="92.9219" y2="537.3594"/><line style="stroke:#181818;stroke-width:0.5;stroke-dasharray:5.0,5.0;" x1="1200" x2="1200" y1="92.9219" y2="537.3594"/><text fill="#000000" font-family="sans-serif" font-size="14" lengthAdjust="spacing" textLength="44" x="5" y="89.8457">Patient</text><ellipse cx="30" cy="23.8125" fill="#E2E2F0" rx="8" ry="8" style="stroke:#181818;stroke-width:0.5;"/><path d="M30,31.8125 L30,58.8125 M17,39.8125 L43,39.8125 M30,58.8125 L17,73.8125 M30,58.8125 L43,73.8125 " fill="none" style="stroke:#181818;stroke-width:0.5;"/><text fill="#000000" font-family="sans-serif" font-size="14" lengthAdjust="spacing" textLength="44" x="5" y="550.8926">Patient</text><ellipse cx="30" cy="562.4688" fill="#E2E2F0" rx="8" ry="8" style="stroke:#181818;stroke-width:0.5;"/><path d="M30,570.4688 L30,597.4688 M17,578.4688 L43,578.4688 M30,597.4688 L17,612.4688 M30,597.4688 L43,612.4688 " fill="none" style="stroke:#181818;stroke-width:0.5;"/><rect fill="#E2E2F0" height="49.2188" rx="2.5" ry="2.5" style="stroke:#181818;stroke-width:0.5;" width="132" x="264" y="42.7031"/><text fill="#000000" font-family="sans-serif" font-size="14" font-style="italic" lengthAdjust="spacing" textLength="118" x="271" y="64.2363">&#171;component (C4)&#187;</text><text fill="#000000" font-family="sans-serif" font-size="14" lengthAdjust="spacing" textLength="89" x="285.5" y="81.8457">UI Component</text><rect fill="#E2E2F0" height="49.2188" rx="2.5" ry="2.5" style="stroke:#181818;stroke-width:0.5;" width="132" x="264" y="536.3594"/><text fill="#000000" font-family="sans-serif" font-size="14" font-style="italic" lengthAdjust="spacing" textLength="118" x="271" y="557.8926">&#171;component (C4)&#187;</text><text fill="#000000" font-family="sans-serif" font-size="14" lengthAdjust="spacing" textLength="89" x="285.5" y="575.502">UI Component</text><rect fill="#E2E2F0" height="49.2188" rx="2.5" ry="2.5" style="stroke:#181818;stroke-width:0.5;" width="132" x="517" y="42.7031"/><text fill="#000000" font-family="sans-serif" font-size="14" font-style="italic" lengthAdjust="spacing" textLength="118" x="524" y="64.2363">&#171;component (C4)&#187;</text><text fill="#000000" font-family="sans-serif" font-size="14" lengthAdjust="spacing" textLength="73" x="546.5" y="81.8457">Component</text><rect fill="#E2E2F0" height="49.2188" rx="2.5" ry="2.5" style="stroke:#181818;stroke-width:0.5;" width="132" x="517" y="536.3594"/><text fill="#000000" font-family="sans-serif" font-size="14" font-style="italic" lengthAdjust="spacing" textLength="118" x="524" y="557.8926">&#171;component (C4)&#187;</text><text fill="#000000" font-family="sans-serif" font-size="14" lengthAdjust="spacing" textLength="73" x="546.5" y="575.502">Component</text><rect fill="#E2E2F0" height="49.2188" rx="2.5" ry="2.5" style="stroke:#181818;stroke-width:0.5;" width="132" x="659" y="536.3594"/><text fill="#000000" font-family="sans-serif" font-size="14" font-style="italic" lengthAdjust="spacing" textLength="118" x="666" y="557.8926">&#171;component (C4)&#187;</text><text fill="#000000" font-family="sans-serif" font-size="14" lengthAdjust="spacing" textLength="38" x="706" y="575.502">Model</text><rect fill="#E2E2F0" height="49.2188" rx="2.5" ry="2.5" style="stroke:#181818;stroke-width:0.5;" width="132" x="801" y="42.7031"/><text fill="#000000" font-family="sans-serif" font-size="14" font-style="italic" lengthAdjust="spacing" textLength="118" x="808" y="64.2363">&#171;component (C4)&#187;</text><text fill="#000000" font-family="sans-serif" font-size="14" lengthAdjust="spacing" textLength="47" x="843.5" y="81.8457">Service</text><rect fill="#E2E2F0" height="49.2188" rx="2.5" ry="2.5" style="stroke:#181818;stroke-width:0.5;" width="132" x="801" y="536.3594"/><text fill="#000000" font-family="sans-serif" font-size="14" font-style="italic" lengthAdjust="spacing" textLength="118" x="808" y="557.8926">&#171;component (C4)&#187;</text><text fill="#000000" font-family="sans-serif" font-size="14" lengthAdjust="spacing" textLength="47" x="843.5" y="575.502">Service</text><rect fill="#E2E2F0" height="49.2188" rx="2.5" ry="2.5" style="stroke:#181818;stroke-width:0.5;" width="132" x="964" y="42.7031"/><text fill="#000000" font-family="sans-serif" font-size="14" font-style="italic" lengthAdjust="spacing" textLength="118" x="971" y="64.2363">&#171;component (C4)&#187;</text><text fill="#000000" font-family="sans-serif" font-size="14" lengthAdjust="spacing" textLength="36" x="1012" y="81.8457">HTTP</text><rect fill="#E2E2F0" height="49.2188" rx="2.5" ry="2.5" style="stroke:#181818;stroke-width:0.5;" width="132" x="964" y="536.3594"/><text fill="#000000" font-family="sans-serif" font-size="14" font-style="italic" lengthAdjust="spacing" textLength="118" x="971" y="557.8926">&#171;component (C4)&#187;</text><text fill="#000000" font-family="sans-serif" font-size="14" lengthAdjust="spacing" textLength="36" x="1012" y="575.502">HTTP</text><rect fill="#E2E2F0" height="49.2188" rx="2.5" ry="2.5" style="stroke:#181818;stroke-width:0.5;" width="189" x="1106" y="42.7031"/><text fill="#000000" font-family="sans-serif" font-size="14" font-style="italic" lengthAdjust="spacing" textLength="118" x="1141.5" y="64.2363">&#171;component (C4)&#187;</text><text fill="#000000" font-family="sans-serif" font-size="14" lengthAdjust="spacing" textLength="175" x="1113" y="81.8457">Backend Data Management</text><rect fill="#E2E2F0" height="49.2188" rx="2.5" ry="2.5" style="stroke:#181818;stroke-width:0.5;" width="189" x="1106" y="536.3594"/><text fill="#000000" font-family="sans-serif" font-size="14" font-style="italic" lengthAdjust="spacing" textLength="118" x="1141.5" y="557.8926">&#171;component (C4)&#187;</text><text fill="#000000" font-family="sans-serif" font-size="14" lengthAdjust="spacing" textLength="175" x="1113" y="575.502">Backend Data Management</text><rect fill="#FFFFFF" height="416.4375" style="stroke:#181818;stroke-width:1.0;" width="10" x="25" y="102.9219"/><rect fill="#FFFFFF" height="30.3516" style="stroke:#181818;stroke-width:1.0;" width="10" x="325" y="125.2734"/><rect fill="#FFFFFF" height="333.3828" style="stroke:#181818;stroke-width:1.0;" width="10" x="325" y="185.9766"/><rect fill="#FFFFFF" height="272.6797" style="stroke:#181818;stroke-width:1.0;" width="10" x="578" y="216.3281"/><rect fill="#FFFFFF" height="151.7578" style="stroke:#181818;stroke-width:1.0;" width="10" x="862" y="306.8984"/><rect fill="#FFFFFF" height="91.0547" style="stroke:#181818;stroke-width:1.0;" width="10" x="1025" y="337.25"/><rect fill="#FFFFFF" height="30.3516" style="stroke:#181818;stroke-width:1.0;" width="10" x="1195.5" y="367.6016"/><polygon fill="#181818" points="313,121.2734,323,125.2734,313,129.2734,317,125.2734" style="stroke:#181818;stroke-width:1.0;"/><line style="stroke:#181818;stroke-width:1.0;" x1="35" x2="319" y1="125.2734" y2="125.2734"/><text fill="#000000" font-family="sans-serif" font-size="13" font-weight="bold" lengthAdjust="spacing" textLength="7" x="44.5" y="120.417">1</text><text fill="#000000" font-family="sans-serif" font-size="13" lengthAdjust="spacing" textLength="260" x="55.5" y="120.417">asks to register for the healthcare application</text><polygon fill="#181818" points="46,151.625,36,155.625,46,159.625,42,155.625" style="stroke:#181818;stroke-width:1.0;"/><line style="stroke:#181818;stroke-width:1.0;stroke-dasharray:2.0,2.0;" x1="40" x2="329" y1="155.625" y2="155.625"/><text fill="#000000" font-family="sans-serif" font-size="13" font-weight="bold" lengthAdjust="spacing" textLength="7" x="125" y="150.7686">2</text><text fill="#000000" font-family="sans-serif" font-size="13" lengthAdjust="spacing" textLength="104" x="136" y="150.7686">asks to input data</text><polygon fill="#181818" points="313,181.9766,323,185.9766,313,189.9766,317,185.9766" style="stroke:#181818;stroke-width:1.0;"/><line style="stroke:#181818;stroke-width:1.0;" x1="35" x2="319" y1="185.9766" y2="185.9766"/><text fill="#000000" font-family="sans-serif" font-size="13" font-weight="bold" lengthAdjust="spacing" textLength="7" x="146" y="181.1201">3</text><text fill="#000000" font-family="sans-serif" font-size="13" lengthAdjust="spacing" textLength="57" x="157" y="181.1201">input data</text><polygon fill="#181818" points="566,212.3281,576,216.3281,566,220.3281,570,216.3281" style="stroke:#181818;stroke-width:1.0;"/><line style="stroke:#181818;stroke-width:1.0;" x1="335" x2="572" y1="216.3281" y2="216.3281"/><text fill="#000000" font-family="sans-serif" font-size="13" font-weight="bold" lengthAdjust="spacing" textLength="7" x="344.5" y="211.4717">4</text><text fill="#000000" font-family="sans-serif" font-size="13" lengthAdjust="spacing" textLength="213" x="355.5" y="211.4717">register for the healthcare application</text><polygon fill="#181818" points="647,242.6797,657,246.6797,647,250.6797,651,246.6797" style="stroke:#181818;stroke-width:1.0;"/><line style="stroke:#181818;stroke-width:1.0;" x1="588" x2="653" y1="246.6797" y2="246.6797"/><text fill="#000000" font-family="sans-serif" font-size="13" font-weight="bold" lengthAdjust="spacing" textLength="7" x="600" y="241.8232">5</text><text fill="#000000" font-family="sans-serif" font-size="13" lengthAdjust="spacing" textLength="36" x="611" y="241.8232">create</text><rect fill="#E2E2F0" height="49.2188" rx="2.5" ry="2.5" style="stroke:#181818;stroke-width:0.5;" width="132" x="659" y="224.3281"/><text fill="#000000" font-family="sans-serif" font-size="14" font-style="italic" lengthAdjust="spacing" textLength="118" x="666" y="245.8613">&#171;component (C4)&#187;</text><text fill="#000000" font-family="sans-serif" font-size="14" lengthAdjust="spacing" textLength="38" x="706" y="263.4707">Model</text><polygon fill="#181818" points="850,302.8984,860,306.8984,850,310.8984,854,306.8984" style="stroke:#181818;stroke-width:1.0;"/><line style="stroke:#181818;stroke-width:1.0;" x1="588" x2="856" y1="306.8984" y2="306.8984"/><text fill="#000000" font-family="sans-serif" font-size="13" font-weight="bold" lengthAdjust="spacing" textLength="7" x="613" y="302.042">6</text><text fill="#000000" font-family="sans-serif" font-size="13" lengthAdjust="spacing" textLength="213" x="624" y="302.042">register for the healthcare application</text><polygon fill="#181818" points="1013,333.25,1023,337.25,1013,341.25,1017,337.25" style="stroke:#181818;stroke-width:1.0;"/><line style="stroke:#181818;stroke-width:1.0;" x1="872" x2="1019" y1="337.25" y2="337.25"/><text fill="#000000" font-family="sans-serif" font-size="13" font-weight="bold" lengthAdjust="spacing" textLength="7" x="881.5" y="332.3936">7</text><text fill="#000000" font-family="sans-serif" font-size="13" lengthAdjust="spacing" textLength="123" x="892.5" y="332.3936">post('/users/patients')</text><polygon fill="#181818" points="1183.5,363.6016,1193.5,367.6016,1183.5,371.6016,1187.5,367.6016" style="stroke:#181818;stroke-width:1.0;"/><line style="stroke:#181818;stroke-width:1.0;" x1="1035" x2="1189.5" y1="367.6016" y2="367.6016"/><text fill="#000000" font-family="sans-serif" font-size="13" font-weight="bold" lengthAdjust="spacing" textLength="7" x="1047.25" y="362.7451">8</text><text fill="#000000" font-family="sans-serif" font-size="13" lengthAdjust="spacing" textLength="125" x="1058.25" y="362.7451">POST /users/patients</text><polygon fill="#181818" points="1046,393.9531,1036,397.9531,1046,401.9531,1042,397.9531" style="stroke:#181818;stroke-width:1.0;"/><line style="stroke:#181818;stroke-width:1.0;stroke-dasharray:2.0,2.0;" x1="1040" x2="1199.5" y1="397.9531" y2="397.9531"/><text fill="#000000" font-family="sans-serif" font-size="13" font-weight="bold" lengthAdjust="spacing" textLength="7" x="1083.25" y="393.0967">9</text><text fill="#000000" font-family="sans-serif" font-size="13" lengthAdjust="spacing" textLength="58" x="1094.25" y="393.0967">201 (user)</text><polygon fill="#181818" points="883,424.3047,873,428.3047,883,432.3047,879,428.3047" style="stroke:#181818;stroke-width:1.0;"/><line style="stroke:#181818;stroke-width:1.0;stroke-dasharray:2.0,2.0;" x1="877" x2="1029" y1="428.3047" y2="428.3047"/><text fill="#000000" font-family="sans-serif" font-size="13" font-weight="bold" lengthAdjust="spacing" textLength="14" x="929.5" y="423.4482">10</text><text fill="#000000" font-family="sans-serif" font-size="13" lengthAdjust="spacing" textLength="25" x="947.5" y="423.4482">user</text><polygon fill="#181818" points="599,454.6563,589,458.6563,599,462.6563,595,458.6563" style="stroke:#181818;stroke-width:1.0;"/><line style="stroke:#181818;stroke-width:1.0;stroke-dasharray:2.0,2.0;" x1="593" x2="866" y1="458.6563" y2="458.6563"/><text fill="#000000" font-family="sans-serif" font-size="13" font-weight="bold" lengthAdjust="spacing" textLength="14" x="706" y="453.7998">11</text><text fill="#000000" font-family="sans-serif" font-size="13" lengthAdjust="spacing" textLength="25" x="724" y="453.7998">user</text><polygon fill="#181818" points="346,485.0078,336,489.0078,346,493.0078,342,489.0078" style="stroke:#181818;stroke-width:1.0;"/><line style="stroke:#181818;stroke-width:1.0;stroke-dasharray:2.0,2.0;" x1="340" x2="582" y1="489.0078" y2="489.0078"/><text fill="#000000" font-family="sans-serif" font-size="13" font-weight="bold" lengthAdjust="spacing" textLength="14" x="437.5" y="484.1514">12</text><text fill="#000000" font-family="sans-serif" font-size="13" lengthAdjust="spacing" textLength="25" x="455.5" y="484.1514">user</text><polygon fill="#181818" points="41,515.3594,31,519.3594,41,523.3594,37,519.3594" style="stroke:#181818;stroke-width:1.0;"/><line style="stroke:#181818;stroke-width:1.0;stroke-dasharray:2.0,2.0;" x1="35" x2="329" y1="519.3594" y2="519.3594"/><text fill="#000000" font-family="sans-serif" font-size="13" font-weight="bold" lengthAdjust="spacing" textLength="14" x="97.5" y="514.5029">13</text><text fill="#000000" font-family="sans-serif" font-size="13" lengthAdjust="spacing" textLength="147" x="115.5" y="514.5029">shows success message</text><!--SRC=[bPJBJkim48RtUOfHpe8MAUA0M5LH9IuwEaWWAb5sR8mxD5OJEx8TBc_Fs4tQk7KGyI9rq_c_VsOyBckiaatrYZen6o5hfba5j_Z6cj8kyTDUbM8jAvGME3qeYd6hD2oO5UubCv2s-pH9NjKdf7bklep52YOtbzFv_4N-qugKSfN-kHVhmbwN3IP0YxoiuA9cnBbHLQqaKPxlF9C-TgzIo7FUVMcfmm0l7wTzK2iilSxlVgLvGlqkE7fLk_-LxlzokV0Yjuagg5D0ZHpgvZNZ6nToooo31oRP6YlV_T2d3NDH-o1lF0JuCHSwTV7EB7O7d_Z2kYd8vi41piXdOy0gqBWMbBs6DvePMo0Ko4fRSAQfStLT2au49JriPz53RMtSwlCpyckjzrOqkus55HMr5Qrm61ZFUzPdZCoe1wBonvGTDzhR15REoC_ewIdPS8qa2YA7PTt0ZiykoB35XFcvrV79oi_u36fbxEJah36epLczRRavcHvBTt0dFFhLBKyaSdogPx1uV5h2WLCI9UsyegYungsuSxQlzkBlEKnS1jCuf3UF8wotXGV7vpoEWtjutyNXypcOLOyR84KFkpTLH_S-WCLkO7Z_yYmx09X2VHWm3UTe35JqeFRyU9zxxxl_fcy0]--></g></svg>