<?xml version="1.0" encoding="us-ascii" standalone="no"?><svg xmlns="http://www.w3.org/2000/svg" xmlns:xlink="http://www.w3.org/1999/xlink" contentStyleType="text/css" height="4602px" preserveAspectRatio="none" style="width:732px;height:4602px;background:#FFFFFF;" version="1.1" viewBox="0 0 732 4602" width="732px" zoomAndPan="magnify"><defs/><g><text fill="#000000" font-family="sans-serif" font-size="14" font-weight="bold" lengthAdjust="spacing" textLength="127" x="295.5965" y="24.5332">Use Case Diagram</text><!--entity User--><g id="elem_User"><ellipse cx="94.5" cy="4472.6094" fill="#F1F1F1" rx="8" ry="8" style="stroke:#181818;stroke-width:0.5;"/><path d="M94.5,4480.6094 L94.5,4507.6094 M81.5,4488.6094 L107.5,4488.6094 M94.5,4507.6094 L81.5,4522.6094 M94.5,4507.6094 L107.5,4522.6094 " fill="none" style="stroke:#181818;stroke-width:0.5;"/><text fill="#000000" font-family="sans-serif" font-size="14" lengthAdjust="spacing" textLength="29" x="80" y="4538.6426">User</text></g><!--entity Customer--><g id="elem_Customer"><ellipse cx="94.5" cy="4303.6094" fill="#F1F1F1" rx="8" ry="8" style="stroke:#181818;stroke-width:0.5;"/><path d="M94.5,4311.6094 L94.5,4338.6094 M81.5,4319.6094 L107.5,4319.6094 M94.5,4338.6094 L81.5,4353.6094 M94.5,4338.6094 L107.5,4353.6094 " fill="none" style="stroke:#181818;stroke-width:0.5;"/><text fill="#000000" font-family="sans-serif" font-size="14" lengthAdjust="spacing" textLength="61" x="64" y="4369.6426">Customer</text></g><!--entity SoftwareArchitect--><g id="elem_SoftwareArchitect"><ellipse cx="94.5" cy="4184.6094" fill="#F1F1F1" rx="8" ry="8" style="stroke:#181818;stroke-width:0.5;"/><path d="M94.5,4192.6094 L94.5,4219.6094 M81.5,4200.6094 L107.5,4200.6094 M94.5,4219.6094 L81.5,4234.6094 M94.5,4219.6094 L107.5,4234.6094 " fill="none" style="stroke:#181818;stroke-width:0.5;"/><text fill="#000000" font-family="sans-serif" font-size="14" lengthAdjust="spacing" textLength="114" x="37.5" y="4250.6426">Software Architect</text></g><!--entity Admin--><g id="elem_Admin"><ellipse cx="94.5" cy="3676.6094" fill="#F1F1F1" rx="8" ry="8" style="stroke:#181818;stroke-width:0.5;"/><path d="M94.5,3684.6094 L94.5,3711.6094 M81.5,3692.6094 L107.5,3692.6094 M94.5,3711.6094 L81.5,3726.6094 M94.5,3711.6094 L107.5,3726.6094 " fill="none" style="stroke:#181818;stroke-width:0.5;"/><text fill="#000000" font-family="sans-serif" font-size="14" lengthAdjust="spacing" textLength="39" x="75" y="3742.6426">Admin</text></g><!--entity Doctor--><g id="elem_Doctor"><ellipse cx="94.5" cy="2928.6094" fill="#F1F1F1" rx="8" ry="8" style="stroke:#181818;stroke-width:0.5;"/><path d="M94.5,2936.6094 L94.5,2963.6094 M81.5,2944.6094 L107.5,2944.6094 M94.5,2963.6094 L81.5,2978.6094 M94.5,2963.6094 L107.5,2978.6094 " fill="none" style="stroke:#181818;stroke-width:0.5;"/><text fill="#000000" font-family="sans-serif" font-size="14" lengthAdjust="spacing" textLength="42" x="73.5" y="2994.6426">Doctor</text></g><!--entity HospitalManager--><g id="elem_HospitalManager"><ellipse cx="94.5" cy="2561.6094" fill="#F1F1F1" rx="8" ry="8" style="stroke:#181818;stroke-width:0.5;"/><path d="M94.5,2569.6094 L94.5,2596.6094 M81.5,2577.6094 L107.5,2577.6094 M94.5,2596.6094 L81.5,2611.6094 M94.5,2596.6094 L107.5,2611.6094 " fill="none" style="stroke:#181818;stroke-width:0.5;"/><text fill="#000000" font-family="sans-serif" font-size="14" lengthAdjust="spacing" textLength="110" x="39.5" y="2627.6426">Hospital Manager</text></g><!--entity OrgAdmin--><g id="elem_OrgAdmin"><ellipse cx="94.5" cy="2185.6094" fill="#F1F1F1" rx="8" ry="8" style="stroke:#181818;stroke-width:0.5;"/><path d="M94.5,2193.6094 L94.5,2220.6094 M81.5,2201.6094 L107.5,2201.6094 M94.5,2220.6094 L81.5,2235.6094 M94.5,2220.6094 L107.5,2235.6094 " fill="none" style="stroke:#181818;stroke-width:0.5;"/><text fill="#000000" font-family="sans-serif" font-size="14" lengthAdjust="spacing" textLength="177" x="6" y="2251.6426">Organization's Administrator</text></g><!--entity SysAdmin--><g id="elem_SysAdmin"><ellipse cx="94.5" cy="1424.6094" fill="#F1F1F1" rx="8" ry="8" style="stroke:#181818;stroke-width:0.5;"/><path d="M94.5,1432.6094 L94.5,1459.6094 M81.5,1440.6094 L107.5,1440.6094 M94.5,1459.6094 L81.5,1474.6094 M94.5,1459.6094 L107.5,1474.6094 " fill="none" style="stroke:#181818;stroke-width:0.5;"/><text fill="#000000" font-family="sans-serif" font-size="14" lengthAdjust="spacing" textLength="133" x="28" y="1490.6426">System Administrator</text></g><!--entity HealthcareStaffMember--><g id="elem_HealthcareStaffMember"><ellipse cx="94.5" cy="713.6094" fill="#F1F1F1" rx="8" ry="8" style="stroke:#181818;stroke-width:0.5;"/><path d="M94.5,721.6094 L94.5,748.6094 M81.5,729.6094 L107.5,729.6094 M94.5,748.6094 L81.5,763.6094 M94.5,748.6094 L107.5,763.6094 " fill="none" style="stroke:#181818;stroke-width:0.5;"/><text fill="#000000" font-family="sans-serif" font-size="14" lengthAdjust="spacing" textLength="156" x="16.5" y="779.6426">Healthcare Staff Member</text></g><!--entity Patient--><g id="elem_Patient"><ellipse cx="94.5" cy="226.6094" fill="#F1F1F1" rx="8" ry="8" style="stroke:#181818;stroke-width:0.5;"/><path d="M94.5,234.6094 L94.5,261.6094 M81.5,242.6094 L107.5,242.6094 M94.5,261.6094 L81.5,276.6094 M94.5,261.6094 L107.5,276.6094 " fill="none" style="stroke:#181818;stroke-width:0.5;"/><text fill="#000000" font-family="sans-serif" font-size="14" lengthAdjust="spacing" textLength="44" x="72.5" y="292.6426">Patient</text></g><g id="elem_IntegratedUI"><ellipse cx="484.7384" cy="4447.957" fill="#F1F1F1" rx="174.7384" ry="37.3477" style="stroke:#181818;stroke-width:0.5;"/><text fill="#000000" font-family="sans-serif" font-size="14" lengthAdjust="spacing" textLength="320" x="324.7384" y="4451.6856">Have an integrated UI for all modules of the system</text></g><g id="elem_MenuAdjustment"><ellipse cx="484.6398" cy="4559.0373" fill="#F1F1F1" rx="177.6398" ry="37.928" style="stroke:#181818;stroke-width:0.5;"/><text fill="#000000" font-family="sans-serif" font-size="14" lengthAdjust="spacing" textLength="326" x="321.6398" y="4562.7659">The application menu to adjust according to my role</text></g><g id="elem_RoomAvailabilitySync"><ellipse cx="484.5437" cy="552.9181" fill="#F1F1F1" rx="219.5437" ry="46.3087" style="stroke:#181818;stroke-width:0.5;"/><text fill="#000000" font-family="sans-serif" font-size="14" lengthAdjust="spacing" textLength="331" x="316.0437" y="539.8253">The information show on the 3D visualization module</text><text fill="#000000" font-family="sans-serif" font-size="14" lengthAdjust="spacing" textLength="316" x="323.5437" y="557.4347">about room availability is in sync with the schedule</text><text fill="#000000" font-family="sans-serif" font-size="14" lengthAdjust="spacing" textLength="272" x="345.5437" y="575.0441">that was generated by the planning module</text></g><g id="elem_BackofficeSync"><ellipse cx="484.4656" cy="3371.0025" fill="#F1F1F1" rx="227.4656" ry="47.8931" style="stroke:#181818;stroke-width:0.5;"/><text fill="#000000" font-family="sans-serif" font-size="14" lengthAdjust="spacing" textLength="351" x="308.9133" y="3357.136">The information about healthcare staff, operation types,</text><text fill="#000000" font-family="sans-serif" font-size="14" lengthAdjust="spacing" textLength="261" x="353.9133" y="3374.7454">and operation requests is in sync with the</text><text fill="#000000" font-family="sans-serif" font-size="14" lengthAdjust="spacing" textLength="280" x="344.4133" y="3392.3548">information entered in the backoffice module</text></g><g id="elem_SalesAndTechnicalPresentation"><ellipse cx="484.6389" cy="4334.3371" fill="#F1F1F1" rx="194.1389" ry="41.2278" style="stroke:#181818;stroke-width:0.5;"/><text fill="#000000" font-family="sans-serif" font-size="14" lengthAdjust="spacing" textLength="356" x="304.6389" y="4338.0657">A sales and technical presentation of the overall solution</text></g><g id="elem_AdoptDecentralizedArchitecture"><ellipse cx="484.4572" cy="4215.2008" fill="#F1F1F1" rx="200.9572" ry="42.5914" style="stroke:#181818;stroke-width:0.5;"/><text fill="#000000" font-family="sans-serif" font-size="14" lengthAdjust="spacing" textLength="374" x="297.4572" y="4218.9293">Adopt a decentralized architecture of the backoffice module</text></g><g id="elem_AddNewAllergy"><ellipse cx="484.3525" cy="3471.9799" fill="#F1F1F1" rx="74.8525" ry="17.3705" style="stroke:#181818;stroke-width:0.5;"/><text fill="#000000" font-family="sans-serif" font-size="14" lengthAdjust="spacing" textLength="101" x="430.8525" y="3476.4965">Add new Allergy</text></g><g id="elem_SearchForAllergies"><ellipse cx="484.5066" cy="2694.3107" fill="#F1F1F1" rx="84.0066" ry="19.2013" style="stroke:#181818;stroke-width:0.5;"/><text fill="#000000" font-family="sans-serif" font-size="14" lengthAdjust="spacing" textLength="124" x="422.5066" y="2698.0392">Search for Allergies</text></g><g id="elem_AddNewMedicalCondition"><ellipse cx="484.5894" cy="3548.3273" fill="#F1F1F1" rx="104.0894" ry="23.2179" style="stroke:#181818;stroke-width:0.5;"/><text fill="#000000" font-family="sans-serif" font-size="14" lengthAdjust="spacing" textLength="170" x="399.5894" y="3552.0558">Add new Medical Condition</text></g><g id="elem_SearchForMedicalConditions"><ellipse cx="484.7192" cy="2773.0532" fill="#F1F1F1" rx="112.7192" ry="24.9438" style="stroke:#181818;stroke-width:0.5;"/><text fill="#000000" font-family="sans-serif" font-size="14" lengthAdjust="spacing" textLength="189" x="390.2192" y="2776.7817">Search for Medical Conditions</text></g><g id="elem_UpdatePatientMedicalRecord"><ellipse cx="484.6055" cy="2861.3305" fill="#F1F1F1" rx="126.6055" ry="27.7211" style="stroke:#181818;stroke-width:0.5;"/><text fill="#000000" font-family="sans-serif" font-size="14" lengthAdjust="spacing" textLength="219" x="375.1055" y="2865.059">Update the Patient Medical Record</text></g><g id="elem_SearchEntriesPatientMedicalRecord"><ellipse cx="484.5554" cy="2959.2205" fill="#F1F1F1" rx="166.0554" ry="35.6111" style="stroke:#181818;stroke-width:0.5;"/><text fill="#000000" font-family="sans-serif" font-size="14" lengthAdjust="spacing" textLength="302" x="333.5554" y="2962.949">Search for entries in the Patient Medical Record</text></g><g id="elem_CreateSurgeryAppointment"><ellipse cx="484.5948" cy="3055.3283" fill="#F1F1F1" rx="114.0948" ry="25.219" style="stroke:#181818;stroke-width:0.5;"/><text fill="#000000" font-family="sans-serif" font-size="14" lengthAdjust="spacing" textLength="192" x="388.5948" y="3059.0569">Create a Surgery Appointment</text></g><g id="elem_UpdateSurgeryAppointment"><ellipse cx="484.5137" cy="3141.0121" fill="#F1F1F1" rx="115.0137" ry="25.4027" style="stroke:#181818;stroke-width:0.5;"/><text fill="#000000" font-family="sans-serif" font-size="14" lengthAdjust="spacing" textLength="194" x="387.5137" y="3144.7406">Update a Surgery Appointment</text></g><g id="elem_AddNewTypesOfRooms"><ellipse cx="484.337" cy="3628.0768" fill="#F1F1F1" rx="97.837" ry="21.9674" style="stroke:#181818;stroke-width:0.5;"/><text fill="#000000" font-family="sans-serif" font-size="14" lengthAdjust="spacing" textLength="156" x="406.337" y="3631.8053">Add new Types of rooms</text></g><g id="elem_AddNewSpecializations"><ellipse cx="484.63" cy="3707.1354" fill="#F1F1F1" rx="95.63" ry="21.526" style="stroke:#181818;stroke-width:0.5;"/><text fill="#000000" font-family="sans-serif" font-size="14" lengthAdjust="spacing" textLength="151" x="409.13" y="3710.8639">Add new Specializations</text></g><g id="elem_ListSearchSpecializations"><ellipse cx="484.2928" cy="3786.9679" fill="#F1F1F1" rx="102.2928" ry="22.8586" style="stroke:#181818;stroke-width:0.5;"/><text fill="#000000" font-family="sans-serif" font-size="14" lengthAdjust="spacing" textLength="166" x="401.2928" y="3790.6965">List/search Specializations</text></g><g id="elem_EditSpecializations"><ellipse cx="484.2516" cy="3864.0597" fill="#F1F1F1" rx="82.7516" ry="18.9503" style="stroke:#181818;stroke-width:0.5;"/><text fill="#000000" font-family="sans-serif" font-size="14" lengthAdjust="spacing" textLength="121" x="423.7516" y="3867.7882">Edit Specializations</text></g><g id="elem_IncludePatientMedicalRecordAccess"><ellipse cx="484.3803" cy="3245.1854" fill="#F1F1F1" rx="203.3803" ry="43.0761" style="stroke:#181818;stroke-width:0.5;"/><text fill="#000000" font-family="sans-serif" font-size="14" lengthAdjust="spacing" textLength="307" x="328.8803" y="3240.1093">Include the access of the Patient Medical Record</text><text fill="#000000" font-family="sans-serif" font-size="14" lengthAdjust="spacing" textLength="348" x="310.3803" y="3257.7186">during the patient profile visualization and management</text></g><g id="elem_AutomaticAssignmentOfOperationsToRooms"><ellipse cx="484.3133" cy="3965.272" fill="#F1F1F1" rx="223.8133" ry="47.1627" style="stroke:#181818;stroke-width:0.5;"/><text fill="#000000" font-family="sans-serif" font-size="14" lengthAdjust="spacing" textLength="389" x="287.8133" y="3960.1959">An automatic method to assign a set of operations (surgeries)</text><text fill="#000000" font-family="sans-serif" font-size="14" lengthAdjust="spacing" textLength="169" x="399.8133" y="3977.8052">to several operation rooms</text></g><g id="elem_ScheduleSurgeryToRoomsGeneticAlgorithm"><ellipse cx="484.7256" cy="4092.3545" fill="#F1F1F1" rx="214.2256" ry="45.2451" style="stroke:#181818;stroke-width:0.5;"/><text fill="#000000" font-family="sans-serif" font-size="14" lengthAdjust="spacing" textLength="368" x="298.7256" y="4087.2783">Be able to schedule surgeries to several operations rooms</text><text fill="#000000" font-family="sans-serif" font-size="14" lengthAdjust="spacing" textLength="157" x="406.2256" y="4104.8877">using Genetic Algorithms</text></g><g id="elem_StudyStateOfTheArtRobotsComputerVision"><ellipse cx="484.5273" cy="2591.9148" fill="#F1F1F1" rx="227.0273" ry="47.8055" style="stroke:#181818;stroke-width:0.5;"/><text fill="#000000" font-family="sans-serif" font-size="14" lengthAdjust="spacing" textLength="329" x="318.0273" y="2586.8387">Study of state of the art of application of Robots and</text><text fill="#000000" font-family="sans-serif" font-size="14" lengthAdjust="spacing" textLength="400" x="284.5273" y="2604.448">Computer Vision in Hospitals, namely in the context of surgeries</text></g><g id="elem_DisasterRecoveryPlan"><ellipse cx="484.6626" cy="1957.1419" fill="#F1F1F1" rx="213.1626" ry="45.0325" style="stroke:#181818;stroke-width:0.5;"/><text fill="#000000" font-family="sans-serif" font-size="14" lengthAdjust="spacing" textLength="399" x="285.1626" y="1960.8704">Disaster recovery plan that meets the MBCO defined in sprint B</text></g><g id="elem_JustificationForChangeToInfrastructure"><ellipse cx="484.4458" cy="2084.2985" fill="#F1F1F1" rx="221.4458" ry="46.6892" style="stroke:#181818;stroke-width:0.5;"/><text fill="#000000" font-family="sans-serif" font-size="14" lengthAdjust="spacing" textLength="312" x="328.4458" y="2070.4177">Be presented with a justification for the change(s)</text><text fill="#000000" font-family="sans-serif" font-size="14" lengthAdjust="spacing" textLength="328" x="320.4458" y="2088.0271">to be made to the infrastructure in order to ensure a</text><text fill="#000000" font-family="sans-serif" font-size="14" lengthAdjust="spacing" textLength="320" x="324.4458" y="2105.6364">MTD (Maximum Tolerable Downtime) of 20 minutes</text></g><g id="elem_BackupDBToCloud"><ellipse cx="484.6664" cy="1064.0427" fill="#F1F1F1" rx="237.6664" ry="49.9333" style="stroke:#181818;stroke-width:0.5;"/><text fill="#000000" font-family="sans-serif" font-size="14" lengthAdjust="spacing" textLength="449" x="260.1664" y="1067.7712">Make a backup copy of the DB(s) to a Cloud environment using a script</text></g><g id="elem_ManageBackupFiles"><ellipse cx="484.4627" cy="1193.2019" fill="#F1F1F1" rx="208.4627" ry="44.0925" style="stroke:#181818;stroke-width:0.5;"/><text fill="#000000" font-family="sans-serif" font-size="14" lengthAdjust="spacing" textLength="298" x="330.4627" y="1180.1091">Script to be created using the backup prepared</text><text fill="#000000" font-family="sans-serif" font-size="14" lengthAdjust="spacing" textLength="273" x="342.9627" y="1197.7185">in previous US to manage the files resulting</text><text fill="#000000" font-family="sans-serif" font-size="14" lengthAdjust="spacing" textLength="267" x="347.9627" y="1215.3279">from this backup on the following schedule</text></g><g id="elem_LogAndAlertDBBackupProcess"><ellipse cx="484.3442" cy="1322.8782" fill="#F1F1F1" rx="239.3442" ry="50.2688" style="stroke:#181818;stroke-width:0.5;"/><text fill="#000000" font-family="sans-serif" font-size="14" lengthAdjust="spacing" textLength="380" x="294.3442" y="1308.9973">The US process of the DB backup to be kept in the Linux log</text><text fill="#000000" font-family="sans-serif" font-size="14" lengthAdjust="spacing" textLength="347" x="312.8442" y="1326.6067">and alert the administrator when accessing the console</text><text fill="#000000" font-family="sans-serif" font-size="14" lengthAdjust="spacing" textLength="253" x="359.8442" y="1344.2161">if a serious failure occurs in this process</text></g><g id="elem_RetentionDBBackup"><ellipse cx="484.7176" cy="1454.9529" fill="#F1F1F1" rx="217.2176" ry="45.8435" style="stroke:#181818;stroke-width:0.5;"/><text fill="#000000" font-family="sans-serif" font-size="14" lengthAdjust="spacing" textLength="321" x="319.2176" y="1441.8601">The US backup of the DB backup to have a lifetime</text><text fill="#000000" font-family="sans-serif" font-size="14" lengthAdjust="spacing" textLength="268" x="345.7176" y="1459.4695">of no more than 7 (seven) days, except for</text><text fill="#000000" font-family="sans-serif" font-size="14" lengthAdjust="spacing" textLength="315" x="324.2176" y="1477.0789">the US retention of the monthly and annual copies</text></g><g id="elem_BIAOfFinalSolution"><ellipse cx="484.4289" cy="2216.0952" fill="#F1F1F1" rx="240.4289" ry="50.4858" style="stroke:#181818;stroke-width:0.5;"/><text fill="#000000" font-family="sans-serif" font-size="14" lengthAdjust="spacing" textLength="429" x="269.9289" y="2211.019">Presented with a BIA (Business Impact Analysis) of the final solution,</text><text fill="#000000" font-family="sans-serif" font-size="14" lengthAdjust="spacing" textLength="271" x="350.9289" y="2228.6284">adapting if and where applicable the risk(s)</text></g><g id="elem_AccessManagement"><ellipse cx="484.6171" cy="2343.1328" fill="#F1F1F1" rx="193.1171" ry="41.0234" style="stroke:#181818;stroke-width:0.5;"/><text fill="#000000" font-family="sans-serif" font-size="14" lengthAdjust="spacing" textLength="321" x="322.1171" y="2338.0566">Access management to be implemented that meets</text><text fill="#000000" font-family="sans-serif" font-size="14" lengthAdjust="spacing" textLength="197" x="386.1171" y="2355.666">the appropriate security criteria</text></g><g id="elem_ClusteringSystem"><ellipse cx="484.7256" cy="2464.3545" fill="#F1F1F1" rx="214.2256" ry="45.2451" style="stroke:#181818;stroke-width:0.5;"/><text fill="#000000" font-family="sans-serif" font-size="14" lengthAdjust="spacing" textLength="368" x="298.7256" y="2459.2783">Clustering system to be implemented between the systems</text><text fill="#000000" font-family="sans-serif" font-size="14" lengthAdjust="spacing" textLength="278" x="345.7256" y="2476.8877">that implement the SPA in a justified manner</text></g><g id="elem_SSHAccessToVirtualMachine"><ellipse cx="484.6939" cy="1582.9482" fill="#F1F1F1" rx="219.6939" ry="46.3388" style="stroke:#181818;stroke-width:0.5;"/><text fill="#000000" font-family="sans-serif" font-size="14" lengthAdjust="spacing" textLength="384" x="292.6939" y="1577.872">The administrator to have SSH access to the virtual machine,</text><text fill="#000000" font-family="sans-serif" font-size="14" lengthAdjust="spacing" textLength="238" x="367.6939" y="1595.4814">by certificate only, without a password</text></g><g id="elem_PublicFileShare"><ellipse cx="484.7422" cy="1707.0578" fill="#F1F1F1" rx="200.2422" ry="42.4484" style="stroke:#181818;stroke-width:0.5;"/><text fill="#000000" font-family="sans-serif" font-size="14" lengthAdjust="spacing" textLength="341" x="314.2422" y="1701.9817">Create a public file share, in SMB/CIFS or NFS format,</text><text fill="#000000" font-family="sans-serif" font-size="14" lengthAdjust="spacing" textLength="290" x="341.7422" y="1719.591">to speed things up between the various teams</text></g><g id="elem_EnsureBackupCorrectness"><ellipse cx="484.5331" cy="1831.316" fill="#F1F1F1" rx="219.0331" ry="46.2066" style="stroke:#181818;stroke-width:0.5;"/><text fill="#000000" font-family="sans-serif" font-size="14" lengthAdjust="spacing" textLength="411" x="279.0331" y="1835.0445">Ensure that backups have been carried out correctly if necessary</text></g><g id="elem_SelectRoom"><ellipse cx="484.5862" cy="680.3266" fill="#F1F1F1" rx="216.5862" ry="45.7172" style="stroke:#181818;stroke-width:0.5;"/><text fill="#000000" font-family="sans-serif" font-size="14" lengthAdjust="spacing" textLength="406" x="281.5862" y="684.0551">Select a room by left clicking on the corresponding surgical table</text></g><g id="elem_PressIKey"><ellipse cx="484.6509" cy="807.0395" fill="#F1F1F1" rx="220.1509" ry="46.4302" style="stroke:#181818;stroke-width:0.5;"/><text fill="#000000" font-family="sans-serif" font-size="14" lengthAdjust="spacing" textLength="381" x="292.1509" y="801.9634">Press the &#8220;i&#8221; key, I want to display/hide an overlay containing</text><text fill="#000000" font-family="sans-serif" font-size="14" lengthAdjust="spacing" textLength="283" x="343.1509" y="819.5728">updated information about the selected room</text></g><g id="elem_SelectDifferentRoomSmoothly"><ellipse cx="484.4093" cy="933.9912" fill="#F1F1F1" rx="212.4093" ry="44.8819" style="stroke:#181818;stroke-width:0.5;"/><text fill="#000000" font-family="sans-serif" font-size="14" lengthAdjust="spacing" textLength="364" x="300.4093" y="928.9151">Select a different room and the camera (and the spotlight,</text><text fill="#000000" font-family="sans-serif" font-size="14" lengthAdjust="spacing" textLength="316" x="326.4093" y="946.5244">if applicable) to move smoothly instead of instantly</text></g><g id="elem_DownloadMedicalHistory"><ellipse cx="484.3351" cy="88.1764" fill="#F1F1F1" rx="205.8351" ry="43.567" style="stroke:#181818;stroke-width:0.5;"/><text fill="#000000" font-family="sans-serif" font-size="14" lengthAdjust="spacing" textLength="384" x="292.3351" y="91.9049">Download my medical history in a portable and secure format</text></g><g id="elem_RequestDeletionOfPersonalData"><ellipse cx="484.4478" cy="198.1989" fill="#F1F1F1" rx="145.9478" ry="31.5896" style="stroke:#181818;stroke-width:0.5;"/><text fill="#000000" font-family="sans-serif" font-size="14" lengthAdjust="spacing" textLength="260" x="354.4478" y="201.9274">Request the deletion of my personal data</text></g><g id="elem_KnowDataProcessed"><ellipse cx="484.5965" cy="315.3287" fill="#F1F1F1" rx="241.5965" ry="50.7193" style="stroke:#181818;stroke-width:0.5;"/><text fill="#000000" font-family="sans-serif" font-size="14" lengthAdjust="spacing" textLength="457" x="256.0965" y="319.0572">Know what data will be processed, in what manner, and exercise my right</text></g><g id="elem_KnowDataRetentionPeriod"><ellipse cx="484.574" cy="436.1242" fill="#F1F1F1" rx="165.574" ry="35.5148" style="stroke:#181818;stroke-width:0.5;"/><text fill="#000000" font-family="sans-serif" font-size="14" lengthAdjust="spacing" textLength="301" x="334.074" y="439.8527">Know for how long my personal data will be kept</text></g><!--link User to IntegratedUI--><g id="link_User_IntegratedUI"><path d="M109.31,4501.1494 C146.03,4495.9494 243.3993,4482.1411 332.1893,4469.5611 " fill="none" id="User-to-IntegratedUI" style="stroke:#181818;stroke-width:1.0;"/><polygon fill="#181818" points="338.13,4468.7194,328.6579,4466.0215,333.1794,4469.4208,329.7801,4473.9424,338.13,4468.7194" style="stroke:#181818;stroke-width:1.0;"/></g><!--link User to MenuAdjustment--><g id="link_User_MenuAdjustment"><path d="M109.31,4505.0994 C145.83,4510.3694 242.2616,4524.2921 330.7216,4537.0621 " fill="none" id="User-to-MenuAdjustment" style="stroke:#181818;stroke-width:1.0;"/><polygon fill="#181818" points="336.66,4537.9194,328.3238,4532.6745,331.7113,4537.205,327.1808,4540.5924,336.66,4537.9194" style="stroke:#181818;stroke-width:1.0;"/></g><!--link HealthcareStaffMember to RoomAvailabilitySync--><g id="link_HealthcareStaffMember_RoomAvailabilitySync"><path d="M131.36,704.8994 C159.25,676.6394 200.26,639.6594 243,617.1094 C267.93,603.9494 290.0453,595.1137 317.7053,586.6037 " fill="none" id="HealthcareStaffMember-to-RoomAvailabilitySync" style="stroke:#181818;stroke-width:1.0;"/><polygon fill="#181818" points="323.44,584.8394,313.6617,583.6628,318.6611,586.3097,316.0142,591.3091,323.44,584.8394" style="stroke:#181818;stroke-width:1.0;"/></g><!--link Admin to BackofficeSync--><g id="link_Admin_BackofficeSync"><path d="M106.09,3668.0794 C124.14,3609.0594 166.55,3497.5894 243,3437.1094 C262.1,3421.9994 278.8254,3412.5073 302.0254,3403.5173 " fill="none" id="Admin-to-BackofficeSync" style="stroke:#181818;stroke-width:1.0;"/><polygon fill="#181818" points="307.62,3401.3494,297.7827,3400.8715,302.9578,3403.156,300.6733,3408.331,307.62,3401.3494" style="stroke:#181818;stroke-width:1.0;"/></g><!--link Customer to SalesAndTechnicalPresentation--><g id="link_Customer_SalesAndTechnicalPresentation"><path d="M125.3,4334.1094 C161.59,4334.1094 220.03,4334.1094 284.35,4334.1094 " fill="none" id="Customer-to-SalesAndTechnicalPresentation" style="stroke:#181818;stroke-width:1.0;"/><polygon fill="#181818" points="290.35,4334.1094,281.35,4330.1094,285.35,4334.1094,281.35,4338.1094,290.35,4334.1094" style="stroke:#181818;stroke-width:1.0;"/></g><!--link SoftwareArchitect to AdoptDecentralizedArchitecture--><g id="link_SoftwareArchitect_AdoptDecentralizedArchitecture"><path d="M151.5,4215.1094 C186.87,4215.1094 228.91,4215.1094 277.46,4215.1094 " fill="none" id="SoftwareArchitect-to-AdoptDecentralizedArchitecture" style="stroke:#181818;stroke-width:1.0;"/><polygon fill="#181818" points="283.46,4215.1094,274.46,4211.1094,278.46,4215.1094,274.46,4219.1094,283.46,4215.1094" style="stroke:#181818;stroke-width:1.0;"/></g><!--link Admin to AddNewAllergy--><g id="link_Admin_AddNewAllergy"><path d="M112.83,3667.9794 C135.58,3621.5894 180.14,3545.8594 243,3508.1094 C293.49,3477.7894 354.3711,3469.946 404.7811,3468.966 " fill="none" id="Admin-to-AddNewAllergy" style="stroke:#181818;stroke-width:1.0;"/><polygon fill="#181818" points="410.78,3468.8494,401.704,3465.0251,405.7809,3468.9466,401.8594,3473.0236,410.78,3468.8494" style="stroke:#181818;stroke-width:1.0;"/></g><!--link Doctor to SearchForAllergies--><g id="link_Doctor_SearchForAllergies"><path d="M109.13,2919.8894 C129.51,2867.5794 173.15,2776.3394 243,2731.1094 C289.9,2700.7394 346.5227,2692.0584 396.1127,2690.5784 " fill="none" id="Doctor-to-SearchForAllergies" style="stroke:#181818;stroke-width:1.0;"/><polygon fill="#181818" points="402.11,2690.3994,392.9947,2686.6696,397.1122,2690.5485,393.2333,2694.6661,402.11,2690.3994" style="stroke:#181818;stroke-width:1.0;"/></g><!--link Admin to AddNewMedicalCondition--><g id="link_Admin_AddNewMedicalCondition"><path d="M114.28,3686.6594 C140.37,3659.6494 190.34,3612.7394 243,3589.1094 C286.86,3569.4294 333.1429,3559.8558 377.7129,3554.4958 " fill="none" id="Admin-to-AddNewMedicalCondition" style="stroke:#181818;stroke-width:1.0;"/><polygon fill="#181818" points="383.67,3553.7794,374.2568,3550.8826,378.7058,3554.3764,375.212,3558.8254,383.67,3553.7794" style="stroke:#181818;stroke-width:1.0;"/></g><!--link Doctor to SearchForMedicalConditions--><g id="link_Doctor_SearchForMedicalConditions"><path d="M115.53,2931.4794 C141.14,2898.3794 188.72,2843.9194 243,2816.1094 C283.39,2795.4194 326.082,2785.2975 369.022,2779.6075 " fill="none" id="Doctor-to-SearchForMedicalConditions" style="stroke:#181818;stroke-width:1.0;"/><polygon fill="#181818" points="374.97,2778.8194,365.5225,2776.0363,370.0133,2779.4762,366.5734,2783.967,374.97,2778.8194" style="stroke:#181818;stroke-width:1.0;"/></g><!--link Doctor to UpdatePatientMedicalRecord--><g id="link_Doctor_UpdatePatientMedicalRecord"><path d="M115.69,2950.6894 C143.8,2939.2294 196.52,2918.7194 243,2906.1094 C287.38,2894.0694 331.3183,2885.1852 374.0783,2877.7652 " fill="none" id="Doctor-to-UpdatePatientMedicalRecord" style="stroke:#181818;stroke-width:1.0;"/><polygon fill="#181818" points="379.99,2876.7394,370.4386,2874.337,375.0636,2877.5942,371.8064,2882.2192,379.99,2876.7394" style="stroke:#181818;stroke-width:1.0;"/></g><!--link Doctor to SearchEntriesPatientMedicalRecord--><g id="link_Doctor_SearchEntriesPatientMedicalRecord"><path d="M115.54,2959.1094 C153.48,2959.1094 233.1,2959.1094 312.2,2959.1094 " fill="none" id="Doctor-to-SearchEntriesPatientMedicalRecord" style="stroke:#181818;stroke-width:1.0;"/><polygon fill="#181818" points="318.2,2959.1094,309.2,2955.1094,313.2,2959.1094,309.2,2963.1094,318.2,2959.1094" style="stroke:#181818;stroke-width:1.0;"/></g><!--link Doctor to CreateSurgeryAppointment--><g id="link_Doctor_CreateSurgeryAppointment"><path d="M115.68,2967.5894 C143.77,2979.0994 196.47,2999.6794 243,3012.1094 C290.13,3024.6894 337.5262,3033.6961 381.9562,3040.8461 " fill="none" id="Doctor-to-CreateSurgeryAppointment" style="stroke:#181818;stroke-width:1.0;"/><polygon fill="#181818" points="387.88,3041.7994,379.6299,3036.4202,382.9435,3041.005,378.3588,3044.3186,387.88,3041.7994" style="stroke:#181818;stroke-width:1.0;"/></g><!--link Doctor to UpdateSurgeryAppointment--><g id="link_Doctor_UpdateSurgeryAppointment"><path d="M115.71,2985.9594 C141.5,3018.1294 189.26,3071.0594 243,3098.1094 C282.88,3118.1794 324.6654,3128.2062 367.0654,3134.0062 " fill="none" id="Doctor-to-UpdateSurgeryAppointment" style="stroke:#181818;stroke-width:1.0;"/><polygon fill="#181818" points="373.01,3134.8194,364.6352,3129.6365,368.0561,3134.1417,363.5509,3137.5627,373.01,3134.8194" style="stroke:#181818;stroke-width:1.0;"/></g><!--link Admin to AddNewTypesOfRooms--><g id="link_Admin_AddNewTypesOfRooms"><path d="M114.46,3701.4894 C142.4,3693.3394 196.39,3678.1294 243,3668.1094 C295.35,3656.8594 348.7589,3647.8663 395.3889,3640.7363 " fill="none" id="Admin-to-AddNewTypesOfRooms" style="stroke:#181818;stroke-width:1.0;"/><polygon fill="#181818" points="401.32,3639.8294,391.8188,3637.2357,396.3774,3640.5851,393.028,3645.1438,401.32,3639.8294" style="stroke:#181818;stroke-width:1.0;"/></g><!--link Admin to AddNewSpecializations--><g id="link_Admin_AddNewSpecializations"><path d="M114.21,3707.1094 C162.96,3707.1094 290.45,3707.1094 382.82,3707.1094 " fill="none" id="Admin-to-AddNewSpecializations" style="stroke:#181818;stroke-width:1.0;"/><polygon fill="#181818" points="388.82,3707.1094,379.82,3703.1094,383.82,3707.1094,379.82,3711.1094,388.82,3707.1094" style="stroke:#181818;stroke-width:1.0;"/></g><!--link Admin to ListSearchSpecializations--><g id="link_Admin_ListSearchSpecializations"><path d="M114.46,3712.7094 C142.41,3720.8294 196.41,3735.9994 243,3746.1094 C294.33,3757.2494 346.434,3766.2702 392.624,3773.5902 " fill="none" id="Admin-to-ListSearchSpecializations" style="stroke:#181818;stroke-width:1.0;"/><polygon fill="#181818" points="398.55,3774.5294,390.287,3769.17,393.6116,3773.7468,389.0348,3777.0714,398.55,3774.5294" style="stroke:#181818;stroke-width:1.0;"/></g><!--link Admin to EditSpecializations--><g id="link_Admin_EditSpecializations"><path d="M114.1,3728.2394 C139.98,3756.1394 189.72,3804.4594 243,3828.1094 C292.87,3850.2494 347.7054,3858.7792 395.7054,3862.2292 " fill="none" id="Admin-to-EditSpecializations" style="stroke:#181818;stroke-width:1.0;"/><polygon fill="#181818" points="401.69,3862.6594,392.9999,3858.0245,396.7029,3862.3009,392.4264,3866.0039,401.69,3862.6594" style="stroke:#181818;stroke-width:1.0;"/></g><!--link Doctor to IncludePatientMedicalRecordAccess--><g id="link_Doctor_IncludePatientMedicalRecordAccess"><path d="M110.47,2998.1794 C131.96,3048.9394 176.45,3136.6494 243,3184.1094 C265.18,3199.9294 285.3902,3209.7753 311.8202,3218.4653 " fill="none" id="Doctor-to-IncludePatientMedicalRecordAccess" style="stroke:#181818;stroke-width:1.0;"/><polygon fill="#181818" points="317.52,3220.3394,310.2196,3213.7284,312.7702,3218.7777,307.7209,3221.3282,317.52,3220.3394" style="stroke:#181818;stroke-width:1.0;"/></g><!--link Admin to AutomaticAssignmentOfOperationsToRooms--><g id="link_Admin_AutomaticAssignmentOfOperationsToRooms"><path d="M114.02,3744.5194 C137.81,3788.6594 183.25,3861.0694 243,3901.1094 C264.09,3915.2394 282.4952,3924.282 307.0752,3932.862 " fill="none" id="Admin-to-AutomaticAssignmentOfOperationsToRooms" style="stroke:#181818;stroke-width:1.0;"/><polygon fill="#181818" points="312.74,3934.8394,305.5611,3928.0968,308.0193,3933.1916,302.9245,3935.6498,312.74,3934.8394" style="stroke:#181818;stroke-width:1.0;"/></g><!--link Admin to ScheduleSurgeryToRoomsGeneticAlgorithm--><g id="link_Admin_ScheduleSurgeryToRoomsGeneticAlgorithm"><path d="M102.11,3746.2594 C115.75,3814.5194 153.57,3955.1894 243,4030.1094 C261.84,4045.8894 278.598,4055.5969 301.998,4064.4469 " fill="none" id="Admin-to-ScheduleSurgeryToRoomsGeneticAlgorithm" style="stroke:#181818;stroke-width:1.0;"/><polygon fill="#181818" points="307.61,4066.5694,300.6069,4059.6443,302.9333,4064.8006,297.7769,4067.127,307.61,4066.5694" style="stroke:#181818;stroke-width:1.0;"/></g><!--link HospitalManager to StudyStateOfTheArtRobotsComputerVision--><g id="link_HospitalManager_StudyStateOfTheArtRobotsComputerVision"><path d="M149.86,2592.1094 C179.06,2592.1094 211.23,2592.1094 251.29,2592.1094 " fill="none" id="HospitalManager-to-StudyStateOfTheArtRobotsComputerVision" style="stroke:#181818;stroke-width:1.0;"/><polygon fill="#181818" points="257.29,2592.1094,248.29,2588.1094,252.29,2592.1094,248.29,2596.1094,257.29,2592.1094" style="stroke:#181818;stroke-width:1.0;"/></g><!--link OrgAdmin to DisasterRecoveryPlan--><g id="link_OrgAdmin_DisasterRecoveryPlan"><path d="M114.53,2177.0794 C138.36,2132.3494 183.41,2060.0894 243,2020.1094 C265.31,2005.1394 285.2986,1995.6287 311.3986,1986.9187 " fill="none" id="OrgAdmin-to-DisasterRecoveryPlan" style="stroke:#181818;stroke-width:1.0;"/><polygon fill="#181818" points="317.09,1985.0194,307.2866,1984.0741,312.3471,1986.6021,309.8191,1991.6627,317.09,1985.0194" style="stroke:#181818;stroke-width:1.0;"/></g><!--link OrgAdmin to JustificationForChangeToInfrastructure--><g id="link_OrgAdmin_JustificationForChangeToInfrastructure"><path d="M173.68,2177.0294 C195.78,2166.8294 220.05,2156.3794 243,2148.1094 C272.98,2137.2994 299.8546,2128.9998 331.1746,2120.3898 " fill="none" id="OrgAdmin-to-JustificationForChangeToInfrastructure" style="stroke:#181818;stroke-width:1.0;"/><polygon fill="#181818" points="336.96,2118.7994,327.2217,2117.3281,332.1389,2120.1247,329.3422,2125.0419,336.96,2118.7994" style="stroke:#181818;stroke-width:1.0;"/></g><!--link SysAdmin to BackupDBToCloud--><g id="link_SysAdmin_BackupDBToCloud"><path d="M102.35,1415.9094 C116.31,1347.8694 154.56,1207.9694 243,1132.1094 C260.46,1117.1394 275.4629,1107.7841 297.0529,1098.6641 " fill="none" id="SysAdmin-to-BackupDBToCloud" style="stroke:#181818;stroke-width:1.0;"/><polygon fill="#181818" points="302.58,1096.3294,292.7328,1096.1468,297.9741,1098.275,295.8458,1103.5162,302.58,1096.3294" style="stroke:#181818;stroke-width:1.0;"/></g><!--link SysAdmin to ManageBackupFiles--><g id="link_SysAdmin_ManageBackupFiles"><path d="M113.88,1416.0494 C137.38,1370.4394 182.39,1296.0294 243,1255.1094 C265.6,1239.8494 286.0179,1230.2164 312.5279,1221.5364 " fill="none" id="SysAdmin-to-ManageBackupFiles" style="stroke:#181818;stroke-width:1.0;"/><polygon fill="#181818" points="318.23,1219.6694,308.4321,1218.6685,313.4782,1221.2252,310.9215,1226.2713,318.23,1219.6694" style="stroke:#181818;stroke-width:1.0;"/></g><!--link SysAdmin to LogAndAlertDBBackupProcess--><g id="link_SysAdmin_LogAndAlertDBBackupProcess"><path d="M161.26,1424.9494 C186.54,1413.9094 215.84,1401.7594 243,1392.1094 C272.47,1381.6294 298.6341,1373.2833 329.2841,1364.2633 " fill="none" id="SysAdmin-to-LogAndAlertDBBackupProcess" style="stroke:#181818;stroke-width:1.0;"/><polygon fill="#181818" points="335.04,1362.5694,325.2768,1361.273,330.2434,1363.981,327.5354,1368.9475,335.04,1362.5694" style="stroke:#181818;stroke-width:1.0;"/></g><!--link SysAdmin to RetentionDBBackup--><g id="link_SysAdmin_RetentionDBBackup"><path d="M161.32,1455.1094 C191.26,1455.1094 222.58,1455.1094 261.1,1455.1094 " fill="none" id="SysAdmin-to-RetentionDBBackup" style="stroke:#181818;stroke-width:1.0;"/><polygon fill="#181818" points="267.1,1455.1094,258.1,1451.1094,262.1,1455.1094,258.1,1459.1094,267.1,1455.1094" style="stroke:#181818;stroke-width:1.0;"/></g><!--link OrgAdmin to BIAOfFinalSolution--><g id="link_OrgAdmin_BIAOfFinalSolution"><path d="M183.06,2216.1094 C201.72,2216.1094 216.29,2216.1094 237.64,2216.1094 " fill="none" id="OrgAdmin-to-BIAOfFinalSolution" style="stroke:#181818;stroke-width:1.0;"/><polygon fill="#181818" points="243.64,2216.1094,234.64,2212.1094,238.64,2216.1094,234.64,2220.1094,243.64,2216.1094" style="stroke:#181818;stroke-width:1.0;"/></g><!--link OrgAdmin to AccessManagement--><g id="link_OrgAdmin_AccessManagement"><path d="M172.81,2255.1294 C195.11,2265.4494 219.71,2275.9694 243,2284.1094 C276.08,2295.6694 306.6471,2304.4022 340.8871,2312.9122 " fill="none" id="OrgAdmin-to-AccessManagement" style="stroke:#181818;stroke-width:1.0;"/><polygon fill="#181818" points="346.71,2314.3594,338.9405,2308.3067,341.8576,2313.1534,337.0109,2316.0705,346.71,2314.3594" style="stroke:#181818;stroke-width:1.0;"/></g><!--link OrgAdmin to ClusteringSystem--><g id="link_OrgAdmin_ClusteringSystem"><path d="M116.33,2255.4694 C140.92,2298.0894 185.81,2364.9394 243,2402.1094 C265.23,2416.5594 284.9711,2425.7726 310.7811,2434.2726 " fill="none" id="OrgAdmin-to-ClusteringSystem" style="stroke:#181818;stroke-width:1.0;"/><polygon fill="#181818" points="316.48,2436.1494,309.1829,2429.5349,311.7309,2434.5854,306.6804,2437.1334,316.48,2436.1494" style="stroke:#181818;stroke-width:1.0;"/></g><!--link SysAdmin to SSHAccessToVirtualMachine--><g id="link_SysAdmin_SSHAccessToVirtualMachine"><path d="M161.12,1486.0794 C186.38,1497.3394 215.71,1509.6194 243,1519.1094 C273.61,1529.7594 301.1316,1538.0799 332.9416,1546.7599 " fill="none" id="SysAdmin-to-SSHAccessToVirtualMachine" style="stroke:#181818;stroke-width:1.0;"/><polygon fill="#181818" points="338.73,1548.3394,331.1004,1542.1112,333.9064,1547.0231,328.9945,1549.8291,338.73,1548.3394" style="stroke:#181818;stroke-width:1.0;"/></g><!--link SysAdmin to PublicFileShare--><g id="link_SysAdmin_PublicFileShare"><path d="M115.08,1494.2494 C139.14,1538.2294 184.11,1608.5194 243,1647.1094 C266.49,1662.4994 287.8898,1672.1603 315.2998,1680.6703 " fill="none" id="SysAdmin-to-PublicFileShare" style="stroke:#181818;stroke-width:1.0;"/><polygon fill="#181818" points="321.03,1682.4494,313.6208,1675.9607,316.2548,1680.9668,311.2487,1683.6009,321.03,1682.4494" style="stroke:#181818;stroke-width:1.0;"/></g><!--link SysAdmin to EnsureBackupCorrectness--><g id="link_SysAdmin_EnsureBackupCorrectness"><path d="M102.87,1494.1894 C117.48,1560.5394 156.46,1695.0094 243,1767.1094 C261.92,1782.8694 278.7393,1792.6371 302.1593,1801.6371 " fill="none" id="SysAdmin-to-EnsureBackupCorrectness" style="stroke:#181818;stroke-width:1.0;"/><polygon fill="#181818" points="307.76,1803.7894,300.7938,1796.8272,303.0928,1801.9958,297.9241,1804.2948,307.76,1803.7894" style="stroke:#181818;stroke-width:1.0;"/></g><!--link HealthcareStaffMember to SelectRoom--><g id="link_HealthcareStaffMember_SelectRoom"><path d="M172.62,731.3894 C213.06,724.7194 258.3898,717.2348 307.5498,709.1348 " fill="none" id="HealthcareStaffMember-to-SelectRoom" style="stroke:#181818;stroke-width:1.0;"/><polygon fill="#181818" points="313.47,708.1594,303.9394,705.6758,308.5365,708.9723,305.24,713.5693,313.47,708.1594" style="stroke:#181818;stroke-width:1.0;"/></g><!--link HealthcareStaffMember to PressIKey--><g id="link_HealthcareStaffMember_PressIKey"><path d="M172.62,756.6294 C211.96,763.0194 255.5975,770.1078 303.5175,777.8878 " fill="none" id="HealthcareStaffMember-to-PressIKey" style="stroke:#181818;stroke-width:1.0;"/><polygon fill="#181818" points="309.44,778.8494,301.1973,773.4588,304.5046,778.0481,299.9153,781.3554,309.44,778.8494" style="stroke:#181818;stroke-width:1.0;"/></g><!--link HealthcareStaffMember to SelectDifferentRoomSmoothly--><g id="link_HealthcareStaffMember_SelectDifferentRoomSmoothly"><path d="M131.34,783.3694 C159.21,811.6494 200.22,848.6394 243,871.1094 C268.79,884.6494 291.9604,893.724 320.5504,902.254 " fill="none" id="HealthcareStaffMember-to-SelectDifferentRoomSmoothly" style="stroke:#181818;stroke-width:1.0;"/><polygon fill="#181818" points="326.3,903.9694,318.8193,897.5632,321.5087,902.5399,316.5321,905.2293,326.3,903.9694" style="stroke:#181818;stroke-width:1.0;"/></g><!--link Patient to DownloadMedicalHistory--><g id="link_Patient_DownloadMedicalHistory"><path d="M116.77,237.3694 C144.01,213.1294 193.61,172.3694 243,149.1094 C270.57,136.1194 295.4897,127.2682 325.4897,118.9182 " fill="none" id="Patient-to-DownloadMedicalHistory" style="stroke:#181818;stroke-width:1.0;"/><polygon fill="#181818" points="331.27,117.3094,321.527,115.8691,326.4531,118.6501,323.6721,123.5762,331.27,117.3094" style="stroke:#181818;stroke-width:1.0;"/></g><!--link Patient to RequestDeletionOfPersonalData--><g id="link_Patient_RequestDeletionOfPersonalData"><path d="M116.64,253.8994 C162.89,246.8594 270.0982,230.5614 358.6082,217.1014 " fill="none" id="Patient-to-RequestDeletionOfPersonalData" style="stroke:#181818;stroke-width:1.0;"/><polygon fill="#181818" points="364.54,216.1994,355.0409,213.5979,359.5968,216.9511,356.2437,221.507,364.54,216.1994" style="stroke:#181818;stroke-width:1.0;"/></g><!--link Patient to KnowDataProcessed--><g id="link_Patient_KnowDataProcessed"><path d="M116.64,260.2694 C150.08,265.2694 212.5659,274.6125 281.3459,284.8925 " fill="none" id="Patient-to-KnowDataProcessed" style="stroke:#181818;stroke-width:1.0;"/><polygon fill="#181818" points="287.28,285.7794,278.9702,280.4929,282.3349,285.0403,277.7876,288.4051,287.28,285.7794" style="stroke:#181818;stroke-width:1.0;"/></g><!--link Patient to KnowDataRetentionPeriod--><g id="link_Patient_KnowDataRetentionPeriod"><path d="M116.67,281.3194 C143.24,310.1194 191.6,357.5194 243,383.1094 C274.1,398.5894 303.8308,408.2528 337.9208,416.0428 " fill="none" id="Patient-to-KnowDataRetentionPeriod" style="stroke:#181818;stroke-width:1.0;"/><polygon fill="#181818" points="343.77,417.3794,335.8872,411.475,338.8956,416.2655,334.1051,419.2739,343.77,417.3794" style="stroke:#181818;stroke-width:1.0;"/></g><!--SRC=[bLZDSkIs4RxhAL1xsTqgkTQL779BrVnueuazbahK-gGBXWHdO9400u2QdQHSvGT9NivFagyR84LoEDBQ1w-6_V_VZVV-IPj6EbcBsXgR7vojbGYkLLSla4RcJtAlid2gb70g3zBiAtNr_WN37sHXZzhiHIahhwu6n3t-Vwu4_bjQLoYtifLrugIgoXwlVhkw2Zg0zHUln4hYVsijzw2zgbGPHB32wVqXY48JBstD5NEIUG2FTo1oxuJqHEs6W5Nh0uo9mEx7426pPJXAfyJ2vGSTm9jHky_zro7DegYrOJJ-QmXQM_gNOV7F8V36-aO7MOcjD71bHEi-fcz3_5ktbqR_MvAvxvCmxOEJdGWWd6cGdNnGzGmo06V8DqfMuP2J_LcGPIcsgjvrYlKm1aN8aFWEYYaJ_PN-Za5flSefWkzkvBCIqWXjWa8iWoh4buqeGIoh2hbMj9NomfOY79Jmh3Xps_JuNpPZZWz0b4rJwPoz8cfbMaeEMVoAu4Ap7Ab5AOXlzKauModck0NUWd5gKlECfpRGgeuy_S4U1VubfVww5i_Qjx9AOKXAFneXTxOD461h8P-bhkHELpgSXFPW1cDCBeuw7A9f-K4HcNWquI23E4AZlJ8gkcHtOgIcaiQGwb44gtqFzei1zmniNrS-gdLuYQkdu5qBsv0qmWYdHlbhii0KWyzE_QjLFlXP0nxDK0Oyg1mKrz57EtG6MvOwLqFLb_tNSwKNmakAF6c0uZeOXBCIZLCUhAECb1Js6VeXLxojMluUKvce5wPuw6Zl1gGJKOLja1UYK3aG70KIcikkh5juA8cQDuFfrqFYnO1sAgiGHXt5eggKsvyIVV6pEgOlO_HCaHfS3X6kbO_cCU2pTVtdUJbRLR3ZLjOKcamVI4om7dHHz1cJYGvJHXDTlZG5afWTc7f0p_5UKJ76jinO2I718_YYNkHmMDubsIlC8z4F4Vzj6IkdI6CfijQXuPx4ecaiEbJTzRA8aA03uApXbzb4XBVOTB5yeAgaLAIEuWU1PC1jIPtWGXfaZSfrtw66j1F8cFmdJ8TFFZfyZWN1esjVPVC3qcAMdW2lKcvCNhL5p1qqRkNxKJ0VR7IXedNStAbT9fp6sLAZjOxRD7MMcYTg7uyaRYv15YnzubqmQR4k03t7c0a7M_2WyLxl0H9U1LAtRw1UVF0SQoJXHshq5YZSlOPDzYMu7Uy5CoGjRylRdjc3dGdu4dxQmLHYtKsKNgQO4-YZHAZJUdBSFp1qo9v5jRSEpJqfaoLkALcJy8JSuqvADRJ5YJo00HFw9YeTUsKuel7ptkviYEt-qQnitRGO8E8NxGcE0kzs87yjZAnLTUggFhSODL-PPMzer9YaPoJvjiG8NBWGPNJC8- -nncljfIV1s21fhfnuv0gUoBLIK914RfUhMqoBKfiuuNo3b0jY6NUwnE8-SRW3WxCOfJa6SfwVKj3QeSlE7zJSsBO3DcBrmN_4A4RiTXWxik3WXZZJ7KIvDiueAC8xCu6LyVH9mfVRXxNui9LVTTtMuW7BZkC4MTkZ2RfM7ybnV_bUOEk3KwBd_ZbK1lrznMeysCr8uDYehNmYUJGXsmP1QKvTlDTB6C1r8LQLRGiezwoTvNmMCUTGAhdJJUYtWhPPBnyieqzIYl6ICtBkmaLYqWreY8TxSLIeWfSI-lMiROjsc_7EnpNFwDGLaF_AjrKW5eym4CjQE631IQpIabTQEa48fokhk3CohwZnPs9sldb1AFhFi7MjbntpQCQJWaKfctz26BwAokxJyeKj1kN2PJFSriNne4pgY9tjA0IiGBHtwfARZsEZIwo6lCBaUUlIh8HvIQVOnkqUczA2HAsNqPYx29urf_FCZ3K7tkP5fKj5oGM70il0vzQHnr5AVqCFH0io7qKXJoXczJKdyodZQVDb0Ku5vCPWnSF96GueUVQ8CMZYb65TeTztw9toOwtlfhMst2p4XoKb3GLbK-Di3M9XP7Nosd_iPAAwvSjIoSjm8HjE4_8lD44CN7zgSDC5cTF-2VaUCtcpk2q_4vyiiPdCZpZHNePGIWXTDnN_Xiw3rXFz0tdEek5GHmKZJ3jS5AWAj1mjuznWjjkUwsItgLfgJvpAyGuy5xfJuQYK6TnSlhjBUZG6PdSBogY-VoaUgQOxfdjHyUASkTD6ITqbK9RTTDC-jJeqZ41HhoKMQwCe6ZY9SYHix5D8RrEThZd2TDn8p7xlZ_twbzr4fppONoAdRMHqOUrhsXrYoks1dYoSkYOhi-toqshpEKER5J_ZdtZjNCVUx1l5qOAnNg0OXYvybh4KWv9fcjwn0EeO6R6Vh4knURExOsdvw9STCSJ5viZFP2OM4thge668CbDaeNJng8XCOZsi8fevA-XCLVWEW_b6XKVv8IM7Qa-K7xQRi23t3Mttb3GOihnn1Shvj5qJ6re8pYilJim_Vl-l_kFt_w7L8KWR7BSnrmljCLzFdmwwu4S06fZupJDTQXDRSijBSZ5pmd9wico0oOJeMvAw-L6TBjXQwB94uPhkCgS3awp4Lk6a-D3zXi6XelUaQveYvQ3EUPZLq5NusbfkJDeWlsL1lOF-X7dLQU2QTIUIV9GbeidcWNbSMR2eJoZtkDEYJwCiJh726klOuwmm5xvA6PYUaY9zMbfl8kbOndsytzcy0efrBHOYiGrwImqFlfQfgpBoEk7TbdS9PGsCCTyVZJsY6o9TYHf5Y6jyfxeHemgk7eR7vd3DDgYlokKQzFG8GuvciSIB9Dnrn3EYQ5ZG0qnbwIbaedmldiRgY6K_9-veD1Rn8OfU0yLtt_tz_46fXymy3Cq-V37onUSOVbXZb9bdZ-xPaU5lFrsSFJqotJUyGxmeSVxe41yZemRphmjJwja7X3asymy40ymtZlypdczTyWE2Lq_rCnKku4qjFxkufmXpL-qBpkjtymlUfVjueFQtdQm3zRxzg7mX-XF7t-IjEf9_-oNMFLSptSLJQeJr9wwLxdsxByFfdJ52c5_kHoXlRCuZtFarTMJAXOLnX3ExtOqmPjUkaIglxqCZrBbDPOJmsg9nkKrELeRBYEDf_XR3ouEsUo_YlBeyAuTeRq_08VRyu9h3cCwX_mC0]--></g></svg>