<?xml version="1.0" encoding="us-ascii" standalone="no"?><svg xmlns="http://www.w3.org/2000/svg" xmlns:xlink="http://www.w3.org/1999/xlink" contentStyleType="text/css" height="2025px" preserveAspectRatio="none" style="width:581px;height:2025px;background:#FFFFFF;" version="1.1" viewBox="0 0 581 2025" width="581px" zoomAndPan="magnify"><defs/><g><text fill="#000000" font-family="sans-serif" font-size="14" font-weight="bold" lengthAdjust="spacing" textLength="127" x="220.051" y="25.1074">Use Case Diagram</text><!--entity Admin--><g id="elem_Admin"><ellipse cx="40.5" cy="1387.6211" fill="#F1F1F1" rx="8" ry="8" style="stroke:#181818;stroke-width:0.5;"/><path d="M40.5,1395.6211 L40.5,1422.6211 M27.5,1403.6211 L53.5,1403.6211 M40.5,1422.6211 L27.5,1437.6211 M40.5,1422.6211 L53.5,1437.6211 " fill="none" style="stroke:#181818;stroke-width:0.5;"/><text fill="#000000" font-family="sans-serif" font-size="14" lengthAdjust="spacing" textLength="39" x="21" y="1454.2285">Admin</text></g><!--entity Doctor--><g id="elem_Doctor"><ellipse cx="40.5" cy="687.6211" fill="#F1F1F1" rx="8" ry="8" style="stroke:#181818;stroke-width:0.5;"/><path d="M40.5,695.6211 L40.5,722.6211 M27.5,703.6211 L53.5,703.6211 M40.5,722.6211 L27.5,737.6211 M40.5,722.6211 L53.5,737.6211 " fill="none" style="stroke:#181818;stroke-width:0.5;"/><text fill="#000000" font-family="sans-serif" font-size="14" lengthAdjust="spacing" textLength="42" x="19.5" y="754.2285">Doctor</text></g><!--entity Nurse--><g id="elem_Nurse"><ellipse cx="40.5" cy="435.6211" fill="#F1F1F1" rx="8" ry="8" style="stroke:#181818;stroke-width:0.5;"/><path d="M40.5,443.6211 L40.5,470.6211 M27.5,451.6211 L53.5,451.6211 M40.5,470.6211 L27.5,485.6211 M40.5,470.6211 L53.5,485.6211 " fill="none" style="stroke:#181818;stroke-width:0.5;"/><text fill="#000000" font-family="sans-serif" font-size="14" lengthAdjust="spacing" textLength="37" x="22" y="502.2285">Nurse</text></g><!--entity Technician--><g id="elem_Technician"><ellipse cx="40.5" cy="549.6211" fill="#F1F1F1" rx="8" ry="8" style="stroke:#181818;stroke-width:0.5;"/><path d="M40.5,557.6211 L40.5,584.6211 M27.5,565.6211 L53.5,565.6211 M40.5,584.6211 L27.5,599.6211 M40.5,584.6211 L53.5,599.6211 " fill="none" style="stroke:#181818;stroke-width:0.5;"/><text fill="#000000" font-family="sans-serif" font-size="14" lengthAdjust="spacing" textLength="69" x="6" y="616.2285">Technician</text></g><!--entity Patient--><g id="elem_Patient"><ellipse cx="40.5" cy="175.6211" fill="#F1F1F1" rx="8" ry="8" style="stroke:#181818;stroke-width:0.5;"/><path d="M40.5,183.6211 L40.5,210.6211 M27.5,191.6211 L53.5,191.6211 M40.5,210.6211 L27.5,225.6211 M40.5,210.6211 L53.5,225.6211 " fill="none" style="stroke:#181818;stroke-width:0.5;"/><text fill="#000000" font-family="sans-serif" font-size="14" lengthAdjust="spacing" textLength="44" x="18.5" y="242.2285">Patient</text></g><g id="elem_RegisterNewBackofficeUsers"><ellipse cx="354.7583" cy="1418.7728" fill="#F1F1F1" rx="113.7583" ry="25.1517" style="stroke:#181818;stroke-width:0.5;"/><text fill="#000000" font-family="sans-serif" font-size="14" lengthAdjust="spacing" textLength="189" x="260.2583" y="1422.5696">Register new backoffice users</text></g><g id="elem_ResetMyPasswordIfIForgetIt"><ellipse cx="355.0762" cy="569.6363" fill="#F1F1F1" rx="115.5762" ry="25.5152" style="stroke:#181818;stroke-width:0.5;"/><text fill="#000000" font-family="sans-serif" font-size="14" lengthAdjust="spacing" textLength="193" x="258.5762" y="573.4332">Reset my password if I forget it</text></g><g id="elem_RegisterForHealthcareApplication"><ellipse cx="354.7939" cy="75.5799" fill="#F1F1F1" rx="137.7939" ry="29.9588" style="stroke:#181818;stroke-width:0.5;"/><text fill="#000000" font-family="sans-serif" font-size="14" lengthAdjust="spacing" textLength="241" x="234.2939" y="79.3768">Register for the healthcare application</text></g><g id="elem_UpdateMyUserProfile"><ellipse cx="355.2065" cy="161.6624" fill="#F1F1F1" rx="93.2065" ry="21.0413" style="stroke:#181818;stroke-width:0.5;"/><text fill="#000000" font-family="sans-serif" font-size="14" lengthAdjust="spacing" textLength="142" x="281.2065" y="166.4661">Update my user profile</text></g><g id="elem_DeleteMyAccountAndAllAssociatedData"><ellipse cx="355.0626" cy="250.5336" fill="#F1F1F1" rx="150.0626" ry="32.4125" style="stroke:#181818;stroke-width:0.5;"/><text fill="#000000" font-family="sans-serif" font-size="14" lengthAdjust="spacing" textLength="267" x="221.5626" y="254.3305">Delete my account and all associated data</text></g><g id="elem_LogInToTheSystemUsingMyCredentials"><ellipse cx="355.2469" cy="477.8705" fill="#F1F1F1" rx="146.7469" ry="31.7494" style="stroke:#181818;stroke-width:0.5;"/><text fill="#000000" font-family="sans-serif" font-size="14" lengthAdjust="spacing" textLength="260" x="225.2469" y="481.6673">Log in to the system using my credentials</text></g><g id="elem_LogInToTheHealthcareSystemUsingMyExternalIAMCredentials"><ellipse cx="355.051" cy="364.5313" fill="#F1F1F1" rx="220.051" ry="46.4102" style="stroke:#181818;stroke-width:0.5;"/><text fill="#000000" font-family="sans-serif" font-size="14" lengthAdjust="spacing" textLength="412" x="149.051" y="368.3282">Log in to the healthcare system using my external IAM credentials</text></g><g id="elem_CreateANewPatientProfile"><ellipse cx="355.0008" cy="1502.4212" fill="#F1F1F1" rx="107.0008" ry="23.8002" style="stroke:#181818;stroke-width:0.5;"/><text fill="#000000" font-family="sans-serif" font-size="14" lengthAdjust="spacing" textLength="174" x="268.0008" y="1506.2181">Create a new patient profile</text></g><g id="elem_EditAnExistingPatientProfile"><ellipse cx="354.9468" cy="1586.4105" fill="#F1F1F1" rx="111.9468" ry="24.7894" style="stroke:#181818;stroke-width:0.5;"/><text fill="#000000" font-family="sans-serif" font-size="14" lengthAdjust="spacing" textLength="185" x="262.4468" y="1590.2073">Edit an existing patient profile</text></g><g id="elem_DeleteAPatientProfile"><ellipse cx="355.1171" cy="1667.7445" fill="#F1F1F1" rx="93.6171" ry="21.1234" style="stroke:#181818;stroke-width:0.5;"/><text fill="#000000" font-family="sans-serif" font-size="14" lengthAdjust="spacing" textLength="143" x="280.6171" y="1672.5482">Delete a patient profile</text></g><g id="elem_ListPatientProfilesByDifferentAtributes"><ellipse cx="354.94" cy="1754.7091" fill="#F1F1F1" rx="143.44" ry="31.088" style="stroke:#181818;stroke-width:0.5;"/><text fill="#000000" font-family="sans-serif" font-size="14" lengthAdjust="spacing" textLength="253" x="228.44" y="1758.506">List patient profiles by different atributes</text></g><g id="elem_CreateANewStaffProfile"><ellipse cx="354.9414" cy="1843.5094" fill="#F1F1F1" rx="99.9414" ry="22.3883" style="stroke:#181818;stroke-width:0.5;"/><text fill="#000000" font-family="sans-serif" font-size="14" lengthAdjust="spacing" textLength="158" x="274.8178" y="1847.7165">Create a new staff profile</text></g><g id="elem_EditAStaffsProfile"><ellipse cx="354.9261" cy="1920.4063" fill="#F1F1F1" rx="84.4261" ry="19.2852" style="stroke:#181818;stroke-width:0.5;"/><text fill="#000000" font-family="sans-serif" font-size="14" lengthAdjust="spacing" textLength="120" x="291.9261" y="1925.21">Edit a staff's profile</text></g><g id="elem_DeactivateAStaffProfile"><ellipse cx="354.7971" cy="1997.5805" fill="#F1F1F1" rx="97.7971" ry="21.9594" style="stroke:#181818;stroke-width:0.5;"/><text fill="#000000" font-family="sans-serif" font-size="14" lengthAdjust="spacing" textLength="153" x="276.519" y="2002.0076">Deactivate a staff profile</text></g><g id="elem_ListStaffProfiles"><ellipse cx="355.0431" cy="980.6297" fill="#F1F1F1" rx="78.0431" ry="18.0086" style="stroke:#181818;stroke-width:0.5;"/><text fill="#000000" font-family="sans-serif" font-size="14" lengthAdjust="spacing" textLength="103" x="300.5431" y="985.4334">List staff profiles</text></g><g id="elem_RequestAnOperation"><ellipse cx="355.1672" cy="730.7545" fill="#F1F1F1" rx="91.1672" ry="20.6334" style="stroke:#181818;stroke-width:0.5;"/><text fill="#000000" font-family="sans-serif" font-size="14" lengthAdjust="spacing" textLength="137" x="283.6672" y="735.5582">Request an operation</text></g><g id="elem_UpdateAnOperationRequisition"><ellipse cx="354.8571" cy="812.5925" fill="#F1F1F1" rx="117.8571" ry="25.9714" style="stroke:#181818;stroke-width:0.5;"/><text fill="#000000" font-family="sans-serif" font-size="14" lengthAdjust="spacing" textLength="198" x="255.8571" y="816.3894">Update an operation requisition</text></g><g id="elem_RemoveAnOperationRequisition"><ellipse cx="355.0653" cy="900.7341" fill="#F1F1F1" rx="121.0653" ry="26.6131" style="stroke:#181818;stroke-width:0.5;"/><text fill="#000000" font-family="sans-serif" font-size="14" lengthAdjust="spacing" textLength="205" x="252.5653" y="904.531">Remove an operation requisition</text></g><g id="elem_ListOperationRequisitions"><ellipse cx="355.1807" cy="652.8572" fill="#F1F1F1" rx="101.6807" ry="22.7361" style="stroke:#181818;stroke-width:0.5;"/><text fill="#000000" font-family="sans-serif" font-size="14" lengthAdjust="spacing" textLength="162" x="273.5603" y="656.886">List operation requisitions</text></g><g id="elem_AddNewTypesOfOperation"><ellipse cx="355.1075" cy="1057.7426" fill="#F1F1F1" rx="106.1075" ry="23.6215" style="stroke:#181818;stroke-width:0.5;"/><text fill="#000000" font-family="sans-serif" font-size="14" lengthAdjust="spacing" textLength="172" x="269.1075" y="1061.5395">Add new types of operation</text></g><g id="elem_EditExistingOperationTypes"><ellipse cx="354.8442" cy="1140.6899" fill="#F1F1F1" rx="108.3442" ry="24.0688" style="stroke:#181818;stroke-width:0.5;"/><text fill="#000000" font-family="sans-serif" font-size="14" lengthAdjust="spacing" textLength="177" x="266.3442" y="1144.4868">Edit existing operation types</text></g><g id="elem_RemoveObsoleteOrNoLongerPerformedOperationTypes"><ellipse cx="355.2074" cy="1241.6626" fill="#F1F1F1" rx="195.7074" ry="41.5415" style="stroke:#181818;stroke-width:0.5;"/><text fill="#000000" font-family="sans-serif" font-size="14" lengthAdjust="spacing" textLength="362" x="174.2074" y="1245.4595">Remove obsolete or no longer performed operation types</text></g><g id="elem_ListOperationTypes"><ellipse cx="355.0589" cy="1338.5329" fill="#F1F1F1" rx="87.5589" ry="19.9118" style="stroke:#181818;stroke-width:0.5;"/><text fill="#000000" font-family="sans-serif" font-size="14" lengthAdjust="spacing" textLength="124" x="292.0589" y="1343.3366">List operation types</text></g><!--link Admin to RegisterNewBackofficeUsers--><g id="link_Admin_RegisterNewBackofficeUsers"><path d="M60.11,1418.6211 C95.26,1418.6211 167.9,1418.6211 235,1418.6211 " fill="none" id="Admin-to-RegisterNewBackofficeUsers" style="stroke:#181818;stroke-width:1.0;"/><polygon fill="#181818" points="241,1418.6211,232,1414.6211,236,1418.6211,232,1422.6211,241,1418.6211" style="stroke:#181818;stroke-width:1.0;"/></g><!--link Admin to ResetMyPasswordIfIForgetIt--><g id="link_Admin_ResetMyPasswordIfIForgetIt"><path d="M43.39,1378.9211 C51.12,1224.5011 82.37,669.5411 135,612.6211 C161.76,583.6711 195.8965,571.6863 234.4865,566.8563 " fill="none" id="Admin-to-ResetMyPasswordIfIForgetIt" style="stroke:#181818;stroke-width:1.0;"/><polygon fill="#181818" points="240.44,566.1111,231.0129,563.2598,235.4787,566.7321,232.0064,571.1979,240.44,566.1111" style="stroke:#181818;stroke-width:1.0;"/></g><!--link Doctor to ResetMyPasswordIfIForgetIt--><g id="link_Doctor_ResetMyPasswordIfIForgetIt"><path d="M61.58,686.1011 C78.24,661.9811 104.14,630.3311 135,612.6211 C167.94,593.7211 201.8303,583.9696 238.4303,577.9196 " fill="none" id="Doctor-to-ResetMyPasswordIfIForgetIt" style="stroke:#181818;stroke-width:1.0;"/><polygon fill="#181818" points="244.35,576.9411,234.8181,574.4624,239.4169,577.7565,236.1228,582.3553,244.35,576.9411" style="stroke:#181818;stroke-width:1.0;"/></g><!--link Nurse to ResetMyPasswordIfIForgetIt--><g id="link_Nurse_ResetMyPasswordIfIForgetIt"><path d="M59,480.7511 C77,494.5511 106.37,515.1111 135,526.6211 C172.03,541.5011 208.7963,550.3573 246.5963,556.8373 " fill="none" id="Nurse-to-ResetMyPasswordIfIForgetIt" style="stroke:#181818;stroke-width:1.0;"/><polygon fill="#181818" points="252.51,557.8511,244.3153,552.3879,247.5819,557.0063,242.9635,560.2729,252.51,557.8511" style="stroke:#181818;stroke-width:1.0;"/></g><!--link Technician to ResetMyPasswordIfIForgetIt--><g id="link_Technician_ResetMyPasswordIfIForgetIt"><path d="M75.24,579.4311 C114.7,578.0411 176.0837,575.8817 234.7237,573.8217 " fill="none" id="Technician-to-ResetMyPasswordIfIForgetIt" style="stroke:#181818;stroke-width:1.0;"/><polygon fill="#181818" points="240.72,573.6111,231.5851,569.9295,235.7231,573.7866,231.866,577.9246,240.72,573.6111" style="stroke:#181818;stroke-width:1.0;"/></g><!--link Patient to RegisterForHealthcareApplication--><g id="link_Patient_RegisterForHealthcareApplication"><path d="M62.73,181.4411 C80.2,162.3811 106.62,137.1011 135,122.6211 C165.22,107.2011 194.4088,98.0778 227.4988,91.1078 " fill="none" id="Patient-to-RegisterForHealthcareApplication" style="stroke:#181818;stroke-width:1.0;"/><polygon fill="#181818" points="233.37,89.8711,223.7388,87.812,228.4774,90.9017,225.3877,95.6402,233.37,89.8711" style="stroke:#181818;stroke-width:1.0;"/></g><!--link Patient to UpdateMyUserProfile--><g id="link_Patient_UpdateMyUserProfile"><path d="M62.98,203.5311 C106.21,197.3011 199.6712,183.8461 270.2412,173.6861 " fill="none" id="Patient-to-UpdateMyUserProfile" style="stroke:#181818;stroke-width:1.0;"/><polygon fill="#181818" points="276.18,172.8311,266.7018,170.1544,271.231,173.5436,267.8419,178.0728,276.18,172.8311" style="stroke:#181818;stroke-width:1.0;"/></g><!--link Patient to DeleteMyAccountAndAllAssociatedData--><g id="link_Patient_DeleteMyAccountAndAllAssociatedData"><path d="M62.98,209.6411 C97.11,214.4511 160.3087,223.344 222.6287,232.124 " fill="none" id="Patient-to-DeleteMyAccountAndAllAssociatedData" style="stroke:#181818;stroke-width:1.0;"/><polygon fill="#181818" points="228.57,232.9611,220.216,227.7446,223.6189,232.2636,219.1,235.6664,228.57,232.9611" style="stroke:#181818;stroke-width:1.0;"/></g><!--link Admin to LogInToTheSystemUsingMyCredentials--><g id="link_Admin_LogInToTheSystemUsingMyCredentials"><path d="M42.97,1379.0111 C49.42,1214.5611 77.53,591.1611 135,526.6211 C154.76,504.4311 176.3777,492.686 205.1377,484.916 " fill="none" id="Admin-to-LogInToTheSystemUsingMyCredentials" style="stroke:#181818;stroke-width:1.0;"/><polygon fill="#181818" points="210.93,483.3511,201.1982,481.8369,206.1031,484.6552,203.2848,489.56,210.93,483.3511" style="stroke:#181818;stroke-width:1.0;"/></g><!--link Doctor to LogInToTheSystemUsingMyCredentials--><g id="link_Doctor_LogInToTheSystemUsingMyCredentials"><path d="M58.65,678.8611 C81.91,625.6811 122.06,536.8511 135,526.6211 C158.69,507.9011 182.2931,497.4921 211.7931,490.0321 " fill="none" id="Doctor-to-LogInToTheSystemUsingMyCredentials" style="stroke:#181818;stroke-width:1.0;"/><polygon fill="#181818" points="217.61,488.5611,207.904,486.8896,212.7626,489.7869,209.8653,494.6455,217.61,488.5611" style="stroke:#181818;stroke-width:1.0;"/></g><!--link Nurse to LogInToTheSystemUsingMyCredentials--><g id="link_Nurse_LogInToTheSystemUsingMyCredentials"><path d="M59.2,467.2411 C88.7,468.2811 144.5937,470.2504 204.0737,472.3404 " fill="none" id="Nurse-to-LogInToTheSystemUsingMyCredentials" style="stroke:#181818;stroke-width:1.0;"/><polygon fill="#181818" points="210.07,472.5511,201.216,468.2375,205.0731,472.3755,200.9351,476.2326,210.07,472.5511" style="stroke:#181818;stroke-width:1.0;"/></g><!--link Technician to LogInToTheSystemUsingMyCredentials--><g id="link_Technician_LogInToTheSystemUsingMyCredentials"><path d="M75.32,557.7411 C92.55,546.9611 114.22,534.7311 135,526.6211 C167.58,513.9111 198.368,505.3705 232.228,497.9805 " fill="none" id="Technician-to-LogInToTheSystemUsingMyCredentials" style="stroke:#181818;stroke-width:1.0;"/><polygon fill="#181818" points="238.09,496.7011,228.4441,494.7122,233.205,497.7673,230.1499,502.5282,238.09,496.7011" style="stroke:#181818;stroke-width:1.0;"/></g><!--link Patient to LogInToTheHealthcareSystemUsingMyExternalIAMCredentials--><g id="link_Patient_LogInToTheHealthcareSystemUsingMyExternalIAMCredentials"><path d="M62.81,234.7011 C80.12,255.6811 106.31,283.5711 135,300.6211 C155.6,312.8611 173.0398,320.9005 196.2998,329.0805 " fill="none" id="Patient-to-LogInToTheHealthcareSystemUsingMyExternalIAMCredentials" style="stroke:#181818;stroke-width:1.0;"/><polygon fill="#181818" points="201.96,331.0711,194.7968,324.3118,197.2432,329.4123,192.1427,331.8587,201.96,331.0711" style="stroke:#181818;stroke-width:1.0;"/></g><!--link Admin to CreateANewPatientProfile--><g id="link_Admin_CreateANewPatientProfile"><path d="M60.29,1428.9411 C78.79,1438.6911 108.1,1453.0611 135,1461.6211 C175.92,1474.6411 216.5992,1483.1095 256.2692,1489.6195 " fill="none" id="Admin-to-CreateANewPatientProfile" style="stroke:#181818;stroke-width:1.0;"/><polygon fill="#181818" points="262.19,1490.5911,253.9565,1485.1864,257.256,1489.7814,252.661,1493.0809,262.19,1490.5911" style="stroke:#181818;stroke-width:1.0;"/></g><!--link Admin to EditAnExistingPatientProfile--><g id="link_Admin_EditAnExistingPatientProfile"><path d="M60.13,1457.2911 C76,1485.9811 101.55,1523.6111 135,1544.6211 C167.62,1565.1111 202.029,1575.114 239.169,1580.794 " fill="none" id="Admin-to-EditAnExistingPatientProfile" style="stroke:#181818;stroke-width:1.0;"/><polygon fill="#181818" points="245.1,1581.7011,236.8081,1576.3865,240.1575,1580.9452,235.5987,1584.2945,245.1,1581.7011" style="stroke:#181818;stroke-width:1.0;"/></g><!--link Admin to DeleteAPatientProfile--><g id="link_Admin_DeleteAPatientProfile"><path d="M47.55,1458.1711 C57.14,1506.5411 80.67,1587.2211 135,1629.6211 C170.74,1657.5211 213.8245,1667.3941 256.4545,1670.3641 " fill="none" id="Admin-to-DeleteAPatientProfile" style="stroke:#181818;stroke-width:1.0;"/><polygon fill="#181818" points="262.44,1670.7811,253.7398,1666.1653,257.4521,1670.4336,253.1838,1674.1459,262.44,1670.7811" style="stroke:#181818;stroke-width:1.0;"/></g><!--link Admin to ListPatientProfilesByDifferentAtributes--><g id="link_Admin_ListPatientProfilesByDifferentAtributes"><path d="M42.49,1458.2311 C46.29,1520.6411 63.14,1641.4811 135,1706.6211 C157.42,1726.9411 180.6111,1737.888 210.1211,1745.308 " fill="none" id="Admin-to-ListPatientProfilesByDifferentAtributes" style="stroke:#181818;stroke-width:1.0;"/><polygon fill="#181818" points="215.94,1746.7711,208.1871,1740.6972,211.0909,1745.5518,206.2363,1748.4557,215.94,1746.7711" style="stroke:#181818;stroke-width:1.0;"/></g><!--link Admin to CreateANewStaffProfile--><g id="link_Admin_CreateANewStaffProfile"><path d="M45.71,1458.3911 C55.91,1546.9311 84.86,1756.2911 135,1803.6211 C167.25,1834.0611 208.6058,1844.8166 251.0258,1847.8966 " fill="none" id="Admin-to-CreateANewStaffProfile" style="stroke:#181818;stroke-width:1.0;"/><polygon fill="#181818" points="257.01,1848.3311,248.3233,1843.6898,252.0231,1847.969,247.744,1851.6688,257.01,1848.3311" style="stroke:#181818;stroke-width:1.0;"/></g><!--link Admin to EditAStaffsProfile--><g id="link_Admin_EditAStaffsProfile"><path d="M43.84,1458.1511 C50.67,1559.4611 74.1,1824.5911 135,1883.6211 C171.82,1919.3211 223.49,1927.9098 270.41,1927.9198 " fill="none" id="Admin-to-EditAStaffsProfile" style="stroke:#181818;stroke-width:1.0;"/><polygon fill="#181818" points="276.41,1927.9211,267.41,1923.9211,271.41,1927.9211,267.41,1931.9211,276.41,1927.9211" style="stroke:#181818;stroke-width:1.0;"/></g><!--link Admin to ListStaffProfiles--><g id="link_Admin_ListStaffProfiles"><path d="M45.17,1379.1111 C54.5,1287.7811 82.18,1066.0911 135,1016.6211 C174.23,979.8811 235.74,972.4911 283.59,973.3711 " fill="none" id="Admin-ListStaffProfiles" style="stroke:#181818;stroke-width:1.0;"/></g><!--link Admin to DeactivateAStaffProfile--><g id="link_Admin_DeactivateAStaffProfile"><path d="M42.7,1458.5211 C46.94,1570.9811 64.97,1886.9611 135,1957.6211 C167.31,1990.2211 210.7789,2000.8537 254.5189,2003.2437 " fill="none" id="Admin-to-DeactivateAStaffProfile" style="stroke:#181818;stroke-width:1.0;"/><polygon fill="#181818" points="260.51,2003.5711,251.7416,1999.086,255.5174,2003.2983,251.3052,2007.0741,260.51,2003.5711" style="stroke:#181818;stroke-width:1.0;"/></g><!--link Doctor to RequestAnOperation--><g id="link_Doctor_RequestAnOperation"><path d="M61.52,719.3911 C101.8,720.9411 188.7844,724.2811 259.1744,726.9811 " fill="none" id="Doctor-to-RequestAnOperation" style="stroke:#181818;stroke-width:1.0;"/><polygon fill="#181818" points="265.17,727.2111,256.3299,722.8691,260.1737,727.0194,256.0233,730.8632,265.17,727.2111" style="stroke:#181818;stroke-width:1.0;"/></g><!--link Doctor to UpdateAnOperationRequisition--><g id="link_Doctor_UpdateAnOperationRequisition"><path d="M61.85,731.7711 C80.27,743.1011 108.49,759.1011 135,768.6211 C173.05,782.2811 210.5252,791.0465 248.5752,797.9065 " fill="none" id="Doctor-to-UpdateAnOperationRequisition" style="stroke:#181818;stroke-width:1.0;"/><polygon fill="#181818" points="254.48,798.9711,246.3325,793.4377,249.5593,798.084,244.9131,801.3108,254.48,798.9711" style="stroke:#181818;stroke-width:1.0;"/></g><!--link Doctor to RemoveAnOperationRequisition--><g id="link_Doctor_RemoveAnOperationRequisition"><path d="M58.03,758.2811 C73.31,789.9111 99.09,832.7411 135,856.6211 C165.11,876.6411 196.4423,886.8729 231.6123,893.1129 " fill="none" id="Doctor-to-RemoveAnOperationRequisition" style="stroke:#181818;stroke-width:1.0;"/><polygon fill="#181818" points="237.52,894.1611,229.3572,888.6503,232.5969,893.2876,227.9596,896.5273,237.52,894.1611" style="stroke:#181818;stroke-width:1.0;"/></g><!--link Doctor to ListOperationRequisitions--><g id="link_Doctor_ListOperationRequisitions"><path d="M61.79,712.4011 C80.64,706.7711 109.55,698.4711 135,692.6211 C180.11,682.2511 225.0164,673.8456 266.3464,666.7556 " fill="none" id="Doctor-to-ListOperationRequisitions" style="stroke:#181818;stroke-width:1.0;"/><polygon fill="#181818" points="272.26,665.7411,262.7133,663.3204,267.332,666.5865,264.0659,671.2052,272.26,665.7411" style="stroke:#181818;stroke-width:1.0;"/></g><!--link Admin to AddNewTypesOfOperation--><g id="link_Admin_AddNewTypesOfOperation"><path d="M40.78,1379.0411 C41.85,1311.1611 54.49,1172.7811 135,1099.6211 C165.73,1071.7011 203.1858,1060.4558 243.2658,1056.0558 " fill="none" id="Admin-to-AddNewTypesOfOperation" style="stroke:#181818;stroke-width:1.0;"/><polygon fill="#181818" points="249.23,1055.4011,239.8472,1052.4071,244.2599,1055.9467,240.7202,1060.3593,249.23,1055.4011" style="stroke:#181818;stroke-width:1.0;"/></g><!--link Admin to EditExistingOperationTypes--><g id="link_Admin_EditExistingOperationTypes"><path d="M45.62,1378.8311 C53.34,1325.6111 75.08,1232.2211 135,1182.6211 C165.86,1157.0711 201.6182,1146.0702 240.3482,1141.1302 " fill="none" id="Admin-to-EditExistingOperationTypes" style="stroke:#181818;stroke-width:1.0;"/><polygon fill="#181818" points="246.3,1140.3711,236.8662,1137.542,241.3402,1141.0037,237.8784,1145.4777,246.3,1140.3711" style="stroke:#181818;stroke-width:1.0;"/></g><!--link Admin to RemoveObsoleteOrNoLongerPerformedOperationTypes--><g id="link_Admin_RemoveObsoleteOrNoLongerPerformedOperationTypes"><path d="M60.05,1385.2811 C76.45,1358.8211 102.74,1322.8511 135,1301.6211 C156.32,1287.5911 175.1786,1278.7205 199.9586,1270.4505 " fill="none" id="Admin-to-RemoveObsoleteOrNoLongerPerformedOperationTypes" style="stroke:#181818;stroke-width:1.0;"/><polygon fill="#181818" points="205.65,1268.5511,195.8466,1267.606,200.9072,1270.134,198.3792,1275.1945,205.65,1268.5511" style="stroke:#181818;stroke-width:1.0;"/></g><!--link Admin to ListOperationTypes--><g id="link_Admin_ListOperationTypes"><path d="M60.3,1408.4911 C78.8,1398.9211 108.11,1384.8511 135,1376.6211 C180.85,1362.5911 227.8378,1354.0619 270.1778,1348.1419 " fill="none" id="Admin-to-ListOperationTypes" style="stroke:#181818;stroke-width:1.0;"/><polygon fill="#181818" points="276.12,1347.3111,266.6528,1344.5959,271.1682,1348.0035,267.7606,1352.5188,276.12,1347.3111" style="stroke:#181818;stroke-width:1.0;"/></g><!--SRC=[fLN1RgCm4Btp5LOlFVKNLg9DLnkfQQ8s-G071cBLsDHscaMh_VSTsoGs10ZLzj1IvhtdyPjXvbv_C55JHIjIII6pWv8L4AEEa8H8JRCFMiAxQJWG1PcXekIGt0U4Fj1SdfWeIK6vXYGYN_1_4e8_ZrBbe9uabueqmBay9N-Jn323qZiDv8dYhmMZ9N8J3eKXHXB5oeCXERDQJ8h4AT7CeCPTcbTCt16gYNkAGmjf_xgOVuo3hqUbmSNSKnpQGdOGB6FKwuP_Oz266WR2E4JxxFCwQiZi9UxUe6JQW282JcIF7igYO1bOWDAETqQymkdn4j_PS5z9Wo5LWvNG-eGE4bQG9IcaAl4zCwqOWbRDfeKiY-LF5r-QaRIGJim1o04eDuUCAY2qhZdBg3Mvao0g_RgWqW3gAk_gd1gmUTehabh9Wd7lCV6nLMDlj_61Bda173oPPfay2aEeo0db7EbQeli6Se8QrDVJeLTDwh6fo5FEqmjmWRYk_8ii2HEscUoLTOEtgZ1gMnQFp1JaM426pUla4RqKMxazmBj3xYnmrJm5s9HwP6Z_8FYDRWhAoJ9TJPmQpEwS_zooaJoQ2WPi4QZhkjetPgSK7f1YpxLjErYEvvpP2c32s00s-I4f2qh5SmkPackhImTbV32Tuh_W4Nsk9li6Xq9HWB9lgL5iVpJGUec4hg1-R1PdS7h6JdYd3IsA4UVURMp2Dq- -rzTkEQOUyGX72_lo6LoV7iBf-F7Efmuts16phWRCvn6qAxYiGSK3m0LIiJw_7lpaOnvE_CyZq-oYuJ6Hn5i0zDEevDSDDO-Pe-Qy61GAdWofzBn9yzprWsbgR3bPz1p2C3R4rWRNnOXBhYakNr98oKbUUkFy7Lr4dEYWGtAlfVkWS8GBIRWKfHsue72cLpWdXuxmr7NBNAjN-U9ecpDhwbpICpF8TbpqJ4TrsvWyFFoujULYuEG6ypjy3j9jz3d0iDhdeDjvqhdKv6QC2MCBCCRCtMh1ifcBAh9k9YDOE9FGit8cAxxz_wo_uCZaUWkmcwihGCVNKrI7RwoReLol9delq-krSGQCZFOu_V6zqVca1YTzXBWvnpjgDwPqt96JSpXSP6BITjsQ6AJniFd-EEpMkmVu1m00]--></g></svg>