<?xml version="1.0" encoding="us-ascii" standalone="no"?><svg xmlns="http://www.w3.org/2000/svg" xmlns:xlink="http://www.w3.org/1999/xlink" contentStyleType="text/css" height="4559px" preserveAspectRatio="none" style="width:1204px;height:4559px;background:#FFFFFF;" version="1.1" viewBox="0 0 1204 4559" width="1204px" zoomAndPan="magnify"><defs/><g><text fill="#000000" font-family="sans-serif" font-size="14" font-weight="bold" lengthAdjust="spacing" textLength="127" x="531.5021" y="24.5332">Use Case Diagram</text><!--entity User--><g id="elem_User"><ellipse cx="84" cy="4429.6094" fill="#F1F1F1" rx="8" ry="8" style="stroke:#181818;stroke-width:0.5;"/><path d="M84,4437.6094 L84,4464.6094 M71,4445.6094 L97,4445.6094 M84,4464.6094 L71,4479.6094 M84,4464.6094 L97,4479.6094 " fill="none" style="stroke:#181818;stroke-width:0.5;"/><text fill="#000000" font-family="sans-serif" font-size="14" lengthAdjust="spacing" textLength="29" x="69.5" y="4495.6426">User</text></g><!--entity Admin--><g id="elem_Admin"><ellipse cx="84" cy="3330.6094" fill="#F1F1F1" rx="8" ry="8" style="stroke:#181818;stroke-width:0.5;"/><path d="M84,3338.6094 L84,3365.6094 M71,3346.6094 L97,3346.6094 M84,3365.6094 L71,3380.6094 M84,3365.6094 L97,3380.6094 " fill="none" style="stroke:#181818;stroke-width:0.5;"/><text fill="#000000" font-family="sans-serif" font-size="14" lengthAdjust="spacing" textLength="39" x="64.5" y="3396.6426">Admin</text></g><!--entity Doctor--><g id="elem_Doctor"><ellipse cx="84" cy="2460.6094" fill="#F1F1F1" rx="8" ry="8" style="stroke:#181818;stroke-width:0.5;"/><path d="M84,2468.6094 L84,2495.6094 M71,2476.6094 L97,2476.6094 M84,2495.6094 L71,2510.6094 M84,2495.6094 L97,2510.6094 " fill="none" style="stroke:#181818;stroke-width:0.5;"/><text fill="#000000" font-family="sans-serif" font-size="14" lengthAdjust="spacing" textLength="42" x="63" y="2526.6426">Doctor</text></g><!--entity Nurse--><g id="elem_Nurse"><ellipse cx="84" cy="2199.6094" fill="#F1F1F1" rx="8" ry="8" style="stroke:#181818;stroke-width:0.5;"/><path d="M84,2207.6094 L84,2234.6094 M71,2215.6094 L97,2215.6094 M84,2234.6094 L71,2249.6094 M84,2234.6094 L97,2249.6094 " fill="none" style="stroke:#181818;stroke-width:0.5;"/><text fill="#000000" font-family="sans-serif" font-size="14" lengthAdjust="spacing" textLength="37" x="65.5" y="2265.6426">Nurse</text></g><!--entity Technician--><g id="elem_Technician"><ellipse cx="84" cy="2312.6094" fill="#F1F1F1" rx="8" ry="8" style="stroke:#181818;stroke-width:0.5;"/><path d="M84,2320.6094 L84,2347.6094 M71,2328.6094 L97,2328.6094 M84,2347.6094 L71,2362.6094 M84,2347.6094 L97,2362.6094 " fill="none" style="stroke:#181818;stroke-width:0.5;"/><text fill="#000000" font-family="sans-serif" font-size="14" lengthAdjust="spacing" textLength="69" x="49.5" y="2378.6426">Technician</text></g><!--entity SysAdmin--><g id="elem_SysAdmin"><ellipse cx="84" cy="1731.6094" fill="#F1F1F1" rx="8" ry="8" style="stroke:#181818;stroke-width:0.5;"/><path d="M84,1739.6094 L84,1766.6094 M71,1747.6094 L97,1747.6094 M84,1766.6094 L71,1781.6094 M84,1766.6094 L97,1781.6094 " fill="none" style="stroke:#181818;stroke-width:0.5;"/><text fill="#000000" font-family="sans-serif" font-size="14" lengthAdjust="spacing" textLength="133" x="17.5" y="1797.6426">System Administrator</text></g><!--entity HealthcareStaffMember--><g id="elem_HealthcareStaffMember"><ellipse cx="84" cy="1007.6094" fill="#F1F1F1" rx="8" ry="8" style="stroke:#181818;stroke-width:0.5;"/><path d="M84,1015.6094 L84,1042.6094 M71,1023.6094 L97,1023.6094 M84,1042.6094 L71,1057.6094 M84,1042.6094 L97,1057.6094 " fill="none" style="stroke:#181818;stroke-width:0.5;"/><text fill="#000000" font-family="sans-serif" font-size="14" lengthAdjust="spacing" textLength="156" x="6" y="1073.6426">Healthcare Staff Member</text></g><!--entity Patient--><g id="elem_Patient"><ellipse cx="84" cy="521.6094" fill="#F1F1F1" rx="8" ry="8" style="stroke:#181818;stroke-width:0.5;"/><path d="M84,529.6094 L84,556.6094 M71,537.6094 L97,537.6094 M84,556.6094 L71,571.6094 M84,556.6094 L97,571.6094 " fill="none" style="stroke:#181818;stroke-width:0.5;"/><text fill="#000000" font-family="sans-serif" font-size="14" lengthAdjust="spacing" textLength="44" x="62" y="587.6426">Patient</text></g><!--entity Organization--><g id="elem_Organization"><ellipse cx="84" cy="226.6094" fill="#F1F1F1" rx="8" ry="8" style="stroke:#181818;stroke-width:0.5;"/><path d="M84,234.6094 L84,261.6094 M71,242.6094 L97,242.6094 M84,261.6094 L71,276.6094 M84,261.6094 L97,276.6094 " fill="none" style="stroke:#181818;stroke-width:0.5;"/><text fill="#000000" font-family="sans-serif" font-size="14" lengthAdjust="spacing" textLength="80" x="44" y="292.6426">Organization</text></g><!--entity System--><g id="elem_System"><ellipse cx="84" cy="52.6094" fill="#F1F1F1" rx="8" ry="8" style="stroke:#181818;stroke-width:0.5;"/><path d="M84,60.6094 L84,87.6094 M71,68.6094 L97,68.6094 M84,87.6094 L71,102.6094 M84,87.6094 L97,102.6094 " fill="none" style="stroke:#181818;stroke-width:0.5;"/><text fill="#000000" font-family="sans-serif" font-size="14" lengthAdjust="spacing" textLength="46" x="61" y="118.6426">System</text></g><g id="elem_IntegratedUI"><ellipse cx="710.2384" cy="4404.957" fill="#F1F1F1" rx="174.7384" ry="37.3477" style="stroke:#181818;stroke-width:0.5;"/><text fill="#000000" font-family="sans-serif" font-size="14" lengthAdjust="spacing" textLength="320" x="550.2384" y="4408.6856">Have an integrated UI for all modules of the system</text></g><g id="elem_MenuAdjustment"><ellipse cx="710.1398" cy="4516.0373" fill="#F1F1F1" rx="177.6398" ry="37.928" style="stroke:#181818;stroke-width:0.5;"/><text fill="#000000" font-family="sans-serif" font-size="14" lengthAdjust="spacing" textLength="326" x="547.1398" y="4519.7659">The application menu to adjust according to my role</text></g><g id="elem_RoomAvailabilitySync"><ellipse cx="710.0437" cy="797.9181" fill="#F1F1F1" rx="219.5437" ry="46.3087" style="stroke:#181818;stroke-width:0.5;"/><text fill="#000000" font-family="sans-serif" font-size="14" lengthAdjust="spacing" textLength="331" x="541.5437" y="784.8253">The information show on the 3D visualization module</text><text fill="#000000" font-family="sans-serif" font-size="14" lengthAdjust="spacing" textLength="316" x="549.0437" y="802.4347">about room availability is in sync with the schedule</text><text fill="#000000" font-family="sans-serif" font-size="14" lengthAdjust="spacing" textLength="272" x="571.0437" y="820.0441">that was generated by the planning module</text></g><g id="elem_BackofficeSync"><ellipse cx="709.9656" cy="4153.0025" fill="#F1F1F1" rx="227.4656" ry="47.8931" style="stroke:#181818;stroke-width:0.5;"/><text fill="#000000" font-family="sans-serif" font-size="14" lengthAdjust="spacing" textLength="351" x="534.4133" y="4139.136">The information about healthcare staff, operation types,</text><text fill="#000000" font-family="sans-serif" font-size="14" lengthAdjust="spacing" textLength="261" x="579.4133" y="4156.7454">and operation requests is in sync with the</text><text fill="#000000" font-family="sans-serif" font-size="14" lengthAdjust="spacing" textLength="280" x="569.9133" y="4174.3548">information entered in the backoffice module</text></g><g id="elem_StaffAvailabilitySync"><ellipse cx="709.9472" cy="4284.0988" fill="#F1F1F1" rx="227.9472" ry="47.9894" style="stroke:#181818;stroke-width:0.5;"/><text fill="#000000" font-family="sans-serif" font-size="14" lengthAdjust="spacing" textLength="402" x="508.9472" y="4279.0226">The information about staff's availability and operation schedule</text><text fill="#000000" font-family="sans-serif" font-size="14" lengthAdjust="spacing" textLength="361" x="531.4472" y="4296.632">is in sync with the plan generated by the planning module</text></g><g id="elem_Registration"><ellipse cx="709.9415" cy="421.8977" fill="#F1F1F1" rx="136.9415" ry="29.7883" style="stroke:#181818;stroke-width:0.5;"/><text fill="#000000" font-family="sans-serif" font-size="14" lengthAdjust="spacing" textLength="241" x="589.4415" y="425.6262">Register for the healthcare application</text></g><g id="elem_UserProfileUpdate"><ellipse cx="710.1965" cy="508.3487" fill="#F1F1F1" rx="91.6965" ry="20.7393" style="stroke:#181818;stroke-width:0.5;"/><text fill="#000000" font-family="sans-serif" font-size="14" lengthAdjust="spacing" textLength="142" x="639.1965" y="512.0772">Update my user profile</text></g><g id="elem_AccountDeletion"><ellipse cx="709.7816" cy="595.8657" fill="#F1F1F1" rx="149.2816" ry="32.2563" style="stroke:#181818;stroke-width:0.5;"/><text fill="#000000" font-family="sans-serif" font-size="14" lengthAdjust="spacing" textLength="267" x="576.2816" y="599.5942">Delete my account and all associated data</text></g><g id="elem_LogInToTheSystemUsingMyCredentials"><ellipse cx="709.9478" cy="2309.1989" fill="#F1F1F1" rx="145.9478" ry="31.5896" style="stroke:#181818;stroke-width:0.5;"/><text fill="#000000" font-family="sans-serif" font-size="14" lengthAdjust="spacing" textLength="260" x="579.9478" y="2312.9274">Log in to the system using my credentials</text></g><g id="elem_Login"><ellipse cx="709.8554" cy="689.8805" fill="#F1F1F1" rx="116.8554" ry="25.7711" style="stroke:#181818;stroke-width:0.5;"/><text fill="#000000" font-family="sans-serif" font-size="14" lengthAdjust="spacing" textLength="198" x="610.8554" y="693.609">Log in to the healthcare system</text></g><g id="elem_PatientProfileCreation"><ellipse cx="709.8935" cy="2741.1881" fill="#F1F1F1" rx="105.8935" ry="23.5787" style="stroke:#181818;stroke-width:0.5;"/><text fill="#000000" font-family="sans-serif" font-size="14" lengthAdjust="spacing" textLength="174" x="622.8935" y="2744.9166">Create a new patient profile</text></g><g id="elem_PatientProfileEdit"><ellipse cx="709.8903" cy="2824.1874" fill="#F1F1F1" rx="110.8903" ry="24.5781" style="stroke:#181818;stroke-width:0.5;"/><text fill="#000000" font-family="sans-serif" font-size="14" lengthAdjust="spacing" textLength="185" x="617.3903" y="2827.9159">Edit an existing patient profile</text></g><g id="elem_PatientProfileDeletion"><ellipse cx="710.1309" cy="2904.9356" fill="#F1F1F1" rx="92.1309" ry="20.8262" style="stroke:#181818;stroke-width:0.5;"/><text fill="#000000" font-family="sans-serif" font-size="14" lengthAdjust="spacing" textLength="143" x="638.6309" y="2908.6641">Delete a patient profile</text></g><g id="elem_PatientProfileSearch"><ellipse cx="710.0185" cy="2996.9131" fill="#F1F1F1" rx="167.0185" ry="35.8037" style="stroke:#181818;stroke-width:0.5;"/><text fill="#000000" font-family="sans-serif" font-size="14" lengthAdjust="spacing" textLength="304" x="558.0185" y="3000.6416">List/search patient profiles by different attributes</text></g><g id="elem_StaffProfileCreation"><ellipse cx="710.2239" cy="3090.2542" fill="#F1F1F1" rx="98.7239" ry="22.1448" style="stroke:#181818;stroke-width:0.5;"/><text fill="#000000" font-family="sans-serif" font-size="14" lengthAdjust="spacing" textLength="158" x="631.2239" y="3093.9827">Create a new staff profile</text></g><g id="elem_StaffProfileEdit"><ellipse cx="709.8351" cy="3165.9764" fill="#F1F1F1" rx="82.3351" ry="18.867" style="stroke:#181818;stroke-width:0.5;"/><text fill="#000000" font-family="sans-serif" font-size="14" lengthAdjust="spacing" textLength="120" x="649.8351" y="3169.7049">Edit a staff's profile</text></g><g id="elem_StaffProfileDeletion"><ellipse cx="710.011" cy="3242.3116" fill="#F1F1F1" rx="96.511" ry="21.7022" style="stroke:#181818;stroke-width:0.5;"/><text fill="#000000" font-family="sans-serif" font-size="14" lengthAdjust="spacing" textLength="153" x="633.511" y="3246.0401">Deactivate a staff profile</text></g><g id="elem_StaffProfileSearch"><ellipse cx="710.1904" cy="3320.0474" fill="#F1F1F1" rx="95.1904" ry="21.4381" style="stroke:#181818;stroke-width:0.5;"/><text fill="#000000" font-family="sans-serif" font-size="14" lengthAdjust="spacing" textLength="150" x="635.1904" y="3323.776">List/search staff profiles</text></g><g id="elem_OperationRequest"><ellipse cx="710.035" cy="2573.9164" fill="#F1F1F1" rx="89.535" ry="20.307" style="stroke:#181818;stroke-width:0.5;"/><text fill="#000000" font-family="sans-serif" font-size="14" lengthAdjust="spacing" textLength="137" x="641.535" y="2577.6449">Request an operation</text></g><g id="elem_OperationRequestUpdate"><ellipse cx="709.8554" cy="2655.8805" fill="#F1F1F1" rx="116.8554" ry="25.7711" style="stroke:#181818;stroke-width:0.5;"/><text fill="#000000" font-family="sans-serif" font-size="14" lengthAdjust="spacing" textLength="198" x="610.8554" y="2659.609">Update an operation requisition</text></g><g id="elem_OperationRequestDeletion"><ellipse cx="710.091" cy="2402.0276" fill="#F1F1F1" rx="120.091" ry="26.4182" style="stroke:#181818;stroke-width:0.5;"/><text fill="#000000" font-family="sans-serif" font-size="14" lengthAdjust="spacing" textLength="205" x="607.591" y="2405.7561">Remove an operation requisition</text></g><g id="elem_OperationRequestSearch"><ellipse cx="709.9467" cy="2490.8987" fill="#F1F1F1" rx="121.9467" ry="26.7893" style="stroke:#181818;stroke-width:0.5;"/><text fill="#000000" font-family="sans-serif" font-size="14" lengthAdjust="spacing" textLength="209" x="605.4467" y="2494.6272">List/search operation requisitions</text></g><g id="elem_OperationTypeAddition"><ellipse cx="710.1585" cy="3401.1411" fill="#F1F1F1" rx="108.1585" ry="24.0317" style="stroke:#181818;stroke-width:0.5;"/><text fill="#000000" font-family="sans-serif" font-size="14" lengthAdjust="spacing" textLength="179" x="620.6585" y="3404.8696">Add new types of operations</text></g><g id="elem_OperationTypeEdit"><ellipse cx="709.7512" cy="3483.9596" fill="#F1F1F1" rx="107.2512" ry="23.8502" style="stroke:#181818;stroke-width:0.5;"/><text fill="#000000" font-family="sans-serif" font-size="14" lengthAdjust="spacing" textLength="177" x="621.2512" y="3487.6881">Edit existing operation types</text></g><g id="elem_OperationTypeDeletion"><ellipse cx="710.1121" cy="3585.0318" fill="#F1F1F1" rx="195.1121" ry="41.4224" style="stroke:#181818;stroke-width:0.5;"/><text fill="#000000" font-family="sans-serif" font-size="14" lengthAdjust="spacing" textLength="362" x="529.1121" y="3588.7603">Remove obsolete or no longer performed operation types</text></g><g id="elem_OperationTypeSearch"><ellipse cx="710.0397" cy="3684.9173" fill="#F1F1F1" rx="104.5397" ry="23.3079" style="stroke:#181818;stroke-width:0.5;"/><text fill="#000000" font-family="sans-serif" font-size="14" lengthAdjust="spacing" textLength="171" x="624.5397" y="3688.6458">List/search operation types</text></g><g id="elem_Scheduling"><ellipse cx="709.8803" cy="3787.1854" fill="#F1F1F1" rx="203.3803" ry="43.0761" style="stroke:#181818;stroke-width:0.5;"/><text fill="#000000" font-family="sans-serif" font-size="14" lengthAdjust="spacing" textLength="317" x="549.3803" y="3782.1093">Obtain the better scheduling of a set of operations</text><text fill="#000000" font-family="sans-serif" font-size="14" lengthAdjust="spacing" textLength="348" x="535.8803" y="3799.7186">(surgeries) in a certain operation room in a specific day</text></g><g id="elem_SchedulingLimitation"><ellipse cx="710.129" cy="3909.1352" fill="#F1F1F1" rx="205.629" ry="43.5258" style="stroke:#181818;stroke-width:0.5;"/><text fill="#000000" font-family="sans-serif" font-size="14" lengthAdjust="spacing" textLength="353" x="533.629" y="3904.059">Know till what dimension in terms of number of surgeries</text><text fill="#000000" font-family="sans-serif" font-size="14" lengthAdjust="spacing" textLength="251" x="586.629" y="3921.6684">is possible to ask for the better solution.</text></g><g id="elem_SchedulingFast"><ellipse cx="710.0039" cy="4029.3102" fill="#F1F1F1" rx="194.0039" ry="41.2008" style="stroke:#181818;stroke-width:0.5;"/><text fill="#000000" font-family="sans-serif" font-size="14" lengthAdjust="spacing" textLength="323" x="546.5039" y="4024.234">Obtain a good schedule, not necessarily the better,</text><text fill="#000000" font-family="sans-serif" font-size="14" lengthAdjust="spacing" textLength="179" x="620.5039" y="4041.8434">in useful time to be adopted.</text></g><g id="elem_RFPModuleDeployment"><ellipse cx="709.9903" cy="1358.0074" fill="#F1F1F1" rx="199.9903" ry="42.3981" style="stroke:#181818;stroke-width:0.5;"/><text fill="#000000" font-family="sans-serif" font-size="14" lengthAdjust="spacing" textLength="275" x="567.4903" y="1344.9147">The deployment of one of the RFP modules</text><text fill="#000000" font-family="sans-serif" font-size="14" lengthAdjust="spacing" textLength="247" x="581.4903" y="1362.524">in a DEI VM to be systematic, validating</text><text fill="#000000" font-family="sans-serif" font-size="14" lengthAdjust="spacing" textLength="255" x="579.4903" y="1380.1334">it on a scheduled basis with the test plan</text></g><g id="elem_RFPModuleAccess"><ellipse cx="709.8803" cy="1479.1854" fill="#F1F1F1" rx="203.3803" ry="43.0761" style="stroke:#181818;stroke-width:0.5;"/><text fill="#000000" font-family="sans-serif" font-size="14" lengthAdjust="spacing" textLength="344" x="535.8803" y="1474.1093">Clients on the DEI's internal network (wired or via VPN)</text><text fill="#000000" font-family="sans-serif" font-size="14" lengthAdjust="spacing" textLength="204" x="607.8803" y="1491.7186">to be able to access the solution</text></g><g id="elem_RFPModuleConfiguration"><ellipse cx="709.7505" cy="1596.9595" fill="#F1F1F1" rx="184.7505" ry="39.3501" style="stroke:#181818;stroke-width:0.5;"/><text fill="#000000" font-family="sans-serif" font-size="14" lengthAdjust="spacing" textLength="302" x="556.7505" y="1591.8833">Clients listed in the requirement 6.3.2 to be able</text><text fill="#000000" font-family="sans-serif" font-size="14" lengthAdjust="spacing" textLength="267" x="576.2505" y="1609.4927">to be defined by simply changing a text file</text></g><g id="elem_RiskAssessment"><ellipse cx="710.2148" cy="1705.3523" fill="#F1F1F1" rx="156.7148" ry="33.743" style="stroke:#181818;stroke-width:0.5;"/><text fill="#000000" font-family="sans-serif" font-size="14" lengthAdjust="spacing" textLength="240" x="590.2148" y="1700.2762">Identify and quantify the risks involved</text><text fill="#000000" font-family="sans-serif" font-size="14" lengthAdjust="spacing" textLength="186" x="619.2148" y="1717.8855">in the recommended solution.</text></g><g id="elem_MBCODefinition"><ellipse cx="710.135" cy="1819.0364" fill="#F1F1F1" rx="215.135" ry="45.427" style="stroke:#181818;stroke-width:0.5;"/><text fill="#000000" font-family="sans-serif" font-size="14" lengthAdjust="spacing" textLength="370" x="523.135" y="1813.9602">Define the MBCO (Minimum Business Continuity Objective)</text><text fill="#000000" font-family="sans-serif" font-size="14" lengthAdjust="spacing" textLength="169" x="625.635" y="1831.5696">to propose to stakeholders</text></g><g id="elem_BackupStrategy"><ellipse cx="710.1741" cy="1950.0442" fill="#F1F1F1" rx="240.1741" ry="50.4348" style="stroke:#181818;stroke-width:0.5;"/><text fill="#000000" font-family="sans-serif" font-size="14" lengthAdjust="spacing" textLength="382" x="519.1741" y="1936.1633">A backup strategy to be proposed, justified and implemented</text><text fill="#000000" font-family="sans-serif" font-size="14" lengthAdjust="spacing" textLength="295" x="562.6741" y="1953.7727">that minimizes RPO (Recovery Point Objective)</text><text fill="#000000" font-family="sans-serif" font-size="14" lengthAdjust="spacing" textLength="210" x="605.1741" y="1971.3821">and WRT (Work Recovery Time).</text></g><g id="elem_PublicFolder"><ellipse cx="710.0452" cy="2081.2184" fill="#F1F1F1" rx="216.0452" ry="45.609" style="stroke:#181818;stroke-width:0.5;"/><text fill="#000000" font-family="sans-serif" font-size="14" lengthAdjust="spacing" textLength="376" x="522.0452" y="2076.1422">Define a public folder for all users registered on the system,</text><text fill="#000000" font-family="sans-serif" font-size="14" lengthAdjust="spacing" textLength="287" x="568.5452" y="2093.7516">where they can read whatever is placed there</text></g><g id="elem_AccessControl"><ellipse cx="709.7768" cy="2201.8647" fill="#F1F1F1" rx="189.2768" ry="40.2554" style="stroke:#181818;stroke-width:0.5;"/><text fill="#000000" font-family="sans-serif" font-size="14" lengthAdjust="spacing" textLength="350" x="534.7768" y="2205.5933">Get users with more than 3 incorrect accesses attempts</text></g><g id="elem_HospitalFloor3D"><ellipse cx="709.8231" cy="916.974" fill="#F1F1F1" rx="172.3231" ry="36.8646" style="stroke:#181818;stroke-width:0.5;"/><text fill="#000000" font-family="sans-serif" font-size="14" lengthAdjust="spacing" textLength="315" x="552.3231" y="920.7025">See a 3D representation of the hospital/clinic floor</text></g><g id="elem_HospitalFloor3DTextures"><ellipse cx="709.7533" cy="1038.06" fill="#F1F1F1" rx="232.7533" ry="48.9507" style="stroke:#181818;stroke-width:0.5;"/><text fill="#000000" font-family="sans-serif" font-size="14" lengthAdjust="spacing" textLength="308" x="553.7533" y="1024.1792">See appropriate textures (that is, suitable for use</text><text fill="#000000" font-family="sans-serif" font-size="14" lengthAdjust="spacing" textLength="364" x="527.7533" y="1041.7885">in representing a hospital or clinic) mapped onto the floor,</text><text fill="#000000" font-family="sans-serif" font-size="14" lengthAdjust="spacing" textLength="101" x="661.2533" y="1059.3979">walls, and so on</text></g><g id="elem_HospitalFloor3DLighting"><ellipse cx="709.8585" cy="1156.1811" fill="#F1F1F1" rx="158.3585" ry="34.0717" style="stroke:#181818;stroke-width:0.5;"/><text fill="#000000" font-family="sans-serif" font-size="14" lengthAdjust="spacing" textLength="240" x="587.8585" y="1151.1049">See the hospital/clinic floor illuminated</text><text fill="#000000" font-family="sans-serif" font-size="14" lengthAdjust="spacing" textLength="205" x="607.3585" y="1168.7143">with ambient and directional light</text></g><g id="elem_HospitalFloor3DControl"><ellipse cx="710.1055" cy="1253.3305" fill="#F1F1F1" rx="126.6055" ry="27.7211" style="stroke:#181818;stroke-width:0.5;"/><text fill="#000000" font-family="sans-serif" font-size="14" lengthAdjust="spacing" textLength="219" x="600.6055" y="1257.059">Control the camera with the mouse</text></g><g id="elem_DataProtection"><ellipse cx="710.0021" cy="257.1098" fill="#F1F1F1" rx="488.0021" ry="100.0004" style="stroke:#181818;stroke-width:0.5;"/><text fill="#000000" font-family="sans-serif" font-size="14" lengthAdjust="spacing" textLength="954" x="233.0021" y="260.8383">To be sure that the team has good knowledge of the project, how it may affect patients' personal data and if the processing is done according to the law</text></g><g id="elem_DataBreachNotification"><ellipse cx="710.0255" cy="82.9145" fill="#F1F1F1" rx="179.5255" ry="38.3051" style="stroke:#181818;stroke-width:0.5;"/><text fill="#000000" font-family="sans-serif" font-size="14" lengthAdjust="spacing" textLength="294" x="563.0255" y="77.8383">Notify both users and the responsible authority</text><text fill="#000000" font-family="sans-serif" font-size="14" lengthAdjust="spacing" textLength="153" x="635.5255" y="95.4477">in case of a data breach</text></g><!--link User to IntegratedUI--><g id="link_User_IntegratedUI"><path d="M98.61,4458.9094 C156.63,4453.7994 381.6032,4433.9661 542.1532,4419.8161 " fill="none" id="User-to-IntegratedUI" style="stroke:#181818;stroke-width:1.0;"/><polygon fill="#181818" points="548.13,4419.2894,538.8136,4416.095,543.1493,4419.7283,539.5159,4424.0641,548.13,4419.2894" style="stroke:#181818;stroke-width:1.0;"/></g><!--link User to MenuAdjustment--><g id="link_User_MenuAdjustment"><path d="M98.61,4461.3294 C156.36,4466.5094 379.474,4486.533 539.924,4500.933 " fill="none" id="User-to-MenuAdjustment" style="stroke:#181818;stroke-width:1.0;"/><polygon fill="#181818" points="545.9,4501.4694,537.2936,4496.6809,540.92,4501.0224,536.5785,4504.6489,545.9,4501.4694" style="stroke:#181818;stroke-width:1.0;"/></g><!--link HealthcareStaffMember to RoomAvailabilitySync--><g id="link_HealthcareStaffMember_RoomAvailabilitySync"><path d="M103.88,999.0994 C126.05,957.8994 166.91,894.6294 222,863.1094 C302.89,816.8394 397.4443,798.6338 486.1343,792.4938 " fill="none" id="HealthcareStaffMember-to-RoomAvailabilitySync" style="stroke:#181818;stroke-width:1.0;"/><polygon fill="#181818" points="492.12,792.0794,482.8652,788.7105,487.1319,792.4247,483.4177,796.6914,492.12,792.0794" style="stroke:#181818;stroke-width:1.0;"/></g><!--link Admin to BackofficeSync--><g id="link_Admin_BackofficeSync"><path d="M86.55,3400.3894 C92.81,3537.5894 120.97,3992.3594 222,4088.1094 C298.15,4160.2794 407.5503,4178.1673 506.9003,4177.2073 " fill="none" id="Admin-to-BackofficeSync" style="stroke:#181818;stroke-width:1.0;"/><polygon fill="#181818" points="512.9,4177.1494,503.8618,4173.2365,507.9002,4177.1977,503.9391,4181.2361,512.9,4177.1494" style="stroke:#181818;stroke-width:1.0;"/></g><!--link Admin to StaffAvailabilitySync--><g id="link_Admin_StaffAvailabilitySync"><path d="M85.32,3400.3694 C87.4,3552.8794 103.17,4103.2894 222,4219.1094 C297.82,4293.0094 408.6107,4310.6228 508.8107,4309.0628 " fill="none" id="Admin-to-StaffAvailabilitySync" style="stroke:#181818;stroke-width:1.0;"/><polygon fill="#181818" points="514.81,4308.9694,505.7488,4305.11,509.8106,4309.0472,505.8734,4313.109,514.81,4308.9694" style="stroke:#181818;stroke-width:1.0;"/></g><!--link Patient to Registration--><g id="link_Patient_Registration"><path d="M106.3,535.2194 C132.06,515.8294 177.51,484.7894 222,470.1094 C336.56,432.2994 467.8712,421.7887 567.4412,419.8087 " fill="none" id="Patient-to-Registration" style="stroke:#181818;stroke-width:1.0;"/><polygon fill="#181818" points="573.44,419.6894,564.3623,415.8691,568.441,419.7888,564.5213,423.8675,573.44,419.6894" style="stroke:#181818;stroke-width:1.0;"/></g><!--link Patient to UserProfileUpdate--><g id="link_Patient_UserProfileUpdate"><path d="M106.12,550.6194 C186.43,544.9594 469.7149,524.9813 616.4049,514.6413 " fill="none" id="Patient-to-UserProfileUpdate" style="stroke:#181818;stroke-width:1.0;"/><polygon fill="#181818" points="622.39,514.2194,613.131,510.8621,617.4024,514.5709,613.6935,518.8423,622.39,514.2194" style="stroke:#181818;stroke-width:1.0;"/></g><!--link Patient to AccountDeletion--><g id="link_Patient_AccountDeletion"><path d="M106.12,553.5994 C177.33,558.6194 406.8349,574.8073 561.5549,585.7173 " fill="none" id="Patient-to-AccountDeletion" style="stroke:#181818;stroke-width:1.0;"/><polygon fill="#181818" points="567.54,586.1394,558.8437,581.5162,562.5524,585.7877,558.2809,589.4964,567.54,586.1394" style="stroke:#181818;stroke-width:1.0;"/></g><!--link Admin to LogInToTheSystemUsingMyCredentials--><g id="link_Admin_LogInToTheSystemUsingMyCredentials"><path d="M87.51,3322.1094 C99.23,3145.5194 151.07,2426.5694 222,2358.1094 C323.19,2260.4494 491.158,2267.6151 601.458,2285.5751 " fill="none" id="Admin-to-LogInToTheSystemUsingMyCredentials" style="stroke:#181818;stroke-width:1.0;"/><polygon fill="#181818" points="607.38,2286.5394,599.1398,2281.145,602.445,2285.7358,597.8541,2289.041,607.38,2286.5394" style="stroke:#181818;stroke-width:1.0;"/></g><!--link Doctor to LogInToTheSystemUsingMyCredentials--><g id="link_Doctor_LogInToTheSystemUsingMyCredentials"><path d="M105.1,2468.2394 C135.99,2433.7094 194.42,2370.9394 222,2358.1094 C331.69,2307.0794 464.0108,2297.5492 565.1808,2299.2392 " fill="none" id="Doctor-to-LogInToTheSystemUsingMyCredentials" style="stroke:#181818;stroke-width:1.0;"/><polygon fill="#181818" points="571.18,2299.3394,562.2481,2295.1896,566.1807,2299.2559,562.1144,2303.1885,571.18,2299.3394" style="stroke:#181818;stroke-width:1.0;"/></g><!--link Nurse to LogInToTheSystemUsingMyCredentials--><g id="link_Nurse_LogInToTheSystemUsingMyCredentials"><path d="M102.61,2234.6494 C128.57,2241.1894 178.72,2253.2194 222,2260.1094 C339.07,2278.7494 467.1793,2291.1487 564.9793,2299.0087 " fill="none" id="Nurse-to-LogInToTheSystemUsingMyCredentials" style="stroke:#181818;stroke-width:1.0;"/><polygon fill="#181818" points="570.96,2299.4894,562.3094,2294.7812,565.9761,2299.0888,561.6685,2302.7555,570.96,2299.4894" style="stroke:#181818;stroke-width:1.0;"/></g><!--link Technician to LogInToTheSystemUsingMyCredentials--><g id="link_Technician_LogInToTheSystemUsingMyCredentials"><path d="M118.55,2341.2794 C201.77,2336.7494 415.5589,2325.0958 562.2189,2317.1058 " fill="none" id="Technician-to-LogInToTheSystemUsingMyCredentials" style="stroke:#181818;stroke-width:1.0;"/><polygon fill="#181818" points="568.21,2316.7794,559.0057,2313.2749,563.2174,2317.0514,559.4409,2321.263,568.21,2316.7794" style="stroke:#181818;stroke-width:1.0;"/></g><!--link Patient to Login--><g id="link_Patient_Login"><path d="M106.27,571.9694 C131.65,594.3394 176.41,629.6894 222,646.1094 C344.4,690.1994 488.7806,697.3543 589.7706,695.9243 " fill="none" id="Patient-to-Login" style="stroke:#181818;stroke-width:1.0;"/><polygon fill="#181818" points="595.77,695.8394,586.7143,691.9672,590.7705,695.9102,586.8275,699.9664,595.77,695.8394" style="stroke:#181818;stroke-width:1.0;"/></g><!--link Admin to PatientProfileCreation--><g id="link_Admin_PatientProfileCreation"><path d="M88.4,3322.0094 C99.53,3203.7494 139.05,2853.5794 222,2782.1094 C338.34,2681.8594 527.7368,2701.7014 632.1668,2722.6114 " fill="none" id="Admin-to-PatientProfileCreation" style="stroke:#181818;stroke-width:1.0;"/><polygon fill="#181818" points="638.05,2723.7894,630.0105,2718.1002,633.1473,2722.8077,628.4398,2725.9445,638.05,2723.7894" style="stroke:#181818;stroke-width:1.0;"/></g><!--link Admin to PatientProfileEdit--><g id="link_Admin_PatientProfileEdit"><path d="M90.14,3321.7694 C104.88,3215.4294 150.86,2926.3294 222,2867.1094 C337.79,2770.7294 521.2378,2786.2502 626.4678,2805.4902 " fill="none" id="Admin-to-PatientProfileEdit" style="stroke:#181818;stroke-width:1.0;"/><polygon fill="#181818" points="632.37,2806.5694,624.2362,2801.0159,627.4515,2805.6701,622.7973,2808.8854,632.37,2806.5694" style="stroke:#181818;stroke-width:1.0;"/></g><!--link Admin to PatientProfileDeletion--><g id="link_Admin_PatientProfileDeletion"><path d="M84.63,3321.9194 C86.19,3237.3394 102.97,3037.7594 222,2944.1094 C345.32,2847.0794 538.8456,2868.7475 639.9756,2888.8875 " fill="none" id="Admin-to-PatientProfileDeletion" style="stroke:#181818;stroke-width:1.0;"/><polygon fill="#181818" points="645.86,2890.0594,637.8146,2884.3786,640.9563,2889.0828,636.2521,2892.2245,645.86,2890.0594" style="stroke:#181818;stroke-width:1.0;"/></g><!--link Admin to PatientProfileSearch--><g id="link_Admin_PatientProfileSearch"><path d="M89.81,3322.0294 C100.38,3254.4894 132.31,3116.8594 222,3051.1094 C321.4,2978.2494 458.2734,2970.158 563.5734,2977.218 " fill="none" id="Admin-to-PatientProfileSearch" style="stroke:#181818;stroke-width:1.0;"/><polygon fill="#181818" points="569.56,2977.6194,560.8477,2973.0263,564.5712,2977.2849,560.3126,2981.0083,569.56,2977.6194" style="stroke:#181818;stroke-width:1.0;"/></g><!--link Admin to StaffProfileCreation--><g id="link_Admin_StaffProfileCreation"><path d="M95.81,3322.0994 C112.88,3268.5994 151.63,3174.1094 222,3130.1094 C348.6,3050.9594 525.3696,3060.8958 627.1996,3075.3558 " fill="none" id="Admin-to-StaffProfileCreation" style="stroke:#181818;stroke-width:1.0;"/><polygon fill="#181818" points="633.14,3076.1994,624.7918,3070.9738,628.1897,3075.4964,623.667,3078.8943,633.14,3076.1994" style="stroke:#181818;stroke-width:1.0;"/></g><!--link Admin to StaffProfileEdit--><g id="link_Admin_StaffProfileEdit"><path d="M103.52,3326.9794 C126.04,3289.2994 167.84,3230.3594 222,3203.1094 C357.77,3134.7994 536.2117,3143.3031 634.5817,3154.9631 " fill="none" id="Admin-to-StaffProfileEdit" style="stroke:#181818;stroke-width:1.0;"/><polygon fill="#181818" points="640.54,3155.6694,632.0734,3150.6378,635.5748,3155.0808,631.1317,3158.5822,640.54,3155.6694" style="stroke:#181818;stroke-width:1.0;"/></g><!--link Admin to StaffProfileDeletion--><g id="link_Admin_StaffProfileDeletion"><path d="M103.66,3346.4894 C128.88,3327.6294 176.01,3295.5494 222,3281.1094 C354.11,3239.6294 509.7715,3235.0659 609.5715,3237.2859 " fill="none" id="Admin-to-StaffProfileDeletion" style="stroke:#181818;stroke-width:1.0;"/><polygon fill="#181818" points="615.57,3237.4194,606.6612,3233.2202,610.5712,3237.3082,606.4833,3241.2182,615.57,3237.4194" style="stroke:#181818;stroke-width:1.0;"/></g><!--link Admin to StaffProfileSearch--><g id="link_Admin_StaffProfileSearch"><path d="M103.68,3359.8794 C179.72,3354.8894 463.1029,3336.2625 612.5229,3326.4525 " fill="none" id="Admin-to-StaffProfileSearch" style="stroke:#181818;stroke-width:1.0;"/><polygon fill="#181818" points="618.51,3326.0594,609.2673,3322.6576,613.5207,3326.3869,609.7914,3330.6404,618.51,3326.0594" style="stroke:#181818;stroke-width:1.0;"/></g><!--link Doctor to OperationRequest--><g id="link_Doctor_OperationRequest"><path d="M105.02,2499.3694 C131.35,2509.8394 179.29,2527.5594 222,2536.1094 C359.21,2563.5794 515.8514,2571.3012 614.1514,2573.4012 " fill="none" id="Doctor-to-OperationRequest" style="stroke:#181818;stroke-width:1.0;"/><polygon fill="#181818" points="620.15,2573.5294,611.2375,2569.3381,615.1511,2573.4226,611.0666,2577.3362,620.15,2573.5294" style="stroke:#181818;stroke-width:1.0;"/></g><!--link Doctor to OperationRequestUpdate--><g id="link_Doctor_OperationRequestUpdate"><path d="M105.08,2516.6994 C129.34,2545.4994 173.04,2591.0194 222,2612.1094 C343.82,2664.5894 492.3651,2669.6476 594.2951,2665.4276 " fill="none" id="Doctor-to-OperationRequestUpdate" style="stroke:#181818;stroke-width:1.0;"/><polygon fill="#181818" points="600.29,2665.1794,591.1322,2661.5551,595.2943,2665.3862,591.4632,2669.5482,600.29,2665.1794" style="stroke:#181818;stroke-width:1.0;"/></g><!--link Doctor to OperationRequestDeletion--><g id="link_Doctor_OperationRequestDeletion"><path d="M105.06,2483.1394 C131.43,2473.0094 179.41,2455.8094 222,2447.1094 C346.37,2421.7094 485.5771,2410.9203 584.8571,2406.1003 " fill="none" id="Doctor-to-OperationRequestDeletion" style="stroke:#181818;stroke-width:1.0;"/><polygon fill="#181818" points="590.85,2405.8094,581.6666,2402.2505,585.8559,2406.0518,582.0546,2410.2411,590.85,2405.8094" style="stroke:#181818;stroke-width:1.0;"/></g><!--link Doctor to OperationRequestSearch--><g id="link_Doctor_OperationRequestSearch"><path d="M105.05,2491.1094 C178.07,2491.1094 427.48,2491.1094 581.8,2491.1094 " fill="none" id="Doctor-to-OperationRequestSearch" style="stroke:#181818;stroke-width:1.0;"/><polygon fill="#181818" points="587.8,2491.1094,578.8,2487.1094,582.8,2491.1094,578.8,2495.1094,587.8,2491.1094" style="stroke:#181818;stroke-width:1.0;"/></g><!--link Admin to OperationTypeAddition--><g id="link_Admin_OperationTypeAddition"><path d="M103.68,3362.3094 C177.64,3367.0494 447.4423,3384.3458 599.9623,3394.1158 " fill="none" id="Admin-to-OperationTypeAddition" style="stroke:#181818;stroke-width:1.0;"/><polygon fill="#181818" points="605.95,3394.4994,597.2241,3389.9322,600.9602,3394.1797,596.7127,3397.9159,605.95,3394.4994" style="stroke:#181818;stroke-width:1.0;"/></g><!--link Admin to OperationTypeEdit--><g id="link_Admin_OperationTypeEdit"><path d="M103.6,3376.0794 C128.76,3395.3794 175.83,3428.2294 222,3443.1094 C349,3484.0194 497.7305,3490.2206 598.2005,3488.8606 " fill="none" id="Admin-to-OperationTypeEdit" style="stroke:#181818;stroke-width:1.0;"/><polygon fill="#181818" points="604.2,3488.7794,595.1467,3484.9016,599.2005,3488.8471,595.255,3492.9008,604.2,3488.7794" style="stroke:#181818;stroke-width:1.0;"/></g><!--link Admin to OperationTypeDeletion--><g id="link_Admin_OperationTypeDeletion"><path d="M103.57,3396.6294 C125.99,3435.5594 167.57,3496.4294 222,3526.1094 C312.1,3575.2394 419.2833,3590.9915 513.8533,3594.1115 " fill="none" id="Admin-to-OperationTypeDeletion" style="stroke:#181818;stroke-width:1.0;"/><polygon fill="#181818" points="519.85,3594.3094,510.9868,3590.0148,514.8527,3594.1445,510.723,3598.0104,519.85,3594.3094" style="stroke:#181818;stroke-width:1.0;"/></g><!--link Admin to OperationTypeSearch--><g id="link_Admin_OperationTypeSearch"><path d="M91.36,3400.1194 C103.91,3463.2694 138.32,3586.6194 222,3644.1094 C344.56,3728.3094 521.6096,3717.3503 624.8596,3701.4903 " fill="none" id="Admin-to-OperationTypeSearch" style="stroke:#181818;stroke-width:1.0;"/><polygon fill="#181818" points="630.79,3700.5794,621.287,3697.9922,625.848,3701.3385,622.5016,3705.8994,630.79,3700.5794" style="stroke:#181818;stroke-width:1.0;"/></g><!--link Admin to Scheduling--><g id="link_Admin_Scheduling"><path d="M87.05,3400.3594 C93.33,3476.6594 118.8,3644.6494 222,3726.1094 C307.7,3793.7494 423.6008,3809.0598 524.0008,3807.3798 " fill="none" id="Admin-to-Scheduling" style="stroke:#181818;stroke-width:1.0;"/><polygon fill="#181818" points="530,3807.2794,520.9343,3803.4305,525.0007,3807.363,521.0682,3811.4294,530,3807.2794" style="stroke:#181818;stroke-width:1.0;"/></g><!--link Admin to SchedulingLimitation--><g id="link_Admin_SchedulingLimitation"><path d="M90.4,3400.1494 C105.71,3504.9494 152.85,3788.5994 222,3848.1094 C306.53,3920.8494 425.9133,3935.358 528.2833,3931.968 " fill="none" id="Admin-to-SchedulingLimitation" style="stroke:#181818;stroke-width:1.0;"/><polygon fill="#181818" points="534.28,3931.7694,525.1525,3928.0694,529.2827,3931.9349,525.4173,3936.0651,534.28,3931.7694" style="stroke:#181818;stroke-width:1.0;"/></g><!--link Admin to SchedulingFast--><g id="link_Admin_SchedulingFast"><path d="M88.05,3400.3294 C98.4,3522.5094 136.38,3892.7094 222,3970.1094 C309.97,4049.6394 440.343,4060.5044 546.423,4053.5044 " fill="none" id="Admin-to-SchedulingFast" style="stroke:#181818;stroke-width:1.0;"/><polygon fill="#181818" points="552.41,4053.1094,543.1662,4049.7107,547.4209,4053.4386,543.6929,4057.6933,552.41,4053.1094" style="stroke:#181818;stroke-width:1.0;"/></g><!--link SysAdmin to RFPModuleDeployment--><g id="link_SysAdmin_RFPModuleDeployment"><path d="M88.11,1722.9094 C96.15,1650.0794 124.44,1494.4694 222,1419.1094 C308.82,1352.0494 425.4908,1336.9127 526.0008,1338.5327 " fill="none" id="SysAdmin-to-RFPModuleDeployment" style="stroke:#181818;stroke-width:1.0;"/><polygon fill="#181818" points="532,1338.6294,523.0656,1334.4849,527.0006,1338.5488,522.9367,1342.4838,532,1338.6294" style="stroke:#181818;stroke-width:1.0;"/></g><!--link SysAdmin to RFPModuleAccess--><g id="link_SysAdmin_RFPModuleAccess"><path d="M97.29,1722.8094 C115.56,1671.4694 155.14,1583.0894 222,1540.1094 C308.37,1484.5894 415.3416,1467.9677 510.7216,1465.7677 " fill="none" id="SysAdmin-to-RFPModuleAccess" style="stroke:#181818;stroke-width:1.0;"/><polygon fill="#181818" points="516.72,1465.6294,507.6302,1461.838,511.7213,1465.7447,507.8146,1469.8358,516.72,1465.6294" style="stroke:#181818;stroke-width:1.0;"/></g><!--link SysAdmin to RFPModuleConfiguration--><g id="link_SysAdmin_RFPModuleConfiguration"><path d="M122.56,1723.0094 C148.18,1698.9094 184.22,1669.7294 222,1654.1094 C317.19,1614.7494 425.1977,1600.1736 518.9677,1595.4136 " fill="none" id="SysAdmin-to-RFPModuleConfiguration" style="stroke:#181818;stroke-width:1.0;"/><polygon fill="#181818" points="524.96,1595.1094,515.7688,1591.5708,519.9664,1595.3629,516.1744,1599.5605,524.96,1595.1094" style="stroke:#181818;stroke-width:1.0;"/></g><!--link SysAdmin to RiskAssessment--><g id="link_SysAdmin_RiskAssessment"><path d="M150.6,1756.1194 C248.54,1747.1694 429.4449,1730.6453 559.9149,1718.7253 " fill="none" id="SysAdmin-to-RiskAssessment" style="stroke:#181818;stroke-width:1.0;"/><polygon fill="#181818" points="565.89,1718.1794,556.5634,1715.0148,560.9107,1718.6343,557.2913,1722.9816,565.89,1718.1794" style="stroke:#181818;stroke-width:1.0;"/></g><!--link SysAdmin to MBCODefinition--><g id="link_SysAdmin_MBCODefinition"><path d="M150.6,1768.0994 C235.79,1775.8794 382.2949,1789.2635 506.4149,1800.6035 " fill="none" id="SysAdmin-to-MBCODefinition" style="stroke:#181818;stroke-width:1.0;"/><polygon fill="#181818" points="512.39,1801.1494,503.7913,1796.3471,507.4107,1800.6945,503.0634,1804.3139,512.39,1801.1494" style="stroke:#181818;stroke-width:1.0;"/></g><!--link SysAdmin to BackupStrategy--><g id="link_SysAdmin_BackupStrategy"><path d="M118.02,1801.1894 C143.48,1828.5494 181.17,1863.4294 222,1882.1094 C298.95,1917.3094 383.366,1934.7929 465.226,1943.8029 " fill="none" id="SysAdmin-to-BackupStrategy" style="stroke:#181818;stroke-width:1.0;"/><polygon fill="#181818" points="471.19,1944.4594,462.6816,1939.4987,466.22,1943.9123,461.8064,1947.4507,471.19,1944.4594" style="stroke:#181818;stroke-width:1.0;"/></g><!--link SysAdmin to PublicFolder--><g id="link_SysAdmin_PublicFolder"><path d="M93.92,1801.3294 C109.31,1859.1794 146.7,1966.1494 222,2018.1094 C303.57,2074.3994 405.4832,2092.3638 498.9932,2095.4138 " fill="none" id="SysAdmin-to-PublicFolder" style="stroke:#181818;stroke-width:1.0;"/><polygon fill="#181818" points="504.99,2095.6094,496.1252,2091.3181,499.9927,2095.4464,495.8644,2099.3139,504.99,2095.6094" style="stroke:#181818;stroke-width:1.0;"/></g><!--link SysAdmin to AccessControl--><g id="link_SysAdmin_AccessControl"><path d="M86.27,1801.3494 C91.11,1880.3194 114.11,2058.1994 222,2144.1094 C312.75,2216.3794 438.8564,2228.4267 542.5864,2223.6267 " fill="none" id="SysAdmin-to-AccessControl" style="stroke:#181818;stroke-width:1.0;"/><polygon fill="#181818" points="548.58,2223.3494,539.4047,2219.7697,543.5853,2223.5805,539.7745,2227.7611,548.58,2223.3494" style="stroke:#181818;stroke-width:1.0;"/></g><!--link HealthcareStaffMember to HospitalFloor3D--><g id="link_HealthcareStaffMember_HospitalFloor3D"><path d="M154.66,998.9794 C175.72,988.6894 199.3,978.6594 222,972.1094 C324.81,942.4694 438.1335,929.081 532.9335,922.721 " fill="none" id="HealthcareStaffMember-to-HospitalFloor3D" style="stroke:#181818;stroke-width:1.0;"/><polygon fill="#181818" points="538.92,922.3194,529.6724,918.9308,533.9312,922.6541,530.2079,926.9128,538.92,922.3194" style="stroke:#181818;stroke-width:1.0;"/></g><!--link HealthcareStaffMember to HospitalFloor3DTextures--><g id="link_HealthcareStaffMember_HospitalFloor3DTextures"><path d="M162.14,1038.1094 C240.56,1038.1094 359.97,1038.1094 470.92,1038.1094 " fill="none" id="HealthcareStaffMember-to-HospitalFloor3DTextures" style="stroke:#181818;stroke-width:1.0;"/><polygon fill="#181818" points="476.92,1038.1094,467.92,1034.1094,471.92,1038.1094,467.92,1042.1094,476.92,1038.1094" style="stroke:#181818;stroke-width:1.0;"/></g><!--link HealthcareStaffMember to HospitalFloor3DLighting--><g id="link_HealthcareStaffMember_HospitalFloor3DLighting"><path d="M153.16,1077.2694 C174.57,1087.9594 198.71,1098.4194 222,1105.1094 C329.45,1135.9594 449.0179,1148.2608 545.7279,1153.2408 " fill="none" id="HealthcareStaffMember-to-HospitalFloor3DLighting" style="stroke:#181818;stroke-width:1.0;"/><polygon fill="#181818" points="551.72,1153.5494,542.9376,1149.0918,546.7266,1153.2922,542.5262,1157.0812,551.72,1153.5494" style="stroke:#181818;stroke-width:1.0;"/></g><!--link HealthcareStaffMember to HospitalFloor3DControl--><g id="link_HealthcareStaffMember_HospitalFloor3DControl"><path d="M104.34,1077.1794 C126.65,1117.5994 167.39,1178.8194 222,1208.1094 C339.29,1271.0194 489.545,1274.1832 593.065,1266.8532 " fill="none" id="HealthcareStaffMember-to-HospitalFloor3DControl" style="stroke:#181818;stroke-width:1.0;"/><polygon fill="#181818" points="599.05,1266.4294,589.79,1263.075,594.0625,1266.7825,590.355,1271.0551,599.05,1266.4294" style="stroke:#181818;stroke-width:1.0;"/></g><!--link Organization to DataProtection--><g id="link_Organization_DataProtection"><path d="M124.03,257.1094 C148.25,257.1094 176.25,257.1094 215.82,257.1094 " fill="none" id="Organization-to-DataProtection" style="stroke:#181818;stroke-width:1.0;"/><polygon fill="#181818" points="221.82,257.1094,212.82,253.1094,216.82,257.1094,212.82,261.1094,221.82,257.1094" style="stroke:#181818;stroke-width:1.0;"/></g><!--link System to DataBreachNotification--><g id="link_System_DataBreachNotification"><path d="M107.21,83.1094 C174.08,83.1094 372.27,83.1094 524.37,83.1094 " fill="none" id="System-to-DataBreachNotification" style="stroke:#181818;stroke-width:1.0;"/><polygon fill="#181818" points="530.37,83.1094,521.37,79.1094,525.37,83.1094,521.37,87.1094,530.37,83.1094" style="stroke:#181818;stroke-width:1.0;"/></g><!--SRC=[bLbDRniv4hthLn2vs04y6M02x741VumdniQ98Tip5r-eRahDCPli8TdIQ1Rxt_TLiTNgbjYAdKCYYSNYOts-Oix2gxQDzB8MjREkgBohbOY-LRFzIYEBLxbIZt5hbF2gYDAkZ9gTxIL29KktqNObbj84DHjixkN_EnFuS-LygVorCywBhJB6RMR_cysYZb3z79IublZhHiiLziwCMaOHdV1wLKLHQjAbdPsn9bb4wFY0JVw3a85s- -72PLbhoolyQRXqu-XVNaiVXulVMXyKh_6duTAJAYgh2osJtltNeT3ZDaHLfqDrY5xkZiB24P8lIffO5T8hyHZbSYdkLRteBhHVuwMqCjpy8ADMDh9mztcu_DslfDN_I38Pomn_4CUGTo3naHVvhpQeWbpouOjSAo6jq3OgE2UgKZpVYIMsIsCGF6LhL11kAMAbHDWhlElbd-_66fyWA9l6w28XgfLjoTko_BCD4TWAn0h557whjy8xazno3xbBbgbtDnxfr1QewgGpL6uZy2-1-dmZrZgqqknCa42_M24NhequmDL2hgKsSg6DZbkX0vJXChOG6nshTBMYKhHDlDXOoIWsGBHILYMJBBOir1XfBK5FHp3iETHV3hG_Gkrfy0bMjG-HG75m8Ln3fv54t3OgND0DR3dusQk_MXLYo5xWnGxFW0ML1t2TRBH0ghlbKXTg2Fsg__Mje1dfMHYRSmnoPqYWpy4a4xxDi9mTfoqxLokael8ShwHdODH122O_iMm2ETRot9J0Gh68dxnel5lg3WCLduVqFKcDTzueez9EYkhMHhO59OuCmQ62q1MnJQPwbMHuqn68hsx5pdA3HCCgssGh2lWIBjMemgmAqdVsoS59AR6VIV1-UxqNEwLz67hxZ8QCFW05VMGPAQpQe5rmAHhPfojFdObO_EXclvQQx2BKtx0_tUV7YcXBrjBo3Pidx8l3VmvA-g8wr14e2akzN29Zo8KnUhreemePvO-iuOILE4D6w3YEts2XFhccDkUiWaglr-dqqoV_s2gZ_U58GUxcyrIGoBjz0KWjQVUjayWct70NrpOTzAI6NFhDLUtMxzJpOpjaTOMiicIJmvPwMPOS2bp5gNNs6W-qF440mdeY8lg4EMWCnqgE8wCpZLi4nuc3-cYTCCwkgC8fJuLTbJ_M_1vpJQZ81SxtHPIxrgGYLV2kRV1rbnJDAevDXmPt7beF_5g5ZrJDf2YKPpq3br6pvxNGg4AZjw7-RbCmzoUCiVp7Waj4ZQAzeSPVQj2FGBe8eF8rkz2snDBeKuyXDRZ6XQ0Nu0t4SC9htubsrtAc9M2V3Y1yrRMEcLBG6KQAbNDbtqiluBo8c2fK2D9hinqSSS6TdpGiMuDxr0nbWRGeNOF-StZohGmPSbMgnhWj4I-skbKxoZU_VUXP81yanSslT-Bt- -wKr41ma-92hC71aANaGuX68cYolmDwlGmmMCy48bKEQlofFTy-tFCnDpsIWofhg0o77Ui3YBF0hDLRQM2Rk77-LPnlDD4UE66jfVZzuTj78dJ97Zil5MJ6r6OxxumHNB90_dH3VAEdLLmWl6Ap_UlJvq-_YC5HktDBjTGsKPsWwmREAofCJcGb2IFy7KLVi7i8ryukzQhDiPKxxl3BHBl-QcNwmcXqU2MJh9rPg_B5xb4MhWR64Y36yJZ7ZiiGSDjZUzymR5PmVtNzNPpVO-wfsrfS4IiX2m8aVDqI1Vo- -9DckBNgp8qkWiHWSwEjlAhA6Oo7gJYGDbQUgNkNp5JRHZ1JKwjjPz1ENtaXQ3v0MkCgT7-o9vkVxyl4dSQpMl-3S9q_0FKSbryhlnKF3i4o1aeQ_fW_YVC_A7HwoIVaqCTFFKDkcySEJDP0e2Jj0amJcKztx4Sduf81jayCbMBI3gWTaVjDXT_fDqI4f6uZIov12YYuj1XPO5yaiKH5-A1RFcUCvJTKotGWfrVjM36KVaOGODwY2RiBV1W634VLJGmxLefVoPUOnCPQ7nLT3_ELLurN0MPEHROh3PKB3OgO-Rb0NI436DUDn5-wbLlwvVDDHcj37lL4a3a5MgWNv-m_7IvGOx6RSeYCYOsfylGeKkhiZgTaJmW-YXgAsTGTqsL8R6ku18h9uy69BkCFO3vrG8xXJjvMe6sqY3Wc-Y-MZI_h1RDBEgj_sm1CGwyTkNE_qi9HM-eymcSNiaQ3svVEshNTMyQ1ggmRdrAXRbDCnAxuobfKDEDIdtb52qI5NlLL7zwXFBaGD6UZajSIzGO46L7KaUTmHZGYyCremadfsE-cc28t8OnBwYQZgPzaZDoaXnhi1SECtHFG2FWtnxLjuN3j5DrqI2ffeG4duCOhsrWvZogKAXvlPGh1i1P8gwBgZxhYhwou6mxJgnCDUkAdd_vz_AxHhsJU9x9FEImy-Ih0JqKiafc-zulJmsytZwHJ3cVQuM9-TXrAv0RIFOGtpfZffUqzE_ZzxJqRzWzoxzarlEb-jjtVxyJiEYNKy-mfWGbJJiwG1mu_ZIKx2-QN9t1Cp7C35sO7jnFhWyWw8JM2Sq8kQvdfSMb29cERwPbcGYRle_44aLiuuFKvaPw0xnwEKofFyD-yq82YvWME2UHOxfZuZTOp76sqdk55e_KZfZ9QFQOSquKqHoNUB3tgw6_UDUh7RzurlCxeHPvaCrsk-_-4tUfnO_e_]--></g></svg>