<?xml version="1.0" encoding="us-ascii" standalone="no"?><svg xmlns="http://www.w3.org/2000/svg" xmlns:xlink="http://www.w3.org/1999/xlink" contentStyleType="text/css" height="342px" preserveAspectRatio="none" style="width:775px;height:342px;background:#FFFFFF;" version="1.1" viewBox="0 0 775 342" width="775px" zoomAndPan="magnify"><defs/><g><rect fill="#FFFFFF" height="158.7578" style="stroke:#181818;stroke-width:1.0;" width="10" x="50" y="92.6094"/><rect fill="#FFFFFF" height="127.4063" style="stroke:#181818;stroke-width:1.0;" width="10" x="274" y="114.9609"/><rect fill="#FFFFFF" height="66.7031" style="stroke:#181818;stroke-width:1.0;" width="10" x="572" y="145.3125"/><line style="stroke:#181818;stroke-width:0.5;stroke-dasharray:5.0,5.0;" x1="55" x2="55" y1="82.6094" y2="260.3672"/><line style="stroke:#181818;stroke-width:0.5;stroke-dasharray:5.0,5.0;" x1="279" x2="279" y1="82.6094" y2="260.3672"/><line style="stroke:#181818;stroke-width:0.5;stroke-dasharray:5.0,5.0;" x1="577" x2="577" y1="82.6094" y2="260.3672"/><text fill="#000000" font-family="sans-serif" font-size="14" lengthAdjust="spacing" textLength="94" x="5" y="79.5332">BackofficeUser</text><ellipse cx="55" cy="13.5" fill="#E2E2F0" rx="8" ry="8" style="stroke:#181818;stroke-width:0.5;"/><path d="M55,21.5 L55,48.5 M42,29.5 L68,29.5 M55,48.5 L42,63.5 M55,48.5 L68,63.5 " fill="none" style="stroke:#181818;stroke-width:0.5;"/><text fill="#000000" font-family="sans-serif" font-size="14" lengthAdjust="spacing" textLength="94" x="5" y="273.9004">BackofficeUser</text><ellipse cx="55" cy="285.4766" fill="#E2E2F0" rx="8" ry="8" style="stroke:#181818;stroke-width:0.5;"/><path d="M55,293.4766 L55,320.4766 M42,301.4766 L68,301.4766 M55,320.4766 L42,335.4766 M55,320.4766 L68,335.4766 " fill="none" style="stroke:#181818;stroke-width:0.5;"/><rect fill="#E2E2F0" height="49.2188" rx="2.5" ry="2.5" style="stroke:#181818;stroke-width:0.5;" width="112" x="223" y="32.3906"/><text fill="#000000" font-family="sans-serif" font-size="14" font-style="italic" lengthAdjust="spacing" textLength="78" x="240" y="53.9238">&#171;Controller&#187;</text><text fill="#000000" font-family="sans-serif" font-size="14" lengthAdjust="spacing" textLength="98" x="230" y="71.5332">UsersController</text><rect fill="#E2E2F0" height="49.2188" rx="2.5" ry="2.5" style="stroke:#181818;stroke-width:0.5;" width="112" x="223" y="259.3672"/><text fill="#000000" font-family="sans-serif" font-size="14" font-style="italic" lengthAdjust="spacing" textLength="78" x="240" y="280.9004">&#171;Controller&#187;</text><text fill="#000000" font-family="sans-serif" font-size="14" lengthAdjust="spacing" textLength="98" x="230" y="298.5098">UsersController</text><rect fill="#E2E2F0" height="49.2188" rx="2.5" ry="2.5" style="stroke:#181818;stroke-width:0.5;" width="90" x="532" y="32.3906"/><text fill="#000000" font-family="sans-serif" font-size="14" font-style="italic" lengthAdjust="spacing" textLength="62" x="546" y="53.9238">&#171;Service&#187;</text><text fill="#000000" font-family="sans-serif" font-size="14" lengthAdjust="spacing" textLength="76" x="539" y="71.5332">UserService</text><rect fill="#E2E2F0" height="49.2188" rx="2.5" ry="2.5" style="stroke:#181818;stroke-width:0.5;" width="90" x="532" y="259.3672"/><text fill="#000000" font-family="sans-serif" font-size="14" font-style="italic" lengthAdjust="spacing" textLength="62" x="546" y="280.9004">&#171;Service&#187;</text><text fill="#000000" font-family="sans-serif" font-size="14" lengthAdjust="spacing" textLength="76" x="539" y="298.5098">UserService</text><rect fill="#FFFFFF" height="158.7578" style="stroke:#181818;stroke-width:1.0;" width="10" x="50" y="92.6094"/><rect fill="#FFFFFF" height="127.4063" style="stroke:#181818;stroke-width:1.0;" width="10" x="274" y="114.9609"/><rect fill="#FFFFFF" height="66.7031" style="stroke:#181818;stroke-width:1.0;" width="10" x="572" y="145.3125"/><polygon fill="#181818" points="262,110.9609,272,114.9609,262,118.9609,266,114.9609" style="stroke:#181818;stroke-width:1.0;"/><line style="stroke:#181818;stroke-width:1.0;" x1="60" x2="268" y1="114.9609" y2="114.9609"/><text fill="#000000" font-family="sans-serif" font-size="13" font-weight="bold" lengthAdjust="spacing" textLength="7" x="67" y="110.1045">1</text><text fill="#000000" font-family="sans-serif" font-size="13" lengthAdjust="spacing" textLength="184" x="78" y="110.1045">POST /api/users/resetpassword</text><polygon fill="#181818" points="560,141.3125,570,145.3125,560,149.3125,564,145.3125" style="stroke:#181818;stroke-width:1.0;"/><line style="stroke:#181818;stroke-width:1.0;" x1="284" x2="566" y1="145.3125" y2="145.3125"/><text fill="#000000" font-family="sans-serif" font-size="13" font-weight="bold" lengthAdjust="spacing" textLength="7" x="291" y="140.4561">2</text><text fill="#000000" font-family="sans-serif" font-size="13" lengthAdjust="spacing" textLength="258" x="302" y="140.4561">ResetPassword(RequestResetPasswordDto)</text><path d="M587,158.3125 L587,184.3125 L768,184.3125 L768,168.3125 L758,158.3125 L587,158.3125 " fill="#FEFFDD" style="stroke:#181818;stroke-width:0.5;"/><path d="M758,158.3125 L758,168.3125 L768,168.3125 L758,158.3125 " fill="#FEFFDD" style="stroke:#181818;stroke-width:0.5;"/><text fill="#000000" font-family="sans-serif" font-size="13" lengthAdjust="spacing" textLength="160" x="593" y="176.8076">Reset Password with Auth0</text><polygon fill="#181818" points="295,208.0156,285,212.0156,295,216.0156,291,212.0156" style="stroke:#181818;stroke-width:1.0;"/><line style="stroke:#181818;stroke-width:1.0;stroke-dasharray:2.0,2.0;" x1="289" x2="576" y1="212.0156" y2="212.0156"/><text fill="#000000" font-family="sans-serif" font-size="13" font-weight="bold" lengthAdjust="spacing" textLength="7" x="301" y="207.1592">3</text><text fill="#000000" font-family="sans-serif" font-size="13" lengthAdjust="spacing" textLength="53" x="312" y="207.1592">message</text><polygon fill="#181818" points="71,238.3672,61,242.3672,71,246.3672,67,242.3672" style="stroke:#181818;stroke-width:1.0;"/><line style="stroke:#181818;stroke-width:1.0;stroke-dasharray:2.0,2.0;" x1="65" x2="278" y1="242.3672" y2="242.3672"/><text fill="#000000" font-family="sans-serif" font-size="13" font-weight="bold" lengthAdjust="spacing" textLength="7" x="77" y="237.5107">4</text><text fill="#000000" font-family="sans-serif" font-size="13" lengthAdjust="spacing" textLength="44" x="88" y="237.5107">200 OK</text><!--SRC=[PP3DRi8m3CVlUGgh9pX4hNQigahRk76W0lO0fhWq0fekSU3rbqHX0P63PV_jdp-2ZlNahWSoGc3Fsa3nXVrP3uFgwSUIAG0j1ASJCnfMlPfnOYY2PB_rn4PVBgaiXz0qEMZRTtH7vkOdH2pvdacU1y8owePCQNQqiirDwswpsqE9iofTMAKqP8bdjFQkpJ7ZcH3WNpHPasqQMMy3tYLyiQLVHvPVn1NhPSJ_UoTMH3MyINlLgDF8e8T7keRO1XvzuAvuX4_7OvN9L2jVJhoIjNYYM7Iajx51Zl_IIFbqK_rHLR1PYoSY9_y0]--></g></svg>