<?xml version="1.0" encoding="us-ascii" standalone="no"?><svg xmlns="http://www.w3.org/2000/svg" xmlns:xlink="http://www.w3.org/1999/xlink" contentStyleType="text/css" height="842px" preserveAspectRatio="none" style="width:649px;height:842px;background:#FFFFFF;" version="1.1" viewBox="0 0 649 842" width="649px" zoomAndPan="magnify"><defs/><g><!--cluster Backend Data Management--><g id="cluster_Backend Data Management"><rect fill="none" height="726" rx="2.5" ry="2.5" style="stroke:#181818;stroke-width:1.0;" width="408" x="98" y="110"/><rect fill="none" height="10" style="stroke:#181818;stroke-width:1.0;" width="15" x="486" y="115"/><rect fill="none" height="2" style="stroke:#181818;stroke-width:1.0;" width="4" x="484" y="117"/><rect fill="none" height="2" style="stroke:#181818;stroke-width:1.0;" width="4" x="484" y="121"/><text fill="#000000" font-family="sans-serif" font-size="14" font-style="italic" lengthAdjust="spacing" textLength="86" x="259" y="137.5332">&#171;component&#187;</text><text fill="#000000" font-family="sans-serif" font-size="14" font-weight="bold" lengthAdjust="spacing" textLength="191" x="206.5" y="155.1426">Backend Data Management</text></g><!--cluster Server--><g id="cluster_Server"><rect fill="none" height="224" rx="2.5" ry="2.5" style="stroke:#181818;stroke-width:1.0;" width="130" x="122" y="195"/><rect fill="none" height="10" style="stroke:#181818;stroke-width:1.0;" width="15" x="232" y="200"/><rect fill="none" height="2" style="stroke:#181818;stroke-width:1.0;" width="4" x="230" y="202"/><rect fill="none" height="2" style="stroke:#181818;stroke-width:1.0;" width="4" x="230" y="206"/><text fill="#000000" font-family="sans-serif" font-size="14" font-style="italic" lengthAdjust="spacing" textLength="86" x="144" y="222.5332">&#171;component&#187;</text><text fill="#000000" font-family="sans-serif" font-size="14" font-style="italic" lengthAdjust="spacing" textLength="100" x="137" y="240.1426">&#171;C4 Container&#187;</text><text fill="#000000" font-family="sans-serif" font-size="14" font-weight="bold" lengthAdjust="spacing" textLength="48" x="163" y="257.752">Server</text></g><!--cluster Database--><g id="cluster_Database"><rect fill="none" height="161" rx="2.5" ry="2.5" style="stroke:#181818;stroke-width:1.0;" width="110" x="172" y="659"/><rect fill="none" height="10" style="stroke:#181818;stroke-width:1.0;" width="15" x="262" y="664"/><rect fill="none" height="2" style="stroke:#181818;stroke-width:1.0;" width="4" x="260" y="666"/><rect fill="none" height="2" style="stroke:#181818;stroke-width:1.0;" width="4" x="260" y="670"/><text fill="#000000" font-family="sans-serif" font-size="14" font-style="italic" lengthAdjust="spacing" textLength="86" x="184" y="686.5332">&#171;component&#187;</text><text fill="#000000" font-family="sans-serif" font-size="14" font-style="italic" lengthAdjust="spacing" textLength="100" x="177" y="704.1426">&#171;C4 Container&#187;</text><text fill="#000000" font-family="sans-serif" font-size="14" font-weight="bold" lengthAdjust="spacing" textLength="65" x="194.5" y="721.752">Database</text></g><!--entity DBAPI--><g id="elem_DBAPI"><ellipse cx="190" cy="539" fill="#F1F1F1" rx="8" ry="8" style="stroke:#181818;stroke-width:0.5;"/><text fill="#000000" font-family="sans-serif" font-size="14" lengthAdjust="spacing" textLength="44" x="168" y="570.5332">DB API</text></g><text fill="#000000" font-family="sans-serif" font-size="14" lengthAdjust="spacing" textLength="4" x="295" y="88.9238">&#160;</text><rect fill="#F1F1F1" height="12" style="stroke:#181818;stroke-width:1.5;" width="12" x="291" y="104"/><text fill="#000000" font-family="sans-serif" font-size="14" lengthAdjust="spacing" textLength="4" x="96" y="559.5332">&#160;</text><rect fill="#F1F1F1" height="12" style="stroke:#181818;stroke-width:1.5;" width="12" x="92" y="533"/><text fill="#000000" font-family="sans-serif" font-size="14" lengthAdjust="spacing" textLength="4" x="504" y="559.5332">&#160;</text><rect fill="#F1F1F1" height="12" style="stroke:#181818;stroke-width:1.5;" width="12" x="500" y="533"/><text fill="#000000" font-family="sans-serif" font-size="14" lengthAdjust="spacing" textLength="4" x="212" y="173.9238">&#160;</text><rect fill="#F1F1F1" height="12" style="stroke:#181818;stroke-width:1.5;" width="12" x="208" y="189"/><text fill="#000000" font-family="sans-serif" font-size="14" lengthAdjust="spacing" textLength="4" x="185" y="439.5332">&#160;</text><rect fill="#F1F1F1" height="12" style="stroke:#181818;stroke-width:1.5;" width="12" x="181" y="413"/><text fill="#000000" font-family="sans-serif" font-size="14" lengthAdjust="spacing" textLength="4" x="138" y="439.5332">&#160;</text><rect fill="#F1F1F1" height="12" style="stroke:#181818;stroke-width:1.5;" width="12" x="134" y="413"/><text fill="#000000" font-family="sans-serif" font-size="14" lengthAdjust="spacing" textLength="4" x="232" y="439.5332">&#160;</text><rect fill="#F1F1F1" height="12" style="stroke:#181818;stroke-width:1.5;" width="12" x="228" y="413"/><text fill="#000000" font-family="sans-serif" font-size="14" lengthAdjust="spacing" textLength="4" x="190" y="637.9238">&#160;</text><rect fill="#F1F1F1" height="12" style="stroke:#181818;stroke-width:1.5;" width="12" x="186" y="653"/><!--entity API--><g id="elem_API"><ellipse cx="297" cy="14" fill="#F1F1F1" rx="8" ry="8" style="stroke:#181818;stroke-width:0.5;"/><text fill="#000000" font-family="sans-serif" font-size="14" lengthAdjust="spacing" textLength="21" x="286.5" y="45.5332">API</text></g><!--entity A0API--><g id="elem_A0API"><ellipse cx="37" cy="419" fill="#F1F1F1" rx="8" ry="8" style="stroke:#181818;stroke-width:0.5;"/><text fill="#000000" font-family="sans-serif" font-size="14" lengthAdjust="spacing" textLength="62" x="6" y="450.5332">Auth0 API</text></g><!--entity SMTP_Office_365--><g id="elem_SMTP_Office_365"><ellipse cx="589" cy="659" fill="#F1F1F1" rx="8" ry="8" style="stroke:#181818;stroke-width:0.5;"/><text fill="#000000" font-family="sans-serif" font-size="14" lengthAdjust="spacing" textLength="107" x="535.5" y="690.5332">SMTP Office 365</text></g><!--link API to PI--><g id="link_API_PI"><path d="M297,23.01 C297,41.84 297,88.45 297,103.92 " fill="none" id="API-PI" style="stroke:#181818;stroke-width:1.0;"/></g><!--link PI to SVPI--><g id="link_PI_SVPI"><path d="M290.8,114.28 C276.93,121.9 243.14,142.16 224,168 C219.28,174.37 216.5,183.25 215.12,188.81 " fill="none" id="PI-SVPI" style="stroke:#181818;stroke-width:1.0;"/></g><!--link SVPO to DBAPI--><g id="link_SVPO_DBAPI"><path d="M187.13,425.07 C187.6,443.51 188.9549,497.1133 189.5349,519.8433 " fill="none" id="SVPO-to-DBAPI" style="stroke:#181818;stroke-width:1.0;"/><path d="M198.166,526.5471 A9,9 0 0 0 181.257 526.9786" fill="none" style="stroke:#181818;stroke-width:1.5;"/></g><!--link DBAPI to DBPI--><g id="link_DBAPI_DBPI"><path d="M190.14,548.11 C190.52,570.81 191.6,634.54 191.91,652.96 " fill="none" id="DBAPI-DBPI" style="stroke:#181818;stroke-width:1.0;"/></g><!--link SVPO1 to SARMPO1--><g id="link_SVPO1_SARMPO1"><path d="M138.1,425.21 C133.11,438.91 119.24,477.1 108,509 C105.1,517.24 101.81,526.82 99.82,532.65 " fill="none" id="SVPO1-SARMPO1" style="stroke:#181818;stroke-width:1.0;"/></g><!--reverse link A0API to SARMPO1--><g id="link_A0API_SARMPO1"><path d="M45.7838,436.9924 C57.5238,459.6924 85.87,514.54 95.39,532.96 " fill="none" id="A0API-backto-SARMPO1" style="stroke:#181818;stroke-width:1.0;"/><path d="M35.092,434.7292 A9,9 0 0 0 50.1161 426.9591" fill="none" style="stroke:#181818;stroke-width:1.5;"/></g><!--link SARMPO2 to SMTP_Office_365--><g id="link_SARMPO2_SMTP_Office_365"><path d="M509.57,545.07 C522.54,563.51 561.5163,618.9311 577.5063,641.6611 " fill="none" id="SARMPO2-to-SMTP_Office_365" style="stroke:#181818;stroke-width:1.0;"/><path d="M588.406,642.4563 A9,9 0 0 0 574.5718 652.1884" fill="none" style="stroke:#181818;stroke-width:1.5;"/></g><!--link SVPO2 to SARMPO2--><g id="link_SVPO2_SARMPO2"><path d="M234.33,425.33 C235.03,431.87 237.21,442.85 244,449 C329.31,526.31 410.69,431.69 496,509 C502.79,515.15 504.97,526.13 505.67,532.67 " fill="none" id="SVPO2-SARMPO2" style="stroke:#181818;stroke-width:1.0;"/></g><!--SRC=[dP8zRy8m48Pt_ugJ9pf4WlHZGaY4B1sYH4tBYaou50l5ZiobIyL_h-sOb8QMeLcSUv-pxxspIRT06hQQI3UmamOhaben9XMXgKM5m9V5CmTn1Bl-a3lQJs60qn4kizS2yhgMDhX_UlH9JjlqsiPgZ5MwQRL2HS0JKHrGxI0L920JIhnZOm67-Np8MYm-6TXlSWSyJORQQU9gEz1gGr811wzVYBgZirekNx8Yd_sDOkRPXRSIpGUQaHKRhHvWfHK9gT2SlLtRADV1o6yLrqL-YyrkmTZ3qvLTDyAjEE9_3QT9C7pg4vWjOISCKUH6sl-ufe0v5pQQX2jm6o5wYqBe6_39OUHXXQYpM_eN4xJOdp9-7xx9xmFYBm00]--></g></svg>