<?xml version="1.0" encoding="us-ascii" standalone="no"?><svg xmlns="http://www.w3.org/2000/svg" xmlns:xlink="http://www.w3.org/1999/xlink" contentStyleType="text/css" height="198px" preserveAspectRatio="none" style="width:366px;height:198px;background:#FFFFFF;" version="1.1" viewBox="0 0 366 198" width="366px" zoomAndPan="magnify"><defs/><g><rect fill="#FFFFFF" height="73.7031" style="stroke:#181818;stroke-width:1.0;" width="10" x="133" y="69.9609"/><line style="stroke:#181818;stroke-width:0.5;stroke-dasharray:5.0,5.0;" x1="137.5" x2="137.5" y1="37.6094" y2="161.6641"/><rect fill="#E2E2F0" height="31.6094" rx="2.5" ry="2.5" style="stroke:#181818;stroke-width:0.5;" width="189" x="43.5" y="5"/><text fill="#000000" font-family="sans-serif" font-size="14" lengthAdjust="spacing" textLength="175" x="50.5" y="26.5332">Backend Data Management</text><rect fill="#E2E2F0" height="31.6094" rx="2.5" ry="2.5" style="stroke:#181818;stroke-width:0.5;" width="189" x="43.5" y="160.6641"/><text fill="#000000" font-family="sans-serif" font-size="14" lengthAdjust="spacing" textLength="175" x="50.5" y="182.1973">Backend Data Management</text><rect fill="#FFFFFF" height="73.7031" style="stroke:#181818;stroke-width:1.0;" width="10" x="133" y="69.9609"/><ellipse cx="4.5" cy="69.2109" fill="none" rx="4" ry="4" style="stroke:#181818;stroke-width:1.5;"/><polygon fill="#181818" points="121,65.9609,131,69.9609,121,73.9609,125,69.9609" style="stroke:#181818;stroke-width:1.0;"/><line style="stroke:#181818;stroke-width:1.0;" x1="9" x2="127" y1="69.9609" y2="69.9609"/><text fill="#000000" font-family="sans-serif" font-size="13" font-weight="bold" lengthAdjust="spacing" textLength="7" x="12" y="65.1045">1</text><text fill="#000000" font-family="sans-serif" font-size="13" lengthAdjust="spacing" textLength="95" x="23" y="65.1045">POST /api/staffs</text><line style="stroke:#181818;stroke-width:1.0;" x1="143" x2="185" y1="100.3125" y2="100.3125"/><line style="stroke:#181818;stroke-width:1.0;" x1="185" x2="185" y1="100.3125" y2="113.3125"/><line style="stroke:#181818;stroke-width:1.0;" x1="144" x2="185" y1="113.3125" y2="113.3125"/><polygon fill="#181818" points="154,109.3125,144,113.3125,154,117.3125,150,113.3125" style="stroke:#181818;stroke-width:1.0;"/><text fill="#000000" font-family="sans-serif" font-size="13" font-weight="bold" lengthAdjust="spacing" textLength="7" x="150" y="95.4561">2</text><text fill="#000000" font-family="sans-serif" font-size="13" lengthAdjust="spacing" textLength="198" x="161" y="95.4561">createStaffProfile(creatingStaffDto)</text><polygon fill="#181818" points="11,139.6641,1,143.6641,11,147.6641,7,143.6641" style="stroke:#181818;stroke-width:1.0;"/><line style="stroke:#181818;stroke-width:1.0;stroke-dasharray:2.0,2.0;" x1="5" x2="137" y1="143.6641" y2="143.6641"/><text fill="#000000" font-family="sans-serif" font-size="13" font-weight="bold" lengthAdjust="spacing" textLength="7" x="17" y="138.8076">3</text><text fill="#000000" font-family="sans-serif" font-size="13" lengthAdjust="spacing" textLength="70" x="28" y="138.8076">201 Created</text><!--SRC=[LOp12i8m44Jl-Ogb9psKgaSHXPfhiL1_O4os9MYJa6xzVjiWWdDQPjyRp1ByF3uuAHMHn1aNuOMA6kR9tfA6W1fu33oobu8mKQqRfIwXFAyN7QczTNUg45qr2Vf-KZ3YtX3E92rPkHzk4Y-_RaNR57htuaskd1zogILiitKgowzosEtfcZMhBF_DVm00]--></g></svg>