<?xml version="1.0" encoding="us-ascii" standalone="no"?><svg xmlns="http://www.w3.org/2000/svg" xmlns:xlink="http://www.w3.org/1999/xlink" contentStyleType="text/css" height="806px" preserveAspectRatio="none" style="width:1537px;height:806px;background:#FFFFFF;" version="1.1" viewBox="0 0 1537 806" width="1537px" zoomAndPan="magnify"><defs/><g><rect fill="#FFFFFF" height="595.0313" style="stroke:#181818;stroke-width:1.0;" width="10" x="40" y="96.2188"/><rect fill="#FFFFFF" height="572.6797" style="stroke:#181818;stroke-width:1.0;" width="10" x="226" y="118.5703"/><rect fill="#FFFFFF" height="519.9766" style="stroke:#181818;stroke-width:1.0;" width="10" x="536" y="148.9219"/><rect fill="#FFFFFF" height="30.3516" style="stroke:#181818;stroke-width:1.0;" width="10" x="1053" y="328.0313"/><rect fill="#FFFFFF" height="30.3516" style="stroke:#181818;stroke-width:1.0;" width="10" x="1229" y="593.1953"/><rect fill="#FFFFFF" height="30.3516" style="stroke:#181818;stroke-width:1.0;" width="10" x="1338.5" y="179.2734"/><rect fill="#FFFFFF" height="30.3516" style="stroke:#181818;stroke-width:1.0;" width="10" x="1338.5" y="479.7891"/><rect fill="#FFFFFF" height="30.3516" style="stroke:#181818;stroke-width:1.0;" width="10" x="1462" y="388.7344"/><rect fill="none" height="437.2734" style="stroke:#000000;stroke-width:1.5;" width="1520" x="10" y="224.625"/><line style="stroke:#181818;stroke-width:0.5;stroke-dasharray:5.0,5.0;" x1="45" x2="45" y1="86.2188" y2="709.25"/><line style="stroke:#181818;stroke-width:0.5;stroke-dasharray:5.0,5.0;" x1="231" x2="231" y1="86.2188" y2="709.25"/><line style="stroke:#181818;stroke-width:0.5;stroke-dasharray:5.0,5.0;" x1="541" x2="541" y1="86.2188" y2="709.25"/><line style="stroke:#181818;stroke-width:0.5;stroke-dasharray:5.0,5.0;" x1="1058" x2="1058" y1="86.2188" y2="709.25"/><line style="stroke:#181818;stroke-width:0.5;stroke-dasharray:5.0,5.0;" x1="1146" x2="1146" y1="86.2188" y2="709.25"/><line style="stroke:#181818;stroke-width:0.5;stroke-dasharray:5.0,5.0;" x1="1234" x2="1234" y1="86.2188" y2="709.25"/><line style="stroke:#181818;stroke-width:0.5;stroke-dasharray:5.0,5.0;" x1="1343" x2="1343" y1="86.2188" y2="709.25"/><line style="stroke:#181818;stroke-width:0.5;stroke-dasharray:5.0,5.0;" x1="1467" x2="1467" y1="86.2188" y2="709.25"/><text fill="#000000" font-family="sans-serif" font-size="14" lengthAdjust="spacing" textLength="44" x="20" y="83.1426">Patient</text><ellipse cx="45" cy="17.1094" fill="#E2E2F0" rx="8" ry="8" style="stroke:#181818;stroke-width:0.5;"/><path d="M45,25.1094 L45,52.1094 M32,33.1094 L58,33.1094 M45,52.1094 L32,67.1094 M45,52.1094 L58,67.1094 " fill="none" style="stroke:#181818;stroke-width:0.5;"/><text fill="#000000" font-family="sans-serif" font-size="14" lengthAdjust="spacing" textLength="44" x="20" y="722.7832">Patient</text><ellipse cx="45" cy="734.3594" fill="#E2E2F0" rx="8" ry="8" style="stroke:#181818;stroke-width:0.5;"/><path d="M45,742.3594 L45,769.3594 M32,750.3594 L58,750.3594 M45,769.3594 L32,784.3594 M45,769.3594 L58,784.3594 " fill="none" style="stroke:#181818;stroke-width:0.5;"/><rect fill="#E2E2F0" height="49.2188" rx="2.5" ry="2.5" style="stroke:#181818;stroke-width:0.5;" width="112" x="175" y="36"/><text fill="#000000" font-family="sans-serif" font-size="14" font-style="italic" lengthAdjust="spacing" textLength="78" x="192" y="57.5332">&#171;Controller&#187;</text><text fill="#000000" font-family="sans-serif" font-size="14" lengthAdjust="spacing" textLength="98" x="182" y="75.1426">UsersController</text><rect fill="#E2E2F0" height="49.2188" rx="2.5" ry="2.5" style="stroke:#181818;stroke-width:0.5;" width="112" x="175" y="708.25"/><text fill="#000000" font-family="sans-serif" font-size="14" font-style="italic" lengthAdjust="spacing" textLength="78" x="192" y="729.7832">&#171;Controller&#187;</text><text fill="#000000" font-family="sans-serif" font-size="14" lengthAdjust="spacing" textLength="98" x="182" y="747.3926">UsersController</text><rect fill="#E2E2F0" height="49.2188" rx="2.5" ry="2.5" style="stroke:#181818;stroke-width:0.5;" width="90" x="496" y="36"/><text fill="#000000" font-family="sans-serif" font-size="14" font-style="italic" lengthAdjust="spacing" textLength="62" x="510" y="57.5332">&#171;Service&#187;</text><text fill="#000000" font-family="sans-serif" font-size="14" lengthAdjust="spacing" textLength="76" x="503" y="75.1426">UserService</text><rect fill="#E2E2F0" height="49.2188" rx="2.5" ry="2.5" style="stroke:#181818;stroke-width:0.5;" width="90" x="496" y="708.25"/><text fill="#000000" font-family="sans-serif" font-size="14" font-style="italic" lengthAdjust="spacing" textLength="62" x="510" y="729.7832">&#171;Service&#187;</text><text fill="#000000" font-family="sans-serif" font-size="14" lengthAdjust="spacing" textLength="76" x="503" y="747.3926">UserService</text><rect fill="#E2E2F0" height="49.2188" rx="2.5" ry="2.5" style="stroke:#181818;stroke-width:0.5;" width="78" x="1019" y="36"/><text fill="#000000" font-family="sans-serif" font-size="14" font-style="italic" lengthAdjust="spacing" textLength="64" x="1026" y="57.5332">&#171;Domain&#187;</text><text fill="#000000" font-family="sans-serif" font-size="14" lengthAdjust="spacing" textLength="29" x="1043.5" y="75.1426">User</text><rect fill="#E2E2F0" height="49.2188" rx="2.5" ry="2.5" style="stroke:#181818;stroke-width:0.5;" width="78" x="1019" y="708.25"/><text fill="#000000" font-family="sans-serif" font-size="14" font-style="italic" lengthAdjust="spacing" textLength="64" x="1026" y="729.7832">&#171;Domain&#187;</text><text fill="#000000" font-family="sans-serif" font-size="14" lengthAdjust="spacing" textLength="29" x="1043.5" y="747.3926">User</text><rect fill="#E2E2F0" height="49.2188" rx="2.5" ry="2.5" style="stroke:#181818;stroke-width:0.5;" width="78" x="1107" y="36"/><text fill="#000000" font-family="sans-serif" font-size="14" font-style="italic" lengthAdjust="spacing" textLength="64" x="1114" y="57.5332">&#171;Domain&#187;</text><text fill="#000000" font-family="sans-serif" font-size="14" lengthAdjust="spacing" textLength="44" x="1124" y="75.1426">Patient</text><rect fill="#E2E2F0" height="49.2188" rx="2.5" ry="2.5" style="stroke:#181818;stroke-width:0.5;" width="78" x="1107" y="708.25"/><text fill="#000000" font-family="sans-serif" font-size="14" font-style="italic" lengthAdjust="spacing" textLength="64" x="1114" y="729.7832">&#171;Domain&#187;</text><text fill="#000000" font-family="sans-serif" font-size="14" lengthAdjust="spacing" textLength="44" x="1124" y="747.3926">Patient</text><rect fill="#E2E2F0" height="49.2188" rx="2.5" ry="2.5" style="stroke:#181818;stroke-width:0.5;" width="78" x="1195" y="36"/><text fill="#000000" font-family="sans-serif" font-size="14" font-style="italic" lengthAdjust="spacing" textLength="64" x="1202" y="57.5332">&#171;Domain&#187;</text><text fill="#000000" font-family="sans-serif" font-size="14" lengthAdjust="spacing" textLength="51" x="1208.5" y="75.1426">UserDto</text><rect fill="#E2E2F0" height="49.2188" rx="2.5" ry="2.5" style="stroke:#181818;stroke-width:0.5;" width="78" x="1195" y="708.25"/><text fill="#000000" font-family="sans-serif" font-size="14" font-style="italic" lengthAdjust="spacing" textLength="64" x="1202" y="729.7832">&#171;Domain&#187;</text><text fill="#000000" font-family="sans-serif" font-size="14" lengthAdjust="spacing" textLength="51" x="1208.5" y="747.3926">UserDto</text><text fill="#000000" font-family="sans-serif" font-size="14" font-style="italic" lengthAdjust="spacing" textLength="64" x="1308.5" y="65.5332">&#171;Domain&#187;</text><text fill="#000000" font-family="sans-serif" font-size="14" lengthAdjust="spacing" textLength="115" x="1283" y="83.1426">IPatientRepository</text><path d="M1325.5,15 C1325.5,5 1343.5,5 1343.5,5 C1343.5,5 1361.5,5 1361.5,15 L1361.5,41 C1361.5,51 1343.5,51 1343.5,51 C1343.5,51 1325.5,51 1325.5,41 L1325.5,15 " fill="#E2E2F0" style="stroke:#181818;stroke-width:1.5;"/><path d="M1325.5,15 C1325.5,25 1343.5,25 1343.5,25 C1343.5,25 1361.5,25 1361.5,15 " fill="none" style="stroke:#181818;stroke-width:1.5;"/><text fill="#000000" font-family="sans-serif" font-size="14" font-style="italic" lengthAdjust="spacing" textLength="64" x="1308.5" y="722.7832">&#171;Domain&#187;</text><text fill="#000000" font-family="sans-serif" font-size="14" lengthAdjust="spacing" textLength="115" x="1283" y="740.3926">IPatientRepository</text><path d="M1325.5,753.4688 C1325.5,743.4688 1343.5,743.4688 1343.5,743.4688 C1343.5,743.4688 1361.5,743.4688 1361.5,753.4688 L1361.5,779.4688 C1361.5,789.4688 1343.5,789.4688 1343.5,789.4688 C1343.5,789.4688 1325.5,789.4688 1325.5,779.4688 L1325.5,753.4688 " fill="#E2E2F0" style="stroke:#181818;stroke-width:1.5;"/><path d="M1325.5,753.4688 C1325.5,763.4688 1343.5,763.4688 1343.5,763.4688 C1343.5,763.4688 1361.5,763.4688 1361.5,753.4688 " fill="none" style="stroke:#181818;stroke-width:1.5;"/><text fill="#000000" font-family="sans-serif" font-size="14" font-style="italic" lengthAdjust="spacing" textLength="64" x="1432" y="65.5332">&#171;Domain&#187;</text><text fill="#000000" font-family="sans-serif" font-size="14" lengthAdjust="spacing" textLength="100" x="1414" y="83.1426">IUserRepository</text><path d="M1449,15 C1449,5 1467,5 1467,5 C1467,5 1485,5 1485,15 L1485,41 C1485,51 1467,51 1467,51 C1467,51 1449,51 1449,41 L1449,15 " fill="#E2E2F0" style="stroke:#181818;stroke-width:1.5;"/><path d="M1449,15 C1449,25 1467,25 1467,25 C1467,25 1485,25 1485,15 " fill="none" style="stroke:#181818;stroke-width:1.5;"/><text fill="#000000" font-family="sans-serif" font-size="14" font-style="italic" lengthAdjust="spacing" textLength="64" x="1432" y="722.7832">&#171;Domain&#187;</text><text fill="#000000" font-family="sans-serif" font-size="14" lengthAdjust="spacing" textLength="100" x="1414" y="740.3926">IUserRepository</text><path d="M1449,753.4688 C1449,743.4688 1467,743.4688 1467,743.4688 C1467,743.4688 1485,743.4688 1485,753.4688 L1485,779.4688 C1485,789.4688 1467,789.4688 1467,789.4688 C1467,789.4688 1449,789.4688 1449,779.4688 L1449,753.4688 " fill="#E2E2F0" style="stroke:#181818;stroke-width:1.5;"/><path d="M1449,753.4688 C1449,763.4688 1467,763.4688 1467,763.4688 C1467,763.4688 1485,763.4688 1485,753.4688 " fill="none" style="stroke:#181818;stroke-width:1.5;"/><rect fill="#FFFFFF" height="595.0313" style="stroke:#181818;stroke-width:1.0;" width="10" x="40" y="96.2188"/><rect fill="#FFFFFF" height="572.6797" style="stroke:#181818;stroke-width:1.0;" width="10" x="226" y="118.5703"/><rect fill="#FFFFFF" height="519.9766" style="stroke:#181818;stroke-width:1.0;" width="10" x="536" y="148.9219"/><rect fill="#FFFFFF" height="30.3516" style="stroke:#181818;stroke-width:1.0;" width="10" x="1053" y="328.0313"/><rect fill="#FFFFFF" height="30.3516" style="stroke:#181818;stroke-width:1.0;" width="10" x="1229" y="593.1953"/><rect fill="#FFFFFF" height="30.3516" style="stroke:#181818;stroke-width:1.0;" width="10" x="1338.5" y="179.2734"/><rect fill="#FFFFFF" height="30.3516" style="stroke:#181818;stroke-width:1.0;" width="10" x="1338.5" y="479.7891"/><rect fill="#FFFFFF" height="30.3516" style="stroke:#181818;stroke-width:1.0;" width="10" x="1462" y="388.7344"/><polygon fill="#181818" points="214,114.5703,224,118.5703,214,122.5703,218,118.5703" style="stroke:#181818;stroke-width:1.0;"/><line style="stroke:#181818;stroke-width:1.0;" x1="50" x2="220" y1="118.5703" y2="118.5703"/><text fill="#000000" font-family="sans-serif" font-size="13" font-weight="bold" lengthAdjust="spacing" textLength="7" x="57" y="113.7139">1</text><text fill="#000000" font-family="sans-serif" font-size="13" lengthAdjust="spacing" textLength="146" x="68" y="113.7139">POST /api/users/patients</text><polygon fill="#181818" points="524,144.9219,534,148.9219,524,152.9219,528,148.9219" style="stroke:#181818;stroke-width:1.0;"/><line style="stroke:#181818;stroke-width:1.0;" x1="236" x2="530" y1="148.9219" y2="148.9219"/><text fill="#000000" font-family="sans-serif" font-size="13" font-weight="bold" lengthAdjust="spacing" textLength="7" x="243" y="144.0654">2</text><text fill="#000000" font-family="sans-serif" font-size="13" lengthAdjust="spacing" textLength="270" x="254" y="144.0654">AddUserPatientAsync(creatingUserPatientDto)</text><polygon fill="#181818" points="1326.5,175.2734,1336.5,179.2734,1326.5,183.2734,1330.5,179.2734" style="stroke:#181818;stroke-width:1.0;"/><line style="stroke:#181818;stroke-width:1.0;" x1="546" x2="1332.5" y1="179.2734" y2="179.2734"/><text fill="#000000" font-family="sans-serif" font-size="13" font-weight="bold" lengthAdjust="spacing" textLength="7" x="553" y="174.417">3</text><text fill="#000000" font-family="sans-serif" font-size="13" lengthAdjust="spacing" textLength="286" x="564" y="174.417">GetByEmailAsync(creatingUserPatientDto.Email)</text><polygon fill="#181818" points="557,205.625,547,209.625,557,213.625,553,209.625" style="stroke:#181818;stroke-width:1.0;"/><line style="stroke:#181818;stroke-width:1.0;stroke-dasharray:2.0,2.0;" x1="551" x2="1342.5" y1="209.625" y2="209.625"/><text fill="#000000" font-family="sans-serif" font-size="13" font-weight="bold" lengthAdjust="spacing" textLength="7" x="563" y="204.7686">4</text><text fill="#000000" font-family="sans-serif" font-size="13" lengthAdjust="spacing" textLength="39" x="574" y="204.7686">patient</text><path d="M10,224.625 L71,224.625 L71,232.9766 L61,242.9766 L10,242.9766 L10,224.625 " fill="#EEEEEE" style="stroke:#000000;stroke-width:1.5;"/><rect fill="none" height="437.2734" style="stroke:#000000;stroke-width:1.5;" width="1520" x="10" y="224.625"/><text fill="#000000" font-family="sans-serif" font-size="13" font-weight="bold" lengthAdjust="spacing" textLength="16" x="25" y="239.1201">alt</text><text fill="#000000" font-family="sans-serif" font-size="11" font-weight="bold" lengthAdjust="spacing" textLength="84" x="86" y="238.0439">[patient == null]</text><polygon fill="#181818" points="247,261.3281,237,265.3281,247,269.3281,243,265.3281" style="stroke:#181818;stroke-width:1.0;"/><line style="stroke:#181818;stroke-width:1.0;stroke-dasharray:2.0,2.0;" x1="241" x2="535" y1="265.3281" y2="265.3281"/><text fill="#000000" font-family="sans-serif" font-size="13" font-weight="bold" lengthAdjust="spacing" textLength="7" x="253" y="260.4717">5</text><text fill="#000000" font-family="sans-serif" font-size="13" lengthAdjust="spacing" textLength="138" x="264" y="260.4717">NullReferenceException</text><polygon fill="#181818" points="61,291.6797,51,295.6797,61,299.6797,57,295.6797" style="stroke:#181818;stroke-width:1.0;"/><line style="stroke:#181818;stroke-width:1.0;stroke-dasharray:2.0,2.0;" x1="55" x2="225" y1="295.6797" y2="295.6797"/><text fill="#000000" font-family="sans-serif" font-size="13" font-weight="bold" lengthAdjust="spacing" textLength="7" x="67" y="290.8232">6</text><text fill="#000000" font-family="sans-serif" font-size="13" lengthAdjust="spacing" textLength="85" x="78" y="290.8232">404 Not Found</text><line style="stroke:#000000;stroke-width:1.0;stroke-dasharray:2.0,2.0;" x1="10" x2="1530" y1="304.6797" y2="304.6797"/><polygon fill="#181818" points="1041,324.0313,1051,328.0313,1041,332.0313,1045,328.0313" style="stroke:#181818;stroke-width:1.0;"/><line style="stroke:#181818;stroke-width:1.0;" x1="546" x2="1047" y1="328.0313" y2="328.0313"/><text fill="#000000" font-family="sans-serif" font-size="13" font-weight="bold" lengthAdjust="spacing" textLength="7" x="553" y="323.1748">7</text><text fill="#000000" font-family="sans-serif" font-size="13" lengthAdjust="spacing" textLength="477" x="564" y="323.1748">create(creatingUserPatientDto.Email,creatingUserPatientDto.Email,Role.PATIENT)</text><polygon fill="#181818" points="557,354.3828,547,358.3828,557,362.3828,553,358.3828" style="stroke:#181818;stroke-width:1.0;"/><line style="stroke:#181818;stroke-width:1.0;stroke-dasharray:2.0,2.0;" x1="551" x2="1057" y1="358.3828" y2="358.3828"/><text fill="#000000" font-family="sans-serif" font-size="13" font-weight="bold" lengthAdjust="spacing" textLength="7" x="563" y="353.5264">8</text><text fill="#000000" font-family="sans-serif" font-size="13" lengthAdjust="spacing" textLength="25" x="574" y="353.5264">user</text><polygon fill="#181818" points="1450,384.7344,1460,388.7344,1450,392.7344,1454,388.7344" style="stroke:#181818;stroke-width:1.0;"/><line style="stroke:#181818;stroke-width:1.0;" x1="546" x2="1456" y1="388.7344" y2="388.7344"/><text fill="#000000" font-family="sans-serif" font-size="13" font-weight="bold" lengthAdjust="spacing" textLength="7" x="553" y="383.8779">9</text><text fill="#000000" font-family="sans-serif" font-size="13" lengthAdjust="spacing" textLength="93" x="564" y="383.8779">AddAsync(user)</text><polygon fill="#181818" points="557,415.0859,547,419.0859,557,423.0859,553,419.0859" style="stroke:#181818;stroke-width:1.0;"/><line style="stroke:#181818;stroke-width:1.0;stroke-dasharray:2.0,2.0;" x1="551" x2="1466" y1="419.0859" y2="419.0859"/><text fill="#000000" font-family="sans-serif" font-size="13" font-weight="bold" lengthAdjust="spacing" textLength="14" x="563" y="414.2295">10</text><text fill="#000000" font-family="sans-serif" font-size="13" lengthAdjust="spacing" textLength="25" x="581" y="414.2295">user</text><polygon fill="#181818" points="1134,445.4375,1144,449.4375,1134,453.4375,1138,449.4375" style="stroke:#181818;stroke-width:1.0;"/><line style="stroke:#181818;stroke-width:1.0;" x1="546" x2="1140" y1="449.4375" y2="449.4375"/><text fill="#000000" font-family="sans-serif" font-size="13" font-weight="bold" lengthAdjust="spacing" textLength="14" x="553" y="444.5811">11</text><text fill="#000000" font-family="sans-serif" font-size="13" lengthAdjust="spacing" textLength="101" x="571" y="444.5811">UpdateUser(user)</text><polygon fill="#181818" points="1326.5,475.7891,1336.5,479.7891,1326.5,483.7891,1330.5,479.7891" style="stroke:#181818;stroke-width:1.0;"/><line style="stroke:#181818;stroke-width:1.0;" x1="546" x2="1332.5" y1="479.7891" y2="479.7891"/><text fill="#000000" font-family="sans-serif" font-size="13" font-weight="bold" lengthAdjust="spacing" textLength="14" x="553" y="474.9326">12</text><text fill="#000000" font-family="sans-serif" font-size="13" lengthAdjust="spacing" textLength="125" x="571" y="474.9326">UpdateAsync(patient)</text><polygon fill="#181818" points="557,506.1406,547,510.1406,557,514.1406,553,510.1406" style="stroke:#181818;stroke-width:1.0;"/><line style="stroke:#181818;stroke-width:1.0;stroke-dasharray:2.0,2.0;" x1="551" x2="1342.5" y1="510.1406" y2="510.1406"/><text fill="#000000" font-family="sans-serif" font-size="13" font-weight="bold" lengthAdjust="spacing" textLength="14" x="563" y="505.2842">13</text><text fill="#000000" font-family="sans-serif" font-size="13" lengthAdjust="spacing" textLength="39" x="581" y="505.2842">patient</text><path d="M551,523.1406 L551,565.1406 L831,565.1406 L831,533.1406 L821,523.1406 L551,523.1406 " fill="#FEFFDD" style="stroke:#181818;stroke-width:0.5;"/><path d="M821,523.1406 L821,533.1406 L831,533.1406 L821,523.1406 " fill="#FEFFDD" style="stroke:#181818;stroke-width:0.5;"/><text fill="#000000" font-family="sans-serif" font-size="13" lengthAdjust="spacing" textLength="145" x="557" y="541.6357">Add user in the auth0 api</text><text fill="#000000" font-family="sans-serif" font-size="13" lengthAdjust="spacing" textLength="259" x="557" y="557.9873">and send email by auth0 for verification email</text><polygon fill="#181818" points="1217,589.1953,1227,593.1953,1217,597.1953,1221,593.1953" style="stroke:#181818;stroke-width:1.0;"/><line style="stroke:#181818;stroke-width:1.0;" x1="546" x2="1223" y1="593.1953" y2="593.1953"/><text fill="#000000" font-family="sans-serif" font-size="13" font-weight="bold" lengthAdjust="spacing" textLength="14" x="553" y="588.3389">14</text><text fill="#000000" font-family="sans-serif" font-size="13" lengthAdjust="spacing" textLength="257" x="571" y="588.3389">create(user.Username,user.Email,user.Role)</text><polygon fill="#181818" points="557,619.5469,547,623.5469,557,627.5469,553,623.5469" style="stroke:#181818;stroke-width:1.0;"/><line style="stroke:#181818;stroke-width:1.0;stroke-dasharray:2.0,2.0;" x1="551" x2="1233" y1="623.5469" y2="623.5469"/><text fill="#000000" font-family="sans-serif" font-size="13" font-weight="bold" lengthAdjust="spacing" textLength="14" x="563" y="618.6904">15</text><text fill="#000000" font-family="sans-serif" font-size="13" lengthAdjust="spacing" textLength="45" x="581" y="618.6904">userDto</text><polygon fill="#181818" points="247,649.8984,237,653.8984,247,657.8984,243,653.8984" style="stroke:#181818;stroke-width:1.0;"/><line style="stroke:#181818;stroke-width:1.0;stroke-dasharray:2.0,2.0;" x1="241" x2="535" y1="653.8984" y2="653.8984"/><text fill="#000000" font-family="sans-serif" font-size="13" font-weight="bold" lengthAdjust="spacing" textLength="14" x="253" y="649.042">16</text><text fill="#000000" font-family="sans-serif" font-size="13" lengthAdjust="spacing" textLength="45" x="271" y="649.042">userDto</text><polygon fill="#181818" points="56,687.25,46,691.25,56,695.25,52,691.25" style="stroke:#181818;stroke-width:1.0;"/><line style="stroke:#181818;stroke-width:1.0;stroke-dasharray:2.0,2.0;" x1="50" x2="230" y1="691.25" y2="691.25"/><text fill="#000000" font-family="sans-serif" font-size="13" font-weight="bold" lengthAdjust="spacing" textLength="14" x="62" y="686.3936">17</text><text fill="#000000" font-family="sans-serif" font-size="13" lengthAdjust="spacing" textLength="70" x="80" y="686.3936">201 Created</text><!--SRC=[ZLLBR-8m4BxpAqQS5gayTjKJeaYqPLUzK4JfhHUJ3CLIi2F7GSk_xzXvsNc13v4Vytqp_cR6OQcM8ZqVK0q6BD1ImN3BD4UXXy0IoEShSpA8cT8yu34J6eQV2QhaHGgjP1IXijRL4XQBQh5SDg4Vg2uyG0lBvuJ9Psq0QsacPFOgpuoBkbLBt9ssXkXLovAKvgvjo3Gxi0HX-9OpxJ2M2ISLhYv_jTk1DjmrgB_buam2-8Lfz6KV00rtPxnqbPx3zlrZ3rCMysbgaZADCziaGvQa5IOxCCFX8TOY4NDOXQ69i_2QN4NmAr18I_7j791ieugiz9JpL2Tc5EJafwdU7FwXVhwkIOcepzl4Menyvhfi5Qzlv-Zek1vx5y-ryu4Xtkk2HRgWWASd46aKGJE8Kefw9ZTalyCZAXG1hly766ikHUSjR3N0OZpsMHvdZx2H6lxAL8G-62Cgovw0bbcBpS7AZxrPUEWztCa89zlL_cszsO-Q7aj13RXvR8QDnCzEschifAUThI0exkSL7fLwLd66_5QaVQLLnDnPMtT5t-UXsKB4-XdJUuC6sdM36vsN4MGQvBNR9yCTJTRTQ2sTLWVs2NI7RofyIhJYtoSDybZuiscs2G0kG9yGMAfFCw174xu44o4aI1yqfGk7QtvwfEwweE977Z3JYDdvpVOnFvEoWupFYTaLx8mFTfKrY9sQBhbLSqJNNMp6LxFAMY6rGckrwNoPMbdHVLuS-iRxt_zU_PdzXXUhLaxdKBa_hMOXv3_87m00]--></g></svg>