<?xml version="1.0" encoding="us-ascii" standalone="no"?><svg xmlns="http://www.w3.org/2000/svg" xmlns:xlink="http://www.w3.org/1999/xlink" contentStyleType="text/css" height="753px" preserveAspectRatio="none" style="width:1438px;height:753px;background:#FFFFFF;" version="1.1" viewBox="0 0 1438 753" width="1438px" zoomAndPan="magnify"><defs/><g><rect fill="#FFFFFF" height="542.3281" style="stroke:#181818;stroke-width:1.0;" width="10" x="40" y="96.2188"/><rect fill="#FFFFFF" height="519.9766" style="stroke:#181818;stroke-width:1.0;" width="10" x="226" y="118.5703"/><rect fill="#FFFFFF" height="467.2734" style="stroke:#181818;stroke-width:1.0;" width="10" x="493" y="148.9219"/><rect fill="#FFFFFF" height="30.3516" style="stroke:#181818;stroke-width:1.0;" width="10" x="954" y="328.0313"/><rect fill="#FFFFFF" height="30.3516" style="stroke:#181818;stroke-width:1.0;" width="10" x="1130" y="540.4922"/><rect fill="#FFFFFF" height="30.3516" style="stroke:#181818;stroke-width:1.0;" width="10" x="1239.5" y="179.2734"/><rect fill="#FFFFFF" height="30.3516" style="stroke:#181818;stroke-width:1.0;" width="10" x="1239.5" y="479.7891"/><rect fill="#FFFFFF" height="30.3516" style="stroke:#181818;stroke-width:1.0;" width="10" x="1363" y="388.7344"/><rect fill="none" height="384.5703" style="stroke:#000000;stroke-width:1.5;" width="1421" x="10" y="224.625"/><line style="stroke:#181818;stroke-width:0.5;stroke-dasharray:5.0,5.0;" x1="45" x2="45" y1="86.2188" y2="656.5469"/><line style="stroke:#181818;stroke-width:0.5;stroke-dasharray:5.0,5.0;" x1="231" x2="231" y1="86.2188" y2="656.5469"/><line style="stroke:#181818;stroke-width:0.5;stroke-dasharray:5.0,5.0;" x1="498" x2="498" y1="86.2188" y2="656.5469"/><line style="stroke:#181818;stroke-width:0.5;stroke-dasharray:5.0,5.0;" x1="959" x2="959" y1="86.2188" y2="656.5469"/><line style="stroke:#181818;stroke-width:0.5;stroke-dasharray:5.0,5.0;" x1="1047" x2="1047" y1="86.2188" y2="656.5469"/><line style="stroke:#181818;stroke-width:0.5;stroke-dasharray:5.0,5.0;" x1="1135" x2="1135" y1="86.2188" y2="656.5469"/><line style="stroke:#181818;stroke-width:0.5;stroke-dasharray:5.0,5.0;" x1="1244" x2="1244" y1="86.2188" y2="656.5469"/><line style="stroke:#181818;stroke-width:0.5;stroke-dasharray:5.0,5.0;" x1="1368" x2="1368" y1="86.2188" y2="656.5469"/><text fill="#000000" font-family="sans-serif" font-size="14" lengthAdjust="spacing" textLength="44" x="20" y="83.1426">Patient</text><ellipse cx="45" cy="17.1094" fill="#E2E2F0" rx="8" ry="8" style="stroke:#181818;stroke-width:0.5;"/><path d="M45,25.1094 L45,52.1094 M32,33.1094 L58,33.1094 M45,52.1094 L32,67.1094 M45,52.1094 L58,67.1094 " fill="none" style="stroke:#181818;stroke-width:0.5;"/><text fill="#000000" font-family="sans-serif" font-size="14" lengthAdjust="spacing" textLength="44" x="20" y="670.0801">Patient</text><ellipse cx="45" cy="681.6563" fill="#E2E2F0" rx="8" ry="8" style="stroke:#181818;stroke-width:0.5;"/><path d="M45,689.6563 L45,716.6563 M32,697.6563 L58,697.6563 M45,716.6563 L32,731.6563 M45,716.6563 L58,731.6563 " fill="none" style="stroke:#181818;stroke-width:0.5;"/><rect fill="#E2E2F0" height="49.2188" rx="2.5" ry="2.5" style="stroke:#181818;stroke-width:0.5;" width="112" x="175" y="36"/><text fill="#000000" font-family="sans-serif" font-size="14" font-style="italic" lengthAdjust="spacing" textLength="78" x="192" y="57.5332">&#171;Controller&#187;</text><text fill="#000000" font-family="sans-serif" font-size="14" lengthAdjust="spacing" textLength="98" x="182" y="75.1426">UsersController</text><rect fill="#E2E2F0" height="49.2188" rx="2.5" ry="2.5" style="stroke:#181818;stroke-width:0.5;" width="112" x="175" y="655.5469"/><text fill="#000000" font-family="sans-serif" font-size="14" font-style="italic" lengthAdjust="spacing" textLength="78" x="192" y="677.0801">&#171;Controller&#187;</text><text fill="#000000" font-family="sans-serif" font-size="14" lengthAdjust="spacing" textLength="98" x="182" y="694.6895">UsersController</text><rect fill="#E2E2F0" height="49.2188" rx="2.5" ry="2.5" style="stroke:#181818;stroke-width:0.5;" width="90" x="453" y="36"/><text fill="#000000" font-family="sans-serif" font-size="14" font-style="italic" lengthAdjust="spacing" textLength="62" x="467" y="57.5332">&#171;Service&#187;</text><text fill="#000000" font-family="sans-serif" font-size="14" lengthAdjust="spacing" textLength="76" x="460" y="75.1426">UserService</text><rect fill="#E2E2F0" height="49.2188" rx="2.5" ry="2.5" style="stroke:#181818;stroke-width:0.5;" width="90" x="453" y="655.5469"/><text fill="#000000" font-family="sans-serif" font-size="14" font-style="italic" lengthAdjust="spacing" textLength="62" x="467" y="677.0801">&#171;Service&#187;</text><text fill="#000000" font-family="sans-serif" font-size="14" lengthAdjust="spacing" textLength="76" x="460" y="694.6895">UserService</text><rect fill="#E2E2F0" height="49.2188" rx="2.5" ry="2.5" style="stroke:#181818;stroke-width:0.5;" width="78" x="920" y="36"/><text fill="#000000" font-family="sans-serif" font-size="14" font-style="italic" lengthAdjust="spacing" textLength="64" x="927" y="57.5332">&#171;Domain&#187;</text><text fill="#000000" font-family="sans-serif" font-size="14" lengthAdjust="spacing" textLength="29" x="944.5" y="75.1426">User</text><rect fill="#E2E2F0" height="49.2188" rx="2.5" ry="2.5" style="stroke:#181818;stroke-width:0.5;" width="78" x="920" y="655.5469"/><text fill="#000000" font-family="sans-serif" font-size="14" font-style="italic" lengthAdjust="spacing" textLength="64" x="927" y="677.0801">&#171;Domain&#187;</text><text fill="#000000" font-family="sans-serif" font-size="14" lengthAdjust="spacing" textLength="29" x="944.5" y="694.6895">User</text><rect fill="#E2E2F0" height="49.2188" rx="2.5" ry="2.5" style="stroke:#181818;stroke-width:0.5;" width="78" x="1008" y="36"/><text fill="#000000" font-family="sans-serif" font-size="14" font-style="italic" lengthAdjust="spacing" textLength="64" x="1015" y="57.5332">&#171;Domain&#187;</text><text fill="#000000" font-family="sans-serif" font-size="14" lengthAdjust="spacing" textLength="44" x="1025" y="75.1426">Patient</text><rect fill="#E2E2F0" height="49.2188" rx="2.5" ry="2.5" style="stroke:#181818;stroke-width:0.5;" width="78" x="1008" y="655.5469"/><text fill="#000000" font-family="sans-serif" font-size="14" font-style="italic" lengthAdjust="spacing" textLength="64" x="1015" y="677.0801">&#171;Domain&#187;</text><text fill="#000000" font-family="sans-serif" font-size="14" lengthAdjust="spacing" textLength="44" x="1025" y="694.6895">Patient</text><rect fill="#E2E2F0" height="49.2188" rx="2.5" ry="2.5" style="stroke:#181818;stroke-width:0.5;" width="78" x="1096" y="36"/><text fill="#000000" font-family="sans-serif" font-size="14" font-style="italic" lengthAdjust="spacing" textLength="64" x="1103" y="57.5332">&#171;Domain&#187;</text><text fill="#000000" font-family="sans-serif" font-size="14" lengthAdjust="spacing" textLength="51" x="1109.5" y="75.1426">UserDto</text><rect fill="#E2E2F0" height="49.2188" rx="2.5" ry="2.5" style="stroke:#181818;stroke-width:0.5;" width="78" x="1096" y="655.5469"/><text fill="#000000" font-family="sans-serif" font-size="14" font-style="italic" lengthAdjust="spacing" textLength="64" x="1103" y="677.0801">&#171;Domain&#187;</text><text fill="#000000" font-family="sans-serif" font-size="14" lengthAdjust="spacing" textLength="51" x="1109.5" y="694.6895">UserDto</text><text fill="#000000" font-family="sans-serif" font-size="14" font-style="italic" lengthAdjust="spacing" textLength="64" x="1209.5" y="65.5332">&#171;Domain&#187;</text><text fill="#000000" font-family="sans-serif" font-size="14" lengthAdjust="spacing" textLength="115" x="1184" y="83.1426">IPatientRepository</text><path d="M1226.5,15 C1226.5,5 1244.5,5 1244.5,5 C1244.5,5 1262.5,5 1262.5,15 L1262.5,41 C1262.5,51 1244.5,51 1244.5,51 C1244.5,51 1226.5,51 1226.5,41 L1226.5,15 " fill="#E2E2F0" style="stroke:#181818;stroke-width:1.5;"/><path d="M1226.5,15 C1226.5,25 1244.5,25 1244.5,25 C1244.5,25 1262.5,25 1262.5,15 " fill="none" style="stroke:#181818;stroke-width:1.5;"/><text fill="#000000" font-family="sans-serif" font-size="14" font-style="italic" lengthAdjust="spacing" textLength="64" x="1209.5" y="670.0801">&#171;Domain&#187;</text><text fill="#000000" font-family="sans-serif" font-size="14" lengthAdjust="spacing" textLength="115" x="1184" y="687.6895">IPatientRepository</text><path d="M1226.5,700.7656 C1226.5,690.7656 1244.5,690.7656 1244.5,690.7656 C1244.5,690.7656 1262.5,690.7656 1262.5,700.7656 L1262.5,726.7656 C1262.5,736.7656 1244.5,736.7656 1244.5,736.7656 C1244.5,736.7656 1226.5,736.7656 1226.5,726.7656 L1226.5,700.7656 " fill="#E2E2F0" style="stroke:#181818;stroke-width:1.5;"/><path d="M1226.5,700.7656 C1226.5,710.7656 1244.5,710.7656 1244.5,710.7656 C1244.5,710.7656 1262.5,710.7656 1262.5,700.7656 " fill="none" style="stroke:#181818;stroke-width:1.5;"/><text fill="#000000" font-family="sans-serif" font-size="14" font-style="italic" lengthAdjust="spacing" textLength="64" x="1333" y="65.5332">&#171;Domain&#187;</text><text fill="#000000" font-family="sans-serif" font-size="14" lengthAdjust="spacing" textLength="100" x="1315" y="83.1426">IUserRepository</text><path d="M1350,15 C1350,5 1368,5 1368,5 C1368,5 1386,5 1386,15 L1386,41 C1386,51 1368,51 1368,51 C1368,51 1350,51 1350,41 L1350,15 " fill="#E2E2F0" style="stroke:#181818;stroke-width:1.5;"/><path d="M1350,15 C1350,25 1368,25 1368,25 C1368,25 1386,25 1386,15 " fill="none" style="stroke:#181818;stroke-width:1.5;"/><text fill="#000000" font-family="sans-serif" font-size="14" font-style="italic" lengthAdjust="spacing" textLength="64" x="1333" y="670.0801">&#171;Domain&#187;</text><text fill="#000000" font-family="sans-serif" font-size="14" lengthAdjust="spacing" textLength="100" x="1315" y="687.6895">IUserRepository</text><path d="M1350,700.7656 C1350,690.7656 1368,690.7656 1368,690.7656 C1368,690.7656 1386,690.7656 1386,700.7656 L1386,726.7656 C1386,736.7656 1368,736.7656 1368,736.7656 C1368,736.7656 1350,736.7656 1350,726.7656 L1350,700.7656 " fill="#E2E2F0" style="stroke:#181818;stroke-width:1.5;"/><path d="M1350,700.7656 C1350,710.7656 1368,710.7656 1368,710.7656 C1368,710.7656 1386,710.7656 1386,700.7656 " fill="none" style="stroke:#181818;stroke-width:1.5;"/><rect fill="#FFFFFF" height="542.3281" style="stroke:#181818;stroke-width:1.0;" width="10" x="40" y="96.2188"/><rect fill="#FFFFFF" height="519.9766" style="stroke:#181818;stroke-width:1.0;" width="10" x="226" y="118.5703"/><rect fill="#FFFFFF" height="467.2734" style="stroke:#181818;stroke-width:1.0;" width="10" x="493" y="148.9219"/><rect fill="#FFFFFF" height="30.3516" style="stroke:#181818;stroke-width:1.0;" width="10" x="954" y="328.0313"/><rect fill="#FFFFFF" height="30.3516" style="stroke:#181818;stroke-width:1.0;" width="10" x="1130" y="540.4922"/><rect fill="#FFFFFF" height="30.3516" style="stroke:#181818;stroke-width:1.0;" width="10" x="1239.5" y="179.2734"/><rect fill="#FFFFFF" height="30.3516" style="stroke:#181818;stroke-width:1.0;" width="10" x="1239.5" y="479.7891"/><rect fill="#FFFFFF" height="30.3516" style="stroke:#181818;stroke-width:1.0;" width="10" x="1363" y="388.7344"/><polygon fill="#181818" points="214,114.5703,224,118.5703,214,122.5703,218,118.5703" style="stroke:#181818;stroke-width:1.0;"/><line style="stroke:#181818;stroke-width:1.0;" x1="50" x2="220" y1="118.5703" y2="118.5703"/><text fill="#000000" font-family="sans-serif" font-size="13" font-weight="bold" lengthAdjust="spacing" textLength="7" x="57" y="113.7139">1</text><text fill="#000000" font-family="sans-serif" font-size="13" lengthAdjust="spacing" textLength="146" x="68" y="113.7139">POST /api/users/patients</text><polygon fill="#181818" points="481,144.9219,491,148.9219,481,152.9219,485,148.9219" style="stroke:#181818;stroke-width:1.0;"/><line style="stroke:#181818;stroke-width:1.0;" x1="236" x2="487" y1="148.9219" y2="148.9219"/><text fill="#000000" font-family="sans-serif" font-size="13" font-weight="bold" lengthAdjust="spacing" textLength="7" x="243" y="144.0654">2</text><text fill="#000000" font-family="sans-serif" font-size="13" lengthAdjust="spacing" textLength="227" x="254" y="144.0654">addUserPatientAsync(creatingUserDto)</text><polygon fill="#181818" points="1227.5,175.2734,1237.5,179.2734,1227.5,183.2734,1231.5,179.2734" style="stroke:#181818;stroke-width:1.0;"/><line style="stroke:#181818;stroke-width:1.0;" x1="503" x2="1233.5" y1="179.2734" y2="179.2734"/><text fill="#000000" font-family="sans-serif" font-size="13" font-weight="bold" lengthAdjust="spacing" textLength="7" x="510" y="174.417">3</text><text fill="#000000" font-family="sans-serif" font-size="13" lengthAdjust="spacing" textLength="245" x="521" y="174.417">GetByEmailAsync(creatingUserDto.Email)</text><polygon fill="#181818" points="514,205.625,504,209.625,514,213.625,510,209.625" style="stroke:#181818;stroke-width:1.0;"/><line style="stroke:#181818;stroke-width:1.0;stroke-dasharray:2.0,2.0;" x1="508" x2="1243.5" y1="209.625" y2="209.625"/><text fill="#000000" font-family="sans-serif" font-size="13" font-weight="bold" lengthAdjust="spacing" textLength="7" x="520" y="204.7686">4</text><text fill="#000000" font-family="sans-serif" font-size="13" lengthAdjust="spacing" textLength="39" x="531" y="204.7686">patient</text><path d="M10,224.625 L71,224.625 L71,232.9766 L61,242.9766 L10,242.9766 L10,224.625 " fill="#EEEEEE" style="stroke:#000000;stroke-width:1.5;"/><rect fill="none" height="384.5703" style="stroke:#000000;stroke-width:1.5;" width="1421" x="10" y="224.625"/><text fill="#000000" font-family="sans-serif" font-size="13" font-weight="bold" lengthAdjust="spacing" textLength="16" x="25" y="239.1201">alt</text><text fill="#000000" font-family="sans-serif" font-size="11" font-weight="bold" lengthAdjust="spacing" textLength="84" x="86" y="238.0439">[patient == null]</text><polygon fill="#181818" points="247,261.3281,237,265.3281,247,269.3281,243,265.3281" style="stroke:#181818;stroke-width:1.0;"/><line style="stroke:#181818;stroke-width:1.0;stroke-dasharray:2.0,2.0;" x1="241" x2="492" y1="265.3281" y2="265.3281"/><text fill="#000000" font-family="sans-serif" font-size="13" font-weight="bold" lengthAdjust="spacing" textLength="7" x="253" y="260.4717">5</text><text fill="#000000" font-family="sans-serif" font-size="13" lengthAdjust="spacing" textLength="114" x="264" y="260.4717">NotFoundException</text><polygon fill="#181818" points="61,291.6797,51,295.6797,61,299.6797,57,295.6797" style="stroke:#181818;stroke-width:1.0;"/><line style="stroke:#181818;stroke-width:1.0;stroke-dasharray:2.0,2.0;" x1="55" x2="225" y1="295.6797" y2="295.6797"/><text fill="#000000" font-family="sans-serif" font-size="13" font-weight="bold" lengthAdjust="spacing" textLength="7" x="67" y="290.8232">6</text><text fill="#000000" font-family="sans-serif" font-size="13" lengthAdjust="spacing" textLength="85" x="78" y="290.8232">404 Not Found</text><line style="stroke:#000000;stroke-width:1.0;stroke-dasharray:2.0,2.0;" x1="10" x2="1431" y1="304.6797" y2="304.6797"/><polygon fill="#181818" points="942,324.0313,952,328.0313,942,332.0313,946,328.0313" style="stroke:#181818;stroke-width:1.0;"/><line style="stroke:#181818;stroke-width:1.0;" x1="503" x2="948" y1="328.0313" y2="328.0313"/><text fill="#000000" font-family="sans-serif" font-size="13" font-weight="bold" lengthAdjust="spacing" textLength="7" x="510" y="323.1748">7</text><text fill="#000000" font-family="sans-serif" font-size="13" lengthAdjust="spacing" textLength="421" x="521" y="323.1748">create(creatingUserDto.Username,creatingUserDto.Email,Role.PATIENT)</text><polygon fill="#181818" points="514,354.3828,504,358.3828,514,362.3828,510,358.3828" style="stroke:#181818;stroke-width:1.0;"/><line style="stroke:#181818;stroke-width:1.0;stroke-dasharray:2.0,2.0;" x1="508" x2="958" y1="358.3828" y2="358.3828"/><text fill="#000000" font-family="sans-serif" font-size="13" font-weight="bold" lengthAdjust="spacing" textLength="7" x="520" y="353.5264">8</text><text fill="#000000" font-family="sans-serif" font-size="13" lengthAdjust="spacing" textLength="25" x="531" y="353.5264">user</text><polygon fill="#181818" points="1351,384.7344,1361,388.7344,1351,392.7344,1355,388.7344" style="stroke:#181818;stroke-width:1.0;"/><line style="stroke:#181818;stroke-width:1.0;" x1="503" x2="1357" y1="388.7344" y2="388.7344"/><text fill="#000000" font-family="sans-serif" font-size="13" font-weight="bold" lengthAdjust="spacing" textLength="7" x="510" y="383.8779">9</text><text fill="#000000" font-family="sans-serif" font-size="13" lengthAdjust="spacing" textLength="93" x="521" y="383.8779">AddAsync(user)</text><polygon fill="#181818" points="514,415.0859,504,419.0859,514,423.0859,510,419.0859" style="stroke:#181818;stroke-width:1.0;"/><line style="stroke:#181818;stroke-width:1.0;stroke-dasharray:2.0,2.0;" x1="508" x2="1367" y1="419.0859" y2="419.0859"/><text fill="#000000" font-family="sans-serif" font-size="13" font-weight="bold" lengthAdjust="spacing" textLength="14" x="520" y="414.2295">10</text><text fill="#000000" font-family="sans-serif" font-size="13" lengthAdjust="spacing" textLength="25" x="538" y="414.2295">user</text><polygon fill="#181818" points="1035,445.4375,1045,449.4375,1035,453.4375,1039,449.4375" style="stroke:#181818;stroke-width:1.0;"/><line style="stroke:#181818;stroke-width:1.0;" x1="503" x2="1041" y1="449.4375" y2="449.4375"/><text fill="#000000" font-family="sans-serif" font-size="13" font-weight="bold" lengthAdjust="spacing" textLength="14" x="510" y="444.5811">11</text><text fill="#000000" font-family="sans-serif" font-size="13" lengthAdjust="spacing" textLength="101" x="528" y="444.5811">UpdateUser(user)</text><polygon fill="#181818" points="1227.5,475.7891,1237.5,479.7891,1227.5,483.7891,1231.5,479.7891" style="stroke:#181818;stroke-width:1.0;"/><line style="stroke:#181818;stroke-width:1.0;" x1="503" x2="1233.5" y1="479.7891" y2="479.7891"/><text fill="#000000" font-family="sans-serif" font-size="13" font-weight="bold" lengthAdjust="spacing" textLength="14" x="510" y="474.9326">12</text><text fill="#000000" font-family="sans-serif" font-size="13" lengthAdjust="spacing" textLength="125" x="528" y="474.9326">UpdateAsync(patient)</text><polygon fill="#181818" points="514,506.1406,504,510.1406,514,514.1406,510,510.1406" style="stroke:#181818;stroke-width:1.0;"/><line style="stroke:#181818;stroke-width:1.0;stroke-dasharray:2.0,2.0;" x1="508" x2="1243.5" y1="510.1406" y2="510.1406"/><text fill="#000000" font-family="sans-serif" font-size="13" font-weight="bold" lengthAdjust="spacing" textLength="14" x="520" y="505.2842">13</text><text fill="#000000" font-family="sans-serif" font-size="13" lengthAdjust="spacing" textLength="39" x="538" y="505.2842">patient</text><polygon fill="#181818" points="1118,536.4922,1128,540.4922,1118,544.4922,1122,540.4922" style="stroke:#181818;stroke-width:1.0;"/><line style="stroke:#181818;stroke-width:1.0;" x1="503" x2="1124" y1="540.4922" y2="540.4922"/><text fill="#000000" font-family="sans-serif" font-size="13" font-weight="bold" lengthAdjust="spacing" textLength="14" x="510" y="535.6357">14</text><text fill="#000000" font-family="sans-serif" font-size="13" lengthAdjust="spacing" textLength="170" x="528" y="535.6357">create(Username,Email,Role)</text><polygon fill="#181818" points="514,566.8438,504,570.8438,514,574.8438,510,570.8438" style="stroke:#181818;stroke-width:1.0;"/><line style="stroke:#181818;stroke-width:1.0;stroke-dasharray:2.0,2.0;" x1="508" x2="1134" y1="570.8438" y2="570.8438"/><text fill="#000000" font-family="sans-serif" font-size="13" font-weight="bold" lengthAdjust="spacing" textLength="14" x="520" y="565.9873">15</text><text fill="#000000" font-family="sans-serif" font-size="13" lengthAdjust="spacing" textLength="45" x="538" y="565.9873">userDto</text><polygon fill="#181818" points="247,597.1953,237,601.1953,247,605.1953,243,601.1953" style="stroke:#181818;stroke-width:1.0;"/><line style="stroke:#181818;stroke-width:1.0;stroke-dasharray:2.0,2.0;" x1="241" x2="492" y1="601.1953" y2="601.1953"/><text fill="#000000" font-family="sans-serif" font-size="13" font-weight="bold" lengthAdjust="spacing" textLength="14" x="253" y="596.3389">16</text><text fill="#000000" font-family="sans-serif" font-size="13" lengthAdjust="spacing" textLength="45" x="271" y="596.3389">userDto</text><polygon fill="#181818" points="56,634.5469,46,638.5469,56,642.5469,52,638.5469" style="stroke:#181818;stroke-width:1.0;"/><line style="stroke:#181818;stroke-width:1.0;stroke-dasharray:2.0,2.0;" x1="50" x2="230" y1="638.5469" y2="638.5469"/><text fill="#000000" font-family="sans-serif" font-size="13" font-weight="bold" lengthAdjust="spacing" textLength="14" x="62" y="633.6904">17</text><text fill="#000000" font-family="sans-serif" font-size="13" lengthAdjust="spacing" textLength="70" x="80" y="633.6904">201 Created</text><!--SRC=[ZLLDJyCm3BtlLrWxCOanG9ocCMd0G5nWWl43GckXI5rIjIbY_vuuJTkaIRlbqdpuFJlFTieg9KLr-CPYCc69aWLCTqnn56eAh0Gxtz3996U5uWdFcL0m_IgnA1-bK8NCCYoCTRU4rQfRhDSXz1EBNvwWWTcvnjXP360iQQBDdkI1ST6tYiGzQ4j4Jqgsf7hksgPCiMzM8anVBTC7vhBaMeMZoz_j3g29kmVrjrmS9O3_CeM-x1FGmzsPhrsbbx1x_zp3WkLyKL5I5dbjMzR8bhJ3r0Sq71xDsYHY2InDASx6QtaKoKLIe5wA7wlNh6DfNLY2xeH6mweTXB8juGNLmt6h9SYYRgxCqSodx0lL4VfsZdAEpxbtLQkM3qpnN1SiKmq5tD-3gB8CmY1Q3VgvUvFgMLOYtVubc2iknU05JEfXDP_x17VNTqG2XiK7OwPhS2IMTTrFIp2IOw0yVGKxu6Kq9PSVCiEhtMR_kdtRpq8thO242ezf6FT-DggeiPEEE5j3q5pAgx1DcjQbHUId8XqhfIRcmLewA_en3s6lQDQlNByeID2X6vneiPgWri3MwfWCPpJLS6D5EgiF71Fe3D-z-gMdkotXjcIx4ZsLS8qVpZIHXocEGdfPZjeCFWDHLdGRsg4FNjdn5-Bs-WOUZJoMpg5o_mbX5kp_vny0]--></g></svg>