<?xml version="1.0" encoding="us-ascii" standalone="no"?><svg xmlns="http://www.w3.org/2000/svg" xmlns:xlink="http://www.w3.org/1999/xlink" contentStyleType="text/css" height="751px" preserveAspectRatio="none" style="width:1380px;height:751px;background:#FFFFFF;" version="1.1" viewBox="0 0 1380 751" width="1380px" zoomAndPan="magnify"><defs/><g><rect fill="#FFFFFF" height="517.9766" style="stroke:#181818;stroke-width:1.0;" width="10" x="184" y="118.5703"/><rect fill="#FFFFFF" height="457.2734" style="stroke:#181818;stroke-width:1.0;" width="10" x="451" y="148.9219"/><rect fill="#FFFFFF" height="30.3516" style="stroke:#181818;stroke-width:1.0;" width="10" x="912" y="333.0313"/><rect fill="#FFFFFF" height="30.3516" style="stroke:#181818;stroke-width:1.0;" width="10" x="1088" y="545.4922"/><rect fill="#FFFFFF" height="30.3516" style="stroke:#181818;stroke-width:1.0;" width="10" x="1197.5" y="179.2734"/><rect fill="#FFFFFF" height="30.3516" style="stroke:#181818;stroke-width:1.0;" width="10" x="1197.5" y="484.7891"/><rect fill="#FFFFFF" height="30.3516" style="stroke:#181818;stroke-width:1.0;" width="10" x="1321" y="393.7344"/><rect fill="none" height="79.0547" style="stroke:#000000;stroke-width:1.5;" width="442" x="69" y="224.625"/><line style="stroke:#181818;stroke-width:0.5;stroke-dasharray:5.0,5.0;" x1="189" x2="189" y1="86.2188" y2="654.5469"/><line style="stroke:#181818;stroke-width:0.5;stroke-dasharray:5.0,5.0;" x1="456" x2="456" y1="86.2188" y2="654.5469"/><line style="stroke:#181818;stroke-width:0.5;stroke-dasharray:5.0,5.0;" x1="917" x2="917" y1="86.2188" y2="654.5469"/><line style="stroke:#181818;stroke-width:0.5;stroke-dasharray:5.0,5.0;" x1="1005" x2="1005" y1="86.2188" y2="654.5469"/><line style="stroke:#181818;stroke-width:0.5;stroke-dasharray:5.0,5.0;" x1="1093" x2="1093" y1="86.2188" y2="654.5469"/><line style="stroke:#181818;stroke-width:0.5;stroke-dasharray:5.0,5.0;" x1="1202" x2="1202" y1="86.2188" y2="654.5469"/><line style="stroke:#181818;stroke-width:0.5;stroke-dasharray:5.0,5.0;" x1="1326" x2="1326" y1="86.2188" y2="654.5469"/><rect fill="#E2E2F0" height="49.2188" rx="2.5" ry="2.5" style="stroke:#181818;stroke-width:0.5;" width="112" x="133" y="36"/><text fill="#000000" font-family="sans-serif" font-size="14" font-style="italic" lengthAdjust="spacing" textLength="78" x="150" y="57.5332">&#171;Controller&#187;</text><text fill="#000000" font-family="sans-serif" font-size="14" lengthAdjust="spacing" textLength="98" x="140" y="75.1426">UsersController</text><rect fill="#E2E2F0" height="49.2188" rx="2.5" ry="2.5" style="stroke:#181818;stroke-width:0.5;" width="112" x="133" y="653.5469"/><text fill="#000000" font-family="sans-serif" font-size="14" font-style="italic" lengthAdjust="spacing" textLength="78" x="150" y="675.0801">&#171;Controller&#187;</text><text fill="#000000" font-family="sans-serif" font-size="14" lengthAdjust="spacing" textLength="98" x="140" y="692.6895">UsersController</text><rect fill="#E2E2F0" height="49.2188" rx="2.5" ry="2.5" style="stroke:#181818;stroke-width:0.5;" width="90" x="411" y="36"/><text fill="#000000" font-family="sans-serif" font-size="14" font-style="italic" lengthAdjust="spacing" textLength="62" x="425" y="57.5332">&#171;Service&#187;</text><text fill="#000000" font-family="sans-serif" font-size="14" lengthAdjust="spacing" textLength="76" x="418" y="75.1426">UserService</text><rect fill="#E2E2F0" height="49.2188" rx="2.5" ry="2.5" style="stroke:#181818;stroke-width:0.5;" width="90" x="411" y="653.5469"/><text fill="#000000" font-family="sans-serif" font-size="14" font-style="italic" lengthAdjust="spacing" textLength="62" x="425" y="675.0801">&#171;Service&#187;</text><text fill="#000000" font-family="sans-serif" font-size="14" lengthAdjust="spacing" textLength="76" x="418" y="692.6895">UserService</text><rect fill="#E2E2F0" height="49.2188" rx="2.5" ry="2.5" style="stroke:#181818;stroke-width:0.5;" width="78" x="878" y="36"/><text fill="#000000" font-family="sans-serif" font-size="14" font-style="italic" lengthAdjust="spacing" textLength="64" x="885" y="57.5332">&#171;Domain&#187;</text><text fill="#000000" font-family="sans-serif" font-size="14" lengthAdjust="spacing" textLength="29" x="902.5" y="75.1426">User</text><rect fill="#E2E2F0" height="49.2188" rx="2.5" ry="2.5" style="stroke:#181818;stroke-width:0.5;" width="78" x="878" y="653.5469"/><text fill="#000000" font-family="sans-serif" font-size="14" font-style="italic" lengthAdjust="spacing" textLength="64" x="885" y="675.0801">&#171;Domain&#187;</text><text fill="#000000" font-family="sans-serif" font-size="14" lengthAdjust="spacing" textLength="29" x="902.5" y="692.6895">User</text><rect fill="#E2E2F0" height="49.2188" rx="2.5" ry="2.5" style="stroke:#181818;stroke-width:0.5;" width="78" x="966" y="36"/><text fill="#000000" font-family="sans-serif" font-size="14" font-style="italic" lengthAdjust="spacing" textLength="64" x="973" y="57.5332">&#171;Domain&#187;</text><text fill="#000000" font-family="sans-serif" font-size="14" lengthAdjust="spacing" textLength="44" x="983" y="75.1426">Patient</text><rect fill="#E2E2F0" height="49.2188" rx="2.5" ry="2.5" style="stroke:#181818;stroke-width:0.5;" width="78" x="966" y="653.5469"/><text fill="#000000" font-family="sans-serif" font-size="14" font-style="italic" lengthAdjust="spacing" textLength="64" x="973" y="675.0801">&#171;Domain&#187;</text><text fill="#000000" font-family="sans-serif" font-size="14" lengthAdjust="spacing" textLength="44" x="983" y="692.6895">Patient</text><rect fill="#E2E2F0" height="49.2188" rx="2.5" ry="2.5" style="stroke:#181818;stroke-width:0.5;" width="78" x="1054" y="36"/><text fill="#000000" font-family="sans-serif" font-size="14" font-style="italic" lengthAdjust="spacing" textLength="64" x="1061" y="57.5332">&#171;Domain&#187;</text><text fill="#000000" font-family="sans-serif" font-size="14" lengthAdjust="spacing" textLength="51" x="1067.5" y="75.1426">UserDto</text><rect fill="#E2E2F0" height="49.2188" rx="2.5" ry="2.5" style="stroke:#181818;stroke-width:0.5;" width="78" x="1054" y="653.5469"/><text fill="#000000" font-family="sans-serif" font-size="14" font-style="italic" lengthAdjust="spacing" textLength="64" x="1061" y="675.0801">&#171;Domain&#187;</text><text fill="#000000" font-family="sans-serif" font-size="14" lengthAdjust="spacing" textLength="51" x="1067.5" y="692.6895">UserDto</text><text fill="#000000" font-family="sans-serif" font-size="14" font-style="italic" lengthAdjust="spacing" textLength="64" x="1167.5" y="65.5332">&#171;Domain&#187;</text><text fill="#000000" font-family="sans-serif" font-size="14" lengthAdjust="spacing" textLength="115" x="1142" y="83.1426">IPatientRepository</text><path d="M1184.5,15 C1184.5,5 1202.5,5 1202.5,5 C1202.5,5 1220.5,5 1220.5,15 L1220.5,41 C1220.5,51 1202.5,51 1202.5,51 C1202.5,51 1184.5,51 1184.5,41 L1184.5,15 " fill="#E2E2F0" style="stroke:#181818;stroke-width:1.5;"/><path d="M1184.5,15 C1184.5,25 1202.5,25 1202.5,25 C1202.5,25 1220.5,25 1220.5,15 " fill="none" style="stroke:#181818;stroke-width:1.5;"/><text fill="#000000" font-family="sans-serif" font-size="14" font-style="italic" lengthAdjust="spacing" textLength="64" x="1167.5" y="668.0801">&#171;Domain&#187;</text><text fill="#000000" font-family="sans-serif" font-size="14" lengthAdjust="spacing" textLength="115" x="1142" y="685.6895">IPatientRepository</text><path d="M1184.5,698.7656 C1184.5,688.7656 1202.5,688.7656 1202.5,688.7656 C1202.5,688.7656 1220.5,688.7656 1220.5,698.7656 L1220.5,724.7656 C1220.5,734.7656 1202.5,734.7656 1202.5,734.7656 C1202.5,734.7656 1184.5,734.7656 1184.5,724.7656 L1184.5,698.7656 " fill="#E2E2F0" style="stroke:#181818;stroke-width:1.5;"/><path d="M1184.5,698.7656 C1184.5,708.7656 1202.5,708.7656 1202.5,708.7656 C1202.5,708.7656 1220.5,708.7656 1220.5,698.7656 " fill="none" style="stroke:#181818;stroke-width:1.5;"/><text fill="#000000" font-family="sans-serif" font-size="14" font-style="italic" lengthAdjust="spacing" textLength="64" x="1291" y="65.5332">&#171;Domain&#187;</text><text fill="#000000" font-family="sans-serif" font-size="14" lengthAdjust="spacing" textLength="100" x="1273" y="83.1426">IUserRepository</text><path d="M1308,15 C1308,5 1326,5 1326,5 C1326,5 1344,5 1344,15 L1344,41 C1344,51 1326,51 1326,51 C1326,51 1308,51 1308,41 L1308,15 " fill="#E2E2F0" style="stroke:#181818;stroke-width:1.5;"/><path d="M1308,15 C1308,25 1326,25 1326,25 C1326,25 1344,25 1344,15 " fill="none" style="stroke:#181818;stroke-width:1.5;"/><text fill="#000000" font-family="sans-serif" font-size="14" font-style="italic" lengthAdjust="spacing" textLength="64" x="1291" y="668.0801">&#171;Domain&#187;</text><text fill="#000000" font-family="sans-serif" font-size="14" lengthAdjust="spacing" textLength="100" x="1273" y="685.6895">IUserRepository</text><path d="M1308,698.7656 C1308,688.7656 1326,688.7656 1326,688.7656 C1326,688.7656 1344,688.7656 1344,698.7656 L1344,724.7656 C1344,734.7656 1326,734.7656 1326,734.7656 C1326,734.7656 1308,734.7656 1308,724.7656 L1308,698.7656 " fill="#E2E2F0" style="stroke:#181818;stroke-width:1.5;"/><path d="M1308,698.7656 C1308,708.7656 1326,708.7656 1326,708.7656 C1326,708.7656 1344,708.7656 1344,698.7656 " fill="none" style="stroke:#181818;stroke-width:1.5;"/><rect fill="#FFFFFF" height="517.9766" style="stroke:#181818;stroke-width:1.0;" width="10" x="184" y="118.5703"/><rect fill="#FFFFFF" height="457.2734" style="stroke:#181818;stroke-width:1.0;" width="10" x="451" y="148.9219"/><rect fill="#FFFFFF" height="30.3516" style="stroke:#181818;stroke-width:1.0;" width="10" x="912" y="333.0313"/><rect fill="#FFFFFF" height="30.3516" style="stroke:#181818;stroke-width:1.0;" width="10" x="1088" y="545.4922"/><rect fill="#FFFFFF" height="30.3516" style="stroke:#181818;stroke-width:1.0;" width="10" x="1197.5" y="179.2734"/><rect fill="#FFFFFF" height="30.3516" style="stroke:#181818;stroke-width:1.0;" width="10" x="1197.5" y="484.7891"/><rect fill="#FFFFFF" height="30.3516" style="stroke:#181818;stroke-width:1.0;" width="10" x="1321" y="393.7344"/><ellipse cx="4.5" cy="117.8203" fill="none" rx="4" ry="4" style="stroke:#181818;stroke-width:1.5;"/><polygon fill="#181818" points="172,114.5703,182,118.5703,172,122.5703,176,118.5703" style="stroke:#181818;stroke-width:1.0;"/><line style="stroke:#181818;stroke-width:1.0;" x1="9" x2="178" y1="118.5703" y2="118.5703"/><text fill="#000000" font-family="sans-serif" font-size="13" font-weight="bold" lengthAdjust="spacing" textLength="7" x="12" y="113.7139">1</text><text fill="#000000" font-family="sans-serif" font-size="13" lengthAdjust="spacing" textLength="146" x="23" y="113.7139">POST /api/users/patients</text><polygon fill="#181818" points="439,144.9219,449,148.9219,439,152.9219,443,148.9219" style="stroke:#181818;stroke-width:1.0;"/><line style="stroke:#181818;stroke-width:1.0;" x1="194" x2="445" y1="148.9219" y2="148.9219"/><text fill="#000000" font-family="sans-serif" font-size="13" font-weight="bold" lengthAdjust="spacing" textLength="7" x="201" y="144.0654">2</text><text fill="#000000" font-family="sans-serif" font-size="13" lengthAdjust="spacing" textLength="227" x="212" y="144.0654">addUserPatientAsync(creatingUserDto)</text><polygon fill="#181818" points="1185.5,175.2734,1195.5,179.2734,1185.5,183.2734,1189.5,179.2734" style="stroke:#181818;stroke-width:1.0;"/><line style="stroke:#181818;stroke-width:1.0;" x1="461" x2="1191.5" y1="179.2734" y2="179.2734"/><text fill="#000000" font-family="sans-serif" font-size="13" font-weight="bold" lengthAdjust="spacing" textLength="7" x="468" y="174.417">3</text><text fill="#000000" font-family="sans-serif" font-size="13" lengthAdjust="spacing" textLength="245" x="479" y="174.417">GetByEmailAsync(creatingUserDto.Email)</text><polygon fill="#181818" points="472,205.625,462,209.625,472,213.625,468,209.625" style="stroke:#181818;stroke-width:1.0;"/><line style="stroke:#181818;stroke-width:1.0;stroke-dasharray:2.0,2.0;" x1="466" x2="1201.5" y1="209.625" y2="209.625"/><text fill="#000000" font-family="sans-serif" font-size="13" font-weight="bold" lengthAdjust="spacing" textLength="7" x="478" y="204.7686">4</text><text fill="#000000" font-family="sans-serif" font-size="13" lengthAdjust="spacing" textLength="39" x="489" y="204.7686">patient</text><path d="M69,224.625 L130,224.625 L130,232.9766 L120,242.9766 L69,242.9766 L69,224.625 " fill="#EEEEEE" style="stroke:#000000;stroke-width:1.5;"/><rect fill="none" height="79.0547" style="stroke:#000000;stroke-width:1.5;" width="442" x="69" y="224.625"/><text fill="#000000" font-family="sans-serif" font-size="13" font-weight="bold" lengthAdjust="spacing" textLength="16" x="84" y="239.1201">alt</text><text fill="#000000" font-family="sans-serif" font-size="11" font-weight="bold" lengthAdjust="spacing" textLength="84" x="145" y="238.0439">[patient == null]</text><polygon fill="#181818" points="205,261.3281,195,265.3281,205,269.3281,201,265.3281" style="stroke:#181818;stroke-width:1.0;"/><line style="stroke:#181818;stroke-width:1.0;stroke-dasharray:2.0,2.0;" x1="199" x2="450" y1="265.3281" y2="265.3281"/><text fill="#000000" font-family="sans-serif" font-size="13" font-weight="bold" lengthAdjust="spacing" textLength="7" x="211" y="260.4717">5</text><text fill="#000000" font-family="sans-serif" font-size="13" lengthAdjust="spacing" textLength="114" x="222" y="260.4717">NotFoundException</text><ellipse cx="65.5" cy="294.9297" fill="none" rx="4" ry="4" style="stroke:#181818;stroke-width:1.5;"/><polygon fill="#181818" points="82.5,291.6797,72.5,295.6797,82.5,299.6797,78.5,295.6797" style="stroke:#181818;stroke-width:1.0;"/><line style="stroke:#181818;stroke-width:1.0;stroke-dasharray:2.0,2.0;" x1="80.5" x2="183" y1="295.6797" y2="295.6797"/><text fill="#000000" font-family="sans-serif" font-size="13" font-weight="bold" lengthAdjust="spacing" textLength="7" x="83" y="290.8232">6</text><text fill="#000000" font-family="sans-serif" font-size="13" lengthAdjust="spacing" textLength="85" x="94" y="290.8232">404 Not Found</text><polygon fill="#181818" points="900,329.0313,910,333.0313,900,337.0313,904,333.0313" style="stroke:#181818;stroke-width:1.0;"/><line style="stroke:#181818;stroke-width:1.0;" x1="461" x2="906" y1="333.0313" y2="333.0313"/><text fill="#000000" font-family="sans-serif" font-size="13" font-weight="bold" lengthAdjust="spacing" textLength="7" x="468" y="328.1748">7</text><text fill="#000000" font-family="sans-serif" font-size="13" lengthAdjust="spacing" textLength="421" x="479" y="328.1748">create(creatingUserDto.Username,creatingUserDto.Email,Role.PATIENT)</text><polygon fill="#181818" points="472,359.3828,462,363.3828,472,367.3828,468,363.3828" style="stroke:#181818;stroke-width:1.0;"/><line style="stroke:#181818;stroke-width:1.0;stroke-dasharray:2.0,2.0;" x1="466" x2="916" y1="363.3828" y2="363.3828"/><text fill="#000000" font-family="sans-serif" font-size="13" font-weight="bold" lengthAdjust="spacing" textLength="7" x="478" y="358.5264">8</text><text fill="#000000" font-family="sans-serif" font-size="13" lengthAdjust="spacing" textLength="25" x="489" y="358.5264">user</text><polygon fill="#181818" points="1309,389.7344,1319,393.7344,1309,397.7344,1313,393.7344" style="stroke:#181818;stroke-width:1.0;"/><line style="stroke:#181818;stroke-width:1.0;" x1="461" x2="1315" y1="393.7344" y2="393.7344"/><text fill="#000000" font-family="sans-serif" font-size="13" font-weight="bold" lengthAdjust="spacing" textLength="7" x="468" y="388.8779">9</text><text fill="#000000" font-family="sans-serif" font-size="13" lengthAdjust="spacing" textLength="93" x="479" y="388.8779">AddAsync(user)</text><polygon fill="#181818" points="472,420.0859,462,424.0859,472,428.0859,468,424.0859" style="stroke:#181818;stroke-width:1.0;"/><line style="stroke:#181818;stroke-width:1.0;stroke-dasharray:2.0,2.0;" x1="466" x2="1325" y1="424.0859" y2="424.0859"/><text fill="#000000" font-family="sans-serif" font-size="13" font-weight="bold" lengthAdjust="spacing" textLength="14" x="478" y="419.2295">10</text><text fill="#000000" font-family="sans-serif" font-size="13" lengthAdjust="spacing" textLength="25" x="496" y="419.2295">user</text><polygon fill="#181818" points="993,450.4375,1003,454.4375,993,458.4375,997,454.4375" style="stroke:#181818;stroke-width:1.0;"/><line style="stroke:#181818;stroke-width:1.0;" x1="461" x2="999" y1="454.4375" y2="454.4375"/><text fill="#000000" font-family="sans-serif" font-size="13" font-weight="bold" lengthAdjust="spacing" textLength="14" x="468" y="449.5811">11</text><text fill="#000000" font-family="sans-serif" font-size="13" lengthAdjust="spacing" textLength="101" x="486" y="449.5811">UpdateUser(user)</text><polygon fill="#181818" points="1185.5,480.7891,1195.5,484.7891,1185.5,488.7891,1189.5,484.7891" style="stroke:#181818;stroke-width:1.0;"/><line style="stroke:#181818;stroke-width:1.0;" x1="461" x2="1191.5" y1="484.7891" y2="484.7891"/><text fill="#000000" font-family="sans-serif" font-size="13" font-weight="bold" lengthAdjust="spacing" textLength="14" x="468" y="479.9326">12</text><text fill="#000000" font-family="sans-serif" font-size="13" lengthAdjust="spacing" textLength="125" x="486" y="479.9326">UpdateAsync(patient)</text><polygon fill="#181818" points="472,511.1406,462,515.1406,472,519.1406,468,515.1406" style="stroke:#181818;stroke-width:1.0;"/><line style="stroke:#181818;stroke-width:1.0;stroke-dasharray:2.0,2.0;" x1="466" x2="1201.5" y1="515.1406" y2="515.1406"/><text fill="#000000" font-family="sans-serif" font-size="13" font-weight="bold" lengthAdjust="spacing" textLength="14" x="478" y="510.2842">13</text><text fill="#000000" font-family="sans-serif" font-size="13" lengthAdjust="spacing" textLength="39" x="496" y="510.2842">patient</text><polygon fill="#181818" points="1076,541.4922,1086,545.4922,1076,549.4922,1080,545.4922" style="stroke:#181818;stroke-width:1.0;"/><line style="stroke:#181818;stroke-width:1.0;" x1="461" x2="1082" y1="545.4922" y2="545.4922"/><text fill="#000000" font-family="sans-serif" font-size="13" font-weight="bold" lengthAdjust="spacing" textLength="14" x="468" y="540.6357">14</text><text fill="#000000" font-family="sans-serif" font-size="13" lengthAdjust="spacing" textLength="170" x="486" y="540.6357">create(Username,Email,Role)</text><polygon fill="#181818" points="472,571.8438,462,575.8438,472,579.8438,468,575.8438" style="stroke:#181818;stroke-width:1.0;"/><line style="stroke:#181818;stroke-width:1.0;stroke-dasharray:2.0,2.0;" x1="466" x2="1092" y1="575.8438" y2="575.8438"/><text fill="#000000" font-family="sans-serif" font-size="13" font-weight="bold" lengthAdjust="spacing" textLength="14" x="478" y="570.9873">15</text><text fill="#000000" font-family="sans-serif" font-size="13" lengthAdjust="spacing" textLength="45" x="496" y="570.9873">userDto</text><polygon fill="#181818" points="205,602.1953,195,606.1953,205,610.1953,201,606.1953" style="stroke:#181818;stroke-width:1.0;"/><line style="stroke:#181818;stroke-width:1.0;stroke-dasharray:2.0,2.0;" x1="199" x2="455" y1="606.1953" y2="606.1953"/><text fill="#000000" font-family="sans-serif" font-size="13" font-weight="bold" lengthAdjust="spacing" textLength="14" x="211" y="601.3389">16</text><text fill="#000000" font-family="sans-serif" font-size="13" lengthAdjust="spacing" textLength="45" x="229" y="601.3389">userDto</text><ellipse cx="68.5" cy="635.7969" fill="none" rx="4" ry="4" style="stroke:#181818;stroke-width:1.5;"/><polygon fill="#181818" points="85.5,632.5469,75.5,636.5469,85.5,640.5469,81.5,636.5469" style="stroke:#181818;stroke-width:1.0;"/><line style="stroke:#181818;stroke-width:1.0;stroke-dasharray:2.0,2.0;" x1="83.5" x2="188" y1="636.5469" y2="636.5469"/><text fill="#000000" font-family="sans-serif" font-size="13" font-weight="bold" lengthAdjust="spacing" textLength="14" x="86" y="631.6904">17</text><text fill="#000000" font-family="sans-serif" font-size="13" lengthAdjust="spacing" textLength="70" x="104" y="631.6904">201 Created</text><!--SRC=[hLJBRi8m4BpdArQSYiIh5QU8XoZGYWj553x09AlAKh2Zn47bxsixJcBdeHQfliHsTcRNisEJJ72MNI-OU5vC4a436XCce7TECKdNd8c4Hn4cFI0fL4kOpQh5Oj64Vc9oem5gc9bBZ9cr0NIaciYm3RyIokfH1o8eCg43pRmpLX5j12z9vToE3OaW5v8Yz7Q6wOWnJwdWoTtchtOxq8gx1dMtR9otvCE5BQ8FXu_F4un9JCUPqdiSvtbJpoE1e3SYq8htF933maksGbiVI1YgrARoLNfdmLEGe5ooBoD1FsSegGqutrMZO9F4JGLyU4VnUj_AqqIjz2Fzgr_HbOaQP5MC6irSG-TeHfKA5E9Vg4aa2YZCvy2oA08tSNdUUb_sNBpnZ8NRxm1ZGJbpSKi-6mvTn7GoLIZGi2eQMGYj-cgh-w0bn8QIwil85GUj4W-EFCBHONNQRVUdDhrLj5knJkUgcZb1bgGkkW0KHJkEM8LXRWL5rbL9LzjhR0zKryROzAvaESVoigA2r2lynUevC3-RyT2_6Rl5sGNWGOVN_AHUkT9IfOKgotGrIEAQdL5apPOueRMkEFywhvR3OZ4uZr7B1NkPFCDQ7qrUBmjdluy_]--></g></svg>