<?xml version="1.0" encoding="us-ascii" standalone="no"?><svg xmlns="http://www.w3.org/2000/svg" xmlns:xlink="http://www.w3.org/1999/xlink" contentStyleType="text/css" height="1064px" preserveAspectRatio="none" style="width:1892px;height:1064px;background:#FFFFFF;" version="1.1" viewBox="0 0 1892 1064" width="1892px" zoomAndPan="magnify"><defs/><g><rect fill="#ADD8E6" height="1045.1484" style="stroke:#181818;stroke-width:0.5;" width="724" x="156.5" y="6"/><text fill="#000000" font-family="sans-serif" font-size="13" font-weight="bold" lengthAdjust="spacing" textLength="85" x="476" y="19.4951">&#171;system (C4)&#187;</text><text fill="#000000" font-family="sans-serif" font-size="13" font-weight="bold" lengthAdjust="spacing" textLength="57" x="490" y="35.8467">Frontend</text><rect fill="#DDDDDD" height="1045.1484" style="stroke:#181818;stroke-width:0.5;" width="969" x="917.5" y="6"/><text fill="#000000" font-family="sans-serif" font-size="13" font-weight="bold" lengthAdjust="spacing" textLength="85" x="1359.5" y="19.4951">&#171;system (C4)&#187;</text><text fill="#000000" font-family="sans-serif" font-size="13" font-weight="bold" lengthAdjust="spacing" textLength="92" x="1356" y="35.8467">Backend Node</text><rect fill="#FFFFFF" height="815.0078" style="stroke:#181818;stroke-width:1.0;" width="10" x="22.5" y="133.9219"/><rect fill="#FFFFFF" height="30.3516" style="stroke:#181818;stroke-width:1.0;" width="10" x="221.5" y="156.2734"/><rect fill="#FFFFFF" height="731.9531" style="stroke:#181818;stroke-width:1.0;" width="10" x="221.5" y="216.9766"/><rect fill="#FFFFFF" height="671.25" style="stroke:#181818;stroke-width:1.0;" width="10" x="363.5" y="247.3281"/><rect fill="#FFFFFF" height="550.3281" style="stroke:#181818;stroke-width:1.0;" width="10" x="647.5" y="337.8984"/><rect fill="#FFFFFF" height="489.625" style="stroke:#181818;stroke-width:1.0;" width="10" x="805.5" y="368.25"/><rect fill="#FFFFFF" height="428.9219" style="stroke:#181818;stroke-width:1.0;" width="10" x="966.5" y="398.6016"/><rect fill="#FFFFFF" height="368.2188" style="stroke:#181818;stroke-width:1.0;" width="10" x="1162.5" y="428.9531"/><rect fill="#FFFFFF" height="307.5156" style="stroke:#181818;stroke-width:1.0;" width="10" x="1354.5" y="459.3047"/><rect fill="#FFFFFF" height="30.3516" style="stroke:#181818;stroke-width:1.0;" width="10" x="1742.5" y="706.1172"/><rect fill="#FFFFFF" height="30.3516" style="stroke:#181818;stroke-width:1.0;" width="10" x="1836" y="489.6563"/><rect fill="none" height="48.7031" style="stroke:#000000;stroke-width:1.5;" width="408" x="1297.5" y="535.0078"/><rect fill="none" height="48.7031" style="stroke:#000000;stroke-width:1.5;" width="408" x="1297.5" y="597.7109"/><line style="stroke:#181818;stroke-width:0.5;stroke-dasharray:5.0,5.0;" x1="27" x2="27" y1="123.9219" y2="966.9297"/><line style="stroke:#181818;stroke-width:0.5;stroke-dasharray:5.0,5.0;" x1="226.5" x2="226.5" y1="123.9219" y2="966.9297"/><line style="stroke:#181818;stroke-width:0.5;stroke-dasharray:5.0,5.0;" x1="368.5" x2="368.5" y1="123.9219" y2="966.9297"/><line style="stroke:#181818;stroke-width:0.5;stroke-dasharray:5.0,5.0;" x1="510.5" x2="510.5" y1="295.4375" y2="966.9297"/><line style="stroke:#181818;stroke-width:0.5;stroke-dasharray:5.0,5.0;" x1="652.5" x2="652.5" y1="123.9219" y2="966.9297"/><line style="stroke:#181818;stroke-width:0.5;stroke-dasharray:5.0,5.0;" x1="810.5" x2="810.5" y1="123.9219" y2="966.9297"/><line style="stroke:#181818;stroke-width:0.5;stroke-dasharray:5.0,5.0;" x1="971.5" x2="971.5" y1="123.9219" y2="966.9297"/><line style="stroke:#181818;stroke-width:0.5;stroke-dasharray:5.0,5.0;" x1="1167" x2="1167" y1="123.9219" y2="966.9297"/><line style="stroke:#181818;stroke-width:0.5;stroke-dasharray:5.0,5.0;" x1="1359.5" x2="1359.5" y1="123.9219" y2="966.9297"/><line style="stroke:#181818;stroke-width:0.5;stroke-dasharray:5.0,5.0;" x1="1656.5" x2="1656.5" y1="123.9219" y2="966.9297"/><line style="stroke:#181818;stroke-width:0.5;stroke-dasharray:5.0,5.0;" x1="1747.5" x2="1747.5" y1="123.9219" y2="966.9297"/><line style="stroke:#181818;stroke-width:0.5;stroke-dasharray:5.0,5.0;" x1="1840.5" x2="1840.5" y1="123.9219" y2="966.9297"/><text fill="#000000" font-family="sans-serif" font-size="14" lengthAdjust="spacing" textLength="39" x="5" y="120.8457">Admin</text><ellipse cx="27.5" cy="54.8125" fill="#E2E2F0" rx="8" ry="8" style="stroke:#181818;stroke-width:0.5;"/><path d="M27.5,62.8125 L27.5,89.8125 M14.5,70.8125 L40.5,70.8125 M27.5,89.8125 L14.5,104.8125 M27.5,89.8125 L40.5,104.8125 " fill="none" style="stroke:#181818;stroke-width:0.5;"/><text fill="#000000" font-family="sans-serif" font-size="14" lengthAdjust="spacing" textLength="39" x="5" y="980.4629">Admin</text><ellipse cx="27.5" cy="992.0391" fill="#E2E2F0" rx="8" ry="8" style="stroke:#181818;stroke-width:0.5;"/><path d="M27.5,1000.0391 L27.5,1027.0391 M14.5,1008.0391 L40.5,1008.0391 M27.5,1027.0391 L14.5,1042.0391 M27.5,1027.0391 L40.5,1042.0391 " fill="none" style="stroke:#181818;stroke-width:0.5;"/><rect fill="#E2E2F0" height="49.2188" rx="2.5" ry="2.5" style="stroke:#181818;stroke-width:0.5;" width="132" x="160.5" y="73.7031"/><text fill="#000000" font-family="sans-serif" font-size="14" font-style="italic" lengthAdjust="spacing" textLength="118" x="167.5" y="95.2363">&#171;component (C4)&#187;</text><text fill="#000000" font-family="sans-serif" font-size="14" lengthAdjust="spacing" textLength="89" x="182" y="112.8457">UI Component</text><rect fill="#E2E2F0" height="49.2188" rx="2.5" ry="2.5" style="stroke:#181818;stroke-width:0.5;" width="132" x="160.5" y="965.9297"/><text fill="#000000" font-family="sans-serif" font-size="14" font-style="italic" lengthAdjust="spacing" textLength="118" x="167.5" y="987.4629">&#171;component (C4)&#187;</text><text fill="#000000" font-family="sans-serif" font-size="14" lengthAdjust="spacing" textLength="89" x="182" y="1005.0723">UI Component</text><rect fill="#E2E2F0" height="49.2188" rx="2.5" ry="2.5" style="stroke:#181818;stroke-width:0.5;" width="132" x="302.5" y="73.7031"/><text fill="#000000" font-family="sans-serif" font-size="14" font-style="italic" lengthAdjust="spacing" textLength="118" x="309.5" y="95.2363">&#171;component (C4)&#187;</text><text fill="#000000" font-family="sans-serif" font-size="14" lengthAdjust="spacing" textLength="73" x="332" y="112.8457">Component</text><rect fill="#E2E2F0" height="49.2188" rx="2.5" ry="2.5" style="stroke:#181818;stroke-width:0.5;" width="132" x="302.5" y="965.9297"/><text fill="#000000" font-family="sans-serif" font-size="14" font-style="italic" lengthAdjust="spacing" textLength="118" x="309.5" y="987.4629">&#171;component (C4)&#187;</text><text fill="#000000" font-family="sans-serif" font-size="14" lengthAdjust="spacing" textLength="73" x="332" y="1005.0723">Component</text><rect fill="#E2E2F0" height="49.2188" rx="2.5" ry="2.5" style="stroke:#181818;stroke-width:0.5;" width="132" x="444.5" y="965.9297"/><text fill="#000000" font-family="sans-serif" font-size="14" font-style="italic" lengthAdjust="spacing" textLength="118" x="451.5" y="987.4629">&#171;component (C4)&#187;</text><text fill="#000000" font-family="sans-serif" font-size="14" lengthAdjust="spacing" textLength="38" x="491.5" y="1005.0723">Model</text><rect fill="#E2E2F0" height="49.2188" rx="2.5" ry="2.5" style="stroke:#181818;stroke-width:0.5;" width="132" x="586.5" y="73.7031"/><text fill="#000000" font-family="sans-serif" font-size="14" font-style="italic" lengthAdjust="spacing" textLength="118" x="593.5" y="95.2363">&#171;component (C4)&#187;</text><text fill="#000000" font-family="sans-serif" font-size="14" lengthAdjust="spacing" textLength="47" x="629" y="112.8457">Service</text><rect fill="#E2E2F0" height="49.2188" rx="2.5" ry="2.5" style="stroke:#181818;stroke-width:0.5;" width="132" x="586.5" y="965.9297"/><text fill="#000000" font-family="sans-serif" font-size="14" font-style="italic" lengthAdjust="spacing" textLength="118" x="593.5" y="987.4629">&#171;component (C4)&#187;</text><text fill="#000000" font-family="sans-serif" font-size="14" lengthAdjust="spacing" textLength="47" x="629" y="1005.0723">Service</text><rect fill="#E2E2F0" height="49.2188" rx="2.5" ry="2.5" style="stroke:#181818;stroke-width:0.5;" width="132" x="744.5" y="73.7031"/><text fill="#000000" font-family="sans-serif" font-size="14" font-style="italic" lengthAdjust="spacing" textLength="118" x="751.5" y="95.2363">&#171;component (C4)&#187;</text><text fill="#000000" font-family="sans-serif" font-size="14" lengthAdjust="spacing" textLength="36" x="792.5" y="112.8457">HTTP</text><rect fill="#E2E2F0" height="49.2188" rx="2.5" ry="2.5" style="stroke:#181818;stroke-width:0.5;" width="132" x="744.5" y="965.9297"/><text fill="#000000" font-family="sans-serif" font-size="14" font-style="italic" lengthAdjust="spacing" textLength="118" x="751.5" y="987.4629">&#171;component (C4)&#187;</text><text fill="#000000" font-family="sans-serif" font-size="14" lengthAdjust="spacing" textLength="36" x="792.5" y="1005.0723">HTTP</text><rect fill="#E2E2F0" height="49.2188" rx="2.5" ry="2.5" style="stroke:#181818;stroke-width:0.5;" width="100" x="921.5" y="73.7031"/><text fill="#000000" font-family="sans-serif" font-size="14" font-style="italic" lengthAdjust="spacing" textLength="59" x="942" y="95.2363">&#171;Router&#187;</text><text fill="#000000" font-family="sans-serif" font-size="14" lengthAdjust="spacing" textLength="86" x="928.5" y="112.8457">AllergyRouter</text><rect fill="#E2E2F0" height="49.2188" rx="2.5" ry="2.5" style="stroke:#181818;stroke-width:0.5;" width="100" x="921.5" y="965.9297"/><text fill="#000000" font-family="sans-serif" font-size="14" font-style="italic" lengthAdjust="spacing" textLength="59" x="942" y="987.4629">&#171;Router&#187;</text><text fill="#000000" font-family="sans-serif" font-size="14" lengthAdjust="spacing" textLength="86" x="928.5" y="1005.0723">AllergyRouter</text><rect fill="#E2E2F0" height="49.2188" rx="2.5" ry="2.5" style="stroke:#181818;stroke-width:0.5;" width="119" x="1108" y="73.7031"/><text fill="#000000" font-family="sans-serif" font-size="14" font-style="italic" lengthAdjust="spacing" textLength="78" x="1128.5" y="95.2363">&#171;Controller&#187;</text><text fill="#000000" font-family="sans-serif" font-size="14" lengthAdjust="spacing" textLength="105" x="1115" y="112.8457">AllergyController</text><rect fill="#E2E2F0" height="49.2188" rx="2.5" ry="2.5" style="stroke:#181818;stroke-width:0.5;" width="119" x="1108" y="965.9297"/><text fill="#000000" font-family="sans-serif" font-size="14" font-style="italic" lengthAdjust="spacing" textLength="78" x="1128.5" y="987.4629">&#171;Controller&#187;</text><text fill="#000000" font-family="sans-serif" font-size="14" lengthAdjust="spacing" textLength="105" x="1115" y="1005.0723">AllergyController</text><rect fill="#E2E2F0" height="49.2188" rx="2.5" ry="2.5" style="stroke:#181818;stroke-width:0.5;" width="104" x="1307.5" y="73.7031"/><text fill="#000000" font-family="sans-serif" font-size="14" font-style="italic" lengthAdjust="spacing" textLength="62" x="1328.5" y="95.2363">&#171;Service&#187;</text><text fill="#000000" font-family="sans-serif" font-size="14" lengthAdjust="spacing" textLength="90" x="1314.5" y="112.8457">AllergyService</text><rect fill="#E2E2F0" height="49.2188" rx="2.5" ry="2.5" style="stroke:#181818;stroke-width:0.5;" width="104" x="1307.5" y="965.9297"/><text fill="#000000" font-family="sans-serif" font-size="14" font-style="italic" lengthAdjust="spacing" textLength="62" x="1328.5" y="987.4629">&#171;Service&#187;</text><text fill="#000000" font-family="sans-serif" font-size="14" lengthAdjust="spacing" textLength="90" x="1314.5" y="1005.0723">AllergyService</text><rect fill="#E2E2F0" height="49.2188" rx="2.5" ry="2.5" style="stroke:#181818;stroke-width:0.5;" width="78" x="1617.5" y="73.7031"/><text fill="#000000" font-family="sans-serif" font-size="14" font-style="italic" lengthAdjust="spacing" textLength="64" x="1624.5" y="95.2363">&#171;Domain&#187;</text><text fill="#000000" font-family="sans-serif" font-size="14" lengthAdjust="spacing" textLength="43" x="1635" y="112.8457">Allergy</text><rect fill="#E2E2F0" height="49.2188" rx="2.5" ry="2.5" style="stroke:#181818;stroke-width:0.5;" width="78" x="1617.5" y="965.9297"/><text fill="#000000" font-family="sans-serif" font-size="14" font-style="italic" lengthAdjust="spacing" textLength="64" x="1624.5" y="987.4629">&#171;Domain&#187;</text><text fill="#000000" font-family="sans-serif" font-size="14" lengthAdjust="spacing" textLength="43" x="1635" y="1005.0723">Allergy</text><rect fill="#E2E2F0" height="49.2188" rx="2.5" ry="2.5" style="stroke:#181818;stroke-width:0.5;" width="84" x="1705.5" y="73.7031"/><text fill="#000000" font-family="sans-serif" font-size="14" font-style="italic" lengthAdjust="spacing" textLength="65" x="1715" y="95.2363">&#171;Mapper&#187;</text><text fill="#000000" font-family="sans-serif" font-size="14" lengthAdjust="spacing" textLength="70" x="1712.5" y="112.8457">AllergyMap</text><rect fill="#E2E2F0" height="49.2188" rx="2.5" ry="2.5" style="stroke:#181818;stroke-width:0.5;" width="84" x="1705.5" y="965.9297"/><text fill="#000000" font-family="sans-serif" font-size="14" font-style="italic" lengthAdjust="spacing" textLength="65" x="1715" y="987.4629">&#171;Mapper&#187;</text><text fill="#000000" font-family="sans-serif" font-size="14" lengthAdjust="spacing" textLength="70" x="1712.5" y="1005.0723">AllergyMap</text><text fill="#000000" font-family="sans-serif" font-size="14" font-style="italic" lengthAdjust="spacing" textLength="64" x="1806" y="103.2363">&#171;Domain&#187;</text><text fill="#000000" font-family="sans-serif" font-size="14" lengthAdjust="spacing" textLength="77" x="1799.5" y="120.8457">AllergyRepo</text><path d="M1823,52.7031 C1823,42.7031 1841,42.7031 1841,42.7031 C1841,42.7031 1859,42.7031 1859,52.7031 L1859,78.7031 C1859,88.7031 1841,88.7031 1841,88.7031 C1841,88.7031 1823,88.7031 1823,78.7031 L1823,52.7031 " fill="#E2E2F0" style="stroke:#181818;stroke-width:1.5;"/><path d="M1823,52.7031 C1823,62.7031 1841,62.7031 1841,62.7031 C1841,62.7031 1859,62.7031 1859,52.7031 " fill="none" style="stroke:#181818;stroke-width:1.5;"/><text fill="#000000" font-family="sans-serif" font-size="14" font-style="italic" lengthAdjust="spacing" textLength="64" x="1806" y="980.4629">&#171;Domain&#187;</text><text fill="#000000" font-family="sans-serif" font-size="14" lengthAdjust="spacing" textLength="77" x="1799.5" y="998.0723">AllergyRepo</text><path d="M1823,1011.1484 C1823,1001.1484 1841,1001.1484 1841,1001.1484 C1841,1001.1484 1859,1001.1484 1859,1011.1484 L1859,1037.1484 C1859,1047.1484 1841,1047.1484 1841,1047.1484 C1841,1047.1484 1823,1047.1484 1823,1037.1484 L1823,1011.1484 " fill="#E2E2F0" style="stroke:#181818;stroke-width:1.5;"/><path d="M1823,1011.1484 C1823,1021.1484 1841,1021.1484 1841,1021.1484 C1841,1021.1484 1859,1021.1484 1859,1011.1484 " fill="none" style="stroke:#181818;stroke-width:1.5;"/><rect fill="#FFFFFF" height="815.0078" style="stroke:#181818;stroke-width:1.0;" width="10" x="22.5" y="133.9219"/><rect fill="#FFFFFF" height="30.3516" style="stroke:#181818;stroke-width:1.0;" width="10" x="221.5" y="156.2734"/><rect fill="#FFFFFF" height="731.9531" style="stroke:#181818;stroke-width:1.0;" width="10" x="221.5" y="216.9766"/><rect fill="#FFFFFF" height="671.25" style="stroke:#181818;stroke-width:1.0;" width="10" x="363.5" y="247.3281"/><rect fill="#FFFFFF" height="550.3281" style="stroke:#181818;stroke-width:1.0;" width="10" x="647.5" y="337.8984"/><rect fill="#FFFFFF" height="489.625" style="stroke:#181818;stroke-width:1.0;" width="10" x="805.5" y="368.25"/><rect fill="#FFFFFF" height="428.9219" style="stroke:#181818;stroke-width:1.0;" width="10" x="966.5" y="398.6016"/><rect fill="#FFFFFF" height="368.2188" style="stroke:#181818;stroke-width:1.0;" width="10" x="1162.5" y="428.9531"/><rect fill="#FFFFFF" height="307.5156" style="stroke:#181818;stroke-width:1.0;" width="10" x="1354.5" y="459.3047"/><rect fill="#FFFFFF" height="30.3516" style="stroke:#181818;stroke-width:1.0;" width="10" x="1742.5" y="706.1172"/><rect fill="#FFFFFF" height="30.3516" style="stroke:#181818;stroke-width:1.0;" width="10" x="1836" y="489.6563"/><polygon fill="#181818" points="209.5,152.2734,219.5,156.2734,209.5,160.2734,213.5,156.2734" style="stroke:#181818;stroke-width:1.0;"/><line style="stroke:#181818;stroke-width:1.0;" x1="32.5" x2="215.5" y1="156.2734" y2="156.2734"/><text fill="#000000" font-family="sans-serif" font-size="13" font-weight="bold" lengthAdjust="spacing" textLength="7" x="48.5" y="151.417">1</text><text fill="#000000" font-family="sans-serif" font-size="13" lengthAdjust="spacing" textLength="146" x="59.5" y="151.417">asks to update an allergy</text><polygon fill="#181818" points="43.5,182.625,33.5,186.625,43.5,190.625,39.5,186.625" style="stroke:#181818;stroke-width:1.0;"/><line style="stroke:#181818;stroke-width:1.0;stroke-dasharray:2.0,2.0;" x1="37.5" x2="225.5" y1="186.625" y2="186.625"/><text fill="#000000" font-family="sans-serif" font-size="13" font-weight="bold" lengthAdjust="spacing" textLength="7" x="66.5" y="181.7686">2</text><text fill="#000000" font-family="sans-serif" font-size="13" lengthAdjust="spacing" textLength="115" x="77.5" y="181.7686">asks to update data</text><polygon fill="#181818" points="209.5,212.9766,219.5,216.9766,209.5,220.9766,213.5,216.9766" style="stroke:#181818;stroke-width:1.0;"/><line style="stroke:#181818;stroke-width:1.0;" x1="32.5" x2="215.5" y1="216.9766" y2="216.9766"/><text fill="#000000" font-family="sans-serif" font-size="13" font-weight="bold" lengthAdjust="spacing" textLength="7" x="87.5" y="212.1201">3</text><text fill="#000000" font-family="sans-serif" font-size="13" lengthAdjust="spacing" textLength="68" x="98.5" y="212.1201">update data</text><polygon fill="#181818" points="351.5,243.3281,361.5,247.3281,351.5,251.3281,355.5,247.3281" style="stroke:#181818;stroke-width:1.0;"/><line style="stroke:#181818;stroke-width:1.0;" x1="231.5" x2="357.5" y1="247.3281" y2="247.3281"/><text fill="#000000" font-family="sans-serif" font-size="13" font-weight="bold" lengthAdjust="spacing" textLength="7" x="242.5" y="242.4717">4</text><text fill="#000000" font-family="sans-serif" font-size="13" lengthAdjust="spacing" textLength="99" x="253.5" y="242.4717">update an allergy</text><polygon fill="#181818" points="432.5,273.6797,442.5,277.6797,432.5,281.6797,436.5,277.6797" style="stroke:#181818;stroke-width:1.0;"/><line style="stroke:#181818;stroke-width:1.0;" x1="373.5" x2="438.5" y1="277.6797" y2="277.6797"/><text fill="#000000" font-family="sans-serif" font-size="13" font-weight="bold" lengthAdjust="spacing" textLength="7" x="385.5" y="272.8232">5</text><text fill="#000000" font-family="sans-serif" font-size="13" lengthAdjust="spacing" textLength="36" x="396.5" y="272.8232">create</text><rect fill="#E2E2F0" height="49.2188" rx="2.5" ry="2.5" style="stroke:#181818;stroke-width:0.5;" width="132" x="444.5" y="255.3281"/><text fill="#000000" font-family="sans-serif" font-size="14" font-style="italic" lengthAdjust="spacing" textLength="118" x="451.5" y="276.8613">&#171;component (C4)&#187;</text><text fill="#000000" font-family="sans-serif" font-size="14" lengthAdjust="spacing" textLength="38" x="491.5" y="294.4707">Model</text><polygon fill="#181818" points="635.5,333.8984,645.5,337.8984,635.5,341.8984,639.5,337.8984" style="stroke:#181818;stroke-width:1.0;"/><line style="stroke:#181818;stroke-width:1.0;" x1="373.5" x2="641.5" y1="337.8984" y2="337.8984"/><text fill="#000000" font-family="sans-serif" font-size="13" font-weight="bold" lengthAdjust="spacing" textLength="7" x="451" y="333.042">6</text><text fill="#000000" font-family="sans-serif" font-size="13" lengthAdjust="spacing" textLength="108" x="462" y="333.042">update new allergy</text><polygon fill="#181818" points="793.5,364.25,803.5,368.25,793.5,372.25,797.5,368.25" style="stroke:#181818;stroke-width:1.0;"/><line style="stroke:#181818;stroke-width:1.0;" x1="657.5" x2="799.5" y1="368.25" y2="368.25"/><text fill="#000000" font-family="sans-serif" font-size="13" font-weight="bold" lengthAdjust="spacing" textLength="7" x="667" y="363.3936">7</text><text fill="#000000" font-family="sans-serif" font-size="13" lengthAdjust="spacing" textLength="118" x="678" y="363.3936">patch('/allergies/{id}')</text><polygon fill="#181818" points="954.5,394.6016,964.5,398.6016,954.5,402.6016,958.5,398.6016" style="stroke:#181818;stroke-width:1.0;"/><line style="stroke:#181818;stroke-width:1.0;" x1="815.5" x2="960.5" y1="398.6016" y2="398.6016"/><text fill="#000000" font-family="sans-serif" font-size="13" font-weight="bold" lengthAdjust="spacing" textLength="7" x="825" y="393.7451">8</text><text fill="#000000" font-family="sans-serif" font-size="13" lengthAdjust="spacing" textLength="121" x="836" y="393.7451">PATCH /allergies/{id}</text><polygon fill="#181818" points="1150.5,424.9531,1160.5,428.9531,1150.5,432.9531,1154.5,428.9531" style="stroke:#181818;stroke-width:1.0;"/><line style="stroke:#181818;stroke-width:1.0;" x1="976.5" x2="1156.5" y1="428.9531" y2="428.9531"/><text fill="#000000" font-family="sans-serif" font-size="13" font-weight="bold" lengthAdjust="spacing" textLength="7" x="986" y="424.0967">9</text><text fill="#000000" font-family="sans-serif" font-size="13" lengthAdjust="spacing" textLength="156" x="997" y="424.0967">updateAllergy(req,res,next)</text><polygon fill="#181818" points="1342.5,455.3047,1352.5,459.3047,1342.5,463.3047,1346.5,459.3047" style="stroke:#181818;stroke-width:1.0;"/><line style="stroke:#181818;stroke-width:1.0;" x1="1172.5" x2="1348.5" y1="459.3047" y2="459.3047"/><text fill="#000000" font-family="sans-serif" font-size="13" font-weight="bold" lengthAdjust="spacing" textLength="14" x="1182" y="454.4482">10</text><text fill="#000000" font-family="sans-serif" font-size="13" lengthAdjust="spacing" textLength="145" x="1200" y="454.4482">updateAllergy(allergyDto)</text><polygon fill="#181818" points="1824,485.6563,1834,489.6563,1824,493.6563,1828,489.6563" style="stroke:#181818;stroke-width:1.0;"/><line style="stroke:#181818;stroke-width:1.0;" x1="1364.5" x2="1830" y1="489.6563" y2="489.6563"/><text fill="#000000" font-family="sans-serif" font-size="13" font-weight="bold" lengthAdjust="spacing" textLength="14" x="1503.25" y="484.7998">11</text><text fill="#000000" font-family="sans-serif" font-size="13" lengthAdjust="spacing" textLength="176" x="1521.25" y="484.7998">findByDomainId(allergyDTO.id)</text><polygon fill="#181818" points="1375.5,516.0078,1365.5,520.0078,1375.5,524.0078,1371.5,520.0078" style="stroke:#181818;stroke-width:1.0;"/><line style="stroke:#181818;stroke-width:1.0;stroke-dasharray:2.0,2.0;" x1="1369.5" x2="1840" y1="520.0078" y2="520.0078"/><text fill="#000000" font-family="sans-serif" font-size="13" font-weight="bold" lengthAdjust="spacing" textLength="14" x="1574.75" y="515.1514">12</text><text fill="#000000" font-family="sans-serif" font-size="13" lengthAdjust="spacing" textLength="38" x="1592.75" y="515.1514">allergy</text><path d="M1297.5,535.0078 L1358.5,535.0078 L1358.5,543.3594 L1348.5,553.3594 L1297.5,553.3594 L1297.5,535.0078 " fill="#EEEEEE" style="stroke:#000000;stroke-width:1.5;"/><rect fill="none" height="48.7031" style="stroke:#000000;stroke-width:1.5;" width="408" x="1297.5" y="535.0078"/><text fill="#000000" font-family="sans-serif" font-size="13" font-weight="bold" lengthAdjust="spacing" textLength="16" x="1312.5" y="549.5029">alt</text><text fill="#000000" font-family="sans-serif" font-size="11" font-weight="bold" lengthAdjust="spacing" textLength="170" x="1373.5" y="548.4268">[allergyDTO.designation != null]</text><polygon fill="#181818" points="1644.5,571.7109,1654.5,575.7109,1644.5,579.7109,1648.5,575.7109" style="stroke:#181818;stroke-width:1.0;"/><line style="stroke:#181818;stroke-width:1.0;" x1="1364.5" x2="1650.5" y1="575.7109" y2="575.7109"/><text fill="#000000" font-family="sans-serif" font-size="13" font-weight="bold" lengthAdjust="spacing" textLength="14" x="1376.5" y="570.8545">13</text><text fill="#000000" font-family="sans-serif" font-size="13" lengthAdjust="spacing" textLength="250" x="1394.5" y="570.8545">allergy.designation(allergyDTO.designation)</text><path d="M1297.5,597.7109 L1358.5,597.7109 L1358.5,606.0625 L1348.5,616.0625 L1297.5,616.0625 L1297.5,597.7109 " fill="#EEEEEE" style="stroke:#000000;stroke-width:1.5;"/><rect fill="none" height="48.7031" style="stroke:#000000;stroke-width:1.5;" width="408" x="1297.5" y="597.7109"/><text fill="#000000" font-family="sans-serif" font-size="13" font-weight="bold" lengthAdjust="spacing" textLength="16" x="1312.5" y="612.2061">alt</text><text fill="#000000" font-family="sans-serif" font-size="11" font-weight="bold" lengthAdjust="spacing" textLength="168" x="1373.5" y="611.1299">[allergyDTO.description != null]</text><polygon fill="#181818" points="1644.5,634.4141,1654.5,638.4141,1644.5,642.4141,1648.5,638.4141" style="stroke:#181818;stroke-width:1.0;"/><line style="stroke:#181818;stroke-width:1.0;" x1="1364.5" x2="1650.5" y1="638.4141" y2="638.4141"/><text fill="#000000" font-family="sans-serif" font-size="13" font-weight="bold" lengthAdjust="spacing" textLength="14" x="1379.5" y="633.5576">14</text><text fill="#000000" font-family="sans-serif" font-size="13" lengthAdjust="spacing" textLength="244" x="1397.5" y="633.5576">allergy.description(allergyDTO.description)</text><polygon fill="#181818" points="1829,671.7656,1839,675.7656,1829,679.7656,1833,675.7656" style="stroke:#181818;stroke-width:1.0;"/><line style="stroke:#181818;stroke-width:1.0;" x1="1364.5" x2="1835" y1="675.7656" y2="675.7656"/><text fill="#000000" font-family="sans-serif" font-size="13" font-weight="bold" lengthAdjust="spacing" textLength="14" x="1557.75" y="670.9092">15</text><text fill="#000000" font-family="sans-serif" font-size="13" lengthAdjust="spacing" textLength="72" x="1575.75" y="670.9092">save(allergy)</text><polygon fill="#181818" points="1730.5,702.1172,1740.5,706.1172,1730.5,710.1172,1734.5,706.1172" style="stroke:#181818;stroke-width:1.0;"/><line style="stroke:#181818;stroke-width:1.0;" x1="1364.5" x2="1736.5" y1="706.1172" y2="706.1172"/><text fill="#000000" font-family="sans-serif" font-size="13" font-weight="bold" lengthAdjust="spacing" textLength="14" x="1503" y="701.2607">16</text><text fill="#000000" font-family="sans-serif" font-size="13" lengthAdjust="spacing" textLength="83" x="1521" y="701.2607">toDTO(allergy)</text><polygon fill="#181818" points="1375.5,732.4688,1365.5,736.4688,1375.5,740.4688,1371.5,736.4688" style="stroke:#181818;stroke-width:1.0;"/><line style="stroke:#181818;stroke-width:1.0;stroke-dasharray:2.0,2.0;" x1="1369.5" x2="1746.5" y1="736.4688" y2="736.4688"/><text fill="#000000" font-family="sans-serif" font-size="13" font-weight="bold" lengthAdjust="spacing" textLength="14" x="1515" y="731.6123">17</text><text fill="#000000" font-family="sans-serif" font-size="13" lengthAdjust="spacing" textLength="64" x="1533" y="731.6123">allergyDTO</text><polygon fill="#181818" points="1183.5,762.8203,1173.5,766.8203,1183.5,770.8203,1179.5,766.8203" style="stroke:#181818;stroke-width:1.0;"/><line style="stroke:#181818;stroke-width:1.0;stroke-dasharray:2.0,2.0;" x1="1177.5" x2="1358.5" y1="766.8203" y2="766.8203"/><text fill="#000000" font-family="sans-serif" font-size="13" font-weight="bold" lengthAdjust="spacing" textLength="14" x="1225" y="761.9639">18</text><text fill="#000000" font-family="sans-serif" font-size="13" lengthAdjust="spacing" textLength="64" x="1243" y="761.9639">allergyDTO</text><polygon fill="#181818" points="987.5,793.1719,977.5,797.1719,987.5,801.1719,983.5,797.1719" style="stroke:#181818;stroke-width:1.0;"/><line style="stroke:#181818;stroke-width:1.0;stroke-dasharray:2.0,2.0;" x1="981.5" x2="1166.5" y1="797.1719" y2="797.1719"/><text fill="#000000" font-family="sans-serif" font-size="13" font-weight="bold" lengthAdjust="spacing" textLength="14" x="1031" y="792.3154">19</text><text fill="#000000" font-family="sans-serif" font-size="13" lengthAdjust="spacing" textLength="64" x="1049" y="792.3154">allergyDTO</text><polygon fill="#181818" points="826.5,823.5234,816.5,827.5234,826.5,831.5234,822.5,827.5234" style="stroke:#181818;stroke-width:1.0;"/><line style="stroke:#181818;stroke-width:1.0;stroke-dasharray:2.0,2.0;" x1="820.5" x2="970.5" y1="827.5234" y2="827.5234"/><text fill="#000000" font-family="sans-serif" font-size="13" font-weight="bold" lengthAdjust="spacing" textLength="14" x="849" y="822.667">20</text><text fill="#000000" font-family="sans-serif" font-size="13" lengthAdjust="spacing" textLength="71" x="867" y="822.667">200 (allergy)</text><polygon fill="#181818" points="668.5,853.875,658.5,857.875,668.5,861.875,664.5,857.875" style="stroke:#181818;stroke-width:1.0;"/><line style="stroke:#181818;stroke-width:1.0;stroke-dasharray:2.0,2.0;" x1="662.5" x2="809.5" y1="857.875" y2="857.875"/><text fill="#000000" font-family="sans-serif" font-size="13" font-weight="bold" lengthAdjust="spacing" textLength="14" x="706" y="853.0186">21</text><text fill="#000000" font-family="sans-serif" font-size="13" lengthAdjust="spacing" textLength="38" x="724" y="853.0186">allergy</text><polygon fill="#181818" points="384.5,884.2266,374.5,888.2266,384.5,892.2266,380.5,888.2266" style="stroke:#181818;stroke-width:1.0;"/><line style="stroke:#181818;stroke-width:1.0;stroke-dasharray:2.0,2.0;" x1="378.5" x2="651.5" y1="888.2266" y2="888.2266"/><text fill="#000000" font-family="sans-serif" font-size="13" font-weight="bold" lengthAdjust="spacing" textLength="14" x="485" y="883.3701">22</text><text fill="#000000" font-family="sans-serif" font-size="13" lengthAdjust="spacing" textLength="38" x="503" y="883.3701">allergy</text><polygon fill="#181818" points="242.5,914.5781,232.5,918.5781,242.5,922.5781,238.5,918.5781" style="stroke:#181818;stroke-width:1.0;"/><line style="stroke:#181818;stroke-width:1.0;stroke-dasharray:2.0,2.0;" x1="236.5" x2="367.5" y1="918.5781" y2="918.5781"/><text fill="#000000" font-family="sans-serif" font-size="13" font-weight="bold" lengthAdjust="spacing" textLength="14" x="272" y="913.7217">23</text><text fill="#000000" font-family="sans-serif" font-size="13" lengthAdjust="spacing" textLength="38" x="290" y="913.7217">allergy</text><polygon fill="#181818" points="38.5,944.9297,28.5,948.9297,38.5,952.9297,34.5,948.9297" style="stroke:#181818;stroke-width:1.0;"/><line style="stroke:#181818;stroke-width:1.0;stroke-dasharray:2.0,2.0;" x1="32.5" x2="225.5" y1="948.9297" y2="948.9297"/><text fill="#000000" font-family="sans-serif" font-size="13" font-weight="bold" lengthAdjust="spacing" textLength="14" x="44.5" y="944.0732">24</text><text fill="#000000" font-family="sans-serif" font-size="13" lengthAdjust="spacing" textLength="147" x="62.5" y="944.0732">shows success message</text><!--SRC=[jPPTRziW58RlyojOTj6aQjPgsbNaHUg7fbPQjwhBxYP5nAOfgWsUmVtGjF- -0zWOsv0utSQ5WmFlSuuF70wub9oLsPeK8_50MOuBdA4BSeVBL2x9ipnDwOPbX4aKmmDcuLZo0fqc6MK82pJMlV5ejERFQ1n5uaL8ag79-OVfOl63VIeug5WoVlkPRkxbMLgI4O86TYIDQOu1VCwpd3EWVx_IHFYnVurH5CNrIqKD0xHyF-qrJqYgTRetIFED58yq9bfLzGVfBfVB6orI7Qy28eKWaA5edk7uGKtv0gwEU_XRNi82cKL9Kr9iNim_m34TR-YOBBYQxUgQVq7Rl8H3iNBLTKYYgEfvTDLKLmRpBtY6AGjFlyQvgu1N4C4pjxubME8r5gHMt9ASjo82xwuX6t3OrlGHIs9sjcQPFJvRj3Re76WF0acEoZnHyp6aWM6FjCg279KPKSr5pG1jRFIWwZECA25XOC317iDBy7hae1fGzmlzI3lKWYgaJgp3Gm361G5DQsPOLcUPzOEHfxuZBMSgINjKjPe5M9s4SzXTChwV71mR82NY-1TDVXzC-rfBLyh-i6gQ2Umg0-VevdHvVeawSA_KqetMprUjOkibiZbRnwRQtPE2_3mgY3XYS79FmondzMfKUB9P66koMPbLptorEXUIJxVYjWvsLtErtJLdULVAEJVnv-YEikJinQJxLM8TN7vzHvFfRd1pAZJKtIgTcuuRitRCl7lOrvpStyi-JYLolZGX0ceubfGpzEOZOcMQ3li6JrWRzrtin6zjG83X_1tcor-rVa3YWkR_8I0rTkAtzgy24jxl0Z-IslZqLI1LO-TGYi3rFK3TZGgKlV94MVMd2VZncanH3knIxH6Uxh4xr3d7CNkS3JretO8on5xhgc3FzLtrf2c9xqzEq8ubTqnKzIfS3bibF7ZcEKHTNuELktCtyGBxqGvTB_gtkYxFT_5oRbtHRDOXY7l-990euvW8WJ9uu8snl-qYv-vS1Vu3]--></g></svg>