<?xml version="1.0" encoding="us-ascii" standalone="no"?><svg xmlns="http://www.w3.org/2000/svg" xmlns:xlink="http://www.w3.org/1999/xlink" contentStyleType="text/css" height="1160px" preserveAspectRatio="none" style="width:2553px;height:1160px;background:#FFFFFF;" version="1.1" viewBox="0 0 2553 1160" width="2553px" zoomAndPan="magnify"><defs/><g><rect fill="#FFFFFF" height="957.8984" style="stroke:#181818;stroke-width:1.0;" width="10" x="69" y="96.2188"/><rect fill="#FFFFFF" height="927.5469" style="stroke:#181818;stroke-width:1.0;" width="10" x="281" y="118.5703"/><rect fill="#FFFFFF" height="837.8438" style="stroke:#181818;stroke-width:1.0;" width="10" x="614" y="148.9219"/><rect fill="#FFFFFF" height="30.3516" style="stroke:#181818;stroke-width:1.0;" width="10" x="1642" y="650.8984"/><rect fill="#FFFFFF" height="30.3516" style="stroke:#181818;stroke-width:1.0;" width="10" x="1793" y="863.3594"/><rect fill="#FFFFFF" height="30.3516" style="stroke:#181818;stroke-width:1.0;" width="10" x="1932" y="179.2734"/><rect fill="#FFFFFF" height="30.3516" style="stroke:#181818;stroke-width:1.0;" width="10" x="2081" y="328.0313"/><rect fill="#FFFFFF" height="30.3516" style="stroke:#181818;stroke-width:1.0;" width="10" x="2237.5" y="502.1406"/><rect fill="#FFFFFF" height="30.3516" style="stroke:#181818;stroke-width:1.0;" width="10" x="2237.5" y="802.6563"/><rect fill="#FFFFFF" height="30.3516" style="stroke:#181818;stroke-width:1.0;" width="10" x="2404.5" y="711.6016"/><rect fill="none" height="821.4922" style="stroke:#000000;stroke-width:1.5;" width="2536" x="10" y="224.625"/><rect fill="none" height="665.7344" style="stroke:#000000;stroke-width:1.5;" width="2516" x="20" y="373.3828"/><rect fill="none" height="570.6797" style="stroke:#000000;stroke-width:1.5;" width="2496" x="30" y="461.4375"/><rect fill="none" height="477.625" style="stroke:#000000;stroke-width:1.5;" width="2476" x="40" y="547.4922"/><line style="stroke:#181818;stroke-width:0.5;stroke-dasharray:5.0,5.0;" x1="74" x2="74" y1="86.2188" y2="1063.1172"/><line style="stroke:#181818;stroke-width:0.5;stroke-dasharray:5.0,5.0;" x1="285.5" x2="285.5" y1="86.2188" y2="1063.1172"/><line style="stroke:#181818;stroke-width:0.5;stroke-dasharray:5.0,5.0;" x1="618.5" x2="618.5" y1="86.2188" y2="1063.1172"/><line style="stroke:#181818;stroke-width:0.5;stroke-dasharray:5.0,5.0;" x1="928" x2="928" y1="86.2188" y2="1063.1172"/><line style="stroke:#181818;stroke-width:0.5;stroke-dasharray:5.0,5.0;" x1="1647" x2="1647" y1="86.2188" y2="1063.1172"/><line style="stroke:#181818;stroke-width:0.5;stroke-dasharray:5.0,5.0;" x1="1798" x2="1798" y1="86.2188" y2="1063.1172"/><line style="stroke:#181818;stroke-width:0.5;stroke-dasharray:5.0,5.0;" x1="1937" x2="1937" y1="86.2188" y2="1063.1172"/><line style="stroke:#181818;stroke-width:0.5;stroke-dasharray:5.0,5.0;" x1="2086" x2="2086" y1="86.2188" y2="1063.1172"/><line style="stroke:#181818;stroke-width:0.5;stroke-dasharray:5.0,5.0;" x1="2242" x2="2242" y1="86.2188" y2="1063.1172"/><line style="stroke:#181818;stroke-width:0.5;stroke-dasharray:5.0,5.0;" x1="2409" x2="2409" y1="86.2188" y2="1063.1172"/><text fill="#000000" font-family="sans-serif" font-size="14" lengthAdjust="spacing" textLength="42" x="50" y="83.1426">Doctor</text><ellipse cx="74" cy="17.1094" fill="#E2E2F0" rx="8" ry="8" style="stroke:#181818;stroke-width:0.5;"/><path d="M74,25.1094 L74,52.1094 M61,33.1094 L87,33.1094 M74,52.1094 L61,67.1094 M74,52.1094 L87,67.1094 " fill="none" style="stroke:#181818;stroke-width:0.5;"/><text fill="#000000" font-family="sans-serif" font-size="14" lengthAdjust="spacing" textLength="42" x="50" y="1076.6504">Doctor</text><ellipse cx="74" cy="1088.2266" fill="#E2E2F0" rx="8" ry="8" style="stroke:#181818;stroke-width:0.5;"/><path d="M74,1096.2266 L74,1123.2266 M61,1104.2266 L87,1104.2266 M74,1123.2266 L61,1138.2266 M74,1123.2266 L87,1138.2266 " fill="none" style="stroke:#181818;stroke-width:0.5;"/><rect fill="#E2E2F0" height="49.2188" rx="2.5" ry="2.5" style="stroke:#181818;stroke-width:0.5;" width="199" x="186.5" y="36"/><text fill="#000000" font-family="sans-serif" font-size="14" font-style="italic" lengthAdjust="spacing" textLength="78" x="247" y="57.5332">&#171;Controller&#187;</text><text fill="#000000" font-family="sans-serif" font-size="14" lengthAdjust="spacing" textLength="185" x="193.5" y="75.1426">OperationRequestsController</text><rect fill="#E2E2F0" height="49.2188" rx="2.5" ry="2.5" style="stroke:#181818;stroke-width:0.5;" width="199" x="186.5" y="1062.1172"/><text fill="#000000" font-family="sans-serif" font-size="14" font-style="italic" lengthAdjust="spacing" textLength="78" x="247" y="1083.6504">&#171;Controller&#187;</text><text fill="#000000" font-family="sans-serif" font-size="14" lengthAdjust="spacing" textLength="185" x="193.5" y="1101.2598">OperationRequestsController</text><rect fill="#E2E2F0" height="49.2188" rx="2.5" ry="2.5" style="stroke:#181818;stroke-width:0.5;" width="177" x="530.5" y="36"/><text fill="#000000" font-family="sans-serif" font-size="14" font-style="italic" lengthAdjust="spacing" textLength="62" x="588" y="57.5332">&#171;Service&#187;</text><text fill="#000000" font-family="sans-serif" font-size="14" lengthAdjust="spacing" textLength="163" x="537.5" y="75.1426">OperationRequestService</text><rect fill="#E2E2F0" height="49.2188" rx="2.5" ry="2.5" style="stroke:#181818;stroke-width:0.5;" width="177" x="530.5" y="1062.1172"/><text fill="#000000" font-family="sans-serif" font-size="14" font-style="italic" lengthAdjust="spacing" textLength="62" x="588" y="1083.6504">&#171;Service&#187;</text><text fill="#000000" font-family="sans-serif" font-size="14" lengthAdjust="spacing" textLength="163" x="537.5" y="1101.2598">OperationRequestService</text><rect fill="#E2E2F0" height="49.2188" rx="2.5" ry="2.5" style="stroke:#181818;stroke-width:0.5;" width="78" x="889" y="36"/><text fill="#000000" font-family="sans-serif" font-size="14" font-style="italic" lengthAdjust="spacing" textLength="64" x="896" y="57.5332">&#171;Domain&#187;</text><text fill="#000000" font-family="sans-serif" font-size="14" lengthAdjust="spacing" textLength="44" x="906" y="75.1426">Patient</text><rect fill="#E2E2F0" height="49.2188" rx="2.5" ry="2.5" style="stroke:#181818;stroke-width:0.5;" width="78" x="889" y="1062.1172"/><text fill="#000000" font-family="sans-serif" font-size="14" font-style="italic" lengthAdjust="spacing" textLength="64" x="896" y="1083.6504">&#171;Domain&#187;</text><text fill="#000000" font-family="sans-serif" font-size="14" lengthAdjust="spacing" textLength="44" x="906" y="1101.2598">Patient</text><rect fill="#E2E2F0" height="49.2188" rx="2.5" ry="2.5" style="stroke:#181818;stroke-width:0.5;" width="130" x="1582" y="36"/><text fill="#000000" font-family="sans-serif" font-size="14" font-style="italic" lengthAdjust="spacing" textLength="64" x="1615" y="57.5332">&#171;Domain&#187;</text><text fill="#000000" font-family="sans-serif" font-size="14" lengthAdjust="spacing" textLength="116" x="1589" y="75.1426">OperationRequest</text><rect fill="#E2E2F0" height="49.2188" rx="2.5" ry="2.5" style="stroke:#181818;stroke-width:0.5;" width="130" x="1582" y="1062.1172"/><text fill="#000000" font-family="sans-serif" font-size="14" font-style="italic" lengthAdjust="spacing" textLength="64" x="1615" y="1083.6504">&#171;Domain&#187;</text><text fill="#000000" font-family="sans-serif" font-size="14" lengthAdjust="spacing" textLength="116" x="1589" y="1101.2598">OperationRequest</text><rect fill="#E2E2F0" height="49.2188" rx="2.5" ry="2.5" style="stroke:#181818;stroke-width:0.5;" width="152" x="1722" y="36"/><text fill="#000000" font-family="sans-serif" font-size="14" font-style="italic" lengthAdjust="spacing" textLength="64" x="1766" y="57.5332">&#171;Domain&#187;</text><text fill="#000000" font-family="sans-serif" font-size="14" lengthAdjust="spacing" textLength="138" x="1729" y="75.1426">OperationRequestDto</text><rect fill="#E2E2F0" height="49.2188" rx="2.5" ry="2.5" style="stroke:#181818;stroke-width:0.5;" width="152" x="1722" y="1062.1172"/><text fill="#000000" font-family="sans-serif" font-size="14" font-style="italic" lengthAdjust="spacing" textLength="64" x="1766" y="1083.6504">&#171;Domain&#187;</text><text fill="#000000" font-family="sans-serif" font-size="14" lengthAdjust="spacing" textLength="138" x="1729" y="1101.2598">OperationRequestDto</text><text fill="#000000" font-family="sans-serif" font-size="14" font-style="italic" lengthAdjust="spacing" textLength="64" x="1902" y="65.5332">&#171;Domain&#187;</text><text fill="#000000" font-family="sans-serif" font-size="14" lengthAdjust="spacing" textLength="100" x="1884" y="83.1426">IStaffRepository</text><path d="M1919,15 C1919,5 1937,5 1937,5 C1937,5 1955,5 1955,15 L1955,41 C1955,51 1937,51 1937,51 C1937,51 1919,51 1919,41 L1919,15 " fill="#E2E2F0" style="stroke:#181818;stroke-width:1.5;"/><path d="M1919,15 C1919,25 1937,25 1937,25 C1937,25 1955,25 1955,15 " fill="none" style="stroke:#181818;stroke-width:1.5;"/><text fill="#000000" font-family="sans-serif" font-size="14" font-style="italic" lengthAdjust="spacing" textLength="64" x="1902" y="1076.6504">&#171;Domain&#187;</text><text fill="#000000" font-family="sans-serif" font-size="14" lengthAdjust="spacing" textLength="100" x="1884" y="1094.2598">IStaffRepository</text><path d="M1919,1107.3359 C1919,1097.3359 1937,1097.3359 1937,1097.3359 C1937,1097.3359 1955,1097.3359 1955,1107.3359 L1955,1133.3359 C1955,1143.3359 1937,1143.3359 1937,1143.3359 C1937,1143.3359 1919,1143.3359 1919,1133.3359 L1919,1107.3359 " fill="#E2E2F0" style="stroke:#181818;stroke-width:1.5;"/><path d="M1919,1107.3359 C1919,1117.3359 1937,1117.3359 1937,1117.3359 C1937,1117.3359 1955,1117.3359 1955,1107.3359 " fill="none" style="stroke:#181818;stroke-width:1.5;"/><text fill="#000000" font-family="sans-serif" font-size="14" font-style="italic" lengthAdjust="spacing" textLength="64" x="2051" y="65.5332">&#171;Domain&#187;</text><text fill="#000000" font-family="sans-serif" font-size="14" lengthAdjust="spacing" textLength="166" x="2000" y="83.1426">IOperationTypeRepository</text><path d="M2068,15 C2068,5 2086,5 2086,5 C2086,5 2104,5 2104,15 L2104,41 C2104,51 2086,51 2086,51 C2086,51 2068,51 2068,41 L2068,15 " fill="#E2E2F0" style="stroke:#181818;stroke-width:1.5;"/><path d="M2068,15 C2068,25 2086,25 2086,25 C2086,25 2104,25 2104,15 " fill="none" style="stroke:#181818;stroke-width:1.5;"/><text fill="#000000" font-family="sans-serif" font-size="14" font-style="italic" lengthAdjust="spacing" textLength="64" x="2051" y="1076.6504">&#171;Domain&#187;</text><text fill="#000000" font-family="sans-serif" font-size="14" lengthAdjust="spacing" textLength="166" x="2000" y="1094.2598">IOperationTypeRepository</text><path d="M2068,1107.3359 C2068,1097.3359 2086,1097.3359 2086,1097.3359 C2086,1097.3359 2104,1097.3359 2104,1107.3359 L2104,1133.3359 C2104,1143.3359 2086,1143.3359 2086,1143.3359 C2086,1143.3359 2068,1143.3359 2068,1133.3359 L2068,1107.3359 " fill="#E2E2F0" style="stroke:#181818;stroke-width:1.5;"/><path d="M2068,1107.3359 C2068,1117.3359 2086,1117.3359 2086,1117.3359 C2086,1117.3359 2104,1117.3359 2104,1107.3359 " fill="none" style="stroke:#181818;stroke-width:1.5;"/><text fill="#000000" font-family="sans-serif" font-size="14" font-style="italic" lengthAdjust="spacing" textLength="64" x="2207.5" y="65.5332">&#171;Domain&#187;</text><text fill="#000000" font-family="sans-serif" font-size="14" lengthAdjust="spacing" textLength="115" x="2182" y="83.1426">IPatientRepository</text><path d="M2224.5,15 C2224.5,5 2242.5,5 2242.5,5 C2242.5,5 2260.5,5 2260.5,15 L2260.5,41 C2260.5,51 2242.5,51 2242.5,51 C2242.5,51 2224.5,51 2224.5,41 L2224.5,15 " fill="#E2E2F0" style="stroke:#181818;stroke-width:1.5;"/><path d="M2224.5,15 C2224.5,25 2242.5,25 2242.5,25 C2242.5,25 2260.5,25 2260.5,15 " fill="none" style="stroke:#181818;stroke-width:1.5;"/><text fill="#000000" font-family="sans-serif" font-size="14" font-style="italic" lengthAdjust="spacing" textLength="64" x="2207.5" y="1076.6504">&#171;Domain&#187;</text><text fill="#000000" font-family="sans-serif" font-size="14" lengthAdjust="spacing" textLength="115" x="2182" y="1094.2598">IPatientRepository</text><path d="M2224.5,1107.3359 C2224.5,1097.3359 2242.5,1097.3359 2242.5,1097.3359 C2242.5,1097.3359 2260.5,1097.3359 2260.5,1107.3359 L2260.5,1133.3359 C2260.5,1143.3359 2242.5,1143.3359 2242.5,1143.3359 C2242.5,1143.3359 2224.5,1143.3359 2224.5,1133.3359 L2224.5,1107.3359 " fill="#E2E2F0" style="stroke:#181818;stroke-width:1.5;"/><path d="M2224.5,1107.3359 C2224.5,1117.3359 2242.5,1117.3359 2242.5,1117.3359 C2242.5,1117.3359 2260.5,1117.3359 2260.5,1107.3359 " fill="none" style="stroke:#181818;stroke-width:1.5;"/><text fill="#000000" font-family="sans-serif" font-size="14" font-style="italic" lengthAdjust="spacing" textLength="64" x="2374.5" y="65.5332">&#171;Domain&#187;</text><text fill="#000000" font-family="sans-serif" font-size="14" lengthAdjust="spacing" textLength="187" x="2313" y="83.1426">IOperationRequestRepository</text><path d="M2391.5,15 C2391.5,5 2409.5,5 2409.5,5 C2409.5,5 2427.5,5 2427.5,15 L2427.5,41 C2427.5,51 2409.5,51 2409.5,51 C2409.5,51 2391.5,51 2391.5,41 L2391.5,15 " fill="#E2E2F0" style="stroke:#181818;stroke-width:1.5;"/><path d="M2391.5,15 C2391.5,25 2409.5,25 2409.5,25 C2409.5,25 2427.5,25 2427.5,15 " fill="none" style="stroke:#181818;stroke-width:1.5;"/><text fill="#000000" font-family="sans-serif" font-size="14" font-style="italic" lengthAdjust="spacing" textLength="64" x="2374.5" y="1076.6504">&#171;Domain&#187;</text><text fill="#000000" font-family="sans-serif" font-size="14" lengthAdjust="spacing" textLength="187" x="2313" y="1094.2598">IOperationRequestRepository</text><path d="M2391.5,1107.3359 C2391.5,1097.3359 2409.5,1097.3359 2409.5,1097.3359 C2409.5,1097.3359 2427.5,1097.3359 2427.5,1107.3359 L2427.5,1133.3359 C2427.5,1143.3359 2409.5,1143.3359 2409.5,1143.3359 C2409.5,1143.3359 2391.5,1143.3359 2391.5,1133.3359 L2391.5,1107.3359 " fill="#E2E2F0" style="stroke:#181818;stroke-width:1.5;"/><path d="M2391.5,1107.3359 C2391.5,1117.3359 2409.5,1117.3359 2409.5,1117.3359 C2409.5,1117.3359 2427.5,1117.3359 2427.5,1107.3359 " fill="none" style="stroke:#181818;stroke-width:1.5;"/><rect fill="#FFFFFF" height="957.8984" style="stroke:#181818;stroke-width:1.0;" width="10" x="69" y="96.2188"/><rect fill="#FFFFFF" height="927.5469" style="stroke:#181818;stroke-width:1.0;" width="10" x="281" y="118.5703"/><rect fill="#FFFFFF" height="837.8438" style="stroke:#181818;stroke-width:1.0;" width="10" x="614" y="148.9219"/><rect fill="#FFFFFF" height="30.3516" style="stroke:#181818;stroke-width:1.0;" width="10" x="1642" y="650.8984"/><rect fill="#FFFFFF" height="30.3516" style="stroke:#181818;stroke-width:1.0;" width="10" x="1793" y="863.3594"/><rect fill="#FFFFFF" height="30.3516" style="stroke:#181818;stroke-width:1.0;" width="10" x="1932" y="179.2734"/><rect fill="#FFFFFF" height="30.3516" style="stroke:#181818;stroke-width:1.0;" width="10" x="2081" y="328.0313"/><rect fill="#FFFFFF" height="30.3516" style="stroke:#181818;stroke-width:1.0;" width="10" x="2237.5" y="502.1406"/><rect fill="#FFFFFF" height="30.3516" style="stroke:#181818;stroke-width:1.0;" width="10" x="2237.5" y="802.6563"/><rect fill="#FFFFFF" height="30.3516" style="stroke:#181818;stroke-width:1.0;" width="10" x="2404.5" y="711.6016"/><polygon fill="#181818" points="269,114.5703,279,118.5703,269,122.5703,273,118.5703" style="stroke:#181818;stroke-width:1.0;"/><line style="stroke:#181818;stroke-width:1.0;" x1="79" x2="275" y1="118.5703" y2="118.5703"/><text fill="#000000" font-family="sans-serif" font-size="13" font-weight="bold" lengthAdjust="spacing" textLength="7" x="86" y="113.7139">1</text><text fill="#000000" font-family="sans-serif" font-size="13" lengthAdjust="spacing" textLength="172" x="97" y="113.7139">POST /api/operationRequests</text><polygon fill="#181818" points="602,144.9219,612,148.9219,602,152.9219,606,148.9219" style="stroke:#181818;stroke-width:1.0;"/><line style="stroke:#181818;stroke-width:1.0;" x1="291" x2="608" y1="148.9219" y2="148.9219"/><text fill="#000000" font-family="sans-serif" font-size="13" font-weight="bold" lengthAdjust="spacing" textLength="7" x="298" y="144.0654">2</text><text fill="#000000" font-family="sans-serif" font-size="13" lengthAdjust="spacing" textLength="293" x="309" y="144.0654">AddOperationRequestAsync(operationRequestDto)</text><polygon fill="#181818" points="1920,175.2734,1930,179.2734,1920,183.2734,1924,179.2734" style="stroke:#181818;stroke-width:1.0;"/><line style="stroke:#181818;stroke-width:1.0;" x1="624" x2="1926" y1="179.2734" y2="179.2734"/><text fill="#000000" font-family="sans-serif" font-size="13" font-weight="bold" lengthAdjust="spacing" textLength="7" x="631" y="174.417">3</text><text fill="#000000" font-family="sans-serif" font-size="13" lengthAdjust="spacing" textLength="269" x="642" y="174.417">getStaffsAsync(operationRequestDto.doctorID)</text><polygon fill="#181818" points="635,205.625,625,209.625,635,213.625,631,209.625" style="stroke:#181818;stroke-width:1.0;"/><line style="stroke:#181818;stroke-width:1.0;stroke-dasharray:2.0,2.0;" x1="629" x2="1936" y1="209.625" y2="209.625"/><text fill="#000000" font-family="sans-serif" font-size="13" font-weight="bold" lengthAdjust="spacing" textLength="7" x="641" y="204.7686">4</text><text fill="#000000" font-family="sans-serif" font-size="13" lengthAdjust="spacing" textLength="36" x="652" y="204.7686">doctor</text><path d="M10,224.625 L71,224.625 L71,232.9766 L61,242.9766 L10,242.9766 L10,224.625 " fill="#EEEEEE" style="stroke:#000000;stroke-width:1.5;"/><rect fill="none" height="821.4922" style="stroke:#000000;stroke-width:1.5;" width="2536" x="10" y="224.625"/><text fill="#000000" font-family="sans-serif" font-size="13" font-weight="bold" lengthAdjust="spacing" textLength="16" x="25" y="239.1201">alt</text><text fill="#000000" font-family="sans-serif" font-size="11" font-weight="bold" lengthAdjust="spacing" textLength="76" x="86" y="238.0439">[doctor==null]</text><polygon fill="#181818" points="302,261.3281,292,265.3281,302,269.3281,298,265.3281" style="stroke:#181818;stroke-width:1.0;"/><line style="stroke:#181818;stroke-width:1.0;stroke-dasharray:2.0,2.0;" x1="296" x2="613" y1="265.3281" y2="265.3281"/><text fill="#000000" font-family="sans-serif" font-size="13" font-weight="bold" lengthAdjust="spacing" textLength="7" x="308" y="260.4717">5</text><text fill="#000000" font-family="sans-serif" font-size="13" lengthAdjust="spacing" textLength="138" x="319" y="260.4717">NullReferenceException</text><polygon fill="#181818" points="90,291.6797,80,295.6797,90,299.6797,86,295.6797" style="stroke:#181818;stroke-width:1.0;"/><line style="stroke:#181818;stroke-width:1.0;stroke-dasharray:2.0,2.0;" x1="84" x2="280" y1="295.6797" y2="295.6797"/><text fill="#000000" font-family="sans-serif" font-size="13" font-weight="bold" lengthAdjust="spacing" textLength="7" x="96" y="290.8232">6</text><text fill="#000000" font-family="sans-serif" font-size="13" lengthAdjust="spacing" textLength="85" x="107" y="290.8232">404 Not Found</text><line style="stroke:#000000;stroke-width:1.0;stroke-dasharray:2.0,2.0;" x1="10" x2="2546" y1="304.6797" y2="304.6797"/><polygon fill="#181818" points="2069,324.0313,2079,328.0313,2069,332.0313,2073,328.0313" style="stroke:#181818;stroke-width:1.0;"/><line style="stroke:#181818;stroke-width:1.0;" x1="624" x2="2075" y1="328.0313" y2="328.0313"/><text fill="#000000" font-family="sans-serif" font-size="13" font-weight="bold" lengthAdjust="spacing" textLength="7" x="631" y="323.1748">7</text><text fill="#000000" font-family="sans-serif" font-size="13" lengthAdjust="spacing" textLength="307" x="642" y="323.1748">getByIdAsync(operationRequestDto.operationTypeID)</text><polygon fill="#181818" points="635,354.3828,625,358.3828,635,362.3828,631,358.3828" style="stroke:#181818;stroke-width:1.0;"/><line style="stroke:#181818;stroke-width:1.0;stroke-dasharray:2.0,2.0;" x1="629" x2="2085" y1="358.3828" y2="358.3828"/><text fill="#000000" font-family="sans-serif" font-size="13" font-weight="bold" lengthAdjust="spacing" textLength="7" x="641" y="353.5264">8</text><text fill="#000000" font-family="sans-serif" font-size="13" lengthAdjust="spacing" textLength="81" x="652" y="353.5264">operationType</text><path d="M20,373.3828 L81,373.3828 L81,381.7344 L71,391.7344 L20,391.7344 L20,373.3828 " fill="#EEEEEE" style="stroke:#000000;stroke-width:1.5;"/><rect fill="none" height="665.7344" style="stroke:#000000;stroke-width:1.5;" width="2516" x="20" y="373.3828"/><text fill="#000000" font-family="sans-serif" font-size="13" font-weight="bold" lengthAdjust="spacing" textLength="16" x="35" y="387.8779">alt</text><text fill="#000000" font-family="sans-serif" font-size="11" font-weight="bold" lengthAdjust="spacing" textLength="120" x="96" y="386.8018">[operationType==null]</text><polygon fill="#181818" points="302,410.0859,292,414.0859,302,418.0859,298,414.0859" style="stroke:#181818;stroke-width:1.0;"/><line style="stroke:#181818;stroke-width:1.0;stroke-dasharray:2.0,2.0;" x1="296" x2="613" y1="414.0859" y2="414.0859"/><text fill="#000000" font-family="sans-serif" font-size="13" font-weight="bold" lengthAdjust="spacing" textLength="7" x="308" y="409.2295">9</text><text fill="#000000" font-family="sans-serif" font-size="13" lengthAdjust="spacing" textLength="195" x="319" y="409.2295">BusinessRuleValidationException</text><polygon fill="#181818" points="90,440.4375,80,444.4375,90,448.4375,86,444.4375" style="stroke:#181818;stroke-width:1.0;"/><line style="stroke:#181818;stroke-width:1.0;stroke-dasharray:2.0,2.0;" x1="84" x2="280" y1="444.4375" y2="444.4375"/><text fill="#000000" font-family="sans-serif" font-size="13" font-weight="bold" lengthAdjust="spacing" textLength="14" x="96" y="439.5811">10</text><text fill="#000000" font-family="sans-serif" font-size="13" lengthAdjust="spacing" textLength="85" x="114" y="439.5811">404 Not Found</text><line style="stroke:#000000;stroke-width:1.0;stroke-dasharray:2.0,2.0;" x1="20" x2="2536" y1="453.4375" y2="453.4375"/><path d="M30,461.4375 L91,461.4375 L91,469.7891 L81,479.7891 L30,479.7891 L30,461.4375 " fill="#EEEEEE" style="stroke:#000000;stroke-width:1.5;"/><rect fill="none" height="570.6797" style="stroke:#000000;stroke-width:1.5;" width="2496" x="30" y="461.4375"/><text fill="#000000" font-family="sans-serif" font-size="13" font-weight="bold" lengthAdjust="spacing" textLength="16" x="45" y="475.9326">alt</text><text fill="#000000" font-family="sans-serif" font-size="11" font-weight="bold" lengthAdjust="spacing" textLength="407" x="106" y="474.8564">[doctor.specialization.OperationTypeSpecialization == operationType then]</text><polygon fill="#181818" points="2225.5,498.1406,2235.5,502.1406,2225.5,506.1406,2229.5,502.1406" style="stroke:#181818;stroke-width:1.0;"/><line style="stroke:#181818;stroke-width:1.0;" x1="624" x2="2231.5" y1="502.1406" y2="502.1406"/><text fill="#000000" font-family="sans-serif" font-size="13" font-weight="bold" lengthAdjust="spacing" textLength="14" x="631" y="497.2842">11</text><text fill="#000000" font-family="sans-serif" font-size="13" lengthAdjust="spacing" textLength="345" x="649" y="497.2842">getByIdAsync(operationRequestDto.medicalRecordNumber)</text><polygon fill="#181818" points="635,528.4922,625,532.4922,635,536.4922,631,532.4922" style="stroke:#181818;stroke-width:1.0;"/><line style="stroke:#181818;stroke-width:1.0;stroke-dasharray:2.0,2.0;" x1="629" x2="2241.5" y1="532.4922" y2="532.4922"/><text fill="#000000" font-family="sans-serif" font-size="13" font-weight="bold" lengthAdjust="spacing" textLength="14" x="641" y="527.6357">12</text><text fill="#000000" font-family="sans-serif" font-size="13" lengthAdjust="spacing" textLength="39" x="659" y="527.6357">patient</text><path d="M40,547.4922 L101,547.4922 L101,555.8438 L91,565.8438 L40,565.8438 L40,547.4922 " fill="#EEEEEE" style="stroke:#000000;stroke-width:1.5;"/><rect fill="none" height="477.625" style="stroke:#000000;stroke-width:1.5;" width="2476" x="40" y="547.4922"/><text fill="#000000" font-family="sans-serif" font-size="13" font-weight="bold" lengthAdjust="spacing" textLength="16" x="55" y="561.9873">alt</text><text fill="#000000" font-family="sans-serif" font-size="11" font-weight="bold" lengthAdjust="spacing" textLength="78" x="116" y="560.9111">[patient==null]</text><polygon fill="#181818" points="302,584.1953,292,588.1953,302,592.1953,298,588.1953" style="stroke:#181818;stroke-width:1.0;"/><line style="stroke:#181818;stroke-width:1.0;stroke-dasharray:2.0,2.0;" x1="296" x2="613" y1="588.1953" y2="588.1953"/><text fill="#000000" font-family="sans-serif" font-size="13" font-weight="bold" lengthAdjust="spacing" textLength="14" x="308" y="583.3389">13</text><text fill="#000000" font-family="sans-serif" font-size="13" lengthAdjust="spacing" textLength="195" x="326" y="583.3389">BusinessRuleValidationException</text><polygon fill="#181818" points="90,614.5469,80,618.5469,90,622.5469,86,618.5469" style="stroke:#181818;stroke-width:1.0;"/><line style="stroke:#181818;stroke-width:1.0;stroke-dasharray:2.0,2.0;" x1="84" x2="280" y1="618.5469" y2="618.5469"/><text fill="#000000" font-family="sans-serif" font-size="13" font-weight="bold" lengthAdjust="spacing" textLength="14" x="96" y="613.6904">14</text><text fill="#000000" font-family="sans-serif" font-size="13" lengthAdjust="spacing" textLength="85" x="114" y="613.6904">404 Not Found</text><line style="stroke:#000000;stroke-width:1.0;stroke-dasharray:2.0,2.0;" x1="40" x2="2516" y1="627.5469" y2="627.5469"/><polygon fill="#181818" points="1630,646.8984,1640,650.8984,1630,654.8984,1634,650.8984" style="stroke:#181818;stroke-width:1.0;"/><line style="stroke:#181818;stroke-width:1.0;" x1="624" x2="1636" y1="650.8984" y2="650.8984"/><text fill="#000000" font-family="sans-serif" font-size="13" font-weight="bold" lengthAdjust="spacing" textLength="14" x="631" y="646.042">15</text><text fill="#000000" font-family="sans-serif" font-size="13" lengthAdjust="spacing" textLength="981" x="649" y="646.042">create(operationRequestDto.PatientId, operationRequestDto.doctorID, operationRequestDto.OperationTypeId, operationRequestDto.deadline, operationRequestDto.priority)</text><polygon fill="#181818" points="635,677.25,625,681.25,635,685.25,631,681.25" style="stroke:#181818;stroke-width:1.0;"/><line style="stroke:#181818;stroke-width:1.0;stroke-dasharray:2.0,2.0;" x1="629" x2="1646" y1="681.25" y2="681.25"/><text fill="#000000" font-family="sans-serif" font-size="13" font-weight="bold" lengthAdjust="spacing" textLength="14" x="641" y="676.3936">16</text><text fill="#000000" font-family="sans-serif" font-size="13" lengthAdjust="spacing" textLength="101" x="659" y="676.3936">operationRequest</text><polygon fill="#181818" points="2392.5,707.6016,2402.5,711.6016,2392.5,715.6016,2396.5,711.6016" style="stroke:#181818;stroke-width:1.0;"/><line style="stroke:#181818;stroke-width:1.0;" x1="624" x2="2398.5" y1="711.6016" y2="711.6016"/><text fill="#000000" font-family="sans-serif" font-size="13" font-weight="bold" lengthAdjust="spacing" textLength="14" x="631" y="706.7451">17</text><text fill="#000000" font-family="sans-serif" font-size="13" lengthAdjust="spacing" textLength="167" x="649" y="706.7451">addAsync(operationRequest)</text><polygon fill="#181818" points="635,737.9531,625,741.9531,635,745.9531,631,741.9531" style="stroke:#181818;stroke-width:1.0;"/><line style="stroke:#181818;stroke-width:1.0;stroke-dasharray:2.0,2.0;" x1="629" x2="2408.5" y1="741.9531" y2="741.9531"/><text fill="#000000" font-family="sans-serif" font-size="13" font-weight="bold" lengthAdjust="spacing" textLength="14" x="641" y="737.0967">18</text><text fill="#000000" font-family="sans-serif" font-size="13" lengthAdjust="spacing" textLength="101" x="659" y="737.0967">operationRequest</text><polygon fill="#181818" points="916,768.3047,926,772.3047,916,776.3047,920,772.3047" style="stroke:#181818;stroke-width:1.0;"/><line style="stroke:#181818;stroke-width:1.0;" x1="624" x2="922" y1="772.3047" y2="772.3047"/><text fill="#000000" font-family="sans-serif" font-size="13" font-weight="bold" lengthAdjust="spacing" textLength="14" x="631" y="767.4482">19</text><text fill="#000000" font-family="sans-serif" font-size="13" lengthAdjust="spacing" textLength="262" x="649" y="767.4482">updateAppointmentHistory(operationRequest)</text><polygon fill="#181818" points="2225.5,798.6563,2235.5,802.6563,2225.5,806.6563,2229.5,802.6563" style="stroke:#181818;stroke-width:1.0;"/><line style="stroke:#181818;stroke-width:1.0;" x1="624" x2="2231.5" y1="802.6563" y2="802.6563"/><text fill="#000000" font-family="sans-serif" font-size="13" font-weight="bold" lengthAdjust="spacing" textLength="14" x="631" y="797.7998">20</text><text fill="#000000" font-family="sans-serif" font-size="13" lengthAdjust="spacing" textLength="123" x="649" y="797.7998">updateAsync(patient)</text><polygon fill="#181818" points="635,829.0078,625,833.0078,635,837.0078,631,833.0078" style="stroke:#181818;stroke-width:1.0;"/><line style="stroke:#181818;stroke-width:1.0;stroke-dasharray:2.0,2.0;" x1="629" x2="2241.5" y1="833.0078" y2="833.0078"/><text fill="#000000" font-family="sans-serif" font-size="13" font-weight="bold" lengthAdjust="spacing" textLength="14" x="641" y="828.1514">21</text><text fill="#000000" font-family="sans-serif" font-size="13" lengthAdjust="spacing" textLength="39" x="659" y="828.1514">patient</text><polygon fill="#181818" points="1781,859.3594,1791,863.3594,1781,867.3594,1785,863.3594" style="stroke:#181818;stroke-width:1.0;"/><line style="stroke:#181818;stroke-width:1.0;" x1="624" x2="1787" y1="863.3594" y2="863.3594"/><text fill="#000000" font-family="sans-serif" font-size="13" font-weight="bold" lengthAdjust="spacing" textLength="14" x="631" y="858.5029">22</text><text fill="#000000" font-family="sans-serif" font-size="13" lengthAdjust="spacing" textLength="392" x="649" y="858.5029">create(PatientId, DoctorId, OperationType,Deadline, Priority, Status)</text><polygon fill="#181818" points="635,889.7109,625,893.7109,635,897.7109,631,893.7109" style="stroke:#181818;stroke-width:1.0;"/><line style="stroke:#181818;stroke-width:1.0;stroke-dasharray:2.0,2.0;" x1="629" x2="1797" y1="893.7109" y2="893.7109"/><text fill="#000000" font-family="sans-serif" font-size="13" font-weight="bold" lengthAdjust="spacing" textLength="14" x="641" y="888.8545">23</text><text fill="#000000" font-family="sans-serif" font-size="13" lengthAdjust="spacing" textLength="121" x="659" y="888.8545">operationRequestDto</text><polygon fill="#181818" points="302,920.0625,292,924.0625,302,928.0625,298,924.0625" style="stroke:#181818;stroke-width:1.0;"/><line style="stroke:#181818;stroke-width:1.0;stroke-dasharray:2.0,2.0;" x1="296" x2="613" y1="924.0625" y2="924.0625"/><text fill="#000000" font-family="sans-serif" font-size="13" font-weight="bold" lengthAdjust="spacing" textLength="14" x="308" y="919.2061">24</text><text fill="#000000" font-family="sans-serif" font-size="13" lengthAdjust="spacing" textLength="121" x="326" y="919.2061">operationRequestDto</text><polygon fill="#181818" points="90,950.4141,80,954.4141,90,958.4141,86,954.4141" style="stroke:#181818;stroke-width:1.0;"/><line style="stroke:#181818;stroke-width:1.0;stroke-dasharray:2.0,2.0;" x1="84" x2="280" y1="954.4141" y2="954.4141"/><text fill="#000000" font-family="sans-serif" font-size="13" font-weight="bold" lengthAdjust="spacing" textLength="14" x="96" y="949.5576">25</text><text fill="#000000" font-family="sans-serif" font-size="13" lengthAdjust="spacing" textLength="70" x="114" y="949.5576">201 Created</text><line style="stroke:#000000;stroke-width:1.0;stroke-dasharray:2.0,2.0;" x1="40" x2="2516" y1="963.4141" y2="963.4141"/><polygon fill="#181818" points="302,982.7656,292,986.7656,302,990.7656,298,986.7656" style="stroke:#181818;stroke-width:1.0;"/><line style="stroke:#181818;stroke-width:1.0;stroke-dasharray:2.0,2.0;" x1="296" x2="618" y1="986.7656" y2="986.7656"/><text fill="#000000" font-family="sans-serif" font-size="13" font-weight="bold" lengthAdjust="spacing" textLength="14" x="308" y="981.9092">26</text><text fill="#000000" font-family="sans-serif" font-size="13" lengthAdjust="spacing" textLength="195" x="326" y="981.9092">BusinessRuleValidationException</text><polygon fill="#181818" points="90,1013.1172,80,1017.1172,90,1021.1172,86,1017.1172" style="stroke:#181818;stroke-width:1.0;"/><line style="stroke:#181818;stroke-width:1.0;stroke-dasharray:2.0,2.0;" x1="84" x2="280" y1="1017.1172" y2="1017.1172"/><text fill="#000000" font-family="sans-serif" font-size="13" font-weight="bold" lengthAdjust="spacing" textLength="14" x="96" y="1012.2607">27</text><text fill="#000000" font-family="sans-serif" font-size="13" lengthAdjust="spacing" textLength="82" x="114" y="1012.2607">403 Forbidden</text><!--SRC=[pLR1Rjim3BtxAuISLg1kiwsde36GDXkMIniaxUwgnMu27CcJv6BPrq-M5Lko9ST0BysXjIJoKUHxf8qhnLbrU06H93XNNA3PcjV_PmXBz2n1R9CI2qLpMcAcqEon184LvMm7VogGIjvpfWGl2cXSkYMwlUqMMJOEimVnHdCm4FPP-zkdllDMUm9JnjW-Q-CrFs3ApWKoJltDoTvhnOC0Uj_585ZX5om1pJPxXLzVTr1oINLLZqs2_bx4iutnT2oXXn0vYo3P6lKm1hldxc5pZLrbSEpYrUAYRrY1rPJvcsQTG1Pe-xX_GjUufDUyhx7EktD84gH_tJhDh5eMAqBwbrh98yi_yI5h5mQbXRSG3NRzEsanpVgiBNw1Cbio2dv5J2jjrXSjNXV9H-iYcgZ-OThbrY2snWJE0-92eSPjkMHLKVYH6jpKe-91M-tW5GIm7BxzpQ6iyshzd9gdcI5oSJE_GGzSeU-yOgGrX48Bg5s5QXhHSLtRk-E6n2lBNSTWWIFGVg4ZHax1lK2Xkf-DKzVVGvbAmrqbAGCfTrK1Ft51YK5uDny1OLp94dAgG_mp8QwydFRU6Lek_MoG-WribEJ1e3bFxm48pR4MOSu5UJ3lfm350s2VtC6nGslPd8K87K6jAsOzFmg9fw1PV-GjSW4wdM1vROeRSed6nbRur1D7508mANJYuTDIK2weEewrhJMFzAiz3JNgoN6iLmVWqJ8wgiKaejW9QPmTG0ExTwOM2jWcQVbVLAMM8wpAabEc3dhd1vMrIo33A8XJ80jdQcJRv2DqRPHRBSLJbpWTqNp_ra-UqY_NhQItLhwNzKjNLN82_phKEF7QO8Jnsdq2wQvPEu3r17Rc4H-xc9axjsdgs7-PVqRtfaR-2FAIwUoryoc7gPFF_OQndryZzxcPVzK3KRnGGfpN3Z1I3-T9QoUU-pMPk7R9Vm00]--></g></svg>