<?xml version="1.0" encoding="us-ascii" standalone="no"?><svg xmlns="http://www.w3.org/2000/svg" xmlns:xlink="http://www.w3.org/1999/xlink" contentStyleType="text/css" height="415px" preserveAspectRatio="none" style="width:335px;height:415px;background:#FFFFFF;" version="1.1" viewBox="0 0 335 415" width="335px" zoomAndPan="magnify"><defs/><g><!--cluster  --><g id="cluster_ "><path d="M8.5,6 L13.5,6 A3.75,3.75 0 0 1 16,8.5 L23,29.6094 L325.5,29.6094 A2.5,2.5 0 0 1 328,32.1094 L328,405.5 A2.5,2.5 0 0 1 325.5,408 L8.5,408 A2.5,2.5 0 0 1 6,405.5 L6,8.5 A2.5,2.5 0 0 1 8.5,6 " fill="none" style="stroke:#000000;stroke-width:1.5;"/><line style="stroke:#000000;stroke-width:1.5;" x1="6" x2="23" y1="29.6094" y2="29.6094"/><text fill="#000000" font-family="sans-serif" font-size="14" font-weight="bold" lengthAdjust="spacing" textLength="4" x="10" y="22.5332">&#160;</text><text fill="#000000" font-family="sans-serif" font-size="14" font-style="italic" lengthAdjust="spacing" textLength="56" x="143" y="46.1426">&#171;SARM&#187;</text></g><!--cluster AngularComponent--><g id="cluster_AngularComponent"><path d="M119.5,68 L259.5,68 A3.75,3.75 0 0 1 262,70.5 L269,91.6094 L269.5,91.6094 A2.5,2.5 0 0 1 272,94.1094 L272,289.5 A2.5,2.5 0 0 1 269.5,292 L119.5,292 A2.5,2.5 0 0 1 117,289.5 L117,70.5 A2.5,2.5 0 0 1 119.5,68 " fill="none" style="stroke:#000000;stroke-width:1.5;"/><line style="stroke:#000000;stroke-width:1.5;" x1="117" x2="269" y1="91.6094" y2="91.6094"/><text fill="#000000" font-family="sans-serif" font-size="14" font-weight="bold" lengthAdjust="spacing" textLength="139" x="121" y="84.5332">Angular Component</text></g><!--entity ComponentUI--><g id="elem_ComponentUI"><path d="M137,104 L178,104 A3.75,3.75 0 0 1 180.5,106.5 L187.5,125 L251,125 A2.5,2.5 0 0 1 253.5,127.5 L253.5,157.1094 A2.5,2.5 0 0 1 251,159.6094 L137,159.6094 A2.5,2.5 0 0 1 134.5,157.1094 L134.5,106.5 A2.5,2.5 0 0 1 137,104 " fill="#F1F1F1" style="stroke:#181818;stroke-width:0.5;"/><line style="stroke:#181818;stroke-width:0.5;" x1="134.5" x2="187.5" y1="125" y2="125"/><text fill="#000000" font-family="sans-serif" font-size="14" lengthAdjust="spacing" textLength="89" x="144.5" y="146.5332">UI Component</text></g><!--entity Component--><g id="elem_Component"><path d="M137,220 L178,220 A3.75,3.75 0 0 1 180.5,222.5 L187.5,241 L235,241 A2.5,2.5 0 0 1 237.5,243.5 L237.5,273.1094 A2.5,2.5 0 0 1 235,275.6094 L137,275.6094 A2.5,2.5 0 0 1 134.5,273.1094 L134.5,222.5 A2.5,2.5 0 0 1 137,220 " fill="#F1F1F1" style="stroke:#181818;stroke-width:0.5;"/><line style="stroke:#181818;stroke-width:0.5;" x1="134.5" x2="187.5" y1="241" y2="241"/><text fill="#000000" font-family="sans-serif" font-size="14" lengthAdjust="spacing" textLength="73" x="144.5" y="262.5332">Component</text></g><!--entity Service--><g id="elem_Service"><path d="M25,220 L66,220 A3.75,3.75 0 0 1 68.5,222.5 L75.5,241 L97,241 A2.5,2.5 0 0 1 99.5,243.5 L99.5,273.1094 A2.5,2.5 0 0 1 97,275.6094 L25,275.6094 A2.5,2.5 0 0 1 22.5,273.1094 L22.5,222.5 A2.5,2.5 0 0 1 25,220 " fill="#F1F1F1" style="stroke:#181818;stroke-width:0.5;"/><line style="stroke:#181818;stroke-width:0.5;" x1="22.5" x2="75.5" y1="241" y2="241"/><text fill="#000000" font-family="sans-serif" font-size="14" lengthAdjust="spacing" textLength="47" x="32.5" y="262.5332">Service</text></g><!--entity HTTP--><g id="elem_HTTP"><path d="M24.5,336 L65.5,336 A3.75,3.75 0 0 1 68,338.5 L75,357 L127.5,357 A2.5,2.5 0 0 1 130,359.5 L130,389.1094 A2.5,2.5 0 0 1 127.5,391.6094 L24.5,391.6094 A2.5,2.5 0 0 1 22,389.1094 L22,338.5 A2.5,2.5 0 0 1 24.5,336 " fill="#F1F1F1" style="stroke:#181818;stroke-width:0.5;"/><line style="stroke:#181818;stroke-width:0.5;" x1="22" x2="75" y1="357" y2="357"/><text fill="#000000" font-family="sans-serif" font-size="14" lengthAdjust="spacing" textLength="78" x="32" y="378.5332">HTTP Driver</text></g><!--entity Model--><g id="elem_Model"><path d="M204.5,336 L245.5,336 A3.75,3.75 0 0 1 248,338.5 L255,357 L269.5,357 A2.5,2.5 0 0 1 272,359.5 L272,389.1094 A2.5,2.5 0 0 1 269.5,391.6094 L204.5,391.6094 A2.5,2.5 0 0 1 202,389.1094 L202,338.5 A2.5,2.5 0 0 1 204.5,336 " fill="#F1F1F1" style="stroke:#181818;stroke-width:0.5;"/><line style="stroke:#181818;stroke-width:0.5;" x1="202" x2="255" y1="357" y2="357"/><text fill="#000000" font-family="sans-serif" font-size="14" lengthAdjust="spacing" textLength="38" x="212" y="378.5332">Model</text></g><!--reverse link ComponentUI to Component--><g id="link_ComponentUI_Component"><path codeLine="27" d="M191.6819,166.0054 C190.4219,184.0454 189.18,222.7 187.91,240.78 " fill="none" id="ComponentUI-backto-Component" style="stroke:#181818;stroke-width:1.0;stroke-dasharray:7.0,7.0;"/><polygon fill="#181818" points="192.1,160.02,187.4826,168.7194,191.7516,165.0078,195.4632,169.2768,192.1,160.02" style="stroke:#181818;stroke-width:1.0;"/></g><!--reverse link Component to Model--><g id="link_Component_Model"><path codeLine="28" d="M200.5401,281.497 C208.6101,299.537 216.73,317.7 224.82,335.78 " fill="none" id="Component-backto-Model" style="stroke:#181818;stroke-width:1.0;stroke-dasharray:7.0,7.0;"/><polygon fill="#181818" points="198.09,276.02,198.1138,285.8688,200.1317,280.5841,205.4164,282.6021,198.09,276.02" style="stroke:#181818;stroke-width:1.0;"/></g><!--reverse link ComponentUI to Model--><g id="link_ComponentUI_Model"><path codeLine="29" d="M238.8031,164.128 C257.4131,179.278 272.94,196.1 283,220 C296.79,252.77 294.03,266.2 283,300 C278.76,313 270.7,346.55 262.5,356.98 " fill="none" id="ComponentUI-backto-Model" style="stroke:#181818;stroke-width:1.0;stroke-dasharray:7.0,7.0;"/><polygon fill="#181818" points="234.15,160.34,238.6043,169.124,238.0276,163.4966,243.6549,162.9199,234.15,160.34" style="stroke:#181818;stroke-width:1.0;"/></g><!--reverse link Model to ComponentUI--><g id="link_Model_ComponentUI"><path codeLine="30" d="M249.0128,351.0468 C258.3928,321.8068 267.31,259.01 255,220 C248,197.83 233.12,176.41 219.8,160.37 " fill="none" id="Model-backto-ComponentUI" style="stroke:#181818;stroke-width:1.0;stroke-dasharray:7.0,7.0;"/><polygon fill="#181818" points="247.18,356.76,253.738,349.412,248.7073,351.999,246.1203,346.9683,247.18,356.76" style="stroke:#181818;stroke-width:1.0;"/></g><!--reverse link Service to Model--><g id="link_Service_Model"><path codeLine="31" d="M93.0125,280.1428 C102.0125,288.3128 107.87,292.94 118,300 C144.66,318.57 177.45,335.55 201.86,347.19 " fill="none" id="Service-backto-Model" style="stroke:#181818;stroke-width:1.0;stroke-dasharray:7.0,7.0;"/><polygon fill="#181818" points="88.57,276.11,92.5453,285.121,92.2721,279.4707,97.9224,279.1976,88.57,276.11" style="stroke:#181818;stroke-width:1.0;"/></g><!--reverse link Component to Service--><g id="link_Component_Service"><path codeLine="32" d="M128.35,248 C116.76,248 111.17,248 99.57,248 " fill="none" id="Component-backto-Service" style="stroke:#181818;stroke-width:1.0;stroke-dasharray:7.0,7.0;"/><polygon fill="#181818" points="134.35,248,125.35,244,129.35,248,125.35,252,134.35,248" style="stroke:#181818;stroke-width:1.0;"/></g><!--reverse link Service to HTTP--><g id="link_Service_HTTP"><path codeLine="33" d="M65.3348,281.9685 C67.7148,300.0085 70.04,338.7 72.42,356.78 " fill="none" id="Service-backto-HTTP" style="stroke:#181818;stroke-width:1.0;stroke-dasharray:7.0,7.0;"/><polygon fill="#181818" points="64.55,276.02,61.7615,285.4659,65.204,280.977,69.6928,284.4195,64.55,276.02" style="stroke:#181818;stroke-width:1.0;"/></g><!--SRC=[TOzD2eCm44RtSuh10tW24QHTr8LGgXuWrLH2DIDfwaPwzsfCusyJ23FVl0SJJIrgmZjfJGsMGl522v80BIkUhEBe3JS8qkYMX64FE9m7rILNw4MoUjTCuOcQbYINsaFsGfkw42TfAURnnd5T7lVWy0_ip3_QIbgeFotbgXC5DvAjhR81BrbsnRCI7LS67ljZCg6IruOnbOC6RF4R37n_NdEUcDo8EtfApRksynZixaUsoUnynOrV080l]--></g></svg>