<?xml version="1.0" encoding="us-ascii" standalone="no"?><svg xmlns="http://www.w3.org/2000/svg" xmlns:xlink="http://www.w3.org/1999/xlink" contentStyleType="text/css" height="880px" preserveAspectRatio="none" style="width:555px;height:880px;background:#FFFFFF;" version="1.1" viewBox="0 0 555 880" width="555px" zoomAndPan="magnify"><defs/><g><!--cluster UI--><g id="cluster_UI"><rect fill="none" height="764" rx="2.5" ry="2.5" style="stroke:#181818;stroke-width:1.0;" width="542" x="7" y="110"/><rect fill="none" height="10" style="stroke:#181818;stroke-width:1.0;" width="15" x="529" y="115"/><rect fill="none" height="2" style="stroke:#181818;stroke-width:1.0;" width="4" x="527" y="117"/><rect fill="none" height="2" style="stroke:#181818;stroke-width:1.0;" width="4" x="527" y="121"/><text fill="#000000" font-family="sans-serif" font-size="14" font-style="italic" lengthAdjust="spacing" textLength="86" x="235" y="137.5332">&#171;component&#187;</text><text fill="#000000" font-family="sans-serif" font-size="14" font-style="italic" lengthAdjust="spacing" textLength="107" x="224.5" y="155.1426">&#171;container (C4)&#187;</text><text fill="#000000" font-family="sans-serif" font-size="14" font-weight="bold" lengthAdjust="spacing" textLength="14" x="271" y="172.752">UI</text></g><!--cluster Angular Component--><g id="cluster_Angular Component"><path d="M191.5,201 L331.5,201 A3.75,3.75 0 0 1 334,203.5 L341,224.6094 L348.5,224.6094 A2.5,2.5 0 0 1 351,227.1094 L351,626.5 A2.5,2.5 0 0 1 348.5,629 L191.5,629 A2.5,2.5 0 0 1 189,626.5 L189,203.5 A2.5,2.5 0 0 1 191.5,201 " fill="none" style="stroke:#000000;stroke-width:1.5;"/><line style="stroke:#000000;stroke-width:1.5;" x1="189" x2="341" y1="224.6094" y2="224.6094"/><text fill="#000000" font-family="sans-serif" font-size="14" font-weight="bold" lengthAdjust="spacing" textLength="139" x="193" y="217.5332">Angular Component</text></g><!--cluster HTTP--><g id="cluster_HTTP"><rect fill="none" height="165.5" rx="2.5" ry="2.5" style="stroke:#181818;stroke-width:1.0;" width="124" x="375" y="580.5"/><rect fill="none" height="10" style="stroke:#181818;stroke-width:1.0;" width="15" x="479" y="585.5"/><rect fill="none" height="2" style="stroke:#181818;stroke-width:1.0;" width="4" x="477" y="587.5"/><rect fill="none" height="2" style="stroke:#181818;stroke-width:1.0;" width="4" x="477" y="591.5"/><text fill="#000000" font-family="sans-serif" font-size="14" font-style="italic" lengthAdjust="spacing" textLength="86" x="394" y="608.0332">&#171;component&#187;</text><text fill="#000000" font-family="sans-serif" font-size="14" font-weight="bold" lengthAdjust="spacing" textLength="83" x="395.5" y="625.6426">HTTP Driver</text></g><text fill="#000000" font-family="sans-serif" font-size="14" lengthAdjust="spacing" textLength="4" x="297" y="88.9238">&#160;</text><rect fill="#F1F1F1" height="12" style="stroke:#181818;stroke-width:1.5;" width="12" x="293" y="104"/><text fill="#000000" font-family="sans-serif" font-size="14" lengthAdjust="spacing" textLength="4" x="429" y="88.9238">&#160;</text><rect fill="#F1F1F1" height="12" style="stroke:#181818;stroke-width:1.5;" width="12" x="425" y="104"/><!--entity OBSERVER_API--><g id="elem_OBSERVER_API"><ellipse cx="123" cy="269.5" fill="#F1F1F1" rx="8" ry="8" style="stroke:#181818;stroke-width:0.5;"/><text fill="#000000" font-family="sans-serif" font-size="14" lengthAdjust="spacing" textLength="84" x="81" y="301.0332">Observer API</text></g><!--entity MODEL_API--><g id="elem_MODEL_API"><ellipse cx="164" cy="580.5" fill="#F1F1F1" rx="8" ry="8" style="stroke:#181818;stroke-width:0.5;"/><text fill="#000000" font-family="sans-serif" font-size="14" lengthAdjust="spacing" textLength="63" x="132.5" y="612.0332">Model API</text></g><!--entity SERVICE_API--><g id="elem_SERVICE_API"><ellipse cx="271" cy="703" fill="#F1F1F1" rx="8" ry="8" style="stroke:#181818;stroke-width:0.5;"/><text fill="#000000" font-family="sans-serif" font-size="14" lengthAdjust="spacing" textLength="72" x="235" y="734.5332">Service API</text></g><!--entity HTTP_SERVICE_API--><g id="elem_HTTP_SERVICE_API"><ellipse cx="414" cy="825.5" fill="#F1F1F1" rx="8" ry="8" style="stroke:#181818;stroke-width:0.5;"/><text fill="#000000" font-family="sans-serif" font-size="14" lengthAdjust="spacing" textLength="103" x="362.5" y="857.0332">HTTP Driver API</text></g><!--entity COMPONENT_API--><g id="elem_COMPONENT_API"><ellipse cx="278" cy="394.5" fill="#F1F1F1" rx="8" ry="8" style="stroke:#181818;stroke-width:0.5;"/><text fill="#000000" font-family="sans-serif" font-size="14" lengthAdjust="spacing" textLength="98" x="229" y="426.0332">Component API</text></g><!--entity Component--><g id="elem_Component"><rect fill="#F1F1F1" height="65.2188" rx="2.5" ry="2.5" style="stroke:#181818;stroke-width:0.5;" width="126" x="208" y="548"/><rect fill="#F1F1F1" height="10" style="stroke:#181818;stroke-width:0.5;" width="15" x="314" y="553"/><rect fill="#F1F1F1" height="2" style="stroke:#181818;stroke-width:0.5;" width="4" x="312" y="555"/><rect fill="#F1F1F1" height="2" style="stroke:#181818;stroke-width:0.5;" width="4" x="312" y="559"/><text fill="#000000" font-family="sans-serif" font-size="14" font-style="italic" lengthAdjust="spacing" textLength="86" x="223" y="582.5332">&#171;component&#187;</text><text fill="#000000" font-family="sans-serif" font-size="14" lengthAdjust="spacing" textLength="73" x="229.5" y="600.1426">Component</text></g><!--entity ComponentUI--><g id="elem_ComponentUI"><rect fill="#F1F1F1" height="65.2188" rx="2.5" ry="2.5" style="stroke:#181818;stroke-width:0.5;" width="129" x="205.5" y="237"/><rect fill="#F1F1F1" height="10" style="stroke:#181818;stroke-width:0.5;" width="15" x="314.5" y="242"/><rect fill="#F1F1F1" height="2" style="stroke:#181818;stroke-width:0.5;" width="4" x="312.5" y="244"/><rect fill="#F1F1F1" height="2" style="stroke:#181818;stroke-width:0.5;" width="4" x="312.5" y="248"/><text fill="#000000" font-family="sans-serif" font-size="14" font-style="italic" lengthAdjust="spacing" textLength="86" x="222" y="271.5332">&#171;component&#187;</text><text fill="#000000" font-family="sans-serif" font-size="14" lengthAdjust="spacing" textLength="89" x="220.5" y="289.1426">UI Component</text></g><!--entity Model--><g id="elem_Model"><rect fill="#F1F1F1" height="65.2188" rx="2.5" ry="2.5" style="stroke:#181818;stroke-width:0.5;" width="126" x="23" y="362"/><rect fill="#F1F1F1" height="10" style="stroke:#181818;stroke-width:0.5;" width="15" x="129" y="367"/><rect fill="#F1F1F1" height="2" style="stroke:#181818;stroke-width:0.5;" width="4" x="127" y="369"/><rect fill="#F1F1F1" height="2" style="stroke:#181818;stroke-width:0.5;" width="4" x="127" y="373"/><text fill="#000000" font-family="sans-serif" font-size="14" font-style="italic" lengthAdjust="spacing" textLength="86" x="38" y="396.5332">&#171;component&#187;</text><text fill="#000000" font-family="sans-serif" font-size="14" lengthAdjust="spacing" textLength="38" x="62" y="414.1426">Model</text></g><!--entity Service--><g id="elem_Service"><rect fill="#F1F1F1" height="65.2188" rx="2.5" ry="2.5" style="stroke:#181818;stroke-width:0.5;" width="126" x="208" y="793"/><rect fill="#F1F1F1" height="10" style="stroke:#181818;stroke-width:0.5;" width="15" x="314" y="798"/><rect fill="#F1F1F1" height="2" style="stroke:#181818;stroke-width:0.5;" width="4" x="312" y="800"/><rect fill="#F1F1F1" height="2" style="stroke:#181818;stroke-width:0.5;" width="4" x="312" y="804"/><text fill="#000000" font-family="sans-serif" font-size="14" font-style="italic" lengthAdjust="spacing" textLength="86" x="223" y="827.5332">&#171;component&#187;</text><text fill="#000000" font-family="sans-serif" font-size="14" lengthAdjust="spacing" textLength="47" x="242.5" y="845.1426">Service</text></g><text fill="#000000" font-family="sans-serif" font-size="14" lengthAdjust="spacing" textLength="4" x="479" y="559.4238">&#160;</text><rect fill="#F1F1F1" height="12" style="stroke:#181818;stroke-width:1.5;" width="12" x="475" y="574.5"/><!--entity API--><g id="elem_API"><ellipse cx="431" cy="14" fill="#F1F1F1" rx="8" ry="8" style="stroke:#181818;stroke-width:0.5;"/><text fill="#000000" font-family="sans-serif" font-size="14" lengthAdjust="spacing" textLength="67" x="397.5" y="45.5332">Server API</text></g><!--entity UI_API--><g id="elem_UI_API"><ellipse cx="299" cy="14" fill="#F1F1F1" rx="8" ry="8" style="stroke:#181818;stroke-width:0.5;"/><text fill="#000000" font-family="sans-serif" font-size="14" lengthAdjust="spacing" textLength="12" x="293" y="45.5332">UI</text></g><!--link UI_API to PI1--><g id="link_UI_API_PI1"><path d="M299,23.01 C299,41.84 299,88.45 299,103.92 " fill="none" id="UI_API-PI1" style="stroke:#181818;stroke-width:1.0;"/></g><!--link ComponentUI to PI1--><g id="link_ComponentUI_PI1"><path d="M275.86,236.69 C283.03,197.75 294.63,134.71 298.04,116.24 " fill="none" id="ComponentUI-PI1" style="stroke:#181818;stroke-width:1.0;"/></g><!--link COMPONENT_API to Component--><g id="link_COMPONENT_API_Component"><path d="M277.68,403.88 C276.73,428.98 273.85,504.46 272.2,547.86 " fill="none" id="COMPONENT_API-Component" style="stroke:#181818;stroke-width:1.0;"/></g><!--link ComponentUI to COMPONENT_API--><g id="link_ComponentUI_COMPONENT_API"><path d="M272.06,302.18 C273.87,330.08 275.7412,358.8111 276.8212,375.4211 " fill="none" id="ComponentUI-to-COMPONENT_API" style="stroke:#181818;stroke-width:1.0;"/><path d="M285.7097,381.7796 A9,9 0 0 0 268.8309 382.877" fill="none" style="stroke:#181818;stroke-width:1.5;"/></g><!--link ComponentUI to OBSERVER_API--><g id="link_ComponentUI_OBSERVER_API"><path d="M205.4,269.5 C181,269.5 156.59,269.5 132.19,269.5 " fill="none" id="ComponentUI-OBSERVER_API" style="stroke:#181818;stroke-width:1.0;"/></g><!--reverse link OBSERVER_API to Model--><g id="link_OBSERVER_API_Model"><path d="M117.6891,288.146 C112.6891,304.766 103.89,334.03 95.49,361.95 " fill="none" id="OBSERVER_API-backto-Model" style="stroke:#181818;stroke-width:1.0;"/><path d="M111.5845,279.0813 A9,9 0 0 0 127.7819 283.9541" fill="none" style="stroke:#181818;stroke-width:1.5;"/></g><!--link SERVICE_API to Service--><g id="link_SERVICE_API_Service"><path d="M271,712.28 C271,728.61 271,765.7 271,792.79 " fill="none" id="SERVICE_API-Service" style="stroke:#181818;stroke-width:1.0;"/></g><!--link Component to SERVICE_API--><g id="link_Component_SERVICE_API"><path d="M271,613.16 C271,640.22 271,667.28 271,683.65 " fill="none" id="Component-to-SERVICE_API" style="stroke:#181818;stroke-width:1.0;"/><path d="M279.4572,690.5718 A9,9 0 0 0 262.5428 690.5718" fill="none" style="stroke:#181818;stroke-width:1.5;"/></g><!--link Model to MODEL_API--><g id="link_Model_MODEL_API"><path d="M99.41,427.13 C117.88,470.7 150.05,546.6 160.57,571.4 " fill="none" id="Model-MODEL_API" style="stroke:#181818;stroke-width:1.0;"/></g><!--link Component to MODEL_API--><g id="link_Component_MODEL_API"><path d="M207.96,580.5 C196.37,580.5 194.78,580.5 183.2,580.5 " fill="none" id="Component-to-MODEL_API" style="stroke:#181818;stroke-width:1.0;"/><path d="M176.2782,588.9572 A9,9 0 0 0 176.2782 572.0428" fill="none" style="stroke:#181818;stroke-width:1.5;"/></g><!--reverse link MODEL_API to Service--><g id="link_MODEL_API_Service"><path d="M165.9876,599.4639 C168.9276,624.9139 179.11,695.66 210,754 C217.35,767.87 227.88,781.36 238.14,792.75 " fill="none" id="MODEL_API-backto-Service" style="stroke:#181818;stroke-width:1.0;"/><path d="M156.7919,593.5584 A9,9 0 0 0 173.5946 591.6173" fill="none" style="stroke:#181818;stroke-width:1.5;"/></g><!--link ComponentUI to MODEL_API--><g id="link_ComponentUI_MODEL_API"><path d="M241.72,302.23 C228.3,318.93 213.23,340.38 204,362 C171.3,438.63 165.6479,531.6364 164.5879,561.2364 " fill="none" id="ComponentUI-to-MODEL_API" style="stroke:#181818;stroke-width:1.0;"/><path d="M172.792,568.4565 A9,9 0 0 0 155.8883 567.8511" fill="none" style="stroke:#181818;stroke-width:1.5;"/></g><!--reverse link API to PI--><g id="link_API_PI"><path d="M431,33.01 C431,51.84 431,88.45 431,103.92 " fill="none" id="API-backto-PI" style="stroke:#181818;stroke-width:1.0;"/><path d="M422.5428,26.0882 A9,9 0 0 0 439.4572 26.0882" fill="none" style="stroke:#181818;stroke-width:1.5;"/></g><!--link PI to PIHTTP--><g id="link_PI_PIHTTP"><path d="M437.5,113.81 C455.18,121.87 504.21,146.92 524,185 C541.14,217.99 529,231.32 529,268.5 C529,268.5 529,268.5 529,395.5 C529,468.46 493.23,552.58 483.45,574.21 " fill="none" id="PI-PIHTTP" style="stroke:#181818;stroke-width:1.0;"/></g><!--link HTTP to HTTP_SERVICE_API--><g id="link_HTTP_HTTP_SERVICE_API"><path d="M437.4381,746.0503 C437.3578,746.3193 437.2772,746.5888 437.1966,746.8589 C437.0352,747.399 436.8732,747.9412 436.7107,748.4852 C436.3857,749.5732 436.0584,750.6686 435.7294,751.7699 C435.0714,753.9723 434.4065,756.1981 433.7383,758.4346 C432.4019,762.9077 431.0525,767.4241 429.72,771.8838 C424.39,789.7225 419.33,806.655 416.45,816.29 " fill="none" id="HTTP-HTTP_SERVICE_API" style="stroke:#181818;stroke-width:1.0;"/></g><!--link Service to HTTP_SERVICE_API--><g id="link_Service_HTTP_SERVICE_API"><path d="M334.12,825.5 C357.73,825.5 371.34,825.5 394.95,825.5 " fill="none" id="Service-to-HTTP_SERVICE_API" style="stroke:#181818;stroke-width:1.0;"/><path d="M401.8718,817.0428 A9,9 0 0 0 401.8718 833.9572" fill="none" style="stroke:#181818;stroke-width:1.5;"/></g><!--SRC=[VL8zRy8m4DtzAqwPqi53fOu8YOP8ZLH8n4TN58YfB86DZEc2-EyzsoIndRGPalYzktldTwVb1RI4lTHQdg7XYXqqbu8GBZHJn_h085apzSCKpAeYWVfglZwxTUYss1c27EJv8WKJscDWCkdWwTIUXAwvmA9fzlQ2q9q0FXUfD1UGWCshYjTHb5Yqw3iezrUlmzaQolTrllhALxOZ4toKfmRvP2Q-RwTQGTPsaw2oZJ2FrxeNW9hTARh8lKjzT7zUNtrQQrrMBgfocIytNMUHBdhrX_J0nLZyCV1b8HjswanPbFFyqyqe4hLnLirbZEaCgvkjuFZJrZUM5ra-gl2CjHfjthYAUSTA7vjD1NF5_H4RRFUVf9TaPUtvBmVZ5JF1puRmucwrWLApaa3yaJYiXu3U40h77CGtD8tea5Sqt5ut4QoQXZXfRKGgiDvh1NC2XvwrgBSANhJ2y9xmogTZyVRkFaECGrk4pC4vQ7ipb3lGuT0w5IC-O7y1]--></g></svg>