<?xml version="1.0" encoding="us-ascii" standalone="no"?><svg xmlns="http://www.w3.org/2000/svg" xmlns:xlink="http://www.w3.org/1999/xlink" contentStyleType="text/css" height="970px" preserveAspectRatio="none" style="width:1356px;height:970px;background:#FFFFFF;" version="1.1" viewBox="0 0 1356 970" width="1356px" zoomAndPan="magnify"><defs/><g><rect fill="#FFFFFF" height="758.7891" style="stroke:#181818;stroke-width:1.0;" width="10" x="39" y="96.2188"/><rect fill="#FFFFFF" height="736.4375" style="stroke:#181818;stroke-width:1.0;" width="10" x="284" y="118.5703"/><rect fill="#FFFFFF" height="675.7344" style="stroke:#181818;stroke-width:1.0;" width="10" x="531" y="148.9219"/><rect fill="#FFFFFF" height="30.3516" style="stroke:#181818;stroke-width:1.0;" width="10" x="815" y="486.7891"/><rect fill="#FFFFFF" height="30.3516" style="stroke:#181818;stroke-width:1.0;" width="10" x="966" y="733.6016"/><rect fill="#FFFFFF" height="30.3516" style="stroke:#181818;stroke-width:1.0;" width="10" x="1138" y="179.2734"/><rect fill="#FFFFFF" height="30.3516" style="stroke:#181818;stroke-width:1.0;" width="10" x="1297.5" y="239.9766"/><rect fill="none" height="79.0547" style="stroke:#000000;stroke-width:1.5;" width="624.5" x="10" y="285.3281"/><rect fill="none" height="79.0547" style="stroke:#000000;stroke-width:1.5;" width="624.5" x="10" y="378.3828"/><rect fill="none" height="79.0547" style="stroke:#000000;stroke-width:1.5;" width="624.5" x="10" y="532.1406"/><rect fill="none" height="79.0547" style="stroke:#000000;stroke-width:1.5;" width="624.5" x="10" y="625.1953"/><line style="stroke:#181818;stroke-width:0.5;stroke-dasharray:5.0,5.0;" x1="44" x2="44" y1="86.2188" y2="873.0078"/><line style="stroke:#181818;stroke-width:0.5;stroke-dasharray:5.0,5.0;" x1="288.5" x2="288.5" y1="86.2188" y2="873.0078"/><line style="stroke:#181818;stroke-width:0.5;stroke-dasharray:5.0,5.0;" x1="535.5" x2="535.5" y1="86.2188" y2="873.0078"/><line style="stroke:#181818;stroke-width:0.5;stroke-dasharray:5.0,5.0;" x1="819.5" x2="819.5" y1="86.2188" y2="873.0078"/><line style="stroke:#181818;stroke-width:0.5;stroke-dasharray:5.0,5.0;" x1="970.5" x2="970.5" y1="86.2188" y2="873.0078"/><line style="stroke:#181818;stroke-width:0.5;stroke-dasharray:5.0,5.0;" x1="1142.5" x2="1142.5" y1="86.2188" y2="873.0078"/><line style="stroke:#181818;stroke-width:0.5;stroke-dasharray:5.0,5.0;" x1="1302.5" x2="1302.5" y1="86.2188" y2="873.0078"/><text fill="#000000" font-family="sans-serif" font-size="14" lengthAdjust="spacing" textLength="42" x="20" y="83.1426">Doctor</text><ellipse cx="44" cy="17.1094" fill="#E2E2F0" rx="8" ry="8" style="stroke:#181818;stroke-width:0.5;"/><path d="M44,25.1094 L44,52.1094 M31,33.1094 L57,33.1094 M44,52.1094 L31,67.1094 M44,52.1094 L57,67.1094 " fill="none" style="stroke:#181818;stroke-width:0.5;"/><text fill="#000000" font-family="sans-serif" font-size="14" lengthAdjust="spacing" textLength="42" x="20" y="886.541">Doctor</text><ellipse cx="44" cy="898.1172" fill="#E2E2F0" rx="8" ry="8" style="stroke:#181818;stroke-width:0.5;"/><path d="M44,906.1172 L44,933.1172 M31,914.1172 L57,914.1172 M44,933.1172 L31,948.1172 M44,933.1172 L57,948.1172 " fill="none" style="stroke:#181818;stroke-width:0.5;"/><rect fill="#E2E2F0" height="49.2188" rx="2.5" ry="2.5" style="stroke:#181818;stroke-width:0.5;" width="199" x="189.5" y="36"/><text fill="#000000" font-family="sans-serif" font-size="14" font-style="italic" lengthAdjust="spacing" textLength="78" x="250" y="57.5332">&#171;Controller&#187;</text><text fill="#000000" font-family="sans-serif" font-size="14" lengthAdjust="spacing" textLength="185" x="196.5" y="75.1426">OperationRequestsController</text><rect fill="#E2E2F0" height="49.2188" rx="2.5" ry="2.5" style="stroke:#181818;stroke-width:0.5;" width="199" x="189.5" y="872.0078"/><text fill="#000000" font-family="sans-serif" font-size="14" font-style="italic" lengthAdjust="spacing" textLength="78" x="250" y="893.541">&#171;Controller&#187;</text><text fill="#000000" font-family="sans-serif" font-size="14" lengthAdjust="spacing" textLength="185" x="196.5" y="911.1504">OperationRequestsController</text><rect fill="#E2E2F0" height="49.2188" rx="2.5" ry="2.5" style="stroke:#181818;stroke-width:0.5;" width="177" x="447.5" y="36"/><text fill="#000000" font-family="sans-serif" font-size="14" font-style="italic" lengthAdjust="spacing" textLength="62" x="505" y="57.5332">&#171;Service&#187;</text><text fill="#000000" font-family="sans-serif" font-size="14" lengthAdjust="spacing" textLength="163" x="454.5" y="75.1426">OperationRequestService</text><rect fill="#E2E2F0" height="49.2188" rx="2.5" ry="2.5" style="stroke:#181818;stroke-width:0.5;" width="177" x="447.5" y="872.0078"/><text fill="#000000" font-family="sans-serif" font-size="14" font-style="italic" lengthAdjust="spacing" textLength="62" x="505" y="893.541">&#171;Service&#187;</text><text fill="#000000" font-family="sans-serif" font-size="14" lengthAdjust="spacing" textLength="163" x="454.5" y="911.1504">OperationRequestService</text><rect fill="#E2E2F0" height="49.2188" rx="2.5" ry="2.5" style="stroke:#181818;stroke-width:0.5;" width="151" x="744.5" y="36"/><text fill="#000000" font-family="sans-serif" font-size="14" font-style="italic" lengthAdjust="spacing" textLength="62" x="789" y="57.5332">&#171;Service&#187;</text><text fill="#000000" font-family="sans-serif" font-size="14" lengthAdjust="spacing" textLength="137" x="751.5" y="75.1426">AuthenticationService</text><rect fill="#E2E2F0" height="49.2188" rx="2.5" ry="2.5" style="stroke:#181818;stroke-width:0.5;" width="151" x="744.5" y="872.0078"/><text fill="#000000" font-family="sans-serif" font-size="14" font-style="italic" lengthAdjust="spacing" textLength="62" x="789" y="893.541">&#171;Service&#187;</text><text fill="#000000" font-family="sans-serif" font-size="14" lengthAdjust="spacing" textLength="137" x="751.5" y="911.1504">AuthenticationService</text><rect fill="#E2E2F0" height="49.2188" rx="2.5" ry="2.5" style="stroke:#181818;stroke-width:0.5;" width="131" x="905.5" y="36"/><text fill="#000000" font-family="sans-serif" font-size="14" font-style="italic" lengthAdjust="spacing" textLength="64" x="939" y="57.5332">&#171;Domain&#187;</text><text fill="#000000" font-family="sans-serif" font-size="14" lengthAdjust="spacing" textLength="117" x="912.5" y="75.1426">OperationTypeDto</text><rect fill="#E2E2F0" height="49.2188" rx="2.5" ry="2.5" style="stroke:#181818;stroke-width:0.5;" width="131" x="905.5" y="872.0078"/><text fill="#000000" font-family="sans-serif" font-size="14" font-style="italic" lengthAdjust="spacing" textLength="64" x="939" y="893.541">&#171;Domain&#187;</text><text fill="#000000" font-family="sans-serif" font-size="14" lengthAdjust="spacing" textLength="117" x="912.5" y="911.1504">OperationTypeDto</text><text fill="#000000" font-family="sans-serif" font-size="14" font-style="italic" lengthAdjust="spacing" textLength="64" x="1108" y="65.5332">&#171;Domain&#187;</text><text fill="#000000" font-family="sans-serif" font-size="14" lengthAdjust="spacing" textLength="187" x="1046.5" y="83.1426">IOperationRequestRepository</text><path d="M1125,15 C1125,5 1143,5 1143,5 C1143,5 1161,5 1161,15 L1161,41 C1161,51 1143,51 1143,51 C1143,51 1125,51 1125,41 L1125,15 " fill="#E2E2F0" style="stroke:#181818;stroke-width:1.5;"/><path d="M1125,15 C1125,25 1143,25 1143,25 C1143,25 1161,25 1161,15 " fill="none" style="stroke:#181818;stroke-width:1.5;"/><text fill="#000000" font-family="sans-serif" font-size="14" font-style="italic" lengthAdjust="spacing" textLength="64" x="1108" y="886.541">&#171;Domain&#187;</text><text fill="#000000" font-family="sans-serif" font-size="14" lengthAdjust="spacing" textLength="187" x="1046.5" y="904.1504">IOperationRequestRepository</text><path d="M1125,917.2266 C1125,907.2266 1143,907.2266 1143,907.2266 C1143,907.2266 1161,907.2266 1161,917.2266 L1161,943.2266 C1161,953.2266 1143,953.2266 1143,953.2266 C1143,953.2266 1125,953.2266 1125,943.2266 L1125,917.2266 " fill="#E2E2F0" style="stroke:#181818;stroke-width:1.5;"/><path d="M1125,917.2266 C1125,927.2266 1143,927.2266 1143,927.2266 C1143,927.2266 1161,927.2266 1161,917.2266 " fill="none" style="stroke:#181818;stroke-width:1.5;"/><text fill="#000000" font-family="sans-serif" font-size="14" font-style="italic" lengthAdjust="spacing" textLength="64" x="1267.5" y="65.5332">&#171;Domain&#187;</text><text fill="#000000" font-family="sans-serif" font-size="14" lengthAdjust="spacing" textLength="100" x="1249.5" y="83.1426">IStaffRepository</text><path d="M1284.5,15 C1284.5,5 1302.5,5 1302.5,5 C1302.5,5 1320.5,5 1320.5,15 L1320.5,41 C1320.5,51 1302.5,51 1302.5,51 C1302.5,51 1284.5,51 1284.5,41 L1284.5,15 " fill="#E2E2F0" style="stroke:#181818;stroke-width:1.5;"/><path d="M1284.5,15 C1284.5,25 1302.5,25 1302.5,25 C1302.5,25 1320.5,25 1320.5,15 " fill="none" style="stroke:#181818;stroke-width:1.5;"/><text fill="#000000" font-family="sans-serif" font-size="14" font-style="italic" lengthAdjust="spacing" textLength="64" x="1267.5" y="886.541">&#171;Domain&#187;</text><text fill="#000000" font-family="sans-serif" font-size="14" lengthAdjust="spacing" textLength="100" x="1249.5" y="904.1504">IStaffRepository</text><path d="M1284.5,917.2266 C1284.5,907.2266 1302.5,907.2266 1302.5,907.2266 C1302.5,907.2266 1320.5,907.2266 1320.5,917.2266 L1320.5,943.2266 C1320.5,953.2266 1302.5,953.2266 1302.5,953.2266 C1302.5,953.2266 1284.5,953.2266 1284.5,943.2266 L1284.5,917.2266 " fill="#E2E2F0" style="stroke:#181818;stroke-width:1.5;"/><path d="M1284.5,917.2266 C1284.5,927.2266 1302.5,927.2266 1302.5,927.2266 C1302.5,927.2266 1320.5,927.2266 1320.5,917.2266 " fill="none" style="stroke:#181818;stroke-width:1.5;"/><rect fill="#FFFFFF" height="758.7891" style="stroke:#181818;stroke-width:1.0;" width="10" x="39" y="96.2188"/><rect fill="#FFFFFF" height="736.4375" style="stroke:#181818;stroke-width:1.0;" width="10" x="284" y="118.5703"/><rect fill="#FFFFFF" height="675.7344" style="stroke:#181818;stroke-width:1.0;" width="10" x="531" y="148.9219"/><rect fill="#FFFFFF" height="30.3516" style="stroke:#181818;stroke-width:1.0;" width="10" x="815" y="486.7891"/><rect fill="#FFFFFF" height="30.3516" style="stroke:#181818;stroke-width:1.0;" width="10" x="966" y="733.6016"/><rect fill="#FFFFFF" height="30.3516" style="stroke:#181818;stroke-width:1.0;" width="10" x="1138" y="179.2734"/><rect fill="#FFFFFF" height="30.3516" style="stroke:#181818;stroke-width:1.0;" width="10" x="1297.5" y="239.9766"/><polygon fill="#181818" points="272,114.5703,282,118.5703,272,122.5703,276,118.5703" style="stroke:#181818;stroke-width:1.0;"/><line style="stroke:#181818;stroke-width:1.0;" x1="49" x2="278" y1="118.5703" y2="118.5703"/><text fill="#000000" font-family="sans-serif" font-size="13" font-weight="bold" lengthAdjust="spacing" textLength="7" x="56" y="113.7139">1</text><text fill="#000000" font-family="sans-serif" font-size="13" lengthAdjust="spacing" textLength="205" x="67" y="113.7139">DELETE api/operationRequests/{id}</text><polygon fill="#181818" points="519,144.9219,529,148.9219,519,152.9219,523,148.9219" style="stroke:#181818;stroke-width:1.0;"/><line style="stroke:#181818;stroke-width:1.0;" x1="294" x2="525" y1="148.9219" y2="148.9219"/><text fill="#000000" font-family="sans-serif" font-size="13" font-weight="bold" lengthAdjust="spacing" textLength="7" x="301" y="144.0654">2</text><text fill="#000000" font-family="sans-serif" font-size="13" lengthAdjust="spacing" textLength="101" x="312" y="144.0654">RemoveAsync(id)</text><polygon fill="#181818" points="1126,175.2734,1136,179.2734,1126,183.2734,1130,179.2734" style="stroke:#181818;stroke-width:1.0;"/><line style="stroke:#181818;stroke-width:1.0;" x1="541" x2="1132" y1="179.2734" y2="179.2734"/><text fill="#000000" font-family="sans-serif" font-size="13" font-weight="bold" lengthAdjust="spacing" textLength="7" x="548" y="174.417">3</text><text fill="#000000" font-family="sans-serif" font-size="13" lengthAdjust="spacing" textLength="65" x="559" y="174.417">GetById(id)</text><polygon fill="#181818" points="552,205.625,542,209.625,552,213.625,548,209.625" style="stroke:#181818;stroke-width:1.0;"/><line style="stroke:#181818;stroke-width:1.0;stroke-dasharray:2.0,2.0;" x1="546" x2="1142" y1="209.625" y2="209.625"/><text fill="#000000" font-family="sans-serif" font-size="13" font-weight="bold" lengthAdjust="spacing" textLength="7" x="558" y="204.7686">4</text><text fill="#000000" font-family="sans-serif" font-size="13" lengthAdjust="spacing" textLength="101" x="569" y="204.7686">operationRequest</text><polygon fill="#181818" points="1285.5,235.9766,1295.5,239.9766,1285.5,243.9766,1289.5,239.9766" style="stroke:#181818;stroke-width:1.0;"/><line style="stroke:#181818;stroke-width:1.0;" x1="541" x2="1291.5" y1="239.9766" y2="239.9766"/><text fill="#000000" font-family="sans-serif" font-size="13" font-weight="bold" lengthAdjust="spacing" textLength="7" x="548" y="235.1201">5</text><text fill="#000000" font-family="sans-serif" font-size="13" lengthAdjust="spacing" textLength="196" x="559" y="235.1201">GetById(operationRequest.StaffId)</text><polygon fill="#181818" points="552,266.3281,542,270.3281,552,274.3281,548,270.3281" style="stroke:#181818;stroke-width:1.0;"/><line style="stroke:#181818;stroke-width:1.0;stroke-dasharray:2.0,2.0;" x1="546" x2="1301.5" y1="270.3281" y2="270.3281"/><text fill="#000000" font-family="sans-serif" font-size="13" font-weight="bold" lengthAdjust="spacing" textLength="7" x="558" y="265.4717">6</text><text fill="#000000" font-family="sans-serif" font-size="13" lengthAdjust="spacing" textLength="24" x="569" y="265.4717">staff</text><path d="M10,285.3281 L71,285.3281 L71,293.6797 L61,303.6797 L10,303.6797 L10,285.3281 " fill="#EEEEEE" style="stroke:#000000;stroke-width:1.5;"/><rect fill="none" height="79.0547" style="stroke:#000000;stroke-width:1.5;" width="624.5" x="10" y="285.3281"/><text fill="#000000" font-family="sans-serif" font-size="13" font-weight="bold" lengthAdjust="spacing" textLength="16" x="25" y="299.8232">alt</text><text fill="#000000" font-family="sans-serif" font-size="11" font-weight="bold" lengthAdjust="spacing" textLength="145" x="86" y="298.7471">[operationRequest == null]</text><polygon fill="#181818" points="305,322.0313,295,326.0313,305,330.0313,301,326.0313" style="stroke:#181818;stroke-width:1.0;"/><line style="stroke:#181818;stroke-width:1.0;stroke-dasharray:2.0,2.0;" x1="299" x2="530" y1="326.0313" y2="326.0313"/><text fill="#000000" font-family="sans-serif" font-size="13" font-weight="bold" lengthAdjust="spacing" textLength="7" x="311" y="321.1748">7</text><text fill="#000000" font-family="sans-serif" font-size="13" lengthAdjust="spacing" textLength="138" x="322" y="321.1748">NullReferenceException</text><polygon fill="#181818" points="60,352.3828,50,356.3828,60,360.3828,56,356.3828" style="stroke:#181818;stroke-width:1.0;"/><line style="stroke:#181818;stroke-width:1.0;stroke-dasharray:2.0,2.0;" x1="54" x2="283" y1="356.3828" y2="356.3828"/><text fill="#000000" font-family="sans-serif" font-size="13" font-weight="bold" lengthAdjust="spacing" textLength="7" x="66" y="351.5264">8</text><text fill="#000000" font-family="sans-serif" font-size="13" lengthAdjust="spacing" textLength="85" x="77" y="351.5264">404 Not Found</text><path d="M10,378.3828 L71,378.3828 L71,386.7344 L61,396.7344 L10,396.7344 L10,378.3828 " fill="#EEEEEE" style="stroke:#000000;stroke-width:1.5;"/><rect fill="none" height="79.0547" style="stroke:#000000;stroke-width:1.5;" width="624.5" x="10" y="378.3828"/><text fill="#000000" font-family="sans-serif" font-size="13" font-weight="bold" lengthAdjust="spacing" textLength="16" x="25" y="392.8779">alt</text><text fill="#000000" font-family="sans-serif" font-size="11" font-weight="bold" lengthAdjust="spacing" textLength="71" x="86" y="391.8018">[staff == null]</text><polygon fill="#181818" points="305,415.0859,295,419.0859,305,423.0859,301,419.0859" style="stroke:#181818;stroke-width:1.0;"/><line style="stroke:#181818;stroke-width:1.0;stroke-dasharray:2.0,2.0;" x1="299" x2="530" y1="419.0859" y2="419.0859"/><text fill="#000000" font-family="sans-serif" font-size="13" font-weight="bold" lengthAdjust="spacing" textLength="7" x="311" y="414.2295">9</text><text fill="#000000" font-family="sans-serif" font-size="13" lengthAdjust="spacing" textLength="138" x="322" y="414.2295">NullReferenceException</text><polygon fill="#181818" points="60,445.4375,50,449.4375,60,453.4375,56,449.4375" style="stroke:#181818;stroke-width:1.0;"/><line style="stroke:#181818;stroke-width:1.0;stroke-dasharray:2.0,2.0;" x1="54" x2="283" y1="449.4375" y2="449.4375"/><text fill="#000000" font-family="sans-serif" font-size="13" font-weight="bold" lengthAdjust="spacing" textLength="14" x="66" y="444.5811">10</text><text fill="#000000" font-family="sans-serif" font-size="13" lengthAdjust="spacing" textLength="85" x="84" y="444.5811">404 Not Found</text><polygon fill="#181818" points="803,482.7891,813,486.7891,803,490.7891,807,486.7891" style="stroke:#181818;stroke-width:1.0;"/><line style="stroke:#181818;stroke-width:1.0;" x1="541" x2="809" y1="486.7891" y2="486.7891"/><text fill="#000000" font-family="sans-serif" font-size="13" font-weight="bold" lengthAdjust="spacing" textLength="14" x="548" y="481.9326">11</text><text fill="#000000" font-family="sans-serif" font-size="13" lengthAdjust="spacing" textLength="237" x="566" y="481.9326">GetLoggedInUsername(removeDto.token)</text><polygon fill="#181818" points="552,513.1406,542,517.1406,552,521.1406,548,517.1406" style="stroke:#181818;stroke-width:1.0;"/><line style="stroke:#181818;stroke-width:1.0;stroke-dasharray:2.0,2.0;" x1="546" x2="819" y1="517.1406" y2="517.1406"/><text fill="#000000" font-family="sans-serif" font-size="13" font-weight="bold" lengthAdjust="spacing" textLength="14" x="558" y="512.2842">12</text><text fill="#000000" font-family="sans-serif" font-size="13" lengthAdjust="spacing" textLength="57" x="576" y="512.2842">username</text><path d="M10,532.1406 L71,532.1406 L71,540.4922 L61,550.4922 L10,550.4922 L10,532.1406 " fill="#EEEEEE" style="stroke:#000000;stroke-width:1.5;"/><rect fill="none" height="79.0547" style="stroke:#000000;stroke-width:1.5;" width="624.5" x="10" y="532.1406"/><text fill="#000000" font-family="sans-serif" font-size="13" font-weight="bold" lengthAdjust="spacing" textLength="16" x="25" y="546.6357">alt</text><text fill="#000000" font-family="sans-serif" font-size="11" font-weight="bold" lengthAdjust="spacing" textLength="199" x="86" y="545.5596">[staff.Username.name != username]</text><polygon fill="#181818" points="305,568.8438,295,572.8438,305,576.8438,301,572.8438" style="stroke:#181818;stroke-width:1.0;"/><line style="stroke:#181818;stroke-width:1.0;stroke-dasharray:2.0,2.0;" x1="299" x2="530" y1="572.8438" y2="572.8438"/><text fill="#000000" font-family="sans-serif" font-size="13" font-weight="bold" lengthAdjust="spacing" textLength="14" x="311" y="567.9873">13</text><text fill="#000000" font-family="sans-serif" font-size="13" lengthAdjust="spacing" textLength="195" x="329" y="567.9873">BusinessRuleValidationException</text><polygon fill="#181818" points="60,599.1953,50,603.1953,60,607.1953,56,603.1953" style="stroke:#181818;stroke-width:1.0;"/><line style="stroke:#181818;stroke-width:1.0;stroke-dasharray:2.0,2.0;" x1="54" x2="283" y1="603.1953" y2="603.1953"/><text fill="#000000" font-family="sans-serif" font-size="13" font-weight="bold" lengthAdjust="spacing" textLength="14" x="66" y="598.3389">14</text><text fill="#000000" font-family="sans-serif" font-size="13" lengthAdjust="spacing" textLength="101" x="84" y="598.3389">401 Unauthorized</text><path d="M10,625.1953 L71,625.1953 L71,633.5469 L61,643.5469 L10,643.5469 L10,625.1953 " fill="#EEEEEE" style="stroke:#000000;stroke-width:1.5;"/><rect fill="none" height="79.0547" style="stroke:#000000;stroke-width:1.5;" width="624.5" x="10" y="625.1953"/><text fill="#000000" font-family="sans-serif" font-size="13" font-weight="bold" lengthAdjust="spacing" textLength="16" x="25" y="639.6904">alt</text><text fill="#000000" font-family="sans-serif" font-size="11" font-weight="bold" lengthAdjust="spacing" textLength="225" x="86" y="638.6143">[operationRequest.Status == SCHEDULED]</text><polygon fill="#181818" points="305,661.8984,295,665.8984,305,669.8984,301,665.8984" style="stroke:#181818;stroke-width:1.0;"/><line style="stroke:#181818;stroke-width:1.0;stroke-dasharray:2.0,2.0;" x1="299" x2="530" y1="665.8984" y2="665.8984"/><text fill="#000000" font-family="sans-serif" font-size="13" font-weight="bold" lengthAdjust="spacing" textLength="14" x="311" y="661.042">15</text><text fill="#000000" font-family="sans-serif" font-size="13" lengthAdjust="spacing" textLength="195" x="329" y="661.042">BusinessRuleValidationException</text><polygon fill="#181818" points="60,692.25,50,696.25,60,700.25,56,696.25" style="stroke:#181818;stroke-width:1.0;"/><line style="stroke:#181818;stroke-width:1.0;stroke-dasharray:2.0,2.0;" x1="54" x2="283" y1="696.25" y2="696.25"/><text fill="#000000" font-family="sans-serif" font-size="13" font-weight="bold" lengthAdjust="spacing" textLength="14" x="66" y="691.3936">16</text><text fill="#000000" font-family="sans-serif" font-size="13" lengthAdjust="spacing" textLength="82" x="84" y="691.3936">403 Forbidden</text><polygon fill="#181818" points="954,729.6016,964,733.6016,954,737.6016,958,733.6016" style="stroke:#181818;stroke-width:1.0;"/><line style="stroke:#181818;stroke-width:1.0;" x1="541" x2="960" y1="733.6016" y2="733.6016"/><text fill="#000000" font-family="sans-serif" font-size="13" font-weight="bold" lengthAdjust="spacing" textLength="14" x="548" y="728.7451">17</text><text fill="#000000" font-family="sans-serif" font-size="13" lengthAdjust="spacing" textLength="145" x="566" y="728.7451">create(operationRequest)</text><polygon fill="#181818" points="552,759.9531,542,763.9531,552,767.9531,548,763.9531" style="stroke:#181818;stroke-width:1.0;"/><line style="stroke:#181818;stroke-width:1.0;" x1="546" x2="970" y1="763.9531" y2="763.9531"/><text fill="#000000" font-family="sans-serif" font-size="13" font-weight="bold" lengthAdjust="spacing" textLength="14" x="558" y="759.0967">18</text><text fill="#000000" font-family="sans-serif" font-size="13" lengthAdjust="spacing" textLength="18" x="576" y="759.0967">dto</text><polygon fill="#181818" points="1131,790.3047,1141,794.3047,1131,798.3047,1135,794.3047" style="stroke:#181818;stroke-width:1.0;"/><line style="stroke:#181818;stroke-width:1.0;" x1="541" x2="1137" y1="794.3047" y2="794.3047"/><text fill="#000000" font-family="sans-serif" font-size="13" font-weight="bold" lengthAdjust="spacing" textLength="14" x="548" y="789.4482">19</text><text fill="#000000" font-family="sans-serif" font-size="13" lengthAdjust="spacing" textLength="155" x="566" y="789.4482">Remove(operationRequest)</text><polygon fill="#181818" points="305,820.6563,295,824.6563,305,828.6563,301,824.6563" style="stroke:#181818;stroke-width:1.0;"/><line style="stroke:#181818;stroke-width:1.0;stroke-dasharray:2.0,2.0;" x1="299" x2="535" y1="824.6563" y2="824.6563"/><text fill="#000000" font-family="sans-serif" font-size="13" font-weight="bold" lengthAdjust="spacing" textLength="14" x="311" y="819.7998">20</text><text fill="#000000" font-family="sans-serif" font-size="13" lengthAdjust="spacing" textLength="18" x="329" y="819.7998">dto</text><polygon fill="#181818" points="55,851.0078,45,855.0078,55,859.0078,51,855.0078" style="stroke:#181818;stroke-width:1.0;"/><line style="stroke:#181818;stroke-width:1.0;stroke-dasharray:2.0,2.0;" x1="49" x2="288" y1="855.0078" y2="855.0078"/><text fill="#000000" font-family="sans-serif" font-size="13" font-weight="bold" lengthAdjust="spacing" textLength="14" x="61" y="850.1514">21</text><text fill="#000000" font-family="sans-serif" font-size="13" lengthAdjust="spacing" textLength="44" x="79" y="850.1514">200 OK</text><!--SRC=[nLN1Sjem4Btp5LjEwI64jZbv0ZD9xBPCcMG6Gk_2Mb9DZUHACbFQwRzNah4j2rGcbrG7aAnzJs_thMLIQS6hxHhbO41oBIGCKs7_Xq0KrDD1IQHcEIi9rp1yB54IpGHVu8yAbLRtWcifYW9hJBU4cvjkCPt-csQ9SiToT1I7kS4VPY7ujjBVa9krO_2XTkSil3txQLzYgaMTgnO6aOejOTm0AD5aJHJ2S1PANM0f53E5sJjWjupWbvfiDW4eUEOZhGziHpGsvGSpwYbSJltw9f1cy-mf0rAoAn7wSlMRqJyEt19sMFVS3e_Ea3UbIqnMMx73MxNd-GMZRzlubkiGscxOqS0DavTR0fzGt-rdj4VK8-kYU_jsU4INFOLXmZqanNFSdjRGZ4vmUCR8XSvYQGH4Hxc41_KJKdOtbaL8JGfzL06OJ81NHN4wpx1t7apa0ZSeaUUO_Sonj5Gd6yD03msOmFNu6Xw4Xe-YudI0d8AHukGu_VzHGyHT_qfmpix5ypFI6Lyfb9niyKAwNZSNm4YBxyWZvdeyHyRwP_HDhGw7n7prMTiYZXff8_i3RoQdQQ9blQiKuwZKeYhmAoaOTLtoalg-WnKdHfgGx1VsRJxrJkXAMUENzv-pT3NFqjUI-S6qW5mpIf4t6Y7M1_Q2Jo2NQCf-z697F3UO8wyjJyzY6WHvxeRus0LPtxPdL4Nhw0lmhuoWMMDbV3yUm-ENGO3slXL-GlKdwIy0]--></g></svg>